%TF.GenerationSoftware,KiCad,Pcbnew,8.0.6*%
%TF.CreationDate,2025-08-05T17:05:13-05:00*%
%TF.ProjectId,PPDuino_Nano_Procesador,50504475-696e-46f5-9f4e-616e6f5f5072,rev?*%
%TF.SameCoordinates,Original*%
%TF.FileFunction,Copper,L1,Top*%
%TF.FilePolarity,Positive*%
%FSLAX46Y46*%
G04 Gerber Fmt 4.6, Leading zero omitted, Abs format (unit mm)*
G04 Created by KiCad (PCBNEW 8.0.6) date 2025-08-05 17:05:13*
%MOMM*%
%LPD*%
G01*
G04 APERTURE LIST*
%TA.AperFunction,ComponentPad*%
%ADD10R,1.800000X1.800000*%
%TD*%
%TA.AperFunction,ComponentPad*%
%ADD11O,1.800000X1.800000*%
%TD*%
%TA.AperFunction,ComponentPad*%
%ADD12C,1.800000*%
%TD*%
%TA.AperFunction,ComponentPad*%
%ADD13R,1.980000X3.960000*%
%TD*%
%TA.AperFunction,ComponentPad*%
%ADD14O,1.980000X3.960000*%
%TD*%
%TA.AperFunction,ComponentPad*%
%ADD15R,2.800000X2.000000*%
%TD*%
%TA.AperFunction,ComponentPad*%
%ADD16O,2.800000X2.000000*%
%TD*%
%TA.AperFunction,ComponentPad*%
%ADD17C,2.300000*%
%TD*%
%TA.AperFunction,ComponentPad*%
%ADD18C,2.400000*%
%TD*%
%TA.AperFunction,ViaPad*%
%ADD19C,1.500000*%
%TD*%
%TA.AperFunction,Conductor*%
%ADD20C,0.600000*%
%TD*%
%TA.AperFunction,Conductor*%
%ADD21C,1.000000*%
%TD*%
G04 APERTURE END LIST*
D10*
%TO.P,A1,1,D1/TX*%
%TO.N,unconnected-(A1-D1{slash}TX-Pad1)*%
X108100000Y-90120000D03*
D11*
%TO.P,A1,2,D0/RX*%
%TO.N,unconnected-(A1-D0{slash}RX-Pad2)*%
X108100000Y-87580000D03*
%TO.P,A1,3,~{RESET}*%
%TO.N,unconnected-(A1-~{RESET}-Pad3)*%
X108100000Y-85040000D03*
%TO.P,A1,4,GND*%
%TO.N,GND*%
X108100000Y-82500000D03*
%TO.P,A1,5,D2*%
%TO.N,/RXm*%
X108100000Y-79960000D03*
%TO.P,A1,6,D3*%
%TO.N,/PWM0m*%
X108100000Y-77420000D03*
%TO.P,A1,7,D4*%
%TO.N,/TXm*%
X108100000Y-74880000D03*
%TO.P,A1,8,D5*%
%TO.N,/PWM1m*%
X108100000Y-72340000D03*
%TO.P,A1,9,D6*%
%TO.N,/PWM2m*%
X108100000Y-69800000D03*
%TO.P,A1,10,D7*%
%TO.N,/RLY0*%
X108100000Y-67260000D03*
%TO.P,A1,11,D8*%
%TO.N,/RLY1*%
X108100000Y-64720000D03*
%TO.P,A1,12,D9*%
%TO.N,/PWM3m*%
X108100000Y-62180000D03*
%TO.P,A1,13,D10*%
%TO.N,/SS*%
X108100000Y-59640000D03*
%TO.P,A1,14,D11*%
%TO.N,/MOSI*%
X108100000Y-57100000D03*
%TO.P,A1,15,D12*%
%TO.N,/MISO*%
X108100000Y-54560000D03*
%TO.P,A1,16,D13*%
%TO.N,/SCK*%
X92860000Y-54560000D03*
%TO.P,A1,17,3V3*%
%TO.N,+3.3V*%
X92860000Y-57100000D03*
%TO.P,A1,18,AREF*%
%TO.N,unconnected-(A1-AREF-Pad18)*%
X92860000Y-59640000D03*
%TO.P,A1,19,A0*%
%TO.N,/DI0m*%
X92860000Y-62180000D03*
%TO.P,A1,20,A1*%
%TO.N,/DI1m*%
X92860000Y-64720000D03*
%TO.P,A1,21,A2*%
%TO.N,/DI2m*%
X92860000Y-67260000D03*
%TO.P,A1,22,A3*%
%TO.N,/DI3m*%
X92860000Y-69800000D03*
%TO.P,A1,23,A4*%
%TO.N,/SDA*%
X92860000Y-72340000D03*
%TO.P,A1,24,A5*%
%TO.N,/SCL*%
X92860000Y-74880000D03*
%TO.P,A1,25,A6*%
%TO.N,/AI1m*%
X92860000Y-77420000D03*
%TO.P,A1,26,A7*%
%TO.N,/AI0m*%
X92860000Y-79960000D03*
%TO.P,A1,27,+5V*%
%TO.N,+5V*%
X92860000Y-82500000D03*
%TO.P,A1,28,~{RESET}*%
%TO.N,unconnected-(A1-~{RESET}-Pad28)*%
X92860000Y-85040000D03*
%TO.P,A1,29,GND*%
%TO.N,GND*%
X92860000Y-87580000D03*
%TO.P,A1,30,VIN*%
%TO.N,unconnected-(A1-VIN-Pad30)*%
X92860000Y-90120000D03*
%TD*%
D10*
%TO.P,C1,1*%
%TO.N,VDD*%
X126800000Y-100100000D03*
D12*
%TO.P,C1,2*%
%TO.N,GND*%
X126800000Y-97600000D03*
%TD*%
D13*
%TO.P,J1,1,Pin_1*%
%TO.N,GND*%
X127200000Y-53340000D03*
D14*
%TO.P,J1,2,Pin_2*%
%TO.N,VDD*%
X122200000Y-53340000D03*
%TD*%
D10*
%TO.P,J2,1,Pin_1*%
%TO.N,GND*%
X120300000Y-92040000D03*
D11*
%TO.P,J2,2,Pin_2*%
%TO.N,VDD*%
X120300000Y-89500000D03*
%TO.P,J2,3,Pin_3*%
%TO.N,GND*%
X120300000Y-86960000D03*
%TO.P,J2,4,Pin_4*%
%TO.N,+5V*%
X120300000Y-84420000D03*
%TO.P,J2,5,Pin_5*%
%TO.N,/SDA*%
X120300000Y-81880000D03*
%TO.P,J2,6,Pin_6*%
%TO.N,/SCL*%
X120300000Y-79340000D03*
%TO.P,J2,7,Pin_7*%
%TO.N,/RXm*%
X120300000Y-76800000D03*
%TO.P,J2,8,Pin_8*%
%TO.N,/TXm*%
X120300000Y-74260000D03*
%TO.P,J2,9,Pin_9*%
%TO.N,/SS*%
X120300000Y-71720000D03*
%TO.P,J2,10,Pin_10*%
%TO.N,/MOSI*%
X120300000Y-69180000D03*
%TO.P,J2,11,Pin_11*%
%TO.N,/MISO*%
X120300000Y-66640000D03*
%TO.P,J2,12,Pin_12*%
%TO.N,/SCK*%
X120300000Y-64100000D03*
%TD*%
D10*
%TO.P,J12,1,Pin_1*%
%TO.N,GND*%
X115715000Y-50665000D03*
D11*
%TO.P,J12,2,Pin_2*%
%TO.N,VDD*%
X113175000Y-50665000D03*
%TO.P,J12,3,Pin_3*%
%TO.N,GND*%
X110635000Y-50665000D03*
%TO.P,J12,4,Pin_4*%
%TO.N,+5V*%
X108095000Y-50665000D03*
%TO.P,J12,5,Pin_5*%
%TO.N,/RLY1*%
X105555000Y-50665000D03*
%TO.P,J12,6,Pin_6*%
%TO.N,/RLY0*%
X103015000Y-50665000D03*
%TO.P,J12,7,Pin_7*%
%TO.N,/PWM3m*%
X100475000Y-50665000D03*
%TO.P,J12,8,Pin_8*%
%TO.N,/PWM2m*%
X97935000Y-50665000D03*
%TO.P,J12,9,Pin_9*%
%TO.N,/PWM1m*%
X95395000Y-50665000D03*
%TO.P,J12,10,Pin_10*%
%TO.N,/PWM0m*%
X92855000Y-50665000D03*
%TD*%
D10*
%TO.P,C2,1*%
%TO.N,+5V*%
X126600000Y-111505113D03*
D12*
%TO.P,C2,2*%
%TO.N,GND*%
X126600000Y-109005113D03*
%TD*%
D15*
%TO.P,U1,1,IN*%
%TO.N,VDD*%
X113830000Y-107240000D03*
D16*
%TO.P,U1,2,GND*%
%TO.N,GND*%
X113830000Y-104700000D03*
%TO.P,U1,3,OUT*%
%TO.N,+5V*%
X113830000Y-102160000D03*
%TD*%
D17*
%TO.P,U6,1,+IN*%
%TO.N,VDD*%
X121900000Y-111600000D03*
X121900000Y-109100000D03*
%TO.P,U6,2,-IN*%
%TO.N,GND*%
X121900000Y-100100000D03*
X121900000Y-97600000D03*
%TO.P,U6,3,+OUT*%
%TO.N,+5V*%
X92900000Y-111600000D03*
X92900000Y-109100000D03*
%TO.P,U6,4,-OUT*%
%TO.N,GND*%
X92900000Y-100100000D03*
D18*
X92900000Y-97600000D03*
%TD*%
D10*
%TO.P,J11,1,Pin_1*%
%TO.N,GND*%
X115740000Y-117700000D03*
D11*
%TO.P,J11,2,Pin_2*%
%TO.N,VDD*%
X113200000Y-117700000D03*
%TO.P,J11,3,Pin_3*%
%TO.N,GND*%
X110660000Y-117700000D03*
%TO.P,J11,4,Pin_4*%
%TO.N,+5V*%
X108120000Y-117700000D03*
%TO.P,J11,5,Pin_5*%
%TO.N,/AI1m*%
X105580000Y-117700000D03*
%TO.P,J11,6,Pin_6*%
%TO.N,/AI0m*%
X103040000Y-117700000D03*
%TO.P,J11,7,Pin_7*%
%TO.N,/DI3m*%
X100500000Y-117700000D03*
%TO.P,J11,8,Pin_8*%
%TO.N,/DI2m*%
X97960000Y-117700000D03*
%TO.P,J11,9,Pin_9*%
%TO.N,/DI1m*%
X95420000Y-117700000D03*
%TO.P,J11,10,Pin_10*%
%TO.N,/DI0m*%
X92880000Y-117700000D03*
%TD*%
D19*
%TO.N,/DI3m*%
X98600000Y-110500000D03*
X103200000Y-110500000D03*
%TO.N,/SCK*%
X92860000Y-52800000D03*
X115700000Y-60300000D03*
%TO.N,/DI1m*%
X106200000Y-113700000D03*
X95400000Y-113700000D03*
%TO.N,/SDA*%
X114400000Y-83700000D03*
X114400000Y-88700000D03*
X103600000Y-73100000D03*
X96500000Y-73100000D03*
%TO.N,GND*%
X118500000Y-54500000D03*
X113500000Y-96000000D03*
X94800000Y-96000000D03*
X116200000Y-86100000D03*
X116200000Y-104600000D03*
X116200000Y-94400000D03*
X122000000Y-104600000D03*
X118500000Y-50665000D03*
%TO.N,/DI0m*%
X92900000Y-115300000D03*
X107600000Y-115200000D03*
%TO.N,+5V*%
X109500000Y-98200000D03*
X109500000Y-114200000D03*
X96800000Y-98200000D03*
X119400000Y-114100000D03*
%TO.N,/SCL*%
X112200000Y-81800000D03*
X96500000Y-75400000D03*
X112200000Y-88100000D03*
X105200000Y-75400000D03*
%TO.N,/DI2m*%
X104700000Y-112250000D03*
X97100000Y-112200000D03*
%TO.N,/PWM3m*%
X105600000Y-58400000D03*
X101000000Y-58400000D03*
%TD*%
D20*
%TO.N,/DI3m*%
X98600000Y-110500000D02*
X103200000Y-110500000D01*
%TO.N,/SCK*%
X110400000Y-52600000D02*
X115700000Y-57900000D01*
X92860000Y-52800000D02*
X93060000Y-52600000D01*
X93060000Y-52600000D02*
X110400000Y-52600000D01*
X115700000Y-57900000D02*
X115700000Y-60300000D01*
%TO.N,/DI1m*%
X95400000Y-113700000D02*
X106200000Y-113700000D01*
%TO.N,/SDA*%
X103600000Y-73100000D02*
X96500000Y-73100000D01*
X114400000Y-88700000D02*
X114400000Y-83700000D01*
%TO.N,GND*%
X116200000Y-86100000D02*
X116200000Y-94400000D01*
X116200000Y-104600000D02*
X122000000Y-104600000D01*
D21*
X118500000Y-54500000D02*
X118500000Y-50700000D01*
D20*
X94800000Y-96000000D02*
X113500000Y-96000000D01*
%TO.N,/DI0m*%
X92900000Y-115300000D02*
X93000000Y-115200000D01*
X93000000Y-115200000D02*
X107600000Y-115200000D01*
%TO.N,+5V*%
X109600000Y-114100000D02*
X119400000Y-114100000D01*
X109500000Y-114200000D02*
X109600000Y-114100000D01*
X96800000Y-98200000D02*
X109500000Y-98200000D01*
%TO.N,/SCL*%
X112200000Y-88100000D02*
X112200000Y-81800000D01*
X105200000Y-75400000D02*
X96500000Y-75400000D01*
%TO.N,/DI2m*%
X104650000Y-112200000D02*
X104700000Y-112250000D01*
X97100000Y-112200000D02*
X104650000Y-112200000D01*
%TO.N,/PWM3m*%
X105600000Y-58400000D02*
X101000000Y-58400000D01*
%TD*%
%TA.AperFunction,Conductor*%
%TO.N,GND*%
G36*
X91942705Y-49020185D02*
G01*
X91988460Y-49072989D01*
X91998404Y-49142147D01*
X91969379Y-49205703D01*
X91945521Y-49226950D01*
X91867329Y-49280261D01*
X91791782Y-49331768D01*
X91604952Y-49505121D01*
X91604950Y-49505123D01*
X91446041Y-49704388D01*
X91318608Y-49925109D01*
X91225492Y-50162362D01*
X91225490Y-50162369D01*
X91168777Y-50410845D01*
X91149732Y-50664995D01*
X91149732Y-50665004D01*
X91168777Y-50919154D01*
X91225325Y-51166909D01*
X91225492Y-51167637D01*
X91318607Y-51404888D01*
X91446040Y-51625611D01*
X91446043Y-51625615D01*
X91570046Y-51781111D01*
X91596455Y-51845797D01*
X91583698Y-51914493D01*
X91578826Y-51923213D01*
X91474222Y-52093910D01*
X91380830Y-52319380D01*
X91323853Y-52556702D01*
X91304706Y-52800000D01*
X91323853Y-53043297D01*
X91380830Y-53280621D01*
X91380831Y-53280623D01*
X91463851Y-53481052D01*
X91471320Y-53550521D01*
X91453045Y-53595187D01*
X91453361Y-53595370D01*
X91452023Y-53597686D01*
X91451759Y-53598333D01*
X91451047Y-53599376D01*
X91323608Y-53820109D01*
X91230492Y-54057362D01*
X91230490Y-54057369D01*
X91173777Y-54305845D01*
X91154732Y-54559995D01*
X91154732Y-54560004D01*
X91173777Y-54814154D01*
X91194916Y-54906772D01*
X91230492Y-55062637D01*
X91323607Y-55299888D01*
X91451041Y-55520612D01*
X91577394Y-55679053D01*
X91609954Y-55719882D01*
X91630669Y-55739103D01*
X91666422Y-55799132D01*
X91664046Y-55868961D01*
X91630669Y-55920897D01*
X91609954Y-55940117D01*
X91451041Y-56139388D01*
X91323608Y-56360109D01*
X91230492Y-56597362D01*
X91230490Y-56597369D01*
X91173777Y-56845845D01*
X91154732Y-57099995D01*
X91154732Y-57100004D01*
X91173777Y-57354154D01*
X91203830Y-57485826D01*
X91230492Y-57602637D01*
X91323607Y-57839888D01*
X91451041Y-58060612D01*
X91609949Y-58259876D01*
X91609954Y-58259882D01*
X91630669Y-58279103D01*
X91666422Y-58339132D01*
X91664046Y-58408961D01*
X91630669Y-58460897D01*
X91609954Y-58480117D01*
X91451041Y-58679388D01*
X91323608Y-58900109D01*
X91230492Y-59137362D01*
X91230490Y-59137369D01*
X91173777Y-59385845D01*
X91154732Y-59639995D01*
X91154732Y-59640004D01*
X91173777Y-59894154D01*
X91230489Y-60142627D01*
X91230492Y-60142637D01*
X91323607Y-60379888D01*
X91451041Y-60600612D01*
X91594587Y-60780612D01*
X91609954Y-60799882D01*
X91630669Y-60819103D01*
X91666422Y-60879132D01*
X91664046Y-60948961D01*
X91630669Y-61000897D01*
X91609954Y-61020117D01*
X91451041Y-61219388D01*
X91323608Y-61440109D01*
X91230492Y-61677362D01*
X91230490Y-61677369D01*
X91173777Y-61925845D01*
X91154732Y-62179995D01*
X91154732Y-62180004D01*
X91173777Y-62434154D01*
X91230490Y-62682630D01*
X91230492Y-62682637D01*
X91323608Y-62919890D01*
X91350536Y-62966531D01*
X91451041Y-63140612D01*
X91609949Y-63339876D01*
X91609954Y-63339882D01*
X91630669Y-63359103D01*
X91666422Y-63419132D01*
X91664046Y-63488961D01*
X91630669Y-63540897D01*
X91609954Y-63560117D01*
X91451041Y-63759388D01*
X91323608Y-63980109D01*
X91230492Y-64217362D01*
X91230490Y-64217369D01*
X91173777Y-64465845D01*
X91154732Y-64719995D01*
X91154732Y-64720004D01*
X91173777Y-64974154D01*
X91193510Y-65060612D01*
X91230492Y-65222637D01*
X91303619Y-65408961D01*
X91323608Y-65459890D01*
X91350536Y-65506531D01*
X91451041Y-65680612D01*
X91609949Y-65879876D01*
X91609954Y-65879882D01*
X91630669Y-65899103D01*
X91666422Y-65959132D01*
X91664046Y-66028961D01*
X91630669Y-66080897D01*
X91609954Y-66100117D01*
X91451041Y-66299388D01*
X91323608Y-66520109D01*
X91230492Y-66757362D01*
X91230490Y-66757369D01*
X91173777Y-67005845D01*
X91154732Y-67259995D01*
X91154732Y-67260004D01*
X91173777Y-67514154D01*
X91193510Y-67600612D01*
X91230492Y-67762637D01*
X91303619Y-67948961D01*
X91323608Y-67999890D01*
X91350536Y-68046531D01*
X91451041Y-68220612D01*
X91609949Y-68419876D01*
X91609954Y-68419882D01*
X91630669Y-68439103D01*
X91666422Y-68499132D01*
X91664046Y-68568961D01*
X91630669Y-68620897D01*
X91609954Y-68640117D01*
X91451041Y-68839388D01*
X91323608Y-69060109D01*
X91230492Y-69297362D01*
X91230490Y-69297369D01*
X91173777Y-69545845D01*
X91154732Y-69799995D01*
X91154732Y-69800004D01*
X91173777Y-70054154D01*
X91193510Y-70140612D01*
X91230492Y-70302637D01*
X91303619Y-70488961D01*
X91323608Y-70539890D01*
X91350536Y-70586531D01*
X91451041Y-70760612D01*
X91609949Y-70959876D01*
X91609954Y-70959882D01*
X91630669Y-70979103D01*
X91666422Y-71039132D01*
X91664046Y-71108961D01*
X91630669Y-71160897D01*
X91609954Y-71180117D01*
X91451041Y-71379388D01*
X91323608Y-71600109D01*
X91230492Y-71837362D01*
X91230490Y-71837369D01*
X91173777Y-72085845D01*
X91154732Y-72339995D01*
X91154732Y-72340004D01*
X91173777Y-72594154D01*
X91193510Y-72680612D01*
X91230492Y-72842637D01*
X91303619Y-73028961D01*
X91323608Y-73079890D01*
X91350536Y-73126531D01*
X91451041Y-73300612D01*
X91565347Y-73443947D01*
X91609954Y-73499882D01*
X91630669Y-73519103D01*
X91666422Y-73579132D01*
X91664046Y-73648961D01*
X91630669Y-73700897D01*
X91609954Y-73720117D01*
X91451041Y-73919388D01*
X91323608Y-74140109D01*
X91230492Y-74377362D01*
X91230490Y-74377369D01*
X91173777Y-74625845D01*
X91154732Y-74879995D01*
X91154732Y-74880004D01*
X91173777Y-75134154D01*
X91193510Y-75220612D01*
X91230492Y-75382637D01*
X91303619Y-75568961D01*
X91323608Y-75619890D01*
X91337122Y-75643297D01*
X91451041Y-75840612D01*
X91585197Y-76008838D01*
X91609954Y-76039882D01*
X91630669Y-76059103D01*
X91666422Y-76119132D01*
X91664046Y-76188961D01*
X91630669Y-76240897D01*
X91609954Y-76260117D01*
X91451041Y-76459388D01*
X91323608Y-76680109D01*
X91230492Y-76917362D01*
X91230490Y-76917369D01*
X91173777Y-77165845D01*
X91154732Y-77419995D01*
X91154732Y-77420004D01*
X91173777Y-77674154D01*
X91193510Y-77760612D01*
X91230492Y-77922637D01*
X91303619Y-78108961D01*
X91323608Y-78159890D01*
X91350536Y-78206531D01*
X91451041Y-78380612D01*
X91609949Y-78579876D01*
X91609954Y-78579882D01*
X91630669Y-78599103D01*
X91666422Y-78659132D01*
X91664046Y-78728961D01*
X91630669Y-78780897D01*
X91609954Y-78800117D01*
X91451041Y-78999388D01*
X91323608Y-79220109D01*
X91230492Y-79457362D01*
X91230490Y-79457369D01*
X91173777Y-79705845D01*
X91154732Y-79959995D01*
X91154732Y-79960004D01*
X91173777Y-80214154D01*
X91219441Y-80414223D01*
X91230492Y-80462637D01*
X91303619Y-80648961D01*
X91323608Y-80699890D01*
X91350536Y-80746531D01*
X91451041Y-80920612D01*
X91589242Y-81093910D01*
X91609954Y-81119882D01*
X91630669Y-81139103D01*
X91666422Y-81199132D01*
X91664046Y-81268961D01*
X91630669Y-81320897D01*
X91609954Y-81340117D01*
X91451041Y-81539388D01*
X91323608Y-81760109D01*
X91230492Y-81997362D01*
X91230490Y-81997369D01*
X91173777Y-82245845D01*
X91154732Y-82499995D01*
X91154732Y-82500004D01*
X91173777Y-82754154D01*
X91217253Y-82944636D01*
X91230492Y-83002637D01*
X91303619Y-83188961D01*
X91323608Y-83239890D01*
X91350536Y-83286531D01*
X91451041Y-83460612D01*
X91609949Y-83659876D01*
X91609954Y-83659882D01*
X91630669Y-83679103D01*
X91666422Y-83739132D01*
X91664046Y-83808961D01*
X91630669Y-83860897D01*
X91609954Y-83880117D01*
X91451041Y-84079388D01*
X91323608Y-84300109D01*
X91230492Y-84537362D01*
X91230490Y-84537369D01*
X91173777Y-84785845D01*
X91154732Y-85039995D01*
X91154732Y-85040004D01*
X91173777Y-85294154D01*
X91193510Y-85380612D01*
X91230492Y-85542637D01*
X91323607Y-85779888D01*
X91451041Y-86000612D01*
X91609950Y-86199877D01*
X91796783Y-86373232D01*
X92007366Y-86516805D01*
X92007371Y-86516807D01*
X92007372Y-86516808D01*
X92007373Y-86516809D01*
X92129328Y-86575538D01*
X92236992Y-86627387D01*
X92236993Y-86627387D01*
X92236996Y-86627389D01*
X92480542Y-86702513D01*
X92732565Y-86740500D01*
X92987435Y-86740500D01*
X93239458Y-86702513D01*
X93483004Y-86627389D01*
X93712634Y-86516805D01*
X93923217Y-86373232D01*
X94110050Y-86199877D01*
X94268959Y-86000612D01*
X94396393Y-85779888D01*
X94489508Y-85542637D01*
X94546222Y-85294157D01*
X94565268Y-85040000D01*
X94565268Y-85039995D01*
X106394732Y-85039995D01*
X106394732Y-85040004D01*
X106413777Y-85294154D01*
X106433510Y-85380612D01*
X106470492Y-85542637D01*
X106563607Y-85779888D01*
X106691041Y-86000612D01*
X106786648Y-86120499D01*
X106849954Y-86199882D01*
X106870669Y-86219103D01*
X106906422Y-86279132D01*
X106904046Y-86348961D01*
X106870669Y-86400897D01*
X106849954Y-86420117D01*
X106691041Y-86619388D01*
X106563608Y-86840109D01*
X106470492Y-87077362D01*
X106470490Y-87077369D01*
X106413777Y-87325845D01*
X106394732Y-87579995D01*
X106394732Y-87580004D01*
X106413777Y-87834154D01*
X106470490Y-88082630D01*
X106470492Y-88082637D01*
X106563608Y-88319890D01*
X106664062Y-88493883D01*
X106680535Y-88561784D01*
X106657682Y-88627810D01*
X106644357Y-88643563D01*
X106570185Y-88717736D01*
X106570184Y-88717737D01*
X106474211Y-88870476D01*
X106414631Y-89040745D01*
X106414630Y-89040750D01*
X106399500Y-89175039D01*
X106399500Y-91064960D01*
X106414630Y-91199249D01*
X106414631Y-91199254D01*
X106474211Y-91369523D01*
X106570184Y-91522262D01*
X106697738Y-91649816D01*
X106850478Y-91745789D01*
X106955429Y-91782513D01*
X107020745Y-91805368D01*
X107020750Y-91805369D01*
X107111246Y-91815565D01*
X107155040Y-91820499D01*
X107155043Y-91820500D01*
X107155046Y-91820500D01*
X109044957Y-91820500D01*
X109044958Y-91820499D01*
X109112104Y-91812934D01*
X109179249Y-91805369D01*
X109179252Y-91805368D01*
X109179255Y-91805368D01*
X109349522Y-91745789D01*
X109502262Y-91649816D01*
X109629816Y-91522262D01*
X109725789Y-91369522D01*
X109785368Y-91199255D01*
X109800500Y-91064954D01*
X109800500Y-89175046D01*
X109785368Y-89040745D01*
X109725789Y-88870478D01*
X109629816Y-88717738D01*
X109555643Y-88643565D01*
X109522158Y-88582242D01*
X109527142Y-88512550D01*
X109535937Y-88493884D01*
X109535938Y-88493883D01*
X109636393Y-88319888D01*
X109729508Y-88082637D01*
X109786222Y-87834157D01*
X109801080Y-87635892D01*
X109805268Y-87580004D01*
X109805268Y-87579995D01*
X109786222Y-87325845D01*
X109754262Y-87185821D01*
X109729508Y-87077363D01*
X109636393Y-86840112D01*
X109508959Y-86619388D01*
X109350050Y-86420123D01*
X109329330Y-86400898D01*
X109293576Y-86340870D01*
X109295951Y-86271041D01*
X109329331Y-86219101D01*
X109350050Y-86199877D01*
X109508959Y-86000612D01*
X109636393Y-85779888D01*
X109729508Y-85542637D01*
X109786222Y-85294157D01*
X109805268Y-85040000D01*
X109786222Y-84785843D01*
X109729508Y-84537363D01*
X109636393Y-84300112D01*
X109508959Y-84079388D01*
X109350050Y-83880123D01*
X109163217Y-83706768D01*
X108952634Y-83563195D01*
X108952630Y-83563193D01*
X108952627Y-83563191D01*
X108952626Y-83563190D01*
X108723006Y-83452612D01*
X108723008Y-83452612D01*
X108479466Y-83377489D01*
X108479462Y-83377488D01*
X108479458Y-83377487D01*
X108358231Y-83359214D01*
X108227440Y-83339500D01*
X108227435Y-83339500D01*
X107972565Y-83339500D01*
X107972559Y-83339500D01*
X107815609Y-83363157D01*
X107720542Y-83377487D01*
X107720539Y-83377488D01*
X107720533Y-83377489D01*
X107476992Y-83452612D01*
X107247373Y-83563190D01*
X107247372Y-83563191D01*
X107036782Y-83706768D01*
X106849952Y-83880121D01*
X106849950Y-83880123D01*
X106691041Y-84079388D01*
X106563608Y-84300109D01*
X106470492Y-84537362D01*
X106470490Y-84537369D01*
X106413777Y-84785845D01*
X106394732Y-85039995D01*
X94565268Y-85039995D01*
X94546222Y-84785843D01*
X94489508Y-84537363D01*
X94396393Y-84300112D01*
X94268959Y-84079388D01*
X94110050Y-83880123D01*
X94089330Y-83860898D01*
X94053576Y-83800870D01*
X94055951Y-83731041D01*
X94089331Y-83679101D01*
X94110050Y-83659877D01*
X94268959Y-83460612D01*
X94396393Y-83239888D01*
X94489508Y-83002637D01*
X94546222Y-82754157D01*
X94565268Y-82500000D01*
X94546222Y-82245843D01*
X94489508Y-81997363D01*
X94412048Y-81800000D01*
X110644706Y-81800000D01*
X110663853Y-82043297D01*
X110663853Y-82043300D01*
X110663854Y-82043302D01*
X110706475Y-82220830D01*
X110720830Y-82280619D01*
X110814222Y-82506089D01*
X110941737Y-82714173D01*
X110941738Y-82714175D01*
X110941739Y-82714177D01*
X110941741Y-82714179D01*
X111069791Y-82864106D01*
X111098361Y-82927865D01*
X111099500Y-82944636D01*
X111099500Y-86955361D01*
X111079815Y-87022400D01*
X111069791Y-87035892D01*
X110941741Y-87185819D01*
X110941739Y-87185823D01*
X110814222Y-87393910D01*
X110720830Y-87619380D01*
X110663853Y-87856702D01*
X110644706Y-88100000D01*
X110663853Y-88343297D01*
X110663853Y-88343300D01*
X110663854Y-88343302D01*
X110704487Y-88512550D01*
X110720830Y-88580619D01*
X110814222Y-88806089D01*
X110941737Y-89014173D01*
X110941738Y-89014176D01*
X110995449Y-89077063D01*
X111100241Y-89199759D01*
X111243897Y-89322453D01*
X111285823Y-89358261D01*
X111285826Y-89358262D01*
X111493910Y-89485777D01*
X111719381Y-89579169D01*
X111719378Y-89579169D01*
X111719384Y-89579170D01*
X111719388Y-89579172D01*
X111956698Y-89636146D01*
X112200000Y-89655294D01*
X112443302Y-89636146D01*
X112680612Y-89579172D01*
X112906089Y-89485777D01*
X112914470Y-89480640D01*
X112981910Y-89462392D01*
X113048515Y-89483502D01*
X113084992Y-89521574D01*
X113141737Y-89614173D01*
X113141738Y-89614176D01*
X113176856Y-89655294D01*
X113300241Y-89799759D01*
X113377616Y-89865843D01*
X113485823Y-89958261D01*
X113485826Y-89958262D01*
X113693910Y-90085777D01*
X113919381Y-90179169D01*
X113919378Y-90179169D01*
X113919384Y-90179170D01*
X113919388Y-90179172D01*
X114156698Y-90236146D01*
X114400000Y-90255294D01*
X114643302Y-90236146D01*
X114880612Y-90179172D01*
X115106089Y-90085777D01*
X115314179Y-89958259D01*
X115499759Y-89799759D01*
X115658259Y-89614179D01*
X115728231Y-89499995D01*
X118594732Y-89499995D01*
X118594732Y-89500004D01*
X118613777Y-89754154D01*
X118660363Y-89958262D01*
X118670492Y-90002637D01*
X118762138Y-90236146D01*
X118763608Y-90239890D01*
X118790536Y-90286531D01*
X118891041Y-90460612D01*
X119049950Y-90659877D01*
X119236783Y-90833232D01*
X119447366Y-90976805D01*
X119447371Y-90976807D01*
X119447372Y-90976808D01*
X119447373Y-90976809D01*
X119569328Y-91035538D01*
X119676992Y-91087387D01*
X119676993Y-91087387D01*
X119676996Y-91087389D01*
X119920542Y-91162513D01*
X120172565Y-91200500D01*
X120427435Y-91200500D01*
X120679458Y-91162513D01*
X120923004Y-91087389D01*
X121152634Y-90976805D01*
X121363217Y-90833232D01*
X121550050Y-90659877D01*
X121708959Y-90460612D01*
X121836393Y-90239888D01*
X121929508Y-90002637D01*
X121986222Y-89754157D01*
X121999335Y-89579169D01*
X122005268Y-89500004D01*
X122005268Y-89499995D01*
X121986222Y-89245845D01*
X121975703Y-89199759D01*
X121929508Y-88997363D01*
X121836393Y-88760112D01*
X121708959Y-88539388D01*
X121550050Y-88340123D01*
X121363217Y-88166768D01*
X121152634Y-88023195D01*
X121152630Y-88023193D01*
X121152627Y-88023191D01*
X121152626Y-88023190D01*
X120923006Y-87912612D01*
X120923008Y-87912612D01*
X120679466Y-87837489D01*
X120679462Y-87837488D01*
X120679458Y-87837487D01*
X120558231Y-87819214D01*
X120427440Y-87799500D01*
X120427435Y-87799500D01*
X120172565Y-87799500D01*
X120172559Y-87799500D01*
X120015609Y-87823157D01*
X119920542Y-87837487D01*
X119920539Y-87837488D01*
X119920533Y-87837489D01*
X119676992Y-87912612D01*
X119447373Y-88023190D01*
X119447372Y-88023191D01*
X119236782Y-88166768D01*
X119049952Y-88340121D01*
X119049950Y-88340123D01*
X118891041Y-88539388D01*
X118763608Y-88760109D01*
X118670492Y-88997362D01*
X118670490Y-88997369D01*
X118613777Y-89245845D01*
X118594732Y-89499995D01*
X115728231Y-89499995D01*
X115785777Y-89406089D01*
X115879172Y-89180612D01*
X115936146Y-88943302D01*
X115955294Y-88700000D01*
X115936146Y-88456698D01*
X115879172Y-88219388D01*
X115879169Y-88219380D01*
X115785777Y-87993910D01*
X115687878Y-87834154D01*
X115658259Y-87785821D01*
X115658258Y-87785819D01*
X115530209Y-87635892D01*
X115501639Y-87572131D01*
X115500500Y-87555361D01*
X115500500Y-84844636D01*
X115520185Y-84777597D01*
X115530203Y-84764112D01*
X115658259Y-84614179D01*
X115785777Y-84406089D01*
X115879172Y-84180612D01*
X115936146Y-83943302D01*
X115955294Y-83700000D01*
X115936146Y-83456698D01*
X115879172Y-83219388D01*
X115866569Y-83188961D01*
X115785777Y-82993910D01*
X115658262Y-82785826D01*
X115658261Y-82785823D01*
X115597071Y-82714179D01*
X115499759Y-82600241D01*
X115377063Y-82495449D01*
X115314176Y-82441738D01*
X115314173Y-82441737D01*
X115106089Y-82314222D01*
X114880618Y-82220830D01*
X114880621Y-82220830D01*
X114774992Y-82195470D01*
X114643302Y-82163854D01*
X114643300Y-82163853D01*
X114643297Y-82163853D01*
X114400000Y-82144706D01*
X114156702Y-82163853D01*
X113919380Y-82220830D01*
X113893421Y-82231583D01*
X113823952Y-82239051D01*
X113761473Y-82207775D01*
X113725821Y-82147686D01*
X113725397Y-82088074D01*
X113736146Y-82043302D01*
X113755294Y-81800000D01*
X113736146Y-81556698D01*
X113679172Y-81319388D01*
X113668338Y-81293232D01*
X113585777Y-81093910D01*
X113458262Y-80885826D01*
X113458261Y-80885823D01*
X113422453Y-80843897D01*
X113299759Y-80700241D01*
X113148485Y-80571041D01*
X113114176Y-80541738D01*
X113114173Y-80541737D01*
X112906089Y-80414222D01*
X112680618Y-80320830D01*
X112680621Y-80320830D01*
X112574992Y-80295470D01*
X112443302Y-80263854D01*
X112443300Y-80263853D01*
X112443297Y-80263853D01*
X112200000Y-80244706D01*
X111956702Y-80263853D01*
X111956698Y-80263854D01*
X111803593Y-80300612D01*
X111719380Y-80320830D01*
X111493910Y-80414222D01*
X111285826Y-80541737D01*
X111285823Y-80541738D01*
X111100241Y-80700241D01*
X110941738Y-80885823D01*
X110941737Y-80885826D01*
X110814222Y-81093910D01*
X110720830Y-81319380D01*
X110720828Y-81319387D01*
X110720828Y-81319388D01*
X110706909Y-81377363D01*
X110663853Y-81556702D01*
X110644706Y-81800000D01*
X94412048Y-81800000D01*
X94396393Y-81760112D01*
X94268959Y-81539388D01*
X94110050Y-81340123D01*
X94089330Y-81320898D01*
X94053576Y-81260870D01*
X94055951Y-81191041D01*
X94089331Y-81139101D01*
X94110050Y-81119877D01*
X94268959Y-80920612D01*
X94396393Y-80699888D01*
X94489508Y-80462637D01*
X94546222Y-80214157D01*
X94565268Y-79960000D01*
X94546222Y-79705843D01*
X94489508Y-79457363D01*
X94396393Y-79220112D01*
X94268959Y-78999388D01*
X94110050Y-78800123D01*
X94089330Y-78780898D01*
X94053576Y-78720870D01*
X94055951Y-78651041D01*
X94089331Y-78599101D01*
X94110050Y-78579877D01*
X94268959Y-78380612D01*
X94396393Y-78159888D01*
X94489508Y-77922637D01*
X94546222Y-77674157D01*
X94565268Y-77420000D01*
X94546222Y-77165843D01*
X94489508Y-76917363D01*
X94396393Y-76680112D01*
X94268959Y-76459388D01*
X94110050Y-76260123D01*
X94089330Y-76240898D01*
X94053576Y-76180870D01*
X94055951Y-76111041D01*
X94089331Y-76059101D01*
X94110050Y-76039877D01*
X94268959Y-75840612D01*
X94396393Y-75619888D01*
X94489508Y-75382637D01*
X94546222Y-75134157D01*
X94556284Y-74999888D01*
X94565268Y-74880004D01*
X94565268Y-74879995D01*
X94546222Y-74625845D01*
X94541213Y-74603900D01*
X94489508Y-74377363D01*
X94396393Y-74140112D01*
X94268959Y-73919388D01*
X94110050Y-73720123D01*
X94089330Y-73700898D01*
X94053576Y-73640870D01*
X94055951Y-73571041D01*
X94089331Y-73519101D01*
X94110050Y-73499877D01*
X94268959Y-73300612D01*
X94396393Y-73079888D01*
X94489508Y-72842637D01*
X94546222Y-72594157D01*
X94565268Y-72340000D01*
X94546222Y-72085843D01*
X94489508Y-71837363D01*
X94396393Y-71600112D01*
X94268959Y-71379388D01*
X94110050Y-71180123D01*
X94089330Y-71160898D01*
X94053576Y-71100870D01*
X94055951Y-71031041D01*
X94089331Y-70979101D01*
X94110050Y-70959877D01*
X94268959Y-70760612D01*
X94396393Y-70539888D01*
X94489508Y-70302637D01*
X94546222Y-70054157D01*
X94565268Y-69800000D01*
X94546222Y-69545843D01*
X94489508Y-69297363D01*
X94396393Y-69060112D01*
X94268959Y-68839388D01*
X94110050Y-68640123D01*
X94089330Y-68620898D01*
X94053576Y-68560870D01*
X94055951Y-68491041D01*
X94089331Y-68439101D01*
X94110050Y-68419877D01*
X94268959Y-68220612D01*
X94396393Y-67999888D01*
X94489508Y-67762637D01*
X94546222Y-67514157D01*
X94565268Y-67260000D01*
X94546222Y-67005843D01*
X94489508Y-66757363D01*
X94396393Y-66520112D01*
X94268959Y-66299388D01*
X94110050Y-66100123D01*
X94089330Y-66080898D01*
X94053576Y-66020870D01*
X94055951Y-65951041D01*
X94089331Y-65899101D01*
X94110050Y-65879877D01*
X94268959Y-65680612D01*
X94396393Y-65459888D01*
X94489508Y-65222637D01*
X94546222Y-64974157D01*
X94565268Y-64720000D01*
X94546222Y-64465843D01*
X94489508Y-64217363D01*
X94396393Y-63980112D01*
X94268959Y-63759388D01*
X94110050Y-63560123D01*
X94089330Y-63540898D01*
X94053576Y-63480870D01*
X94055951Y-63411041D01*
X94089331Y-63359101D01*
X94110050Y-63339877D01*
X94268959Y-63140612D01*
X94396393Y-62919888D01*
X94489508Y-62682637D01*
X94546222Y-62434157D01*
X94565268Y-62180000D01*
X94546222Y-61925843D01*
X94489508Y-61677363D01*
X94396393Y-61440112D01*
X94268959Y-61219388D01*
X94110050Y-61020123D01*
X94089330Y-61000898D01*
X94053576Y-60940870D01*
X94055951Y-60871041D01*
X94089331Y-60819101D01*
X94110050Y-60799877D01*
X94268959Y-60600612D01*
X94396393Y-60379888D01*
X94489508Y-60142637D01*
X94546222Y-59894157D01*
X94554384Y-59785232D01*
X94565268Y-59640004D01*
X94565268Y-59639995D01*
X94546222Y-59385845D01*
X94546216Y-59385819D01*
X94489508Y-59137363D01*
X94396393Y-58900112D01*
X94268959Y-58679388D01*
X94110050Y-58480123D01*
X94089330Y-58460898D01*
X94053576Y-58400870D01*
X94055951Y-58331041D01*
X94089331Y-58279101D01*
X94110050Y-58259877D01*
X94268959Y-58060612D01*
X94396393Y-57839888D01*
X94489508Y-57602637D01*
X94546222Y-57354157D01*
X94562140Y-57141738D01*
X94565268Y-57100004D01*
X94565268Y-57099995D01*
X94546222Y-56845845D01*
X94489509Y-56597371D01*
X94489508Y-56597363D01*
X94396393Y-56360112D01*
X94268959Y-56139388D01*
X94110050Y-55940123D01*
X94089330Y-55920898D01*
X94053576Y-55860870D01*
X94055951Y-55791041D01*
X94089331Y-55739101D01*
X94110050Y-55719877D01*
X94268959Y-55520612D01*
X94396393Y-55299888D01*
X94489508Y-55062637D01*
X94546222Y-54814157D01*
X94565268Y-54560000D01*
X94556827Y-54447365D01*
X94546222Y-54305845D01*
X94489509Y-54057369D01*
X94489508Y-54057363D01*
X94415894Y-53869801D01*
X94409726Y-53800206D01*
X94442164Y-53738322D01*
X94502908Y-53703799D01*
X94531323Y-53700500D01*
X106428677Y-53700500D01*
X106495716Y-53720185D01*
X106541471Y-53772989D01*
X106551415Y-53842147D01*
X106544105Y-53869803D01*
X106470492Y-54057362D01*
X106470490Y-54057369D01*
X106413777Y-54305845D01*
X106394732Y-54559995D01*
X106394732Y-54560004D01*
X106413777Y-54814154D01*
X106434916Y-54906772D01*
X106470492Y-55062637D01*
X106563607Y-55299888D01*
X106691041Y-55520612D01*
X106817394Y-55679053D01*
X106849954Y-55719882D01*
X106870669Y-55739103D01*
X106906422Y-55799132D01*
X106904046Y-55868961D01*
X106870669Y-55920897D01*
X106849954Y-55940117D01*
X106691041Y-56139388D01*
X106563608Y-56360109D01*
X106470492Y-56597362D01*
X106470489Y-56597371D01*
X106413777Y-56845844D01*
X106413776Y-56845855D01*
X106411101Y-56881551D01*
X106386461Y-56946932D01*
X106330385Y-56988613D01*
X106260677Y-56993360D01*
X106239996Y-56986845D01*
X106080623Y-56920831D01*
X106080621Y-56920830D01*
X105917014Y-56881551D01*
X105843302Y-56863854D01*
X105843300Y-56863853D01*
X105843297Y-56863853D01*
X105600000Y-56844706D01*
X105356702Y-56863853D01*
X105119380Y-56920830D01*
X104893910Y-57014222D01*
X104685826Y-57141737D01*
X104685817Y-57141743D01*
X104535894Y-57269790D01*
X104472133Y-57298361D01*
X104455363Y-57299500D01*
X102144637Y-57299500D01*
X102077598Y-57279815D01*
X102064106Y-57269790D01*
X101914182Y-57141743D01*
X101914173Y-57141737D01*
X101706089Y-57014222D01*
X101480618Y-56920830D01*
X101480621Y-56920830D01*
X101317014Y-56881551D01*
X101243302Y-56863854D01*
X101243300Y-56863853D01*
X101243297Y-56863853D01*
X101000000Y-56844706D01*
X100756702Y-56863853D01*
X100519380Y-56920830D01*
X100293910Y-57014222D01*
X100085826Y-57141737D01*
X100085823Y-57141738D01*
X99900241Y-57300241D01*
X99741738Y-57485823D01*
X99741737Y-57485826D01*
X99614222Y-57693910D01*
X99520830Y-57919380D01*
X99463853Y-58156702D01*
X99444706Y-58400000D01*
X99463853Y-58643297D01*
X99520830Y-58880619D01*
X99614222Y-59106089D01*
X99741737Y-59314173D01*
X99741738Y-59314176D01*
X99741741Y-59314179D01*
X99900241Y-59499759D01*
X99935895Y-59530210D01*
X100085823Y-59658261D01*
X100085826Y-59658262D01*
X100293910Y-59785777D01*
X100519381Y-59879169D01*
X100519378Y-59879169D01*
X100519384Y-59879170D01*
X100519388Y-59879172D01*
X100756698Y-59936146D01*
X101000000Y-59955294D01*
X101243302Y-59936146D01*
X101480612Y-59879172D01*
X101706089Y-59785777D01*
X101914179Y-59658259D01*
X101989522Y-59593910D01*
X102064106Y-59530210D01*
X102127867Y-59501639D01*
X102144637Y-59500500D01*
X104455363Y-59500500D01*
X104522402Y-59520185D01*
X104535894Y-59530210D01*
X104664442Y-59640000D01*
X104685821Y-59658259D01*
X104685824Y-59658261D01*
X104685826Y-59658262D01*
X104893910Y-59785777D01*
X105119381Y-59879169D01*
X105119378Y-59879169D01*
X105119384Y-59879170D01*
X105119388Y-59879172D01*
X105356698Y-59936146D01*
X105600000Y-59955294D01*
X105843302Y-59936146D01*
X106080612Y-59879172D01*
X106246209Y-59810579D01*
X106315677Y-59803111D01*
X106378157Y-59834386D01*
X106413809Y-59894475D01*
X106414552Y-59897549D01*
X106470489Y-60142627D01*
X106470490Y-60142630D01*
X106470492Y-60142637D01*
X106563607Y-60379888D01*
X106691041Y-60600612D01*
X106834587Y-60780612D01*
X106849954Y-60799882D01*
X106870669Y-60819103D01*
X106906422Y-60879132D01*
X106904046Y-60948961D01*
X106870669Y-61000897D01*
X106849954Y-61020117D01*
X106691041Y-61219388D01*
X106563608Y-61440109D01*
X106470492Y-61677362D01*
X106470490Y-61677369D01*
X106413777Y-61925845D01*
X106394732Y-62179995D01*
X106394732Y-62180004D01*
X106413777Y-62434154D01*
X106470490Y-62682630D01*
X106470492Y-62682637D01*
X106563608Y-62919890D01*
X106590536Y-62966531D01*
X106691041Y-63140612D01*
X106849949Y-63339876D01*
X106849954Y-63339882D01*
X106870669Y-63359103D01*
X106906422Y-63419132D01*
X106904046Y-63488961D01*
X106870669Y-63540897D01*
X106849954Y-63560117D01*
X106691041Y-63759388D01*
X106563608Y-63980109D01*
X106470492Y-64217362D01*
X106470490Y-64217369D01*
X106413777Y-64465845D01*
X106394732Y-64719995D01*
X106394732Y-64720004D01*
X106413777Y-64974154D01*
X106433510Y-65060612D01*
X106470492Y-65222637D01*
X106543619Y-65408961D01*
X106563608Y-65459890D01*
X106590536Y-65506531D01*
X106691041Y-65680612D01*
X106849949Y-65879876D01*
X106849954Y-65879882D01*
X106870669Y-65899103D01*
X106906422Y-65959132D01*
X106904046Y-66028961D01*
X106870669Y-66080897D01*
X106849954Y-66100117D01*
X106691041Y-66299388D01*
X106563608Y-66520109D01*
X106470492Y-66757362D01*
X106470490Y-66757369D01*
X106413777Y-67005845D01*
X106394732Y-67259995D01*
X106394732Y-67260004D01*
X106413777Y-67514154D01*
X106433510Y-67600612D01*
X106470492Y-67762637D01*
X106543619Y-67948961D01*
X106563608Y-67999890D01*
X106590536Y-68046531D01*
X106691041Y-68220612D01*
X106849949Y-68419876D01*
X106849954Y-68419882D01*
X106870669Y-68439103D01*
X106906422Y-68499132D01*
X106904046Y-68568961D01*
X106870669Y-68620897D01*
X106849954Y-68640117D01*
X106691041Y-68839388D01*
X106563608Y-69060109D01*
X106470492Y-69297362D01*
X106470490Y-69297369D01*
X106413777Y-69545845D01*
X106394732Y-69799995D01*
X106394732Y-69800004D01*
X106413777Y-70054154D01*
X106433510Y-70140612D01*
X106470492Y-70302637D01*
X106543619Y-70488961D01*
X106563608Y-70539890D01*
X106590536Y-70586531D01*
X106691041Y-70760612D01*
X106849949Y-70959876D01*
X106849954Y-70959882D01*
X106870669Y-70979103D01*
X106906422Y-71039132D01*
X106904046Y-71108961D01*
X106870669Y-71160897D01*
X106849954Y-71180117D01*
X106691041Y-71379388D01*
X106563608Y-71600109D01*
X106470492Y-71837362D01*
X106470490Y-71837369D01*
X106413777Y-72085845D01*
X106394732Y-72339995D01*
X106394732Y-72340004D01*
X106413777Y-72594154D01*
X106433510Y-72680612D01*
X106470492Y-72842637D01*
X106543619Y-73028961D01*
X106563608Y-73079890D01*
X106590536Y-73126531D01*
X106691041Y-73300612D01*
X106805347Y-73443947D01*
X106849954Y-73499882D01*
X106870669Y-73519103D01*
X106906422Y-73579132D01*
X106904046Y-73648961D01*
X106870669Y-73700897D01*
X106849954Y-73720117D01*
X106691041Y-73919388D01*
X106563608Y-74140109D01*
X106512978Y-74269111D01*
X106470162Y-74324324D01*
X106404292Y-74347625D01*
X106336281Y-74331614D01*
X106303263Y-74304344D01*
X106299758Y-74300240D01*
X106114176Y-74141738D01*
X106114173Y-74141737D01*
X105906089Y-74014222D01*
X105680618Y-73920830D01*
X105680621Y-73920830D01*
X105574992Y-73895470D01*
X105443302Y-73863854D01*
X105443300Y-73863853D01*
X105443297Y-73863853D01*
X105227943Y-73846905D01*
X105200000Y-73844706D01*
X105199999Y-73844706D01*
X105163748Y-73847559D01*
X105095371Y-73833194D01*
X105045614Y-73784143D01*
X105030276Y-73715977D01*
X105039459Y-73676488D01*
X105047091Y-73658064D01*
X105079172Y-73580612D01*
X105136146Y-73343302D01*
X105155294Y-73100000D01*
X105136146Y-72856698D01*
X105079172Y-72619388D01*
X105068720Y-72594154D01*
X104985777Y-72393910D01*
X104858262Y-72185826D01*
X104858261Y-72185823D01*
X104822453Y-72143897D01*
X104699759Y-72000241D01*
X104577063Y-71895449D01*
X104514176Y-71841738D01*
X104514173Y-71841737D01*
X104306089Y-71714222D01*
X104080618Y-71620830D01*
X104080621Y-71620830D01*
X103974992Y-71595470D01*
X103843302Y-71563854D01*
X103843300Y-71563853D01*
X103843297Y-71563853D01*
X103600000Y-71544706D01*
X103356702Y-71563853D01*
X103356698Y-71563854D01*
X103205688Y-71600109D01*
X103119380Y-71620830D01*
X102893910Y-71714222D01*
X102685826Y-71841737D01*
X102685817Y-71841743D01*
X102535894Y-71969790D01*
X102472133Y-71998361D01*
X102455363Y-71999500D01*
X97644637Y-71999500D01*
X97577598Y-71979815D01*
X97564106Y-71969790D01*
X97414182Y-71841743D01*
X97414173Y-71841737D01*
X97206089Y-71714222D01*
X96980618Y-71620830D01*
X96980621Y-71620830D01*
X96874992Y-71595470D01*
X96743302Y-71563854D01*
X96743300Y-71563853D01*
X96743297Y-71563853D01*
X96500000Y-71544706D01*
X96256702Y-71563853D01*
X96256698Y-71563854D01*
X96105688Y-71600109D01*
X96019380Y-71620830D01*
X95793910Y-71714222D01*
X95585826Y-71841737D01*
X95585823Y-71841738D01*
X95400241Y-72000241D01*
X95241738Y-72185823D01*
X95241737Y-72185826D01*
X95114222Y-72393910D01*
X95020830Y-72619380D01*
X94963853Y-72856702D01*
X94944706Y-73100000D01*
X94963853Y-73343297D01*
X94963853Y-73343300D01*
X94963854Y-73343302D01*
X95006302Y-73520109D01*
X95020830Y-73580619D01*
X95114222Y-73806089D01*
X95241737Y-74014173D01*
X95241738Y-74014175D01*
X95241739Y-74014177D01*
X95241741Y-74014179D01*
X95350689Y-74141741D01*
X95374371Y-74169469D01*
X95402941Y-74233230D01*
X95392504Y-74302316D01*
X95374371Y-74330531D01*
X95241738Y-74485824D01*
X95241737Y-74485826D01*
X95114222Y-74693910D01*
X95020830Y-74919380D01*
X94963853Y-75156702D01*
X94944706Y-75400000D01*
X94963853Y-75643297D01*
X94963853Y-75643300D01*
X94963854Y-75643302D01*
X95011224Y-75840611D01*
X95020830Y-75880619D01*
X95114222Y-76106089D01*
X95241737Y-76314173D01*
X95241738Y-76314176D01*
X95241741Y-76314179D01*
X95400241Y-76499759D01*
X95510888Y-76594260D01*
X95585823Y-76658261D01*
X95585826Y-76658262D01*
X95793910Y-76785777D01*
X96019381Y-76879169D01*
X96019378Y-76879169D01*
X96019384Y-76879170D01*
X96019388Y-76879172D01*
X96256698Y-76936146D01*
X96500000Y-76955294D01*
X96743302Y-76936146D01*
X96980612Y-76879172D01*
X97206089Y-76785777D01*
X97414179Y-76658259D01*
X97489105Y-76594266D01*
X97564106Y-76530210D01*
X97627867Y-76501639D01*
X97644637Y-76500500D01*
X104055363Y-76500500D01*
X104122402Y-76520185D01*
X104135894Y-76530210D01*
X104285817Y-76658256D01*
X104285821Y-76658259D01*
X104285824Y-76658261D01*
X104285826Y-76658262D01*
X104493910Y-76785777D01*
X104719381Y-76879169D01*
X104719378Y-76879169D01*
X104719384Y-76879170D01*
X104719388Y-76879172D01*
X104956698Y-76936146D01*
X105200000Y-76955294D01*
X105443302Y-76936146D01*
X105680612Y-76879172D01*
X105906089Y-76785777D01*
X106114179Y-76658259D01*
X106299759Y-76499759D01*
X106458259Y-76314179D01*
X106585777Y-76106089D01*
X106613690Y-76038698D01*
X106657530Y-75984297D01*
X106723823Y-75962231D01*
X106791523Y-75979509D01*
X106825197Y-76008838D01*
X106849950Y-76039877D01*
X106849954Y-76039881D01*
X106849953Y-76039881D01*
X106870669Y-76059103D01*
X106906422Y-76119132D01*
X106904046Y-76188961D01*
X106870669Y-76240897D01*
X106849954Y-76260117D01*
X106691041Y-76459388D01*
X106563608Y-76680109D01*
X106470492Y-76917362D01*
X106470490Y-76917369D01*
X106413777Y-77165845D01*
X106394732Y-77419995D01*
X106394732Y-77420004D01*
X106413777Y-77674154D01*
X106433510Y-77760612D01*
X106470492Y-77922637D01*
X106543619Y-78108961D01*
X106563608Y-78159890D01*
X106590536Y-78206531D01*
X106691041Y-78380612D01*
X106849949Y-78579876D01*
X106849954Y-78579882D01*
X106870669Y-78599103D01*
X106906422Y-78659132D01*
X106904046Y-78728961D01*
X106870669Y-78780897D01*
X106849954Y-78800117D01*
X106691041Y-78999388D01*
X106563608Y-79220109D01*
X106470492Y-79457362D01*
X106470490Y-79457369D01*
X106413777Y-79705845D01*
X106394732Y-79959995D01*
X106394732Y-79960004D01*
X106413777Y-80214154D01*
X106459441Y-80414223D01*
X106470492Y-80462637D01*
X106543619Y-80648961D01*
X106563608Y-80699890D01*
X106590536Y-80746531D01*
X106691041Y-80920612D01*
X106849950Y-81119877D01*
X107036783Y-81293232D01*
X107247366Y-81436805D01*
X107247371Y-81436807D01*
X107247372Y-81436808D01*
X107247373Y-81436809D01*
X107369328Y-81495538D01*
X107476992Y-81547387D01*
X107476993Y-81547387D01*
X107476996Y-81547389D01*
X107720542Y-81622513D01*
X107972565Y-81660500D01*
X108227435Y-81660500D01*
X108479458Y-81622513D01*
X108723004Y-81547389D01*
X108952634Y-81436805D01*
X109163217Y-81293232D01*
X109350050Y-81119877D01*
X109508959Y-80920612D01*
X109636393Y-80699888D01*
X109729508Y-80462637D01*
X109786222Y-80214157D01*
X109805268Y-79960000D01*
X109786222Y-79705843D01*
X109729508Y-79457363D01*
X109636393Y-79220112D01*
X109508959Y-78999388D01*
X109350050Y-78800123D01*
X109329330Y-78780898D01*
X109293576Y-78720870D01*
X109295951Y-78651041D01*
X109329331Y-78599101D01*
X109350050Y-78579877D01*
X109508959Y-78380612D01*
X109636393Y-78159888D01*
X109729508Y-77922637D01*
X109786222Y-77674157D01*
X109805268Y-77420000D01*
X109786222Y-77165843D01*
X109729508Y-76917363D01*
X109636393Y-76680112D01*
X109508959Y-76459388D01*
X109350050Y-76260123D01*
X109329330Y-76240898D01*
X109293576Y-76180870D01*
X109295951Y-76111041D01*
X109329331Y-76059101D01*
X109350050Y-76039877D01*
X109508959Y-75840612D01*
X109636393Y-75619888D01*
X109729508Y-75382637D01*
X109786222Y-75134157D01*
X109790377Y-75078711D01*
X112549500Y-75078711D01*
X112549500Y-75321288D01*
X112581161Y-75561785D01*
X112643947Y-75796104D01*
X112732065Y-76008838D01*
X112736776Y-76020212D01*
X112858064Y-76230289D01*
X112858066Y-76230292D01*
X112858067Y-76230293D01*
X113005733Y-76422736D01*
X113005739Y-76422743D01*
X113177256Y-76594260D01*
X113177262Y-76594265D01*
X113369711Y-76741936D01*
X113579788Y-76863224D01*
X113803900Y-76956054D01*
X114038211Y-77018838D01*
X114218586Y-77042584D01*
X114278711Y-77050500D01*
X114278712Y-77050500D01*
X114521289Y-77050500D01*
X114569388Y-77044167D01*
X114761789Y-77018838D01*
X114996100Y-76956054D01*
X115220212Y-76863224D01*
X115430289Y-76741936D01*
X115622738Y-76594265D01*
X115794265Y-76422738D01*
X115941936Y-76230289D01*
X116063224Y-76020212D01*
X116156054Y-75796100D01*
X116218838Y-75561789D01*
X116250500Y-75321288D01*
X116250500Y-75078712D01*
X116218838Y-74838211D01*
X116156054Y-74603900D01*
X116063224Y-74379788D01*
X115941936Y-74169711D01*
X115822626Y-74014223D01*
X115794266Y-73977263D01*
X115794260Y-73977256D01*
X115622743Y-73805739D01*
X115622736Y-73805733D01*
X115430293Y-73658067D01*
X115430292Y-73658066D01*
X115430289Y-73658064D01*
X115220212Y-73536776D01*
X115220205Y-73536773D01*
X114996104Y-73443947D01*
X114761785Y-73381161D01*
X114521289Y-73349500D01*
X114521288Y-73349500D01*
X114278712Y-73349500D01*
X114278711Y-73349500D01*
X114038214Y-73381161D01*
X113803895Y-73443947D01*
X113579794Y-73536773D01*
X113579785Y-73536777D01*
X113369706Y-73658067D01*
X113177263Y-73805733D01*
X113177256Y-73805739D01*
X113005739Y-73977256D01*
X113005733Y-73977263D01*
X112858067Y-74169706D01*
X112736777Y-74379785D01*
X112736773Y-74379794D01*
X112643947Y-74603895D01*
X112581161Y-74838214D01*
X112549500Y-75078711D01*
X109790377Y-75078711D01*
X109796284Y-74999888D01*
X109805268Y-74880004D01*
X109805268Y-74879995D01*
X109786222Y-74625845D01*
X109781213Y-74603900D01*
X109729508Y-74377363D01*
X109636393Y-74140112D01*
X109508959Y-73919388D01*
X109350050Y-73720123D01*
X109329330Y-73700898D01*
X109293576Y-73640870D01*
X109295951Y-73571041D01*
X109329331Y-73519101D01*
X109350050Y-73499877D01*
X109508959Y-73300612D01*
X109636393Y-73079888D01*
X109729508Y-72842637D01*
X109786222Y-72594157D01*
X109805268Y-72340000D01*
X109786222Y-72085843D01*
X109729508Y-71837363D01*
X109636393Y-71600112D01*
X109508959Y-71379388D01*
X109350050Y-71180123D01*
X109329330Y-71160898D01*
X109293576Y-71100870D01*
X109295951Y-71031041D01*
X109329331Y-70979101D01*
X109350050Y-70959877D01*
X109508959Y-70760612D01*
X109636393Y-70539888D01*
X109729508Y-70302637D01*
X109786222Y-70054157D01*
X109805268Y-69800000D01*
X109786222Y-69545843D01*
X109729508Y-69297363D01*
X109636393Y-69060112D01*
X109508959Y-68839388D01*
X109350050Y-68640123D01*
X109329330Y-68620898D01*
X109293576Y-68560870D01*
X109295951Y-68491041D01*
X109329331Y-68439101D01*
X109350050Y-68419877D01*
X109508959Y-68220612D01*
X109636393Y-67999888D01*
X109729508Y-67762637D01*
X109786222Y-67514157D01*
X109805268Y-67260000D01*
X109786222Y-67005843D01*
X109729508Y-66757363D01*
X109636393Y-66520112D01*
X109508959Y-66299388D01*
X109350050Y-66100123D01*
X109329330Y-66080898D01*
X109293576Y-66020870D01*
X109295951Y-65951041D01*
X109329331Y-65899101D01*
X109350050Y-65879877D01*
X109508959Y-65680612D01*
X109636393Y-65459888D01*
X109729508Y-65222637D01*
X109786222Y-64974157D01*
X109805268Y-64720000D01*
X109786222Y-64465843D01*
X109729508Y-64217363D01*
X109683444Y-64099995D01*
X118594732Y-64099995D01*
X118594732Y-64100004D01*
X118613777Y-64354154D01*
X118639269Y-64465843D01*
X118670492Y-64602637D01*
X118763607Y-64839888D01*
X118891041Y-65060612D01*
X119020252Y-65222637D01*
X119049954Y-65259882D01*
X119070669Y-65279103D01*
X119106422Y-65339132D01*
X119104046Y-65408961D01*
X119070669Y-65460897D01*
X119049954Y-65480117D01*
X118891041Y-65679388D01*
X118763608Y-65900109D01*
X118670492Y-66137362D01*
X118670490Y-66137369D01*
X118613777Y-66385845D01*
X118594732Y-66639995D01*
X118594732Y-66640004D01*
X118613777Y-66894154D01*
X118639269Y-67005843D01*
X118670492Y-67142637D01*
X118763607Y-67379888D01*
X118891041Y-67600612D01*
X119020252Y-67762637D01*
X119049954Y-67799882D01*
X119070669Y-67819103D01*
X119106422Y-67879132D01*
X119104046Y-67948961D01*
X119070669Y-68000897D01*
X119049954Y-68020117D01*
X118891041Y-68219388D01*
X118763608Y-68440109D01*
X118670492Y-68677362D01*
X118670490Y-68677369D01*
X118613777Y-68925845D01*
X118594732Y-69179995D01*
X118594732Y-69180004D01*
X118613777Y-69434154D01*
X118639269Y-69545843D01*
X118670492Y-69682637D01*
X118763607Y-69919888D01*
X118891041Y-70140612D01*
X119020252Y-70302637D01*
X119049954Y-70339882D01*
X119070669Y-70359103D01*
X119106422Y-70419132D01*
X119104046Y-70488961D01*
X119070669Y-70540897D01*
X119049954Y-70560117D01*
X118891041Y-70759388D01*
X118763608Y-70980109D01*
X118670492Y-71217362D01*
X118670490Y-71217369D01*
X118613777Y-71465845D01*
X118594732Y-71719995D01*
X118594732Y-71720004D01*
X118613777Y-71974154D01*
X118639269Y-72085843D01*
X118670492Y-72222637D01*
X118763607Y-72459888D01*
X118891041Y-72680612D01*
X119020252Y-72842637D01*
X119049954Y-72879882D01*
X119070669Y-72899103D01*
X119106422Y-72959132D01*
X119104046Y-73028961D01*
X119070669Y-73080897D01*
X119049954Y-73100117D01*
X118891041Y-73299388D01*
X118763608Y-73520109D01*
X118670492Y-73757362D01*
X118670490Y-73757369D01*
X118613777Y-74005845D01*
X118594732Y-74259995D01*
X118594732Y-74260004D01*
X118613777Y-74514154D01*
X118654805Y-74693911D01*
X118670492Y-74762637D01*
X118763607Y-74999888D01*
X118891041Y-75220612D01*
X119020252Y-75382637D01*
X119049954Y-75419882D01*
X119070669Y-75439103D01*
X119106422Y-75499132D01*
X119104046Y-75568961D01*
X119070669Y-75620897D01*
X119049954Y-75640117D01*
X118891041Y-75839388D01*
X118763608Y-76060109D01*
X118670492Y-76297362D01*
X118670490Y-76297369D01*
X118613777Y-76545845D01*
X118594732Y-76799995D01*
X118594732Y-76800004D01*
X118613777Y-77054154D01*
X118639269Y-77165843D01*
X118670492Y-77302637D01*
X118763607Y-77539888D01*
X118891041Y-77760612D01*
X119020252Y-77922637D01*
X119049954Y-77959882D01*
X119070669Y-77979103D01*
X119106422Y-78039132D01*
X119104046Y-78108961D01*
X119070669Y-78160897D01*
X119049954Y-78180117D01*
X118891041Y-78379388D01*
X118763608Y-78600109D01*
X118670492Y-78837362D01*
X118670490Y-78837369D01*
X118613777Y-79085845D01*
X118594732Y-79339995D01*
X118594732Y-79340004D01*
X118613777Y-79594154D01*
X118639269Y-79705843D01*
X118670492Y-79842637D01*
X118763607Y-80079888D01*
X118891041Y-80300612D01*
X119020252Y-80462637D01*
X119049954Y-80499882D01*
X119070669Y-80519103D01*
X119106422Y-80579132D01*
X119104046Y-80648961D01*
X119070669Y-80700897D01*
X119049954Y-80720117D01*
X118891041Y-80919388D01*
X118763608Y-81140109D01*
X118670492Y-81377362D01*
X118670490Y-81377369D01*
X118613777Y-81625845D01*
X118594732Y-81879995D01*
X118594732Y-81880004D01*
X118613777Y-82134154D01*
X118654876Y-82314222D01*
X118670492Y-82382637D01*
X118763607Y-82619888D01*
X118891041Y-82840612D01*
X119020252Y-83002637D01*
X119049954Y-83039882D01*
X119070669Y-83059103D01*
X119106422Y-83119132D01*
X119104046Y-83188961D01*
X119070669Y-83240897D01*
X119049954Y-83260117D01*
X118891041Y-83459388D01*
X118763608Y-83680109D01*
X118670492Y-83917362D01*
X118670490Y-83917369D01*
X118613777Y-84165845D01*
X118594732Y-84419995D01*
X118594732Y-84420004D01*
X118613777Y-84674154D01*
X118652688Y-84844636D01*
X118670492Y-84922637D01*
X118763607Y-85159888D01*
X118891041Y-85380612D01*
X119049950Y-85579877D01*
X119236783Y-85753232D01*
X119447366Y-85896805D01*
X119447371Y-85896807D01*
X119447372Y-85896808D01*
X119447373Y-85896809D01*
X119569328Y-85955538D01*
X119676992Y-86007387D01*
X119676993Y-86007387D01*
X119676996Y-86007389D01*
X119920542Y-86082513D01*
X120172565Y-86120500D01*
X120427435Y-86120500D01*
X120679458Y-86082513D01*
X120923004Y-86007389D01*
X121152634Y-85896805D01*
X121363217Y-85753232D01*
X121550050Y-85579877D01*
X121708959Y-85380612D01*
X121836393Y-85159888D01*
X121929508Y-84922637D01*
X121986222Y-84674157D01*
X122005268Y-84420000D01*
X121986222Y-84165843D01*
X121929508Y-83917363D01*
X121836393Y-83680112D01*
X121708959Y-83459388D01*
X121550050Y-83260123D01*
X121529330Y-83240898D01*
X121493576Y-83180870D01*
X121495951Y-83111041D01*
X121529331Y-83059101D01*
X121550050Y-83039877D01*
X121708959Y-82840612D01*
X121836393Y-82619888D01*
X121929508Y-82382637D01*
X121986222Y-82134157D01*
X122005268Y-81880000D01*
X121986222Y-81625843D01*
X121929508Y-81377363D01*
X121836393Y-81140112D01*
X121708959Y-80919388D01*
X121550050Y-80720123D01*
X121529330Y-80700898D01*
X121493576Y-80640870D01*
X121495951Y-80571041D01*
X121529331Y-80519101D01*
X121550050Y-80499877D01*
X121708959Y-80300612D01*
X121836393Y-80079888D01*
X121929508Y-79842637D01*
X121986222Y-79594157D01*
X122005268Y-79340000D01*
X121986222Y-79085843D01*
X121929508Y-78837363D01*
X121836393Y-78600112D01*
X121708959Y-78379388D01*
X121550050Y-78180123D01*
X121529330Y-78160898D01*
X121493576Y-78100870D01*
X121495951Y-78031041D01*
X121529331Y-77979101D01*
X121550050Y-77959877D01*
X121708959Y-77760612D01*
X121836393Y-77539888D01*
X121929508Y-77302637D01*
X121986222Y-77054157D01*
X122005268Y-76800000D01*
X122004202Y-76785777D01*
X121986222Y-76545845D01*
X121982653Y-76530210D01*
X121929508Y-76297363D01*
X121836393Y-76060112D01*
X121708959Y-75839388D01*
X121550050Y-75640123D01*
X121529330Y-75620898D01*
X121493576Y-75560870D01*
X121495951Y-75491041D01*
X121529331Y-75439101D01*
X121550050Y-75419877D01*
X121708959Y-75220612D01*
X121836393Y-74999888D01*
X121929508Y-74762637D01*
X121986222Y-74514157D01*
X121998702Y-74347625D01*
X122005268Y-74260004D01*
X122005268Y-74259995D01*
X121986222Y-74005845D01*
X121979698Y-73977263D01*
X121929508Y-73757363D01*
X121836393Y-73520112D01*
X121708959Y-73299388D01*
X121550050Y-73100123D01*
X121529330Y-73080898D01*
X121493576Y-73020870D01*
X121495951Y-72951041D01*
X121529331Y-72899101D01*
X121550050Y-72879877D01*
X121708959Y-72680612D01*
X121836393Y-72459888D01*
X121929508Y-72222637D01*
X121986222Y-71974157D01*
X122005268Y-71720000D01*
X121997836Y-71620830D01*
X121986222Y-71465845D01*
X121929509Y-71217369D01*
X121929508Y-71217363D01*
X121836393Y-70980112D01*
X121708959Y-70759388D01*
X121550050Y-70560123D01*
X121529330Y-70540898D01*
X121493576Y-70480870D01*
X121495951Y-70411041D01*
X121529331Y-70359101D01*
X121550050Y-70339877D01*
X121708959Y-70140612D01*
X121836393Y-69919888D01*
X121929508Y-69682637D01*
X121986222Y-69434157D01*
X122005268Y-69180000D01*
X121986222Y-68925843D01*
X121929508Y-68677363D01*
X121836393Y-68440112D01*
X121708959Y-68219388D01*
X121550050Y-68020123D01*
X121529330Y-68000898D01*
X121493576Y-67940870D01*
X121495951Y-67871041D01*
X121529331Y-67819101D01*
X121550050Y-67799877D01*
X121708959Y-67600612D01*
X121836393Y-67379888D01*
X121929508Y-67142637D01*
X121986222Y-66894157D01*
X122005268Y-66640000D01*
X121986222Y-66385843D01*
X121929508Y-66137363D01*
X121836393Y-65900112D01*
X121708959Y-65679388D01*
X121550050Y-65480123D01*
X121529330Y-65460898D01*
X121493576Y-65400870D01*
X121495951Y-65331041D01*
X121529331Y-65279101D01*
X121550050Y-65259877D01*
X121708959Y-65060612D01*
X121836393Y-64839888D01*
X121929508Y-64602637D01*
X121986222Y-64354157D01*
X122005268Y-64100000D01*
X121986222Y-63845843D01*
X121929508Y-63597363D01*
X121836393Y-63360112D01*
X121708959Y-63139388D01*
X121550050Y-62940123D01*
X121363217Y-62766768D01*
X121152634Y-62623195D01*
X121152630Y-62623193D01*
X121152627Y-62623191D01*
X121152626Y-62623190D01*
X120923006Y-62512612D01*
X120923008Y-62512612D01*
X120679466Y-62437489D01*
X120679462Y-62437488D01*
X120679458Y-62437487D01*
X120558231Y-62419214D01*
X120427440Y-62399500D01*
X120427435Y-62399500D01*
X120172565Y-62399500D01*
X120172559Y-62399500D01*
X120015609Y-62423157D01*
X119920542Y-62437487D01*
X119920539Y-62437488D01*
X119920533Y-62437489D01*
X119676992Y-62512612D01*
X119447373Y-62623190D01*
X119447372Y-62623191D01*
X119236782Y-62766768D01*
X119049952Y-62940121D01*
X119049950Y-62940123D01*
X118891041Y-63139388D01*
X118763608Y-63360109D01*
X118670492Y-63597362D01*
X118670490Y-63597369D01*
X118613777Y-63845845D01*
X118594732Y-64099995D01*
X109683444Y-64099995D01*
X109636393Y-63980112D01*
X109508959Y-63759388D01*
X109350050Y-63560123D01*
X109329330Y-63540898D01*
X109293576Y-63480870D01*
X109295951Y-63411041D01*
X109329331Y-63359101D01*
X109350050Y-63339877D01*
X109508959Y-63140612D01*
X109636393Y-62919888D01*
X109729508Y-62682637D01*
X109786222Y-62434157D01*
X109805268Y-62180000D01*
X109786222Y-61925843D01*
X109729508Y-61677363D01*
X109636393Y-61440112D01*
X109508959Y-61219388D01*
X109350050Y-61020123D01*
X109329330Y-61000898D01*
X109293576Y-60940870D01*
X109295951Y-60871041D01*
X109329331Y-60819101D01*
X109350050Y-60799877D01*
X109508959Y-60600612D01*
X109636393Y-60379888D01*
X109729508Y-60142637D01*
X109786222Y-59894157D01*
X109794384Y-59785232D01*
X109805268Y-59640004D01*
X109805268Y-59639995D01*
X109786222Y-59385845D01*
X109786216Y-59385819D01*
X109729508Y-59137363D01*
X109636393Y-58900112D01*
X109508959Y-58679388D01*
X109350050Y-58480123D01*
X109329330Y-58460898D01*
X109293576Y-58400870D01*
X109295951Y-58331041D01*
X109329331Y-58279101D01*
X109350050Y-58259877D01*
X109508959Y-58060612D01*
X109636393Y-57839888D01*
X109729508Y-57602637D01*
X109786222Y-57354157D01*
X109802140Y-57141738D01*
X109805268Y-57100004D01*
X109805268Y-57099995D01*
X109786222Y-56845845D01*
X109729509Y-56597371D01*
X109729508Y-56597363D01*
X109636393Y-56360112D01*
X109508959Y-56139388D01*
X109350050Y-55940123D01*
X109329330Y-55920898D01*
X109293576Y-55860870D01*
X109295951Y-55791041D01*
X109329331Y-55739101D01*
X109350050Y-55719877D01*
X109508959Y-55520612D01*
X109636393Y-55299888D01*
X109729508Y-55062637D01*
X109786222Y-54814157D01*
X109805268Y-54560000D01*
X109796827Y-54447365D01*
X109786222Y-54305845D01*
X109729509Y-54057369D01*
X109729508Y-54057363D01*
X109655894Y-53869801D01*
X109649726Y-53800206D01*
X109682164Y-53738322D01*
X109742908Y-53703799D01*
X109771323Y-53700500D01*
X109892796Y-53700500D01*
X109959835Y-53720185D01*
X109980477Y-53736819D01*
X114563181Y-58319523D01*
X114596666Y-58380846D01*
X114599500Y-58407204D01*
X114599500Y-59155361D01*
X114579815Y-59222400D01*
X114569791Y-59235892D01*
X114441741Y-59385819D01*
X114441739Y-59385823D01*
X114314222Y-59593910D01*
X114220830Y-59819380D01*
X114163853Y-60056702D01*
X114144706Y-60300000D01*
X114163853Y-60543297D01*
X114220830Y-60780619D01*
X114314222Y-61006089D01*
X114441737Y-61214173D01*
X114441738Y-61214176D01*
X114495449Y-61277063D01*
X114600241Y-61399759D01*
X114743897Y-61522453D01*
X114785823Y-61558261D01*
X114785826Y-61558262D01*
X114993910Y-61685777D01*
X115219381Y-61779169D01*
X115219378Y-61779169D01*
X115219384Y-61779170D01*
X115219388Y-61779172D01*
X115456698Y-61836146D01*
X115700000Y-61855294D01*
X115943302Y-61836146D01*
X116180612Y-61779172D01*
X116406089Y-61685777D01*
X116614179Y-61558259D01*
X116799759Y-61399759D01*
X116958259Y-61214179D01*
X117085777Y-61006089D01*
X117179172Y-60780612D01*
X117236146Y-60543302D01*
X117255294Y-60300000D01*
X117236146Y-60056698D01*
X117179172Y-59819388D01*
X117165250Y-59785777D01*
X117085777Y-59593910D01*
X116992573Y-59441816D01*
X116958259Y-59385821D01*
X116958258Y-59385819D01*
X116830209Y-59235892D01*
X116801639Y-59172131D01*
X116800500Y-59155361D01*
X116800500Y-57813389D01*
X116773402Y-57642299D01*
X116719873Y-57477555D01*
X116641232Y-57323212D01*
X116539414Y-57183072D01*
X116416928Y-57060586D01*
X111116928Y-51760586D01*
X110976788Y-51658768D01*
X110822445Y-51580127D01*
X110657701Y-51526598D01*
X110657699Y-51526597D01*
X110657698Y-51526597D01*
X110526271Y-51505781D01*
X110486611Y-51499500D01*
X110486610Y-51499500D01*
X109776135Y-51499500D01*
X109709096Y-51479815D01*
X109663341Y-51427011D01*
X109653397Y-51357853D01*
X109660707Y-51330197D01*
X109724508Y-51167637D01*
X109781222Y-50919157D01*
X109800268Y-50665000D01*
X109799210Y-50650886D01*
X109781222Y-50410845D01*
X109724509Y-50162369D01*
X109724508Y-50162363D01*
X109631393Y-49925112D01*
X109503959Y-49704388D01*
X109345050Y-49505123D01*
X109158217Y-49331768D01*
X109004480Y-49226952D01*
X108960180Y-49172925D01*
X108952121Y-49103521D01*
X108982864Y-49040779D01*
X109042648Y-49004617D01*
X109074334Y-49000500D01*
X112195666Y-49000500D01*
X112262705Y-49020185D01*
X112308460Y-49072989D01*
X112318404Y-49142147D01*
X112289379Y-49205703D01*
X112265521Y-49226950D01*
X112187329Y-49280261D01*
X112111782Y-49331768D01*
X111924952Y-49505121D01*
X111924950Y-49505123D01*
X111766041Y-49704388D01*
X111638608Y-49925109D01*
X111545492Y-50162362D01*
X111545490Y-50162369D01*
X111488777Y-50410845D01*
X111469732Y-50664995D01*
X111469732Y-50665004D01*
X111488777Y-50919154D01*
X111545325Y-51166909D01*
X111545492Y-51167637D01*
X111638607Y-51404888D01*
X111766041Y-51625612D01*
X111924950Y-51824877D01*
X112111783Y-51998232D01*
X112322366Y-52141805D01*
X112322371Y-52141807D01*
X112322372Y-52141808D01*
X112322373Y-52141809D01*
X112444328Y-52200538D01*
X112551992Y-52252387D01*
X112551993Y-52252387D01*
X112551996Y-52252389D01*
X112795542Y-52327513D01*
X113047565Y-52365500D01*
X113302435Y-52365500D01*
X113554458Y-52327513D01*
X113798004Y-52252389D01*
X113838992Y-52232650D01*
X120409500Y-52232650D01*
X120409500Y-54447349D01*
X120409501Y-54447365D01*
X120440134Y-54680048D01*
X120440135Y-54680053D01*
X120440136Y-54680059D01*
X120500883Y-54906772D01*
X120500886Y-54906779D01*
X120590700Y-55123610D01*
X120590705Y-55123620D01*
X120708058Y-55326882D01*
X120850940Y-55513090D01*
X120850946Y-55513097D01*
X121016902Y-55679053D01*
X121016909Y-55679059D01*
X121203117Y-55821941D01*
X121406379Y-55939294D01*
X121406389Y-55939299D01*
X121499316Y-55977790D01*
X121623228Y-56029117D01*
X121849941Y-56089864D01*
X122082644Y-56120500D01*
X122082651Y-56120500D01*
X122317349Y-56120500D01*
X122317356Y-56120500D01*
X122550059Y-56089864D01*
X122776772Y-56029117D01*
X122975468Y-55946813D01*
X122993610Y-55939299D01*
X122993611Y-55939298D01*
X122993617Y-55939296D01*
X123196883Y-55821941D01*
X123383092Y-55679058D01*
X123549058Y-55513092D01*
X123691941Y-55326883D01*
X123809296Y-55123617D01*
X123899117Y-54906772D01*
X123959864Y-54680059D01*
X123990500Y-54447356D01*
X123990500Y-52232644D01*
X123959864Y-51999941D01*
X123899117Y-51773228D01*
X123837972Y-51625612D01*
X123809299Y-51556389D01*
X123809294Y-51556379D01*
X123691941Y-51353117D01*
X123549059Y-51166909D01*
X123549053Y-51166902D01*
X123383097Y-51000946D01*
X123383090Y-51000940D01*
X123196882Y-50858058D01*
X122993620Y-50740705D01*
X122993610Y-50740700D01*
X122776779Y-50650886D01*
X122776780Y-50650886D01*
X122776772Y-50650883D01*
X122550059Y-50590136D01*
X122550053Y-50590135D01*
X122550048Y-50590134D01*
X122317365Y-50559501D01*
X122317362Y-50559500D01*
X122317356Y-50559500D01*
X122082644Y-50559500D01*
X122082638Y-50559500D01*
X122082634Y-50559501D01*
X121849951Y-50590134D01*
X121849944Y-50590135D01*
X121849941Y-50590136D01*
X121774370Y-50610385D01*
X121623234Y-50650881D01*
X121623220Y-50650886D01*
X121406389Y-50740700D01*
X121406379Y-50740705D01*
X121203117Y-50858058D01*
X121016909Y-51000940D01*
X121016902Y-51000946D01*
X120850946Y-51166902D01*
X120850940Y-51166909D01*
X120708058Y-51353117D01*
X120590705Y-51556379D01*
X120590700Y-51556389D01*
X120500886Y-51773220D01*
X120500881Y-51773234D01*
X120440137Y-51999938D01*
X120440134Y-51999951D01*
X120409501Y-52232634D01*
X120409500Y-52232650D01*
X113838992Y-52232650D01*
X114027634Y-52141805D01*
X114238217Y-51998232D01*
X114425050Y-51824877D01*
X114583959Y-51625612D01*
X114711393Y-51404888D01*
X114804508Y-51167637D01*
X114861222Y-50919157D01*
X114880268Y-50665000D01*
X114879210Y-50650886D01*
X114861222Y-50410845D01*
X114804509Y-50162369D01*
X114804508Y-50162363D01*
X114711393Y-49925112D01*
X114583959Y-49704388D01*
X114425050Y-49505123D01*
X114238217Y-49331768D01*
X114084480Y-49226952D01*
X114040180Y-49172925D01*
X114032121Y-49103521D01*
X114062864Y-49040779D01*
X114122648Y-49004617D01*
X114154334Y-49000500D01*
X129375500Y-49000500D01*
X129442539Y-49020185D01*
X129488294Y-49072989D01*
X129499500Y-49124500D01*
X129499500Y-119675500D01*
X129479815Y-119742539D01*
X129427011Y-119788294D01*
X129375500Y-119799500D01*
X90924500Y-119799500D01*
X90857461Y-119779815D01*
X90811706Y-119727011D01*
X90800500Y-119675500D01*
X90800500Y-112239707D01*
X90820185Y-112172668D01*
X90872989Y-112126913D01*
X90942147Y-112116969D01*
X91005703Y-112145994D01*
X91040680Y-112196371D01*
X91049803Y-112220830D01*
X91121231Y-112412338D01*
X91121233Y-112412342D01*
X91254940Y-112657207D01*
X91254945Y-112657215D01*
X91422138Y-112880560D01*
X91422154Y-112880578D01*
X91619421Y-113077845D01*
X91619439Y-113077861D01*
X91842784Y-113245054D01*
X91842792Y-113245059D01*
X92087657Y-113378766D01*
X92087661Y-113378768D01*
X92087663Y-113378769D01*
X92349077Y-113476271D01*
X92430153Y-113493908D01*
X92609283Y-113532876D01*
X92670606Y-113566361D01*
X92704091Y-113627684D01*
X92699107Y-113697376D01*
X92657235Y-113753309D01*
X92611874Y-113774615D01*
X92419388Y-113820828D01*
X92419380Y-113820830D01*
X92193910Y-113914222D01*
X91985826Y-114041737D01*
X91985823Y-114041738D01*
X91800241Y-114200241D01*
X91641738Y-114385823D01*
X91641737Y-114385826D01*
X91514222Y-114593910D01*
X91420830Y-114819380D01*
X91363853Y-115056702D01*
X91344706Y-115300000D01*
X91363853Y-115543297D01*
X91363853Y-115543300D01*
X91363854Y-115543302D01*
X91414749Y-115755293D01*
X91420830Y-115780619D01*
X91514222Y-116006089D01*
X91641739Y-116214176D01*
X91641742Y-116214181D01*
X91714549Y-116299426D01*
X91743120Y-116363187D01*
X91732683Y-116432273D01*
X91704601Y-116470856D01*
X91629952Y-116540120D01*
X91629949Y-116540123D01*
X91471041Y-116739388D01*
X91343608Y-116960109D01*
X91250492Y-117197362D01*
X91250490Y-117197369D01*
X91193777Y-117445845D01*
X91174732Y-117699995D01*
X91174732Y-117700004D01*
X91193777Y-117954154D01*
X91193778Y-117954157D01*
X91250492Y-118202637D01*
X91343607Y-118439888D01*
X91471041Y-118660612D01*
X91629950Y-118859877D01*
X91816783Y-119033232D01*
X92027366Y-119176805D01*
X92027371Y-119176807D01*
X92027372Y-119176808D01*
X92027373Y-119176809D01*
X92149328Y-119235538D01*
X92256992Y-119287387D01*
X92256993Y-119287387D01*
X92256996Y-119287389D01*
X92500542Y-119362513D01*
X92752565Y-119400500D01*
X93007435Y-119400500D01*
X93259458Y-119362513D01*
X93503004Y-119287389D01*
X93732634Y-119176805D01*
X93943217Y-119033232D01*
X94065659Y-118919623D01*
X94128192Y-118888455D01*
X94197648Y-118896042D01*
X94234341Y-118919623D01*
X94356783Y-119033232D01*
X94567366Y-119176805D01*
X94567371Y-119176807D01*
X94567372Y-119176808D01*
X94567373Y-119176809D01*
X94689328Y-119235538D01*
X94796992Y-119287387D01*
X94796993Y-119287387D01*
X94796996Y-119287389D01*
X95040542Y-119362513D01*
X95292565Y-119400500D01*
X95547435Y-119400500D01*
X95799458Y-119362513D01*
X96043004Y-119287389D01*
X96272634Y-119176805D01*
X96483217Y-119033232D01*
X96605659Y-118919623D01*
X96668192Y-118888455D01*
X96737648Y-118896042D01*
X96774341Y-118919623D01*
X96896783Y-119033232D01*
X97107366Y-119176805D01*
X97107371Y-119176807D01*
X97107372Y-119176808D01*
X97107373Y-119176809D01*
X97229328Y-119235538D01*
X97336992Y-119287387D01*
X97336993Y-119287387D01*
X97336996Y-119287389D01*
X97580542Y-119362513D01*
X97832565Y-119400500D01*
X98087435Y-119400500D01*
X98339458Y-119362513D01*
X98583004Y-119287389D01*
X98812634Y-119176805D01*
X99023217Y-119033232D01*
X99145659Y-118919623D01*
X99208192Y-118888455D01*
X99277648Y-118896042D01*
X99314341Y-118919623D01*
X99436783Y-119033232D01*
X99647366Y-119176805D01*
X99647371Y-119176807D01*
X99647372Y-119176808D01*
X99647373Y-119176809D01*
X99769328Y-119235538D01*
X99876992Y-119287387D01*
X99876993Y-119287387D01*
X99876996Y-119287389D01*
X100120542Y-119362513D01*
X100372565Y-119400500D01*
X100627435Y-119400500D01*
X100879458Y-119362513D01*
X101123004Y-119287389D01*
X101352634Y-119176805D01*
X101563217Y-119033232D01*
X101685659Y-118919623D01*
X101748192Y-118888455D01*
X101817648Y-118896042D01*
X101854341Y-118919623D01*
X101976783Y-119033232D01*
X102187366Y-119176805D01*
X102187371Y-119176807D01*
X102187372Y-119176808D01*
X102187373Y-119176809D01*
X102309328Y-119235538D01*
X102416992Y-119287387D01*
X102416993Y-119287387D01*
X102416996Y-119287389D01*
X102660542Y-119362513D01*
X102912565Y-119400500D01*
X103167435Y-119400500D01*
X103419458Y-119362513D01*
X103663004Y-119287389D01*
X103892634Y-119176805D01*
X104103217Y-119033232D01*
X104225659Y-118919623D01*
X104288192Y-118888455D01*
X104357648Y-118896042D01*
X104394341Y-118919623D01*
X104516783Y-119033232D01*
X104727366Y-119176805D01*
X104727371Y-119176807D01*
X104727372Y-119176808D01*
X104727373Y-119176809D01*
X104849328Y-119235538D01*
X104956992Y-119287387D01*
X104956993Y-119287387D01*
X104956996Y-119287389D01*
X105200542Y-119362513D01*
X105452565Y-119400500D01*
X105707435Y-119400500D01*
X105959458Y-119362513D01*
X106203004Y-119287389D01*
X106432634Y-119176805D01*
X106643217Y-119033232D01*
X106765659Y-118919623D01*
X106828192Y-118888455D01*
X106897648Y-118896042D01*
X106934341Y-118919623D01*
X107056783Y-119033232D01*
X107267366Y-119176805D01*
X107267371Y-119176807D01*
X107267372Y-119176808D01*
X107267373Y-119176809D01*
X107389328Y-119235538D01*
X107496992Y-119287387D01*
X107496993Y-119287387D01*
X107496996Y-119287389D01*
X107740542Y-119362513D01*
X107992565Y-119400500D01*
X108247435Y-119400500D01*
X108499458Y-119362513D01*
X108743004Y-119287389D01*
X108972634Y-119176805D01*
X109183217Y-119033232D01*
X109370050Y-118859877D01*
X109528959Y-118660612D01*
X109656393Y-118439888D01*
X109749508Y-118202637D01*
X109806222Y-117954157D01*
X109825268Y-117700000D01*
X109825268Y-117699995D01*
X111494732Y-117699995D01*
X111494732Y-117700004D01*
X111513777Y-117954154D01*
X111513778Y-117954157D01*
X111570492Y-118202637D01*
X111663607Y-118439888D01*
X111791041Y-118660612D01*
X111949950Y-118859877D01*
X112136783Y-119033232D01*
X112347366Y-119176805D01*
X112347371Y-119176807D01*
X112347372Y-119176808D01*
X112347373Y-119176809D01*
X112469328Y-119235538D01*
X112576992Y-119287387D01*
X112576993Y-119287387D01*
X112576996Y-119287389D01*
X112820542Y-119362513D01*
X113072565Y-119400500D01*
X113327435Y-119400500D01*
X113579458Y-119362513D01*
X113823004Y-119287389D01*
X114052634Y-119176805D01*
X114263217Y-119033232D01*
X114450050Y-118859877D01*
X114608959Y-118660612D01*
X114736393Y-118439888D01*
X114829508Y-118202637D01*
X114886222Y-117954157D01*
X114905268Y-117700000D01*
X114886222Y-117445843D01*
X114829508Y-117197363D01*
X114736393Y-116960112D01*
X114608959Y-116739388D01*
X114450050Y-116540123D01*
X114263217Y-116366768D01*
X114052634Y-116223195D01*
X114052628Y-116223192D01*
X114052627Y-116223191D01*
X114052626Y-116223190D01*
X113823006Y-116112612D01*
X113823008Y-116112612D01*
X113579466Y-116037489D01*
X113579462Y-116037488D01*
X113579458Y-116037487D01*
X113458231Y-116019214D01*
X113327440Y-115999500D01*
X113327435Y-115999500D01*
X113072565Y-115999500D01*
X113072559Y-115999500D01*
X112915609Y-116023157D01*
X112820542Y-116037487D01*
X112820539Y-116037488D01*
X112820533Y-116037489D01*
X112576992Y-116112612D01*
X112347373Y-116223190D01*
X112347372Y-116223191D01*
X112136782Y-116366768D01*
X111949952Y-116540121D01*
X111949950Y-116540123D01*
X111791041Y-116739388D01*
X111663608Y-116960109D01*
X111570492Y-117197362D01*
X111570490Y-117197369D01*
X111513777Y-117445845D01*
X111494732Y-117699995D01*
X109825268Y-117699995D01*
X109806222Y-117445843D01*
X109749508Y-117197363D01*
X109656393Y-116960112D01*
X109528959Y-116739388D01*
X109370050Y-116540123D01*
X109183217Y-116366768D01*
X108972634Y-116223195D01*
X108972631Y-116223194D01*
X108972629Y-116223192D01*
X108956350Y-116215353D01*
X108904491Y-116168530D01*
X108886178Y-116101103D01*
X108904425Y-116038843D01*
X108924497Y-116006089D01*
X108985777Y-115906089D01*
X109033779Y-115790199D01*
X109077618Y-115735799D01*
X109143912Y-115713733D01*
X109177281Y-115717079D01*
X109256698Y-115736146D01*
X109500000Y-115755294D01*
X109743302Y-115736146D01*
X109980612Y-115679172D01*
X110206089Y-115585777D01*
X110414179Y-115458259D01*
X110599759Y-115299759D01*
X110647409Y-115243967D01*
X110705914Y-115205776D01*
X110741698Y-115200500D01*
X118255363Y-115200500D01*
X118322402Y-115220185D01*
X118335894Y-115230210D01*
X118417326Y-115299759D01*
X118485821Y-115358259D01*
X118485824Y-115358261D01*
X118485826Y-115358262D01*
X118693910Y-115485777D01*
X118919381Y-115579169D01*
X118919378Y-115579169D01*
X118919384Y-115579170D01*
X118919388Y-115579172D01*
X119156698Y-115636146D01*
X119400000Y-115655294D01*
X119643302Y-115636146D01*
X119880612Y-115579172D01*
X120106089Y-115485777D01*
X120314179Y-115358259D01*
X120499759Y-115199759D01*
X120658259Y-115014179D01*
X120785777Y-114806089D01*
X120879172Y-114580612D01*
X120936146Y-114343302D01*
X120955294Y-114100000D01*
X120936146Y-113856698D01*
X120879172Y-113619388D01*
X120823944Y-113486057D01*
X120816476Y-113416589D01*
X120847751Y-113354109D01*
X120907840Y-113318457D01*
X120977665Y-113320950D01*
X120997933Y-113329773D01*
X121087657Y-113378766D01*
X121087661Y-113378768D01*
X121087663Y-113378769D01*
X121349077Y-113476271D01*
X121430153Y-113493908D01*
X121621700Y-113535577D01*
X121621702Y-113535577D01*
X121621706Y-113535578D01*
X121868177Y-113553206D01*
X121899999Y-113555482D01*
X121900000Y-113555482D01*
X121900001Y-113555482D01*
X121927881Y-113553487D01*
X122178294Y-113535578D01*
X122450923Y-113476271D01*
X122712337Y-113378769D01*
X122957213Y-113245056D01*
X123180568Y-113077855D01*
X123377855Y-112880568D01*
X123545056Y-112657213D01*
X123678769Y-112412337D01*
X123776271Y-112150923D01*
X123835578Y-111878294D01*
X123855482Y-111600000D01*
X123835578Y-111321706D01*
X123776271Y-111049077D01*
X123678769Y-110787663D01*
X123669577Y-110770830D01*
X123554538Y-110560152D01*
X124899500Y-110560152D01*
X124899500Y-112450073D01*
X124914630Y-112584362D01*
X124914631Y-112584367D01*
X124974211Y-112754636D01*
X125053335Y-112880560D01*
X125070184Y-112907375D01*
X125197738Y-113034929D01*
X125350478Y-113130902D01*
X125520745Y-113190481D01*
X125520750Y-113190482D01*
X125611246Y-113200678D01*
X125655040Y-113205612D01*
X125655043Y-113205613D01*
X125655046Y-113205613D01*
X127544957Y-113205613D01*
X127544958Y-113205612D01*
X127612104Y-113198047D01*
X127679249Y-113190482D01*
X127679252Y-113190481D01*
X127679255Y-113190481D01*
X127849522Y-113130902D01*
X128002262Y-113034929D01*
X128129816Y-112907375D01*
X128225789Y-112754635D01*
X128285368Y-112584368D01*
X128287680Y-112563854D01*
X128300499Y-112450073D01*
X128300500Y-112450069D01*
X128300500Y-110560156D01*
X128300499Y-110560152D01*
X128285369Y-110425863D01*
X128285368Y-110425858D01*
X128255729Y-110341154D01*
X128225789Y-110255591D01*
X128129816Y-110102851D01*
X128002262Y-109975297D01*
X127902070Y-109912342D01*
X127849523Y-109879324D01*
X127679254Y-109819744D01*
X127679249Y-109819743D01*
X127544960Y-109804613D01*
X127544954Y-109804613D01*
X125655046Y-109804613D01*
X125655039Y-109804613D01*
X125520750Y-109819743D01*
X125520745Y-109819744D01*
X125350476Y-109879324D01*
X125197737Y-109975297D01*
X125070184Y-110102850D01*
X124974211Y-110255589D01*
X124914631Y-110425858D01*
X124914630Y-110425863D01*
X124899500Y-110560152D01*
X123554538Y-110560152D01*
X123545059Y-110542792D01*
X123545058Y-110542791D01*
X123545056Y-110542787D01*
X123456364Y-110424309D01*
X123431948Y-110358846D01*
X123446800Y-110290573D01*
X123456360Y-110275695D01*
X123545056Y-110157213D01*
X123678769Y-109912337D01*
X123776271Y-109650923D01*
X123835578Y-109378294D01*
X123855482Y-109100000D01*
X123835578Y-108821706D01*
X123776271Y-108549077D01*
X123678769Y-108287663D01*
X123545056Y-108042787D01*
X123545054Y-108042784D01*
X123377861Y-107819439D01*
X123377845Y-107819421D01*
X123180578Y-107622154D01*
X123180560Y-107622138D01*
X122957215Y-107454945D01*
X122957207Y-107454940D01*
X122712342Y-107321233D01*
X122712338Y-107321231D01*
X122613230Y-107284266D01*
X122450923Y-107223729D01*
X122450919Y-107223728D01*
X122450916Y-107223727D01*
X122178299Y-107164422D01*
X121900001Y-107144518D01*
X121899999Y-107144518D01*
X121621700Y-107164422D01*
X121349083Y-107223727D01*
X121349078Y-107223728D01*
X121349077Y-107223729D01*
X121285875Y-107247301D01*
X121087661Y-107321231D01*
X121087657Y-107321233D01*
X120842792Y-107454940D01*
X120842784Y-107454945D01*
X120619439Y-107622138D01*
X120619421Y-107622154D01*
X120422154Y-107819421D01*
X120422138Y-107819439D01*
X120254945Y-108042784D01*
X120254940Y-108042792D01*
X120121233Y-108287657D01*
X120121231Y-108287661D01*
X120023727Y-108549083D01*
X119964422Y-108821700D01*
X119944518Y-109099998D01*
X119944518Y-109100001D01*
X119964422Y-109378299D01*
X120023727Y-109650916D01*
X120023729Y-109650923D01*
X120056844Y-109739707D01*
X120121231Y-109912338D01*
X120121233Y-109912342D01*
X120254940Y-110157207D01*
X120254945Y-110157215D01*
X120343634Y-110275690D01*
X120368051Y-110341154D01*
X120353199Y-110409427D01*
X120343634Y-110424310D01*
X120254945Y-110542784D01*
X120254940Y-110542792D01*
X120121233Y-110787657D01*
X120121231Y-110787661D01*
X120023727Y-111049083D01*
X119964422Y-111321700D01*
X119944518Y-111599998D01*
X119944518Y-111600001D01*
X119964422Y-111878299D01*
X120022796Y-112146636D01*
X120023729Y-112150923D01*
X120046256Y-112211320D01*
X120121231Y-112412338D01*
X120121233Y-112412342D01*
X120170226Y-112502066D01*
X120185078Y-112570339D01*
X120160661Y-112635804D01*
X120104727Y-112677675D01*
X120035036Y-112682659D01*
X120013941Y-112676054D01*
X119880619Y-112620830D01*
X119880613Y-112620828D01*
X119880612Y-112620828D01*
X119643302Y-112563854D01*
X119643300Y-112563853D01*
X119643297Y-112563853D01*
X119400000Y-112544706D01*
X119156702Y-112563853D01*
X118919380Y-112620830D01*
X118693910Y-112714222D01*
X118485826Y-112841737D01*
X118485817Y-112841743D01*
X118335894Y-112969790D01*
X118272133Y-112998361D01*
X118255363Y-112999500D01*
X110527552Y-112999500D01*
X110460513Y-112979815D01*
X110447021Y-112969791D01*
X110414175Y-112941738D01*
X110414173Y-112941737D01*
X110206089Y-112814222D01*
X109980618Y-112720830D01*
X109980621Y-112720830D01*
X109821629Y-112682659D01*
X109743302Y-112663854D01*
X109743300Y-112663853D01*
X109743297Y-112663853D01*
X109500000Y-112644706D01*
X109256702Y-112663853D01*
X109256698Y-112663854D01*
X109046900Y-112714223D01*
X109019380Y-112720830D01*
X108793910Y-112814222D01*
X108585826Y-112941737D01*
X108585823Y-112941738D01*
X108400241Y-113100241D01*
X108241738Y-113285823D01*
X108241737Y-113285826D01*
X108114223Y-113493908D01*
X108066220Y-113609798D01*
X108022378Y-113664201D01*
X107956084Y-113686265D01*
X107922713Y-113682918D01*
X107838566Y-113662717D01*
X107839099Y-113660494D01*
X107784490Y-113634441D01*
X107747705Y-113575038D01*
X107743633Y-113551830D01*
X107739074Y-113493908D01*
X107736146Y-113456698D01*
X107679172Y-113219388D01*
X107679169Y-113219380D01*
X107585777Y-112993910D01*
X107458262Y-112785826D01*
X107458261Y-112785823D01*
X107422453Y-112743897D01*
X107299759Y-112600241D01*
X107123928Y-112450067D01*
X107114176Y-112441738D01*
X107114173Y-112441737D01*
X106906089Y-112314222D01*
X106680618Y-112220830D01*
X106680621Y-112220830D01*
X106443303Y-112163854D01*
X106352878Y-112156737D01*
X106287590Y-112131852D01*
X106246120Y-112075620D01*
X106238991Y-112042847D01*
X106236146Y-112006703D01*
X106236146Y-112006698D01*
X106179172Y-111769388D01*
X106179169Y-111769380D01*
X106085777Y-111543910D01*
X105958262Y-111335826D01*
X105958261Y-111335823D01*
X105915555Y-111285821D01*
X105799759Y-111150241D01*
X105646937Y-111019719D01*
X105614176Y-110991738D01*
X105614173Y-110991737D01*
X105406089Y-110864222D01*
X105180618Y-110770830D01*
X105180621Y-110770830D01*
X104943303Y-110713854D01*
X104918099Y-110711870D01*
X104863339Y-110707560D01*
X104798052Y-110682676D01*
X104756581Y-110626445D01*
X104749452Y-110574218D01*
X104755294Y-110500000D01*
X104736146Y-110256698D01*
X104679172Y-110019388D01*
X104660909Y-109975297D01*
X104585777Y-109793910D01*
X104458262Y-109585826D01*
X104458261Y-109585823D01*
X104422453Y-109543897D01*
X104299759Y-109400241D01*
X104177063Y-109295449D01*
X104114176Y-109241738D01*
X104114173Y-109241737D01*
X103906089Y-109114222D01*
X103680618Y-109020830D01*
X103680621Y-109020830D01*
X103574992Y-108995470D01*
X103443302Y-108963854D01*
X103443300Y-108963853D01*
X103443297Y-108963853D01*
X103200000Y-108944706D01*
X102956702Y-108963853D01*
X102719380Y-109020830D01*
X102493910Y-109114222D01*
X102285826Y-109241737D01*
X102285817Y-109241743D01*
X102135894Y-109369790D01*
X102072133Y-109398361D01*
X102055363Y-109399500D01*
X99744637Y-109399500D01*
X99677598Y-109379815D01*
X99664106Y-109369790D01*
X99514182Y-109241743D01*
X99514173Y-109241737D01*
X99306089Y-109114222D01*
X99080618Y-109020830D01*
X99080621Y-109020830D01*
X98974992Y-108995470D01*
X98843302Y-108963854D01*
X98843300Y-108963853D01*
X98843297Y-108963853D01*
X98600000Y-108944706D01*
X98356702Y-108963853D01*
X98119380Y-109020830D01*
X97893910Y-109114222D01*
X97685826Y-109241737D01*
X97685823Y-109241738D01*
X97500241Y-109400241D01*
X97341738Y-109585823D01*
X97341737Y-109585826D01*
X97214222Y-109793910D01*
X97120830Y-110019380D01*
X97063853Y-110256702D01*
X97044706Y-110500000D01*
X97046636Y-110524523D01*
X97032271Y-110592900D01*
X96983219Y-110642657D01*
X96932749Y-110657868D01*
X96886529Y-110661506D01*
X96856696Y-110663854D01*
X96619380Y-110720830D01*
X96393910Y-110814222D01*
X96185826Y-110941737D01*
X96185823Y-110941738D01*
X96000241Y-111100241D01*
X95841738Y-111285823D01*
X95841737Y-111285826D01*
X95714222Y-111493910D01*
X95620830Y-111719380D01*
X95563854Y-111956696D01*
X95557869Y-112032748D01*
X95532984Y-112098036D01*
X95476753Y-112139506D01*
X95424523Y-112146635D01*
X95400000Y-112144706D01*
X95156701Y-112163853D01*
X94944449Y-112214811D01*
X94874667Y-112211320D01*
X94817849Y-112170657D01*
X94792036Y-112105730D01*
X94794336Y-112067878D01*
X94799782Y-112042847D01*
X94835578Y-111878294D01*
X94855482Y-111600000D01*
X94835578Y-111321706D01*
X94776271Y-111049077D01*
X94678769Y-110787663D01*
X94669577Y-110770830D01*
X94545059Y-110542792D01*
X94545058Y-110542791D01*
X94545056Y-110542787D01*
X94456364Y-110424309D01*
X94431948Y-110358846D01*
X94446800Y-110290573D01*
X94456360Y-110275695D01*
X94545056Y-110157213D01*
X94678769Y-109912337D01*
X94776271Y-109650923D01*
X94835578Y-109378294D01*
X94855482Y-109100000D01*
X94835578Y-108821706D01*
X94776271Y-108549077D01*
X94678769Y-108287663D01*
X94545056Y-108042787D01*
X94545054Y-108042784D01*
X94377861Y-107819439D01*
X94377845Y-107819421D01*
X94180578Y-107622154D01*
X94180560Y-107622138D01*
X93957215Y-107454945D01*
X93957207Y-107454940D01*
X93712342Y-107321233D01*
X93712338Y-107321231D01*
X93613230Y-107284266D01*
X93450923Y-107223729D01*
X93450919Y-107223728D01*
X93450916Y-107223727D01*
X93178299Y-107164422D01*
X92900001Y-107144518D01*
X92899999Y-107144518D01*
X92621700Y-107164422D01*
X92349083Y-107223727D01*
X92349078Y-107223728D01*
X92349077Y-107223729D01*
X92285875Y-107247301D01*
X92087661Y-107321231D01*
X92087657Y-107321233D01*
X91842792Y-107454940D01*
X91842784Y-107454945D01*
X91619439Y-107622138D01*
X91619421Y-107622154D01*
X91422154Y-107819421D01*
X91422138Y-107819439D01*
X91254945Y-108042784D01*
X91254940Y-108042792D01*
X91121233Y-108287657D01*
X91121231Y-108287661D01*
X91040682Y-108503625D01*
X90998811Y-108559559D01*
X90933346Y-108583976D01*
X90865073Y-108569124D01*
X90815668Y-108519719D01*
X90800500Y-108460292D01*
X90800500Y-104699994D01*
X94614457Y-104699994D01*
X94614457Y-104700005D01*
X94634606Y-105020283D01*
X94634607Y-105020290D01*
X94694745Y-105335542D01*
X94793916Y-105640759D01*
X94793918Y-105640764D01*
X94930558Y-105931138D01*
X94930562Y-105931144D01*
X95102520Y-106202108D01*
X95102522Y-106202111D01*
X95307087Y-106449388D01*
X95541034Y-106669078D01*
X95541044Y-106669086D01*
X95800660Y-106857708D01*
X95800666Y-106857711D01*
X95800672Y-106857716D01*
X96081903Y-107012324D01*
X96380294Y-107130466D01*
X96380293Y-107130466D01*
X96691135Y-107210276D01*
X96691139Y-107210277D01*
X96757935Y-107218715D01*
X97009524Y-107250499D01*
X97009533Y-107250499D01*
X97009536Y-107250500D01*
X97009538Y-107250500D01*
X97330462Y-107250500D01*
X97330464Y-107250500D01*
X97330467Y-107250499D01*
X97330475Y-107250499D01*
X97520463Y-107226497D01*
X97648861Y-107210277D01*
X97959706Y-107130466D01*
X98258097Y-107012324D01*
X98539328Y-106857716D01*
X98798964Y-106669080D01*
X99032911Y-106449390D01*
X99237478Y-106202110D01*
X99241965Y-106195039D01*
X111629500Y-106195039D01*
X111629500Y-108284960D01*
X111644630Y-108419249D01*
X111644631Y-108419254D01*
X111704211Y-108589523D01*
X111800184Y-108742262D01*
X111927738Y-108869816D01*
X112018080Y-108926582D01*
X112077396Y-108963853D01*
X112080478Y-108965789D01*
X112237770Y-109020828D01*
X112250745Y-109025368D01*
X112250750Y-109025369D01*
X112341246Y-109035565D01*
X112385040Y-109040499D01*
X112385043Y-109040500D01*
X112385046Y-109040500D01*
X115274957Y-109040500D01*
X115274958Y-109040499D01*
X115342104Y-109032934D01*
X115409249Y-109025369D01*
X115409252Y-109025368D01*
X115409255Y-109025368D01*
X115579522Y-108965789D01*
X115732262Y-108869816D01*
X115859816Y-108742262D01*
X115955789Y-108589522D01*
X116015368Y-108419255D01*
X116030500Y-108284954D01*
X116030500Y-106195046D01*
X116015368Y-106060745D01*
X115955789Y-105890478D01*
X115859816Y-105737738D01*
X115732262Y-105610184D01*
X115579523Y-105514211D01*
X115409254Y-105454631D01*
X115409249Y-105454630D01*
X115274960Y-105439500D01*
X115274954Y-105439500D01*
X112385046Y-105439500D01*
X112385039Y-105439500D01*
X112250750Y-105454630D01*
X112250745Y-105454631D01*
X112080476Y-105514211D01*
X111927737Y-105610184D01*
X111800184Y-105737737D01*
X111704211Y-105890476D01*
X111644631Y-106060745D01*
X111644630Y-106060750D01*
X111629500Y-106195039D01*
X99241965Y-106195039D01*
X99409439Y-105931142D01*
X99546084Y-105640758D01*
X99645256Y-105335538D01*
X99705392Y-105020294D01*
X99725543Y-104700000D01*
X99705392Y-104379706D01*
X99645256Y-104064462D01*
X99546084Y-103759242D01*
X99546081Y-103759235D01*
X99409441Y-103468861D01*
X99409437Y-103468855D01*
X99237479Y-103197891D01*
X99237477Y-103197888D01*
X99032912Y-102950611D01*
X98798965Y-102730921D01*
X98798955Y-102730913D01*
X98539339Y-102542291D01*
X98539321Y-102542280D01*
X98258096Y-102387675D01*
X98258093Y-102387674D01*
X97981116Y-102278011D01*
X97959706Y-102269534D01*
X97959704Y-102269533D01*
X97959706Y-102269533D01*
X97648864Y-102189723D01*
X97648851Y-102189721D01*
X97330475Y-102149500D01*
X97330464Y-102149500D01*
X97009536Y-102149500D01*
X97009524Y-102149500D01*
X96691148Y-102189721D01*
X96691135Y-102189723D01*
X96380294Y-102269533D01*
X96081906Y-102387674D01*
X96081903Y-102387675D01*
X95800678Y-102542280D01*
X95800660Y-102542291D01*
X95541044Y-102730913D01*
X95541034Y-102730921D01*
X95307087Y-102950611D01*
X95102522Y-103197888D01*
X95102520Y-103197891D01*
X94930562Y-103468855D01*
X94930558Y-103468861D01*
X94793918Y-103759235D01*
X94793916Y-103759240D01*
X94694745Y-104064457D01*
X94634607Y-104379709D01*
X94634606Y-104379716D01*
X94614457Y-104699994D01*
X90800500Y-104699994D01*
X90800500Y-102041995D01*
X111629500Y-102041995D01*
X111629500Y-102278004D01*
X111629501Y-102278020D01*
X111660306Y-102512010D01*
X111721394Y-102739993D01*
X111811714Y-102958045D01*
X111811719Y-102958056D01*
X111882677Y-103080957D01*
X111929727Y-103162450D01*
X111929729Y-103162453D01*
X111929730Y-103162454D01*
X112073406Y-103349697D01*
X112073412Y-103349704D01*
X112240295Y-103516587D01*
X112240301Y-103516592D01*
X112427550Y-103660273D01*
X112558918Y-103736118D01*
X112631943Y-103778280D01*
X112631948Y-103778282D01*
X112631951Y-103778284D01*
X112850007Y-103868606D01*
X113077986Y-103929693D01*
X113311989Y-103960500D01*
X113311996Y-103960500D01*
X114348004Y-103960500D01*
X114348011Y-103960500D01*
X114582014Y-103929693D01*
X114809993Y-103868606D01*
X115028049Y-103778284D01*
X115232450Y-103660273D01*
X115419699Y-103516592D01*
X115586592Y-103349699D01*
X115730273Y-103162450D01*
X115848284Y-102958049D01*
X115938606Y-102739993D01*
X115999693Y-102512014D01*
X116030500Y-102278011D01*
X116030500Y-102041989D01*
X115999693Y-101807986D01*
X115938606Y-101580007D01*
X115848284Y-101361951D01*
X115848282Y-101361948D01*
X115848280Y-101361943D01*
X115806118Y-101288918D01*
X115730273Y-101157550D01*
X115586592Y-100970301D01*
X115586587Y-100970295D01*
X115419704Y-100803412D01*
X115419697Y-100803406D01*
X115232454Y-100659730D01*
X115232453Y-100659729D01*
X115232450Y-100659727D01*
X115150957Y-100612677D01*
X115028056Y-100541719D01*
X115028045Y-100541714D01*
X114809993Y-100451394D01*
X114582010Y-100390306D01*
X114348020Y-100359501D01*
X114348017Y-100359500D01*
X114348011Y-100359500D01*
X113311989Y-100359500D01*
X113311983Y-100359500D01*
X113311979Y-100359501D01*
X113077989Y-100390306D01*
X112850006Y-100451394D01*
X112631954Y-100541714D01*
X112631943Y-100541719D01*
X112427545Y-100659730D01*
X112240302Y-100803406D01*
X112240295Y-100803412D01*
X112073412Y-100970295D01*
X112073406Y-100970302D01*
X111929730Y-101157545D01*
X111811719Y-101361943D01*
X111811714Y-101361954D01*
X111721394Y-101580006D01*
X111660306Y-101807989D01*
X111629501Y-102041979D01*
X111629500Y-102041995D01*
X90800500Y-102041995D01*
X90800500Y-98200000D01*
X95244706Y-98200000D01*
X95263853Y-98443297D01*
X95320830Y-98680619D01*
X95414222Y-98906089D01*
X95541737Y-99114173D01*
X95541738Y-99114176D01*
X95595449Y-99177063D01*
X95700241Y-99299759D01*
X95735895Y-99330210D01*
X95885823Y-99458261D01*
X95885826Y-99458262D01*
X96093910Y-99585777D01*
X96319381Y-99679169D01*
X96319378Y-99679169D01*
X96319384Y-99679170D01*
X96319388Y-99679172D01*
X96556698Y-99736146D01*
X96800000Y-99755294D01*
X97043302Y-99736146D01*
X97280612Y-99679172D01*
X97506089Y-99585777D01*
X97714179Y-99458259D01*
X97767453Y-99412758D01*
X97864106Y-99330210D01*
X97927867Y-99301639D01*
X97944637Y-99300500D01*
X108355363Y-99300500D01*
X108422402Y-99320185D01*
X108435894Y-99330210D01*
X108585817Y-99458256D01*
X108585821Y-99458259D01*
X108585824Y-99458261D01*
X108585826Y-99458262D01*
X108793910Y-99585777D01*
X109019381Y-99679169D01*
X109019378Y-99679169D01*
X109019384Y-99679170D01*
X109019388Y-99679172D01*
X109256698Y-99736146D01*
X109500000Y-99755294D01*
X109743302Y-99736146D01*
X109980612Y-99679172D01*
X110206089Y-99585777D01*
X110414179Y-99458259D01*
X110599759Y-99299759D01*
X110723361Y-99155039D01*
X125099500Y-99155039D01*
X125099500Y-101044960D01*
X125114630Y-101179249D01*
X125114631Y-101179254D01*
X125174211Y-101349523D01*
X125270184Y-101502262D01*
X125397738Y-101629816D01*
X125550478Y-101725789D01*
X125720745Y-101785368D01*
X125720750Y-101785369D01*
X125811246Y-101795565D01*
X125855040Y-101800499D01*
X125855043Y-101800500D01*
X125855046Y-101800500D01*
X127744957Y-101800500D01*
X127744958Y-101800499D01*
X127812104Y-101792934D01*
X127879249Y-101785369D01*
X127879252Y-101785368D01*
X127879255Y-101785368D01*
X128049522Y-101725789D01*
X128202262Y-101629816D01*
X128329816Y-101502262D01*
X128425789Y-101349522D01*
X128485368Y-101179255D01*
X128500500Y-101044954D01*
X128500500Y-99155046D01*
X128485368Y-99020745D01*
X128425789Y-98850478D01*
X128329816Y-98697738D01*
X128202262Y-98570184D01*
X128049523Y-98474211D01*
X127879254Y-98414631D01*
X127879249Y-98414630D01*
X127744960Y-98399500D01*
X127744954Y-98399500D01*
X125855046Y-98399500D01*
X125855039Y-98399500D01*
X125720750Y-98414630D01*
X125720745Y-98414631D01*
X125550476Y-98474211D01*
X125397737Y-98570184D01*
X125270184Y-98697737D01*
X125174211Y-98850476D01*
X125114631Y-99020745D01*
X125114630Y-99020750D01*
X125099500Y-99155039D01*
X110723361Y-99155039D01*
X110758259Y-99114179D01*
X110885777Y-98906089D01*
X110979172Y-98680612D01*
X111036146Y-98443302D01*
X111055294Y-98200000D01*
X111036146Y-97956698D01*
X110979172Y-97719388D01*
X110885777Y-97493911D01*
X110885777Y-97493910D01*
X110758262Y-97285826D01*
X110758261Y-97285823D01*
X110722453Y-97243897D01*
X110599759Y-97100241D01*
X110477063Y-96995449D01*
X110414176Y-96941738D01*
X110414173Y-96941737D01*
X110206089Y-96814222D01*
X109980618Y-96720830D01*
X109980621Y-96720830D01*
X109874992Y-96695470D01*
X109743302Y-96663854D01*
X109743300Y-96663853D01*
X109743297Y-96663853D01*
X109500000Y-96644706D01*
X109256702Y-96663853D01*
X109019380Y-96720830D01*
X108793910Y-96814222D01*
X108585826Y-96941737D01*
X108585817Y-96941743D01*
X108435894Y-97069790D01*
X108372133Y-97098361D01*
X108355363Y-97099500D01*
X97944637Y-97099500D01*
X97877598Y-97079815D01*
X97864106Y-97069790D01*
X97714182Y-96941743D01*
X97714173Y-96941737D01*
X97506089Y-96814222D01*
X97280618Y-96720830D01*
X97280621Y-96720830D01*
X97174992Y-96695470D01*
X97043302Y-96663854D01*
X97043300Y-96663853D01*
X97043297Y-96663853D01*
X96800000Y-96644706D01*
X96556702Y-96663853D01*
X96319380Y-96720830D01*
X96093910Y-96814222D01*
X95885826Y-96941737D01*
X95885823Y-96941738D01*
X95700241Y-97100241D01*
X95541738Y-97285823D01*
X95541737Y-97285826D01*
X95414222Y-97493910D01*
X95320830Y-97719380D01*
X95263853Y-97956702D01*
X95244706Y-98200000D01*
X90800500Y-98200000D01*
X90800500Y-90119995D01*
X91154732Y-90119995D01*
X91154732Y-90120004D01*
X91173777Y-90374154D01*
X91193510Y-90460612D01*
X91230492Y-90622637D01*
X91323607Y-90859888D01*
X91451041Y-91080612D01*
X91609950Y-91279877D01*
X91796783Y-91453232D01*
X92007366Y-91596805D01*
X92007371Y-91596807D01*
X92007372Y-91596808D01*
X92007373Y-91596809D01*
X92117442Y-91649815D01*
X92236992Y-91707387D01*
X92236993Y-91707387D01*
X92236996Y-91707389D01*
X92480542Y-91782513D01*
X92732565Y-91820500D01*
X92987435Y-91820500D01*
X93239458Y-91782513D01*
X93483004Y-91707389D01*
X93712634Y-91596805D01*
X93923217Y-91453232D01*
X94110050Y-91279877D01*
X94268959Y-91080612D01*
X94396393Y-90859888D01*
X94489508Y-90622637D01*
X94546222Y-90374157D01*
X94565268Y-90120000D01*
X94562703Y-90085777D01*
X94546222Y-89865845D01*
X94531138Y-89799759D01*
X94489508Y-89617363D01*
X94396393Y-89380112D01*
X94268959Y-89159388D01*
X94110050Y-88960123D01*
X93923217Y-88786768D01*
X93712634Y-88643195D01*
X93712630Y-88643193D01*
X93712627Y-88643191D01*
X93712626Y-88643190D01*
X93483006Y-88532612D01*
X93483008Y-88532612D01*
X93239466Y-88457489D01*
X93239462Y-88457488D01*
X93239458Y-88457487D01*
X93118231Y-88439214D01*
X92987440Y-88419500D01*
X92987435Y-88419500D01*
X92732565Y-88419500D01*
X92732559Y-88419500D01*
X92575609Y-88443157D01*
X92480542Y-88457487D01*
X92480539Y-88457488D01*
X92480533Y-88457489D01*
X92236992Y-88532612D01*
X92007373Y-88643190D01*
X92007372Y-88643191D01*
X91796782Y-88786768D01*
X91609952Y-88960121D01*
X91609950Y-88960123D01*
X91451041Y-89159388D01*
X91323608Y-89380109D01*
X91230492Y-89617362D01*
X91230490Y-89617369D01*
X91173777Y-89865845D01*
X91154732Y-90119995D01*
X90800500Y-90119995D01*
X90800500Y-49124500D01*
X90820185Y-49057461D01*
X90872989Y-49011706D01*
X90924500Y-49000500D01*
X91875666Y-49000500D01*
X91942705Y-49020185D01*
G37*
%TD.AperFunction*%
%TD*%
M02*
