%TF.GenerationSoftware,KiCad,Pcbnew,8.0.6*%
%TF.CreationDate,2025-08-05T17:05:13-05:00*%
%TF.ProjectId,PPDuino_Nano_Procesador,50504475-696e-46f5-9f4e-616e6f5f5072,rev?*%
%TF.SameCoordinates,Original*%
%TF.FileFunction,Copper,L2,Bot*%
%TF.FilePolarity,Positive*%
%FSLAX46Y46*%
G04 Gerber Fmt 4.6, Leading zero omitted, Abs format (unit mm)*
G04 Created by KiCad (PCBNEW 8.0.6) date 2025-08-05 17:05:13*
%MOMM*%
%LPD*%
G01*
G04 APERTURE LIST*
%TA.AperFunction,ComponentPad*%
%ADD10R,1.800000X1.800000*%
%TD*%
%TA.AperFunction,ComponentPad*%
%ADD11O,1.800000X1.800000*%
%TD*%
%TA.AperFunction,ComponentPad*%
%ADD12C,1.800000*%
%TD*%
%TA.AperFunction,ComponentPad*%
%ADD13R,1.980000X3.960000*%
%TD*%
%TA.AperFunction,ComponentPad*%
%ADD14O,1.980000X3.960000*%
%TD*%
%TA.AperFunction,ComponentPad*%
%ADD15R,2.800000X2.000000*%
%TD*%
%TA.AperFunction,ComponentPad*%
%ADD16O,2.800000X2.000000*%
%TD*%
%TA.AperFunction,ComponentPad*%
%ADD17C,2.300000*%
%TD*%
%TA.AperFunction,ComponentPad*%
%ADD18C,2.400000*%
%TD*%
%TA.AperFunction,ViaPad*%
%ADD19C,1.500000*%
%TD*%
%TA.AperFunction,Conductor*%
%ADD20C,0.600000*%
%TD*%
%TA.AperFunction,Conductor*%
%ADD21C,1.000000*%
%TD*%
G04 APERTURE END LIST*
D10*
%TO.P,A1,1,D1/TX*%
%TO.N,unconnected-(A1-D1{slash}TX-Pad1)*%
X108100000Y-90120000D03*
D11*
%TO.P,A1,2,D0/RX*%
%TO.N,unconnected-(A1-D0{slash}RX-Pad2)*%
X108100000Y-87580000D03*
%TO.P,A1,3,~{RESET}*%
%TO.N,unconnected-(A1-~{RESET}-Pad3)*%
X108100000Y-85040000D03*
%TO.P,A1,4,GND*%
%TO.N,GND*%
X108100000Y-82500000D03*
%TO.P,A1,5,D2*%
%TO.N,/RXm*%
X108100000Y-79960000D03*
%TO.P,A1,6,D3*%
%TO.N,/PWM0m*%
X108100000Y-77420000D03*
%TO.P,A1,7,D4*%
%TO.N,/TXm*%
X108100000Y-74880000D03*
%TO.P,A1,8,D5*%
%TO.N,/PWM1m*%
X108100000Y-72340000D03*
%TO.P,A1,9,D6*%
%TO.N,/PWM2m*%
X108100000Y-69800000D03*
%TO.P,A1,10,D7*%
%TO.N,/RLY0*%
X108100000Y-67260000D03*
%TO.P,A1,11,D8*%
%TO.N,/RLY1*%
X108100000Y-64720000D03*
%TO.P,A1,12,D9*%
%TO.N,/PWM3m*%
X108100000Y-62180000D03*
%TO.P,A1,13,D10*%
%TO.N,/SS*%
X108100000Y-59640000D03*
%TO.P,A1,14,D11*%
%TO.N,/MOSI*%
X108100000Y-57100000D03*
%TO.P,A1,15,D12*%
%TO.N,/MISO*%
X108100000Y-54560000D03*
%TO.P,A1,16,D13*%
%TO.N,/SCK*%
X92860000Y-54560000D03*
%TO.P,A1,17,3V3*%
%TO.N,+3.3V*%
X92860000Y-57100000D03*
%TO.P,A1,18,AREF*%
%TO.N,unconnected-(A1-AREF-Pad18)*%
X92860000Y-59640000D03*
%TO.P,A1,19,A0*%
%TO.N,/DI0m*%
X92860000Y-62180000D03*
%TO.P,A1,20,A1*%
%TO.N,/DI1m*%
X92860000Y-64720000D03*
%TO.P,A1,21,A2*%
%TO.N,/DI2m*%
X92860000Y-67260000D03*
%TO.P,A1,22,A3*%
%TO.N,/DI3m*%
X92860000Y-69800000D03*
%TO.P,A1,23,A4*%
%TO.N,/SDA*%
X92860000Y-72340000D03*
%TO.P,A1,24,A5*%
%TO.N,/SCL*%
X92860000Y-74880000D03*
%TO.P,A1,25,A6*%
%TO.N,/AI1m*%
X92860000Y-77420000D03*
%TO.P,A1,26,A7*%
%TO.N,/AI0m*%
X92860000Y-79960000D03*
%TO.P,A1,27,+5V*%
%TO.N,+5V*%
X92860000Y-82500000D03*
%TO.P,A1,28,~{RESET}*%
%TO.N,unconnected-(A1-~{RESET}-Pad28)*%
X92860000Y-85040000D03*
%TO.P,A1,29,GND*%
%TO.N,GND*%
X92860000Y-87580000D03*
%TO.P,A1,30,VIN*%
%TO.N,unconnected-(A1-VIN-Pad30)*%
X92860000Y-90120000D03*
%TD*%
D10*
%TO.P,C1,1*%
%TO.N,VDD*%
X126800000Y-100100000D03*
D12*
%TO.P,C1,2*%
%TO.N,GND*%
X126800000Y-97600000D03*
%TD*%
D13*
%TO.P,J1,1,Pin_1*%
%TO.N,GND*%
X127200000Y-53340000D03*
D14*
%TO.P,J1,2,Pin_2*%
%TO.N,VDD*%
X122200000Y-53340000D03*
%TD*%
D10*
%TO.P,J2,1,Pin_1*%
%TO.N,GND*%
X120300000Y-92040000D03*
D11*
%TO.P,J2,2,Pin_2*%
%TO.N,VDD*%
X120300000Y-89500000D03*
%TO.P,J2,3,Pin_3*%
%TO.N,GND*%
X120300000Y-86960000D03*
%TO.P,J2,4,Pin_4*%
%TO.N,+5V*%
X120300000Y-84420000D03*
%TO.P,J2,5,Pin_5*%
%TO.N,/SDA*%
X120300000Y-81880000D03*
%TO.P,J2,6,Pin_6*%
%TO.N,/SCL*%
X120300000Y-79340000D03*
%TO.P,J2,7,Pin_7*%
%TO.N,/RXm*%
X120300000Y-76800000D03*
%TO.P,J2,8,Pin_8*%
%TO.N,/TXm*%
X120300000Y-74260000D03*
%TO.P,J2,9,Pin_9*%
%TO.N,/SS*%
X120300000Y-71720000D03*
%TO.P,J2,10,Pin_10*%
%TO.N,/MOSI*%
X120300000Y-69180000D03*
%TO.P,J2,11,Pin_11*%
%TO.N,/MISO*%
X120300000Y-66640000D03*
%TO.P,J2,12,Pin_12*%
%TO.N,/SCK*%
X120300000Y-64100000D03*
%TD*%
D10*
%TO.P,J12,1,Pin_1*%
%TO.N,GND*%
X115715000Y-50665000D03*
D11*
%TO.P,J12,2,Pin_2*%
%TO.N,VDD*%
X113175000Y-50665000D03*
%TO.P,J12,3,Pin_3*%
%TO.N,GND*%
X110635000Y-50665000D03*
%TO.P,J12,4,Pin_4*%
%TO.N,+5V*%
X108095000Y-50665000D03*
%TO.P,J12,5,Pin_5*%
%TO.N,/RLY1*%
X105555000Y-50665000D03*
%TO.P,J12,6,Pin_6*%
%TO.N,/RLY0*%
X103015000Y-50665000D03*
%TO.P,J12,7,Pin_7*%
%TO.N,/PWM3m*%
X100475000Y-50665000D03*
%TO.P,J12,8,Pin_8*%
%TO.N,/PWM2m*%
X97935000Y-50665000D03*
%TO.P,J12,9,Pin_9*%
%TO.N,/PWM1m*%
X95395000Y-50665000D03*
%TO.P,J12,10,Pin_10*%
%TO.N,/PWM0m*%
X92855000Y-50665000D03*
%TD*%
D10*
%TO.P,C2,1*%
%TO.N,+5V*%
X126600000Y-111505113D03*
D12*
%TO.P,C2,2*%
%TO.N,GND*%
X126600000Y-109005113D03*
%TD*%
D15*
%TO.P,U1,1,IN*%
%TO.N,VDD*%
X113830000Y-107240000D03*
D16*
%TO.P,U1,2,GND*%
%TO.N,GND*%
X113830000Y-104700000D03*
%TO.P,U1,3,OUT*%
%TO.N,+5V*%
X113830000Y-102160000D03*
%TD*%
D17*
%TO.P,U6,1,+IN*%
%TO.N,VDD*%
X121900000Y-111600000D03*
X121900000Y-109100000D03*
%TO.P,U6,2,-IN*%
%TO.N,GND*%
X121900000Y-100100000D03*
X121900000Y-97600000D03*
%TO.P,U6,3,+OUT*%
%TO.N,+5V*%
X92900000Y-111600000D03*
X92900000Y-109100000D03*
%TO.P,U6,4,-OUT*%
%TO.N,GND*%
X92900000Y-100100000D03*
D18*
X92900000Y-97600000D03*
%TD*%
D10*
%TO.P,J11,1,Pin_1*%
%TO.N,GND*%
X115740000Y-117700000D03*
D11*
%TO.P,J11,2,Pin_2*%
%TO.N,VDD*%
X113200000Y-117700000D03*
%TO.P,J11,3,Pin_3*%
%TO.N,GND*%
X110660000Y-117700000D03*
%TO.P,J11,4,Pin_4*%
%TO.N,+5V*%
X108120000Y-117700000D03*
%TO.P,J11,5,Pin_5*%
%TO.N,/AI1m*%
X105580000Y-117700000D03*
%TO.P,J11,6,Pin_6*%
%TO.N,/AI0m*%
X103040000Y-117700000D03*
%TO.P,J11,7,Pin_7*%
%TO.N,/DI3m*%
X100500000Y-117700000D03*
%TO.P,J11,8,Pin_8*%
%TO.N,/DI2m*%
X97960000Y-117700000D03*
%TO.P,J11,9,Pin_9*%
%TO.N,/DI1m*%
X95420000Y-117700000D03*
%TO.P,J11,10,Pin_10*%
%TO.N,/DI0m*%
X92880000Y-117700000D03*
%TD*%
D19*
%TO.N,/DI3m*%
X98600000Y-110500000D03*
X103200000Y-110500000D03*
%TO.N,/SCK*%
X92860000Y-52800000D03*
X115700000Y-60300000D03*
%TO.N,/DI1m*%
X106200000Y-113700000D03*
X95400000Y-113700000D03*
%TO.N,/SDA*%
X114400000Y-83700000D03*
X114400000Y-88700000D03*
X103600000Y-73100000D03*
X96500000Y-73100000D03*
%TO.N,GND*%
X118500000Y-54500000D03*
X113500000Y-96000000D03*
X94800000Y-96000000D03*
X116200000Y-86100000D03*
X116200000Y-104600000D03*
X116200000Y-94400000D03*
X122000000Y-104600000D03*
X118500000Y-50665000D03*
%TO.N,/DI0m*%
X92900000Y-115300000D03*
X107600000Y-115200000D03*
%TO.N,+5V*%
X109500000Y-98200000D03*
X109500000Y-114200000D03*
X96800000Y-98200000D03*
X119400000Y-114100000D03*
%TO.N,/SCL*%
X112200000Y-81800000D03*
X96500000Y-75400000D03*
X112200000Y-88100000D03*
X105200000Y-75400000D03*
%TO.N,/DI2m*%
X104700000Y-112250000D03*
X97100000Y-112200000D03*
%TO.N,/PWM3m*%
X105600000Y-58400000D03*
X101000000Y-58400000D03*
%TD*%
D20*
%TO.N,/DI3m*%
X103200000Y-110500000D02*
X103200000Y-98000000D01*
X98500000Y-72200000D02*
X96100000Y-69800000D01*
X100500000Y-116100000D02*
X100500000Y-117700000D01*
X96100000Y-69800000D02*
X92860000Y-69800000D01*
X98500000Y-79300000D02*
X98500000Y-72200000D01*
X100300000Y-81100000D02*
X98500000Y-79300000D01*
X100300000Y-95100000D02*
X100300000Y-81100000D01*
X98600000Y-110500000D02*
X98600000Y-114200000D01*
X103200000Y-98000000D02*
X100300000Y-95100000D01*
X98600000Y-114200000D02*
X100500000Y-116100000D01*
%TO.N,/SCK*%
X119000000Y-64100000D02*
X120300000Y-64100000D01*
X115700000Y-60300000D02*
X115700000Y-60800000D01*
X115700000Y-60800000D02*
X119000000Y-64100000D01*
X92860000Y-52800000D02*
X92860000Y-54560000D01*
%TO.N,/DI1m*%
X100700000Y-70800000D02*
X94500000Y-64600000D01*
X102500000Y-93700000D02*
X102500000Y-79800000D01*
X100700000Y-78000000D02*
X100700000Y-70800000D01*
X94500000Y-64600000D02*
X92980000Y-64600000D01*
X95400000Y-113700000D02*
X95400000Y-117680000D01*
D21*
X92980000Y-64600000D02*
X92860000Y-64720000D01*
D20*
X106100000Y-97300000D02*
X102500000Y-93700000D01*
X95400000Y-117680000D02*
X95420000Y-117700000D01*
X106200000Y-113700000D02*
X106100000Y-113600000D01*
X102500000Y-79800000D02*
X100700000Y-78000000D01*
X106100000Y-113600000D02*
X106100000Y-97300000D01*
%TO.N,/RLY0*%
X103015000Y-50665000D02*
X103015000Y-51785000D01*
X103015000Y-51785000D02*
X102600000Y-52200000D01*
X102600000Y-52200000D02*
X102600000Y-63500000D01*
X106360000Y-67260000D02*
X108100000Y-67260000D01*
X102600000Y-63500000D02*
X106360000Y-67260000D01*
%TO.N,/RLY1*%
X105720000Y-64720000D02*
X108100000Y-64720000D01*
X105555000Y-51845000D02*
X103700000Y-53700000D01*
X105555000Y-50665000D02*
X105555000Y-51845000D01*
X103700000Y-62700000D02*
X105720000Y-64720000D01*
X103700000Y-53700000D02*
X103700000Y-62700000D01*
%TO.N,/SDA*%
X96500000Y-73100000D02*
X95200000Y-73100000D01*
X106300000Y-94000000D02*
X104700000Y-92400000D01*
X104700000Y-92400000D02*
X104700000Y-78500000D01*
X95200000Y-73100000D02*
X94440000Y-72340000D01*
X109900000Y-94000000D02*
X106300000Y-94000000D01*
X114400000Y-83700000D02*
X117200000Y-83700000D01*
X114400000Y-88700000D02*
X114400000Y-89500000D01*
X114400000Y-89500000D02*
X109900000Y-94000000D01*
X103600000Y-77400000D02*
X103600000Y-73100000D01*
X117200000Y-83700000D02*
X119020000Y-81880000D01*
X119020000Y-81880000D02*
X120300000Y-81880000D01*
X104700000Y-78500000D02*
X103600000Y-77400000D01*
X94440000Y-72340000D02*
X92860000Y-72340000D01*
D21*
%TO.N,GND*%
X116200000Y-97900000D02*
X116200000Y-97300000D01*
D20*
X94500000Y-96000000D02*
X92900000Y-97600000D01*
D21*
X128694887Y-109005113D02*
X128700000Y-109000000D01*
X92900000Y-96000000D02*
X93600000Y-96000000D01*
X127200000Y-51300000D02*
X127200000Y-53340000D01*
X126000000Y-50100000D02*
X127200000Y-51300000D01*
X122000000Y-104600000D02*
X128700000Y-104600000D01*
X122360000Y-92040000D02*
X122500000Y-92040000D01*
X116200000Y-94650000D02*
X116200000Y-94400000D01*
X128700000Y-104600000D02*
X128700000Y-109000000D01*
X116200000Y-104700000D02*
X113830000Y-104700000D01*
X119035000Y-50665000D02*
X119600000Y-50100000D01*
X111200000Y-105600000D02*
X111200000Y-116100000D01*
X92900000Y-93900000D02*
X92900000Y-94400000D01*
X94080000Y-87580000D02*
X92860000Y-87580000D01*
X112700000Y-86100000D02*
X116200000Y-86100000D01*
X108100000Y-82500000D02*
X109100000Y-82500000D01*
X116200000Y-96000000D02*
X116200000Y-97900000D01*
X124500000Y-84900000D02*
X124500000Y-60500000D01*
X119600000Y-50100000D02*
X126000000Y-50100000D01*
X118500000Y-54500000D02*
X113500000Y-54500000D01*
X113830000Y-104700000D02*
X112100000Y-104700000D01*
X128700000Y-97600000D02*
X128700000Y-104600000D01*
X114900000Y-96000000D02*
X114900000Y-95950000D01*
D20*
X92900000Y-97600000D02*
X93600000Y-96900000D01*
D21*
X92900000Y-96000000D02*
X92900000Y-97600000D01*
X128700000Y-109000000D02*
X128700000Y-112900000D01*
X127200000Y-53340000D02*
X127200000Y-56200000D01*
X93600000Y-96000000D02*
X94800000Y-96000000D01*
X128660000Y-92040000D02*
X128700000Y-92000000D01*
X128700000Y-57700000D02*
X128700000Y-92400000D01*
X122500000Y-92040000D02*
X120300000Y-92040000D01*
X95200000Y-88700000D02*
X94080000Y-87580000D01*
X126800000Y-97600000D02*
X128700000Y-97600000D01*
X116200000Y-97300000D02*
X114900000Y-96000000D01*
X92900000Y-94400000D02*
X94500000Y-96000000D01*
X122440000Y-86960000D02*
X124500000Y-84900000D01*
D20*
X94800000Y-96000000D02*
X94500000Y-96000000D01*
D21*
X121900000Y-97600000D02*
X121900000Y-100100000D01*
X122500000Y-92040000D02*
X128660000Y-92040000D01*
X92900000Y-96000000D02*
X92900000Y-93900000D01*
X116200000Y-94400000D02*
X116200000Y-96000000D01*
X121900000Y-97600000D02*
X126800000Y-97600000D01*
X123900000Y-117700000D02*
X115740000Y-117700000D01*
X111200000Y-116100000D02*
X110660000Y-116640000D01*
X118500000Y-50665000D02*
X115715000Y-50665000D01*
X114900000Y-95950000D02*
X116200000Y-94650000D01*
X112100000Y-104700000D02*
X111200000Y-105600000D01*
X114900000Y-96000000D02*
X116200000Y-96000000D01*
X126600000Y-109005113D02*
X128694887Y-109005113D01*
X109100000Y-82500000D02*
X112700000Y-86100000D01*
X110660000Y-116640000D02*
X110660000Y-117700000D01*
X110635000Y-51635000D02*
X110635000Y-50665000D01*
X128700000Y-92400000D02*
X128700000Y-97600000D01*
X95200000Y-91600000D02*
X95200000Y-88700000D01*
D20*
X93600000Y-96900000D02*
X93600000Y-96000000D01*
D21*
X128700000Y-112900000D02*
X123900000Y-117700000D01*
X124500000Y-60500000D02*
X118500000Y-54500000D01*
X116200000Y-104600000D02*
X116200000Y-104700000D01*
X92900000Y-100100000D02*
X92900000Y-97600000D01*
X120300000Y-86960000D02*
X122440000Y-86960000D01*
X118500000Y-50665000D02*
X119035000Y-50665000D01*
X116200000Y-97900000D02*
X116200000Y-104600000D01*
X92900000Y-93900000D02*
X95200000Y-91600000D01*
X127200000Y-56200000D02*
X128700000Y-57700000D01*
X113500000Y-54500000D02*
X110635000Y-51635000D01*
X113500000Y-96000000D02*
X114900000Y-96000000D01*
D20*
%TO.N,/SS*%
X109140000Y-59640000D02*
X110300000Y-60800000D01*
X110300000Y-62600000D02*
X119420000Y-71720000D01*
X108100000Y-59640000D02*
X109140000Y-59640000D01*
X119420000Y-71720000D02*
X120300000Y-71720000D01*
X110300000Y-60800000D02*
X110300000Y-62600000D01*
%TO.N,/DI0m*%
X107600000Y-97000000D02*
X103600000Y-93000000D01*
X93900000Y-62200000D02*
X92880000Y-62200000D01*
X101900000Y-70200000D02*
X93900000Y-62200000D01*
X107600000Y-115200000D02*
X107600000Y-97000000D01*
X101900000Y-77500000D02*
X101900000Y-70200000D01*
X103600000Y-93000000D02*
X103600000Y-79200000D01*
X92880000Y-62200000D02*
X92860000Y-62180000D01*
X92900000Y-115300000D02*
X92900000Y-117680000D01*
X103600000Y-79200000D02*
X101900000Y-77500000D01*
X92900000Y-117680000D02*
X92880000Y-117700000D01*
%TO.N,/MOSI*%
X111500000Y-61400000D02*
X119280000Y-69180000D01*
X119280000Y-69180000D02*
X120300000Y-69180000D01*
X109150000Y-57100000D02*
X111500000Y-59450000D01*
X108100000Y-57100000D02*
X109150000Y-57100000D01*
X111500000Y-59450000D02*
X111500000Y-61400000D01*
D21*
%TO.N,+5V*%
X94000000Y-82500000D02*
X92860000Y-82500000D01*
X96800000Y-99900000D02*
X96800000Y-98200000D01*
X119480000Y-84420000D02*
X120300000Y-84420000D01*
X92900000Y-111600000D02*
X92900000Y-109100000D01*
X111000000Y-102050000D02*
X110960000Y-102050000D01*
X109560000Y-102050000D02*
X109500000Y-101990000D01*
X113830000Y-102160000D02*
X109800000Y-102160000D01*
X112800000Y-56200000D02*
X117400000Y-56200000D01*
X126594887Y-111505113D02*
X126600000Y-111505113D01*
X118200000Y-88200000D02*
X118200000Y-85700000D01*
X108095000Y-50665000D02*
X108095000Y-51495000D01*
X109500000Y-114200000D02*
X109500000Y-103710000D01*
X109500000Y-98200000D02*
X109500000Y-100590000D01*
X109500000Y-115750000D02*
X108120000Y-117130000D01*
X122600000Y-61400000D02*
X122600000Y-83100000D01*
X111000000Y-102050000D02*
X109560000Y-102050000D01*
X117400000Y-56200000D02*
X122600000Y-61400000D01*
X108095000Y-51495000D02*
X112800000Y-56200000D01*
X124000000Y-114100000D02*
X126594887Y-111505113D01*
X109500000Y-114200000D02*
X109500000Y-115750000D01*
X118200000Y-85700000D02*
X119480000Y-84420000D01*
X109500000Y-96900000D02*
X118200000Y-88200000D01*
X109500000Y-104290000D02*
X109500000Y-103550000D01*
X96800000Y-98200000D02*
X96800000Y-85300000D01*
X109500000Y-98200000D02*
X109500000Y-96900000D01*
X109500000Y-104290000D02*
X109500000Y-101990000D01*
X109500000Y-103550000D02*
X111000000Y-102050000D01*
X110960000Y-102050000D02*
X109500000Y-100590000D01*
X92900000Y-103800000D02*
X96800000Y-99900000D01*
X92900000Y-109100000D02*
X92900000Y-103800000D01*
X119400000Y-114100000D02*
X124000000Y-114100000D01*
X109550000Y-103600000D02*
X109500000Y-103550000D01*
X108120000Y-117130000D02*
X108120000Y-117700000D01*
X121280000Y-84420000D02*
X120300000Y-84420000D01*
X122600000Y-83100000D02*
X121280000Y-84420000D01*
X96800000Y-85300000D02*
X94000000Y-82500000D01*
X109500000Y-100590000D02*
X109500000Y-101990000D01*
D20*
%TO.N,/AI0m*%
X94260000Y-79960000D02*
X98100000Y-83800000D01*
X98100000Y-83800000D02*
X98100000Y-96600000D01*
X100000000Y-112800000D02*
X103040000Y-115840000D01*
X92860000Y-79960000D02*
X94260000Y-79960000D01*
X100000000Y-98500000D02*
X100000000Y-112800000D01*
X98100000Y-96600000D02*
X100000000Y-98500000D01*
X103040000Y-115840000D02*
X103040000Y-117700000D01*
%TO.N,/MISO*%
X112800000Y-58300000D02*
X112800000Y-60500000D01*
X108100000Y-54560000D02*
X109060000Y-54560000D01*
X112800000Y-60500000D02*
X118940000Y-66640000D01*
X118940000Y-66640000D02*
X120300000Y-66640000D01*
X109060000Y-54560000D02*
X112800000Y-58300000D01*
%TO.N,/RXm*%
X116140000Y-79960000D02*
X119300000Y-76800000D01*
X119300000Y-76800000D02*
X120300000Y-76800000D01*
X108100000Y-79960000D02*
X116140000Y-79960000D01*
%TO.N,/SCL*%
X94900000Y-75400000D02*
X94380000Y-74880000D01*
X109400000Y-92600000D02*
X106900000Y-92600000D01*
X105200000Y-76800000D02*
X105200000Y-75400000D01*
X105800000Y-91500000D02*
X105800000Y-77400000D01*
X112200000Y-88100000D02*
X112200000Y-89800000D01*
X112200000Y-89800000D02*
X109400000Y-92600000D01*
X116800000Y-81800000D02*
X119260000Y-79340000D01*
X106900000Y-92600000D02*
X105800000Y-91500000D01*
X119260000Y-79340000D02*
X120300000Y-79340000D01*
X112200000Y-81800000D02*
X116800000Y-81800000D01*
X105800000Y-77400000D02*
X105200000Y-76800000D01*
X96500000Y-75400000D02*
X94900000Y-75400000D01*
X94380000Y-74880000D02*
X92860000Y-74880000D01*
%TO.N,/AI1m*%
X92860000Y-77420000D02*
X94520000Y-77420000D01*
X99200000Y-82100000D02*
X99200000Y-95800000D01*
X99200000Y-95800000D02*
X101600000Y-98200000D01*
X101600000Y-112000000D02*
X105580000Y-115980000D01*
X94520000Y-77420000D02*
X99200000Y-82100000D01*
X101600000Y-98200000D02*
X101600000Y-112000000D01*
X105580000Y-115980000D02*
X105580000Y-117700000D01*
%TO.N,/DI2m*%
X99600000Y-71500000D02*
X95360000Y-67260000D01*
X97100000Y-115200000D02*
X97960000Y-116060000D01*
X97960000Y-116060000D02*
X97960000Y-117700000D01*
X104700000Y-112250000D02*
X104700000Y-97700000D01*
X101400000Y-80500000D02*
X99600000Y-78700000D01*
X101400000Y-94400000D02*
X101400000Y-80500000D01*
X95360000Y-67260000D02*
X92860000Y-67260000D01*
X104700000Y-97700000D02*
X101400000Y-94400000D01*
X97100000Y-112200000D02*
X97100000Y-115200000D01*
X99600000Y-78700000D02*
X99600000Y-71500000D01*
%TO.N,/TXm*%
X108100000Y-74880000D02*
X108320000Y-74880000D01*
X116000000Y-70500000D02*
X119760000Y-74260000D01*
X108320000Y-74880000D02*
X112700000Y-70500000D01*
X119760000Y-74260000D02*
X120300000Y-74260000D01*
X112700000Y-70500000D02*
X116000000Y-70500000D01*
D21*
%TO.N,VDD*%
X126800000Y-100100000D02*
X126800000Y-101500000D01*
X122200000Y-55400000D02*
X122200000Y-53340000D01*
X116500000Y-107240000D02*
X116500000Y-107300000D01*
X116500000Y-107300000D02*
X118100000Y-108900000D01*
X113830000Y-107240000D02*
X116500000Y-107240000D01*
X119800000Y-52800000D02*
X114200000Y-52800000D01*
X119500000Y-89500000D02*
X118100000Y-90900000D01*
X118100000Y-100600000D02*
X118100000Y-102600000D01*
X118100000Y-105400000D02*
X118100000Y-107200000D01*
X126800000Y-101500000D02*
X125700000Y-102600000D01*
X118100000Y-108900000D02*
X118100000Y-110000000D01*
X118100000Y-105400000D02*
X118100000Y-105640000D01*
X126600000Y-86400000D02*
X126600000Y-59800000D01*
X114200000Y-52800000D02*
X113175000Y-51775000D01*
X123500000Y-89500000D02*
X126600000Y-86400000D01*
X118100000Y-104900000D02*
X118100000Y-104300000D01*
X125700000Y-102600000D02*
X119800000Y-102600000D01*
X118100000Y-100900000D02*
X118100000Y-100600000D01*
X120300000Y-89500000D02*
X119500000Y-89500000D01*
X118100000Y-90900000D02*
X118100000Y-100600000D01*
X120340000Y-53340000D02*
X119800000Y-52800000D01*
X118060000Y-107240000D02*
X118100000Y-107200000D01*
X119800000Y-102600000D02*
X118100000Y-100900000D01*
X118100000Y-108900000D02*
X118100000Y-111600000D01*
X118100000Y-107200000D02*
X118100000Y-108900000D01*
X120300000Y-89500000D02*
X123500000Y-89500000D01*
X118100000Y-110000000D02*
X119700000Y-111600000D01*
X119700000Y-111600000D02*
X121900000Y-111600000D01*
X118100000Y-105640000D02*
X116500000Y-107240000D01*
X122200000Y-53340000D02*
X120340000Y-53340000D01*
X126600000Y-59800000D02*
X122200000Y-55400000D01*
X118100000Y-111600000D02*
X119700000Y-111600000D01*
X113175000Y-51775000D02*
X113175000Y-50665000D01*
X119800000Y-102600000D02*
X118100000Y-102600000D01*
X118100000Y-104900000D02*
X118100000Y-105400000D01*
X113200000Y-116500000D02*
X113200000Y-117700000D01*
X118100000Y-104300000D02*
X119800000Y-102600000D01*
X118100000Y-111600000D02*
X113200000Y-116500000D01*
X118100000Y-102600000D02*
X118100000Y-104900000D01*
X116500000Y-107240000D02*
X118060000Y-107240000D01*
X121900000Y-111600000D02*
X121900000Y-109100000D01*
D20*
%TO.N,/PWM1m*%
X107690000Y-72340000D02*
X108100000Y-72340000D01*
X97900000Y-53400000D02*
X97900000Y-62550000D01*
X95395000Y-50895000D02*
X97900000Y-53400000D01*
X95395000Y-50665000D02*
X95395000Y-50895000D01*
X97900000Y-62550000D02*
X107690000Y-72340000D01*
%TO.N,/PWM3m*%
X101000000Y-52300000D02*
X100475000Y-51775000D01*
X101000000Y-58400000D02*
X101000000Y-52300000D01*
X100475000Y-51775000D02*
X100475000Y-50665000D01*
X106900000Y-61600000D02*
X105600000Y-60300000D01*
X107480000Y-62180000D02*
X106900000Y-61600000D01*
X108100000Y-62180000D02*
X107480000Y-62180000D01*
X105600000Y-60300000D02*
X105600000Y-58400000D01*
%TO.N,/PWM2m*%
X107100000Y-69800000D02*
X99100000Y-61800000D01*
X97935000Y-50835000D02*
X97935000Y-50665000D01*
X108100000Y-69800000D02*
X107100000Y-69800000D01*
X99100000Y-61800000D02*
X99100000Y-52000000D01*
X99100000Y-52000000D02*
X97935000Y-50835000D01*
%TO.N,/PWM0m*%
X93065000Y-50665000D02*
X96700000Y-54300000D01*
X106600000Y-75920000D02*
X108100000Y-77420000D01*
X92855000Y-50665000D02*
X93065000Y-50665000D01*
X96700000Y-54300000D02*
X96700000Y-63100000D01*
X106600000Y-73000000D02*
X106600000Y-75920000D01*
X96700000Y-63100000D02*
X106600000Y-73000000D01*
%TD*%
%TA.AperFunction,Conductor*%
%TO.N,GND*%
G36*
X129442539Y-49020185D02*
G01*
X129488294Y-49072989D01*
X129499500Y-49124500D01*
X129499500Y-119675500D01*
X129479815Y-119742539D01*
X129427011Y-119788294D01*
X129375500Y-119799500D01*
X90924500Y-119799500D01*
X90857461Y-119779815D01*
X90811706Y-119727011D01*
X90800500Y-119675500D01*
X90800500Y-112239707D01*
X90820185Y-112172668D01*
X90872989Y-112126913D01*
X90942147Y-112116969D01*
X91005703Y-112145994D01*
X91040680Y-112196371D01*
X91080717Y-112303713D01*
X91121231Y-112412338D01*
X91121233Y-112412342D01*
X91254940Y-112657207D01*
X91254945Y-112657215D01*
X91422138Y-112880560D01*
X91422154Y-112880578D01*
X91619421Y-113077845D01*
X91619439Y-113077861D01*
X91842784Y-113245054D01*
X91842792Y-113245059D01*
X92087657Y-113378766D01*
X92087661Y-113378768D01*
X92087663Y-113378769D01*
X92349077Y-113476271D01*
X92430167Y-113493911D01*
X92609283Y-113532876D01*
X92670606Y-113566361D01*
X92704091Y-113627684D01*
X92699107Y-113697376D01*
X92657235Y-113753309D01*
X92611874Y-113774615D01*
X92419388Y-113820828D01*
X92419380Y-113820830D01*
X92193910Y-113914222D01*
X91985826Y-114041737D01*
X91985823Y-114041738D01*
X91800241Y-114200241D01*
X91641738Y-114385823D01*
X91641737Y-114385826D01*
X91514222Y-114593910D01*
X91420830Y-114819380D01*
X91363853Y-115056702D01*
X91344706Y-115300000D01*
X91363853Y-115543297D01*
X91363853Y-115543300D01*
X91363854Y-115543302D01*
X91390741Y-115655294D01*
X91420830Y-115780619D01*
X91514222Y-116006089D01*
X91641739Y-116214176D01*
X91641742Y-116214181D01*
X91714549Y-116299426D01*
X91743120Y-116363187D01*
X91732683Y-116432273D01*
X91704601Y-116470856D01*
X91629952Y-116540120D01*
X91629949Y-116540123D01*
X91471041Y-116739388D01*
X91343608Y-116960109D01*
X91250492Y-117197362D01*
X91250490Y-117197369D01*
X91193777Y-117445845D01*
X91174732Y-117699995D01*
X91174732Y-117700004D01*
X91193777Y-117954154D01*
X91193778Y-117954157D01*
X91250492Y-118202637D01*
X91343607Y-118439888D01*
X91471041Y-118660612D01*
X91629950Y-118859877D01*
X91816783Y-119033232D01*
X92027366Y-119176805D01*
X92027371Y-119176807D01*
X92027372Y-119176808D01*
X92027373Y-119176809D01*
X92149328Y-119235538D01*
X92256992Y-119287387D01*
X92256993Y-119287387D01*
X92256996Y-119287389D01*
X92500542Y-119362513D01*
X92752565Y-119400500D01*
X93007435Y-119400500D01*
X93259458Y-119362513D01*
X93503004Y-119287389D01*
X93732634Y-119176805D01*
X93943217Y-119033232D01*
X94065659Y-118919623D01*
X94128192Y-118888455D01*
X94197648Y-118896042D01*
X94234341Y-118919623D01*
X94356783Y-119033232D01*
X94567366Y-119176805D01*
X94567371Y-119176807D01*
X94567372Y-119176808D01*
X94567373Y-119176809D01*
X94689328Y-119235538D01*
X94796992Y-119287387D01*
X94796993Y-119287387D01*
X94796996Y-119287389D01*
X95040542Y-119362513D01*
X95292565Y-119400500D01*
X95547435Y-119400500D01*
X95799458Y-119362513D01*
X96043004Y-119287389D01*
X96272634Y-119176805D01*
X96483217Y-119033232D01*
X96605659Y-118919623D01*
X96668192Y-118888455D01*
X96737648Y-118896042D01*
X96774341Y-118919623D01*
X96896783Y-119033232D01*
X97107366Y-119176805D01*
X97107371Y-119176807D01*
X97107372Y-119176808D01*
X97107373Y-119176809D01*
X97229328Y-119235538D01*
X97336992Y-119287387D01*
X97336993Y-119287387D01*
X97336996Y-119287389D01*
X97580542Y-119362513D01*
X97832565Y-119400500D01*
X98087435Y-119400500D01*
X98339458Y-119362513D01*
X98583004Y-119287389D01*
X98812634Y-119176805D01*
X99023217Y-119033232D01*
X99145659Y-118919623D01*
X99208192Y-118888455D01*
X99277648Y-118896042D01*
X99314341Y-118919623D01*
X99436783Y-119033232D01*
X99647366Y-119176805D01*
X99647371Y-119176807D01*
X99647372Y-119176808D01*
X99647373Y-119176809D01*
X99769328Y-119235538D01*
X99876992Y-119287387D01*
X99876993Y-119287387D01*
X99876996Y-119287389D01*
X100120542Y-119362513D01*
X100372565Y-119400500D01*
X100627435Y-119400500D01*
X100879458Y-119362513D01*
X101123004Y-119287389D01*
X101352634Y-119176805D01*
X101563217Y-119033232D01*
X101685659Y-118919623D01*
X101748192Y-118888455D01*
X101817648Y-118896042D01*
X101854341Y-118919623D01*
X101976783Y-119033232D01*
X102187366Y-119176805D01*
X102187371Y-119176807D01*
X102187372Y-119176808D01*
X102187373Y-119176809D01*
X102309328Y-119235538D01*
X102416992Y-119287387D01*
X102416993Y-119287387D01*
X102416996Y-119287389D01*
X102660542Y-119362513D01*
X102912565Y-119400500D01*
X103167435Y-119400500D01*
X103419458Y-119362513D01*
X103663004Y-119287389D01*
X103892634Y-119176805D01*
X104103217Y-119033232D01*
X104225659Y-118919623D01*
X104288192Y-118888455D01*
X104357648Y-118896042D01*
X104394341Y-118919623D01*
X104516783Y-119033232D01*
X104727366Y-119176805D01*
X104727371Y-119176807D01*
X104727372Y-119176808D01*
X104727373Y-119176809D01*
X104849328Y-119235538D01*
X104956992Y-119287387D01*
X104956993Y-119287387D01*
X104956996Y-119287389D01*
X105200542Y-119362513D01*
X105452565Y-119400500D01*
X105707435Y-119400500D01*
X105959458Y-119362513D01*
X106203004Y-119287389D01*
X106432634Y-119176805D01*
X106643217Y-119033232D01*
X106765659Y-118919623D01*
X106828192Y-118888455D01*
X106897648Y-118896042D01*
X106934341Y-118919623D01*
X107056783Y-119033232D01*
X107267366Y-119176805D01*
X107267371Y-119176807D01*
X107267372Y-119176808D01*
X107267373Y-119176809D01*
X107389328Y-119235538D01*
X107496992Y-119287387D01*
X107496993Y-119287387D01*
X107496996Y-119287389D01*
X107740542Y-119362513D01*
X107992565Y-119400500D01*
X108247435Y-119400500D01*
X108499458Y-119362513D01*
X108743004Y-119287389D01*
X108972634Y-119176805D01*
X109183217Y-119033232D01*
X109370050Y-118859877D01*
X109528959Y-118660612D01*
X109656393Y-118439888D01*
X109749508Y-118202637D01*
X109806222Y-117954157D01*
X109825268Y-117700000D01*
X109806222Y-117445843D01*
X109791204Y-117380043D01*
X109795477Y-117310304D01*
X109824412Y-117264771D01*
X110340150Y-116749032D01*
X110340157Y-116749027D01*
X110347217Y-116741967D01*
X110347219Y-116741966D01*
X110491966Y-116597219D01*
X110491968Y-116597215D01*
X110491971Y-116597213D01*
X110594233Y-116456459D01*
X110612287Y-116431610D01*
X110670327Y-116317701D01*
X110705221Y-116249218D01*
X110768477Y-116054534D01*
X110800500Y-115852351D01*
X110800500Y-115647648D01*
X110800500Y-115080219D01*
X110818773Y-115015429D01*
X110885777Y-114906089D01*
X110979169Y-114680619D01*
X110979168Y-114680619D01*
X110979172Y-114680612D01*
X111036146Y-114443302D01*
X111055294Y-114200000D01*
X111036146Y-113956698D01*
X110979172Y-113719388D01*
X110971141Y-113700000D01*
X110933129Y-113608229D01*
X110885777Y-113493911D01*
X110837207Y-113414651D01*
X110818772Y-113384567D01*
X110800500Y-113319778D01*
X110800500Y-104140047D01*
X110820185Y-104073008D01*
X110836819Y-104052366D01*
X111392366Y-103496819D01*
X111453689Y-103463334D01*
X111480047Y-103460500D01*
X112132846Y-103460500D01*
X112199885Y-103480185D01*
X112220527Y-103496819D01*
X112240295Y-103516587D01*
X112240301Y-103516592D01*
X112427550Y-103660273D01*
X112517641Y-103712287D01*
X112631943Y-103778280D01*
X112631948Y-103778282D01*
X112631951Y-103778284D01*
X112850007Y-103868606D01*
X113077986Y-103929693D01*
X113311989Y-103960500D01*
X113311996Y-103960500D01*
X114348004Y-103960500D01*
X114348011Y-103960500D01*
X114582014Y-103929693D01*
X114809993Y-103868606D01*
X115028049Y-103778284D01*
X115232450Y-103660273D01*
X115419699Y-103516592D01*
X115586592Y-103349699D01*
X115730273Y-103162450D01*
X115848284Y-102958049D01*
X115938606Y-102739993D01*
X115999693Y-102512014D01*
X116030500Y-102278011D01*
X116030500Y-102041989D01*
X115999693Y-101807986D01*
X115938606Y-101580007D01*
X115848284Y-101361951D01*
X115848282Y-101361948D01*
X115848280Y-101361943D01*
X115772355Y-101230439D01*
X115730273Y-101157550D01*
X115586592Y-100970301D01*
X115586587Y-100970295D01*
X115419704Y-100803412D01*
X115419697Y-100803406D01*
X115232454Y-100659730D01*
X115232453Y-100659729D01*
X115232450Y-100659727D01*
X115150957Y-100612677D01*
X115028056Y-100541719D01*
X115028045Y-100541714D01*
X114809993Y-100451394D01*
X114582014Y-100390307D01*
X114582013Y-100390306D01*
X114582010Y-100390306D01*
X114348020Y-100359501D01*
X114348017Y-100359500D01*
X114348011Y-100359500D01*
X113311989Y-100359500D01*
X113311983Y-100359500D01*
X113311979Y-100359501D01*
X113077989Y-100390306D01*
X112850006Y-100451394D01*
X112631954Y-100541714D01*
X112631943Y-100541719D01*
X112427545Y-100659730D01*
X112240302Y-100803406D01*
X112240295Y-100803412D01*
X112220527Y-100823181D01*
X112159204Y-100856666D01*
X112132846Y-100859500D01*
X111660046Y-100859500D01*
X111593007Y-100839815D01*
X111572365Y-100823181D01*
X110836819Y-100087634D01*
X110803334Y-100026311D01*
X110800500Y-99999953D01*
X110800500Y-99080219D01*
X110818773Y-99015429D01*
X110885777Y-98906089D01*
X110908812Y-98850478D01*
X110979172Y-98680612D01*
X111036146Y-98443302D01*
X111055294Y-98200000D01*
X111036146Y-97956698D01*
X110979172Y-97719388D01*
X110885777Y-97493911D01*
X110885776Y-97493909D01*
X110885776Y-97493908D01*
X110883468Y-97490142D01*
X110865222Y-97422697D01*
X110886337Y-97356094D01*
X110901508Y-97337675D01*
X116587821Y-91651363D01*
X116649142Y-91617880D01*
X116718834Y-91622864D01*
X116774767Y-91664736D01*
X116799184Y-91730200D01*
X116799500Y-91739046D01*
X116799500Y-105049952D01*
X116779815Y-105116991D01*
X116763181Y-105137633D01*
X116086786Y-105814027D01*
X116025463Y-105847512D01*
X115955771Y-105842528D01*
X115899838Y-105800656D01*
X115894112Y-105792318D01*
X115859820Y-105737743D01*
X115859815Y-105737737D01*
X115732262Y-105610184D01*
X115579523Y-105514211D01*
X115409254Y-105454631D01*
X115409249Y-105454630D01*
X115274960Y-105439500D01*
X115274954Y-105439500D01*
X112385046Y-105439500D01*
X112385039Y-105439500D01*
X112250750Y-105454630D01*
X112250745Y-105454631D01*
X112080476Y-105514211D01*
X111927737Y-105610184D01*
X111800184Y-105737737D01*
X111704211Y-105890476D01*
X111644631Y-106060745D01*
X111644630Y-106060750D01*
X111629500Y-106195039D01*
X111629500Y-108284960D01*
X111644630Y-108419249D01*
X111644631Y-108419254D01*
X111704211Y-108589523D01*
X111759955Y-108678238D01*
X111800184Y-108742262D01*
X111927738Y-108869816D01*
X112018080Y-108926582D01*
X112077396Y-108963853D01*
X112080478Y-108965789D01*
X112237770Y-109020828D01*
X112250745Y-109025368D01*
X112250750Y-109025369D01*
X112341246Y-109035565D01*
X112385040Y-109040499D01*
X112385043Y-109040500D01*
X112385046Y-109040500D01*
X115274957Y-109040500D01*
X115274958Y-109040499D01*
X115342104Y-109032934D01*
X115409249Y-109025369D01*
X115409252Y-109025368D01*
X115409255Y-109025368D01*
X115579522Y-108965789D01*
X115732262Y-108869816D01*
X115859816Y-108742262D01*
X115870958Y-108724528D01*
X115923288Y-108678238D01*
X115992341Y-108667587D01*
X116056191Y-108695959D01*
X116063633Y-108702818D01*
X116763181Y-109402365D01*
X116796666Y-109463688D01*
X116799500Y-109490046D01*
X116799500Y-111009953D01*
X116779815Y-111076992D01*
X116763181Y-111097634D01*
X112208036Y-115652778D01*
X112087716Y-115818384D01*
X112087714Y-115818387D01*
X112049499Y-115893389D01*
X111994779Y-116000780D01*
X111994777Y-116000786D01*
X111977315Y-116054532D01*
X111977315Y-116054533D01*
X111931522Y-116195468D01*
X111923009Y-116249218D01*
X111899500Y-116397648D01*
X111899500Y-116559995D01*
X111879815Y-116627034D01*
X111872447Y-116637308D01*
X111791041Y-116739388D01*
X111663608Y-116960109D01*
X111570492Y-117197362D01*
X111570490Y-117197369D01*
X111513777Y-117445845D01*
X111494732Y-117699995D01*
X111494732Y-117700004D01*
X111513777Y-117954154D01*
X111513778Y-117954157D01*
X111570492Y-118202637D01*
X111663607Y-118439888D01*
X111791041Y-118660612D01*
X111949950Y-118859877D01*
X112136783Y-119033232D01*
X112347366Y-119176805D01*
X112347371Y-119176807D01*
X112347372Y-119176808D01*
X112347373Y-119176809D01*
X112469328Y-119235538D01*
X112576992Y-119287387D01*
X112576993Y-119287387D01*
X112576996Y-119287389D01*
X112820542Y-119362513D01*
X113072565Y-119400500D01*
X113327435Y-119400500D01*
X113579458Y-119362513D01*
X113823004Y-119287389D01*
X114052634Y-119176805D01*
X114263217Y-119033232D01*
X114450050Y-118859877D01*
X114608959Y-118660612D01*
X114736393Y-118439888D01*
X114829508Y-118202637D01*
X114886222Y-117954157D01*
X114905268Y-117700000D01*
X114886222Y-117445843D01*
X114829508Y-117197363D01*
X114736393Y-116960112D01*
X114726382Y-116942773D01*
X114709910Y-116874875D01*
X114732762Y-116808848D01*
X114746083Y-116793100D01*
X117641679Y-113897504D01*
X117703000Y-113864021D01*
X117772692Y-113869005D01*
X117828625Y-113910877D01*
X117853042Y-113976341D01*
X117852976Y-113994915D01*
X117844706Y-114099999D01*
X117863853Y-114343297D01*
X117863853Y-114343300D01*
X117863854Y-114343302D01*
X117887862Y-114443302D01*
X117920830Y-114580619D01*
X118014222Y-114806089D01*
X118141737Y-115014173D01*
X118141738Y-115014176D01*
X118178059Y-115056702D01*
X118300241Y-115199759D01*
X118423719Y-115305219D01*
X118485823Y-115358261D01*
X118485826Y-115358262D01*
X118693910Y-115485777D01*
X118919381Y-115579169D01*
X118919378Y-115579169D01*
X118919384Y-115579170D01*
X118919388Y-115579172D01*
X119156698Y-115636146D01*
X119400000Y-115655294D01*
X119643302Y-115636146D01*
X119880612Y-115579172D01*
X120106089Y-115485777D01*
X120215429Y-115418772D01*
X120280219Y-115400500D01*
X124102351Y-115400500D01*
X124102352Y-115400500D01*
X124304535Y-115368477D01*
X124401876Y-115336848D01*
X124499219Y-115305220D01*
X124597204Y-115255294D01*
X124681611Y-115212287D01*
X124847219Y-115091966D01*
X126697253Y-113241932D01*
X126758576Y-113208447D01*
X126784934Y-113205613D01*
X127544957Y-113205613D01*
X127544958Y-113205612D01*
X127612104Y-113198047D01*
X127679249Y-113190482D01*
X127679252Y-113190481D01*
X127679255Y-113190481D01*
X127849522Y-113130902D01*
X128002262Y-113034929D01*
X128129816Y-112907375D01*
X128225789Y-112754635D01*
X128285368Y-112584368D01*
X128300500Y-112450067D01*
X128300500Y-110560159D01*
X128285368Y-110425858D01*
X128225789Y-110255591D01*
X128129816Y-110102851D01*
X128002262Y-109975297D01*
X127902070Y-109912342D01*
X127849523Y-109879324D01*
X127679254Y-109819744D01*
X127679249Y-109819743D01*
X127544960Y-109804613D01*
X127544954Y-109804613D01*
X125655046Y-109804613D01*
X125655039Y-109804613D01*
X125520750Y-109819743D01*
X125520745Y-109819744D01*
X125350476Y-109879324D01*
X125197737Y-109975297D01*
X125070184Y-110102850D01*
X124974211Y-110255589D01*
X124914631Y-110425858D01*
X124914630Y-110425863D01*
X124899500Y-110560152D01*
X124899500Y-111309953D01*
X124879815Y-111376992D01*
X124863181Y-111397634D01*
X123980880Y-112279934D01*
X123919557Y-112313419D01*
X123849865Y-112308435D01*
X123793932Y-112266563D01*
X123769515Y-112201099D01*
X123776081Y-112155471D01*
X123775026Y-112155162D01*
X123776267Y-112150932D01*
X123776271Y-112150923D01*
X123835578Y-111878294D01*
X123855482Y-111600000D01*
X123835578Y-111321706D01*
X123833021Y-111309953D01*
X123783863Y-111083976D01*
X123776271Y-111049077D01*
X123678769Y-110787663D01*
X123642275Y-110720830D01*
X123545059Y-110542792D01*
X123545058Y-110542791D01*
X123545056Y-110542787D01*
X123456364Y-110424309D01*
X123431948Y-110358846D01*
X123446800Y-110290573D01*
X123456360Y-110275695D01*
X123545056Y-110157213D01*
X123678769Y-109912337D01*
X123776271Y-109650923D01*
X123835578Y-109378294D01*
X123855482Y-109100000D01*
X123835578Y-108821706D01*
X123830344Y-108797648D01*
X123802051Y-108667587D01*
X123776271Y-108549077D01*
X123678769Y-108287663D01*
X123545056Y-108042787D01*
X123545054Y-108042784D01*
X123377861Y-107819439D01*
X123377845Y-107819421D01*
X123180578Y-107622154D01*
X123180560Y-107622138D01*
X122957215Y-107454945D01*
X122957207Y-107454940D01*
X122712342Y-107321233D01*
X122712338Y-107321231D01*
X122613230Y-107284266D01*
X122450923Y-107223729D01*
X122450919Y-107223728D01*
X122450916Y-107223727D01*
X122178299Y-107164422D01*
X121900001Y-107144518D01*
X121899999Y-107144518D01*
X121621700Y-107164422D01*
X121349083Y-107223727D01*
X121349078Y-107223728D01*
X121349077Y-107223729D01*
X121285875Y-107247301D01*
X121087661Y-107321231D01*
X121087657Y-107321233D01*
X120842792Y-107454940D01*
X120842784Y-107454945D01*
X120619439Y-107622138D01*
X120619421Y-107622154D01*
X120422154Y-107819421D01*
X120422138Y-107819439D01*
X120254945Y-108042784D01*
X120254940Y-108042792D01*
X120121233Y-108287657D01*
X120121231Y-108287661D01*
X120023727Y-108549083D01*
X119964422Y-108821700D01*
X119944518Y-109099998D01*
X119944518Y-109100001D01*
X119964422Y-109378299D01*
X120023727Y-109650916D01*
X120023729Y-109650923D01*
X120082467Y-109808405D01*
X120087451Y-109878096D01*
X120053966Y-109939419D01*
X119992643Y-109972904D01*
X119922951Y-109967920D01*
X119878604Y-109939419D01*
X119436819Y-109497634D01*
X119403334Y-109436311D01*
X119400500Y-109409953D01*
X119400500Y-107307486D01*
X119400501Y-107307461D01*
X119400501Y-107093247D01*
X119400500Y-107093232D01*
X119400500Y-104890047D01*
X119420185Y-104823008D01*
X119436819Y-104802366D01*
X120302366Y-103936819D01*
X120363689Y-103903334D01*
X120390047Y-103900500D01*
X125802351Y-103900500D01*
X125802352Y-103900500D01*
X126004535Y-103868477D01*
X126101876Y-103836848D01*
X126199219Y-103805220D01*
X126290414Y-103758753D01*
X126381611Y-103712287D01*
X126547219Y-103591966D01*
X127791966Y-102347219D01*
X127912287Y-102181611D01*
X127975449Y-102057648D01*
X128005220Y-101999219D01*
X128051928Y-101855466D01*
X128068477Y-101804535D01*
X128075611Y-101759486D01*
X128105539Y-101696355D01*
X128132107Y-101673896D01*
X128202262Y-101629816D01*
X128329816Y-101502262D01*
X128425789Y-101349522D01*
X128485368Y-101179255D01*
X128487356Y-101161617D01*
X128500499Y-101044960D01*
X128500500Y-101044956D01*
X128500500Y-99155043D01*
X128500499Y-99155039D01*
X128485369Y-99020750D01*
X128485368Y-99020745D01*
X128425788Y-98850476D01*
X128329815Y-98697737D01*
X128202262Y-98570184D01*
X128049523Y-98474211D01*
X127879254Y-98414631D01*
X127879249Y-98414630D01*
X127744960Y-98399500D01*
X127744954Y-98399500D01*
X125855046Y-98399500D01*
X125855039Y-98399500D01*
X125720750Y-98414630D01*
X125720745Y-98414631D01*
X125550476Y-98474211D01*
X125397737Y-98570184D01*
X125270184Y-98697737D01*
X125174211Y-98850476D01*
X125114631Y-99020745D01*
X125114630Y-99020750D01*
X125099500Y-99155039D01*
X125099500Y-101044960D01*
X125112644Y-101161617D01*
X125100589Y-101230439D01*
X125053240Y-101281818D01*
X124989424Y-101299500D01*
X120390047Y-101299500D01*
X120323008Y-101279815D01*
X120302366Y-101263181D01*
X119436819Y-100397634D01*
X119403334Y-100336311D01*
X119400500Y-100309953D01*
X119400500Y-91490046D01*
X119420185Y-91423007D01*
X119436815Y-91402369D01*
X119681330Y-91157853D01*
X119742651Y-91124370D01*
X119805558Y-91127044D01*
X119920542Y-91162513D01*
X120172565Y-91200500D01*
X120427435Y-91200500D01*
X120679458Y-91162513D01*
X120923004Y-91087389D01*
X121152634Y-90976805D01*
X121363217Y-90833232D01*
X121363225Y-90833223D01*
X121363230Y-90833221D01*
X121366850Y-90830336D01*
X121367566Y-90831234D01*
X121425359Y-90802432D01*
X121447161Y-90800500D01*
X123602351Y-90800500D01*
X123602352Y-90800500D01*
X123804535Y-90768477D01*
X123901876Y-90736848D01*
X123999219Y-90705220D01*
X124090414Y-90658753D01*
X124181611Y-90612287D01*
X124347219Y-90491966D01*
X127591966Y-87247219D01*
X127712287Y-87081611D01*
X127769931Y-86968477D01*
X127805220Y-86899219D01*
X127868477Y-86704534D01*
X127900500Y-86502352D01*
X127900500Y-59697648D01*
X127868477Y-59495466D01*
X127857144Y-59460586D01*
X127805222Y-59300784D01*
X127805221Y-59300781D01*
X127721954Y-59137363D01*
X127712287Y-59118390D01*
X127672198Y-59063212D01*
X127648200Y-59030181D01*
X127591971Y-58952787D01*
X127591968Y-58952784D01*
X127591966Y-58952781D01*
X127447219Y-58808034D01*
X127447218Y-58808033D01*
X127444107Y-58804922D01*
X127444092Y-58804908D01*
X123854264Y-55215079D01*
X123820779Y-55153756D01*
X123825763Y-55084064D01*
X123827343Y-55080046D01*
X123899117Y-54906772D01*
X123959864Y-54680059D01*
X123990500Y-54447356D01*
X123990500Y-52232644D01*
X123959864Y-51999941D01*
X123899117Y-51773228D01*
X123837972Y-51625612D01*
X123809299Y-51556389D01*
X123809294Y-51556379D01*
X123691941Y-51353117D01*
X123549059Y-51166909D01*
X123549053Y-51166902D01*
X123383097Y-51000946D01*
X123383090Y-51000940D01*
X123196882Y-50858058D01*
X122993620Y-50740705D01*
X122993610Y-50740700D01*
X122776779Y-50650886D01*
X122776780Y-50650886D01*
X122776772Y-50650883D01*
X122550059Y-50590136D01*
X122550053Y-50590135D01*
X122550048Y-50590134D01*
X122317365Y-50559501D01*
X122317362Y-50559500D01*
X122317356Y-50559500D01*
X122082644Y-50559500D01*
X122082638Y-50559500D01*
X122082634Y-50559501D01*
X121849951Y-50590134D01*
X121849944Y-50590135D01*
X121849941Y-50590136D01*
X121774370Y-50610385D01*
X121623234Y-50650881D01*
X121623220Y-50650886D01*
X121406389Y-50740700D01*
X121406379Y-50740705D01*
X121203117Y-50858058D01*
X121016909Y-51000940D01*
X121016902Y-51000946D01*
X120850946Y-51166902D01*
X120850940Y-51166909D01*
X120708058Y-51353117D01*
X120590709Y-51556372D01*
X120590704Y-51556381D01*
X120578106Y-51586796D01*
X120534263Y-51641198D01*
X120467969Y-51663261D01*
X120407252Y-51649825D01*
X120359730Y-51625612D01*
X120299221Y-51594781D01*
X120299220Y-51594780D01*
X120299219Y-51594780D01*
X120135982Y-51541741D01*
X120135980Y-51541739D01*
X120104536Y-51531523D01*
X120104531Y-51531522D01*
X119963364Y-51509163D01*
X119902352Y-51499500D01*
X119902351Y-51499500D01*
X114856135Y-51499500D01*
X114789096Y-51479815D01*
X114743341Y-51427011D01*
X114733397Y-51357853D01*
X114740707Y-51330197D01*
X114748806Y-51309561D01*
X114804508Y-51167637D01*
X114861222Y-50919157D01*
X114880268Y-50665000D01*
X114879210Y-50650886D01*
X114861222Y-50410845D01*
X114804509Y-50162369D01*
X114804508Y-50162363D01*
X114711393Y-49925112D01*
X114583959Y-49704388D01*
X114425050Y-49505123D01*
X114238217Y-49331768D01*
X114084480Y-49226952D01*
X114040180Y-49172925D01*
X114032121Y-49103521D01*
X114062864Y-49040779D01*
X114122648Y-49004617D01*
X114154334Y-49000500D01*
X129375500Y-49000500D01*
X129442539Y-49020185D01*
G37*
%TD.AperFunction*%
%TA.AperFunction,Conductor*%
G36*
X91942705Y-49020185D02*
G01*
X91988460Y-49072989D01*
X91998404Y-49142147D01*
X91969379Y-49205703D01*
X91945521Y-49226950D01*
X91867329Y-49280261D01*
X91791782Y-49331768D01*
X91604952Y-49505121D01*
X91604950Y-49505123D01*
X91446041Y-49704388D01*
X91318608Y-49925109D01*
X91225492Y-50162362D01*
X91225490Y-50162369D01*
X91168777Y-50410845D01*
X91149732Y-50664995D01*
X91149732Y-50665004D01*
X91168777Y-50919154D01*
X91225490Y-51167630D01*
X91225492Y-51167637D01*
X91318608Y-51404890D01*
X91446041Y-51625612D01*
X91446043Y-51625615D01*
X91570046Y-51781111D01*
X91596455Y-51845797D01*
X91583698Y-51914493D01*
X91578826Y-51923213D01*
X91474222Y-52093910D01*
X91380830Y-52319380D01*
X91323853Y-52556702D01*
X91304706Y-52800000D01*
X91323853Y-53043297D01*
X91323853Y-53043300D01*
X91323854Y-53043302D01*
X91333431Y-53083191D01*
X91380830Y-53280621D01*
X91380831Y-53280623D01*
X91463851Y-53481052D01*
X91471320Y-53550521D01*
X91453045Y-53595187D01*
X91453361Y-53595370D01*
X91452023Y-53597686D01*
X91451759Y-53598333D01*
X91451047Y-53599376D01*
X91323608Y-53820109D01*
X91230492Y-54057362D01*
X91230490Y-54057369D01*
X91173777Y-54305845D01*
X91154732Y-54559995D01*
X91154732Y-54560004D01*
X91173777Y-54814154D01*
X91225609Y-55041246D01*
X91230492Y-55062637D01*
X91323607Y-55299888D01*
X91451041Y-55520612D01*
X91524401Y-55612602D01*
X91609954Y-55719882D01*
X91630669Y-55739103D01*
X91666422Y-55799132D01*
X91664046Y-55868961D01*
X91630669Y-55920897D01*
X91609954Y-55940117D01*
X91451041Y-56139388D01*
X91323608Y-56360109D01*
X91230492Y-56597362D01*
X91230490Y-56597369D01*
X91173777Y-56845845D01*
X91154732Y-57099995D01*
X91154732Y-57100004D01*
X91173777Y-57354154D01*
X91211672Y-57520185D01*
X91230492Y-57602637D01*
X91323607Y-57839888D01*
X91451041Y-58060612D01*
X91572877Y-58213389D01*
X91609954Y-58259882D01*
X91630669Y-58279103D01*
X91666422Y-58339132D01*
X91664046Y-58408961D01*
X91630669Y-58460897D01*
X91609954Y-58480117D01*
X91451041Y-58679388D01*
X91323608Y-58900109D01*
X91230492Y-59137362D01*
X91230490Y-59137369D01*
X91173777Y-59385845D01*
X91154732Y-59639995D01*
X91154732Y-59640004D01*
X91173777Y-59894154D01*
X91229070Y-60136410D01*
X91230492Y-60142637D01*
X91323607Y-60379888D01*
X91451041Y-60600612D01*
X91596587Y-60783120D01*
X91609954Y-60799882D01*
X91630669Y-60819103D01*
X91666422Y-60879132D01*
X91664046Y-60948961D01*
X91630669Y-61000897D01*
X91609954Y-61020117D01*
X91451041Y-61219388D01*
X91323608Y-61440109D01*
X91230492Y-61677362D01*
X91230490Y-61677369D01*
X91173777Y-61925845D01*
X91154732Y-62179995D01*
X91154732Y-62180004D01*
X91173777Y-62434154D01*
X91216924Y-62623195D01*
X91230492Y-62682637D01*
X91323607Y-62919888D01*
X91451041Y-63140612D01*
X91543385Y-63256407D01*
X91609954Y-63339882D01*
X91630669Y-63359103D01*
X91666422Y-63419132D01*
X91664046Y-63488961D01*
X91630669Y-63540897D01*
X91609954Y-63560117D01*
X91451041Y-63759388D01*
X91323608Y-63980109D01*
X91230492Y-64217362D01*
X91230490Y-64217369D01*
X91173777Y-64465845D01*
X91154732Y-64719995D01*
X91154732Y-64720004D01*
X91173777Y-64974154D01*
X91173778Y-64974157D01*
X91230492Y-65222637D01*
X91323607Y-65459888D01*
X91451041Y-65680612D01*
X91609949Y-65879876D01*
X91609954Y-65879882D01*
X91630669Y-65899103D01*
X91666422Y-65959132D01*
X91664046Y-66028961D01*
X91630669Y-66080897D01*
X91609954Y-66100117D01*
X91451041Y-66299388D01*
X91323608Y-66520109D01*
X91230492Y-66757362D01*
X91230490Y-66757369D01*
X91173777Y-67005845D01*
X91154732Y-67259995D01*
X91154732Y-67260004D01*
X91173777Y-67514154D01*
X91173778Y-67514157D01*
X91230492Y-67762637D01*
X91323607Y-67999888D01*
X91451041Y-68220612D01*
X91578297Y-68380185D01*
X91609954Y-68419882D01*
X91630669Y-68439103D01*
X91666422Y-68499132D01*
X91664046Y-68568961D01*
X91630669Y-68620897D01*
X91609954Y-68640117D01*
X91451041Y-68839388D01*
X91323608Y-69060109D01*
X91230492Y-69297362D01*
X91230490Y-69297369D01*
X91173777Y-69545845D01*
X91154732Y-69799995D01*
X91154732Y-69800004D01*
X91173777Y-70054154D01*
X91173778Y-70054157D01*
X91230492Y-70302637D01*
X91323607Y-70539888D01*
X91451041Y-70760612D01*
X91578297Y-70920185D01*
X91609954Y-70959882D01*
X91630669Y-70979103D01*
X91666422Y-71039132D01*
X91664046Y-71108961D01*
X91630669Y-71160897D01*
X91609954Y-71180117D01*
X91451041Y-71379388D01*
X91323608Y-71600109D01*
X91230492Y-71837362D01*
X91230490Y-71837369D01*
X91173777Y-72085845D01*
X91154732Y-72339995D01*
X91154732Y-72340004D01*
X91173777Y-72594154D01*
X91173778Y-72594157D01*
X91230492Y-72842637D01*
X91323607Y-73079888D01*
X91451041Y-73300612D01*
X91565347Y-73443947D01*
X91609954Y-73499882D01*
X91630669Y-73519103D01*
X91666422Y-73579132D01*
X91664046Y-73648961D01*
X91630669Y-73700897D01*
X91609954Y-73720117D01*
X91451041Y-73919388D01*
X91323608Y-74140109D01*
X91230492Y-74377362D01*
X91230490Y-74377369D01*
X91173777Y-74625845D01*
X91154732Y-74879995D01*
X91154732Y-74880004D01*
X91173777Y-75134154D01*
X91193510Y-75220612D01*
X91230492Y-75382637D01*
X91303619Y-75568961D01*
X91323608Y-75619890D01*
X91335290Y-75640124D01*
X91451041Y-75840612D01*
X91546719Y-75960588D01*
X91609954Y-76039882D01*
X91630669Y-76059103D01*
X91666422Y-76119132D01*
X91664046Y-76188961D01*
X91630669Y-76240897D01*
X91609954Y-76260117D01*
X91451041Y-76459388D01*
X91323608Y-76680109D01*
X91230492Y-76917362D01*
X91230490Y-76917369D01*
X91173777Y-77165845D01*
X91154732Y-77419995D01*
X91154732Y-77420004D01*
X91173777Y-77674154D01*
X91173778Y-77674157D01*
X91230492Y-77922637D01*
X91323607Y-78159888D01*
X91451041Y-78380612D01*
X91501429Y-78443796D01*
X91609954Y-78579882D01*
X91630669Y-78599103D01*
X91666422Y-78659132D01*
X91664046Y-78728961D01*
X91630669Y-78780897D01*
X91609954Y-78800117D01*
X91451041Y-78999388D01*
X91323608Y-79220109D01*
X91230492Y-79457362D01*
X91230490Y-79457369D01*
X91173777Y-79705845D01*
X91154732Y-79959995D01*
X91154732Y-79960004D01*
X91173777Y-80214154D01*
X91173778Y-80214157D01*
X91230492Y-80462637D01*
X91323607Y-80699888D01*
X91451041Y-80920612D01*
X91578297Y-81080185D01*
X91609954Y-81119882D01*
X91630669Y-81139103D01*
X91666422Y-81199132D01*
X91664046Y-81268961D01*
X91630669Y-81320897D01*
X91609954Y-81340117D01*
X91451041Y-81539388D01*
X91323608Y-81760109D01*
X91230492Y-81997362D01*
X91230490Y-81997369D01*
X91173777Y-82245845D01*
X91154732Y-82499995D01*
X91154732Y-82500004D01*
X91173777Y-82754154D01*
X91207010Y-82899759D01*
X91230492Y-83002637D01*
X91323607Y-83239888D01*
X91451041Y-83460612D01*
X91609950Y-83659877D01*
X91609954Y-83659882D01*
X91630669Y-83679103D01*
X91666422Y-83739132D01*
X91664046Y-83808961D01*
X91630669Y-83860897D01*
X91609954Y-83880117D01*
X91451041Y-84079388D01*
X91323608Y-84300109D01*
X91230492Y-84537362D01*
X91230490Y-84537369D01*
X91173777Y-84785845D01*
X91154732Y-85039995D01*
X91154732Y-85040004D01*
X91173777Y-85294154D01*
X91230490Y-85542630D01*
X91230492Y-85542637D01*
X91323608Y-85779890D01*
X91340965Y-85809953D01*
X91451041Y-86000612D01*
X91609950Y-86199877D01*
X91796783Y-86373232D01*
X92007366Y-86516805D01*
X92007371Y-86516807D01*
X92007372Y-86516808D01*
X92007373Y-86516809D01*
X92105062Y-86563853D01*
X92236992Y-86627387D01*
X92236993Y-86627387D01*
X92236996Y-86627389D01*
X92480542Y-86702513D01*
X92732565Y-86740500D01*
X92987435Y-86740500D01*
X93239458Y-86702513D01*
X93483004Y-86627389D01*
X93712634Y-86516805D01*
X93923217Y-86373232D01*
X94110050Y-86199877D01*
X94268959Y-86000612D01*
X94396393Y-85779888D01*
X94489508Y-85542637D01*
X94546222Y-85294157D01*
X94554518Y-85183451D01*
X94579157Y-85118071D01*
X94635232Y-85076390D01*
X94704940Y-85071642D01*
X94765852Y-85105037D01*
X95463181Y-85802366D01*
X95496666Y-85863689D01*
X95499500Y-85890047D01*
X95499500Y-97319778D01*
X95481228Y-97384567D01*
X95414222Y-97493912D01*
X95320830Y-97719380D01*
X95263853Y-97956702D01*
X95244706Y-98200000D01*
X95263853Y-98443297D01*
X95263853Y-98443300D01*
X95263854Y-98443302D01*
X95284991Y-98531344D01*
X95320830Y-98680619D01*
X95414222Y-98906089D01*
X95481227Y-99015429D01*
X95499500Y-99080219D01*
X95499500Y-99309953D01*
X95479815Y-99376992D01*
X95463181Y-99397634D01*
X91908036Y-102952778D01*
X91787716Y-103118384D01*
X91787711Y-103118392D01*
X91770604Y-103151965D01*
X91770605Y-103151966D01*
X91694781Y-103300776D01*
X91631522Y-103495465D01*
X91599500Y-103697648D01*
X91599500Y-107590714D01*
X91579815Y-107657753D01*
X91563181Y-107678395D01*
X91422154Y-107819421D01*
X91422138Y-107819439D01*
X91254945Y-108042784D01*
X91254940Y-108042792D01*
X91121233Y-108287657D01*
X91121231Y-108287661D01*
X91040682Y-108503625D01*
X90998811Y-108559559D01*
X90933346Y-108583976D01*
X90865073Y-108569124D01*
X90815668Y-108519719D01*
X90800500Y-108460292D01*
X90800500Y-90119995D01*
X91154732Y-90119995D01*
X91154732Y-90120004D01*
X91173777Y-90374154D01*
X91228129Y-90612287D01*
X91230492Y-90622637D01*
X91323607Y-90859888D01*
X91451041Y-91080612D01*
X91609950Y-91279877D01*
X91796783Y-91453232D01*
X92007366Y-91596805D01*
X92007371Y-91596807D01*
X92007372Y-91596808D01*
X92007373Y-91596809D01*
X92120661Y-91651365D01*
X92236992Y-91707387D01*
X92236993Y-91707387D01*
X92236996Y-91707389D01*
X92480542Y-91782513D01*
X92732565Y-91820500D01*
X92987435Y-91820500D01*
X93239458Y-91782513D01*
X93483004Y-91707389D01*
X93712634Y-91596805D01*
X93923217Y-91453232D01*
X94110050Y-91279877D01*
X94268959Y-91080612D01*
X94396393Y-90859888D01*
X94489508Y-90622637D01*
X94546222Y-90374157D01*
X94565268Y-90120000D01*
X94546222Y-89865843D01*
X94489508Y-89617363D01*
X94396393Y-89380112D01*
X94268959Y-89159388D01*
X94110050Y-88960123D01*
X93923217Y-88786768D01*
X93712634Y-88643195D01*
X93712630Y-88643193D01*
X93712627Y-88643191D01*
X93712626Y-88643190D01*
X93483006Y-88532612D01*
X93483008Y-88532612D01*
X93239466Y-88457489D01*
X93239462Y-88457488D01*
X93239458Y-88457487D01*
X93118231Y-88439214D01*
X92987440Y-88419500D01*
X92987435Y-88419500D01*
X92732565Y-88419500D01*
X92732559Y-88419500D01*
X92575609Y-88443157D01*
X92480542Y-88457487D01*
X92480539Y-88457488D01*
X92480533Y-88457489D01*
X92236992Y-88532612D01*
X92007373Y-88643190D01*
X92007372Y-88643191D01*
X91796782Y-88786768D01*
X91609952Y-88960121D01*
X91609950Y-88960123D01*
X91451041Y-89159388D01*
X91323608Y-89380109D01*
X91230492Y-89617362D01*
X91230490Y-89617369D01*
X91173777Y-89865845D01*
X91154732Y-90119995D01*
X90800500Y-90119995D01*
X90800500Y-49124500D01*
X90820185Y-49057461D01*
X90872989Y-49011706D01*
X90924500Y-49000500D01*
X91875666Y-49000500D01*
X91942705Y-49020185D01*
G37*
%TD.AperFunction*%
%TA.AperFunction,Conductor*%
G36*
X110709522Y-81080185D02*
G01*
X110755277Y-81132989D01*
X110765221Y-81202147D01*
X110757044Y-81231953D01*
X110720830Y-81319380D01*
X110663853Y-81556702D01*
X110644706Y-81800000D01*
X110663853Y-82043297D01*
X110720830Y-82280619D01*
X110814222Y-82506089D01*
X110941737Y-82714173D01*
X110941738Y-82714176D01*
X110941741Y-82714179D01*
X111100241Y-82899759D01*
X111214855Y-82997648D01*
X111285823Y-83058261D01*
X111285826Y-83058262D01*
X111493910Y-83185777D01*
X111719381Y-83279169D01*
X111719378Y-83279169D01*
X111719384Y-83279170D01*
X111719388Y-83279172D01*
X111956698Y-83336146D01*
X112200000Y-83355294D01*
X112443302Y-83336146D01*
X112680612Y-83279172D01*
X112706575Y-83268417D01*
X112776042Y-83260948D01*
X112838522Y-83292221D01*
X112874176Y-83352309D01*
X112874603Y-83411925D01*
X112863853Y-83456700D01*
X112844706Y-83700000D01*
X112863853Y-83943297D01*
X112863853Y-83943300D01*
X112863854Y-83943302D01*
X112864794Y-83947219D01*
X112920830Y-84180619D01*
X113014222Y-84406089D01*
X113141737Y-84614173D01*
X113141738Y-84614176D01*
X113141741Y-84614179D01*
X113300241Y-84799759D01*
X113409965Y-84893472D01*
X113485823Y-84958261D01*
X113485826Y-84958262D01*
X113693910Y-85085777D01*
X113919381Y-85179169D01*
X113919378Y-85179169D01*
X113919384Y-85179170D01*
X113919388Y-85179172D01*
X114156698Y-85236146D01*
X114400000Y-85255294D01*
X114643302Y-85236146D01*
X114880612Y-85179172D01*
X115106089Y-85085777D01*
X115314179Y-84958259D01*
X115390035Y-84893472D01*
X115464106Y-84830210D01*
X115527867Y-84801639D01*
X115544637Y-84800500D01*
X117002655Y-84800500D01*
X117069694Y-84820185D01*
X117115449Y-84872989D01*
X117125393Y-84942147D01*
X117102972Y-84997386D01*
X117087715Y-85018384D01*
X117046385Y-85099500D01*
X116994782Y-85200775D01*
X116994780Y-85200780D01*
X116994780Y-85200781D01*
X116983289Y-85236146D01*
X116983288Y-85236147D01*
X116931523Y-85395461D01*
X116931522Y-85395465D01*
X116923399Y-85446759D01*
X116923399Y-85446760D01*
X116902493Y-85578755D01*
X116899500Y-85597649D01*
X116899500Y-87609952D01*
X116879815Y-87676991D01*
X116863181Y-87697633D01*
X116125230Y-88435583D01*
X116063907Y-88469068D01*
X115994215Y-88464084D01*
X115938282Y-88422212D01*
X115916976Y-88376853D01*
X115879172Y-88219388D01*
X115870934Y-88199500D01*
X115785777Y-87993910D01*
X115658262Y-87785826D01*
X115658261Y-87785823D01*
X115582939Y-87697633D01*
X115499759Y-87600241D01*
X115377063Y-87495449D01*
X115314176Y-87441738D01*
X115314173Y-87441737D01*
X115106089Y-87314222D01*
X114880618Y-87220830D01*
X114880621Y-87220830D01*
X114774992Y-87195470D01*
X114643302Y-87163854D01*
X114643300Y-87163853D01*
X114643297Y-87163853D01*
X114400000Y-87144706D01*
X114156702Y-87163853D01*
X114156698Y-87163854D01*
X114065180Y-87185826D01*
X113919380Y-87220830D01*
X113693918Y-87314219D01*
X113693906Y-87314225D01*
X113685519Y-87319365D01*
X113618073Y-87337606D01*
X113551471Y-87316488D01*
X113515007Y-87278426D01*
X113458259Y-87185821D01*
X113439497Y-87163854D01*
X113423144Y-87144706D01*
X113299759Y-87000241D01*
X113177063Y-86895449D01*
X113114176Y-86841738D01*
X113114173Y-86841737D01*
X112906089Y-86714222D01*
X112680618Y-86620830D01*
X112680621Y-86620830D01*
X112574992Y-86595470D01*
X112443302Y-86563854D01*
X112443300Y-86563853D01*
X112443297Y-86563853D01*
X112200000Y-86544706D01*
X111956702Y-86563853D01*
X111719380Y-86620830D01*
X111493910Y-86714222D01*
X111285826Y-86841737D01*
X111285823Y-86841738D01*
X111100241Y-87000241D01*
X110941738Y-87185823D01*
X110941737Y-87185826D01*
X110814222Y-87393910D01*
X110720830Y-87619380D01*
X110663853Y-87856702D01*
X110644706Y-88100000D01*
X110663853Y-88343297D01*
X110663853Y-88343300D01*
X110663854Y-88343302D01*
X110704487Y-88512550D01*
X110720830Y-88580619D01*
X110814222Y-88806089D01*
X110941737Y-89014173D01*
X110941738Y-89014175D01*
X110941739Y-89014177D01*
X110941741Y-89014179D01*
X111069791Y-89164106D01*
X111098361Y-89227865D01*
X111099500Y-89244636D01*
X111099500Y-89292796D01*
X111079815Y-89359835D01*
X111063181Y-89380477D01*
X110012181Y-90431477D01*
X109950858Y-90464962D01*
X109881166Y-90459978D01*
X109825233Y-90418106D01*
X109800816Y-90352642D01*
X109800500Y-90343796D01*
X109800500Y-89175043D01*
X109800499Y-89175039D01*
X109785369Y-89040750D01*
X109785368Y-89040745D01*
X109725788Y-88870476D01*
X109629815Y-88717737D01*
X109555643Y-88643565D01*
X109522158Y-88582242D01*
X109527142Y-88512550D01*
X109535937Y-88493884D01*
X109636393Y-88319888D01*
X109729508Y-88082637D01*
X109786222Y-87834157D01*
X109798000Y-87676991D01*
X109805268Y-87580004D01*
X109805268Y-87579995D01*
X109786222Y-87325845D01*
X109784086Y-87316488D01*
X109729508Y-87077363D01*
X109636393Y-86840112D01*
X109508959Y-86619388D01*
X109350050Y-86420123D01*
X109329330Y-86400898D01*
X109293576Y-86340870D01*
X109295951Y-86271041D01*
X109329331Y-86219101D01*
X109350050Y-86199877D01*
X109508959Y-86000612D01*
X109636393Y-85779888D01*
X109729508Y-85542637D01*
X109786222Y-85294157D01*
X109805268Y-85040000D01*
X109799142Y-84958259D01*
X109789547Y-84830210D01*
X109786222Y-84785843D01*
X109729508Y-84537363D01*
X109636393Y-84300112D01*
X109508959Y-84079388D01*
X109350050Y-83880123D01*
X109163217Y-83706768D01*
X108952634Y-83563195D01*
X108952630Y-83563193D01*
X108952627Y-83563191D01*
X108952626Y-83563190D01*
X108723006Y-83452612D01*
X108723008Y-83452612D01*
X108479466Y-83377489D01*
X108479462Y-83377488D01*
X108479458Y-83377487D01*
X108358231Y-83359214D01*
X108227440Y-83339500D01*
X108227435Y-83339500D01*
X107972565Y-83339500D01*
X107972559Y-83339500D01*
X107815609Y-83363157D01*
X107720542Y-83377487D01*
X107720539Y-83377488D01*
X107720533Y-83377489D01*
X107476992Y-83452612D01*
X107247373Y-83563190D01*
X107247365Y-83563195D01*
X107094351Y-83667518D01*
X107027872Y-83689018D01*
X106960322Y-83671164D01*
X106913148Y-83619623D01*
X106900500Y-83565064D01*
X106900500Y-81434935D01*
X106920185Y-81367896D01*
X106972989Y-81322141D01*
X107042147Y-81312197D01*
X107094349Y-81332479D01*
X107247366Y-81436805D01*
X107247371Y-81436807D01*
X107247372Y-81436808D01*
X107247373Y-81436809D01*
X107369328Y-81495538D01*
X107476992Y-81547387D01*
X107476993Y-81547387D01*
X107476996Y-81547389D01*
X107720542Y-81622513D01*
X107972565Y-81660500D01*
X108227435Y-81660500D01*
X108479458Y-81622513D01*
X108723004Y-81547389D01*
X108952634Y-81436805D01*
X109163217Y-81293232D01*
X109350050Y-81119877D01*
X109360169Y-81107187D01*
X109417358Y-81067047D01*
X109457117Y-81060500D01*
X110642483Y-81060500D01*
X110709522Y-81080185D01*
G37*
%TD.AperFunction*%
%TA.AperFunction,Conductor*%
G36*
X112262705Y-49020185D02*
G01*
X112308460Y-49072989D01*
X112318404Y-49142147D01*
X112289379Y-49205703D01*
X112265521Y-49226950D01*
X112187329Y-49280261D01*
X112111782Y-49331768D01*
X111924952Y-49505121D01*
X111924950Y-49505123D01*
X111766041Y-49704388D01*
X111638608Y-49925109D01*
X111545492Y-50162362D01*
X111545490Y-50162369D01*
X111488777Y-50410845D01*
X111469732Y-50664995D01*
X111469732Y-50665004D01*
X111488777Y-50919154D01*
X111545325Y-51166909D01*
X111545492Y-51167637D01*
X111638607Y-51404888D01*
X111766041Y-51625612D01*
X111847447Y-51727691D01*
X111873855Y-51792376D01*
X111874500Y-51805003D01*
X111874500Y-51877352D01*
X111878809Y-51904555D01*
X111906522Y-52079531D01*
X111906523Y-52079536D01*
X111926755Y-52141805D01*
X111926756Y-52141805D01*
X111969781Y-52274223D01*
X112014398Y-52361787D01*
X112062713Y-52456611D01*
X112183034Y-52622219D01*
X113352781Y-53791966D01*
X113518389Y-53912287D01*
X113607520Y-53957701D01*
X113700780Y-54005220D01*
X113700786Y-54005222D01*
X113751147Y-54021584D01*
X113798121Y-54036847D01*
X113798122Y-54036848D01*
X113822458Y-54044755D01*
X113895465Y-54068477D01*
X114097648Y-54100500D01*
X114302352Y-54100500D01*
X119209953Y-54100500D01*
X119276992Y-54120185D01*
X119297634Y-54136819D01*
X119492781Y-54331966D01*
X119658389Y-54452287D01*
X119699830Y-54473402D01*
X119840780Y-54545220D01*
X119840786Y-54545222D01*
X119886254Y-54559995D01*
X119938121Y-54576847D01*
X119938122Y-54576848D01*
X119962458Y-54584755D01*
X120035465Y-54608477D01*
X120237648Y-54640500D01*
X120334388Y-54640500D01*
X120401427Y-54660185D01*
X120447182Y-54712989D01*
X120454160Y-54732401D01*
X120500883Y-54906772D01*
X120500886Y-54906779D01*
X120590700Y-55123610D01*
X120590705Y-55123620D01*
X120708058Y-55326882D01*
X120850940Y-55513090D01*
X120850946Y-55513097D01*
X120882169Y-55544320D01*
X120915654Y-55605643D01*
X120916961Y-55612602D01*
X120930926Y-55700767D01*
X120931523Y-55704535D01*
X120942755Y-55739103D01*
X120994780Y-55899219D01*
X121015622Y-55940123D01*
X121087713Y-56081611D01*
X121208034Y-56247219D01*
X123239918Y-58279103D01*
X125263181Y-60302365D01*
X125296666Y-60363688D01*
X125299500Y-60390046D01*
X125299500Y-85809953D01*
X125279815Y-85876992D01*
X125263181Y-85897634D01*
X122997634Y-88163181D01*
X122936311Y-88196666D01*
X122909953Y-88199500D01*
X121447161Y-88199500D01*
X121380122Y-88179815D01*
X121366919Y-88169577D01*
X121366850Y-88169664D01*
X121363230Y-88166778D01*
X121363221Y-88166772D01*
X121363217Y-88166768D01*
X121152634Y-88023195D01*
X121152630Y-88023193D01*
X121152627Y-88023191D01*
X121152626Y-88023190D01*
X120926526Y-87914307D01*
X120923006Y-87912612D01*
X120923008Y-87912612D01*
X120679466Y-87837489D01*
X120679462Y-87837488D01*
X120679458Y-87837487D01*
X120558231Y-87819214D01*
X120427440Y-87799500D01*
X120427435Y-87799500D01*
X120172565Y-87799500D01*
X120172559Y-87799500D01*
X120015609Y-87823157D01*
X119920542Y-87837487D01*
X119920539Y-87837488D01*
X119920533Y-87837489D01*
X119676991Y-87912612D01*
X119672675Y-87914307D01*
X119672161Y-87912997D01*
X119609342Y-87923332D01*
X119545212Y-87895600D01*
X119506255Y-87837599D01*
X119500500Y-87800262D01*
X119500500Y-86290046D01*
X119520185Y-86223007D01*
X119536810Y-86202374D01*
X119666046Y-86073137D01*
X119727365Y-86039655D01*
X119790273Y-86042329D01*
X119920542Y-86082513D01*
X120172565Y-86120500D01*
X120427435Y-86120500D01*
X120679458Y-86082513D01*
X120923004Y-86007389D01*
X121152634Y-85896805D01*
X121363217Y-85753232D01*
X121374147Y-85743089D01*
X121436678Y-85711919D01*
X121439039Y-85711521D01*
X121544880Y-85694757D01*
X121584530Y-85688478D01*
X121584530Y-85688477D01*
X121584535Y-85688477D01*
X121681876Y-85656848D01*
X121779219Y-85625220D01*
X121870414Y-85578753D01*
X121961611Y-85532287D01*
X122127219Y-85411966D01*
X123591966Y-83947219D01*
X123712287Y-83781611D01*
X123798429Y-83612547D01*
X123805220Y-83599219D01*
X123852856Y-83452611D01*
X123868477Y-83404535D01*
X123900500Y-83202352D01*
X123900500Y-82997648D01*
X123900500Y-61507487D01*
X123900501Y-61507462D01*
X123900501Y-61297650D01*
X123899157Y-61289165D01*
X123868477Y-61095466D01*
X123868476Y-61095462D01*
X123868476Y-61095461D01*
X123805222Y-60900784D01*
X123805221Y-60900781D01*
X123758754Y-60809586D01*
X123712287Y-60718390D01*
X123710995Y-60716612D01*
X123698561Y-60699496D01*
X123698561Y-60699495D01*
X123591972Y-60552788D01*
X123591968Y-60552784D01*
X123591966Y-60552781D01*
X123447219Y-60408034D01*
X123447218Y-60408033D01*
X123444107Y-60404922D01*
X123444092Y-60404908D01*
X118247221Y-55208036D01*
X118247220Y-55208035D01*
X118247219Y-55208034D01*
X118081611Y-55087713D01*
X117990414Y-55041246D01*
X117899223Y-54994781D01*
X117852515Y-54979604D01*
X117801876Y-54963151D01*
X117778003Y-54955394D01*
X117704535Y-54931522D01*
X117529995Y-54903878D01*
X117502352Y-54899500D01*
X117502351Y-54899500D01*
X113390046Y-54899500D01*
X113323007Y-54879815D01*
X113302365Y-54863181D01*
X109748746Y-51309561D01*
X109715261Y-51248238D01*
X109720245Y-51178546D01*
X109720976Y-51176633D01*
X109724508Y-51167637D01*
X109781222Y-50919157D01*
X109800268Y-50665000D01*
X109799210Y-50650886D01*
X109781222Y-50410845D01*
X109724509Y-50162369D01*
X109724508Y-50162363D01*
X109631393Y-49925112D01*
X109503959Y-49704388D01*
X109345050Y-49505123D01*
X109158217Y-49331768D01*
X109004480Y-49226952D01*
X108960180Y-49172925D01*
X108952121Y-49103521D01*
X108982864Y-49040779D01*
X109042648Y-49004617D01*
X109074334Y-49000500D01*
X112195666Y-49000500D01*
X112262705Y-49020185D01*
G37*
%TD.AperFunction*%
%TD*%
%TA.AperFunction,NonConductor*%
G36*
X107182705Y-49020185D02*
G01*
X107228460Y-49072989D01*
X107238404Y-49142147D01*
X107209379Y-49205703D01*
X107185521Y-49226950D01*
X107107329Y-49280261D01*
X107031782Y-49331768D01*
X106909341Y-49445377D01*
X106846808Y-49476545D01*
X106777352Y-49468958D01*
X106740659Y-49445377D01*
X106618217Y-49331768D01*
X106464480Y-49226952D01*
X106420180Y-49172925D01*
X106412121Y-49103521D01*
X106442864Y-49040779D01*
X106502648Y-49004617D01*
X106534334Y-49000500D01*
X107115666Y-49000500D01*
X107182705Y-49020185D01*
G37*
%TD.AperFunction*%
%TA.AperFunction,NonConductor*%
G36*
X104642705Y-49020185D02*
G01*
X104688460Y-49072989D01*
X104698404Y-49142147D01*
X104669379Y-49205703D01*
X104645521Y-49226950D01*
X104567329Y-49280261D01*
X104491782Y-49331768D01*
X104369341Y-49445377D01*
X104306808Y-49476545D01*
X104237352Y-49468958D01*
X104200659Y-49445377D01*
X104078217Y-49331768D01*
X103924480Y-49226952D01*
X103880180Y-49172925D01*
X103872121Y-49103521D01*
X103902864Y-49040779D01*
X103962648Y-49004617D01*
X103994334Y-49000500D01*
X104575666Y-49000500D01*
X104642705Y-49020185D01*
G37*
%TD.AperFunction*%
%TA.AperFunction,NonConductor*%
G36*
X102102705Y-49020185D02*
G01*
X102148460Y-49072989D01*
X102158404Y-49142147D01*
X102129379Y-49205703D01*
X102105521Y-49226950D01*
X102027329Y-49280261D01*
X101951782Y-49331768D01*
X101829341Y-49445377D01*
X101766808Y-49476545D01*
X101697352Y-49468958D01*
X101660659Y-49445377D01*
X101538217Y-49331768D01*
X101384480Y-49226952D01*
X101340180Y-49172925D01*
X101332121Y-49103521D01*
X101362864Y-49040779D01*
X101422648Y-49004617D01*
X101454334Y-49000500D01*
X102035666Y-49000500D01*
X102102705Y-49020185D01*
G37*
%TD.AperFunction*%
%TA.AperFunction,NonConductor*%
G36*
X99562705Y-49020185D02*
G01*
X99608460Y-49072989D01*
X99618404Y-49142147D01*
X99589379Y-49205703D01*
X99565521Y-49226950D01*
X99487329Y-49280261D01*
X99411782Y-49331768D01*
X99289341Y-49445377D01*
X99226808Y-49476545D01*
X99157352Y-49468958D01*
X99120659Y-49445377D01*
X98998217Y-49331768D01*
X98844480Y-49226952D01*
X98800180Y-49172925D01*
X98792121Y-49103521D01*
X98822864Y-49040779D01*
X98882648Y-49004617D01*
X98914334Y-49000500D01*
X99495666Y-49000500D01*
X99562705Y-49020185D01*
G37*
%TD.AperFunction*%
%TA.AperFunction,NonConductor*%
G36*
X97022705Y-49020185D02*
G01*
X97068460Y-49072989D01*
X97078404Y-49142147D01*
X97049379Y-49205703D01*
X97025521Y-49226950D01*
X96947329Y-49280261D01*
X96871782Y-49331768D01*
X96749341Y-49445377D01*
X96686808Y-49476545D01*
X96617352Y-49468958D01*
X96580659Y-49445377D01*
X96458217Y-49331768D01*
X96304480Y-49226952D01*
X96260180Y-49172925D01*
X96252121Y-49103521D01*
X96282864Y-49040779D01*
X96342648Y-49004617D01*
X96374334Y-49000500D01*
X96955666Y-49000500D01*
X97022705Y-49020185D01*
G37*
%TD.AperFunction*%
%TA.AperFunction,NonConductor*%
G36*
X94482705Y-49020185D02*
G01*
X94528460Y-49072989D01*
X94538404Y-49142147D01*
X94509379Y-49205703D01*
X94485521Y-49226950D01*
X94407329Y-49280261D01*
X94331782Y-49331768D01*
X94209341Y-49445377D01*
X94146808Y-49476545D01*
X94077352Y-49468958D01*
X94040659Y-49445377D01*
X93918217Y-49331768D01*
X93764480Y-49226952D01*
X93720180Y-49172925D01*
X93712121Y-49103521D01*
X93742864Y-49040779D01*
X93802648Y-49004617D01*
X93834334Y-49000500D01*
X94415666Y-49000500D01*
X94482705Y-49020185D01*
G37*
%TD.AperFunction*%
%TA.AperFunction,NonConductor*%
G36*
X106817569Y-51912139D02*
G01*
X106871900Y-51956070D01*
X106887855Y-51988298D01*
X106889777Y-51994213D01*
X106890416Y-51995466D01*
X106890425Y-51995504D01*
X106890433Y-51995500D01*
X106982713Y-52176611D01*
X107103034Y-52342219D01*
X107103036Y-52342221D01*
X107527460Y-52766645D01*
X107560945Y-52827968D01*
X107555961Y-52897660D01*
X107514089Y-52953593D01*
X107481108Y-52970384D01*
X107481317Y-52970915D01*
X107476995Y-52972611D01*
X107247373Y-53083190D01*
X107247372Y-53083191D01*
X107036782Y-53226768D01*
X106849952Y-53400121D01*
X106849950Y-53400123D01*
X106691041Y-53599388D01*
X106563608Y-53820109D01*
X106470492Y-54057362D01*
X106470490Y-54057369D01*
X106413777Y-54305845D01*
X106394732Y-54559995D01*
X106394732Y-54560004D01*
X106413777Y-54814154D01*
X106465609Y-55041246D01*
X106470492Y-55062637D01*
X106563607Y-55299888D01*
X106691041Y-55520612D01*
X106764401Y-55612602D01*
X106849954Y-55719882D01*
X106870669Y-55739103D01*
X106906422Y-55799132D01*
X106904046Y-55868961D01*
X106870669Y-55920897D01*
X106849954Y-55940117D01*
X106691041Y-56139388D01*
X106563608Y-56360109D01*
X106470492Y-56597362D01*
X106470489Y-56597371D01*
X106413777Y-56845844D01*
X106413776Y-56845855D01*
X106411101Y-56881551D01*
X106386461Y-56946932D01*
X106330385Y-56988613D01*
X106260677Y-56993360D01*
X106239996Y-56986845D01*
X106080623Y-56920831D01*
X106080621Y-56920830D01*
X105917014Y-56881551D01*
X105843302Y-56863854D01*
X105843300Y-56863853D01*
X105843297Y-56863853D01*
X105600000Y-56844706D01*
X105356702Y-56863853D01*
X105119378Y-56920830D01*
X105119376Y-56920831D01*
X104971952Y-56981896D01*
X104902483Y-56989365D01*
X104840004Y-56958089D01*
X104804352Y-56898000D01*
X104800500Y-56867335D01*
X104800500Y-54207204D01*
X104820185Y-54140165D01*
X104836819Y-54119523D01*
X105556221Y-53400121D01*
X106394414Y-52561928D01*
X106496232Y-52421788D01*
X106574873Y-52267446D01*
X106628402Y-52102701D01*
X106642847Y-52011495D01*
X106672774Y-51948365D01*
X106680965Y-51940009D01*
X106685583Y-51935724D01*
X106748112Y-51904555D01*
X106817569Y-51912139D01*
G37*
%TD.AperFunction*%
%TA.AperFunction,NonConductor*%
G36*
X94597564Y-53771014D02*
G01*
X94643893Y-53800235D01*
X95563181Y-54719523D01*
X95596666Y-54780846D01*
X95599500Y-54807204D01*
X95599500Y-62043796D01*
X95579815Y-62110835D01*
X95527011Y-62156590D01*
X95457853Y-62166534D01*
X95394297Y-62137509D01*
X95387819Y-62131477D01*
X94616930Y-61360588D01*
X94616928Y-61360586D01*
X94476788Y-61258768D01*
X94427130Y-61233466D01*
X94322445Y-61180126D01*
X94243403Y-61154443D01*
X94185728Y-61115005D01*
X94184776Y-61113826D01*
X94170130Y-61095461D01*
X94110050Y-61020123D01*
X94089330Y-61000898D01*
X94053576Y-60940870D01*
X94055951Y-60871041D01*
X94089331Y-60819101D01*
X94110050Y-60799877D01*
X94268959Y-60600612D01*
X94396393Y-60379888D01*
X94489508Y-60142637D01*
X94546222Y-59894157D01*
X94554384Y-59785232D01*
X94565268Y-59640004D01*
X94565268Y-59639995D01*
X94546222Y-59385845D01*
X94526807Y-59300784D01*
X94489508Y-59137363D01*
X94396393Y-58900112D01*
X94268959Y-58679388D01*
X94110050Y-58480123D01*
X94089330Y-58460898D01*
X94053576Y-58400870D01*
X94055951Y-58331041D01*
X94089331Y-58279101D01*
X94110050Y-58259877D01*
X94268959Y-58060612D01*
X94396393Y-57839888D01*
X94489508Y-57602637D01*
X94546222Y-57354157D01*
X94565268Y-57100000D01*
X94556788Y-56986845D01*
X94551663Y-56918459D01*
X94546222Y-56845843D01*
X94489508Y-56597363D01*
X94396393Y-56360112D01*
X94268959Y-56139388D01*
X94110050Y-55940123D01*
X94089330Y-55920898D01*
X94053576Y-55860870D01*
X94055951Y-55791041D01*
X94089331Y-55739101D01*
X94110050Y-55719877D01*
X94268959Y-55520612D01*
X94396393Y-55299888D01*
X94489508Y-55062637D01*
X94546222Y-54814157D01*
X94557760Y-54660185D01*
X94565268Y-54560004D01*
X94565268Y-54559995D01*
X94546222Y-54305845D01*
X94503846Y-54120185D01*
X94489508Y-54057363D01*
X94440783Y-53933216D01*
X94434615Y-53863622D01*
X94467052Y-53801739D01*
X94527797Y-53767216D01*
X94597564Y-53771014D01*
G37*
%TD.AperFunction*%
%TA.AperFunction,NonConductor*%
G36*
X100371953Y-59818103D02*
G01*
X100519380Y-59879169D01*
X100519381Y-59879169D01*
X100519388Y-59879172D01*
X100756698Y-59936146D01*
X101000000Y-59955294D01*
X101243302Y-59936146D01*
X101346556Y-59911356D01*
X101416334Y-59914846D01*
X101473152Y-59955509D01*
X101498966Y-60020435D01*
X101499500Y-60031930D01*
X101499500Y-62343796D01*
X101479815Y-62410835D01*
X101427011Y-62456590D01*
X101357853Y-62466534D01*
X101294297Y-62437509D01*
X101287819Y-62431477D01*
X100236819Y-61380477D01*
X100203334Y-61319154D01*
X100200500Y-61292796D01*
X100200500Y-59932664D01*
X100220185Y-59865625D01*
X100272989Y-59819870D01*
X100342147Y-59809926D01*
X100371953Y-59818103D01*
G37*
%TD.AperFunction*%
%TA.AperFunction,NonConductor*%
G36*
X116876992Y-57520185D02*
G01*
X116897634Y-57536819D01*
X121263181Y-61902365D01*
X121296666Y-61963688D01*
X121299500Y-61990046D01*
X121299500Y-62496577D01*
X121279815Y-62563616D01*
X121227011Y-62609371D01*
X121157853Y-62619315D01*
X121121699Y-62608297D01*
X120923006Y-62512612D01*
X120923008Y-62512612D01*
X120679466Y-62437489D01*
X120679462Y-62437488D01*
X120679458Y-62437487D01*
X120558231Y-62419214D01*
X120427440Y-62399500D01*
X120427435Y-62399500D01*
X120172565Y-62399500D01*
X120172559Y-62399500D01*
X120015609Y-62423157D01*
X119920542Y-62437487D01*
X119920539Y-62437488D01*
X119920533Y-62437489D01*
X119676992Y-62512612D01*
X119447373Y-62623190D01*
X119447365Y-62623195D01*
X119313538Y-62714437D01*
X119247059Y-62735937D01*
X119179509Y-62718083D01*
X119156006Y-62699664D01*
X117239462Y-60783120D01*
X117205977Y-60721797D01*
X117206568Y-60666494D01*
X117236146Y-60543302D01*
X117255294Y-60300000D01*
X117236146Y-60056698D01*
X117179172Y-59819388D01*
X117165250Y-59785777D01*
X117085777Y-59593910D01*
X116958262Y-59385826D01*
X116958261Y-59385823D01*
X116922453Y-59343897D01*
X116799759Y-59200241D01*
X116639320Y-59063213D01*
X116614176Y-59041738D01*
X116614173Y-59041737D01*
X116406089Y-58914222D01*
X116180618Y-58820830D01*
X116180621Y-58820830D01*
X116074992Y-58795470D01*
X115943302Y-58763854D01*
X115943300Y-58763853D01*
X115943297Y-58763853D01*
X115700000Y-58744706D01*
X115456702Y-58763853D01*
X115456698Y-58763854D01*
X115272691Y-58808031D01*
X115219380Y-58820830D01*
X114993910Y-58914222D01*
X114785826Y-59041737D01*
X114785823Y-59041738D01*
X114600241Y-59200241D01*
X114441738Y-59385823D01*
X114441737Y-59385826D01*
X114314222Y-59593910D01*
X114220830Y-59819380D01*
X114166985Y-60043655D01*
X114132193Y-60104247D01*
X114070167Y-60136410D01*
X114000598Y-60129934D01*
X113958730Y-60102388D01*
X113936819Y-60080477D01*
X113903334Y-60019154D01*
X113900500Y-59992796D01*
X113900500Y-58213389D01*
X113873402Y-58042302D01*
X113873402Y-58042299D01*
X113819873Y-57877555D01*
X113741232Y-57723212D01*
X113722467Y-57697385D01*
X113698988Y-57631580D01*
X113714813Y-57563526D01*
X113764919Y-57514831D01*
X113822786Y-57500500D01*
X116809953Y-57500500D01*
X116876992Y-57520185D01*
G37*
%TD.AperFunction*%
%TA.AperFunction,NonConductor*%
G36*
X105005703Y-61262491D02*
G01*
X105012181Y-61268523D01*
X106480748Y-62737090D01*
X106508495Y-62779468D01*
X106563606Y-62919886D01*
X106563607Y-62919888D01*
X106691041Y-63140612D01*
X106783385Y-63256407D01*
X106849954Y-63339882D01*
X106870669Y-63359103D01*
X106906422Y-63419132D01*
X106904046Y-63488961D01*
X106870669Y-63540897D01*
X106849953Y-63560118D01*
X106849951Y-63560120D01*
X106839831Y-63572812D01*
X106782642Y-63612953D01*
X106742883Y-63619500D01*
X106227204Y-63619500D01*
X106160165Y-63599815D01*
X106139523Y-63583181D01*
X104836819Y-62280477D01*
X104803334Y-62219154D01*
X104800500Y-62192796D01*
X104800500Y-61356204D01*
X104820185Y-61289165D01*
X104872989Y-61243410D01*
X104942147Y-61233466D01*
X105005703Y-61262491D01*
G37*
%TD.AperFunction*%
%TA.AperFunction,NonConductor*%
G36*
X94919835Y-68380185D02*
G01*
X94940477Y-68396819D01*
X95031477Y-68487819D01*
X95064962Y-68549142D01*
X95059978Y-68618834D01*
X95018106Y-68674767D01*
X94952642Y-68699184D01*
X94943796Y-68699500D01*
X94217117Y-68699500D01*
X94150078Y-68679815D01*
X94120169Y-68652812D01*
X94110051Y-68640124D01*
X94110048Y-68640121D01*
X94089330Y-68620898D01*
X94053576Y-68560870D01*
X94055951Y-68491041D01*
X94089331Y-68439101D01*
X94110050Y-68419877D01*
X94120169Y-68407187D01*
X94177358Y-68367047D01*
X94217117Y-68360500D01*
X94852796Y-68360500D01*
X94919835Y-68380185D01*
G37*
%TD.AperFunction*%
%TA.AperFunction,NonConductor*%
G36*
X109463692Y-63333283D02*
G01*
X109503751Y-63360093D01*
X115331477Y-69187819D01*
X115364962Y-69249142D01*
X115359978Y-69318834D01*
X115318106Y-69374767D01*
X115252642Y-69399184D01*
X115243796Y-69399500D01*
X112786610Y-69399500D01*
X112613389Y-69399500D01*
X112527844Y-69413049D01*
X112442298Y-69426598D01*
X112277549Y-69480128D01*
X112123211Y-69558768D01*
X112043256Y-69616859D01*
X111983072Y-69660586D01*
X111983070Y-69660588D01*
X111983069Y-69660588D01*
X109885067Y-71758589D01*
X109823744Y-71792074D01*
X109754052Y-71787090D01*
X109698119Y-71745218D01*
X109681959Y-71716213D01*
X109636393Y-71600112D01*
X109508959Y-71379388D01*
X109350050Y-71180123D01*
X109329330Y-71160898D01*
X109293576Y-71100870D01*
X109295951Y-71031041D01*
X109329331Y-70979101D01*
X109350050Y-70959877D01*
X109508959Y-70760612D01*
X109636393Y-70539888D01*
X109729508Y-70302637D01*
X109786222Y-70054157D01*
X109805268Y-69800000D01*
X109786222Y-69545843D01*
X109729508Y-69297363D01*
X109636393Y-69060112D01*
X109508959Y-68839388D01*
X109350050Y-68640123D01*
X109329330Y-68620898D01*
X109293576Y-68560870D01*
X109295951Y-68491041D01*
X109329331Y-68439101D01*
X109350050Y-68419877D01*
X109508959Y-68220612D01*
X109636393Y-67999888D01*
X109729508Y-67762637D01*
X109786222Y-67514157D01*
X109805268Y-67260000D01*
X109786222Y-67005843D01*
X109729508Y-66757363D01*
X109636393Y-66520112D01*
X109508959Y-66299388D01*
X109350050Y-66100123D01*
X109329330Y-66080898D01*
X109293576Y-66020870D01*
X109295951Y-65951041D01*
X109329331Y-65899101D01*
X109350050Y-65879877D01*
X109508959Y-65680612D01*
X109636393Y-65459888D01*
X109729508Y-65222637D01*
X109786222Y-64974157D01*
X109805268Y-64720000D01*
X109786222Y-64465843D01*
X109729508Y-64217363D01*
X109636393Y-63980112D01*
X109508959Y-63759388D01*
X109350050Y-63560123D01*
X109329330Y-63540898D01*
X109293576Y-63480870D01*
X109295951Y-63411041D01*
X109329311Y-63359120D01*
X109329607Y-63358845D01*
X109331711Y-63356892D01*
X109394234Y-63325712D01*
X109463692Y-63333283D01*
G37*
%TD.AperFunction*%
%TA.AperFunction,NonConductor*%
G36*
X95659835Y-70920185D02*
G01*
X95680477Y-70936819D01*
X96141109Y-71397451D01*
X96174594Y-71458774D01*
X96169610Y-71528466D01*
X96127738Y-71584399D01*
X96082377Y-71605705D01*
X96019388Y-71620828D01*
X96019380Y-71620830D01*
X95793915Y-71714220D01*
X95614768Y-71824002D01*
X95547322Y-71842246D01*
X95480719Y-71821129D01*
X95462297Y-71805955D01*
X95156930Y-71500588D01*
X95156928Y-71500586D01*
X95016788Y-71398768D01*
X94862445Y-71320127D01*
X94697701Y-71266598D01*
X94697699Y-71266597D01*
X94697698Y-71266597D01*
X94566271Y-71245781D01*
X94526611Y-71239500D01*
X94526610Y-71239500D01*
X94217117Y-71239500D01*
X94150078Y-71219815D01*
X94120169Y-71192812D01*
X94110051Y-71180124D01*
X94110048Y-71180121D01*
X94089330Y-71160898D01*
X94053576Y-71100870D01*
X94055951Y-71031041D01*
X94089331Y-70979101D01*
X94110050Y-70959877D01*
X94120169Y-70947187D01*
X94177358Y-70907047D01*
X94217117Y-70900500D01*
X95592796Y-70900500D01*
X95659835Y-70920185D01*
G37*
%TD.AperFunction*%
%TA.AperFunction,NonConductor*%
G36*
X105299400Y-73270065D02*
G01*
X105341269Y-73297611D01*
X105463181Y-73419523D01*
X105496666Y-73480846D01*
X105499500Y-73507204D01*
X105499500Y-73734134D01*
X105479815Y-73801173D01*
X105427011Y-73846928D01*
X105365772Y-73857752D01*
X105228234Y-73846928D01*
X105200000Y-73844706D01*
X105199999Y-73844706D01*
X105163748Y-73847559D01*
X105095371Y-73833194D01*
X105045614Y-73784143D01*
X105030276Y-73715977D01*
X105039459Y-73676488D01*
X105047091Y-73658064D01*
X105079172Y-73580612D01*
X105133015Y-73356341D01*
X105167805Y-73295753D01*
X105229832Y-73263589D01*
X105299400Y-73270065D01*
G37*
%TD.AperFunction*%
%TA.AperFunction,NonConductor*%
G36*
X95773277Y-76773314D02*
G01*
X95778625Y-76776410D01*
X95793911Y-76785777D01*
X96019381Y-76879169D01*
X96019378Y-76879169D01*
X96019384Y-76879170D01*
X96019388Y-76879172D01*
X96256698Y-76936146D01*
X96500000Y-76955294D01*
X96743302Y-76936146D01*
X96980612Y-76879172D01*
X97206089Y-76785777D01*
X97210706Y-76782947D01*
X97278149Y-76764700D01*
X97344753Y-76785813D01*
X97389369Y-76839582D01*
X97399500Y-76888672D01*
X97399500Y-78443796D01*
X97379815Y-78510835D01*
X97327011Y-78556590D01*
X97257853Y-78566534D01*
X97194297Y-78537509D01*
X97187819Y-78531477D01*
X95626169Y-76969827D01*
X95592684Y-76908504D01*
X95597668Y-76838812D01*
X95639540Y-76782879D01*
X95705004Y-76758462D01*
X95773277Y-76773314D01*
G37*
%TD.AperFunction*%
%TA.AperFunction,NonConductor*%
G36*
X115559835Y-71620185D02*
G01*
X115580477Y-71636819D01*
X118634642Y-74690984D01*
X118667851Y-74751067D01*
X118670492Y-74762638D01*
X118730646Y-74915907D01*
X118763607Y-74999888D01*
X118891041Y-75220612D01*
X119020252Y-75382637D01*
X119049954Y-75419882D01*
X119070669Y-75439103D01*
X119106422Y-75499132D01*
X119104046Y-75568961D01*
X119070669Y-75620897D01*
X119049953Y-75640118D01*
X119049948Y-75640124D01*
X118982759Y-75724375D01*
X118925570Y-75764515D01*
X118924135Y-75764991D01*
X118877551Y-75780128D01*
X118723211Y-75858768D01*
X118643256Y-75916859D01*
X118583072Y-75960586D01*
X118583070Y-75960588D01*
X118583069Y-75960588D01*
X115720477Y-78823181D01*
X115659154Y-78856666D01*
X115632796Y-78859500D01*
X109457117Y-78859500D01*
X109390078Y-78839815D01*
X109360169Y-78812812D01*
X109350051Y-78800124D01*
X109350050Y-78800123D01*
X109329330Y-78780898D01*
X109293576Y-78720870D01*
X109295951Y-78651041D01*
X109329331Y-78599101D01*
X109350050Y-78579877D01*
X109508959Y-78380612D01*
X109636393Y-78159888D01*
X109729508Y-77922637D01*
X109786222Y-77674157D01*
X109805268Y-77420000D01*
X109786222Y-77165843D01*
X109729508Y-76917363D01*
X109636393Y-76680112D01*
X109508959Y-76459388D01*
X109350050Y-76260123D01*
X109329330Y-76240898D01*
X109293576Y-76180870D01*
X109295951Y-76111041D01*
X109329331Y-76059101D01*
X109350050Y-76039877D01*
X109508959Y-75840612D01*
X109636393Y-75619888D01*
X109729508Y-75382637D01*
X109786222Y-75134157D01*
X109790377Y-75078711D01*
X112549500Y-75078711D01*
X112549500Y-75321288D01*
X112581161Y-75561785D01*
X112643947Y-75796104D01*
X112712078Y-75960586D01*
X112736776Y-76020212D01*
X112858064Y-76230289D01*
X112858066Y-76230292D01*
X112858067Y-76230293D01*
X113005733Y-76422736D01*
X113005739Y-76422743D01*
X113177256Y-76594260D01*
X113177262Y-76594265D01*
X113369711Y-76741936D01*
X113579788Y-76863224D01*
X113803900Y-76956054D01*
X114038211Y-77018838D01*
X114218586Y-77042584D01*
X114278711Y-77050500D01*
X114278712Y-77050500D01*
X114521289Y-77050500D01*
X114569388Y-77044167D01*
X114761789Y-77018838D01*
X114996100Y-76956054D01*
X115220212Y-76863224D01*
X115430289Y-76741936D01*
X115622738Y-76594265D01*
X115794265Y-76422738D01*
X115941936Y-76230289D01*
X116063224Y-76020212D01*
X116156054Y-75796100D01*
X116218838Y-75561789D01*
X116250500Y-75321288D01*
X116250500Y-75078712D01*
X116218838Y-74838211D01*
X116156054Y-74603900D01*
X116063224Y-74379788D01*
X115941936Y-74169711D01*
X115794265Y-73977262D01*
X115794260Y-73977256D01*
X115622743Y-73805739D01*
X115622736Y-73805733D01*
X115430293Y-73658067D01*
X115430292Y-73658066D01*
X115430289Y-73658064D01*
X115220212Y-73536776D01*
X115208416Y-73531890D01*
X114996104Y-73443947D01*
X114761785Y-73381161D01*
X114521289Y-73349500D01*
X114521288Y-73349500D01*
X114278712Y-73349500D01*
X114278711Y-73349500D01*
X114038214Y-73381161D01*
X113803895Y-73443947D01*
X113579794Y-73536773D01*
X113579785Y-73536777D01*
X113369706Y-73658067D01*
X113177263Y-73805733D01*
X113177256Y-73805739D01*
X113005739Y-73977256D01*
X113005733Y-73977263D01*
X112858067Y-74169706D01*
X112736777Y-74379785D01*
X112736773Y-74379794D01*
X112643947Y-74603895D01*
X112581161Y-74838214D01*
X112549500Y-75078711D01*
X109790377Y-75078711D01*
X109796072Y-75002712D01*
X109820710Y-74937330D01*
X109832037Y-74924303D01*
X113119523Y-71636819D01*
X113180846Y-71603334D01*
X113207204Y-71600500D01*
X115492796Y-71600500D01*
X115559835Y-71620185D01*
G37*
%TD.AperFunction*%
%TA.AperFunction,NonConductor*%
G36*
X109227992Y-95120185D02*
G01*
X109273747Y-95172989D01*
X109283691Y-95242147D01*
X109254666Y-95305703D01*
X109248634Y-95312181D01*
X108508036Y-96052778D01*
X108508033Y-96052781D01*
X108467586Y-96108452D01*
X108412256Y-96151117D01*
X108342642Y-96157095D01*
X108280848Y-96124488D01*
X108279588Y-96123246D01*
X107468523Y-95312181D01*
X107435038Y-95250858D01*
X107440022Y-95181166D01*
X107481894Y-95125233D01*
X107547358Y-95100816D01*
X107556204Y-95100500D01*
X109160953Y-95100500D01*
X109227992Y-95120185D01*
G37*
%TD.AperFunction*%
%TA.AperFunction,NonConductor*%
G36*
X98460678Y-98531344D02*
G01*
X98502548Y-98558890D01*
X98863181Y-98919523D01*
X98896666Y-98980846D01*
X98899500Y-99007204D01*
X98899500Y-102560599D01*
X98879815Y-102627638D01*
X98827011Y-102673393D01*
X98757853Y-102683337D01*
X98702615Y-102660917D01*
X98539339Y-102542291D01*
X98539321Y-102542280D01*
X98258096Y-102387675D01*
X98258093Y-102387674D01*
X97981116Y-102278011D01*
X97959706Y-102269534D01*
X97959704Y-102269533D01*
X97959706Y-102269533D01*
X97648864Y-102189723D01*
X97648851Y-102189721D01*
X97330475Y-102149500D01*
X97330464Y-102149500D01*
X97009536Y-102149500D01*
X97009524Y-102149500D01*
X96691148Y-102189721D01*
X96691146Y-102189721D01*
X96685258Y-102191232D01*
X96670450Y-102195034D01*
X96600624Y-102192640D01*
X96543175Y-102152873D01*
X96516345Y-102088360D01*
X96528653Y-102019583D01*
X96551935Y-101987249D01*
X96959178Y-101580006D01*
X97791966Y-100747219D01*
X97912287Y-100581611D01*
X97978635Y-100451394D01*
X98005220Y-100399219D01*
X98059708Y-100231523D01*
X98068477Y-100204535D01*
X98100500Y-100002352D01*
X98100500Y-99797648D01*
X98100500Y-99080219D01*
X98118773Y-99015429D01*
X98185777Y-98906089D01*
X98208812Y-98850478D01*
X98279172Y-98680612D01*
X98294294Y-98617621D01*
X98329083Y-98557033D01*
X98391109Y-98524868D01*
X98460678Y-98531344D01*
G37*
%TD.AperFunction*%
%TA.AperFunction,NonConductor*%
G36*
X91005703Y-109645994D02*
G01*
X91040680Y-109696371D01*
X91056844Y-109739707D01*
X91121231Y-109912338D01*
X91121233Y-109912342D01*
X91254940Y-110157207D01*
X91254945Y-110157215D01*
X91343634Y-110275690D01*
X91368051Y-110341154D01*
X91353199Y-110409427D01*
X91343634Y-110424310D01*
X91254945Y-110542784D01*
X91254940Y-110542792D01*
X91121233Y-110787657D01*
X91121231Y-110787661D01*
X91040682Y-111003625D01*
X90998811Y-111059559D01*
X90933346Y-111083976D01*
X90865073Y-111069124D01*
X90815668Y-111019719D01*
X90800500Y-110960292D01*
X90800500Y-109739707D01*
X90820185Y-109672668D01*
X90872989Y-109626913D01*
X90942147Y-109616969D01*
X91005703Y-109645994D01*
G37*
%TD.AperFunction*%
%TA.AperFunction,NonConductor*%
G36*
X94592612Y-104049086D02*
G01*
X94648545Y-104090958D01*
X94672962Y-104156422D01*
X94671082Y-104188503D01*
X94634607Y-104379709D01*
X94634606Y-104379716D01*
X94614457Y-104699994D01*
X94614457Y-104700005D01*
X94634606Y-105020283D01*
X94634607Y-105020290D01*
X94694745Y-105335542D01*
X94793916Y-105640759D01*
X94793918Y-105640764D01*
X94930558Y-105931138D01*
X94930562Y-105931144D01*
X95102520Y-106202108D01*
X95102522Y-106202111D01*
X95307087Y-106449388D01*
X95541034Y-106669078D01*
X95541044Y-106669086D01*
X95800660Y-106857708D01*
X95800666Y-106857711D01*
X95800672Y-106857716D01*
X96081903Y-107012324D01*
X96380294Y-107130466D01*
X96380293Y-107130466D01*
X96691135Y-107210276D01*
X96691139Y-107210277D01*
X96757935Y-107218715D01*
X97009524Y-107250499D01*
X97009533Y-107250499D01*
X97009536Y-107250500D01*
X97009538Y-107250500D01*
X97330462Y-107250500D01*
X97330464Y-107250500D01*
X97330467Y-107250499D01*
X97330475Y-107250499D01*
X97520463Y-107226497D01*
X97648861Y-107210277D01*
X97959706Y-107130466D01*
X98258097Y-107012324D01*
X98539328Y-106857716D01*
X98564538Y-106839400D01*
X98702615Y-106739082D01*
X98768421Y-106715602D01*
X98836475Y-106731427D01*
X98885170Y-106781533D01*
X98899500Y-106839400D01*
X98899500Y-108834134D01*
X98879815Y-108901173D01*
X98827011Y-108946928D01*
X98765772Y-108957752D01*
X98600000Y-108944706D01*
X98356702Y-108963853D01*
X98119380Y-109020830D01*
X97893910Y-109114222D01*
X97685826Y-109241737D01*
X97685823Y-109241738D01*
X97500241Y-109400241D01*
X97341738Y-109585823D01*
X97341737Y-109585826D01*
X97214222Y-109793910D01*
X97120830Y-110019380D01*
X97063853Y-110256702D01*
X97044706Y-110500000D01*
X97046636Y-110524523D01*
X97032271Y-110592900D01*
X96983219Y-110642657D01*
X96932749Y-110657868D01*
X96886529Y-110661506D01*
X96856696Y-110663854D01*
X96619380Y-110720830D01*
X96393910Y-110814222D01*
X96185826Y-110941737D01*
X96185823Y-110941738D01*
X96000241Y-111100241D01*
X95841738Y-111285823D01*
X95841737Y-111285826D01*
X95714222Y-111493910D01*
X95620830Y-111719380D01*
X95563854Y-111956696D01*
X95557869Y-112032748D01*
X95532984Y-112098036D01*
X95476753Y-112139506D01*
X95424523Y-112146635D01*
X95400000Y-112144706D01*
X95156701Y-112163853D01*
X94944449Y-112214811D01*
X94874667Y-112211320D01*
X94817849Y-112170657D01*
X94792036Y-112105730D01*
X94794336Y-112067878D01*
X94818523Y-111956696D01*
X94835578Y-111878294D01*
X94855482Y-111600000D01*
X94835578Y-111321706D01*
X94833021Y-111309953D01*
X94783863Y-111083976D01*
X94776271Y-111049077D01*
X94678769Y-110787663D01*
X94642275Y-110720830D01*
X94545059Y-110542792D01*
X94545058Y-110542791D01*
X94545056Y-110542787D01*
X94456364Y-110424309D01*
X94431948Y-110358846D01*
X94446800Y-110290573D01*
X94456360Y-110275695D01*
X94545056Y-110157213D01*
X94678769Y-109912337D01*
X94776271Y-109650923D01*
X94835578Y-109378294D01*
X94855482Y-109100000D01*
X94835578Y-108821706D01*
X94830344Y-108797648D01*
X94802051Y-108667587D01*
X94776271Y-108549077D01*
X94678769Y-108287663D01*
X94545056Y-108042787D01*
X94545054Y-108042784D01*
X94377861Y-107819439D01*
X94377845Y-107819421D01*
X94236819Y-107678395D01*
X94203334Y-107617072D01*
X94200500Y-107590714D01*
X94200500Y-104390046D01*
X94220185Y-104323007D01*
X94236815Y-104302369D01*
X94461598Y-104077586D01*
X94522920Y-104044102D01*
X94592612Y-104049086D01*
G37*
%TD.AperFunction*%
%TA.AperFunction,NonConductor*%
G36*
X93823559Y-113414651D02*
G01*
X93857044Y-113475974D01*
X93859496Y-113512060D01*
X93844706Y-113700000D01*
X93855416Y-113836099D01*
X93841051Y-113904476D01*
X93791999Y-113954233D01*
X93723834Y-113969571D01*
X93667008Y-113951554D01*
X93606089Y-113914222D01*
X93380618Y-113820830D01*
X93380621Y-113820830D01*
X93336330Y-113810196D01*
X93188124Y-113774615D01*
X93127534Y-113739825D01*
X93095371Y-113677798D01*
X93101847Y-113608229D01*
X93144907Y-113553206D01*
X93190716Y-113532876D01*
X93450914Y-113476273D01*
X93450914Y-113476272D01*
X93450923Y-113476271D01*
X93692548Y-113386149D01*
X93762236Y-113381166D01*
X93823559Y-113414651D01*
G37*
%TD.AperFunction*%
M02*
