%TF.GenerationSoftware,KiCad,Pcbnew,8.0.6*%
%TF.CreationDate,2025-08-05T17:05:13-05:00*%
%TF.ProjectId,PPDuino_Nano_Procesador,50504475-696e-46f5-9f4e-616e6f5f5072,rev?*%
%TF.SameCoordinates,Original*%
%TF.FileFunction,Legend,Bot*%
%TF.FilePolarity,Positive*%
%FSLAX46Y46*%
G04 Gerber Fmt 4.6, Leading zero omitted, Abs format (unit mm)*
G04 Created by KiCad (PCBNEW 8.0.6) date 2025-08-05 17:05:13*
%MOMM*%
%LPD*%
G01*
G04 APERTURE LIST*
%ADD10C,0.240000*%
%ADD11C,0.200000*%
%ADD12C,0.140000*%
%ADD13C,0.000000*%
G04 APERTURE END LIST*
D10*
X109042856Y-104308729D02*
X109042856Y-103108729D01*
X109042856Y-103108729D02*
X108757142Y-103108729D01*
X108757142Y-103108729D02*
X108585713Y-103165872D01*
X108585713Y-103165872D02*
X108471428Y-103280158D01*
X108471428Y-103280158D02*
X108414285Y-103394444D01*
X108414285Y-103394444D02*
X108357142Y-103623015D01*
X108357142Y-103623015D02*
X108357142Y-103794444D01*
X108357142Y-103794444D02*
X108414285Y-104023015D01*
X108414285Y-104023015D02*
X108471428Y-104137301D01*
X108471428Y-104137301D02*
X108585713Y-104251587D01*
X108585713Y-104251587D02*
X108757142Y-104308729D01*
X108757142Y-104308729D02*
X109042856Y-104308729D01*
X107385713Y-104251587D02*
X107499999Y-104308729D01*
X107499999Y-104308729D02*
X107728571Y-104308729D01*
X107728571Y-104308729D02*
X107842856Y-104251587D01*
X107842856Y-104251587D02*
X107899999Y-104137301D01*
X107899999Y-104137301D02*
X107899999Y-103680158D01*
X107899999Y-103680158D02*
X107842856Y-103565872D01*
X107842856Y-103565872D02*
X107728571Y-103508729D01*
X107728571Y-103508729D02*
X107499999Y-103508729D01*
X107499999Y-103508729D02*
X107385713Y-103565872D01*
X107385713Y-103565872D02*
X107328571Y-103680158D01*
X107328571Y-103680158D02*
X107328571Y-103794444D01*
X107328571Y-103794444D02*
X107899999Y-103908729D01*
X106871428Y-104251587D02*
X106757142Y-104308729D01*
X106757142Y-104308729D02*
X106528571Y-104308729D01*
X106528571Y-104308729D02*
X106414285Y-104251587D01*
X106414285Y-104251587D02*
X106357142Y-104137301D01*
X106357142Y-104137301D02*
X106357142Y-104080158D01*
X106357142Y-104080158D02*
X106414285Y-103965872D01*
X106414285Y-103965872D02*
X106528571Y-103908729D01*
X106528571Y-103908729D02*
X106700000Y-103908729D01*
X106700000Y-103908729D02*
X106814285Y-103851587D01*
X106814285Y-103851587D02*
X106871428Y-103737301D01*
X106871428Y-103737301D02*
X106871428Y-103680158D01*
X106871428Y-103680158D02*
X106814285Y-103565872D01*
X106814285Y-103565872D02*
X106700000Y-103508729D01*
X106700000Y-103508729D02*
X106528571Y-103508729D01*
X106528571Y-103508729D02*
X106414285Y-103565872D01*
X105842856Y-104308729D02*
X105842856Y-103508729D01*
X105842856Y-103108729D02*
X105899999Y-103165872D01*
X105899999Y-103165872D02*
X105842856Y-103223015D01*
X105842856Y-103223015D02*
X105785713Y-103165872D01*
X105785713Y-103165872D02*
X105842856Y-103108729D01*
X105842856Y-103108729D02*
X105842856Y-103223015D01*
X104757142Y-103508729D02*
X104757142Y-104480158D01*
X104757142Y-104480158D02*
X104814284Y-104594444D01*
X104814284Y-104594444D02*
X104871427Y-104651587D01*
X104871427Y-104651587D02*
X104985713Y-104708729D01*
X104985713Y-104708729D02*
X105157142Y-104708729D01*
X105157142Y-104708729D02*
X105271427Y-104651587D01*
X104757142Y-104251587D02*
X104871427Y-104308729D01*
X104871427Y-104308729D02*
X105099999Y-104308729D01*
X105099999Y-104308729D02*
X105214284Y-104251587D01*
X105214284Y-104251587D02*
X105271427Y-104194444D01*
X105271427Y-104194444D02*
X105328570Y-104080158D01*
X105328570Y-104080158D02*
X105328570Y-103737301D01*
X105328570Y-103737301D02*
X105271427Y-103623015D01*
X105271427Y-103623015D02*
X105214284Y-103565872D01*
X105214284Y-103565872D02*
X105099999Y-103508729D01*
X105099999Y-103508729D02*
X104871427Y-103508729D01*
X104871427Y-103508729D02*
X104757142Y-103565872D01*
X104185713Y-103508729D02*
X104185713Y-104308729D01*
X104185713Y-103623015D02*
X104128570Y-103565872D01*
X104128570Y-103565872D02*
X104014285Y-103508729D01*
X104014285Y-103508729D02*
X103842856Y-103508729D01*
X103842856Y-103508729D02*
X103728570Y-103565872D01*
X103728570Y-103565872D02*
X103671428Y-103680158D01*
X103671428Y-103680158D02*
X103671428Y-104308729D01*
X102642856Y-104251587D02*
X102757142Y-104308729D01*
X102757142Y-104308729D02*
X102985714Y-104308729D01*
X102985714Y-104308729D02*
X103099999Y-104251587D01*
X103099999Y-104251587D02*
X103157142Y-104137301D01*
X103157142Y-104137301D02*
X103157142Y-103680158D01*
X103157142Y-103680158D02*
X103099999Y-103565872D01*
X103099999Y-103565872D02*
X102985714Y-103508729D01*
X102985714Y-103508729D02*
X102757142Y-103508729D01*
X102757142Y-103508729D02*
X102642856Y-103565872D01*
X102642856Y-103565872D02*
X102585714Y-103680158D01*
X102585714Y-103680158D02*
X102585714Y-103794444D01*
X102585714Y-103794444D02*
X103157142Y-103908729D01*
X101557143Y-104308729D02*
X101557143Y-103108729D01*
X101557143Y-104251587D02*
X101671428Y-104308729D01*
X101671428Y-104308729D02*
X101900000Y-104308729D01*
X101900000Y-104308729D02*
X102014285Y-104251587D01*
X102014285Y-104251587D02*
X102071428Y-104194444D01*
X102071428Y-104194444D02*
X102128571Y-104080158D01*
X102128571Y-104080158D02*
X102128571Y-103737301D01*
X102128571Y-103737301D02*
X102071428Y-103623015D01*
X102071428Y-103623015D02*
X102014285Y-103565872D01*
X102014285Y-103565872D02*
X101900000Y-103508729D01*
X101900000Y-103508729D02*
X101671428Y-103508729D01*
X101671428Y-103508729D02*
X101557143Y-103565872D01*
X107985714Y-106240662D02*
X107985714Y-105040662D01*
X107985714Y-105497805D02*
X107871429Y-105440662D01*
X107871429Y-105440662D02*
X107642857Y-105440662D01*
X107642857Y-105440662D02*
X107528571Y-105497805D01*
X107528571Y-105497805D02*
X107471429Y-105554948D01*
X107471429Y-105554948D02*
X107414286Y-105669234D01*
X107414286Y-105669234D02*
X107414286Y-106012091D01*
X107414286Y-106012091D02*
X107471429Y-106126377D01*
X107471429Y-106126377D02*
X107528571Y-106183520D01*
X107528571Y-106183520D02*
X107642857Y-106240662D01*
X107642857Y-106240662D02*
X107871429Y-106240662D01*
X107871429Y-106240662D02*
X107985714Y-106183520D01*
X107014286Y-105440662D02*
X106728572Y-106240662D01*
X106442857Y-105440662D02*
X106728572Y-106240662D01*
X106728572Y-106240662D02*
X106842857Y-106526377D01*
X106842857Y-106526377D02*
X106900000Y-106583520D01*
X106900000Y-106583520D02*
X107014286Y-106640662D01*
X104842857Y-105040662D02*
X104614285Y-105040662D01*
X104614285Y-105040662D02*
X104500000Y-105097805D01*
X104500000Y-105097805D02*
X104385714Y-105212091D01*
X104385714Y-105212091D02*
X104328571Y-105440662D01*
X104328571Y-105440662D02*
X104328571Y-105840662D01*
X104328571Y-105840662D02*
X104385714Y-106069234D01*
X104385714Y-106069234D02*
X104500000Y-106183520D01*
X104500000Y-106183520D02*
X104614285Y-106240662D01*
X104614285Y-106240662D02*
X104842857Y-106240662D01*
X104842857Y-106240662D02*
X104957143Y-106183520D01*
X104957143Y-106183520D02*
X105071428Y-106069234D01*
X105071428Y-106069234D02*
X105128571Y-105840662D01*
X105128571Y-105840662D02*
X105128571Y-105440662D01*
X105128571Y-105440662D02*
X105071428Y-105212091D01*
X105071428Y-105212091D02*
X104957143Y-105097805D01*
X104957143Y-105097805D02*
X104842857Y-105040662D01*
X103814285Y-106240662D02*
X103814285Y-105040662D01*
X103814285Y-105040662D02*
X103528571Y-105040662D01*
X103528571Y-105040662D02*
X103357142Y-105097805D01*
X103357142Y-105097805D02*
X103242857Y-105212091D01*
X103242857Y-105212091D02*
X103185714Y-105326377D01*
X103185714Y-105326377D02*
X103128571Y-105554948D01*
X103128571Y-105554948D02*
X103128571Y-105726377D01*
X103128571Y-105726377D02*
X103185714Y-105954948D01*
X103185714Y-105954948D02*
X103242857Y-106069234D01*
X103242857Y-106069234D02*
X103357142Y-106183520D01*
X103357142Y-106183520D02*
X103528571Y-106240662D01*
X103528571Y-106240662D02*
X103814285Y-106240662D01*
X102614285Y-106240662D02*
X102614285Y-105040662D01*
D11*
X127630326Y-56786266D02*
X126868422Y-56786266D01*
X125677945Y-56262457D02*
X125630326Y-56214838D01*
X125630326Y-56214838D02*
X125535088Y-56167219D01*
X125535088Y-56167219D02*
X125296993Y-56167219D01*
X125296993Y-56167219D02*
X125201755Y-56214838D01*
X125201755Y-56214838D02*
X125154136Y-56262457D01*
X125154136Y-56262457D02*
X125106517Y-56357695D01*
X125106517Y-56357695D02*
X125106517Y-56452933D01*
X125106517Y-56452933D02*
X125154136Y-56595790D01*
X125154136Y-56595790D02*
X125725564Y-57167219D01*
X125725564Y-57167219D02*
X125106517Y-57167219D01*
X124249374Y-56500552D02*
X124249374Y-57167219D01*
X124487469Y-56119600D02*
X124725564Y-56833885D01*
X124725564Y-56833885D02*
X124106517Y-56833885D01*
X123868421Y-56167219D02*
X123535088Y-57167219D01*
X123535088Y-57167219D02*
X123201755Y-56167219D01*
X122106516Y-56786266D02*
X121344612Y-56786266D01*
X121725564Y-57167219D02*
X121725564Y-56405314D01*
D12*
X119022720Y-63306390D02*
X119070339Y-63392105D01*
X119070339Y-63392105D02*
X119070339Y-63534962D01*
X119070339Y-63534962D02*
X119022720Y-63592105D01*
X119022720Y-63592105D02*
X118975100Y-63620676D01*
X118975100Y-63620676D02*
X118879862Y-63649247D01*
X118879862Y-63649247D02*
X118784624Y-63649247D01*
X118784624Y-63649247D02*
X118689386Y-63620676D01*
X118689386Y-63620676D02*
X118641767Y-63592105D01*
X118641767Y-63592105D02*
X118594148Y-63534962D01*
X118594148Y-63534962D02*
X118546529Y-63420676D01*
X118546529Y-63420676D02*
X118498910Y-63363533D01*
X118498910Y-63363533D02*
X118451291Y-63334962D01*
X118451291Y-63334962D02*
X118356053Y-63306390D01*
X118356053Y-63306390D02*
X118260815Y-63306390D01*
X118260815Y-63306390D02*
X118165577Y-63334962D01*
X118165577Y-63334962D02*
X118117958Y-63363533D01*
X118117958Y-63363533D02*
X118070339Y-63420676D01*
X118070339Y-63420676D02*
X118070339Y-63563533D01*
X118070339Y-63563533D02*
X118117958Y-63649247D01*
X118975100Y-64249248D02*
X119022720Y-64220676D01*
X119022720Y-64220676D02*
X119070339Y-64134962D01*
X119070339Y-64134962D02*
X119070339Y-64077819D01*
X119070339Y-64077819D02*
X119022720Y-63992105D01*
X119022720Y-63992105D02*
X118927481Y-63934962D01*
X118927481Y-63934962D02*
X118832243Y-63906391D01*
X118832243Y-63906391D02*
X118641767Y-63877819D01*
X118641767Y-63877819D02*
X118498910Y-63877819D01*
X118498910Y-63877819D02*
X118308434Y-63906391D01*
X118308434Y-63906391D02*
X118213196Y-63934962D01*
X118213196Y-63934962D02*
X118117958Y-63992105D01*
X118117958Y-63992105D02*
X118070339Y-64077819D01*
X118070339Y-64077819D02*
X118070339Y-64134962D01*
X118070339Y-64134962D02*
X118117958Y-64220676D01*
X118117958Y-64220676D02*
X118165577Y-64249248D01*
X119070339Y-64506391D02*
X118070339Y-64506391D01*
X119070339Y-64849248D02*
X118498910Y-64592105D01*
X118070339Y-64849248D02*
X118641767Y-64506391D01*
X119070339Y-65563534D02*
X118070339Y-65563534D01*
X118070339Y-65563534D02*
X118784624Y-65763534D01*
X118784624Y-65763534D02*
X118070339Y-65963534D01*
X118070339Y-65963534D02*
X119070339Y-65963534D01*
X119070339Y-66249248D02*
X118070339Y-66249248D01*
X119022720Y-66506390D02*
X119070339Y-66592105D01*
X119070339Y-66592105D02*
X119070339Y-66734962D01*
X119070339Y-66734962D02*
X119022720Y-66792105D01*
X119022720Y-66792105D02*
X118975100Y-66820676D01*
X118975100Y-66820676D02*
X118879862Y-66849247D01*
X118879862Y-66849247D02*
X118784624Y-66849247D01*
X118784624Y-66849247D02*
X118689386Y-66820676D01*
X118689386Y-66820676D02*
X118641767Y-66792105D01*
X118641767Y-66792105D02*
X118594148Y-66734962D01*
X118594148Y-66734962D02*
X118546529Y-66620676D01*
X118546529Y-66620676D02*
X118498910Y-66563533D01*
X118498910Y-66563533D02*
X118451291Y-66534962D01*
X118451291Y-66534962D02*
X118356053Y-66506390D01*
X118356053Y-66506390D02*
X118260815Y-66506390D01*
X118260815Y-66506390D02*
X118165577Y-66534962D01*
X118165577Y-66534962D02*
X118117958Y-66563533D01*
X118117958Y-66563533D02*
X118070339Y-66620676D01*
X118070339Y-66620676D02*
X118070339Y-66763533D01*
X118070339Y-66763533D02*
X118117958Y-66849247D01*
X118070339Y-67220676D02*
X118070339Y-67334962D01*
X118070339Y-67334962D02*
X118117958Y-67392105D01*
X118117958Y-67392105D02*
X118213196Y-67449248D01*
X118213196Y-67449248D02*
X118403672Y-67477819D01*
X118403672Y-67477819D02*
X118737005Y-67477819D01*
X118737005Y-67477819D02*
X118927481Y-67449248D01*
X118927481Y-67449248D02*
X119022720Y-67392105D01*
X119022720Y-67392105D02*
X119070339Y-67334962D01*
X119070339Y-67334962D02*
X119070339Y-67220676D01*
X119070339Y-67220676D02*
X119022720Y-67163534D01*
X119022720Y-67163534D02*
X118927481Y-67106391D01*
X118927481Y-67106391D02*
X118737005Y-67077819D01*
X118737005Y-67077819D02*
X118403672Y-67077819D01*
X118403672Y-67077819D02*
X118213196Y-67106391D01*
X118213196Y-67106391D02*
X118117958Y-67163534D01*
X118117958Y-67163534D02*
X118070339Y-67220676D01*
X119070339Y-68192105D02*
X118070339Y-68192105D01*
X118070339Y-68192105D02*
X118784624Y-68392105D01*
X118784624Y-68392105D02*
X118070339Y-68592105D01*
X118070339Y-68592105D02*
X119070339Y-68592105D01*
X118070339Y-68992104D02*
X118070339Y-69106390D01*
X118070339Y-69106390D02*
X118117958Y-69163533D01*
X118117958Y-69163533D02*
X118213196Y-69220676D01*
X118213196Y-69220676D02*
X118403672Y-69249247D01*
X118403672Y-69249247D02*
X118737005Y-69249247D01*
X118737005Y-69249247D02*
X118927481Y-69220676D01*
X118927481Y-69220676D02*
X119022720Y-69163533D01*
X119022720Y-69163533D02*
X119070339Y-69106390D01*
X119070339Y-69106390D02*
X119070339Y-68992104D01*
X119070339Y-68992104D02*
X119022720Y-68934962D01*
X119022720Y-68934962D02*
X118927481Y-68877819D01*
X118927481Y-68877819D02*
X118737005Y-68849247D01*
X118737005Y-68849247D02*
X118403672Y-68849247D01*
X118403672Y-68849247D02*
X118213196Y-68877819D01*
X118213196Y-68877819D02*
X118117958Y-68934962D01*
X118117958Y-68934962D02*
X118070339Y-68992104D01*
X119022720Y-69477818D02*
X119070339Y-69563533D01*
X119070339Y-69563533D02*
X119070339Y-69706390D01*
X119070339Y-69706390D02*
X119022720Y-69763533D01*
X119022720Y-69763533D02*
X118975100Y-69792104D01*
X118975100Y-69792104D02*
X118879862Y-69820675D01*
X118879862Y-69820675D02*
X118784624Y-69820675D01*
X118784624Y-69820675D02*
X118689386Y-69792104D01*
X118689386Y-69792104D02*
X118641767Y-69763533D01*
X118641767Y-69763533D02*
X118594148Y-69706390D01*
X118594148Y-69706390D02*
X118546529Y-69592104D01*
X118546529Y-69592104D02*
X118498910Y-69534961D01*
X118498910Y-69534961D02*
X118451291Y-69506390D01*
X118451291Y-69506390D02*
X118356053Y-69477818D01*
X118356053Y-69477818D02*
X118260815Y-69477818D01*
X118260815Y-69477818D02*
X118165577Y-69506390D01*
X118165577Y-69506390D02*
X118117958Y-69534961D01*
X118117958Y-69534961D02*
X118070339Y-69592104D01*
X118070339Y-69592104D02*
X118070339Y-69734961D01*
X118070339Y-69734961D02*
X118117958Y-69820675D01*
X119070339Y-70077819D02*
X118070339Y-70077819D01*
X119022720Y-71233057D02*
X119070339Y-71338771D01*
X119070339Y-71338771D02*
X119070339Y-71514962D01*
X119070339Y-71514962D02*
X119022720Y-71585438D01*
X119022720Y-71585438D02*
X118975100Y-71620676D01*
X118975100Y-71620676D02*
X118879862Y-71655914D01*
X118879862Y-71655914D02*
X118784624Y-71655914D01*
X118784624Y-71655914D02*
X118689386Y-71620676D01*
X118689386Y-71620676D02*
X118641767Y-71585438D01*
X118641767Y-71585438D02*
X118594148Y-71514962D01*
X118594148Y-71514962D02*
X118546529Y-71374009D01*
X118546529Y-71374009D02*
X118498910Y-71303533D01*
X118498910Y-71303533D02*
X118451291Y-71268295D01*
X118451291Y-71268295D02*
X118356053Y-71233057D01*
X118356053Y-71233057D02*
X118260815Y-71233057D01*
X118260815Y-71233057D02*
X118165577Y-71268295D01*
X118165577Y-71268295D02*
X118117958Y-71303533D01*
X118117958Y-71303533D02*
X118070339Y-71374009D01*
X118070339Y-71374009D02*
X118070339Y-71550200D01*
X118070339Y-71550200D02*
X118117958Y-71655914D01*
X119022720Y-71937819D02*
X119070339Y-72043533D01*
X119070339Y-72043533D02*
X119070339Y-72219724D01*
X119070339Y-72219724D02*
X119022720Y-72290200D01*
X119022720Y-72290200D02*
X118975100Y-72325438D01*
X118975100Y-72325438D02*
X118879862Y-72360676D01*
X118879862Y-72360676D02*
X118784624Y-72360676D01*
X118784624Y-72360676D02*
X118689386Y-72325438D01*
X118689386Y-72325438D02*
X118641767Y-72290200D01*
X118641767Y-72290200D02*
X118594148Y-72219724D01*
X118594148Y-72219724D02*
X118546529Y-72078771D01*
X118546529Y-72078771D02*
X118498910Y-72008295D01*
X118498910Y-72008295D02*
X118451291Y-71973057D01*
X118451291Y-71973057D02*
X118356053Y-71937819D01*
X118356053Y-71937819D02*
X118260815Y-71937819D01*
X118260815Y-71937819D02*
X118165577Y-71973057D01*
X118165577Y-71973057D02*
X118117958Y-72008295D01*
X118117958Y-72008295D02*
X118070339Y-72078771D01*
X118070339Y-72078771D02*
X118070339Y-72254962D01*
X118070339Y-72254962D02*
X118117958Y-72360676D01*
X118070339Y-73699725D02*
X118070339Y-74122582D01*
X119070339Y-73911153D02*
X118070339Y-73911153D01*
X118070339Y-74298773D02*
X119070339Y-74792106D01*
X118070339Y-74792106D02*
X119070339Y-74298773D01*
X119070339Y-76624488D02*
X118594148Y-76377821D01*
X119070339Y-76201631D02*
X118070339Y-76201631D01*
X118070339Y-76201631D02*
X118070339Y-76483536D01*
X118070339Y-76483536D02*
X118117958Y-76554012D01*
X118117958Y-76554012D02*
X118165577Y-76589250D01*
X118165577Y-76589250D02*
X118260815Y-76624488D01*
X118260815Y-76624488D02*
X118403672Y-76624488D01*
X118403672Y-76624488D02*
X118498910Y-76589250D01*
X118498910Y-76589250D02*
X118546529Y-76554012D01*
X118546529Y-76554012D02*
X118594148Y-76483536D01*
X118594148Y-76483536D02*
X118594148Y-76201631D01*
X118070339Y-76871155D02*
X119070339Y-77364488D01*
X118070339Y-77364488D02*
X119070339Y-76871155D01*
X118922720Y-78525438D02*
X118970339Y-78625438D01*
X118970339Y-78625438D02*
X118970339Y-78792105D01*
X118970339Y-78792105D02*
X118922720Y-78858771D01*
X118922720Y-78858771D02*
X118875100Y-78892105D01*
X118875100Y-78892105D02*
X118779862Y-78925438D01*
X118779862Y-78925438D02*
X118684624Y-78925438D01*
X118684624Y-78925438D02*
X118589386Y-78892105D01*
X118589386Y-78892105D02*
X118541767Y-78858771D01*
X118541767Y-78858771D02*
X118494148Y-78792105D01*
X118494148Y-78792105D02*
X118446529Y-78658771D01*
X118446529Y-78658771D02*
X118398910Y-78592105D01*
X118398910Y-78592105D02*
X118351291Y-78558771D01*
X118351291Y-78558771D02*
X118256053Y-78525438D01*
X118256053Y-78525438D02*
X118160815Y-78525438D01*
X118160815Y-78525438D02*
X118065577Y-78558771D01*
X118065577Y-78558771D02*
X118017958Y-78592105D01*
X118017958Y-78592105D02*
X117970339Y-78658771D01*
X117970339Y-78658771D02*
X117970339Y-78825438D01*
X117970339Y-78825438D02*
X118017958Y-78925438D01*
X118875100Y-79625438D02*
X118922720Y-79592105D01*
X118922720Y-79592105D02*
X118970339Y-79492105D01*
X118970339Y-79492105D02*
X118970339Y-79425438D01*
X118970339Y-79425438D02*
X118922720Y-79325438D01*
X118922720Y-79325438D02*
X118827481Y-79258772D01*
X118827481Y-79258772D02*
X118732243Y-79225438D01*
X118732243Y-79225438D02*
X118541767Y-79192105D01*
X118541767Y-79192105D02*
X118398910Y-79192105D01*
X118398910Y-79192105D02*
X118208434Y-79225438D01*
X118208434Y-79225438D02*
X118113196Y-79258772D01*
X118113196Y-79258772D02*
X118017958Y-79325438D01*
X118017958Y-79325438D02*
X117970339Y-79425438D01*
X117970339Y-79425438D02*
X117970339Y-79492105D01*
X117970339Y-79492105D02*
X118017958Y-79592105D01*
X118017958Y-79592105D02*
X118065577Y-79625438D01*
X118970339Y-80258772D02*
X118970339Y-79925438D01*
X118970339Y-79925438D02*
X117970339Y-79925438D01*
X118922720Y-80992105D02*
X118970339Y-81092105D01*
X118970339Y-81092105D02*
X118970339Y-81258772D01*
X118970339Y-81258772D02*
X118922720Y-81325438D01*
X118922720Y-81325438D02*
X118875100Y-81358772D01*
X118875100Y-81358772D02*
X118779862Y-81392105D01*
X118779862Y-81392105D02*
X118684624Y-81392105D01*
X118684624Y-81392105D02*
X118589386Y-81358772D01*
X118589386Y-81358772D02*
X118541767Y-81325438D01*
X118541767Y-81325438D02*
X118494148Y-81258772D01*
X118494148Y-81258772D02*
X118446529Y-81125438D01*
X118446529Y-81125438D02*
X118398910Y-81058772D01*
X118398910Y-81058772D02*
X118351291Y-81025438D01*
X118351291Y-81025438D02*
X118256053Y-80992105D01*
X118256053Y-80992105D02*
X118160815Y-80992105D01*
X118160815Y-80992105D02*
X118065577Y-81025438D01*
X118065577Y-81025438D02*
X118017958Y-81058772D01*
X118017958Y-81058772D02*
X117970339Y-81125438D01*
X117970339Y-81125438D02*
X117970339Y-81292105D01*
X117970339Y-81292105D02*
X118017958Y-81392105D01*
X118970339Y-81692105D02*
X117970339Y-81692105D01*
X117970339Y-81692105D02*
X117970339Y-81858772D01*
X117970339Y-81858772D02*
X118017958Y-81958772D01*
X118017958Y-81958772D02*
X118113196Y-82025439D01*
X118113196Y-82025439D02*
X118208434Y-82058772D01*
X118208434Y-82058772D02*
X118398910Y-82092105D01*
X118398910Y-82092105D02*
X118541767Y-82092105D01*
X118541767Y-82092105D02*
X118732243Y-82058772D01*
X118732243Y-82058772D02*
X118827481Y-82025439D01*
X118827481Y-82025439D02*
X118922720Y-81958772D01*
X118922720Y-81958772D02*
X118970339Y-81858772D01*
X118970339Y-81858772D02*
X118970339Y-81692105D01*
X118684624Y-82358772D02*
X118684624Y-82692105D01*
X118970339Y-82292105D02*
X117970339Y-82525439D01*
X117970339Y-82525439D02*
X118970339Y-82758772D01*
X118689386Y-83458771D02*
X118689386Y-83992105D01*
X119070339Y-83725438D02*
X118308434Y-83725438D01*
X118070339Y-84658772D02*
X118070339Y-84325438D01*
X118070339Y-84325438D02*
X118546529Y-84292105D01*
X118546529Y-84292105D02*
X118498910Y-84325438D01*
X118498910Y-84325438D02*
X118451291Y-84392105D01*
X118451291Y-84392105D02*
X118451291Y-84558772D01*
X118451291Y-84558772D02*
X118498910Y-84625438D01*
X118498910Y-84625438D02*
X118546529Y-84658772D01*
X118546529Y-84658772D02*
X118641767Y-84692105D01*
X118641767Y-84692105D02*
X118879862Y-84692105D01*
X118879862Y-84692105D02*
X118975100Y-84658772D01*
X118975100Y-84658772D02*
X119022720Y-84625438D01*
X119022720Y-84625438D02*
X119070339Y-84558772D01*
X119070339Y-84558772D02*
X119070339Y-84392105D01*
X119070339Y-84392105D02*
X119022720Y-84325438D01*
X119022720Y-84325438D02*
X118975100Y-84292105D01*
X118070339Y-84892105D02*
X119070339Y-85125439D01*
X119070339Y-85125439D02*
X118070339Y-85358772D01*
X118117958Y-86492105D02*
X118070339Y-86425438D01*
X118070339Y-86425438D02*
X118070339Y-86325438D01*
X118070339Y-86325438D02*
X118117958Y-86225438D01*
X118117958Y-86225438D02*
X118213196Y-86158772D01*
X118213196Y-86158772D02*
X118308434Y-86125438D01*
X118308434Y-86125438D02*
X118498910Y-86092105D01*
X118498910Y-86092105D02*
X118641767Y-86092105D01*
X118641767Y-86092105D02*
X118832243Y-86125438D01*
X118832243Y-86125438D02*
X118927481Y-86158772D01*
X118927481Y-86158772D02*
X119022720Y-86225438D01*
X119022720Y-86225438D02*
X119070339Y-86325438D01*
X119070339Y-86325438D02*
X119070339Y-86392105D01*
X119070339Y-86392105D02*
X119022720Y-86492105D01*
X119022720Y-86492105D02*
X118975100Y-86525438D01*
X118975100Y-86525438D02*
X118641767Y-86525438D01*
X118641767Y-86525438D02*
X118641767Y-86392105D01*
X119070339Y-86825438D02*
X118070339Y-86825438D01*
X118070339Y-86825438D02*
X119070339Y-87225438D01*
X119070339Y-87225438D02*
X118070339Y-87225438D01*
X119070339Y-87558771D02*
X118070339Y-87558771D01*
X118070339Y-87558771D02*
X118070339Y-87725438D01*
X118070339Y-87725438D02*
X118117958Y-87825438D01*
X118117958Y-87825438D02*
X118213196Y-87892105D01*
X118213196Y-87892105D02*
X118308434Y-87925438D01*
X118308434Y-87925438D02*
X118498910Y-87958771D01*
X118498910Y-87958771D02*
X118641767Y-87958771D01*
X118641767Y-87958771D02*
X118832243Y-87925438D01*
X118832243Y-87925438D02*
X118927481Y-87892105D01*
X118927481Y-87892105D02*
X119022720Y-87825438D01*
X119022720Y-87825438D02*
X119070339Y-87725438D01*
X119070339Y-87725438D02*
X119070339Y-87558771D01*
X118070339Y-88692104D02*
X119070339Y-88925438D01*
X119070339Y-88925438D02*
X118070339Y-89158771D01*
X119070339Y-89392104D02*
X118070339Y-89392104D01*
X118070339Y-89392104D02*
X118070339Y-89558771D01*
X118070339Y-89558771D02*
X118117958Y-89658771D01*
X118117958Y-89658771D02*
X118213196Y-89725438D01*
X118213196Y-89725438D02*
X118308434Y-89758771D01*
X118308434Y-89758771D02*
X118498910Y-89792104D01*
X118498910Y-89792104D02*
X118641767Y-89792104D01*
X118641767Y-89792104D02*
X118832243Y-89758771D01*
X118832243Y-89758771D02*
X118927481Y-89725438D01*
X118927481Y-89725438D02*
X119022720Y-89658771D01*
X119022720Y-89658771D02*
X119070339Y-89558771D01*
X119070339Y-89558771D02*
X119070339Y-89392104D01*
X119070339Y-90092104D02*
X118070339Y-90092104D01*
X118070339Y-90092104D02*
X118070339Y-90258771D01*
X118070339Y-90258771D02*
X118117958Y-90358771D01*
X118117958Y-90358771D02*
X118213196Y-90425438D01*
X118213196Y-90425438D02*
X118308434Y-90458771D01*
X118308434Y-90458771D02*
X118498910Y-90492104D01*
X118498910Y-90492104D02*
X118641767Y-90492104D01*
X118641767Y-90492104D02*
X118832243Y-90458771D01*
X118832243Y-90458771D02*
X118927481Y-90425438D01*
X118927481Y-90425438D02*
X119022720Y-90358771D01*
X119022720Y-90358771D02*
X119070339Y-90258771D01*
X119070339Y-90258771D02*
X119070339Y-90092104D01*
X118117958Y-91692104D02*
X118070339Y-91625437D01*
X118070339Y-91625437D02*
X118070339Y-91525437D01*
X118070339Y-91525437D02*
X118117958Y-91425437D01*
X118117958Y-91425437D02*
X118213196Y-91358771D01*
X118213196Y-91358771D02*
X118308434Y-91325437D01*
X118308434Y-91325437D02*
X118498910Y-91292104D01*
X118498910Y-91292104D02*
X118641767Y-91292104D01*
X118641767Y-91292104D02*
X118832243Y-91325437D01*
X118832243Y-91325437D02*
X118927481Y-91358771D01*
X118927481Y-91358771D02*
X119022720Y-91425437D01*
X119022720Y-91425437D02*
X119070339Y-91525437D01*
X119070339Y-91525437D02*
X119070339Y-91592104D01*
X119070339Y-91592104D02*
X119022720Y-91692104D01*
X119022720Y-91692104D02*
X118975100Y-91725437D01*
X118975100Y-91725437D02*
X118641767Y-91725437D01*
X118641767Y-91725437D02*
X118641767Y-91592104D01*
X119070339Y-92025437D02*
X118070339Y-92025437D01*
X118070339Y-92025437D02*
X119070339Y-92425437D01*
X119070339Y-92425437D02*
X118070339Y-92425437D01*
X119070339Y-92758770D02*
X118070339Y-92758770D01*
X118070339Y-92758770D02*
X118070339Y-92925437D01*
X118070339Y-92925437D02*
X118117958Y-93025437D01*
X118117958Y-93025437D02*
X118213196Y-93092104D01*
X118213196Y-93092104D02*
X118308434Y-93125437D01*
X118308434Y-93125437D02*
X118498910Y-93158770D01*
X118498910Y-93158770D02*
X118641767Y-93158770D01*
X118641767Y-93158770D02*
X118832243Y-93125437D01*
X118832243Y-93125437D02*
X118927481Y-93092104D01*
X118927481Y-93092104D02*
X119022720Y-93025437D01*
X119022720Y-93025437D02*
X119070339Y-92925437D01*
X119070339Y-92925437D02*
X119070339Y-92758770D01*
X116474561Y-114217958D02*
X116541228Y-114170339D01*
X116541228Y-114170339D02*
X116641228Y-114170339D01*
X116641228Y-114170339D02*
X116741228Y-114217958D01*
X116741228Y-114217958D02*
X116807895Y-114313196D01*
X116807895Y-114313196D02*
X116841228Y-114408434D01*
X116841228Y-114408434D02*
X116874561Y-114598910D01*
X116874561Y-114598910D02*
X116874561Y-114741767D01*
X116874561Y-114741767D02*
X116841228Y-114932243D01*
X116841228Y-114932243D02*
X116807895Y-115027481D01*
X116807895Y-115027481D02*
X116741228Y-115122720D01*
X116741228Y-115122720D02*
X116641228Y-115170339D01*
X116641228Y-115170339D02*
X116574561Y-115170339D01*
X116574561Y-115170339D02*
X116474561Y-115122720D01*
X116474561Y-115122720D02*
X116441228Y-115075100D01*
X116441228Y-115075100D02*
X116441228Y-114741767D01*
X116441228Y-114741767D02*
X116574561Y-114741767D01*
X116141228Y-115170339D02*
X116141228Y-114170339D01*
X116141228Y-114170339D02*
X115741228Y-115170339D01*
X115741228Y-115170339D02*
X115741228Y-114170339D01*
X115407895Y-115170339D02*
X115407895Y-114170339D01*
X115407895Y-114170339D02*
X115241228Y-114170339D01*
X115241228Y-114170339D02*
X115141228Y-114217958D01*
X115141228Y-114217958D02*
X115074562Y-114313196D01*
X115074562Y-114313196D02*
X115041228Y-114408434D01*
X115041228Y-114408434D02*
X115007895Y-114598910D01*
X115007895Y-114598910D02*
X115007895Y-114741767D01*
X115007895Y-114741767D02*
X115041228Y-114932243D01*
X115041228Y-114932243D02*
X115074562Y-115027481D01*
X115074562Y-115027481D02*
X115141228Y-115122720D01*
X115141228Y-115122720D02*
X115241228Y-115170339D01*
X115241228Y-115170339D02*
X115407895Y-115170339D01*
X114274562Y-114170339D02*
X114041229Y-115170339D01*
X114041229Y-115170339D02*
X113807895Y-114170339D01*
X113574562Y-115170339D02*
X113574562Y-114170339D01*
X113574562Y-114170339D02*
X113407895Y-114170339D01*
X113407895Y-114170339D02*
X113307895Y-114217958D01*
X113307895Y-114217958D02*
X113241229Y-114313196D01*
X113241229Y-114313196D02*
X113207895Y-114408434D01*
X113207895Y-114408434D02*
X113174562Y-114598910D01*
X113174562Y-114598910D02*
X113174562Y-114741767D01*
X113174562Y-114741767D02*
X113207895Y-114932243D01*
X113207895Y-114932243D02*
X113241229Y-115027481D01*
X113241229Y-115027481D02*
X113307895Y-115122720D01*
X113307895Y-115122720D02*
X113407895Y-115170339D01*
X113407895Y-115170339D02*
X113574562Y-115170339D01*
X112874562Y-115170339D02*
X112874562Y-114170339D01*
X112874562Y-114170339D02*
X112707895Y-114170339D01*
X112707895Y-114170339D02*
X112607895Y-114217958D01*
X112607895Y-114217958D02*
X112541229Y-114313196D01*
X112541229Y-114313196D02*
X112507895Y-114408434D01*
X112507895Y-114408434D02*
X112474562Y-114598910D01*
X112474562Y-114598910D02*
X112474562Y-114741767D01*
X112474562Y-114741767D02*
X112507895Y-114932243D01*
X112507895Y-114932243D02*
X112541229Y-115027481D01*
X112541229Y-115027481D02*
X112607895Y-115122720D01*
X112607895Y-115122720D02*
X112707895Y-115170339D01*
X112707895Y-115170339D02*
X112874562Y-115170339D01*
X111274562Y-114217958D02*
X111341229Y-114170339D01*
X111341229Y-114170339D02*
X111441229Y-114170339D01*
X111441229Y-114170339D02*
X111541229Y-114217958D01*
X111541229Y-114217958D02*
X111607896Y-114313196D01*
X111607896Y-114313196D02*
X111641229Y-114408434D01*
X111641229Y-114408434D02*
X111674562Y-114598910D01*
X111674562Y-114598910D02*
X111674562Y-114741767D01*
X111674562Y-114741767D02*
X111641229Y-114932243D01*
X111641229Y-114932243D02*
X111607896Y-115027481D01*
X111607896Y-115027481D02*
X111541229Y-115122720D01*
X111541229Y-115122720D02*
X111441229Y-115170339D01*
X111441229Y-115170339D02*
X111374562Y-115170339D01*
X111374562Y-115170339D02*
X111274562Y-115122720D01*
X111274562Y-115122720D02*
X111241229Y-115075100D01*
X111241229Y-115075100D02*
X111241229Y-114741767D01*
X111241229Y-114741767D02*
X111374562Y-114741767D01*
X110941229Y-115170339D02*
X110941229Y-114170339D01*
X110941229Y-114170339D02*
X110541229Y-115170339D01*
X110541229Y-115170339D02*
X110541229Y-114170339D01*
X110207896Y-115170339D02*
X110207896Y-114170339D01*
X110207896Y-114170339D02*
X110041229Y-114170339D01*
X110041229Y-114170339D02*
X109941229Y-114217958D01*
X109941229Y-114217958D02*
X109874563Y-114313196D01*
X109874563Y-114313196D02*
X109841229Y-114408434D01*
X109841229Y-114408434D02*
X109807896Y-114598910D01*
X109807896Y-114598910D02*
X109807896Y-114741767D01*
X109807896Y-114741767D02*
X109841229Y-114932243D01*
X109841229Y-114932243D02*
X109874563Y-115027481D01*
X109874563Y-115027481D02*
X109941229Y-115122720D01*
X109941229Y-115122720D02*
X110041229Y-115170339D01*
X110041229Y-115170339D02*
X110207896Y-115170339D01*
X108974563Y-114789386D02*
X108441230Y-114789386D01*
X108707896Y-115170339D02*
X108707896Y-114408434D01*
X107774563Y-114170339D02*
X108107896Y-114170339D01*
X108107896Y-114170339D02*
X108141229Y-114646529D01*
X108141229Y-114646529D02*
X108107896Y-114598910D01*
X108107896Y-114598910D02*
X108041229Y-114551291D01*
X108041229Y-114551291D02*
X107874563Y-114551291D01*
X107874563Y-114551291D02*
X107807896Y-114598910D01*
X107807896Y-114598910D02*
X107774563Y-114646529D01*
X107774563Y-114646529D02*
X107741229Y-114741767D01*
X107741229Y-114741767D02*
X107741229Y-114979862D01*
X107741229Y-114979862D02*
X107774563Y-115075100D01*
X107774563Y-115075100D02*
X107807896Y-115122720D01*
X107807896Y-115122720D02*
X107874563Y-115170339D01*
X107874563Y-115170339D02*
X108041229Y-115170339D01*
X108041229Y-115170339D02*
X108107896Y-115122720D01*
X108107896Y-115122720D02*
X108141229Y-115075100D01*
X107541229Y-114170339D02*
X107307896Y-115170339D01*
X107307896Y-115170339D02*
X107074562Y-114170339D01*
D11*
X106287469Y-114881504D02*
X105835088Y-114881504D01*
X106377945Y-115167219D02*
X106061279Y-114167219D01*
X106061279Y-114167219D02*
X105744612Y-115167219D01*
X104930326Y-115167219D02*
X105473183Y-115167219D01*
X105201755Y-115167219D02*
X105201755Y-114167219D01*
X105201755Y-114167219D02*
X105292231Y-114310076D01*
X105292231Y-114310076D02*
X105382707Y-114405314D01*
X105382707Y-114405314D02*
X105473183Y-114452933D01*
X103844611Y-114881504D02*
X103392230Y-114881504D01*
X103935087Y-115167219D02*
X103618421Y-114167219D01*
X103618421Y-114167219D02*
X103301754Y-115167219D01*
X102804135Y-114167219D02*
X102713658Y-114167219D01*
X102713658Y-114167219D02*
X102623182Y-114214838D01*
X102623182Y-114214838D02*
X102577944Y-114262457D01*
X102577944Y-114262457D02*
X102532706Y-114357695D01*
X102532706Y-114357695D02*
X102487468Y-114548171D01*
X102487468Y-114548171D02*
X102487468Y-114786266D01*
X102487468Y-114786266D02*
X102532706Y-114976742D01*
X102532706Y-114976742D02*
X102577944Y-115071980D01*
X102577944Y-115071980D02*
X102623182Y-115119600D01*
X102623182Y-115119600D02*
X102713658Y-115167219D01*
X102713658Y-115167219D02*
X102804135Y-115167219D01*
X102804135Y-115167219D02*
X102894611Y-115119600D01*
X102894611Y-115119600D02*
X102939849Y-115071980D01*
X102939849Y-115071980D02*
X102985087Y-114976742D01*
X102985087Y-114976742D02*
X103030325Y-114786266D01*
X103030325Y-114786266D02*
X103030325Y-114548171D01*
X103030325Y-114548171D02*
X102985087Y-114357695D01*
X102985087Y-114357695D02*
X102939849Y-114262457D01*
X102939849Y-114262457D02*
X102894611Y-114214838D01*
X102894611Y-114214838D02*
X102804135Y-114167219D01*
X101356515Y-115167219D02*
X101356515Y-114167219D01*
X101356515Y-114167219D02*
X101130325Y-114167219D01*
X101130325Y-114167219D02*
X100994610Y-114214838D01*
X100994610Y-114214838D02*
X100904134Y-114310076D01*
X100904134Y-114310076D02*
X100858896Y-114405314D01*
X100858896Y-114405314D02*
X100813658Y-114595790D01*
X100813658Y-114595790D02*
X100813658Y-114738647D01*
X100813658Y-114738647D02*
X100858896Y-114929123D01*
X100858896Y-114929123D02*
X100904134Y-115024361D01*
X100904134Y-115024361D02*
X100994610Y-115119600D01*
X100994610Y-115119600D02*
X101130325Y-115167219D01*
X101130325Y-115167219D02*
X101356515Y-115167219D01*
X100496991Y-114167219D02*
X99908896Y-114167219D01*
X99908896Y-114167219D02*
X100225563Y-114548171D01*
X100225563Y-114548171D02*
X100089848Y-114548171D01*
X100089848Y-114548171D02*
X99999372Y-114595790D01*
X99999372Y-114595790D02*
X99954134Y-114643409D01*
X99954134Y-114643409D02*
X99908896Y-114738647D01*
X99908896Y-114738647D02*
X99908896Y-114976742D01*
X99908896Y-114976742D02*
X99954134Y-115071980D01*
X99954134Y-115071980D02*
X99999372Y-115119600D01*
X99999372Y-115119600D02*
X100089848Y-115167219D01*
X100089848Y-115167219D02*
X100361277Y-115167219D01*
X100361277Y-115167219D02*
X100451753Y-115119600D01*
X100451753Y-115119600D02*
X100496991Y-115071980D01*
X98777943Y-115167219D02*
X98777943Y-114167219D01*
X98777943Y-114167219D02*
X98551753Y-114167219D01*
X98551753Y-114167219D02*
X98416038Y-114214838D01*
X98416038Y-114214838D02*
X98325562Y-114310076D01*
X98325562Y-114310076D02*
X98280324Y-114405314D01*
X98280324Y-114405314D02*
X98235086Y-114595790D01*
X98235086Y-114595790D02*
X98235086Y-114738647D01*
X98235086Y-114738647D02*
X98280324Y-114929123D01*
X98280324Y-114929123D02*
X98325562Y-115024361D01*
X98325562Y-115024361D02*
X98416038Y-115119600D01*
X98416038Y-115119600D02*
X98551753Y-115167219D01*
X98551753Y-115167219D02*
X98777943Y-115167219D01*
X97873181Y-114262457D02*
X97827943Y-114214838D01*
X97827943Y-114214838D02*
X97737467Y-114167219D01*
X97737467Y-114167219D02*
X97511276Y-114167219D01*
X97511276Y-114167219D02*
X97420800Y-114214838D01*
X97420800Y-114214838D02*
X97375562Y-114262457D01*
X97375562Y-114262457D02*
X97330324Y-114357695D01*
X97330324Y-114357695D02*
X97330324Y-114452933D01*
X97330324Y-114452933D02*
X97375562Y-114595790D01*
X97375562Y-114595790D02*
X97918419Y-115167219D01*
X97918419Y-115167219D02*
X97330324Y-115167219D01*
X96199371Y-115167219D02*
X96199371Y-114167219D01*
X96199371Y-114167219D02*
X95973181Y-114167219D01*
X95973181Y-114167219D02*
X95837466Y-114214838D01*
X95837466Y-114214838D02*
X95746990Y-114310076D01*
X95746990Y-114310076D02*
X95701752Y-114405314D01*
X95701752Y-114405314D02*
X95656514Y-114595790D01*
X95656514Y-114595790D02*
X95656514Y-114738647D01*
X95656514Y-114738647D02*
X95701752Y-114929123D01*
X95701752Y-114929123D02*
X95746990Y-115024361D01*
X95746990Y-115024361D02*
X95837466Y-115119600D01*
X95837466Y-115119600D02*
X95973181Y-115167219D01*
X95973181Y-115167219D02*
X96199371Y-115167219D01*
X94751752Y-115167219D02*
X95294609Y-115167219D01*
X95023181Y-115167219D02*
X95023181Y-114167219D01*
X95023181Y-114167219D02*
X95113657Y-114310076D01*
X95113657Y-114310076D02*
X95204133Y-114405314D01*
X95204133Y-114405314D02*
X95294609Y-114452933D01*
X93620799Y-115167219D02*
X93620799Y-114167219D01*
X93620799Y-114167219D02*
X93394609Y-114167219D01*
X93394609Y-114167219D02*
X93258894Y-114214838D01*
X93258894Y-114214838D02*
X93168418Y-114310076D01*
X93168418Y-114310076D02*
X93123180Y-114405314D01*
X93123180Y-114405314D02*
X93077942Y-114595790D01*
X93077942Y-114595790D02*
X93077942Y-114738647D01*
X93077942Y-114738647D02*
X93123180Y-114929123D01*
X93123180Y-114929123D02*
X93168418Y-115024361D01*
X93168418Y-115024361D02*
X93258894Y-115119600D01*
X93258894Y-115119600D02*
X93394609Y-115167219D01*
X93394609Y-115167219D02*
X93620799Y-115167219D01*
X92489847Y-114167219D02*
X92399370Y-114167219D01*
X92399370Y-114167219D02*
X92308894Y-114214838D01*
X92308894Y-114214838D02*
X92263656Y-114262457D01*
X92263656Y-114262457D02*
X92218418Y-114357695D01*
X92218418Y-114357695D02*
X92173180Y-114548171D01*
X92173180Y-114548171D02*
X92173180Y-114786266D01*
X92173180Y-114786266D02*
X92218418Y-114976742D01*
X92218418Y-114976742D02*
X92263656Y-115071980D01*
X92263656Y-115071980D02*
X92308894Y-115119600D01*
X92308894Y-115119600D02*
X92399370Y-115167219D01*
X92399370Y-115167219D02*
X92489847Y-115167219D01*
X92489847Y-115167219D02*
X92580323Y-115119600D01*
X92580323Y-115119600D02*
X92625561Y-115071980D01*
X92625561Y-115071980D02*
X92670799Y-114976742D01*
X92670799Y-114976742D02*
X92716037Y-114786266D01*
X92716037Y-114786266D02*
X92716037Y-114548171D01*
X92716037Y-114548171D02*
X92670799Y-114357695D01*
X92670799Y-114357695D02*
X92625561Y-114262457D01*
X92625561Y-114262457D02*
X92580323Y-114214838D01*
X92580323Y-114214838D02*
X92489847Y-114167219D01*
D12*
X116474561Y-52217958D02*
X116541228Y-52170339D01*
X116541228Y-52170339D02*
X116641228Y-52170339D01*
X116641228Y-52170339D02*
X116741228Y-52217958D01*
X116741228Y-52217958D02*
X116807895Y-52313196D01*
X116807895Y-52313196D02*
X116841228Y-52408434D01*
X116841228Y-52408434D02*
X116874561Y-52598910D01*
X116874561Y-52598910D02*
X116874561Y-52741767D01*
X116874561Y-52741767D02*
X116841228Y-52932243D01*
X116841228Y-52932243D02*
X116807895Y-53027481D01*
X116807895Y-53027481D02*
X116741228Y-53122720D01*
X116741228Y-53122720D02*
X116641228Y-53170339D01*
X116641228Y-53170339D02*
X116574561Y-53170339D01*
X116574561Y-53170339D02*
X116474561Y-53122720D01*
X116474561Y-53122720D02*
X116441228Y-53075100D01*
X116441228Y-53075100D02*
X116441228Y-52741767D01*
X116441228Y-52741767D02*
X116574561Y-52741767D01*
X116141228Y-53170339D02*
X116141228Y-52170339D01*
X116141228Y-52170339D02*
X115741228Y-53170339D01*
X115741228Y-53170339D02*
X115741228Y-52170339D01*
X115407895Y-53170339D02*
X115407895Y-52170339D01*
X115407895Y-52170339D02*
X115241228Y-52170339D01*
X115241228Y-52170339D02*
X115141228Y-52217958D01*
X115141228Y-52217958D02*
X115074562Y-52313196D01*
X115074562Y-52313196D02*
X115041228Y-52408434D01*
X115041228Y-52408434D02*
X115007895Y-52598910D01*
X115007895Y-52598910D02*
X115007895Y-52741767D01*
X115007895Y-52741767D02*
X115041228Y-52932243D01*
X115041228Y-52932243D02*
X115074562Y-53027481D01*
X115074562Y-53027481D02*
X115141228Y-53122720D01*
X115141228Y-53122720D02*
X115241228Y-53170339D01*
X115241228Y-53170339D02*
X115407895Y-53170339D01*
X114274562Y-52170339D02*
X114041229Y-53170339D01*
X114041229Y-53170339D02*
X113807895Y-52170339D01*
X113574562Y-53170339D02*
X113574562Y-52170339D01*
X113574562Y-52170339D02*
X113407895Y-52170339D01*
X113407895Y-52170339D02*
X113307895Y-52217958D01*
X113307895Y-52217958D02*
X113241229Y-52313196D01*
X113241229Y-52313196D02*
X113207895Y-52408434D01*
X113207895Y-52408434D02*
X113174562Y-52598910D01*
X113174562Y-52598910D02*
X113174562Y-52741767D01*
X113174562Y-52741767D02*
X113207895Y-52932243D01*
X113207895Y-52932243D02*
X113241229Y-53027481D01*
X113241229Y-53027481D02*
X113307895Y-53122720D01*
X113307895Y-53122720D02*
X113407895Y-53170339D01*
X113407895Y-53170339D02*
X113574562Y-53170339D01*
X112874562Y-53170339D02*
X112874562Y-52170339D01*
X112874562Y-52170339D02*
X112707895Y-52170339D01*
X112707895Y-52170339D02*
X112607895Y-52217958D01*
X112607895Y-52217958D02*
X112541229Y-52313196D01*
X112541229Y-52313196D02*
X112507895Y-52408434D01*
X112507895Y-52408434D02*
X112474562Y-52598910D01*
X112474562Y-52598910D02*
X112474562Y-52741767D01*
X112474562Y-52741767D02*
X112507895Y-52932243D01*
X112507895Y-52932243D02*
X112541229Y-53027481D01*
X112541229Y-53027481D02*
X112607895Y-53122720D01*
X112607895Y-53122720D02*
X112707895Y-53170339D01*
X112707895Y-53170339D02*
X112874562Y-53170339D01*
X111274562Y-52217958D02*
X111341229Y-52170339D01*
X111341229Y-52170339D02*
X111441229Y-52170339D01*
X111441229Y-52170339D02*
X111541229Y-52217958D01*
X111541229Y-52217958D02*
X111607896Y-52313196D01*
X111607896Y-52313196D02*
X111641229Y-52408434D01*
X111641229Y-52408434D02*
X111674562Y-52598910D01*
X111674562Y-52598910D02*
X111674562Y-52741767D01*
X111674562Y-52741767D02*
X111641229Y-52932243D01*
X111641229Y-52932243D02*
X111607896Y-53027481D01*
X111607896Y-53027481D02*
X111541229Y-53122720D01*
X111541229Y-53122720D02*
X111441229Y-53170339D01*
X111441229Y-53170339D02*
X111374562Y-53170339D01*
X111374562Y-53170339D02*
X111274562Y-53122720D01*
X111274562Y-53122720D02*
X111241229Y-53075100D01*
X111241229Y-53075100D02*
X111241229Y-52741767D01*
X111241229Y-52741767D02*
X111374562Y-52741767D01*
X110941229Y-53170339D02*
X110941229Y-52170339D01*
X110941229Y-52170339D02*
X110541229Y-53170339D01*
X110541229Y-53170339D02*
X110541229Y-52170339D01*
X110207896Y-53170339D02*
X110207896Y-52170339D01*
X110207896Y-52170339D02*
X110041229Y-52170339D01*
X110041229Y-52170339D02*
X109941229Y-52217958D01*
X109941229Y-52217958D02*
X109874563Y-52313196D01*
X109874563Y-52313196D02*
X109841229Y-52408434D01*
X109841229Y-52408434D02*
X109807896Y-52598910D01*
X109807896Y-52598910D02*
X109807896Y-52741767D01*
X109807896Y-52741767D02*
X109841229Y-52932243D01*
X109841229Y-52932243D02*
X109874563Y-53027481D01*
X109874563Y-53027481D02*
X109941229Y-53122720D01*
X109941229Y-53122720D02*
X110041229Y-53170339D01*
X110041229Y-53170339D02*
X110207896Y-53170339D01*
X108974563Y-52789386D02*
X108441230Y-52789386D01*
X108707896Y-53170339D02*
X108707896Y-52408434D01*
X107774563Y-52170339D02*
X108107896Y-52170339D01*
X108107896Y-52170339D02*
X108141229Y-52646529D01*
X108141229Y-52646529D02*
X108107896Y-52598910D01*
X108107896Y-52598910D02*
X108041229Y-52551291D01*
X108041229Y-52551291D02*
X107874563Y-52551291D01*
X107874563Y-52551291D02*
X107807896Y-52598910D01*
X107807896Y-52598910D02*
X107774563Y-52646529D01*
X107774563Y-52646529D02*
X107741229Y-52741767D01*
X107741229Y-52741767D02*
X107741229Y-52979862D01*
X107741229Y-52979862D02*
X107774563Y-53075100D01*
X107774563Y-53075100D02*
X107807896Y-53122720D01*
X107807896Y-53122720D02*
X107874563Y-53170339D01*
X107874563Y-53170339D02*
X108041229Y-53170339D01*
X108041229Y-53170339D02*
X108107896Y-53122720D01*
X108107896Y-53122720D02*
X108141229Y-53075100D01*
X107541229Y-52170339D02*
X107307896Y-53170339D01*
X107307896Y-53170339D02*
X107074562Y-52170339D01*
D11*
X105599374Y-53157219D02*
X105916041Y-52681028D01*
X106142231Y-53157219D02*
X106142231Y-52157219D01*
X106142231Y-52157219D02*
X105780326Y-52157219D01*
X105780326Y-52157219D02*
X105689850Y-52204838D01*
X105689850Y-52204838D02*
X105644612Y-52252457D01*
X105644612Y-52252457D02*
X105599374Y-52347695D01*
X105599374Y-52347695D02*
X105599374Y-52490552D01*
X105599374Y-52490552D02*
X105644612Y-52585790D01*
X105644612Y-52585790D02*
X105689850Y-52633409D01*
X105689850Y-52633409D02*
X105780326Y-52681028D01*
X105780326Y-52681028D02*
X106142231Y-52681028D01*
X104694612Y-53157219D02*
X105237469Y-53157219D01*
X104966041Y-53157219D02*
X104966041Y-52157219D01*
X104966041Y-52157219D02*
X105056517Y-52300076D01*
X105056517Y-52300076D02*
X105146993Y-52395314D01*
X105146993Y-52395314D02*
X105237469Y-52442933D01*
X103020802Y-53157219D02*
X103337469Y-52681028D01*
X103563659Y-53157219D02*
X103563659Y-52157219D01*
X103563659Y-52157219D02*
X103201754Y-52157219D01*
X103201754Y-52157219D02*
X103111278Y-52204838D01*
X103111278Y-52204838D02*
X103066040Y-52252457D01*
X103066040Y-52252457D02*
X103020802Y-52347695D01*
X103020802Y-52347695D02*
X103020802Y-52490552D01*
X103020802Y-52490552D02*
X103066040Y-52585790D01*
X103066040Y-52585790D02*
X103111278Y-52633409D01*
X103111278Y-52633409D02*
X103201754Y-52681028D01*
X103201754Y-52681028D02*
X103563659Y-52681028D01*
X102432707Y-52157219D02*
X102342230Y-52157219D01*
X102342230Y-52157219D02*
X102251754Y-52204838D01*
X102251754Y-52204838D02*
X102206516Y-52252457D01*
X102206516Y-52252457D02*
X102161278Y-52347695D01*
X102161278Y-52347695D02*
X102116040Y-52538171D01*
X102116040Y-52538171D02*
X102116040Y-52776266D01*
X102116040Y-52776266D02*
X102161278Y-52966742D01*
X102161278Y-52966742D02*
X102206516Y-53061980D01*
X102206516Y-53061980D02*
X102251754Y-53109600D01*
X102251754Y-53109600D02*
X102342230Y-53157219D01*
X102342230Y-53157219D02*
X102432707Y-53157219D01*
X102432707Y-53157219D02*
X102523183Y-53109600D01*
X102523183Y-53109600D02*
X102568421Y-53061980D01*
X102568421Y-53061980D02*
X102613659Y-52966742D01*
X102613659Y-52966742D02*
X102658897Y-52776266D01*
X102658897Y-52776266D02*
X102658897Y-52538171D01*
X102658897Y-52538171D02*
X102613659Y-52347695D01*
X102613659Y-52347695D02*
X102568421Y-52252457D01*
X102568421Y-52252457D02*
X102523183Y-52204838D01*
X102523183Y-52204838D02*
X102432707Y-52157219D01*
X100985087Y-53157219D02*
X100985087Y-52157219D01*
X100985087Y-52157219D02*
X100758897Y-52157219D01*
X100758897Y-52157219D02*
X100623182Y-52204838D01*
X100623182Y-52204838D02*
X100532706Y-52300076D01*
X100532706Y-52300076D02*
X100487468Y-52395314D01*
X100487468Y-52395314D02*
X100442230Y-52585790D01*
X100442230Y-52585790D02*
X100442230Y-52728647D01*
X100442230Y-52728647D02*
X100487468Y-52919123D01*
X100487468Y-52919123D02*
X100532706Y-53014361D01*
X100532706Y-53014361D02*
X100623182Y-53109600D01*
X100623182Y-53109600D02*
X100758897Y-53157219D01*
X100758897Y-53157219D02*
X100985087Y-53157219D01*
X100125563Y-52157219D02*
X99537468Y-52157219D01*
X99537468Y-52157219D02*
X99854135Y-52538171D01*
X99854135Y-52538171D02*
X99718420Y-52538171D01*
X99718420Y-52538171D02*
X99627944Y-52585790D01*
X99627944Y-52585790D02*
X99582706Y-52633409D01*
X99582706Y-52633409D02*
X99537468Y-52728647D01*
X99537468Y-52728647D02*
X99537468Y-52966742D01*
X99537468Y-52966742D02*
X99582706Y-53061980D01*
X99582706Y-53061980D02*
X99627944Y-53109600D01*
X99627944Y-53109600D02*
X99718420Y-53157219D01*
X99718420Y-53157219D02*
X99989849Y-53157219D01*
X99989849Y-53157219D02*
X100080325Y-53109600D01*
X100080325Y-53109600D02*
X100125563Y-53061980D01*
X98406515Y-53157219D02*
X98406515Y-52157219D01*
X98406515Y-52157219D02*
X98180325Y-52157219D01*
X98180325Y-52157219D02*
X98044610Y-52204838D01*
X98044610Y-52204838D02*
X97954134Y-52300076D01*
X97954134Y-52300076D02*
X97908896Y-52395314D01*
X97908896Y-52395314D02*
X97863658Y-52585790D01*
X97863658Y-52585790D02*
X97863658Y-52728647D01*
X97863658Y-52728647D02*
X97908896Y-52919123D01*
X97908896Y-52919123D02*
X97954134Y-53014361D01*
X97954134Y-53014361D02*
X98044610Y-53109600D01*
X98044610Y-53109600D02*
X98180325Y-53157219D01*
X98180325Y-53157219D02*
X98406515Y-53157219D01*
X97501753Y-52252457D02*
X97456515Y-52204838D01*
X97456515Y-52204838D02*
X97366039Y-52157219D01*
X97366039Y-52157219D02*
X97139848Y-52157219D01*
X97139848Y-52157219D02*
X97049372Y-52204838D01*
X97049372Y-52204838D02*
X97004134Y-52252457D01*
X97004134Y-52252457D02*
X96958896Y-52347695D01*
X96958896Y-52347695D02*
X96958896Y-52442933D01*
X96958896Y-52442933D02*
X97004134Y-52585790D01*
X97004134Y-52585790D02*
X97546991Y-53157219D01*
X97546991Y-53157219D02*
X96958896Y-53157219D01*
X95827943Y-53157219D02*
X95827943Y-52157219D01*
X95827943Y-52157219D02*
X95601753Y-52157219D01*
X95601753Y-52157219D02*
X95466038Y-52204838D01*
X95466038Y-52204838D02*
X95375562Y-52300076D01*
X95375562Y-52300076D02*
X95330324Y-52395314D01*
X95330324Y-52395314D02*
X95285086Y-52585790D01*
X95285086Y-52585790D02*
X95285086Y-52728647D01*
X95285086Y-52728647D02*
X95330324Y-52919123D01*
X95330324Y-52919123D02*
X95375562Y-53014361D01*
X95375562Y-53014361D02*
X95466038Y-53109600D01*
X95466038Y-53109600D02*
X95601753Y-53157219D01*
X95601753Y-53157219D02*
X95827943Y-53157219D01*
X94380324Y-53157219D02*
X94923181Y-53157219D01*
X94651753Y-53157219D02*
X94651753Y-52157219D01*
X94651753Y-52157219D02*
X94742229Y-52300076D01*
X94742229Y-52300076D02*
X94832705Y-52395314D01*
X94832705Y-52395314D02*
X94923181Y-52442933D01*
X93249371Y-53157219D02*
X93249371Y-52157219D01*
X93249371Y-52157219D02*
X93023181Y-52157219D01*
X93023181Y-52157219D02*
X92887466Y-52204838D01*
X92887466Y-52204838D02*
X92796990Y-52300076D01*
X92796990Y-52300076D02*
X92751752Y-52395314D01*
X92751752Y-52395314D02*
X92706514Y-52585790D01*
X92706514Y-52585790D02*
X92706514Y-52728647D01*
X92706514Y-52728647D02*
X92751752Y-52919123D01*
X92751752Y-52919123D02*
X92796990Y-53014361D01*
X92796990Y-53014361D02*
X92887466Y-53109600D01*
X92887466Y-53109600D02*
X93023181Y-53157219D01*
X93023181Y-53157219D02*
X93249371Y-53157219D01*
X92118419Y-52157219D02*
X92027942Y-52157219D01*
X92027942Y-52157219D02*
X91937466Y-52204838D01*
X91937466Y-52204838D02*
X91892228Y-52252457D01*
X91892228Y-52252457D02*
X91846990Y-52347695D01*
X91846990Y-52347695D02*
X91801752Y-52538171D01*
X91801752Y-52538171D02*
X91801752Y-52776266D01*
X91801752Y-52776266D02*
X91846990Y-52966742D01*
X91846990Y-52966742D02*
X91892228Y-53061980D01*
X91892228Y-53061980D02*
X91937466Y-53109600D01*
X91937466Y-53109600D02*
X92027942Y-53157219D01*
X92027942Y-53157219D02*
X92118419Y-53157219D01*
X92118419Y-53157219D02*
X92208895Y-53109600D01*
X92208895Y-53109600D02*
X92254133Y-53061980D01*
X92254133Y-53061980D02*
X92299371Y-52966742D01*
X92299371Y-52966742D02*
X92344609Y-52776266D01*
X92344609Y-52776266D02*
X92344609Y-52538171D01*
X92344609Y-52538171D02*
X92299371Y-52347695D01*
X92299371Y-52347695D02*
X92254133Y-52252457D01*
X92254133Y-52252457D02*
X92208895Y-52204838D01*
X92208895Y-52204838D02*
X92118419Y-52157219D01*
D13*
%TO.C,G\u002A\u002A\u002A*%
G36*
X104150197Y-89975864D02*
G01*
X104150197Y-90481095D01*
X103840832Y-90481095D01*
X103531467Y-90481095D01*
X103532244Y-90384615D01*
X103533020Y-90288135D01*
X103725244Y-90287377D01*
X103917467Y-90286619D01*
X103917467Y-89878626D01*
X103917467Y-89470633D01*
X104033832Y-89470633D01*
X104150197Y-89470633D01*
X104150197Y-89975864D01*
G37*
G36*
X101493685Y-89471359D02*
G01*
X101883287Y-89472106D01*
X101883287Y-89567850D01*
X101883287Y-89663593D01*
X101747037Y-89664359D01*
X101610787Y-89665125D01*
X101610787Y-90073110D01*
X101610787Y-90481095D01*
X101492949Y-90481095D01*
X101375110Y-90481095D01*
X101375110Y-90073081D01*
X101375110Y-89665066D01*
X101239597Y-89665066D01*
X101104083Y-89665066D01*
X101104083Y-89567839D01*
X101104083Y-89470612D01*
X101493685Y-89471359D01*
G37*
G36*
X105007469Y-88006495D02*
G01*
X105007469Y-88533821D01*
X104877848Y-88533821D01*
X104748226Y-88533821D01*
X104748226Y-88306982D01*
X104748226Y-88080144D01*
X104546428Y-88080144D01*
X104344630Y-88080144D01*
X104344630Y-87979982D01*
X104344630Y-87879819D01*
X104546428Y-87879819D01*
X104748226Y-87879819D01*
X104748226Y-87781130D01*
X104748226Y-87682440D01*
X104530225Y-87682440D01*
X104312225Y-87682440D01*
X104312225Y-87580805D01*
X104312225Y-87479170D01*
X104659847Y-87479170D01*
X105007469Y-87479170D01*
X105007469Y-88006495D01*
G37*
G36*
X98521205Y-89757792D02*
G01*
X98521956Y-90045025D01*
X98668421Y-89758566D01*
X98814886Y-89472106D01*
X98957860Y-89471342D01*
X99100835Y-89470577D01*
X99100835Y-89975836D01*
X99100835Y-90481095D01*
X98994793Y-90481095D01*
X98888751Y-90481095D01*
X98888002Y-90130594D01*
X98887254Y-89780093D01*
X98709331Y-90130628D01*
X98531407Y-90481164D01*
X98419154Y-90480393D01*
X98306901Y-90479622D01*
X98306901Y-89975864D01*
X98306901Y-89472106D01*
X98413677Y-89471333D01*
X98520454Y-89470560D01*
X98521205Y-89757792D01*
G37*
G36*
X104933821Y-89975864D02*
G01*
X104933821Y-90481122D01*
X104620813Y-90480372D01*
X104307806Y-90479622D01*
X104307806Y-90383879D01*
X104307806Y-90288135D01*
X104505921Y-90287378D01*
X104704036Y-90286621D01*
X104704036Y-90159965D01*
X104704036Y-90033310D01*
X104521387Y-90033310D01*
X104338738Y-90033310D01*
X104338738Y-89937589D01*
X104338738Y-89841868D01*
X104520651Y-89841109D01*
X104702563Y-89840350D01*
X104703344Y-89752729D01*
X104704124Y-89665108D01*
X104505965Y-89664350D01*
X104307806Y-89663593D01*
X104307806Y-89567850D01*
X104307806Y-89472106D01*
X104620813Y-89471356D01*
X104933821Y-89470607D01*
X104933821Y-89975864D01*
G37*
G36*
X103422547Y-89975864D02*
G01*
X103422547Y-90481095D01*
X103108803Y-90481095D01*
X102795059Y-90481095D01*
X102795059Y-90383879D01*
X102795059Y-90286662D01*
X102992438Y-90286662D01*
X103189817Y-90286662D01*
X103189817Y-90159986D01*
X103189817Y-90033310D01*
X103007168Y-90033310D01*
X102824519Y-90033310D01*
X102824519Y-89937567D01*
X102824519Y-89841823D01*
X103007168Y-89841823D01*
X103189817Y-89841823D01*
X103189817Y-89753445D01*
X103189817Y-89665066D01*
X102992438Y-89665066D01*
X102795059Y-89665066D01*
X102795059Y-89567850D01*
X102795059Y-89470633D01*
X103108803Y-89470633D01*
X103422547Y-89470633D01*
X103422547Y-89975864D01*
G37*
G36*
X97906988Y-89471353D02*
G01*
X98156658Y-89472106D01*
X98157438Y-89559693D01*
X98158218Y-89647280D01*
X98091154Y-89648072D01*
X98024090Y-89648863D01*
X98023340Y-89976601D01*
X98022591Y-90304338D01*
X98090361Y-90304338D01*
X98158131Y-90304338D01*
X98158131Y-90392716D01*
X98158131Y-90481095D01*
X97907725Y-90481095D01*
X97657319Y-90481095D01*
X97657319Y-90392716D01*
X97657319Y-90304338D01*
X97723603Y-90304338D01*
X97789887Y-90304338D01*
X97789887Y-89975864D01*
X97789887Y-89647390D01*
X97723603Y-89647390D01*
X97657319Y-89647390D01*
X97657319Y-89558995D01*
X97657319Y-89470600D01*
X97906988Y-89471353D01*
G37*
G36*
X99572382Y-89091127D02*
G01*
X99600296Y-89091304D01*
X99702500Y-89092078D01*
X99748059Y-89186349D01*
X99754982Y-89200678D01*
X99766651Y-89224845D01*
X99778100Y-89248575D01*
X99788859Y-89270894D01*
X99798461Y-89290829D01*
X99806434Y-89307407D01*
X99812312Y-89319653D01*
X99831005Y-89358687D01*
X99756666Y-89358687D01*
X99682326Y-89358687D01*
X99591169Y-89228514D01*
X99582233Y-89215742D01*
X99565463Y-89191702D01*
X99549885Y-89169285D01*
X99535815Y-89148948D01*
X99523566Y-89131146D01*
X99513451Y-89116338D01*
X99505785Y-89104978D01*
X99500880Y-89097525D01*
X99499052Y-89094434D01*
X99499028Y-89094251D01*
X99500006Y-89093227D01*
X99503300Y-89092422D01*
X99509421Y-89091820D01*
X99518878Y-89091405D01*
X99532184Y-89091162D01*
X99549848Y-89091075D01*
X99572382Y-89091127D01*
G37*
G36*
X101667496Y-87479875D02*
G01*
X101797855Y-87480643D01*
X101798611Y-88003549D01*
X101798646Y-88029495D01*
X101798710Y-88083894D01*
X101798757Y-88136585D01*
X101798786Y-88187269D01*
X101798800Y-88235646D01*
X101798797Y-88281419D01*
X101798779Y-88324288D01*
X101798745Y-88363954D01*
X101798696Y-88400120D01*
X101798633Y-88432485D01*
X101798555Y-88460751D01*
X101798464Y-88484619D01*
X101798359Y-88503791D01*
X101798241Y-88517967D01*
X101798110Y-88526849D01*
X101797967Y-88530138D01*
X101797763Y-88530344D01*
X101795674Y-88530902D01*
X101791154Y-88531402D01*
X101783935Y-88531845D01*
X101773752Y-88532235D01*
X101760338Y-88532574D01*
X101743428Y-88532866D01*
X101722754Y-88533113D01*
X101698052Y-88533317D01*
X101669054Y-88533483D01*
X101635495Y-88533612D01*
X101597109Y-88533707D01*
X101553629Y-88533772D01*
X101504790Y-88533809D01*
X101450325Y-88533821D01*
X101104083Y-88533821D01*
X101104083Y-88432185D01*
X101104083Y-88330550D01*
X101320610Y-88330550D01*
X101537138Y-88330550D01*
X101537138Y-87904829D01*
X101537138Y-87479108D01*
X101667496Y-87479875D01*
G37*
G36*
X97660265Y-88006526D02*
G01*
X97660265Y-88533882D01*
X97529906Y-88533115D01*
X97399548Y-88532348D01*
X97398788Y-88361085D01*
X97398028Y-88189822D01*
X97298625Y-88188257D01*
X97273796Y-88187828D01*
X97246962Y-88187198D01*
X97224463Y-88186378D01*
X97205428Y-88185266D01*
X97188989Y-88183758D01*
X97174274Y-88181753D01*
X97160414Y-88179148D01*
X97146539Y-88175842D01*
X97131779Y-88171733D01*
X97115264Y-88166717D01*
X97074532Y-88151564D01*
X97036004Y-88131838D01*
X96999467Y-88107234D01*
X96964069Y-88077247D01*
X96961831Y-88075131D01*
X96934221Y-88044686D01*
X96910764Y-88010172D01*
X96891562Y-87971791D01*
X96876718Y-87929746D01*
X96866333Y-87884238D01*
X96865434Y-87878328D01*
X96863533Y-87859454D01*
X96862324Y-87837199D01*
X96861886Y-87816080D01*
X97130589Y-87816080D01*
X97130612Y-87837893D01*
X97133906Y-87870533D01*
X97141338Y-87899012D01*
X97152999Y-87923437D01*
X97168985Y-87943919D01*
X97189389Y-87960565D01*
X97214303Y-87973487D01*
X97243820Y-87982792D01*
X97278036Y-87988589D01*
X97281004Y-87988896D01*
X97295829Y-87990021D01*
X97314005Y-87990932D01*
X97333504Y-87991543D01*
X97352297Y-87991765D01*
X97398075Y-87991765D01*
X97398075Y-87834157D01*
X97398075Y-87676548D01*
X97360514Y-87676634D01*
X97334431Y-87676929D01*
X97301564Y-87678215D01*
X97273260Y-87680625D01*
X97248781Y-87684278D01*
X97227387Y-87689292D01*
X97208339Y-87695787D01*
X97190898Y-87703880D01*
X97179803Y-87710641D01*
X97166032Y-87722604D01*
X97153906Y-87738232D01*
X97142444Y-87758634D01*
X97139217Y-87765267D01*
X97135664Y-87773468D01*
X97133363Y-87781013D01*
X97131975Y-87789539D01*
X97131163Y-87800683D01*
X97130589Y-87816080D01*
X96861886Y-87816080D01*
X96861829Y-87813354D01*
X96862066Y-87789710D01*
X96863057Y-87768061D01*
X96864821Y-87750197D01*
X96870242Y-87720951D01*
X96882189Y-87681268D01*
X96898885Y-87644474D01*
X96920120Y-87611011D01*
X96945680Y-87581323D01*
X96953515Y-87573836D01*
X96983002Y-87550467D01*
X97016912Y-87530026D01*
X97054542Y-87512849D01*
X97095185Y-87499272D01*
X97138137Y-87489630D01*
X97142225Y-87488944D01*
X97154702Y-87487081D01*
X97168093Y-87485460D01*
X97182852Y-87484064D01*
X97199429Y-87482879D01*
X97218278Y-87481890D01*
X97239852Y-87481081D01*
X97264602Y-87480438D01*
X97292981Y-87479945D01*
X97325442Y-87479588D01*
X97362437Y-87479350D01*
X97404418Y-87479219D01*
X97451839Y-87479177D01*
X97660265Y-87479170D01*
X97660265Y-87834157D01*
X97660265Y-88006526D01*
G37*
G36*
X98600023Y-88006526D02*
G01*
X98600023Y-88533882D01*
X98469665Y-88533115D01*
X98339307Y-88532348D01*
X98338547Y-88361085D01*
X98337786Y-88189822D01*
X98238384Y-88188257D01*
X98213555Y-88187828D01*
X98186721Y-88187198D01*
X98164222Y-88186378D01*
X98145187Y-88185266D01*
X98128748Y-88183758D01*
X98114033Y-88181753D01*
X98100173Y-88179148D01*
X98086298Y-88175842D01*
X98071538Y-88171733D01*
X98055022Y-88166717D01*
X98016051Y-88152323D01*
X97976928Y-88132519D01*
X97939919Y-88107777D01*
X97904240Y-88077633D01*
X97903496Y-88076936D01*
X97878353Y-88050493D01*
X97857190Y-88021954D01*
X97839526Y-87990462D01*
X97824878Y-87955160D01*
X97812763Y-87915192D01*
X97809916Y-87903733D01*
X97807284Y-87891338D01*
X97805408Y-87879251D01*
X97804100Y-87865922D01*
X97803175Y-87849800D01*
X97802447Y-87829337D01*
X97802336Y-87825319D01*
X98069838Y-87825319D01*
X98070058Y-87836932D01*
X98073423Y-87869743D01*
X98080917Y-87898391D01*
X98092633Y-87922978D01*
X98108664Y-87943607D01*
X98129103Y-87960380D01*
X98154042Y-87973400D01*
X98183575Y-87982769D01*
X98217794Y-87988589D01*
X98220763Y-87988896D01*
X98235588Y-87990021D01*
X98253764Y-87990932D01*
X98273262Y-87991543D01*
X98292055Y-87991765D01*
X98337834Y-87991765D01*
X98337834Y-87834157D01*
X98337834Y-87676548D01*
X98300273Y-87676634D01*
X98289906Y-87676706D01*
X98258887Y-87677525D01*
X98230396Y-87679186D01*
X98205268Y-87681614D01*
X98184339Y-87684734D01*
X98168441Y-87688472D01*
X98150035Y-87694824D01*
X98128974Y-87704796D01*
X98111982Y-87716875D01*
X98098034Y-87731834D01*
X98086103Y-87750447D01*
X98079568Y-87764085D01*
X98073900Y-87781788D01*
X98070783Y-87801618D01*
X98069838Y-87825319D01*
X97802336Y-87825319D01*
X97802306Y-87824251D01*
X97802030Y-87795477D01*
X97802902Y-87770770D01*
X97805060Y-87748632D01*
X97808640Y-87727563D01*
X97813782Y-87706061D01*
X97819370Y-87688441D01*
X97829387Y-87663802D01*
X97841434Y-87639524D01*
X97854321Y-87618184D01*
X97866039Y-87602449D01*
X97891439Y-87575578D01*
X97921456Y-87551559D01*
X97955600Y-87530673D01*
X97993381Y-87513202D01*
X98034310Y-87499427D01*
X98077895Y-87489630D01*
X98081984Y-87488944D01*
X98094461Y-87487081D01*
X98107852Y-87485460D01*
X98122610Y-87484064D01*
X98139188Y-87482879D01*
X98158037Y-87481890D01*
X98179610Y-87481081D01*
X98204360Y-87480438D01*
X98232740Y-87479945D01*
X98265201Y-87479588D01*
X98302195Y-87479350D01*
X98344177Y-87479219D01*
X98391597Y-87479177D01*
X98600023Y-87479170D01*
X98600023Y-87834157D01*
X98600023Y-88006526D01*
G37*
G36*
X96720506Y-88006178D02*
G01*
X96720506Y-88533821D01*
X96553323Y-88533781D01*
X96507894Y-88533698D01*
X96459162Y-88533404D01*
X96415451Y-88532871D01*
X96376292Y-88532076D01*
X96341214Y-88530992D01*
X96309747Y-88529594D01*
X96281421Y-88527857D01*
X96255767Y-88525757D01*
X96232313Y-88523266D01*
X96210590Y-88520361D01*
X96190128Y-88517016D01*
X96170456Y-88513206D01*
X96123675Y-88500646D01*
X96077055Y-88482287D01*
X96032581Y-88458728D01*
X95990828Y-88430277D01*
X95952376Y-88397238D01*
X95921190Y-88364617D01*
X95887348Y-88321702D01*
X95858579Y-88275860D01*
X95834932Y-88227211D01*
X95816454Y-88175874D01*
X95803196Y-88121968D01*
X95795205Y-88065611D01*
X95792531Y-88006923D01*
X95793029Y-87993710D01*
X96061444Y-87993710D01*
X96062199Y-88036068D01*
X96066285Y-88077700D01*
X96073667Y-88117550D01*
X96084308Y-88154559D01*
X96098174Y-88187671D01*
X96112764Y-88213318D01*
X96136051Y-88244560D01*
X96163137Y-88271725D01*
X96193592Y-88294453D01*
X96226987Y-88312386D01*
X96262892Y-88325165D01*
X96263265Y-88325266D01*
X96270637Y-88327112D01*
X96278148Y-88328584D01*
X96286619Y-88329740D01*
X96296872Y-88330636D01*
X96309730Y-88331330D01*
X96326014Y-88331878D01*
X96346545Y-88332339D01*
X96372147Y-88332769D01*
X96458316Y-88334085D01*
X96458316Y-88004918D01*
X96458316Y-87675752D01*
X96383931Y-87677873D01*
X96370292Y-87678319D01*
X96348471Y-87679251D01*
X96327861Y-87680382D01*
X96309632Y-87681638D01*
X96294954Y-87682943D01*
X96284997Y-87684221D01*
X96280146Y-87685106D01*
X96243838Y-87695026D01*
X96209707Y-87710178D01*
X96178184Y-87730197D01*
X96149703Y-87754720D01*
X96124694Y-87783380D01*
X96103588Y-87815815D01*
X96086819Y-87851658D01*
X96079522Y-87872856D01*
X96070069Y-87911046D01*
X96064055Y-87951683D01*
X96061444Y-87993710D01*
X95793029Y-87993710D01*
X95794617Y-87951567D01*
X95801596Y-87894745D01*
X95813527Y-87840938D01*
X95830455Y-87789987D01*
X95852424Y-87741733D01*
X95879479Y-87696015D01*
X95895033Y-87674034D01*
X95928360Y-87634459D01*
X95965559Y-87599092D01*
X96006242Y-87568176D01*
X96050026Y-87541959D01*
X96096525Y-87520686D01*
X96145354Y-87504604D01*
X96196126Y-87493957D01*
X96200095Y-87493358D01*
X96215582Y-87491122D01*
X96230520Y-87489173D01*
X96245445Y-87487490D01*
X96260893Y-87486048D01*
X96277403Y-87484823D01*
X96295510Y-87483792D01*
X96315751Y-87482931D01*
X96338663Y-87482216D01*
X96364783Y-87481624D01*
X96394648Y-87481130D01*
X96428795Y-87480712D01*
X96467760Y-87480345D01*
X96512080Y-87480006D01*
X96720506Y-87478535D01*
X96720506Y-88004918D01*
X96720506Y-88006178D01*
G37*
G36*
X102252671Y-89453806D02*
G01*
X102257318Y-89453932D01*
X102286555Y-89455145D01*
X102311514Y-89457106D01*
X102333592Y-89460037D01*
X102354181Y-89464163D01*
X102374675Y-89469708D01*
X102396469Y-89476896D01*
X102418701Y-89485339D01*
X102453961Y-89501813D01*
X102486302Y-89521396D01*
X102517110Y-89544971D01*
X102547771Y-89573422D01*
X102566745Y-89593624D01*
X102597922Y-89632996D01*
X102624549Y-89675579D01*
X102646667Y-89721495D01*
X102664316Y-89770866D01*
X102677535Y-89823812D01*
X102686366Y-89880456D01*
X102690849Y-89940920D01*
X102691024Y-90005324D01*
X102690051Y-90029050D01*
X102685557Y-90082846D01*
X102677910Y-90132641D01*
X102666972Y-90179210D01*
X102652609Y-90223324D01*
X102636680Y-90261027D01*
X102612692Y-90305114D01*
X102584569Y-90345116D01*
X102552505Y-90380886D01*
X102516693Y-90412276D01*
X102477326Y-90439143D01*
X102434599Y-90461338D01*
X102388704Y-90478716D01*
X102339837Y-90491131D01*
X102288190Y-90498437D01*
X102286382Y-90498595D01*
X102231395Y-90501029D01*
X102178302Y-90498555D01*
X102126368Y-90491031D01*
X102074863Y-90478313D01*
X102023052Y-90460261D01*
X101970203Y-90436732D01*
X101922991Y-90413557D01*
X101923761Y-90294873D01*
X101924531Y-90176189D01*
X101933960Y-90175277D01*
X101935459Y-90175174D01*
X101939810Y-90175624D01*
X101944580Y-90177708D01*
X101950707Y-90182057D01*
X101959129Y-90189304D01*
X101970784Y-90200080D01*
X101981844Y-90210250D01*
X102014538Y-90237633D01*
X102046718Y-90260368D01*
X102079369Y-90279173D01*
X102091490Y-90285202D01*
X102115534Y-90295563D01*
X102138146Y-90302679D01*
X102161275Y-90307098D01*
X102186873Y-90309368D01*
X102187998Y-90309422D01*
X102226047Y-90308514D01*
X102261777Y-90302275D01*
X102295017Y-90290861D01*
X102325594Y-90274424D01*
X102353337Y-90253120D01*
X102378075Y-90227101D01*
X102399636Y-90196524D01*
X102417847Y-90161540D01*
X102432539Y-90122305D01*
X102443538Y-90078972D01*
X102444387Y-90074197D01*
X102446390Y-90057445D01*
X102447870Y-90036528D01*
X102448828Y-90012697D01*
X102449263Y-89987205D01*
X102449175Y-89961304D01*
X102448564Y-89936245D01*
X102447429Y-89913282D01*
X102445770Y-89893665D01*
X102443586Y-89878648D01*
X102441951Y-89870715D01*
X102430773Y-89827791D01*
X102416528Y-89789612D01*
X102399042Y-89755831D01*
X102378142Y-89726105D01*
X102353653Y-89700088D01*
X102350838Y-89697530D01*
X102322534Y-89675705D01*
X102292382Y-89659365D01*
X102260108Y-89648414D01*
X102225435Y-89642755D01*
X102188089Y-89642294D01*
X102180265Y-89642862D01*
X102148897Y-89648034D01*
X102117075Y-89657968D01*
X102084490Y-89672821D01*
X102050835Y-89692748D01*
X102015801Y-89717906D01*
X101979082Y-89748452D01*
X101966837Y-89759173D01*
X101957237Y-89767192D01*
X101950171Y-89772387D01*
X101944712Y-89775356D01*
X101939935Y-89776698D01*
X101934913Y-89777012D01*
X101923058Y-89777012D01*
X101923058Y-89656017D01*
X101923058Y-89535022D01*
X101967983Y-89513433D01*
X101972167Y-89511434D01*
X102012558Y-89493438D01*
X102050682Y-89479150D01*
X102087834Y-89468297D01*
X102125312Y-89460607D01*
X102164413Y-89455810D01*
X102206434Y-89453633D01*
X102252671Y-89453806D01*
G37*
G36*
X101006866Y-89975652D02*
G01*
X101006866Y-90481095D01*
X100890501Y-90481095D01*
X100774136Y-90481095D01*
X100774136Y-90295500D01*
X100774136Y-90109905D01*
X100733629Y-90109949D01*
X100693122Y-90109993D01*
X100563726Y-90295544D01*
X100434330Y-90481095D01*
X100293435Y-90481095D01*
X100292392Y-90481095D01*
X100264273Y-90481047D01*
X100238058Y-90480916D01*
X100214318Y-90480711D01*
X100193621Y-90480441D01*
X100176537Y-90480114D01*
X100163637Y-90479740D01*
X100155489Y-90479327D01*
X100152663Y-90478885D01*
X100154232Y-90476442D01*
X100159034Y-90469555D01*
X100166827Y-90458578D01*
X100177362Y-90443852D01*
X100190394Y-90425721D01*
X100205675Y-90404525D01*
X100222958Y-90380608D01*
X100241998Y-90354312D01*
X100262547Y-90325978D01*
X100284358Y-90295949D01*
X100307185Y-90264567D01*
X100319598Y-90247510D01*
X100345281Y-90212174D01*
X100367747Y-90181191D01*
X100387186Y-90154287D01*
X100403787Y-90131188D01*
X100417742Y-90111623D01*
X100429240Y-90095318D01*
X100438471Y-90081999D01*
X100445626Y-90071394D01*
X100450895Y-90063229D01*
X100454468Y-90057232D01*
X100456534Y-90053129D01*
X100457285Y-90050647D01*
X100456910Y-90049513D01*
X100435809Y-90035797D01*
X100408998Y-90016651D01*
X100386244Y-89997876D01*
X100366625Y-89978619D01*
X100349218Y-89958028D01*
X100333101Y-89935253D01*
X100332087Y-89933686D01*
X100316110Y-89904027D01*
X100303275Y-89870331D01*
X100293794Y-89833622D01*
X100287879Y-89794922D01*
X100287144Y-89781288D01*
X100527041Y-89781288D01*
X100527143Y-89798496D01*
X100527981Y-89813671D01*
X100529472Y-89824897D01*
X100534483Y-89842788D01*
X100545950Y-89866607D01*
X100561897Y-89886930D01*
X100581920Y-89903372D01*
X100605616Y-89915551D01*
X100632582Y-89923082D01*
X100635577Y-89923561D01*
X100649407Y-89925025D01*
X100667834Y-89926145D01*
X100689858Y-89926871D01*
X100714481Y-89927153D01*
X100774136Y-89927256D01*
X100774136Y-89793215D01*
X100774136Y-89659174D01*
X100704170Y-89659225D01*
X100691719Y-89659263D01*
X100665950Y-89659612D01*
X100644879Y-89660412D01*
X100627672Y-89661770D01*
X100613495Y-89663791D01*
X100601511Y-89666582D01*
X100590888Y-89670248D01*
X100580790Y-89674895D01*
X100565403Y-89684833D01*
X100549102Y-89701528D01*
X100536561Y-89722512D01*
X100533695Y-89729153D01*
X100530911Y-89737503D01*
X100529109Y-89746659D01*
X100527984Y-89758316D01*
X100527229Y-89774169D01*
X100527041Y-89781288D01*
X100287144Y-89781288D01*
X100285742Y-89755255D01*
X100287595Y-89715644D01*
X100289832Y-89696113D01*
X100293242Y-89675284D01*
X100297716Y-89657213D01*
X100303705Y-89640151D01*
X100311660Y-89622350D01*
X100326598Y-89596025D01*
X100349122Y-89566652D01*
X100375822Y-89540645D01*
X100406029Y-89518559D01*
X100439071Y-89500944D01*
X100474280Y-89488352D01*
X100484125Y-89485715D01*
X100493941Y-89483290D01*
X100503712Y-89481180D01*
X100513895Y-89479362D01*
X100524947Y-89477810D01*
X100537325Y-89476499D01*
X100551484Y-89475404D01*
X100567882Y-89474501D01*
X100586976Y-89473764D01*
X100609221Y-89473168D01*
X100635075Y-89472689D01*
X100664994Y-89472302D01*
X100699436Y-89471981D01*
X100738855Y-89471701D01*
X100783711Y-89471438D01*
X101006866Y-89470209D01*
X101006866Y-89793215D01*
X101006866Y-89975652D01*
G37*
G36*
X100964351Y-88151157D02*
G01*
X100980580Y-88199851D01*
X100996040Y-88246286D01*
X101010641Y-88290186D01*
X101024290Y-88331273D01*
X101036895Y-88369269D01*
X101048364Y-88403897D01*
X101058606Y-88434880D01*
X101067527Y-88461941D01*
X101075037Y-88484801D01*
X101081044Y-88503184D01*
X101085455Y-88516813D01*
X101088179Y-88525409D01*
X101089123Y-88528696D01*
X101088989Y-88529738D01*
X101088057Y-88530793D01*
X101085801Y-88531642D01*
X101081716Y-88532304D01*
X101075292Y-88532794D01*
X101066023Y-88533131D01*
X101053401Y-88533331D01*
X101036918Y-88533413D01*
X101016066Y-88533392D01*
X100990338Y-88533287D01*
X100959226Y-88533115D01*
X100829098Y-88532348D01*
X100819680Y-88501415D01*
X100817207Y-88493282D01*
X100812671Y-88478334D01*
X100807057Y-88459810D01*
X100800722Y-88438893D01*
X100794024Y-88416762D01*
X100787322Y-88394600D01*
X100764381Y-88318717D01*
X100600843Y-88319478D01*
X100437304Y-88320239D01*
X100417247Y-88386523D01*
X100415730Y-88391538D01*
X100408991Y-88413803D01*
X100402068Y-88436675D01*
X100395432Y-88458592D01*
X100389557Y-88477992D01*
X100384916Y-88493314D01*
X100372642Y-88533821D01*
X100239023Y-88533821D01*
X100209772Y-88533811D01*
X100183175Y-88533768D01*
X100161507Y-88533672D01*
X100144270Y-88533503D01*
X100130961Y-88533242D01*
X100121080Y-88532870D01*
X100114126Y-88532368D01*
X100109598Y-88531715D01*
X100106995Y-88530894D01*
X100105818Y-88529883D01*
X100105564Y-88528665D01*
X100106259Y-88526174D01*
X100108735Y-88518316D01*
X100112914Y-88505387D01*
X100118706Y-88487665D01*
X100126017Y-88465428D01*
X100134756Y-88438952D01*
X100144830Y-88408515D01*
X100156148Y-88374394D01*
X100168618Y-88336867D01*
X100182148Y-88296210D01*
X100196644Y-88252701D01*
X100212016Y-88206616D01*
X100228172Y-88158235D01*
X100239609Y-88124017D01*
X100497217Y-88124017D01*
X100498326Y-88124733D01*
X100503493Y-88125548D01*
X100513135Y-88126194D01*
X100527534Y-88126682D01*
X100546975Y-88127020D01*
X100571740Y-88127216D01*
X100602113Y-88127279D01*
X100627094Y-88127249D01*
X100651078Y-88127130D01*
X100670037Y-88126904D01*
X100684435Y-88126555D01*
X100694737Y-88126067D01*
X100701410Y-88125422D01*
X100704918Y-88124604D01*
X100705726Y-88123597D01*
X100704725Y-88120402D01*
X100702149Y-88112033D01*
X100698160Y-88099013D01*
X100692910Y-88081846D01*
X100686552Y-88061032D01*
X100679242Y-88037074D01*
X100671130Y-88010474D01*
X100662372Y-87981735D01*
X100653120Y-87951359D01*
X100642281Y-87915917D01*
X100631495Y-87881053D01*
X100622253Y-87851657D01*
X100614566Y-87827762D01*
X100608443Y-87809401D01*
X100603896Y-87796608D01*
X100600937Y-87789416D01*
X100599575Y-87787859D01*
X100599095Y-87789158D01*
X100596960Y-87795648D01*
X100593428Y-87806788D01*
X100588683Y-87821975D01*
X100582910Y-87840602D01*
X100576293Y-87862066D01*
X100569015Y-87885762D01*
X100561261Y-87911084D01*
X100553215Y-87937428D01*
X100545062Y-87964190D01*
X100536985Y-87990763D01*
X100529168Y-88016544D01*
X100521796Y-88040928D01*
X100515053Y-88063310D01*
X100509123Y-88083084D01*
X100504190Y-88099647D01*
X100500439Y-88112393D01*
X100498053Y-88120718D01*
X100497217Y-88124017D01*
X100239609Y-88124017D01*
X100245018Y-88107833D01*
X100262464Y-88055687D01*
X100280417Y-88002076D01*
X100455112Y-87480643D01*
X100597685Y-87480643D01*
X100740258Y-87480643D01*
X100914575Y-88002076D01*
X100929957Y-88048103D01*
X100947446Y-88100482D01*
X100955157Y-88123597D01*
X100964351Y-88151157D01*
G37*
G36*
X96642205Y-90123750D02*
G01*
X96655752Y-90167391D01*
X96668845Y-90209563D01*
X96681376Y-90249921D01*
X96693238Y-90288116D01*
X96704324Y-90323804D01*
X96714525Y-90356636D01*
X96723735Y-90386267D01*
X96731846Y-90412350D01*
X96738749Y-90434538D01*
X96744339Y-90452485D01*
X96748506Y-90465845D01*
X96751144Y-90474269D01*
X96752146Y-90477413D01*
X96752150Y-90477759D01*
X96750521Y-90478655D01*
X96746100Y-90479386D01*
X96738442Y-90479965D01*
X96727106Y-90480407D01*
X96711649Y-90480725D01*
X96691628Y-90480934D01*
X96666601Y-90481047D01*
X96636125Y-90481078D01*
X96518708Y-90481061D01*
X96494195Y-90393086D01*
X96492007Y-90385237D01*
X96485783Y-90362944D01*
X96479948Y-90342088D01*
X96474739Y-90323518D01*
X96470395Y-90308080D01*
X96467152Y-90296623D01*
X96465250Y-90289994D01*
X96460819Y-90274878D01*
X96315720Y-90274878D01*
X96170621Y-90274878D01*
X96141872Y-90377250D01*
X96135425Y-90400156D01*
X96129290Y-90421859D01*
X96123828Y-90441082D01*
X96119221Y-90457186D01*
X96115654Y-90469531D01*
X96113308Y-90477479D01*
X96112366Y-90480392D01*
X96111855Y-90480456D01*
X96106711Y-90480586D01*
X96096543Y-90480670D01*
X96081979Y-90480707D01*
X96063641Y-90480698D01*
X96042155Y-90480643D01*
X96018145Y-90480541D01*
X95992237Y-90480392D01*
X95872865Y-90479622D01*
X95992984Y-90092229D01*
X96221953Y-90092229D01*
X96315094Y-90092229D01*
X96338588Y-90092188D01*
X96361610Y-90092023D01*
X96379510Y-90091715D01*
X96392704Y-90091251D01*
X96401611Y-90090614D01*
X96406649Y-90089788D01*
X96408235Y-90088759D01*
X96407484Y-90085507D01*
X96405288Y-90077192D01*
X96401822Y-90064450D01*
X96397264Y-90047906D01*
X96391789Y-90028186D01*
X96385574Y-90005915D01*
X96378796Y-89981718D01*
X96371630Y-89956219D01*
X96364253Y-89930045D01*
X96356843Y-89903821D01*
X96349574Y-89878171D01*
X96342624Y-89853720D01*
X96336169Y-89831095D01*
X96330386Y-89810920D01*
X96325450Y-89793820D01*
X96321539Y-89780421D01*
X96318828Y-89771347D01*
X96317495Y-89767225D01*
X96316872Y-89767422D01*
X96314651Y-89772322D01*
X96310947Y-89782897D01*
X96305764Y-89799135D01*
X96299108Y-89821021D01*
X96290982Y-89848539D01*
X96281392Y-89881675D01*
X96270341Y-89920414D01*
X96264832Y-89939841D01*
X96256705Y-89968521D01*
X96249127Y-89995284D01*
X96242249Y-90019594D01*
X96236223Y-90040916D01*
X96231200Y-90058714D01*
X96227331Y-90072451D01*
X96224768Y-90081592D01*
X96223663Y-90085601D01*
X96221953Y-90092229D01*
X95992984Y-90092229D01*
X96029293Y-89975128D01*
X96185721Y-89470633D01*
X96312837Y-89470633D01*
X96331350Y-89470637D01*
X96358934Y-89470670D01*
X96381446Y-89470755D01*
X96399408Y-89470912D01*
X96413338Y-89471162D01*
X96423756Y-89471526D01*
X96431183Y-89472026D01*
X96436137Y-89472681D01*
X96439139Y-89473512D01*
X96440709Y-89474541D01*
X96441366Y-89475789D01*
X96441595Y-89476561D01*
X96443333Y-89482247D01*
X96446662Y-89493050D01*
X96451472Y-89508623D01*
X96457656Y-89528620D01*
X96465107Y-89552694D01*
X96473718Y-89580499D01*
X96483380Y-89611689D01*
X96493986Y-89645915D01*
X96505428Y-89682833D01*
X96517600Y-89722094D01*
X96530393Y-89763354D01*
X96543700Y-89806264D01*
X96557413Y-89850479D01*
X96571426Y-89895651D01*
X96585629Y-89941435D01*
X96599916Y-89987484D01*
X96614180Y-90033450D01*
X96628312Y-90078988D01*
X96631345Y-90088759D01*
X96642205Y-90123750D01*
G37*
G36*
X97115264Y-89453851D02*
G01*
X97126035Y-89454155D01*
X97162560Y-89456170D01*
X97194910Y-89459794D01*
X97224328Y-89465300D01*
X97252056Y-89472958D01*
X97279339Y-89483040D01*
X97307419Y-89495817D01*
X97334563Y-89510511D01*
X97374070Y-89537287D01*
X97410130Y-89568620D01*
X97442600Y-89604280D01*
X97471337Y-89644034D01*
X97496198Y-89687650D01*
X97517040Y-89734897D01*
X97533720Y-89785542D01*
X97546096Y-89839353D01*
X97554025Y-89896099D01*
X97556624Y-89933733D01*
X97557398Y-89981692D01*
X97555713Y-90030808D01*
X97551652Y-90078872D01*
X97545302Y-90123680D01*
X97542529Y-90138140D01*
X97532202Y-90179514D01*
X97518649Y-90220399D01*
X97502400Y-90259471D01*
X97483985Y-90295405D01*
X97463935Y-90326875D01*
X97450992Y-90344017D01*
X97418259Y-90380730D01*
X97382174Y-90412609D01*
X97342792Y-90439624D01*
X97300168Y-90461745D01*
X97254357Y-90478941D01*
X97205415Y-90491182D01*
X97153395Y-90498437D01*
X97152762Y-90498493D01*
X97097598Y-90501000D01*
X97044220Y-90498543D01*
X96991932Y-90490986D01*
X96940037Y-90478192D01*
X96887840Y-90460028D01*
X96834643Y-90436356D01*
X96788196Y-90413557D01*
X96788966Y-90294873D01*
X96789736Y-90176189D01*
X96799388Y-90175260D01*
X96800352Y-90175182D01*
X96804869Y-90175432D01*
X96809573Y-90177238D01*
X96815457Y-90181253D01*
X96823515Y-90188132D01*
X96834740Y-90198527D01*
X96859319Y-90220316D01*
X96888741Y-90243307D01*
X96918617Y-90263627D01*
X96948034Y-90280708D01*
X96976081Y-90293978D01*
X97001844Y-90302868D01*
X97005216Y-90303709D01*
X97023271Y-90306855D01*
X97044421Y-90308887D01*
X97066468Y-90309710D01*
X97087213Y-90309229D01*
X97104458Y-90307347D01*
X97114534Y-90305374D01*
X97150045Y-90295033D01*
X97182155Y-90279961D01*
X97210968Y-90260076D01*
X97236590Y-90235296D01*
X97259126Y-90205538D01*
X97278680Y-90170721D01*
X97284581Y-90158052D01*
X97294939Y-90132348D01*
X97302932Y-90106495D01*
X97308775Y-90079372D01*
X97312686Y-90049861D01*
X97314879Y-90016839D01*
X97315571Y-89979188D01*
X97315553Y-89972954D01*
X97314031Y-89928261D01*
X97309920Y-89887952D01*
X97303013Y-89851131D01*
X97293103Y-89816899D01*
X97279985Y-89784359D01*
X97263451Y-89752613D01*
X97261958Y-89750131D01*
X97251507Y-89735599D01*
X97237732Y-89719673D01*
X97221939Y-89703618D01*
X97205435Y-89688703D01*
X97189527Y-89676194D01*
X97175523Y-89667359D01*
X97158264Y-89659056D01*
X97137862Y-89651488D01*
X97116944Y-89646575D01*
X97093784Y-89643935D01*
X97066655Y-89643184D01*
X97050689Y-89643292D01*
X97037809Y-89643702D01*
X97027670Y-89644638D01*
X97018645Y-89646329D01*
X97009106Y-89649002D01*
X96997425Y-89652887D01*
X96972416Y-89662404D01*
X96947677Y-89674020D01*
X96923353Y-89687965D01*
X96898473Y-89704848D01*
X96872067Y-89725278D01*
X96843168Y-89749865D01*
X96832729Y-89758994D01*
X96823026Y-89767119D01*
X96815903Y-89772369D01*
X96810391Y-89775358D01*
X96805521Y-89776701D01*
X96800322Y-89777012D01*
X96788263Y-89777012D01*
X96788263Y-89656212D01*
X96788263Y-89535412D01*
X96830243Y-89515100D01*
X96834568Y-89513012D01*
X96857876Y-89501995D01*
X96877577Y-89493217D01*
X96895006Y-89486163D01*
X96911497Y-89480322D01*
X96928385Y-89475180D01*
X96947006Y-89470224D01*
X96968158Y-89465214D01*
X96995049Y-89460026D01*
X97021692Y-89456443D01*
X97049600Y-89454318D01*
X97080286Y-89453503D01*
X97115264Y-89453851D01*
G37*
G36*
X104162387Y-88153895D02*
G01*
X104178626Y-88202578D01*
X104194107Y-88248982D01*
X104208737Y-88292832D01*
X104222423Y-88333852D01*
X104235074Y-88371765D01*
X104246598Y-88406296D01*
X104256902Y-88437169D01*
X104265895Y-88464108D01*
X104273484Y-88486837D01*
X104279578Y-88505081D01*
X104284083Y-88518563D01*
X104286909Y-88527007D01*
X104287963Y-88530138D01*
X104287471Y-88530902D01*
X104284546Y-88531683D01*
X104278674Y-88532322D01*
X104269435Y-88532830D01*
X104256407Y-88533218D01*
X104239171Y-88533500D01*
X104217306Y-88533686D01*
X104190390Y-88533789D01*
X104158004Y-88533821D01*
X104026720Y-88533821D01*
X104017979Y-88505098D01*
X104015903Y-88498274D01*
X104011240Y-88482925D01*
X104005696Y-88464659D01*
X103999795Y-88445206D01*
X103994062Y-88426293D01*
X103990821Y-88415601D01*
X103984928Y-88396167D01*
X103979168Y-88377184D01*
X103974065Y-88360381D01*
X103970145Y-88347489D01*
X103961403Y-88318766D01*
X103798156Y-88318766D01*
X103634909Y-88318766D01*
X103626162Y-88347489D01*
X103625308Y-88350297D01*
X103621383Y-88363236D01*
X103616278Y-88380108D01*
X103610393Y-88399581D01*
X103604131Y-88420329D01*
X103597894Y-88441023D01*
X103595327Y-88449535D01*
X103589535Y-88468689D01*
X103584179Y-88486328D01*
X103579573Y-88501418D01*
X103576033Y-88512928D01*
X103573871Y-88519827D01*
X103569371Y-88533821D01*
X103435567Y-88533821D01*
X103412659Y-88533788D01*
X103386749Y-88533667D01*
X103363219Y-88533466D01*
X103342656Y-88533196D01*
X103325643Y-88532864D01*
X103312767Y-88532482D01*
X103304612Y-88532059D01*
X103301763Y-88531605D01*
X103302521Y-88529124D01*
X103305054Y-88521305D01*
X103309277Y-88508422D01*
X103315100Y-88490749D01*
X103322431Y-88468560D01*
X103331180Y-88442131D01*
X103341254Y-88411735D01*
X103352564Y-88377648D01*
X103365017Y-88340144D01*
X103378523Y-88299498D01*
X103392990Y-88255984D01*
X103408328Y-88209877D01*
X103424444Y-88161453D01*
X103436512Y-88125210D01*
X103693575Y-88125210D01*
X103695997Y-88125652D01*
X103703682Y-88126095D01*
X103715987Y-88126486D01*
X103732248Y-88126813D01*
X103751805Y-88127063D01*
X103773995Y-88127223D01*
X103798156Y-88127279D01*
X103820514Y-88127232D01*
X103842880Y-88127082D01*
X103862663Y-88126842D01*
X103879203Y-88126525D01*
X103891836Y-88126143D01*
X103899902Y-88125710D01*
X103902737Y-88125239D01*
X103902737Y-88125222D01*
X103901858Y-88121869D01*
X103899441Y-88113552D01*
X103895666Y-88100859D01*
X103890715Y-88084380D01*
X103884766Y-88064703D01*
X103878002Y-88042418D01*
X103870602Y-88018113D01*
X103862748Y-87992378D01*
X103854618Y-87965802D01*
X103846395Y-87938973D01*
X103838259Y-87912481D01*
X103830389Y-87886915D01*
X103822968Y-87862863D01*
X103816174Y-87840915D01*
X103810190Y-87821660D01*
X103805194Y-87805687D01*
X103801369Y-87793585D01*
X103798893Y-87785942D01*
X103797949Y-87783348D01*
X103797054Y-87785948D01*
X103794614Y-87793627D01*
X103790817Y-87805789D01*
X103785845Y-87821840D01*
X103779878Y-87841186D01*
X103773099Y-87863231D01*
X103765689Y-87887384D01*
X103757830Y-87913048D01*
X103749702Y-87939630D01*
X103741487Y-87966536D01*
X103733366Y-87993171D01*
X103725522Y-88018942D01*
X103718134Y-88043253D01*
X103711386Y-88065511D01*
X103705458Y-88085123D01*
X103700531Y-88101492D01*
X103696787Y-88114026D01*
X103694408Y-88122130D01*
X103693575Y-88125210D01*
X103436512Y-88125210D01*
X103441249Y-88110984D01*
X103458650Y-88058747D01*
X103476557Y-88005016D01*
X103651351Y-87480643D01*
X103794340Y-87479878D01*
X103937329Y-87479114D01*
X104111984Y-88002785D01*
X104127998Y-88050797D01*
X104145480Y-88103209D01*
X104152823Y-88125222D01*
X104162387Y-88153895D01*
G37*
G36*
X100134679Y-90025767D02*
G01*
X100133631Y-90047935D01*
X100132149Y-90065716D01*
X100128825Y-90091380D01*
X100118025Y-90148578D01*
X100102986Y-90202106D01*
X100083768Y-90251822D01*
X100060431Y-90297584D01*
X100033034Y-90339249D01*
X100001637Y-90376676D01*
X99976454Y-90401128D01*
X99939695Y-90430068D01*
X99899916Y-90454085D01*
X99856942Y-90473266D01*
X99810604Y-90487696D01*
X99760729Y-90497462D01*
X99758557Y-90497763D01*
X99737051Y-90499703D01*
X99709796Y-90500590D01*
X99676769Y-90500425D01*
X99639187Y-90498877D01*
X99603771Y-90495362D01*
X99571417Y-90489621D01*
X99540791Y-90481354D01*
X99510560Y-90470262D01*
X99479390Y-90456044D01*
X99442134Y-90434778D01*
X99404972Y-90407162D01*
X99371012Y-90374888D01*
X99340494Y-90338246D01*
X99313656Y-90297523D01*
X99290736Y-90253009D01*
X99271974Y-90204993D01*
X99270816Y-90201498D01*
X99259959Y-90164781D01*
X99251587Y-90127880D01*
X99245561Y-90089708D01*
X99241742Y-90049181D01*
X99239992Y-90005212D01*
X99240105Y-89974518D01*
X99479151Y-89974518D01*
X99480793Y-90026213D01*
X99481958Y-90042472D01*
X99485869Y-90079106D01*
X99491481Y-90111667D01*
X99499076Y-90141344D01*
X99508937Y-90169328D01*
X99521348Y-90196811D01*
X99524860Y-90203643D01*
X99543970Y-90234614D01*
X99565687Y-90260306D01*
X99590022Y-90280728D01*
X99616985Y-90295892D01*
X99646589Y-90305805D01*
X99658041Y-90308006D01*
X99686247Y-90309931D01*
X99715423Y-90307640D01*
X99743678Y-90301358D01*
X99769117Y-90291309D01*
X99781176Y-90283796D01*
X99795563Y-90272419D01*
X99810222Y-90258855D01*
X99823639Y-90244507D01*
X99834302Y-90230781D01*
X99840065Y-90221908D01*
X99858700Y-90186718D01*
X99873607Y-90147172D01*
X99884745Y-90103466D01*
X99892070Y-90055796D01*
X99895541Y-90004359D01*
X99895115Y-89949351D01*
X99891194Y-89896908D01*
X99884000Y-89849067D01*
X99873510Y-89805908D01*
X99859696Y-89767311D01*
X99842529Y-89733154D01*
X99837306Y-89725116D01*
X99825235Y-89709772D01*
X99810778Y-89694238D01*
X99795287Y-89679823D01*
X99780117Y-89667840D01*
X99766621Y-89659601D01*
X99738428Y-89648855D01*
X99707399Y-89642871D01*
X99675775Y-89642322D01*
X99644646Y-89647318D01*
X99628321Y-89652158D01*
X99605072Y-89662208D01*
X99583977Y-89675948D01*
X99563274Y-89694398D01*
X99555218Y-89703029D01*
X99535634Y-89729459D01*
X99518798Y-89760643D01*
X99504804Y-89796200D01*
X99493748Y-89835747D01*
X99485724Y-89878903D01*
X99480827Y-89925287D01*
X99479151Y-89974518D01*
X99240105Y-89974518D01*
X99240170Y-89956715D01*
X99240693Y-89936265D01*
X99241833Y-89908043D01*
X99243489Y-89883534D01*
X99245811Y-89861409D01*
X99248948Y-89840340D01*
X99253052Y-89818999D01*
X99258270Y-89796055D01*
X99264862Y-89771094D01*
X99282060Y-89720629D01*
X99303490Y-89673792D01*
X99329007Y-89630783D01*
X99358468Y-89591803D01*
X99391729Y-89557055D01*
X99428648Y-89526737D01*
X99469079Y-89501052D01*
X99483546Y-89493530D01*
X99523077Y-89477084D01*
X99565642Y-89464609D01*
X99610412Y-89456096D01*
X99656556Y-89451535D01*
X99703246Y-89450916D01*
X99749650Y-89454227D01*
X99794940Y-89461459D01*
X99838285Y-89472601D01*
X99878856Y-89487644D01*
X99915822Y-89506577D01*
X99945735Y-89526328D01*
X99982939Y-89556945D01*
X100016320Y-89591924D01*
X100045803Y-89631134D01*
X100071313Y-89674442D01*
X100092774Y-89721716D01*
X100110112Y-89772824D01*
X100123251Y-89827633D01*
X100132115Y-89886013D01*
X100133424Y-89901200D01*
X100134540Y-89922982D01*
X100135224Y-89947818D01*
X100135475Y-89974220D01*
X100135294Y-90000699D01*
X100135204Y-90004359D01*
X100134679Y-90025767D01*
G37*
G36*
X103197938Y-88003549D02*
G01*
X103197974Y-88029495D01*
X103198037Y-88083894D01*
X103198084Y-88136585D01*
X103198114Y-88187269D01*
X103198120Y-88208412D01*
X103198127Y-88235646D01*
X103198124Y-88281419D01*
X103198106Y-88324288D01*
X103198072Y-88363954D01*
X103198023Y-88400120D01*
X103197960Y-88432485D01*
X103197882Y-88460751D01*
X103197791Y-88484619D01*
X103197686Y-88503791D01*
X103197568Y-88517967D01*
X103197437Y-88526849D01*
X103197294Y-88530138D01*
X103197249Y-88530223D01*
X103195567Y-88530944D01*
X103191363Y-88531569D01*
X103184300Y-88532103D01*
X103174041Y-88532553D01*
X103160248Y-88532923D01*
X103142586Y-88533220D01*
X103120716Y-88533450D01*
X103094303Y-88533618D01*
X103063009Y-88533730D01*
X103026496Y-88533792D01*
X102984429Y-88533810D01*
X102981545Y-88533810D01*
X102931685Y-88533754D01*
X102887279Y-88533593D01*
X102847914Y-88533313D01*
X102813176Y-88532903D01*
X102782651Y-88532347D01*
X102755925Y-88531634D01*
X102732585Y-88530751D01*
X102712217Y-88529684D01*
X102694406Y-88528420D01*
X102678739Y-88526947D01*
X102664802Y-88525250D01*
X102652181Y-88523318D01*
X102615394Y-88515491D01*
X102572037Y-88501771D01*
X102532046Y-88483917D01*
X102495698Y-88462153D01*
X102463268Y-88436699D01*
X102435033Y-88407780D01*
X102411269Y-88375617D01*
X102392252Y-88340434D01*
X102378258Y-88302454D01*
X102371680Y-88274681D01*
X102367000Y-88238640D01*
X102366221Y-88203991D01*
X102636024Y-88203991D01*
X102637507Y-88227350D01*
X102643726Y-88253952D01*
X102654756Y-88277265D01*
X102670556Y-88297175D01*
X102674565Y-88300752D01*
X102687492Y-88309511D01*
X102704064Y-88318124D01*
X102722754Y-88325847D01*
X102742032Y-88331938D01*
X102748718Y-88333433D01*
X102757309Y-88334739D01*
X102768173Y-88335805D01*
X102782032Y-88336677D01*
X102799610Y-88337399D01*
X102821633Y-88338017D01*
X102848823Y-88338576D01*
X102936465Y-88340163D01*
X102936465Y-88208412D01*
X102936465Y-88076660D01*
X102838512Y-88077983D01*
X102810189Y-88078401D01*
X102786560Y-88078885D01*
X102767368Y-88079519D01*
X102751882Y-88080396D01*
X102739368Y-88081607D01*
X102729094Y-88083245D01*
X102720327Y-88085401D01*
X102712334Y-88088167D01*
X102704384Y-88091635D01*
X102695742Y-88095898D01*
X102688986Y-88099559D01*
X102669472Y-88113642D01*
X102654606Y-88130788D01*
X102644200Y-88151337D01*
X102638069Y-88175625D01*
X102636024Y-88203991D01*
X102366221Y-88203991D01*
X102366180Y-88202161D01*
X102369122Y-88166297D01*
X102375729Y-88132102D01*
X102385902Y-88100631D01*
X102399544Y-88072939D01*
X102407871Y-88060318D01*
X102429439Y-88034796D01*
X102455531Y-88011658D01*
X102485356Y-87991475D01*
X102518122Y-87974817D01*
X102553040Y-87962255D01*
X102557347Y-87960973D01*
X102567424Y-87957631D01*
X102574432Y-87954797D01*
X102577059Y-87952978D01*
X102576385Y-87951881D01*
X102571880Y-87948455D01*
X102564539Y-87944275D01*
X102536286Y-87927195D01*
X102508648Y-87904159D01*
X102484799Y-87877086D01*
X102465134Y-87846507D01*
X102450048Y-87812952D01*
X102439935Y-87776951D01*
X102439875Y-87776602D01*
X102701353Y-87776602D01*
X102702917Y-87799519D01*
X102707420Y-87821333D01*
X102715342Y-87841770D01*
X102726784Y-87858283D01*
X102742280Y-87871443D01*
X102762366Y-87881821D01*
X102787577Y-87889991D01*
X102791287Y-87890854D01*
X102800348Y-87892304D01*
X102812008Y-87893354D01*
X102827089Y-87894048D01*
X102846412Y-87894431D01*
X102870800Y-87894549D01*
X102936465Y-87894549D01*
X102936465Y-87784076D01*
X102936465Y-87673602D01*
X102882701Y-87673654D01*
X102875705Y-87673674D01*
X102841812Y-87674282D01*
X102813130Y-87675856D01*
X102789125Y-87678569D01*
X102769267Y-87682592D01*
X102753022Y-87688099D01*
X102739858Y-87695260D01*
X102729243Y-87704250D01*
X102720644Y-87715238D01*
X102713531Y-87728399D01*
X102711247Y-87733585D01*
X102704021Y-87755351D01*
X102701353Y-87776602D01*
X102439875Y-87776602D01*
X102437657Y-87763624D01*
X102436333Y-87749584D01*
X102435990Y-87733555D01*
X102436526Y-87713613D01*
X102436536Y-87713361D01*
X102438050Y-87689602D01*
X102440670Y-87669797D01*
X102444838Y-87652060D01*
X102450996Y-87634508D01*
X102459584Y-87615257D01*
X102474700Y-87589864D01*
X102495383Y-87565507D01*
X102520529Y-87543682D01*
X102549530Y-87524843D01*
X102581776Y-87509446D01*
X102616657Y-87497945D01*
X102629766Y-87494811D01*
X102645180Y-87491801D01*
X102662250Y-87489170D01*
X102681359Y-87486900D01*
X102702892Y-87484972D01*
X102727235Y-87483371D01*
X102754773Y-87482076D01*
X102785890Y-87481071D01*
X102820972Y-87480338D01*
X102860403Y-87479858D01*
X102904568Y-87479614D01*
X102953852Y-87479589D01*
X103008641Y-87479764D01*
X103197182Y-87480643D01*
X103197621Y-87784076D01*
X103197938Y-88003549D01*
G37*
G36*
X100001580Y-88003549D02*
G01*
X100001615Y-88029454D01*
X100001678Y-88083859D01*
X100001723Y-88136559D01*
X100001750Y-88187254D01*
X100001754Y-88208681D01*
X100001759Y-88235645D01*
X100001752Y-88281433D01*
X100001729Y-88324319D01*
X100001689Y-88364004D01*
X100001634Y-88400189D01*
X100001563Y-88432576D01*
X100001478Y-88460864D01*
X100001379Y-88484756D01*
X100001265Y-88503952D01*
X100001138Y-88518153D01*
X100000998Y-88527060D01*
X100000845Y-88530374D01*
X100000257Y-88530876D01*
X99997861Y-88531519D01*
X99993333Y-88532065D01*
X99986330Y-88532517D01*
X99976511Y-88532878D01*
X99963535Y-88533152D01*
X99947058Y-88533343D01*
X99926741Y-88533454D01*
X99902241Y-88533489D01*
X99873216Y-88533451D01*
X99839324Y-88533344D01*
X99800225Y-88533172D01*
X99755575Y-88532937D01*
X99724675Y-88532762D01*
X99682344Y-88532497D01*
X99645163Y-88532216D01*
X99612685Y-88531899D01*
X99584464Y-88531524D01*
X99560052Y-88531070D01*
X99539003Y-88530517D01*
X99520868Y-88529843D01*
X99505203Y-88529029D01*
X99491558Y-88528053D01*
X99479488Y-88526894D01*
X99468545Y-88525531D01*
X99458282Y-88523944D01*
X99448252Y-88522112D01*
X99438008Y-88520014D01*
X99427103Y-88517629D01*
X99408833Y-88513102D01*
X99366766Y-88498917D01*
X99327841Y-88480365D01*
X99292382Y-88457738D01*
X99260714Y-88431329D01*
X99233162Y-88401430D01*
X99210052Y-88368335D01*
X99191708Y-88332336D01*
X99178456Y-88293725D01*
X99177148Y-88288739D01*
X99174617Y-88278169D01*
X99172834Y-88268461D01*
X99171672Y-88258265D01*
X99171002Y-88246229D01*
X99170696Y-88231004D01*
X99170626Y-88211239D01*
X99170695Y-88194308D01*
X99439771Y-88194308D01*
X99440091Y-88210595D01*
X99440711Y-88225080D01*
X99441717Y-88236450D01*
X99443417Y-88245366D01*
X99446158Y-88253602D01*
X99450283Y-88262932D01*
X99455685Y-88273308D01*
X99462491Y-88284466D01*
X99468617Y-88292749D01*
X99473990Y-88297971D01*
X99487178Y-88307436D01*
X99503868Y-88316601D01*
X99522583Y-88324694D01*
X99541843Y-88330944D01*
X99548755Y-88332646D01*
X99556420Y-88334129D01*
X99565119Y-88335309D01*
X99575662Y-88336240D01*
X99588858Y-88336981D01*
X99605518Y-88337586D01*
X99626450Y-88338111D01*
X99652465Y-88338614D01*
X99740107Y-88340163D01*
X99740107Y-88208681D01*
X99740107Y-88077198D01*
X99656360Y-88077198D01*
X99655991Y-88077198D01*
X99621374Y-88077397D01*
X99592001Y-88078076D01*
X99567241Y-88079372D01*
X99546463Y-88081418D01*
X99529035Y-88084349D01*
X99514327Y-88088301D01*
X99501706Y-88093408D01*
X99490541Y-88099805D01*
X99480202Y-88107627D01*
X99470057Y-88117010D01*
X99469253Y-88117811D01*
X99459950Y-88127637D01*
X99453757Y-88135929D01*
X99449358Y-88144789D01*
X99445437Y-88156318D01*
X99444077Y-88160956D01*
X99441570Y-88171456D01*
X99440200Y-88181918D01*
X99439771Y-88194308D01*
X99170695Y-88194308D01*
X99170696Y-88194117D01*
X99171020Y-88177572D01*
X99171704Y-88164616D01*
X99172853Y-88153985D01*
X99174571Y-88144416D01*
X99176962Y-88134644D01*
X99184433Y-88111335D01*
X99199939Y-88078134D01*
X99220169Y-88048362D01*
X99244998Y-88022145D01*
X99274300Y-87999610D01*
X99307951Y-87980882D01*
X99345822Y-87966085D01*
X99347004Y-87965706D01*
X99360109Y-87961331D01*
X99370803Y-87957465D01*
X99378013Y-87954517D01*
X99380665Y-87952892D01*
X99380565Y-87952629D01*
X99377265Y-87949951D01*
X99370232Y-87945592D01*
X99360743Y-87940356D01*
X99333008Y-87922861D01*
X99306768Y-87899869D01*
X99284136Y-87872868D01*
X99265551Y-87842474D01*
X99251452Y-87809301D01*
X99244520Y-87782603D01*
X99506020Y-87782603D01*
X99506126Y-87790231D01*
X99507344Y-87808538D01*
X99510257Y-87823359D01*
X99515294Y-87836390D01*
X99522883Y-87849332D01*
X99527051Y-87854827D01*
X99540974Y-87867810D01*
X99558916Y-87879107D01*
X99579553Y-87887817D01*
X99581268Y-87888350D01*
X99587914Y-87889886D01*
X99596603Y-87891103D01*
X99608107Y-87892055D01*
X99623194Y-87892793D01*
X99642633Y-87893372D01*
X99667195Y-87893843D01*
X99740107Y-87895002D01*
X99740107Y-87784302D01*
X99740107Y-87673602D01*
X99686343Y-87673682D01*
X99684925Y-87673685D01*
X99651934Y-87674087D01*
X99624162Y-87675219D01*
X99600993Y-87677205D01*
X99581808Y-87680166D01*
X99565991Y-87684226D01*
X99552925Y-87689507D01*
X99541992Y-87696131D01*
X99532575Y-87704222D01*
X99523002Y-87715669D01*
X99513378Y-87734204D01*
X99507772Y-87756352D01*
X99506020Y-87782603D01*
X99244520Y-87782603D01*
X99242278Y-87773967D01*
X99241639Y-87770062D01*
X99239842Y-87751661D01*
X99239188Y-87730183D01*
X99239645Y-87707783D01*
X99241184Y-87686612D01*
X99243773Y-87668823D01*
X99247525Y-87654491D01*
X99254365Y-87635249D01*
X99263082Y-87615411D01*
X99263960Y-87613605D01*
X99271876Y-87598343D01*
X99279413Y-87586347D01*
X99288024Y-87575543D01*
X99299161Y-87563856D01*
X99313767Y-87550645D01*
X99342850Y-87530212D01*
X99376085Y-87513280D01*
X99412926Y-87500111D01*
X99452827Y-87490962D01*
X99458829Y-87489993D01*
X99476563Y-87487668D01*
X99497380Y-87485659D01*
X99521591Y-87483955D01*
X99549508Y-87482546D01*
X99581442Y-87481424D01*
X99617705Y-87480578D01*
X99658609Y-87479999D01*
X99704466Y-87479676D01*
X99755586Y-87479601D01*
X99812283Y-87479764D01*
X100000824Y-87480643D01*
X100001263Y-87784302D01*
X100001580Y-88003549D01*
G37*
G36*
X103265593Y-82866168D02*
G01*
X103242018Y-82956021D01*
X103213997Y-83046090D01*
X103181556Y-83136122D01*
X103144718Y-83225861D01*
X103103508Y-83315054D01*
X103057949Y-83403445D01*
X103049641Y-83418567D01*
X103019738Y-83470521D01*
X102987095Y-83523856D01*
X102952493Y-83577413D01*
X102916712Y-83630036D01*
X102880533Y-83680568D01*
X102844736Y-83727851D01*
X102810103Y-83770730D01*
X102786200Y-83799230D01*
X102786947Y-84192390D01*
X102787695Y-84585551D01*
X103326804Y-84275772D01*
X103865913Y-83965994D01*
X103866652Y-82015188D01*
X103867390Y-80064381D01*
X103875490Y-80058550D01*
X103879008Y-80056147D01*
X103887095Y-80050718D01*
X103899300Y-80042566D01*
X103915218Y-80031960D01*
X103934447Y-80019168D01*
X103956581Y-80004460D01*
X103981215Y-79988104D01*
X104007945Y-79970369D01*
X104036367Y-79951525D01*
X104066075Y-79931839D01*
X104248562Y-79810959D01*
X104258484Y-79829320D01*
X104280680Y-79871075D01*
X104309856Y-79927829D01*
X104339219Y-79986888D01*
X104367896Y-80046458D01*
X104395009Y-80104744D01*
X104419686Y-80159951D01*
X104438065Y-80202657D01*
X104498549Y-80352746D01*
X104553464Y-80504674D01*
X104602775Y-80658301D01*
X104646447Y-80813487D01*
X104684445Y-80970091D01*
X104716734Y-81127974D01*
X104743279Y-81286994D01*
X104764046Y-81447012D01*
X104778999Y-81607887D01*
X104780402Y-81627240D01*
X104788895Y-81789242D01*
X104791587Y-81950818D01*
X104788517Y-82111830D01*
X104779727Y-82272138D01*
X104765258Y-82431601D01*
X104745150Y-82590082D01*
X104719444Y-82747440D01*
X104688181Y-82903536D01*
X104651402Y-83058231D01*
X104609148Y-83211384D01*
X104561460Y-83362858D01*
X104508378Y-83512511D01*
X104449943Y-83660205D01*
X104386197Y-83805800D01*
X104317180Y-83949157D01*
X104242932Y-84090137D01*
X104163496Y-84228599D01*
X104078911Y-84364404D01*
X103989218Y-84497414D01*
X103894459Y-84627488D01*
X103857742Y-84675428D01*
X103800652Y-84747537D01*
X103743317Y-84816853D01*
X103684754Y-84884505D01*
X103623980Y-84951618D01*
X103560011Y-85019319D01*
X103491865Y-85088736D01*
X103420128Y-85159290D01*
X103346699Y-85228676D01*
X103273887Y-85294438D01*
X103200695Y-85357432D01*
X103126127Y-85418517D01*
X103049185Y-85478548D01*
X102968871Y-85538385D01*
X102838399Y-85630024D01*
X102702985Y-85718084D01*
X102564991Y-85800879D01*
X102424523Y-85878373D01*
X102281686Y-85950529D01*
X102136583Y-86017309D01*
X101989322Y-86078676D01*
X101840006Y-86134593D01*
X101688741Y-86185023D01*
X101535631Y-86229929D01*
X101380782Y-86269274D01*
X101224299Y-86303021D01*
X101066286Y-86331132D01*
X100906849Y-86353570D01*
X100746093Y-86370299D01*
X100584122Y-86381281D01*
X100583579Y-86381308D01*
X100571366Y-86381820D01*
X100556524Y-86382326D01*
X100542142Y-86382718D01*
X100517838Y-86383275D01*
X100517901Y-86154228D01*
X100517964Y-85925180D01*
X100971518Y-85660044D01*
X101425073Y-85394908D01*
X101425132Y-84865210D01*
X101425192Y-84335512D01*
X101409725Y-84329145D01*
X101390056Y-84320647D01*
X101341618Y-84296488D01*
X101293668Y-84268154D01*
X101247928Y-84236630D01*
X101241572Y-84231777D01*
X101221272Y-84215018D01*
X101199111Y-84195168D01*
X101176329Y-84173434D01*
X101154168Y-84151023D01*
X101133870Y-84129143D01*
X101116677Y-84109000D01*
X101089300Y-84073006D01*
X101051759Y-84015815D01*
X101018145Y-83954534D01*
X100988569Y-83889439D01*
X100963139Y-83820804D01*
X100941964Y-83748903D01*
X100925154Y-83674012D01*
X100912818Y-83596405D01*
X100910726Y-83579137D01*
X100903340Y-83489938D01*
X100901370Y-83399088D01*
X100904713Y-83306886D01*
X100913266Y-83213629D01*
X100926924Y-83119616D01*
X100945586Y-83025145D01*
X100951569Y-83001117D01*
X101708856Y-83001117D01*
X101709635Y-83055244D01*
X101714747Y-83107664D01*
X101724124Y-83157985D01*
X101737701Y-83205817D01*
X101755412Y-83250768D01*
X101777189Y-83292447D01*
X101802968Y-83330464D01*
X101832681Y-83364427D01*
X101856533Y-83386401D01*
X101890830Y-83411630D01*
X101927517Y-83431573D01*
X101966982Y-83446431D01*
X102009613Y-83456406D01*
X102042176Y-83460130D01*
X102084320Y-83459923D01*
X102127528Y-83454440D01*
X102171255Y-83443820D01*
X102214957Y-83428202D01*
X102258088Y-83407723D01*
X102300103Y-83382523D01*
X102309716Y-83375974D01*
X102354326Y-83341707D01*
X102395897Y-83303332D01*
X102434297Y-83261283D01*
X102469391Y-83215991D01*
X102501047Y-83167890D01*
X102529129Y-83117411D01*
X102553505Y-83064988D01*
X102574040Y-83011052D01*
X102590602Y-82956036D01*
X102603056Y-82900373D01*
X102611269Y-82844495D01*
X102615106Y-82788835D01*
X102614435Y-82733824D01*
X102609121Y-82679897D01*
X102599031Y-82627484D01*
X102584031Y-82577019D01*
X102563988Y-82528934D01*
X102555709Y-82512718D01*
X102531640Y-82473532D01*
X102503968Y-82438486D01*
X102473001Y-82407826D01*
X102439044Y-82381800D01*
X102402403Y-82360654D01*
X102363385Y-82344636D01*
X102322296Y-82333992D01*
X102302306Y-82331206D01*
X102275982Y-82329497D01*
X102248334Y-82329393D01*
X102221688Y-82330894D01*
X102198370Y-82334000D01*
X102197805Y-82334106D01*
X102149279Y-82346216D01*
X102101765Y-82363931D01*
X102055546Y-82387012D01*
X102010903Y-82415220D01*
X101968119Y-82448316D01*
X101927475Y-82486060D01*
X101889253Y-82528214D01*
X101853735Y-82574538D01*
X101821203Y-82624793D01*
X101791939Y-82678741D01*
X101784610Y-82693779D01*
X101770248Y-82724981D01*
X101758303Y-82753871D01*
X101748085Y-82782179D01*
X101738905Y-82811629D01*
X101733176Y-82832396D01*
X101720560Y-82889302D01*
X101712476Y-82945672D01*
X101708856Y-83001117D01*
X100951569Y-83001117D01*
X100969148Y-82930513D01*
X100997507Y-82836019D01*
X101030559Y-82741961D01*
X101068202Y-82648636D01*
X101110331Y-82556343D01*
X101156845Y-82465380D01*
X101207638Y-82376044D01*
X101262610Y-82288635D01*
X101321655Y-82203449D01*
X101384671Y-82120786D01*
X101451555Y-82040942D01*
X101479324Y-82010250D01*
X101513832Y-81974062D01*
X101550898Y-81936939D01*
X101589324Y-81900027D01*
X101627916Y-81864474D01*
X101665477Y-81831424D01*
X101700812Y-81802025D01*
X101759127Y-81757102D01*
X101829993Y-81707498D01*
X101902081Y-81662267D01*
X101975002Y-81621598D01*
X102048365Y-81585680D01*
X102121780Y-81554702D01*
X102194857Y-81528853D01*
X102267206Y-81508322D01*
X102338437Y-81493298D01*
X102357708Y-81490031D01*
X102379231Y-81486661D01*
X102398453Y-81484109D01*
X102416739Y-81482265D01*
X102435455Y-81481020D01*
X102455965Y-81480266D01*
X102479635Y-81479894D01*
X102507829Y-81479795D01*
X102529510Y-81479868D01*
X102556601Y-81480291D01*
X102580032Y-81481204D01*
X102601118Y-81482740D01*
X102621172Y-81485028D01*
X102641508Y-81488198D01*
X102663438Y-81492382D01*
X102688276Y-81497709D01*
X102710016Y-81502892D01*
X102771956Y-81521650D01*
X102831548Y-81545700D01*
X102888583Y-81574872D01*
X102942852Y-81609000D01*
X102994146Y-81647914D01*
X103042255Y-81691446D01*
X103086970Y-81739428D01*
X103128083Y-81791691D01*
X103165383Y-81848068D01*
X103198662Y-81908389D01*
X103224729Y-81964874D01*
X103251626Y-82035546D01*
X103273814Y-82109235D01*
X103291318Y-82185685D01*
X103304161Y-82264642D01*
X103312369Y-82345852D01*
X103315964Y-82429061D01*
X103314971Y-82514013D01*
X103309413Y-82600454D01*
X103299315Y-82688130D01*
X103284700Y-82776786D01*
X103282124Y-82788835D01*
X103265593Y-82866168D01*
G37*
G36*
X99745462Y-83099922D02*
G01*
X99759613Y-83188069D01*
X99769554Y-83275007D01*
X99775291Y-83360491D01*
X99776827Y-83444272D01*
X99774165Y-83526105D01*
X99767310Y-83605743D01*
X99756265Y-83682939D01*
X99741034Y-83757445D01*
X99721620Y-83829017D01*
X99698029Y-83897406D01*
X99670262Y-83962367D01*
X99638325Y-84023651D01*
X99602220Y-84081014D01*
X99589486Y-84098722D01*
X99565192Y-84129509D01*
X99538445Y-84160273D01*
X99510478Y-84189681D01*
X99482524Y-84216405D01*
X99455813Y-84239113D01*
X99444617Y-84247753D01*
X99393085Y-84283092D01*
X99337737Y-84314303D01*
X99279086Y-84341169D01*
X99217649Y-84363475D01*
X99153939Y-84381003D01*
X99088473Y-84393537D01*
X99078825Y-84394786D01*
X99058583Y-84396630D01*
X99034524Y-84398114D01*
X99007946Y-84399210D01*
X98980146Y-84399892D01*
X98952424Y-84400131D01*
X98926077Y-84399901D01*
X98902403Y-84399172D01*
X98882700Y-84397918D01*
X98879062Y-84397590D01*
X98802511Y-84387649D01*
X98725680Y-84371915D01*
X98648738Y-84350468D01*
X98571855Y-84323386D01*
X98495201Y-84290746D01*
X98418946Y-84252627D01*
X98343259Y-84209107D01*
X98268310Y-84160265D01*
X98194269Y-84106178D01*
X98121306Y-84046926D01*
X98114397Y-84040966D01*
X98083983Y-84013535D01*
X98051376Y-83982417D01*
X98017481Y-83948565D01*
X97983202Y-83912934D01*
X97949444Y-83876477D01*
X97917110Y-83840148D01*
X97887105Y-83804901D01*
X97860334Y-83771689D01*
X97859565Y-83770702D01*
X97829452Y-83730941D01*
X97799420Y-83689225D01*
X97770038Y-83646442D01*
X97741874Y-83603482D01*
X97715499Y-83561232D01*
X97691481Y-83520582D01*
X97670389Y-83482419D01*
X97652792Y-83447634D01*
X97646387Y-83433868D01*
X97633801Y-83405201D01*
X97619879Y-83371675D01*
X97604810Y-83333806D01*
X97588786Y-83292107D01*
X97571996Y-83247093D01*
X97554632Y-83199277D01*
X97536885Y-83149173D01*
X97518944Y-83097297D01*
X97501000Y-83044161D01*
X97483244Y-82990280D01*
X97473420Y-82960090D01*
X97270049Y-82842110D01*
X98100663Y-82842110D01*
X98100894Y-82898066D01*
X98105772Y-82954863D01*
X98115251Y-83012056D01*
X98129282Y-83069202D01*
X98147817Y-83125856D01*
X98170808Y-83181574D01*
X98198207Y-83235913D01*
X98229967Y-83288428D01*
X98252181Y-83320294D01*
X98288004Y-83365104D01*
X98326355Y-83405862D01*
X98366876Y-83442306D01*
X98409205Y-83474172D01*
X98452981Y-83501198D01*
X98497845Y-83523120D01*
X98543436Y-83539677D01*
X98589394Y-83550604D01*
X98590240Y-83550750D01*
X98608591Y-83553005D01*
X98630216Y-83554348D01*
X98653295Y-83554776D01*
X98676011Y-83554291D01*
X98696543Y-83552894D01*
X98713073Y-83550584D01*
X98742881Y-83543210D01*
X98783087Y-83528260D01*
X98820641Y-83508232D01*
X98855330Y-83483333D01*
X98886942Y-83453768D01*
X98915266Y-83419744D01*
X98940089Y-83381466D01*
X98961200Y-83339140D01*
X98978386Y-83292972D01*
X98987186Y-83261541D01*
X98997514Y-83208593D01*
X99003134Y-83153294D01*
X99004048Y-83096382D01*
X99000254Y-83038594D01*
X98991753Y-82980666D01*
X98978543Y-82923334D01*
X98961924Y-82869931D01*
X98939910Y-82813683D01*
X98914174Y-82760025D01*
X98884995Y-82709254D01*
X98852656Y-82661669D01*
X98817434Y-82617565D01*
X98779613Y-82577240D01*
X98739471Y-82540991D01*
X98697289Y-82509114D01*
X98653348Y-82481906D01*
X98607928Y-82459665D01*
X98561310Y-82442688D01*
X98513774Y-82431271D01*
X98498739Y-82429149D01*
X98473534Y-82427359D01*
X98446546Y-82427144D01*
X98419656Y-82428448D01*
X98394741Y-82431215D01*
X98373681Y-82435391D01*
X98351098Y-82442174D01*
X98310972Y-82458831D01*
X98273738Y-82480543D01*
X98239566Y-82507168D01*
X98208626Y-82538566D01*
X98181089Y-82574595D01*
X98157125Y-82615113D01*
X98147183Y-82635564D01*
X98128340Y-82683721D01*
X98114338Y-82734493D01*
X98105128Y-82787437D01*
X98100663Y-82842110D01*
X97270049Y-82842110D01*
X97172821Y-82785706D01*
X97149753Y-82772323D01*
X97111691Y-82750237D01*
X97075177Y-82729045D01*
X97040533Y-82708932D01*
X97008082Y-82690088D01*
X96978145Y-82672699D01*
X96951047Y-82656953D01*
X96927110Y-82643038D01*
X96906656Y-82631140D01*
X96890008Y-82621448D01*
X96877488Y-82614149D01*
X96869421Y-82609431D01*
X96866127Y-82607481D01*
X96860032Y-82603640D01*
X96861048Y-83265732D01*
X96861085Y-83289255D01*
X96861192Y-83350976D01*
X96861309Y-83411141D01*
X96861436Y-83469478D01*
X96861572Y-83525716D01*
X96861716Y-83579584D01*
X96861866Y-83630812D01*
X96862022Y-83679129D01*
X96862182Y-83724263D01*
X96862346Y-83765944D01*
X96862512Y-83803900D01*
X96862680Y-83837861D01*
X96862848Y-83867556D01*
X96863015Y-83892714D01*
X96863180Y-83913063D01*
X96863343Y-83928334D01*
X96863502Y-83938254D01*
X96863656Y-83942554D01*
X96865248Y-83957284D01*
X96908505Y-83982603D01*
X96910994Y-83984060D01*
X96923197Y-83991207D01*
X96940137Y-84001132D01*
X96961543Y-84013677D01*
X96987144Y-84028682D01*
X97016669Y-84045988D01*
X97049847Y-84065437D01*
X97086407Y-84086869D01*
X97126077Y-84110127D01*
X97168588Y-84135050D01*
X97213668Y-84161479D01*
X97261045Y-84189257D01*
X97310450Y-84218225D01*
X97361611Y-84248222D01*
X97414256Y-84279091D01*
X97468116Y-84310672D01*
X97522919Y-84342806D01*
X97578394Y-84375336D01*
X97634270Y-84408101D01*
X97690277Y-84440942D01*
X97746142Y-84473702D01*
X97801596Y-84506221D01*
X97856366Y-84538340D01*
X97910183Y-84569901D01*
X97962775Y-84600743D01*
X98013872Y-84630709D01*
X98063201Y-84659640D01*
X98110493Y-84687376D01*
X98155476Y-84713760D01*
X98197879Y-84738631D01*
X98237432Y-84761831D01*
X98273863Y-84783201D01*
X98306901Y-84802582D01*
X98324097Y-84812669D01*
X98346411Y-84825758D01*
X98373329Y-84841546D01*
X98404610Y-84859892D01*
X98440011Y-84880654D01*
X98479290Y-84903691D01*
X98522207Y-84928860D01*
X98568520Y-84956021D01*
X98617986Y-84985030D01*
X98670365Y-85015747D01*
X98725415Y-85048031D01*
X98782894Y-85081738D01*
X98842561Y-85116728D01*
X98904174Y-85152859D01*
X98967491Y-85189989D01*
X99032270Y-85227977D01*
X99098271Y-85266680D01*
X99165252Y-85305958D01*
X99232970Y-85345668D01*
X99301184Y-85385668D01*
X99369653Y-85425818D01*
X100240919Y-85936718D01*
X100240919Y-86160462D01*
X100240919Y-86384206D01*
X100184703Y-86382251D01*
X100124296Y-86379549D01*
X100048493Y-86374685D01*
X99969778Y-86368167D01*
X99889595Y-86360143D01*
X99809388Y-86350757D01*
X99730599Y-86340157D01*
X99654674Y-86328489D01*
X99622659Y-86323110D01*
X99465270Y-86293089D01*
X99309288Y-86257385D01*
X99154857Y-86216061D01*
X99002122Y-86169183D01*
X98851228Y-86116816D01*
X98702319Y-86059024D01*
X98555540Y-85995872D01*
X98411036Y-85927424D01*
X98268950Y-85853746D01*
X98129429Y-85774901D01*
X97992615Y-85690955D01*
X97858655Y-85601973D01*
X97727693Y-85508019D01*
X97599873Y-85409157D01*
X97557447Y-85374669D01*
X97435689Y-85270640D01*
X97318102Y-85162529D01*
X97204766Y-85050467D01*
X97095758Y-84934587D01*
X96991154Y-84815024D01*
X96891033Y-84691909D01*
X96795471Y-84565376D01*
X96704548Y-84435557D01*
X96618339Y-84302587D01*
X96536923Y-84166597D01*
X96460377Y-84027720D01*
X96388779Y-83886091D01*
X96322206Y-83741842D01*
X96260735Y-83595105D01*
X96204445Y-83446014D01*
X96153412Y-83294702D01*
X96107715Y-83141302D01*
X96067430Y-82985946D01*
X96032636Y-82828769D01*
X96003410Y-82669903D01*
X95986708Y-82560636D01*
X95967141Y-82400182D01*
X95953416Y-82239627D01*
X95945511Y-82079110D01*
X95943404Y-81918771D01*
X95947074Y-81758749D01*
X95956499Y-81599184D01*
X95971657Y-81440215D01*
X95992527Y-81281982D01*
X96019086Y-81124623D01*
X96051314Y-80968278D01*
X96089187Y-80813086D01*
X96132685Y-80659188D01*
X96181786Y-80506721D01*
X96236467Y-80355826D01*
X96296707Y-80206642D01*
X96362485Y-80059308D01*
X96433778Y-79913964D01*
X96434247Y-79913051D01*
X96444089Y-79893940D01*
X96453178Y-79876412D01*
X96461130Y-79861199D01*
X96467559Y-79849034D01*
X96472081Y-79840652D01*
X96474310Y-79836784D01*
X96474591Y-79836334D01*
X96475061Y-79835497D01*
X96475665Y-79834861D01*
X96476698Y-79834581D01*
X96478456Y-79834814D01*
X96481235Y-79835715D01*
X96485329Y-79837438D01*
X96491036Y-79840139D01*
X96498651Y-79843973D01*
X96508470Y-79849096D01*
X96520788Y-79855663D01*
X96535901Y-79863829D01*
X96554105Y-79873750D01*
X96575696Y-79885580D01*
X96600969Y-79899476D01*
X96630221Y-79915592D01*
X96663746Y-79934084D01*
X96701842Y-79955107D01*
X96744803Y-79978817D01*
X96864843Y-80045059D01*
X96865587Y-80694633D01*
X96866331Y-81344206D01*
X96967966Y-81397538D01*
X96968939Y-81398049D01*
X96986925Y-81407487D01*
X97009533Y-81419351D01*
X97036203Y-81433347D01*
X97066377Y-81449182D01*
X97099494Y-81466563D01*
X97134996Y-81485195D01*
X97172323Y-81504785D01*
X97210916Y-81525039D01*
X97250215Y-81545664D01*
X97289661Y-81566367D01*
X97328694Y-81586853D01*
X97587787Y-81722835D01*
X97603126Y-81712651D01*
X97609209Y-81708473D01*
X97619664Y-81700801D01*
X97632409Y-81690931D01*
X97647868Y-81678521D01*
X97666464Y-81663228D01*
X97688622Y-81644712D01*
X97714765Y-81622629D01*
X97726601Y-81612604D01*
X97746500Y-81595837D01*
X97762818Y-81582251D01*
X97776129Y-81571400D01*
X97787007Y-81562837D01*
X97796027Y-81556114D01*
X97803763Y-81550784D01*
X97810791Y-81546400D01*
X97817683Y-81542515D01*
X97825705Y-81538252D01*
X97884954Y-81510520D01*
X97946790Y-81488027D01*
X98011304Y-81470742D01*
X98078590Y-81458636D01*
X98081830Y-81458209D01*
X98102295Y-81456222D01*
X98126948Y-81454748D01*
X98154369Y-81453796D01*
X98183139Y-81453376D01*
X98211839Y-81453498D01*
X98239051Y-81454172D01*
X98263355Y-81455407D01*
X98283334Y-81457215D01*
X98318519Y-81462045D01*
X98397964Y-81477213D01*
X98477070Y-81498231D01*
X98555783Y-81525075D01*
X98634054Y-81557720D01*
X98711830Y-81596143D01*
X98789060Y-81640317D01*
X98865692Y-81690219D01*
X98941676Y-81745824D01*
X99016959Y-81807108D01*
X99024524Y-81813668D01*
X99045970Y-81832958D01*
X99069915Y-81855313D01*
X99095369Y-81879754D01*
X99121344Y-81905299D01*
X99146849Y-81930969D01*
X99170894Y-81955783D01*
X99192490Y-81978761D01*
X99210645Y-81998923D01*
X99274559Y-82075401D01*
X99344210Y-82167270D01*
X99409399Y-82262894D01*
X99470034Y-82362119D01*
X99526020Y-82464792D01*
X99577267Y-82570760D01*
X99623680Y-82679871D01*
X99646699Y-82740185D01*
X99677722Y-82830698D01*
X99704521Y-82920990D01*
X99727100Y-83010813D01*
X99744733Y-83096382D01*
X99745462Y-83099922D01*
G37*
G36*
X102033400Y-79810856D02*
G01*
X102033399Y-79833449D01*
X102033253Y-79863890D01*
X102032853Y-79889809D01*
X102032114Y-79912036D01*
X102030949Y-79931402D01*
X102029272Y-79948737D01*
X102026996Y-79964871D01*
X102024036Y-79980633D01*
X102020304Y-79996855D01*
X102015714Y-80014365D01*
X102010180Y-80033995D01*
X102003915Y-80054554D01*
X101981550Y-80114630D01*
X101953534Y-80173559D01*
X101919988Y-80231198D01*
X101881033Y-80287406D01*
X101836791Y-80342038D01*
X101787383Y-80394952D01*
X101732930Y-80446006D01*
X101673554Y-80495056D01*
X101609376Y-80541959D01*
X101540517Y-80586574D01*
X101524734Y-80596088D01*
X101438349Y-80644231D01*
X101348016Y-80688204D01*
X101253988Y-80727935D01*
X101156515Y-80763350D01*
X101055849Y-80794379D01*
X100952241Y-80820949D01*
X100845943Y-80842988D01*
X100737206Y-80860423D01*
X100626281Y-80873183D01*
X100513419Y-80881196D01*
X100497784Y-80881765D01*
X100476836Y-80882195D01*
X100452343Y-80882462D01*
X100425484Y-80882570D01*
X100397438Y-80882525D01*
X100369384Y-80882331D01*
X100342503Y-80881995D01*
X100317974Y-80881521D01*
X100296976Y-80880914D01*
X100280689Y-80880180D01*
X100276835Y-80879950D01*
X100175500Y-80871374D01*
X100076164Y-80858102D01*
X99979050Y-80840227D01*
X99884379Y-80817840D01*
X99792374Y-80791030D01*
X99703256Y-80759889D01*
X99617247Y-80724509D01*
X99534568Y-80684980D01*
X99455442Y-80641393D01*
X99380091Y-80593838D01*
X99308736Y-80542409D01*
X99241600Y-80487194D01*
X99178903Y-80428285D01*
X99139402Y-80386698D01*
X99090252Y-80328622D01*
X99046817Y-80269225D01*
X99009071Y-80208461D01*
X98976988Y-80146282D01*
X98950542Y-80082642D01*
X98929707Y-80017493D01*
X98914457Y-79950789D01*
X98913422Y-79945050D01*
X98911615Y-79933846D01*
X98910245Y-79922881D01*
X98909253Y-79911135D01*
X98908582Y-79897586D01*
X98908171Y-79881211D01*
X98907965Y-79860988D01*
X98907903Y-79835897D01*
X98907977Y-79815706D01*
X98908408Y-79786999D01*
X98909208Y-79762501D01*
X98910354Y-79742772D01*
X98910469Y-79741652D01*
X99825868Y-79741652D01*
X99826097Y-79768997D01*
X99828284Y-79793489D01*
X99830573Y-79806324D01*
X99836273Y-79829462D01*
X99843878Y-79854005D01*
X99852675Y-79877731D01*
X99861950Y-79898413D01*
X99862594Y-79899683D01*
X99880976Y-79931382D01*
X99903835Y-79963663D01*
X99930118Y-79995256D01*
X99958768Y-80024888D01*
X99988732Y-80051288D01*
X100031502Y-80082798D01*
X100083578Y-80114430D01*
X100139104Y-80141554D01*
X100197764Y-80164050D01*
X100259241Y-80181800D01*
X100323219Y-80194682D01*
X100389381Y-80202579D01*
X100437502Y-80204919D01*
X100497863Y-80203593D01*
X100557001Y-80197587D01*
X100614442Y-80187035D01*
X100669711Y-80172069D01*
X100722333Y-80152822D01*
X100771833Y-80129428D01*
X100817737Y-80102021D01*
X100859569Y-80070732D01*
X100877137Y-80055256D01*
X100909845Y-80021344D01*
X100937145Y-79985343D01*
X100958984Y-79947355D01*
X100975308Y-79907478D01*
X100986065Y-79865816D01*
X100991200Y-79822467D01*
X100991645Y-79804576D01*
X100988620Y-79761335D01*
X100979817Y-79718792D01*
X100965304Y-79677091D01*
X100945146Y-79636373D01*
X100919410Y-79596784D01*
X100888162Y-79558465D01*
X100851469Y-79521559D01*
X100833747Y-79505988D01*
X100788396Y-79471551D01*
X100738916Y-79440972D01*
X100685654Y-79414396D01*
X100628957Y-79391967D01*
X100569173Y-79373831D01*
X100506650Y-79360131D01*
X100441734Y-79351012D01*
X100427047Y-79349841D01*
X100402710Y-79348856D01*
X100375366Y-79348603D01*
X100346494Y-79349039D01*
X100317576Y-79350118D01*
X100290090Y-79351799D01*
X100265517Y-79354036D01*
X100245338Y-79356788D01*
X100189040Y-79368618D01*
X100135725Y-79384240D01*
X100085742Y-79403450D01*
X100039338Y-79426061D01*
X99996764Y-79451887D01*
X99958269Y-79480740D01*
X99924102Y-79512433D01*
X99894513Y-79546780D01*
X99869752Y-79583594D01*
X99850066Y-79622687D01*
X99835706Y-79663873D01*
X99835701Y-79663894D01*
X99830792Y-79686961D01*
X99827474Y-79713593D01*
X99825868Y-79741652D01*
X98910469Y-79741652D01*
X98911828Y-79728369D01*
X98923065Y-79663464D01*
X98940046Y-79594525D01*
X98961996Y-79528222D01*
X98989136Y-79463968D01*
X99021691Y-79401176D01*
X99059884Y-79339260D01*
X99066064Y-79330100D01*
X99110522Y-79270177D01*
X99159985Y-79213099D01*
X99214270Y-79158960D01*
X99273191Y-79107854D01*
X99336565Y-79059874D01*
X99404207Y-79015114D01*
X99475933Y-78973668D01*
X99551558Y-78935629D01*
X99630898Y-78901092D01*
X99713769Y-78870149D01*
X99799987Y-78842895D01*
X99889367Y-78819423D01*
X99981724Y-78799828D01*
X100076875Y-78784202D01*
X100174635Y-78772639D01*
X100195488Y-78770733D01*
X100274074Y-78765276D01*
X100353090Y-78762576D01*
X100433112Y-78762673D01*
X100514715Y-78765601D01*
X100598476Y-78771400D01*
X100684971Y-78780106D01*
X100774774Y-78791757D01*
X100868463Y-78806390D01*
X100966613Y-78824043D01*
X100972545Y-78825170D01*
X100990512Y-78828541D01*
X101006352Y-78831447D01*
X101019152Y-78833726D01*
X101027997Y-78835214D01*
X101031972Y-78835746D01*
X101032669Y-78835455D01*
X101037679Y-78832593D01*
X101047151Y-78826849D01*
X101060739Y-78818440D01*
X101078101Y-78807584D01*
X101098891Y-78794497D01*
X101122767Y-78779397D01*
X101149385Y-78762502D01*
X101178400Y-78744028D01*
X101209470Y-78724192D01*
X101242249Y-78703213D01*
X101276394Y-78681308D01*
X101516839Y-78526869D01*
X101496792Y-78515253D01*
X101495265Y-78514371D01*
X101488401Y-78510427D01*
X101476797Y-78503770D01*
X101460706Y-78494543D01*
X101440380Y-78482892D01*
X101416074Y-78468962D01*
X101388039Y-78452898D01*
X101356528Y-78434844D01*
X101321795Y-78414945D01*
X101284091Y-78393347D01*
X101243671Y-78370194D01*
X101200787Y-78345631D01*
X101155692Y-78319803D01*
X101108639Y-78292855D01*
X101059880Y-78264931D01*
X101009669Y-78236177D01*
X100958258Y-78206737D01*
X100936377Y-78194207D01*
X100885141Y-78164867D01*
X100835080Y-78136198D01*
X100786457Y-78108350D01*
X100739533Y-78081475D01*
X100694572Y-78055722D01*
X100651836Y-78031243D01*
X100611588Y-78008186D01*
X100574089Y-77986703D01*
X100539604Y-77966945D01*
X100508393Y-77949061D01*
X100480721Y-77933202D01*
X100456849Y-77919519D01*
X100437040Y-77908161D01*
X100421556Y-77899280D01*
X100410660Y-77893025D01*
X100404615Y-77889548D01*
X100400788Y-77887360D01*
X100388104Y-77880401D01*
X100377373Y-77874955D01*
X100369630Y-77871526D01*
X100365908Y-77870621D01*
X100365818Y-77870663D01*
X100362288Y-77872636D01*
X100354014Y-77877382D01*
X100341300Y-77884723D01*
X100324453Y-77894483D01*
X100303778Y-77906482D01*
X100279580Y-77920543D01*
X100252166Y-77936489D01*
X100221840Y-77954142D01*
X100188908Y-77973324D01*
X100153677Y-77993857D01*
X100116451Y-78015563D01*
X100077536Y-78038265D01*
X100037239Y-78061785D01*
X100003044Y-78081747D01*
X99955167Y-78109697D01*
X99903464Y-78139879D01*
X99848644Y-78171880D01*
X99791417Y-78205286D01*
X99732492Y-78239682D01*
X99672579Y-78274655D01*
X99612388Y-78309789D01*
X99552628Y-78344671D01*
X99494009Y-78378887D01*
X99437241Y-78412023D01*
X99383032Y-78443663D01*
X99332093Y-78473395D01*
X99323242Y-78478561D01*
X99274231Y-78507167D01*
X99223541Y-78536754D01*
X99171735Y-78566993D01*
X99119377Y-78597555D01*
X99067032Y-78628110D01*
X99015262Y-78658329D01*
X98964633Y-78687884D01*
X98915707Y-78716444D01*
X98869051Y-78743680D01*
X98825226Y-78769264D01*
X98784799Y-78792866D01*
X98748331Y-78814156D01*
X98716389Y-78832805D01*
X98689878Y-78848283D01*
X98655352Y-78868440D01*
X98616698Y-78891005D01*
X98574427Y-78915681D01*
X98529051Y-78942168D01*
X98481081Y-78970169D01*
X98431030Y-78999385D01*
X98379407Y-79029516D01*
X98326726Y-79060265D01*
X98273497Y-79091333D01*
X98220231Y-79122422D01*
X98167441Y-79153232D01*
X98115638Y-79183466D01*
X98065333Y-79212824D01*
X98042054Y-79226410D01*
X97987975Y-79257971D01*
X97931213Y-79291098D01*
X97872416Y-79325413D01*
X97812231Y-79360538D01*
X97751306Y-79396095D01*
X97690289Y-79431706D01*
X97629827Y-79466994D01*
X97570568Y-79501579D01*
X97513160Y-79535085D01*
X97458250Y-79567133D01*
X97406485Y-79597345D01*
X97358514Y-79625344D01*
X97314985Y-79650751D01*
X96980015Y-79846261D01*
X96786923Y-79739846D01*
X96785539Y-79739083D01*
X96754517Y-79721941D01*
X96725062Y-79705582D01*
X96697573Y-79690234D01*
X96672451Y-79676125D01*
X96650095Y-79663480D01*
X96630907Y-79652529D01*
X96615286Y-79643497D01*
X96603633Y-79636612D01*
X96596347Y-79632102D01*
X96593830Y-79630194D01*
X96593883Y-79629922D01*
X96595912Y-79625716D01*
X96600542Y-79617492D01*
X96607298Y-79606055D01*
X96615705Y-79592211D01*
X96625289Y-79576765D01*
X96706199Y-79452375D01*
X96798810Y-79320320D01*
X96896387Y-79191345D01*
X96998809Y-79065610D01*
X97105956Y-78943273D01*
X97115152Y-78933271D01*
X97132651Y-78914682D01*
X97153341Y-78893112D01*
X97176562Y-78869222D01*
X97201656Y-78843670D01*
X97227962Y-78817115D01*
X97254823Y-78790216D01*
X97281578Y-78763633D01*
X97307569Y-78738025D01*
X97332137Y-78714050D01*
X97354623Y-78692368D01*
X97374367Y-78673638D01*
X97390710Y-78658519D01*
X97397872Y-78652031D01*
X97519837Y-78545613D01*
X97644958Y-78444002D01*
X97773044Y-78347341D01*
X97903904Y-78255777D01*
X98037347Y-78169452D01*
X98146716Y-78103592D01*
X98288451Y-78024256D01*
X98432248Y-77950411D01*
X98578037Y-77882079D01*
X98725750Y-77819284D01*
X98875318Y-77762049D01*
X99026671Y-77710397D01*
X99179741Y-77664352D01*
X99334458Y-77623937D01*
X99490753Y-77589175D01*
X99648558Y-77560090D01*
X99807802Y-77536704D01*
X99968418Y-77519042D01*
X100116768Y-77508117D01*
X100268869Y-77502294D01*
X100422045Y-77501727D01*
X100575542Y-77506392D01*
X100728608Y-77516267D01*
X100880490Y-77531328D01*
X101030434Y-77551553D01*
X101057727Y-77555823D01*
X101216890Y-77584184D01*
X101374520Y-77618190D01*
X101530481Y-77657787D01*
X101684640Y-77702920D01*
X101836863Y-77753533D01*
X101987016Y-77809571D01*
X102134965Y-77870980D01*
X102280576Y-77937703D01*
X102423715Y-78009686D01*
X102564248Y-78086875D01*
X102702041Y-78169212D01*
X102836960Y-78256645D01*
X102968871Y-78349116D01*
X102992901Y-78366749D01*
X103119919Y-78464275D01*
X103243213Y-78566336D01*
X103362687Y-78672828D01*
X103478240Y-78783647D01*
X103589776Y-78898687D01*
X103697196Y-79017845D01*
X103800400Y-79141016D01*
X103899292Y-79268096D01*
X103993773Y-79398980D01*
X104083744Y-79533563D01*
X104084086Y-79534095D01*
X104096677Y-79553807D01*
X104106295Y-79569185D01*
X104113239Y-79580777D01*
X104117808Y-79589130D01*
X104120303Y-79594791D01*
X104121024Y-79598307D01*
X104120270Y-79600226D01*
X104119240Y-79601006D01*
X104113702Y-79604758D01*
X104103989Y-79611130D01*
X104090641Y-79619774D01*
X104074201Y-79630342D01*
X104055209Y-79642483D01*
X104034208Y-79655851D01*
X104011738Y-79670097D01*
X103989507Y-79684168D01*
X103960845Y-79702320D01*
X103931021Y-79721218D01*
X103901263Y-79740083D01*
X103872799Y-79758137D01*
X103846859Y-79774601D01*
X103824670Y-79788695D01*
X103811193Y-79797236D01*
X103792323Y-79809107D01*
X103775391Y-79819656D01*
X103761002Y-79828512D01*
X103749761Y-79835304D01*
X103742271Y-79839660D01*
X103739138Y-79841209D01*
X103737302Y-79840233D01*
X103730676Y-79836346D01*
X103719454Y-79829627D01*
X103703869Y-79820221D01*
X103684157Y-79808269D01*
X103660551Y-79793914D01*
X103633285Y-79777300D01*
X103602592Y-79758570D01*
X103568707Y-79737867D01*
X103531863Y-79715332D01*
X103492295Y-79691110D01*
X103450236Y-79665344D01*
X103405921Y-79638175D01*
X103359582Y-79609748D01*
X103311455Y-79580204D01*
X103261772Y-79549688D01*
X103210768Y-79518341D01*
X102685443Y-79195385D01*
X102671544Y-79203370D01*
X102667665Y-79205642D01*
X102658931Y-79210797D01*
X102645756Y-79218593D01*
X102628461Y-79228839D01*
X102607365Y-79241345D01*
X102582790Y-79255920D01*
X102555057Y-79272374D01*
X102524486Y-79290516D01*
X102491399Y-79310157D01*
X102456115Y-79331105D01*
X102418957Y-79353172D01*
X102380245Y-79376165D01*
X102340299Y-79399896D01*
X102022953Y-79588437D01*
X102024481Y-79601693D01*
X102025599Y-79611699D01*
X102027870Y-79634754D01*
X102029689Y-79658034D01*
X102031095Y-79682484D01*
X102032129Y-79709048D01*
X102032831Y-79738669D01*
X102033241Y-79772290D01*
X102033374Y-79804576D01*
X102033400Y-79810856D01*
G37*
G36*
X99269801Y-69944609D02*
G01*
X99269801Y-70452422D01*
X99136643Y-70452422D01*
X99003485Y-70452422D01*
X99010005Y-69951900D01*
X99016524Y-69451377D01*
X99143163Y-69444087D01*
X99269801Y-69436796D01*
X99269801Y-69944609D01*
G37*
G36*
X99269801Y-69198101D02*
G01*
X99269801Y-69318709D01*
X99137132Y-69318709D01*
X99004464Y-69318709D01*
X99004464Y-69198101D01*
X99004464Y-69077493D01*
X99137132Y-69077493D01*
X99269801Y-69077493D01*
X99269801Y-69198101D01*
G37*
G36*
X102815670Y-72200084D02*
G01*
X102815670Y-72888699D01*
X102671497Y-72888699D01*
X102527324Y-72888699D01*
X102520737Y-72465450D01*
X102514150Y-72042200D01*
X102252544Y-72465450D01*
X101990938Y-72888699D01*
X101848508Y-72888699D01*
X101706078Y-72888699D01*
X101706078Y-72201235D01*
X101706078Y-71513771D01*
X101838747Y-71513771D01*
X101971415Y-71513771D01*
X101971415Y-71965039D01*
X101971415Y-72416308D01*
X102244772Y-71971070D01*
X102518130Y-71525831D01*
X102666900Y-71518650D01*
X102815670Y-71511469D01*
X102815670Y-72200084D01*
G37*
G36*
X100451401Y-69842092D02*
G01*
X100451372Y-69864759D01*
X100450033Y-70025740D01*
X100445401Y-70147014D01*
X100435585Y-70236179D01*
X100418696Y-70300832D01*
X100392841Y-70348570D01*
X100356132Y-70386992D01*
X100306676Y-70423695D01*
X100231638Y-70459455D01*
X100115605Y-70474735D01*
X99995823Y-70452951D01*
X99886641Y-70395081D01*
X99800475Y-70329359D01*
X99800475Y-70390891D01*
X99798217Y-70422466D01*
X99783147Y-70442743D01*
X99743446Y-70450911D01*
X99667317Y-70452422D01*
X99534159Y-70452422D01*
X99540679Y-69951900D01*
X99547199Y-69451377D01*
X99679867Y-69451377D01*
X99812536Y-69451377D01*
X99824597Y-69804741D01*
X99829247Y-69919661D01*
X99838488Y-70049566D01*
X99853084Y-70141816D01*
X99875701Y-70202670D01*
X99909007Y-70238387D01*
X99955669Y-70255227D01*
X100018354Y-70259450D01*
X100066085Y-70257216D01*
X100108032Y-70245328D01*
X100137978Y-70217323D01*
X100158357Y-70166777D01*
X100171601Y-70087263D01*
X100180145Y-69972358D01*
X100186420Y-69815634D01*
X100198481Y-69451377D01*
X100325119Y-69444087D01*
X100451757Y-69436796D01*
X100451401Y-69842092D01*
G37*
G36*
X104407692Y-69763369D02*
G01*
X104407692Y-70452422D01*
X104262963Y-70452422D01*
X104118234Y-70452422D01*
X104118234Y-70203302D01*
X104118234Y-69954181D01*
X103857110Y-69930547D01*
X103829215Y-69927910D01*
X103683248Y-69908257D01*
X103575262Y-69879542D01*
X103496569Y-69837359D01*
X103438480Y-69777306D01*
X103392306Y-69694979D01*
X103355794Y-69578733D01*
X103355176Y-69519218D01*
X103642435Y-69519218D01*
X103667477Y-69594581D01*
X103734745Y-69649564D01*
X103842400Y-69682241D01*
X103877201Y-69687532D01*
X103967335Y-69698275D01*
X104039839Y-69703216D01*
X104118234Y-69704654D01*
X104118234Y-69511681D01*
X104118234Y-69318709D01*
X103939994Y-69318709D01*
X103915374Y-69318901D01*
X103798851Y-69328404D01*
X103720112Y-69355137D01*
X103671646Y-69403127D01*
X103645947Y-69476400D01*
X103642435Y-69519218D01*
X103355176Y-69519218D01*
X103354305Y-69435326D01*
X103400617Y-69295080D01*
X103413510Y-69270253D01*
X103450708Y-69207200D01*
X103490808Y-69160681D01*
X103541365Y-69128006D01*
X103609937Y-69106485D01*
X103704079Y-69093426D01*
X103831350Y-69086139D01*
X103999306Y-69081935D01*
X104407692Y-69074317D01*
X104407692Y-69511681D01*
X104407692Y-69763369D01*
G37*
G36*
X99197564Y-72572001D02*
G01*
X99137971Y-72705687D01*
X99043548Y-72808625D01*
X98916295Y-72877636D01*
X98823493Y-72902971D01*
X98667537Y-72911295D01*
X98521754Y-72877235D01*
X98393548Y-72803002D01*
X98290328Y-72690806D01*
X98228198Y-72571205D01*
X98197939Y-72437811D01*
X98477776Y-72437811D01*
X98508228Y-72544257D01*
X98569818Y-72629393D01*
X98629976Y-72671063D01*
X98716004Y-72692945D01*
X98797088Y-72675807D01*
X98866894Y-72624848D01*
X98919087Y-72545271D01*
X98947335Y-72442276D01*
X98945304Y-72321065D01*
X98935116Y-72276263D01*
X98888332Y-72186447D01*
X98817881Y-72124534D01*
X98733642Y-72094941D01*
X98645495Y-72102082D01*
X98563322Y-72150372D01*
X98511099Y-72220775D01*
X98478665Y-72325002D01*
X98477776Y-72437811D01*
X98197939Y-72437811D01*
X98195885Y-72428756D01*
X98202858Y-72288971D01*
X98245566Y-72158867D01*
X98320460Y-72045461D01*
X98423990Y-71955768D01*
X98552606Y-71896807D01*
X98702758Y-71875594D01*
X98769842Y-71878579D01*
X98924909Y-71913347D01*
X99050197Y-71984987D01*
X99143016Y-72090806D01*
X99200680Y-72228110D01*
X99220498Y-72394207D01*
X99220324Y-72410749D01*
X99215874Y-72442276D01*
X99197564Y-72572001D01*
G37*
G36*
X98739126Y-69945869D02*
G01*
X98739126Y-70452422D01*
X98608720Y-70452422D01*
X98478313Y-70452422D01*
X98470021Y-70103293D01*
X98467061Y-69993269D01*
X98462485Y-69885443D01*
X98456020Y-69811139D01*
X98446477Y-69762008D01*
X98432668Y-69729703D01*
X98413402Y-69705874D01*
X98401390Y-69694683D01*
X98321316Y-69649712D01*
X98236490Y-69642346D01*
X98161746Y-69674438D01*
X98152203Y-69682434D01*
X98132870Y-69703429D01*
X98119126Y-69732167D01*
X98109621Y-69776745D01*
X98103004Y-69845261D01*
X98097925Y-69945811D01*
X98093035Y-70086494D01*
X98081289Y-70452422D01*
X97951898Y-70452422D01*
X97822507Y-70452422D01*
X97822642Y-70096629D01*
X97822854Y-70050555D01*
X97825543Y-69918936D01*
X97830830Y-69801507D01*
X97838098Y-69709619D01*
X97846727Y-69654620D01*
X97851196Y-69639670D01*
X97904807Y-69539584D01*
X97990621Y-69475011D01*
X98109871Y-69444969D01*
X98154968Y-69441468D01*
X98260484Y-69444803D01*
X98344293Y-69471454D01*
X98423687Y-69525879D01*
X98497911Y-69588335D01*
X98497911Y-69513826D01*
X98499278Y-69476121D01*
X98511535Y-69450546D01*
X98547132Y-69440842D01*
X98618519Y-69439317D01*
X98739126Y-69439317D01*
X98739126Y-69945869D01*
G37*
G36*
X99837034Y-71878836D02*
G01*
X99925543Y-71897399D01*
X99976866Y-71925253D01*
X100035660Y-71970703D01*
X100089934Y-72022203D01*
X100089934Y-71960959D01*
X100092136Y-71929884D01*
X100107092Y-71909487D01*
X100146642Y-71901249D01*
X100222602Y-71899716D01*
X100355271Y-71899716D01*
X100355271Y-72394207D01*
X100355271Y-72888699D01*
X100210542Y-72888699D01*
X100065812Y-72888699D01*
X100065812Y-72543142D01*
X100065804Y-72516470D01*
X100065189Y-72387549D01*
X100062755Y-72296900D01*
X100057338Y-72236018D01*
X100047773Y-72196398D01*
X100032895Y-72169535D01*
X100011539Y-72146924D01*
X99999285Y-72135916D01*
X99915319Y-72084996D01*
X99837026Y-72081480D01*
X99765507Y-72125464D01*
X99753448Y-72137750D01*
X99732974Y-72162885D01*
X99719108Y-72193139D01*
X99710564Y-72237137D01*
X99706053Y-72303503D01*
X99704290Y-72400863D01*
X99703989Y-72537840D01*
X99703989Y-72888699D01*
X99571320Y-72888699D01*
X99438652Y-72888699D01*
X99438652Y-72489496D01*
X99439538Y-72347422D01*
X99444048Y-72209316D01*
X99453966Y-72106764D01*
X99471035Y-72032769D01*
X99497000Y-71980338D01*
X99533604Y-71942475D01*
X99582591Y-71912185D01*
X99630371Y-71894353D01*
X99730505Y-71878171D01*
X99837034Y-71878836D01*
G37*
G36*
X103129250Y-69763369D02*
G01*
X103129250Y-70452422D01*
X102984521Y-70452422D01*
X102839791Y-70452422D01*
X102839791Y-70203302D01*
X102839791Y-69954181D01*
X102573771Y-69930104D01*
X102532174Y-69926173D01*
X102404492Y-69910139D01*
X102311268Y-69888428D01*
X102241637Y-69856478D01*
X102184735Y-69809725D01*
X102129696Y-69743607D01*
X102123835Y-69735066D01*
X102092557Y-69654290D01*
X102077504Y-69548297D01*
X102077616Y-69537411D01*
X102365252Y-69537411D01*
X102411634Y-69617482D01*
X102442006Y-69645732D01*
X102486240Y-69668250D01*
X102552083Y-69682940D01*
X102652849Y-69694026D01*
X102839791Y-69710322D01*
X102839791Y-69514515D01*
X102839791Y-69318709D01*
X102657783Y-69318709D01*
X102649020Y-69318716D01*
X102555239Y-69320842D01*
X102494576Y-69329125D01*
X102453023Y-69347004D01*
X102416568Y-69377916D01*
X102415228Y-69379266D01*
X102366484Y-69456370D01*
X102365252Y-69537411D01*
X102077616Y-69537411D01*
X102078676Y-69434748D01*
X102096074Y-69331306D01*
X102129696Y-69255634D01*
X102139581Y-69242478D01*
X102183500Y-69188531D01*
X102226919Y-69148899D01*
X102277964Y-69121196D01*
X102344757Y-69103035D01*
X102435422Y-69092030D01*
X102558083Y-69085792D01*
X102720863Y-69081935D01*
X103129250Y-69074317D01*
X103129250Y-69514515D01*
X103129250Y-69763369D01*
G37*
G36*
X97619173Y-70038209D02*
G01*
X97580637Y-70174655D01*
X97508248Y-70294527D01*
X97404406Y-70389945D01*
X97271507Y-70453033D01*
X97124758Y-70475486D01*
X96974341Y-70456428D01*
X96836166Y-70397414D01*
X96721293Y-70301488D01*
X96720398Y-70300466D01*
X96640529Y-70181780D01*
X96601116Y-70050036D01*
X96598995Y-69894716D01*
X96599605Y-69889005D01*
X96877196Y-69889005D01*
X96879086Y-70018411D01*
X96898531Y-70111527D01*
X96938482Y-70176885D01*
X97001892Y-70223018D01*
X97060007Y-70247779D01*
X97138704Y-70254616D01*
X97222169Y-70223276D01*
X97231026Y-70218160D01*
X97297170Y-70149759D01*
X97331803Y-70045319D01*
X97334699Y-69905478D01*
X97322960Y-69830826D01*
X97279969Y-69734058D01*
X97208164Y-69675855D01*
X97107721Y-69656411D01*
X97043259Y-69668634D01*
X96963867Y-69715550D01*
X96904115Y-69785544D01*
X96878260Y-69865619D01*
X96877196Y-69889005D01*
X96599605Y-69889005D01*
X96601586Y-69870474D01*
X96639217Y-69723684D01*
X96714168Y-69605072D01*
X96829961Y-69508756D01*
X96901560Y-69472297D01*
X97036322Y-69439041D01*
X97177530Y-69440103D01*
X97313440Y-69473448D01*
X97432309Y-69537038D01*
X97522395Y-69628838D01*
X97585097Y-69747103D01*
X97621459Y-69893065D01*
X97621263Y-69905478D01*
X97619173Y-70038209D01*
G37*
G36*
X101850807Y-70452422D02*
G01*
X101507075Y-70452288D01*
X101477640Y-70452236D01*
X101312404Y-70449561D01*
X101185369Y-70441490D01*
X101087930Y-70426158D01*
X101011479Y-70401700D01*
X100947411Y-70366251D01*
X100887122Y-70317947D01*
X100846333Y-70277331D01*
X100758973Y-70148374D01*
X100707071Y-69991327D01*
X100689189Y-69802448D01*
X100689454Y-69748869D01*
X100696673Y-69650820D01*
X100986568Y-69650820D01*
X100986727Y-69821443D01*
X100989213Y-69864567D01*
X101005095Y-69995759D01*
X101033843Y-70088652D01*
X101078485Y-70150401D01*
X101142053Y-70188162D01*
X101143669Y-70188753D01*
X101199479Y-70200088D01*
X101284859Y-70208142D01*
X101382007Y-70211207D01*
X101561349Y-70211207D01*
X101561349Y-69764958D01*
X101561349Y-69318709D01*
X101378128Y-69318709D01*
X101361519Y-69318810D01*
X101224822Y-69330640D01*
X101122460Y-69365284D01*
X101050952Y-69427213D01*
X101006815Y-69520901D01*
X100986568Y-69650820D01*
X100696673Y-69650820D01*
X100702375Y-69573371D01*
X100736217Y-69432015D01*
X100793741Y-69316236D01*
X100877706Y-69217472D01*
X100888953Y-69206976D01*
X100948491Y-69159074D01*
X101012527Y-69124368D01*
X101089789Y-69100859D01*
X101189005Y-69086544D01*
X101318902Y-69079422D01*
X101488209Y-69077493D01*
X101850807Y-69077493D01*
X101850807Y-69764958D01*
X101850807Y-70452422D01*
G37*
G36*
X101482267Y-72673268D02*
G01*
X101436138Y-72773277D01*
X101346366Y-72857823D01*
X101309750Y-72878925D01*
X101193098Y-72911150D01*
X101066344Y-72902872D01*
X100941220Y-72854194D01*
X100896198Y-72828958D01*
X100856033Y-72811354D01*
X100836463Y-72816264D01*
X100825017Y-72842423D01*
X100821851Y-72850937D01*
X100800820Y-72874497D01*
X100756574Y-72885794D01*
X100676706Y-72888699D01*
X100624703Y-72888135D01*
X100574253Y-72883314D01*
X100556535Y-72870602D01*
X100562012Y-72846487D01*
X100565897Y-72831407D01*
X100573678Y-72771386D01*
X100581603Y-72677647D01*
X100588932Y-72559608D01*
X100592408Y-72482543D01*
X100862153Y-72482543D01*
X100867211Y-72548579D01*
X100898153Y-72631440D01*
X100960178Y-72684632D01*
X101053572Y-72717103D01*
X101132654Y-72708599D01*
X101191279Y-72657109D01*
X101204283Y-72633733D01*
X101212060Y-72569789D01*
X101173899Y-72515925D01*
X101090944Y-72473220D01*
X100964340Y-72442757D01*
X100935450Y-72438270D01*
X100885896Y-72434893D01*
X100865789Y-72447967D01*
X100862153Y-72482543D01*
X100592408Y-72482543D01*
X100594927Y-72426690D01*
X100600293Y-72294876D01*
X100606580Y-72184914D01*
X100614232Y-72108064D01*
X100624403Y-72056313D01*
X100638246Y-72021651D01*
X100656916Y-71996063D01*
X100690867Y-71962430D01*
X100770667Y-71911352D01*
X100871644Y-71883825D01*
X101006130Y-71875594D01*
X101074381Y-71877351D01*
X101210299Y-71896764D01*
X101312566Y-71939669D01*
X101388448Y-72008593D01*
X101427655Y-72066933D01*
X101440343Y-72121433D01*
X101410035Y-72157132D01*
X101335529Y-72177874D01*
X101331790Y-72178430D01*
X101261676Y-72184022D01*
X101214544Y-72170351D01*
X101167775Y-72131109D01*
X101137151Y-72106204D01*
X101060269Y-72075842D01*
X100981208Y-72076945D01*
X100914173Y-72107797D01*
X100873367Y-72166682D01*
X100872815Y-72168440D01*
X100866939Y-72202150D01*
X100878756Y-72227328D01*
X100915708Y-72248275D01*
X100985236Y-72269294D01*
X101094780Y-72294685D01*
X101123848Y-72301220D01*
X101255116Y-72336584D01*
X101348067Y-72374960D01*
X101411045Y-72420622D01*
X101452393Y-72477843D01*
X101483091Y-72563758D01*
X101483046Y-72569789D01*
X101482267Y-72673268D01*
G37*
G36*
X100618510Y-59920836D02*
G01*
X100974206Y-59943124D01*
X101319298Y-59980061D01*
X101646546Y-60031057D01*
X101948711Y-60095520D01*
X102218553Y-60172863D01*
X102448831Y-60262494D01*
X102565374Y-60325824D01*
X102717846Y-60441931D01*
X102846742Y-60580220D01*
X102946140Y-60732722D01*
X103010121Y-60891467D01*
X103032764Y-61048487D01*
X103032470Y-61079908D01*
X103025764Y-61156775D01*
X103005528Y-61211600D01*
X102965611Y-61264140D01*
X102954016Y-61276596D01*
X102909765Y-61312722D01*
X102858071Y-61332558D01*
X102791449Y-61335811D01*
X102702418Y-61322190D01*
X102583493Y-61291403D01*
X102427191Y-61243160D01*
X102302180Y-61205363D01*
X102174532Y-61171102D01*
X102062573Y-61145211D01*
X101981240Y-61131432D01*
X101834276Y-61115842D01*
X102010017Y-61629194D01*
X102156488Y-62058892D01*
X102309952Y-62512874D01*
X102462998Y-62969268D01*
X102614210Y-63423715D01*
X102762172Y-63871859D01*
X102905471Y-64309343D01*
X103042691Y-64731810D01*
X103172417Y-65134901D01*
X103293234Y-65514261D01*
X103403727Y-65865531D01*
X103502480Y-66184355D01*
X103588080Y-66466375D01*
X103659111Y-66707233D01*
X103662402Y-66718632D01*
X103743697Y-67014492D01*
X103804862Y-67268826D01*
X103846237Y-67483716D01*
X103868158Y-67661243D01*
X103870965Y-67803488D01*
X103854996Y-67912531D01*
X103853377Y-67918328D01*
X103800913Y-68034660D01*
X103720616Y-68134059D01*
X103624938Y-68200912D01*
X103595153Y-68211801D01*
X103490677Y-68228425D01*
X103356809Y-68228556D01*
X103204736Y-68213132D01*
X103045641Y-68183092D01*
X102890709Y-68139372D01*
X102824953Y-68116121D01*
X102617218Y-68030637D01*
X102406259Y-67928043D01*
X102208965Y-67816965D01*
X102042223Y-67706028D01*
X102027654Y-67695096D01*
X101915999Y-67600399D01*
X101811760Y-67490345D01*
X101713512Y-67361694D01*
X101619830Y-67211205D01*
X101529287Y-67035639D01*
X101440458Y-66831757D01*
X101351917Y-66596317D01*
X101262239Y-66326081D01*
X101169998Y-66017809D01*
X101073769Y-65668260D01*
X100972126Y-65274196D01*
X100967817Y-65257193D01*
X100931545Y-65121226D01*
X100884746Y-64954760D01*
X100831296Y-64771139D01*
X100775070Y-64583710D01*
X100719945Y-64405819D01*
X100681480Y-64283503D01*
X100628936Y-64115445D01*
X100566577Y-63915274D01*
X100496644Y-63690205D01*
X100421377Y-63447455D01*
X100343014Y-63194240D01*
X100263796Y-62937776D01*
X100185962Y-62685281D01*
X100160356Y-62602152D01*
X100090800Y-62376659D01*
X100025989Y-62167008D01*
X99967271Y-61977523D01*
X99915990Y-61812531D01*
X99873491Y-61676355D01*
X99841122Y-61573320D01*
X99820228Y-61507752D01*
X99812154Y-61483976D01*
X99809115Y-61482524D01*
X99779106Y-61496774D01*
X99726586Y-61538066D01*
X99659120Y-61599051D01*
X99584275Y-61672379D01*
X99509615Y-61750703D01*
X99442706Y-61826674D01*
X99391114Y-61892942D01*
X99357363Y-61942753D01*
X99252944Y-62129311D01*
X99177739Y-62327596D01*
X99129868Y-62545450D01*
X99107451Y-62790713D01*
X99108608Y-63071226D01*
X99113552Y-63167191D01*
X99136417Y-63396554D01*
X99176122Y-63599805D01*
X99236116Y-63791913D01*
X99319849Y-63987845D01*
X99337271Y-64023730D01*
X99433344Y-64199015D01*
X99541229Y-64355654D01*
X99667631Y-64500673D01*
X99819255Y-64641099D01*
X100002807Y-64783959D01*
X100224993Y-64936278D01*
X100417787Y-65068844D01*
X100568565Y-65187891D01*
X100680424Y-65296913D01*
X100756473Y-65399408D01*
X100799822Y-65498878D01*
X100813580Y-65598823D01*
X100813274Y-65611352D01*
X100786332Y-65706027D01*
X100716495Y-65780231D01*
X100604680Y-65833509D01*
X100451804Y-65865403D01*
X100258785Y-65875454D01*
X100193239Y-65874097D01*
X99910439Y-65844846D01*
X99616776Y-65776722D01*
X99308142Y-65668581D01*
X98980429Y-65519277D01*
X98963863Y-65510893D01*
X98638523Y-65322085D01*
X98341233Y-65100480D01*
X98069582Y-64843534D01*
X97821161Y-64548705D01*
X97593558Y-64213450D01*
X97384363Y-63835224D01*
X97338489Y-63741412D01*
X97177197Y-63361146D01*
X97062159Y-62994164D01*
X96993324Y-62640287D01*
X96970646Y-62299336D01*
X96970853Y-62261367D01*
X96979875Y-62052592D01*
X97004616Y-61869385D01*
X97048382Y-61693542D01*
X97114474Y-61506860D01*
X97245561Y-61234733D01*
X97422230Y-60973461D01*
X97637070Y-60737157D01*
X97887450Y-60527735D01*
X98170739Y-60347105D01*
X98484305Y-60197180D01*
X98825519Y-60079873D01*
X99191749Y-59997095D01*
X99234489Y-59989965D01*
X99560201Y-59947760D01*
X99904268Y-59922564D01*
X100259451Y-59913786D01*
X100618510Y-59920836D01*
G37*
%TD*%
M02*
