%TF.GenerationSoftware,KiCad,Pcbnew,8.0.6*%
%TF.CreationDate,2025-08-05T17:27:04-05:00*%
%TF.ProjectId,PPDuino Nano Salidas,50504475-696e-46f2-904e-616e6f205361,rev?*%
%TF.SameCoordinates,Original*%
%TF.FileFunction,Copper,L1,Top*%
%TF.FilePolarity,Positive*%
%FSLAX46Y46*%
G04 Gerber Fmt 4.6, Leading zero omitted, Abs format (unit mm)*
G04 Created by KiCad (PCBNEW 8.0.6) date 2025-08-05 17:27:04*
%MOMM*%
%LPD*%
G01*
G04 APERTURE LIST*
%TA.AperFunction,ComponentPad*%
%ADD10C,3.000000*%
%TD*%
%TA.AperFunction,ComponentPad*%
%ADD11C,2.500000*%
%TD*%
%TA.AperFunction,ComponentPad*%
%ADD12C,1.800000*%
%TD*%
%TA.AperFunction,ComponentPad*%
%ADD13O,1.800000X1.800000*%
%TD*%
%TA.AperFunction,ComponentPad*%
%ADD14R,1.800000X1.800000*%
%TD*%
%TA.AperFunction,ComponentPad*%
%ADD15R,1.600000X2.400000*%
%TD*%
%TA.AperFunction,ComponentPad*%
%ADD16O,1.600000X2.400000*%
%TD*%
%TA.AperFunction,ComponentPad*%
%ADD17R,1.980000X3.960000*%
%TD*%
%TA.AperFunction,ComponentPad*%
%ADD18O,1.980000X3.960000*%
%TD*%
%TA.AperFunction,ComponentPad*%
%ADD19R,1.500000X1.500000*%
%TD*%
%TA.AperFunction,ViaPad*%
%ADD20C,1.500000*%
%TD*%
%TA.AperFunction,Conductor*%
%ADD21C,0.600000*%
%TD*%
%TA.AperFunction,Conductor*%
%ADD22C,1.000000*%
%TD*%
%TA.AperFunction,Conductor*%
%ADD23C,1.500000*%
%TD*%
%TA.AperFunction,Conductor*%
%ADD24C,0.800000*%
%TD*%
G04 APERTURE END LIST*
D10*
%TO.P,K1,1*%
%TO.N,Net-(J14-Pin_2)*%
X141100000Y-84925000D03*
D11*
%TO.P,K1,2*%
%TO.N,Net-(D5-K)*%
X135050000Y-86875000D03*
D10*
%TO.P,K1,3*%
%TO.N,Net-(J6-Pin_3)*%
X135050000Y-99075000D03*
%TO.P,K1,4*%
%TO.N,Net-(J6-Pin_1)*%
X147100000Y-99125000D03*
D11*
%TO.P,K1,5*%
%TO.N,+5V*%
X147050000Y-86875000D03*
%TD*%
D12*
%TO.P,R14,1*%
%TO.N,Net-(Q1-B)*%
X139430000Y-77225000D03*
D13*
%TO.P,R14,2*%
%TO.N,/RLY0*%
X147050000Y-77225000D03*
%TD*%
D14*
%TO.P,D6,1,K*%
%TO.N,+5V*%
X147050000Y-80925000D03*
D13*
%TO.P,D6,2,A*%
%TO.N,Net-(D5-K)*%
X139430000Y-80925000D03*
%TD*%
D15*
%TO.P,U5,1,EN1\u002C2*%
%TO.N,+5V*%
X126225000Y-63895000D03*
D16*
%TO.P,U5,2,1A*%
%TO.N,/PWM0m*%
X128765000Y-63895000D03*
%TO.P,U5,3,1Y*%
%TO.N,/PWM0*%
X131305000Y-63895000D03*
%TO.P,U5,4,GND*%
%TO.N,GND*%
X133845000Y-63895000D03*
%TO.P,U5,5,GND*%
X136385000Y-63895000D03*
%TO.P,U5,6,2Y*%
%TO.N,/PWM1*%
X138925000Y-63895000D03*
%TO.P,U5,7,2A*%
%TO.N,/PWM1m*%
X141465000Y-63895000D03*
%TO.P,U5,8,VCC2*%
%TO.N,VDD*%
X144005000Y-63895000D03*
%TO.P,U5,9,EN3\u002C4*%
%TO.N,+5V*%
X144005000Y-56275000D03*
%TO.P,U5,10,3A*%
%TO.N,/PWM2m*%
X141465000Y-56275000D03*
%TO.P,U5,11,3Y*%
%TO.N,/PWM2*%
X138925000Y-56275000D03*
%TO.P,U5,12,GND*%
%TO.N,GND*%
X136385000Y-56275000D03*
%TO.P,U5,13,GND*%
X133845000Y-56275000D03*
%TO.P,U5,14,4Y*%
%TO.N,/PWM3*%
X131305000Y-56275000D03*
%TO.P,U5,15,4A*%
%TO.N,/PWM3m*%
X128765000Y-56275000D03*
%TO.P,U5,16,VCC1*%
%TO.N,+5V*%
X126225000Y-56275000D03*
%TD*%
D10*
%TO.P,K2,1*%
%TO.N,Net-(J7-Pin_2)*%
X160300000Y-85025000D03*
D11*
%TO.P,K2,2*%
%TO.N,Net-(D7-K)*%
X154250000Y-86975000D03*
D10*
%TO.P,K2,3*%
%TO.N,Net-(J13-Pin_3)*%
X154250000Y-99175000D03*
%TO.P,K2,4*%
%TO.N,Net-(J13-Pin_1)*%
X166300000Y-99225000D03*
D11*
%TO.P,K2,5*%
%TO.N,+5V*%
X166250000Y-86975000D03*
%TD*%
D14*
%TO.P,J6,1,Pin_1*%
%TO.N,Net-(J6-Pin_1)*%
X147040000Y-106225000D03*
D13*
%TO.P,J6,2,Pin_2*%
%TO.N,Net-(J14-Pin_1)*%
X144500000Y-106225000D03*
%TO.P,J6,3,Pin_3*%
%TO.N,Net-(J6-Pin_3)*%
X141960000Y-106225000D03*
%TD*%
D17*
%TO.P,J8,1,Pin_1*%
%TO.N,/PWM0*%
X130600000Y-131775000D03*
D18*
%TO.P,J8,2,Pin_2*%
%TO.N,/PWM1*%
X135600000Y-131775000D03*
%TO.P,J8,3,Pin_3*%
%TO.N,/PWM2*%
X140560000Y-131775000D03*
%TO.P,J8,4,Pin_4*%
%TO.N,/PWM3*%
X145660000Y-131875000D03*
%TD*%
D12*
%TO.P,R19,1*%
%TO.N,Net-(D11-A)*%
X135600000Y-118275000D03*
D13*
%TO.P,R19,2*%
%TO.N,/PWM1m*%
X135600000Y-110655000D03*
%TD*%
D14*
%TO.P,J13,1,Pin_1*%
%TO.N,Net-(J13-Pin_1)*%
X159325000Y-105975000D03*
D13*
%TO.P,J13,2,Pin_2*%
%TO.N,Net-(J13-Pin_2)*%
X156785000Y-105975000D03*
%TO.P,J13,3,Pin_3*%
%TO.N,Net-(J13-Pin_3)*%
X154245000Y-105975000D03*
%TD*%
D14*
%TO.P,J12,1,Pin_1*%
%TO.N,GND*%
X154960000Y-45875000D03*
D13*
%TO.P,J12,2,Pin_2*%
%TO.N,VDD*%
X152420000Y-45875000D03*
%TO.P,J12,3,Pin_3*%
%TO.N,GND*%
X149880000Y-45875000D03*
%TO.P,J12,4,Pin_4*%
%TO.N,+5V*%
X147340000Y-45875000D03*
%TO.P,J12,5,Pin_5*%
%TO.N,/RLY1*%
X144800000Y-45875000D03*
%TO.P,J12,6,Pin_6*%
%TO.N,/RLY0*%
X142260000Y-45875000D03*
%TO.P,J12,7,Pin_7*%
%TO.N,/PWM3m*%
X139720000Y-45875000D03*
%TO.P,J12,8,Pin_8*%
%TO.N,/PWM2m*%
X137180000Y-45875000D03*
%TO.P,J12,9,Pin_9*%
%TO.N,/PWM1m*%
X134640000Y-45875000D03*
%TO.P,J12,10,Pin_10*%
%TO.N,/PWM0m*%
X132100000Y-45875000D03*
%TD*%
D14*
%TO.P,Q1,1,C*%
%TO.N,Net-(D5-K)*%
X135800000Y-81625000D03*
D12*
%TO.P,Q1,2,B*%
%TO.N,Net-(Q1-B)*%
X135800000Y-79085000D03*
%TO.P,Q1,3,E*%
%TO.N,GND*%
X135800000Y-76545000D03*
%TD*%
D17*
%TO.P,J9,1,Pin_1*%
%TO.N,GND*%
X120500000Y-131775000D03*
D18*
%TO.P,J9,2,Pin_2*%
%TO.N,VDD*%
X125500000Y-131775000D03*
%TD*%
D17*
%TO.P,J14,1,Pin_1*%
%TO.N,Net-(J14-Pin_1)*%
X150900000Y-131775000D03*
D18*
%TO.P,J14,2,Pin_2*%
%TO.N,Net-(J14-Pin_2)*%
X155900000Y-131775000D03*
%TD*%
D12*
%TO.P,R15,1*%
%TO.N,Net-(Q2-B)*%
X158580000Y-77025000D03*
D13*
%TO.P,R15,2*%
%TO.N,/RLY1*%
X166200000Y-77025000D03*
%TD*%
D12*
%TO.P,R17,1*%
%TO.N,Net-(D9-A)*%
X145600000Y-118375000D03*
D13*
%TO.P,R17,2*%
%TO.N,/PWM3m*%
X145600000Y-110755000D03*
%TD*%
D14*
%TO.P,D10,1,K*%
%TO.N,GND*%
X140500000Y-123100000D03*
D12*
%TO.P,D10,2,A*%
%TO.N,Net-(D10-A)*%
X140500000Y-120560000D03*
%TD*%
D14*
%TO.P,D11,1,K*%
%TO.N,GND*%
X135600000Y-123100000D03*
D12*
%TO.P,D11,2,A*%
%TO.N,Net-(D11-A)*%
X135600000Y-120560000D03*
%TD*%
D19*
%TO.P,Q2,1,C*%
%TO.N,Net-(D7-K)*%
X155100000Y-81725000D03*
D12*
%TO.P,Q2,2,B*%
%TO.N,Net-(Q2-B)*%
X155100000Y-79185000D03*
%TO.P,Q2,3,E*%
%TO.N,GND*%
X155100000Y-76645000D03*
%TD*%
D14*
%TO.P,D8,1,K*%
%TO.N,+5V*%
X166410000Y-81225000D03*
D13*
%TO.P,D8,2,A*%
%TO.N,Net-(D7-K)*%
X158790000Y-81225000D03*
%TD*%
D17*
%TO.P,J7,1,Pin_1*%
%TO.N,Net-(J13-Pin_2)*%
X161000000Y-131775000D03*
D18*
%TO.P,J7,2,Pin_2*%
%TO.N,Net-(J7-Pin_2)*%
X166000000Y-131775000D03*
%TD*%
D14*
%TO.P,D9,1,K*%
%TO.N,GND*%
X145600000Y-123200000D03*
D12*
%TO.P,D9,2,A*%
%TO.N,Net-(D9-A)*%
X145600000Y-120660000D03*
%TD*%
D14*
%TO.P,D5,1,K*%
%TO.N,Net-(D5-K)*%
X153400000Y-123100000D03*
D12*
%TO.P,D5,2,A*%
%TO.N,Net-(D5-A)*%
X153400000Y-120560000D03*
%TD*%
%TO.P,R20,1*%
%TO.N,Net-(D12-A)*%
X130600000Y-118375000D03*
D13*
%TO.P,R20,2*%
%TO.N,/PWM0m*%
X130600000Y-110755000D03*
%TD*%
D12*
%TO.P,R13,1*%
%TO.N,Net-(D5-A)*%
X153400000Y-118275000D03*
D13*
%TO.P,R13,2*%
%TO.N,+5V*%
X153400000Y-110655000D03*
%TD*%
D12*
%TO.P,R16,1*%
%TO.N,Net-(D7-A)*%
X163500000Y-118375000D03*
D13*
%TO.P,R16,2*%
%TO.N,+5V*%
X163500000Y-110755000D03*
%TD*%
D12*
%TO.P,R18,1*%
%TO.N,Net-(D10-A)*%
X140500000Y-118275000D03*
D13*
%TO.P,R18,2*%
%TO.N,/PWM2m*%
X140500000Y-110655000D03*
%TD*%
D14*
%TO.P,D12,1,K*%
%TO.N,GND*%
X130600000Y-123150000D03*
D12*
%TO.P,D12,2,A*%
%TO.N,Net-(D12-A)*%
X130600000Y-120610000D03*
%TD*%
D14*
%TO.P,D7,1,K*%
%TO.N,Net-(D7-K)*%
X163500000Y-123200000D03*
D12*
%TO.P,D7,2,A*%
%TO.N,Net-(D7-A)*%
X163500000Y-120660000D03*
%TD*%
D20*
%TO.N,Net-(D7-K)*%
X163900000Y-104075000D03*
X160100000Y-100275000D03*
%TO.N,GND*%
X137900000Y-112075000D03*
X159800000Y-65075000D03*
X135100000Y-50075000D03*
X154600000Y-50075000D03*
X137900000Y-91675000D03*
X159800000Y-74575000D03*
%TO.N,+5V*%
X147100000Y-89525000D03*
X153200000Y-51925000D03*
X158300000Y-101775000D03*
X144005000Y-58496006D03*
X163500000Y-106975000D03*
X139500000Y-51975000D03*
X163500000Y-113275000D03*
X166128957Y-89496043D03*
X153400000Y-113275000D03*
X126225000Y-58475000D03*
%TO.N,Net-(J7-Pin_2)*%
X166800000Y-104025000D03*
X162000000Y-99125000D03*
%TO.N,/PWM3*%
X144500000Y-53475000D03*
X131305000Y-53675000D03*
%TO.N,VDD*%
X119400000Y-66275000D03*
X157600000Y-49975000D03*
X145200000Y-62475000D03*
X143000000Y-66275000D03*
%TO.N,/RLY0*%
X149900000Y-72875000D03*
X149900000Y-78725000D03*
%TO.N,/PWM3m*%
X139700000Y-47975000D03*
X135600000Y-47975000D03*
%TO.N,/PWM1m*%
X138900000Y-61075000D03*
X140400000Y-68125000D03*
X130000000Y-78425000D03*
X124300000Y-61075000D03*
%TO.N,/PWM0m*%
X128300000Y-75475000D03*
X121100000Y-68375000D03*
%TD*%
D21*
%TO.N,Net-(D7-K)*%
X160100000Y-100275000D02*
X163900000Y-104075000D01*
%TO.N,GND*%
X137900000Y-112075000D02*
X137900000Y-91675000D01*
X159800000Y-65075000D02*
X159800000Y-74575000D01*
X135100000Y-50075000D02*
X154600000Y-50075000D01*
%TO.N,+5V*%
X147100000Y-89525000D02*
X166100000Y-89525000D01*
X158300000Y-101775000D02*
X163500000Y-106975000D01*
X139600000Y-51875000D02*
X153150000Y-51875000D01*
D22*
X144005000Y-58496006D02*
X143983994Y-58475000D01*
X166100000Y-89525000D02*
X166128957Y-89496043D01*
X153150000Y-51875000D02*
X153200000Y-51925000D01*
D21*
X143983994Y-58475000D02*
X126225000Y-58475000D01*
D22*
X139500000Y-51975000D02*
X139600000Y-51875000D01*
D21*
X153400000Y-113275000D02*
X163500000Y-113275000D01*
%TO.N,Net-(J7-Pin_2)*%
X166800000Y-103925000D02*
X162000000Y-99125000D01*
D23*
X166800000Y-104025000D02*
X166800000Y-103925000D01*
D22*
%TO.N,/PWM3*%
X131405000Y-53575000D02*
X131305000Y-53675000D01*
D21*
X144400000Y-53575000D02*
X131405000Y-53575000D01*
D22*
X144500000Y-53475000D02*
X144400000Y-53575000D01*
%TO.N,VDD*%
X157600000Y-49975000D02*
X157600000Y-50075000D01*
D21*
X157600000Y-50075000D02*
X144950000Y-62725000D01*
X143000000Y-66275000D02*
X119400000Y-66275000D01*
%TO.N,/RLY0*%
X149900000Y-72325000D02*
X149900000Y-78725000D01*
%TO.N,/PWM3m*%
X139700000Y-47975000D02*
X135600000Y-47975000D01*
%TO.N,/PWM1m*%
X130050000Y-78425000D02*
X140350000Y-68125000D01*
D24*
X130000000Y-78425000D02*
X130050000Y-78425000D01*
D21*
X138900000Y-61075000D02*
X124300000Y-61075000D01*
D24*
X140350000Y-68125000D02*
X140400000Y-68125000D01*
D21*
%TO.N,/PWM0m*%
X121100000Y-68375000D02*
X128200000Y-75475000D01*
X128200000Y-75475000D02*
X128300000Y-75475000D01*
%TD*%
%TA.AperFunction,Conductor*%
%TO.N,GND*%
G36*
X131092368Y-44295185D02*
G01*
X131138123Y-44347989D01*
X131148067Y-44417147D01*
X131119042Y-44480703D01*
X131095181Y-44501952D01*
X131073195Y-44516942D01*
X131036785Y-44541766D01*
X130849952Y-44715121D01*
X130849950Y-44715123D01*
X130691041Y-44914388D01*
X130563608Y-45135109D01*
X130470492Y-45372362D01*
X130470490Y-45372369D01*
X130413777Y-45620845D01*
X130394732Y-45874995D01*
X130394732Y-45875004D01*
X130413777Y-46129154D01*
X130413778Y-46129157D01*
X130470492Y-46377637D01*
X130563607Y-46614888D01*
X130691041Y-46835612D01*
X130849950Y-47034877D01*
X131036783Y-47208232D01*
X131247366Y-47351805D01*
X131247371Y-47351807D01*
X131247372Y-47351808D01*
X131247373Y-47351809D01*
X131369328Y-47410538D01*
X131476992Y-47462387D01*
X131476993Y-47462387D01*
X131476996Y-47462389D01*
X131720542Y-47537513D01*
X131972565Y-47575500D01*
X132227435Y-47575500D01*
X132479458Y-47537513D01*
X132723004Y-47462389D01*
X132952634Y-47351805D01*
X133163217Y-47208232D01*
X133285659Y-47094623D01*
X133348192Y-47063455D01*
X133417648Y-47071042D01*
X133454341Y-47094623D01*
X133576783Y-47208232D01*
X133787366Y-47351805D01*
X133787371Y-47351807D01*
X133787372Y-47351808D01*
X133787373Y-47351809D01*
X134017002Y-47462392D01*
X134018449Y-47462960D01*
X134018886Y-47463299D01*
X134021176Y-47464402D01*
X134020940Y-47464892D01*
X134073659Y-47505781D01*
X134096954Y-47571653D01*
X134093711Y-47607330D01*
X134063853Y-47731698D01*
X134063853Y-47731700D01*
X134044706Y-47975000D01*
X134063853Y-48218297D01*
X134063853Y-48218300D01*
X134063854Y-48218302D01*
X134116804Y-48438853D01*
X134120830Y-48455619D01*
X134214222Y-48681089D01*
X134341737Y-48889173D01*
X134341738Y-48889176D01*
X134341741Y-48889179D01*
X134500241Y-49074759D01*
X134535895Y-49105210D01*
X134685823Y-49233261D01*
X134685826Y-49233262D01*
X134893910Y-49360777D01*
X135119381Y-49454169D01*
X135119378Y-49454169D01*
X135119384Y-49454170D01*
X135119388Y-49454172D01*
X135356698Y-49511146D01*
X135600000Y-49530294D01*
X135843302Y-49511146D01*
X136080612Y-49454172D01*
X136306089Y-49360777D01*
X136514179Y-49233259D01*
X136567453Y-49187758D01*
X136664106Y-49105210D01*
X136727867Y-49076639D01*
X136744637Y-49075500D01*
X138555363Y-49075500D01*
X138622402Y-49095185D01*
X138635894Y-49105210D01*
X138785817Y-49233256D01*
X138785821Y-49233259D01*
X138785824Y-49233261D01*
X138785826Y-49233262D01*
X138993910Y-49360777D01*
X139219381Y-49454169D01*
X139219378Y-49454169D01*
X139219384Y-49454170D01*
X139219388Y-49454172D01*
X139456698Y-49511146D01*
X139700000Y-49530294D01*
X139943302Y-49511146D01*
X140180612Y-49454172D01*
X140406089Y-49360777D01*
X140614179Y-49233259D01*
X140799759Y-49074759D01*
X140958259Y-48889179D01*
X141085777Y-48681089D01*
X141179172Y-48455612D01*
X141236146Y-48218302D01*
X141255294Y-47975000D01*
X141236146Y-47731698D01*
X141179172Y-47494388D01*
X141179169Y-47494380D01*
X141166170Y-47462997D01*
X141158701Y-47393528D01*
X141189976Y-47331048D01*
X141250065Y-47295396D01*
X141319890Y-47297890D01*
X141350577Y-47313087D01*
X141407366Y-47351805D01*
X141407371Y-47351807D01*
X141407372Y-47351808D01*
X141407373Y-47351809D01*
X141529328Y-47410538D01*
X141636992Y-47462387D01*
X141636993Y-47462387D01*
X141636996Y-47462389D01*
X141880542Y-47537513D01*
X142132565Y-47575500D01*
X142387435Y-47575500D01*
X142639458Y-47537513D01*
X142883004Y-47462389D01*
X143112634Y-47351805D01*
X143323217Y-47208232D01*
X143445659Y-47094623D01*
X143508192Y-47063455D01*
X143577648Y-47071042D01*
X143614341Y-47094623D01*
X143736783Y-47208232D01*
X143947366Y-47351805D01*
X143947371Y-47351807D01*
X143947372Y-47351808D01*
X143947373Y-47351809D01*
X144069328Y-47410538D01*
X144176992Y-47462387D01*
X144176993Y-47462387D01*
X144176996Y-47462389D01*
X144420542Y-47537513D01*
X144672565Y-47575500D01*
X144927435Y-47575500D01*
X145179458Y-47537513D01*
X145423004Y-47462389D01*
X145652634Y-47351805D01*
X145863217Y-47208232D01*
X145985659Y-47094623D01*
X146048192Y-47063455D01*
X146117648Y-47071042D01*
X146154341Y-47094623D01*
X146276783Y-47208232D01*
X146487366Y-47351805D01*
X146487371Y-47351807D01*
X146487372Y-47351808D01*
X146487373Y-47351809D01*
X146609328Y-47410538D01*
X146716992Y-47462387D01*
X146716993Y-47462387D01*
X146716996Y-47462389D01*
X146960542Y-47537513D01*
X147212565Y-47575500D01*
X147467435Y-47575500D01*
X147719458Y-47537513D01*
X147963004Y-47462389D01*
X148192634Y-47351805D01*
X148403217Y-47208232D01*
X148590050Y-47034877D01*
X148748959Y-46835612D01*
X148876393Y-46614888D01*
X148969508Y-46377637D01*
X149026222Y-46129157D01*
X149045268Y-45875000D01*
X149026222Y-45620843D01*
X148969508Y-45372363D01*
X148876393Y-45135112D01*
X148748959Y-44914388D01*
X148590050Y-44715123D01*
X148403217Y-44541768D01*
X148344819Y-44501953D01*
X148300518Y-44447925D01*
X148292458Y-44378522D01*
X148323201Y-44315779D01*
X148382984Y-44279617D01*
X148414671Y-44275500D01*
X151345329Y-44275500D01*
X151412368Y-44295185D01*
X151458123Y-44347989D01*
X151468067Y-44417147D01*
X151439042Y-44480703D01*
X151415181Y-44501952D01*
X151393195Y-44516942D01*
X151356785Y-44541766D01*
X151169952Y-44715121D01*
X151169950Y-44715123D01*
X151011041Y-44914388D01*
X150883608Y-45135109D01*
X150790492Y-45372362D01*
X150790490Y-45372369D01*
X150733777Y-45620845D01*
X150714732Y-45874995D01*
X150714732Y-45875004D01*
X150733777Y-46129154D01*
X150733778Y-46129157D01*
X150790492Y-46377637D01*
X150883607Y-46614888D01*
X151011041Y-46835612D01*
X151169950Y-47034877D01*
X151356783Y-47208232D01*
X151567366Y-47351805D01*
X151567371Y-47351807D01*
X151567372Y-47351808D01*
X151567373Y-47351809D01*
X151689328Y-47410538D01*
X151796992Y-47462387D01*
X151796993Y-47462387D01*
X151796996Y-47462389D01*
X152040542Y-47537513D01*
X152292565Y-47575500D01*
X152547435Y-47575500D01*
X152799458Y-47537513D01*
X153043004Y-47462389D01*
X153272634Y-47351805D01*
X153483217Y-47208232D01*
X153670050Y-47034877D01*
X153828959Y-46835612D01*
X153956393Y-46614888D01*
X154049508Y-46377637D01*
X154106222Y-46129157D01*
X154125268Y-45875000D01*
X154106222Y-45620843D01*
X154049508Y-45372363D01*
X153956393Y-45135112D01*
X153828959Y-44914388D01*
X153670050Y-44715123D01*
X153483217Y-44541768D01*
X153424819Y-44501953D01*
X153380518Y-44447925D01*
X153372458Y-44378522D01*
X153403201Y-44315779D01*
X153462984Y-44279617D01*
X153494671Y-44275500D01*
X168575500Y-44275500D01*
X168642539Y-44295185D01*
X168688294Y-44347989D01*
X168699500Y-44399500D01*
X168699500Y-98385775D01*
X168679815Y-98452814D01*
X168627011Y-98498569D01*
X168557853Y-98508513D01*
X168494297Y-98479488D01*
X168458081Y-98425634D01*
X168455799Y-98418911D01*
X168429945Y-98342748D01*
X168405279Y-98292731D01*
X168296568Y-98072286D01*
X168296564Y-98072279D01*
X168129026Y-97821540D01*
X167930189Y-97594810D01*
X167703459Y-97395973D01*
X167452720Y-97228435D01*
X167452713Y-97228431D01*
X167182268Y-97095062D01*
X167182247Y-97095053D01*
X166896698Y-96998122D01*
X166896692Y-96998120D01*
X166896691Y-96998120D01*
X166896689Y-96998119D01*
X166896683Y-96998118D01*
X166600930Y-96939288D01*
X166600921Y-96939287D01*
X166600920Y-96939287D01*
X166300000Y-96919564D01*
X165999080Y-96939287D01*
X165999079Y-96939287D01*
X165999069Y-96939288D01*
X165703316Y-96998118D01*
X165703301Y-96998122D01*
X165417752Y-97095053D01*
X165417731Y-97095062D01*
X165147286Y-97228431D01*
X165147279Y-97228435D01*
X164896540Y-97395973D01*
X164669810Y-97594810D01*
X164470973Y-97821540D01*
X164303435Y-98072279D01*
X164303431Y-98072286D01*
X164170062Y-98342731D01*
X164170053Y-98342752D01*
X164073122Y-98628301D01*
X164073118Y-98628316D01*
X164014288Y-98924069D01*
X164014287Y-98924081D01*
X163994564Y-99225002D01*
X163996739Y-99258193D01*
X163981479Y-99326376D01*
X163931780Y-99375485D01*
X163863419Y-99389929D01*
X163798102Y-99365121D01*
X163785323Y-99353981D01*
X163587552Y-99156210D01*
X163554067Y-99094887D01*
X163551615Y-99078257D01*
X163539481Y-98924080D01*
X163536146Y-98881698D01*
X163479172Y-98644388D01*
X163472509Y-98628301D01*
X163385777Y-98418910D01*
X163258262Y-98210826D01*
X163258261Y-98210823D01*
X163222453Y-98168897D01*
X163099759Y-98025241D01*
X162977063Y-97920449D01*
X162914176Y-97866738D01*
X162914173Y-97866737D01*
X162706089Y-97739222D01*
X162480618Y-97645830D01*
X162480621Y-97645830D01*
X162268114Y-97594811D01*
X162243302Y-97588854D01*
X162243300Y-97588853D01*
X162243297Y-97588853D01*
X162000000Y-97569706D01*
X161756702Y-97588853D01*
X161519380Y-97645830D01*
X161293910Y-97739222D01*
X161085826Y-97866737D01*
X161085823Y-97866738D01*
X160900241Y-98025241D01*
X160741738Y-98210823D01*
X160741737Y-98210826D01*
X160614222Y-98418911D01*
X160614220Y-98418914D01*
X160520829Y-98644383D01*
X160520827Y-98644390D01*
X160518655Y-98653437D01*
X160483860Y-98714027D01*
X160421832Y-98746187D01*
X160369137Y-98745056D01*
X160343300Y-98738853D01*
X160100000Y-98719706D01*
X159856702Y-98738853D01*
X159856698Y-98738854D01*
X159709974Y-98774080D01*
X159619380Y-98795830D01*
X159393910Y-98889222D01*
X159185826Y-99016737D01*
X159185823Y-99016738D01*
X159000241Y-99175241D01*
X158841738Y-99360823D01*
X158841737Y-99360826D01*
X158714222Y-99568910D01*
X158620830Y-99794380D01*
X158563854Y-100031696D01*
X158557253Y-100115569D01*
X158532368Y-100180857D01*
X158476137Y-100222328D01*
X158423907Y-100229457D01*
X158300000Y-100219706D01*
X158056702Y-100238853D01*
X157977594Y-100257845D01*
X157894821Y-100277718D01*
X157819380Y-100295830D01*
X157593910Y-100389222D01*
X157385826Y-100516737D01*
X157385823Y-100516738D01*
X157200241Y-100675241D01*
X157041738Y-100860823D01*
X157041737Y-100860826D01*
X156914222Y-101068910D01*
X156820830Y-101294380D01*
X156820828Y-101294387D01*
X156820828Y-101294388D01*
X156818293Y-101304946D01*
X156763853Y-101531702D01*
X156744706Y-101775000D01*
X156763853Y-102018297D01*
X156820830Y-102255619D01*
X156914222Y-102481089D01*
X157041737Y-102689173D01*
X157041738Y-102689176D01*
X157041741Y-102689179D01*
X157200241Y-102874759D01*
X157343897Y-102997453D01*
X157385823Y-103033261D01*
X157385826Y-103033262D01*
X157593910Y-103160777D01*
X157819381Y-103254169D01*
X157819378Y-103254169D01*
X157819384Y-103254170D01*
X157819388Y-103254172D01*
X158056698Y-103311146D01*
X158228875Y-103324696D01*
X158253257Y-103326615D01*
X158318546Y-103351499D01*
X158331210Y-103362552D01*
X159031477Y-104062819D01*
X159064962Y-104124142D01*
X159059978Y-104193834D01*
X159018106Y-104249767D01*
X158952642Y-104274184D01*
X158943796Y-104274500D01*
X158380039Y-104274500D01*
X158245750Y-104289630D01*
X158245745Y-104289631D01*
X158075476Y-104349211D01*
X157922739Y-104445183D01*
X157848284Y-104519638D01*
X157786960Y-104553122D01*
X157717269Y-104548137D01*
X157690752Y-104534410D01*
X157637634Y-104498195D01*
X157637626Y-104498190D01*
X157408970Y-104388076D01*
X157408006Y-104387612D01*
X157408008Y-104387612D01*
X157164466Y-104312489D01*
X157164462Y-104312488D01*
X157164458Y-104312487D01*
X157043231Y-104294214D01*
X156912440Y-104274500D01*
X156912435Y-104274500D01*
X156657565Y-104274500D01*
X156657559Y-104274500D01*
X156500609Y-104298157D01*
X156405542Y-104312487D01*
X156405539Y-104312488D01*
X156405533Y-104312489D01*
X156161992Y-104387612D01*
X155932373Y-104498190D01*
X155932372Y-104498191D01*
X155721782Y-104641768D01*
X155599341Y-104755377D01*
X155536808Y-104786545D01*
X155467352Y-104778958D01*
X155430659Y-104755377D01*
X155308217Y-104641768D01*
X155302120Y-104637611D01*
X155097634Y-104498195D01*
X155097630Y-104498193D01*
X155097627Y-104498191D01*
X155097626Y-104498190D01*
X154868970Y-104388076D01*
X154868006Y-104387612D01*
X154868008Y-104387612D01*
X154624466Y-104312489D01*
X154624462Y-104312488D01*
X154624458Y-104312487D01*
X154503231Y-104294214D01*
X154372440Y-104274500D01*
X154372435Y-104274500D01*
X154117565Y-104274500D01*
X154117559Y-104274500D01*
X153960609Y-104298157D01*
X153865542Y-104312487D01*
X153865539Y-104312488D01*
X153865533Y-104312489D01*
X153621992Y-104387612D01*
X153392373Y-104498190D01*
X153392372Y-104498191D01*
X153181782Y-104641768D01*
X152994952Y-104815121D01*
X152994950Y-104815123D01*
X152836041Y-105014388D01*
X152708608Y-105235109D01*
X152615492Y-105472362D01*
X152615490Y-105472369D01*
X152558777Y-105720845D01*
X152539732Y-105974995D01*
X152539732Y-105975004D01*
X152558777Y-106229154D01*
X152615490Y-106477630D01*
X152615492Y-106477637D01*
X152708608Y-106714890D01*
X152718312Y-106731698D01*
X152836041Y-106935612D01*
X152994950Y-107134877D01*
X153181783Y-107308232D01*
X153392366Y-107451805D01*
X153392371Y-107451807D01*
X153392372Y-107451808D01*
X153392373Y-107451809D01*
X153439538Y-107474522D01*
X153621992Y-107562387D01*
X153621993Y-107562387D01*
X153621996Y-107562389D01*
X153865542Y-107637513D01*
X154117565Y-107675500D01*
X154372435Y-107675500D01*
X154624458Y-107637513D01*
X154868004Y-107562389D01*
X155097634Y-107451805D01*
X155308217Y-107308232D01*
X155430659Y-107194623D01*
X155493192Y-107163455D01*
X155562648Y-107171042D01*
X155599341Y-107194623D01*
X155721783Y-107308232D01*
X155932366Y-107451805D01*
X155932371Y-107451807D01*
X155932372Y-107451808D01*
X155932373Y-107451809D01*
X155979538Y-107474522D01*
X156161992Y-107562387D01*
X156161993Y-107562387D01*
X156161996Y-107562389D01*
X156405542Y-107637513D01*
X156657565Y-107675500D01*
X156912435Y-107675500D01*
X157164458Y-107637513D01*
X157408004Y-107562389D01*
X157637634Y-107451805D01*
X157690751Y-107415589D01*
X157757230Y-107394089D01*
X157824780Y-107411943D01*
X157848284Y-107430362D01*
X157922738Y-107504816D01*
X158075478Y-107600789D01*
X158245745Y-107660368D01*
X158245750Y-107660369D01*
X158336246Y-107670565D01*
X158380040Y-107675499D01*
X158380043Y-107675500D01*
X158380046Y-107675500D01*
X160269957Y-107675500D01*
X160269958Y-107675499D01*
X160337104Y-107667934D01*
X160404249Y-107660369D01*
X160404252Y-107660368D01*
X160404255Y-107660368D01*
X160574522Y-107600789D01*
X160727262Y-107504816D01*
X160854816Y-107377262D01*
X160950789Y-107224522D01*
X161010368Y-107054255D01*
X161025500Y-106919954D01*
X161025500Y-106356204D01*
X161045185Y-106289165D01*
X161097989Y-106243410D01*
X161167147Y-106233466D01*
X161230703Y-106262491D01*
X161237181Y-106268523D01*
X161912447Y-106943789D01*
X161945932Y-107005112D01*
X161948384Y-107021740D01*
X161963854Y-107218303D01*
X161984488Y-107304249D01*
X162012528Y-107421042D01*
X162020830Y-107455619D01*
X162114222Y-107681089D01*
X162241737Y-107889173D01*
X162241738Y-107889176D01*
X162241741Y-107889179D01*
X162400241Y-108074759D01*
X162543897Y-108197453D01*
X162585823Y-108233261D01*
X162585826Y-108233262D01*
X162793910Y-108360777D01*
X163019381Y-108454169D01*
X163019378Y-108454169D01*
X163019384Y-108454170D01*
X163019388Y-108454172D01*
X163256698Y-108511146D01*
X163500000Y-108530294D01*
X163743302Y-108511146D01*
X163980612Y-108454172D01*
X164206089Y-108360777D01*
X164414179Y-108233259D01*
X164599759Y-108074759D01*
X164758259Y-107889179D01*
X164885777Y-107681089D01*
X164979172Y-107455612D01*
X165036146Y-107218302D01*
X165055294Y-106975000D01*
X165036146Y-106731698D01*
X164979172Y-106494388D01*
X164921935Y-106356204D01*
X164885777Y-106268910D01*
X164758262Y-106060826D01*
X164758261Y-106060823D01*
X164599756Y-105875238D01*
X164428905Y-105729318D01*
X164390711Y-105670812D01*
X164390212Y-105600944D01*
X164427566Y-105541897D01*
X164461984Y-105520467D01*
X164606085Y-105460779D01*
X164606086Y-105460778D01*
X164606089Y-105460777D01*
X164814179Y-105333259D01*
X164999759Y-105174759D01*
X165158259Y-104989179D01*
X165257068Y-104827936D01*
X165308878Y-104781063D01*
X165377808Y-104769640D01*
X165441970Y-104797297D01*
X165471063Y-104833661D01*
X165471349Y-104833487D01*
X165472739Y-104835756D01*
X165473273Y-104836423D01*
X165473890Y-104837633D01*
X165473893Y-104837638D01*
X165506946Y-104883132D01*
X165512355Y-104891227D01*
X165541738Y-104939176D01*
X165541742Y-104939181D01*
X165578257Y-104981934D01*
X165584284Y-104989580D01*
X165617340Y-105035076D01*
X165617347Y-105035085D01*
X165657108Y-105074846D01*
X165663717Y-105081995D01*
X165700241Y-105124759D01*
X165743011Y-105161288D01*
X165750146Y-105167884D01*
X165789920Y-105207658D01*
X165835411Y-105240708D01*
X165843059Y-105246737D01*
X165882055Y-105280043D01*
X165885821Y-105283259D01*
X165885823Y-105283260D01*
X165885826Y-105283262D01*
X165933765Y-105312639D01*
X165941861Y-105318048D01*
X165987362Y-105351107D01*
X166037469Y-105376637D01*
X166045966Y-105381396D01*
X166093901Y-105410772D01*
X166093906Y-105410774D01*
X166093911Y-105410777D01*
X166145893Y-105432308D01*
X166154704Y-105436371D01*
X166204815Y-105461904D01*
X166258306Y-105479283D01*
X166267423Y-105482647D01*
X166319388Y-105504172D01*
X166374081Y-105517303D01*
X166383443Y-105519944D01*
X166436914Y-105537318D01*
X166436915Y-105537318D01*
X166436924Y-105537321D01*
X166492486Y-105546121D01*
X166501992Y-105548012D01*
X166556698Y-105561146D01*
X166612765Y-105565558D01*
X166622433Y-105566703D01*
X166677973Y-105575500D01*
X166734211Y-105575500D01*
X166743939Y-105575882D01*
X166747284Y-105576145D01*
X166800000Y-105580294D01*
X166852715Y-105576145D01*
X166856061Y-105575882D01*
X166865789Y-105575500D01*
X166922026Y-105575500D01*
X166922027Y-105575500D01*
X166977568Y-105566702D01*
X166987237Y-105565558D01*
X167043302Y-105561146D01*
X167097992Y-105548015D01*
X167107507Y-105546122D01*
X167163076Y-105537321D01*
X167216586Y-105519934D01*
X167225916Y-105517303D01*
X167280612Y-105504172D01*
X167332578Y-105482645D01*
X167341677Y-105479288D01*
X167395185Y-105461904D01*
X167445301Y-105436367D01*
X167454117Y-105432303D01*
X167506089Y-105410777D01*
X167554056Y-105381381D01*
X167562530Y-105376637D01*
X167612639Y-105351106D01*
X167658148Y-105318040D01*
X167666215Y-105312649D01*
X167714179Y-105283259D01*
X167756964Y-105246716D01*
X167764563Y-105240725D01*
X167810083Y-105207655D01*
X167849862Y-105167874D01*
X167856985Y-105161290D01*
X167899759Y-105124759D01*
X167936290Y-105081985D01*
X167942874Y-105074862D01*
X167982655Y-105035083D01*
X168015725Y-104989563D01*
X168021716Y-104981964D01*
X168058259Y-104939179D01*
X168087649Y-104891215D01*
X168093040Y-104883148D01*
X168126106Y-104837639D01*
X168151642Y-104787519D01*
X168156381Y-104779056D01*
X168185777Y-104731089D01*
X168207303Y-104679117D01*
X168211367Y-104670301D01*
X168236904Y-104620185D01*
X168254288Y-104566677D01*
X168257645Y-104557578D01*
X168279172Y-104505612D01*
X168292303Y-104450916D01*
X168294934Y-104441586D01*
X168312321Y-104388076D01*
X168321122Y-104332507D01*
X168323016Y-104322990D01*
X168331025Y-104289630D01*
X168336146Y-104268302D01*
X168340558Y-104212236D01*
X168341703Y-104202565D01*
X168350500Y-104147025D01*
X168350500Y-104090788D01*
X168350882Y-104081059D01*
X168351269Y-104076137D01*
X168355294Y-104025000D01*
X168350882Y-103968938D01*
X168350500Y-103959210D01*
X168350500Y-103802973D01*
X168312321Y-103561927D01*
X168312321Y-103561924D01*
X168236904Y-103329815D01*
X168126106Y-103112361D01*
X168107779Y-103087136D01*
X167982660Y-102914923D01*
X167982656Y-102914918D01*
X167810081Y-102742343D01*
X167810076Y-102742339D01*
X167612642Y-102598896D01*
X167612641Y-102598895D01*
X167612639Y-102598894D01*
X167395185Y-102488096D01*
X167163076Y-102412679D01*
X167163074Y-102412678D01*
X167163072Y-102412678D01*
X166994769Y-102386021D01*
X166922027Y-102374500D01*
X166922026Y-102374500D01*
X166857204Y-102374500D01*
X166790165Y-102354815D01*
X166769523Y-102338181D01*
X166171018Y-101739676D01*
X166137533Y-101678353D01*
X166142517Y-101608661D01*
X166184389Y-101552728D01*
X166249853Y-101528311D01*
X166266809Y-101528261D01*
X166282284Y-101529274D01*
X166300000Y-101530436D01*
X166600920Y-101510713D01*
X166896691Y-101451880D01*
X167182252Y-101354945D01*
X167452718Y-101221566D01*
X167703461Y-101054025D01*
X167930189Y-100855189D01*
X168129025Y-100628461D01*
X168296566Y-100377718D01*
X168429945Y-100107252D01*
X168458081Y-100024363D01*
X168498270Y-99967211D01*
X168562979Y-99940858D01*
X168631663Y-99953672D01*
X168682516Y-100001586D01*
X168699500Y-100064224D01*
X168699500Y-135950500D01*
X168679815Y-136017539D01*
X168627011Y-136063294D01*
X168575500Y-136074500D01*
X118224500Y-136074500D01*
X118157461Y-136054815D01*
X118111706Y-136002011D01*
X118100500Y-135950500D01*
X118100500Y-130667650D01*
X123709500Y-130667650D01*
X123709500Y-132882349D01*
X123709501Y-132882365D01*
X123740134Y-133115048D01*
X123740135Y-133115053D01*
X123740136Y-133115059D01*
X123800883Y-133341772D01*
X123800886Y-133341779D01*
X123890700Y-133558610D01*
X123890705Y-133558620D01*
X124008058Y-133761882D01*
X124150940Y-133948090D01*
X124150946Y-133948097D01*
X124316902Y-134114053D01*
X124316909Y-134114059D01*
X124503117Y-134256941D01*
X124706379Y-134374294D01*
X124706389Y-134374299D01*
X124799316Y-134412790D01*
X124923228Y-134464117D01*
X125149941Y-134524864D01*
X125382644Y-134555500D01*
X125382651Y-134555500D01*
X125617349Y-134555500D01*
X125617356Y-134555500D01*
X125850059Y-134524864D01*
X126076772Y-134464117D01*
X126293617Y-134374296D01*
X126496883Y-134256941D01*
X126683092Y-134114058D01*
X126849058Y-133948092D01*
X126991941Y-133761883D01*
X127109296Y-133558617D01*
X127199117Y-133341772D01*
X127259864Y-133115059D01*
X127290500Y-132882356D01*
X127290500Y-130667644D01*
X127259864Y-130434941D01*
X127199117Y-130208228D01*
X127147790Y-130084316D01*
X127109299Y-129991389D01*
X127109294Y-129991379D01*
X126991941Y-129788117D01*
X126962723Y-129750039D01*
X128809500Y-129750039D01*
X128809500Y-133799960D01*
X128824630Y-133934249D01*
X128824631Y-133934254D01*
X128884211Y-134104523D01*
X128953034Y-134214053D01*
X128980184Y-134257262D01*
X129107738Y-134384816D01*
X129198080Y-134441582D01*
X129233944Y-134464117D01*
X129260478Y-134480789D01*
X129386437Y-134524864D01*
X129430745Y-134540368D01*
X129430750Y-134540369D01*
X129521246Y-134550565D01*
X129565040Y-134555499D01*
X129565043Y-134555500D01*
X129565046Y-134555500D01*
X131634957Y-134555500D01*
X131634958Y-134555499D01*
X131702104Y-134547934D01*
X131769249Y-134540369D01*
X131769252Y-134540368D01*
X131769255Y-134540368D01*
X131939522Y-134480789D01*
X132092262Y-134384816D01*
X132219816Y-134257262D01*
X132315789Y-134104522D01*
X132375368Y-133934255D01*
X132390500Y-133799954D01*
X132390500Y-130667650D01*
X133809500Y-130667650D01*
X133809500Y-132882349D01*
X133809501Y-132882365D01*
X133840134Y-133115048D01*
X133840135Y-133115053D01*
X133840136Y-133115059D01*
X133900883Y-133341772D01*
X133900886Y-133341779D01*
X133990700Y-133558610D01*
X133990705Y-133558620D01*
X134108058Y-133761882D01*
X134250940Y-133948090D01*
X134250946Y-133948097D01*
X134416902Y-134114053D01*
X134416909Y-134114059D01*
X134603117Y-134256941D01*
X134806379Y-134374294D01*
X134806389Y-134374299D01*
X134899316Y-134412790D01*
X135023228Y-134464117D01*
X135249941Y-134524864D01*
X135482644Y-134555500D01*
X135482651Y-134555500D01*
X135717349Y-134555500D01*
X135717356Y-134555500D01*
X135950059Y-134524864D01*
X136176772Y-134464117D01*
X136393617Y-134374296D01*
X136596883Y-134256941D01*
X136783092Y-134114058D01*
X136949058Y-133948092D01*
X137091941Y-133761883D01*
X137209296Y-133558617D01*
X137299117Y-133341772D01*
X137359864Y-133115059D01*
X137390500Y-132882356D01*
X137390500Y-130667650D01*
X138769500Y-130667650D01*
X138769500Y-132882349D01*
X138769501Y-132882365D01*
X138800134Y-133115048D01*
X138800135Y-133115053D01*
X138800136Y-133115059D01*
X138860883Y-133341772D01*
X138860886Y-133341779D01*
X138950700Y-133558610D01*
X138950705Y-133558620D01*
X139068058Y-133761882D01*
X139210940Y-133948090D01*
X139210946Y-133948097D01*
X139376902Y-134114053D01*
X139376909Y-134114059D01*
X139563117Y-134256941D01*
X139766379Y-134374294D01*
X139766389Y-134374299D01*
X139859316Y-134412790D01*
X139983228Y-134464117D01*
X140209941Y-134524864D01*
X140442644Y-134555500D01*
X140442651Y-134555500D01*
X140677349Y-134555500D01*
X140677356Y-134555500D01*
X140910059Y-134524864D01*
X141136772Y-134464117D01*
X141353617Y-134374296D01*
X141556883Y-134256941D01*
X141743092Y-134114058D01*
X141909058Y-133948092D01*
X142051941Y-133761883D01*
X142169296Y-133558617D01*
X142259117Y-133341772D01*
X142319864Y-133115059D01*
X142350500Y-132882356D01*
X142350500Y-130767650D01*
X143869500Y-130767650D01*
X143869500Y-132982349D01*
X143869501Y-132982365D01*
X143900134Y-133215048D01*
X143900135Y-133215053D01*
X143900136Y-133215059D01*
X143960883Y-133441772D01*
X143960886Y-133441779D01*
X144050700Y-133658610D01*
X144050705Y-133658620D01*
X144168058Y-133861882D01*
X144310940Y-134048090D01*
X144310946Y-134048097D01*
X144476902Y-134214053D01*
X144476909Y-134214059D01*
X144663117Y-134356941D01*
X144866379Y-134474294D01*
X144866389Y-134474299D01*
X144959316Y-134512790D01*
X145083228Y-134564117D01*
X145309941Y-134624864D01*
X145542644Y-134655500D01*
X145542651Y-134655500D01*
X145777349Y-134655500D01*
X145777356Y-134655500D01*
X146010059Y-134624864D01*
X146236772Y-134564117D01*
X146453617Y-134474296D01*
X146656883Y-134356941D01*
X146843092Y-134214058D01*
X147009058Y-134048092D01*
X147151941Y-133861883D01*
X147269296Y-133658617D01*
X147359117Y-133441772D01*
X147419864Y-133215059D01*
X147450500Y-132982356D01*
X147450500Y-130767644D01*
X147419864Y-130534941D01*
X147359117Y-130308228D01*
X147307790Y-130184316D01*
X147269299Y-130091389D01*
X147269294Y-130091379D01*
X147151941Y-129888117D01*
X147045990Y-129750039D01*
X149109500Y-129750039D01*
X149109500Y-133799960D01*
X149124630Y-133934249D01*
X149124631Y-133934254D01*
X149184211Y-134104523D01*
X149253034Y-134214053D01*
X149280184Y-134257262D01*
X149407738Y-134384816D01*
X149498080Y-134441582D01*
X149533944Y-134464117D01*
X149560478Y-134480789D01*
X149686437Y-134524864D01*
X149730745Y-134540368D01*
X149730750Y-134540369D01*
X149821246Y-134550565D01*
X149865040Y-134555499D01*
X149865043Y-134555500D01*
X149865046Y-134555500D01*
X151934957Y-134555500D01*
X151934958Y-134555499D01*
X152002104Y-134547934D01*
X152069249Y-134540369D01*
X152069252Y-134540368D01*
X152069255Y-134540368D01*
X152239522Y-134480789D01*
X152392262Y-134384816D01*
X152519816Y-134257262D01*
X152615789Y-134104522D01*
X152675368Y-133934255D01*
X152690500Y-133799954D01*
X152690500Y-130667650D01*
X154109500Y-130667650D01*
X154109500Y-132882349D01*
X154109501Y-132882365D01*
X154140134Y-133115048D01*
X154140135Y-133115053D01*
X154140136Y-133115059D01*
X154200883Y-133341772D01*
X154200886Y-133341779D01*
X154290700Y-133558610D01*
X154290705Y-133558620D01*
X154408058Y-133761882D01*
X154550940Y-133948090D01*
X154550946Y-133948097D01*
X154716902Y-134114053D01*
X154716909Y-134114059D01*
X154903117Y-134256941D01*
X155106379Y-134374294D01*
X155106389Y-134374299D01*
X155199316Y-134412790D01*
X155323228Y-134464117D01*
X155549941Y-134524864D01*
X155782644Y-134555500D01*
X155782651Y-134555500D01*
X156017349Y-134555500D01*
X156017356Y-134555500D01*
X156250059Y-134524864D01*
X156476772Y-134464117D01*
X156693617Y-134374296D01*
X156896883Y-134256941D01*
X157083092Y-134114058D01*
X157249058Y-133948092D01*
X157391941Y-133761883D01*
X157509296Y-133558617D01*
X157599117Y-133341772D01*
X157659864Y-133115059D01*
X157690500Y-132882356D01*
X157690500Y-130667644D01*
X157659864Y-130434941D01*
X157599117Y-130208228D01*
X157547790Y-130084316D01*
X157509299Y-129991389D01*
X157509294Y-129991379D01*
X157391941Y-129788117D01*
X157362723Y-129750039D01*
X159209500Y-129750039D01*
X159209500Y-133799960D01*
X159224630Y-133934249D01*
X159224631Y-133934254D01*
X159284211Y-134104523D01*
X159353034Y-134214053D01*
X159380184Y-134257262D01*
X159507738Y-134384816D01*
X159598080Y-134441582D01*
X159633944Y-134464117D01*
X159660478Y-134480789D01*
X159786437Y-134524864D01*
X159830745Y-134540368D01*
X159830750Y-134540369D01*
X159921246Y-134550565D01*
X159965040Y-134555499D01*
X159965043Y-134555500D01*
X159965046Y-134555500D01*
X162034957Y-134555500D01*
X162034958Y-134555499D01*
X162102104Y-134547934D01*
X162169249Y-134540369D01*
X162169252Y-134540368D01*
X162169255Y-134540368D01*
X162339522Y-134480789D01*
X162492262Y-134384816D01*
X162619816Y-134257262D01*
X162715789Y-134104522D01*
X162775368Y-133934255D01*
X162790500Y-133799954D01*
X162790500Y-130667650D01*
X164209500Y-130667650D01*
X164209500Y-132882349D01*
X164209501Y-132882365D01*
X164240134Y-133115048D01*
X164240135Y-133115053D01*
X164240136Y-133115059D01*
X164300883Y-133341772D01*
X164300886Y-133341779D01*
X164390700Y-133558610D01*
X164390705Y-133558620D01*
X164508058Y-133761882D01*
X164650940Y-133948090D01*
X164650946Y-133948097D01*
X164816902Y-134114053D01*
X164816909Y-134114059D01*
X165003117Y-134256941D01*
X165206379Y-134374294D01*
X165206389Y-134374299D01*
X165299316Y-134412790D01*
X165423228Y-134464117D01*
X165649941Y-134524864D01*
X165882644Y-134555500D01*
X165882651Y-134555500D01*
X166117349Y-134555500D01*
X166117356Y-134555500D01*
X166350059Y-134524864D01*
X166576772Y-134464117D01*
X166793617Y-134374296D01*
X166996883Y-134256941D01*
X167183092Y-134114058D01*
X167349058Y-133948092D01*
X167491941Y-133761883D01*
X167609296Y-133558617D01*
X167699117Y-133341772D01*
X167759864Y-133115059D01*
X167790500Y-132882356D01*
X167790500Y-130667644D01*
X167759864Y-130434941D01*
X167699117Y-130208228D01*
X167647790Y-130084316D01*
X167609299Y-129991389D01*
X167609294Y-129991379D01*
X167491941Y-129788117D01*
X167349059Y-129601909D01*
X167349053Y-129601902D01*
X167183097Y-129435946D01*
X167183090Y-129435940D01*
X166996882Y-129293058D01*
X166793620Y-129175705D01*
X166793610Y-129175700D01*
X166576779Y-129085886D01*
X166576780Y-129085886D01*
X166576772Y-129085883D01*
X166350059Y-129025136D01*
X166350053Y-129025135D01*
X166350048Y-129025134D01*
X166117365Y-128994501D01*
X166117362Y-128994500D01*
X166117356Y-128994500D01*
X165882644Y-128994500D01*
X165882638Y-128994500D01*
X165882634Y-128994501D01*
X165649951Y-129025134D01*
X165649944Y-129025135D01*
X165649941Y-129025136D01*
X165574370Y-129045385D01*
X165423234Y-129085881D01*
X165423220Y-129085886D01*
X165206389Y-129175700D01*
X165206379Y-129175705D01*
X165003117Y-129293058D01*
X164816909Y-129435940D01*
X164816902Y-129435946D01*
X164650946Y-129601902D01*
X164650940Y-129601909D01*
X164508058Y-129788117D01*
X164390705Y-129991379D01*
X164390700Y-129991389D01*
X164300886Y-130208220D01*
X164300881Y-130208234D01*
X164240137Y-130434938D01*
X164240134Y-130434951D01*
X164209501Y-130667634D01*
X164209500Y-130667650D01*
X162790500Y-130667650D01*
X162790500Y-129750046D01*
X162775368Y-129615745D01*
X162715789Y-129445478D01*
X162619816Y-129292738D01*
X162492262Y-129165184D01*
X162428523Y-129125134D01*
X162339523Y-129069211D01*
X162169254Y-129009631D01*
X162169249Y-129009630D01*
X162034960Y-128994500D01*
X162034954Y-128994500D01*
X159965046Y-128994500D01*
X159965039Y-128994500D01*
X159830750Y-129009630D01*
X159830745Y-129009631D01*
X159660476Y-129069211D01*
X159507737Y-129165184D01*
X159380184Y-129292737D01*
X159284211Y-129445476D01*
X159224631Y-129615745D01*
X159224630Y-129615750D01*
X159209500Y-129750039D01*
X157362723Y-129750039D01*
X157249059Y-129601909D01*
X157249053Y-129601902D01*
X157083097Y-129435946D01*
X157083090Y-129435940D01*
X156896882Y-129293058D01*
X156693620Y-129175705D01*
X156693610Y-129175700D01*
X156476779Y-129085886D01*
X156476780Y-129085886D01*
X156476772Y-129085883D01*
X156250059Y-129025136D01*
X156250053Y-129025135D01*
X156250048Y-129025134D01*
X156017365Y-128994501D01*
X156017362Y-128994500D01*
X156017356Y-128994500D01*
X155782644Y-128994500D01*
X155782638Y-128994500D01*
X155782634Y-128994501D01*
X155549951Y-129025134D01*
X155549944Y-129025135D01*
X155549941Y-129025136D01*
X155474370Y-129045385D01*
X155323234Y-129085881D01*
X155323220Y-129085886D01*
X155106389Y-129175700D01*
X155106379Y-129175705D01*
X154903117Y-129293058D01*
X154716909Y-129435940D01*
X154716902Y-129435946D01*
X154550946Y-129601902D01*
X154550940Y-129601909D01*
X154408058Y-129788117D01*
X154290705Y-129991379D01*
X154290700Y-129991389D01*
X154200886Y-130208220D01*
X154200881Y-130208234D01*
X154140137Y-130434938D01*
X154140134Y-130434951D01*
X154109501Y-130667634D01*
X154109500Y-130667650D01*
X152690500Y-130667650D01*
X152690500Y-129750046D01*
X152675368Y-129615745D01*
X152615789Y-129445478D01*
X152519816Y-129292738D01*
X152392262Y-129165184D01*
X152328523Y-129125134D01*
X152239523Y-129069211D01*
X152069254Y-129009631D01*
X152069249Y-129009630D01*
X151934960Y-128994500D01*
X151934954Y-128994500D01*
X149865046Y-128994500D01*
X149865039Y-128994500D01*
X149730750Y-129009630D01*
X149730745Y-129009631D01*
X149560476Y-129069211D01*
X149407737Y-129165184D01*
X149280184Y-129292737D01*
X149184211Y-129445476D01*
X149124631Y-129615745D01*
X149124630Y-129615750D01*
X149109500Y-129750039D01*
X147045990Y-129750039D01*
X147009059Y-129701909D01*
X147009053Y-129701902D01*
X146843097Y-129535946D01*
X146843090Y-129535940D01*
X146656882Y-129393058D01*
X146453620Y-129275705D01*
X146453610Y-129275700D01*
X146236779Y-129185886D01*
X146236780Y-129185886D01*
X146236772Y-129185883D01*
X146010059Y-129125136D01*
X146010053Y-129125135D01*
X146010048Y-129125134D01*
X145777365Y-129094501D01*
X145777362Y-129094500D01*
X145777356Y-129094500D01*
X145542644Y-129094500D01*
X145542638Y-129094500D01*
X145542634Y-129094501D01*
X145309951Y-129125134D01*
X145309944Y-129125135D01*
X145309941Y-129125136D01*
X145234370Y-129145385D01*
X145083234Y-129185881D01*
X145083220Y-129185886D01*
X144866389Y-129275700D01*
X144866379Y-129275705D01*
X144663117Y-129393058D01*
X144476909Y-129535940D01*
X144476902Y-129535946D01*
X144310946Y-129701902D01*
X144310940Y-129701909D01*
X144168058Y-129888117D01*
X144050705Y-130091379D01*
X144050700Y-130091389D01*
X143960886Y-130308220D01*
X143960881Y-130308234D01*
X143900137Y-130534938D01*
X143900134Y-130534951D01*
X143869501Y-130767634D01*
X143869500Y-130767650D01*
X142350500Y-130767650D01*
X142350500Y-130667644D01*
X142319864Y-130434941D01*
X142259117Y-130208228D01*
X142207790Y-130084316D01*
X142169299Y-129991389D01*
X142169294Y-129991379D01*
X142051941Y-129788117D01*
X141909059Y-129601909D01*
X141909053Y-129601902D01*
X141743097Y-129435946D01*
X141743090Y-129435940D01*
X141556882Y-129293058D01*
X141353620Y-129175705D01*
X141353610Y-129175700D01*
X141136779Y-129085886D01*
X141136780Y-129085886D01*
X141136772Y-129085883D01*
X140910059Y-129025136D01*
X140910053Y-129025135D01*
X140910048Y-129025134D01*
X140677365Y-128994501D01*
X140677362Y-128994500D01*
X140677356Y-128994500D01*
X140442644Y-128994500D01*
X140442638Y-128994500D01*
X140442634Y-128994501D01*
X140209951Y-129025134D01*
X140209944Y-129025135D01*
X140209941Y-129025136D01*
X140134370Y-129045385D01*
X139983234Y-129085881D01*
X139983220Y-129085886D01*
X139766389Y-129175700D01*
X139766379Y-129175705D01*
X139563117Y-129293058D01*
X139376909Y-129435940D01*
X139376902Y-129435946D01*
X139210946Y-129601902D01*
X139210940Y-129601909D01*
X139068058Y-129788117D01*
X138950705Y-129991379D01*
X138950700Y-129991389D01*
X138860886Y-130208220D01*
X138860881Y-130208234D01*
X138800137Y-130434938D01*
X138800134Y-130434951D01*
X138769501Y-130667634D01*
X138769500Y-130667650D01*
X137390500Y-130667650D01*
X137390500Y-130667644D01*
X137359864Y-130434941D01*
X137299117Y-130208228D01*
X137247790Y-130084316D01*
X137209299Y-129991389D01*
X137209294Y-129991379D01*
X137091941Y-129788117D01*
X136949059Y-129601909D01*
X136949053Y-129601902D01*
X136783097Y-129435946D01*
X136783090Y-129435940D01*
X136596882Y-129293058D01*
X136393620Y-129175705D01*
X136393610Y-129175700D01*
X136176779Y-129085886D01*
X136176780Y-129085886D01*
X136176772Y-129085883D01*
X135950059Y-129025136D01*
X135950053Y-129025135D01*
X135950048Y-129025134D01*
X135717365Y-128994501D01*
X135717362Y-128994500D01*
X135717356Y-128994500D01*
X135482644Y-128994500D01*
X135482638Y-128994500D01*
X135482634Y-128994501D01*
X135249951Y-129025134D01*
X135249944Y-129025135D01*
X135249941Y-129025136D01*
X135174370Y-129045385D01*
X135023234Y-129085881D01*
X135023220Y-129085886D01*
X134806389Y-129175700D01*
X134806379Y-129175705D01*
X134603117Y-129293058D01*
X134416909Y-129435940D01*
X134416902Y-129435946D01*
X134250946Y-129601902D01*
X134250940Y-129601909D01*
X134108058Y-129788117D01*
X133990705Y-129991379D01*
X133990700Y-129991389D01*
X133900886Y-130208220D01*
X133900881Y-130208234D01*
X133840137Y-130434938D01*
X133840134Y-130434951D01*
X133809501Y-130667634D01*
X133809500Y-130667650D01*
X132390500Y-130667650D01*
X132390500Y-129750046D01*
X132375368Y-129615745D01*
X132315789Y-129445478D01*
X132219816Y-129292738D01*
X132092262Y-129165184D01*
X132028523Y-129125134D01*
X131939523Y-129069211D01*
X131769254Y-129009631D01*
X131769249Y-129009630D01*
X131634960Y-128994500D01*
X131634954Y-128994500D01*
X129565046Y-128994500D01*
X129565039Y-128994500D01*
X129430750Y-129009630D01*
X129430745Y-129009631D01*
X129260476Y-129069211D01*
X129107737Y-129165184D01*
X128980184Y-129292737D01*
X128884211Y-129445476D01*
X128824631Y-129615745D01*
X128824630Y-129615750D01*
X128809500Y-129750039D01*
X126962723Y-129750039D01*
X126849059Y-129601909D01*
X126849053Y-129601902D01*
X126683097Y-129435946D01*
X126683090Y-129435940D01*
X126496882Y-129293058D01*
X126293620Y-129175705D01*
X126293610Y-129175700D01*
X126076779Y-129085886D01*
X126076780Y-129085886D01*
X126076772Y-129085883D01*
X125850059Y-129025136D01*
X125850053Y-129025135D01*
X125850048Y-129025134D01*
X125617365Y-128994501D01*
X125617362Y-128994500D01*
X125617356Y-128994500D01*
X125382644Y-128994500D01*
X125382638Y-128994500D01*
X125382634Y-128994501D01*
X125149951Y-129025134D01*
X125149944Y-129025135D01*
X125149941Y-129025136D01*
X125074370Y-129045385D01*
X124923234Y-129085881D01*
X124923220Y-129085886D01*
X124706389Y-129175700D01*
X124706379Y-129175705D01*
X124503117Y-129293058D01*
X124316909Y-129435940D01*
X124316902Y-129435946D01*
X124150946Y-129601902D01*
X124150940Y-129601909D01*
X124008058Y-129788117D01*
X123890705Y-129991379D01*
X123890700Y-129991389D01*
X123800886Y-130208220D01*
X123800881Y-130208234D01*
X123740137Y-130434938D01*
X123740134Y-130434951D01*
X123709501Y-130667634D01*
X123709500Y-130667650D01*
X118100500Y-130667650D01*
X118100500Y-118374995D01*
X128894732Y-118374995D01*
X128894732Y-118375004D01*
X128913777Y-118629154D01*
X128947667Y-118777637D01*
X128970492Y-118877637D01*
X129063607Y-119114888D01*
X129191041Y-119335612D01*
X129254500Y-119415187D01*
X129280909Y-119479874D01*
X129268152Y-119548569D01*
X129254500Y-119569813D01*
X129191041Y-119649388D01*
X129063608Y-119870109D01*
X128970492Y-120107362D01*
X128970490Y-120107369D01*
X128913777Y-120355845D01*
X128894732Y-120609995D01*
X128894732Y-120610004D01*
X128913777Y-120864154D01*
X128959079Y-121062637D01*
X128970492Y-121112637D01*
X129063607Y-121349888D01*
X129191041Y-121570612D01*
X129349950Y-121769877D01*
X129536783Y-121943232D01*
X129747366Y-122086805D01*
X129747371Y-122086807D01*
X129747372Y-122086808D01*
X129747373Y-122086809D01*
X129851192Y-122136805D01*
X129976992Y-122197387D01*
X129976993Y-122197387D01*
X129976996Y-122197389D01*
X130220542Y-122272513D01*
X130472565Y-122310500D01*
X130727435Y-122310500D01*
X130979458Y-122272513D01*
X131223004Y-122197389D01*
X131452634Y-122086805D01*
X131663217Y-121943232D01*
X131850050Y-121769877D01*
X132008959Y-121570612D01*
X132136393Y-121349888D01*
X132229508Y-121112637D01*
X132286222Y-120864157D01*
X132301521Y-120660000D01*
X132305268Y-120610004D01*
X132305268Y-120609995D01*
X132286222Y-120355845D01*
X132274809Y-120305843D01*
X132229508Y-120107363D01*
X132136393Y-119870112D01*
X132008959Y-119649388D01*
X131945498Y-119569811D01*
X131919091Y-119505127D01*
X131931846Y-119436431D01*
X131945496Y-119415190D01*
X132008959Y-119335612D01*
X132136393Y-119114888D01*
X132229508Y-118877637D01*
X132286222Y-118629157D01*
X132305268Y-118375000D01*
X132297774Y-118274995D01*
X133894732Y-118274995D01*
X133894732Y-118275004D01*
X133913777Y-118529154D01*
X133936601Y-118629154D01*
X133970492Y-118777637D01*
X134009739Y-118877637D01*
X134063608Y-119014890D01*
X134191040Y-119235611D01*
X134274437Y-119340188D01*
X134300845Y-119404875D01*
X134288088Y-119473570D01*
X134274437Y-119494812D01*
X134191040Y-119599388D01*
X134063608Y-119820109D01*
X133970492Y-120057362D01*
X133970490Y-120057369D01*
X133913777Y-120305845D01*
X133894732Y-120559995D01*
X133894732Y-120560004D01*
X133913777Y-120814154D01*
X133936601Y-120914154D01*
X133970492Y-121062637D01*
X134063607Y-121299888D01*
X134191041Y-121520612D01*
X134349950Y-121719877D01*
X134536783Y-121893232D01*
X134747366Y-122036805D01*
X134747371Y-122036807D01*
X134747372Y-122036808D01*
X134747373Y-122036809D01*
X134851192Y-122086805D01*
X134976992Y-122147387D01*
X134976993Y-122147387D01*
X134976996Y-122147389D01*
X135220542Y-122222513D01*
X135472565Y-122260500D01*
X135727435Y-122260500D01*
X135979458Y-122222513D01*
X136223004Y-122147389D01*
X136452634Y-122036805D01*
X136663217Y-121893232D01*
X136850050Y-121719877D01*
X137008959Y-121520612D01*
X137136393Y-121299888D01*
X137229508Y-121062637D01*
X137286222Y-120814157D01*
X137301521Y-120610000D01*
X137305268Y-120560004D01*
X137305268Y-120559995D01*
X137286222Y-120305845D01*
X137252333Y-120157369D01*
X137229508Y-120057363D01*
X137136393Y-119820112D01*
X137008959Y-119599388D01*
X136925561Y-119494811D01*
X136899154Y-119430127D01*
X136911909Y-119361431D01*
X136925559Y-119340190D01*
X137008959Y-119235612D01*
X137136393Y-119014888D01*
X137229508Y-118777637D01*
X137286222Y-118529157D01*
X137305268Y-118275000D01*
X137305268Y-118274995D01*
X138794732Y-118274995D01*
X138794732Y-118275004D01*
X138813777Y-118529154D01*
X138836601Y-118629154D01*
X138870492Y-118777637D01*
X138909739Y-118877637D01*
X138963608Y-119014890D01*
X139091040Y-119235611D01*
X139174437Y-119340188D01*
X139200845Y-119404875D01*
X139188088Y-119473570D01*
X139174437Y-119494812D01*
X139091040Y-119599388D01*
X138963608Y-119820109D01*
X138870492Y-120057362D01*
X138870490Y-120057369D01*
X138813777Y-120305845D01*
X138794732Y-120559995D01*
X138794732Y-120560004D01*
X138813777Y-120814154D01*
X138836601Y-120914154D01*
X138870492Y-121062637D01*
X138963607Y-121299888D01*
X139091041Y-121520612D01*
X139249950Y-121719877D01*
X139436783Y-121893232D01*
X139647366Y-122036805D01*
X139647371Y-122036807D01*
X139647372Y-122036808D01*
X139647373Y-122036809D01*
X139751192Y-122086805D01*
X139876992Y-122147387D01*
X139876993Y-122147387D01*
X139876996Y-122147389D01*
X140120542Y-122222513D01*
X140372565Y-122260500D01*
X140627435Y-122260500D01*
X140879458Y-122222513D01*
X141123004Y-122147389D01*
X141352634Y-122036805D01*
X141563217Y-121893232D01*
X141750050Y-121719877D01*
X141908959Y-121520612D01*
X142036393Y-121299888D01*
X142129508Y-121062637D01*
X142186222Y-120814157D01*
X142201521Y-120610000D01*
X142205268Y-120560004D01*
X142205268Y-120559995D01*
X142186222Y-120305845D01*
X142152333Y-120157369D01*
X142129508Y-120057363D01*
X142036393Y-119820112D01*
X141908959Y-119599388D01*
X141825561Y-119494811D01*
X141799154Y-119430127D01*
X141811909Y-119361431D01*
X141825559Y-119340190D01*
X141908959Y-119235612D01*
X142036393Y-119014888D01*
X142129508Y-118777637D01*
X142186222Y-118529157D01*
X142197775Y-118374995D01*
X143894732Y-118374995D01*
X143894732Y-118375004D01*
X143913777Y-118629154D01*
X143970490Y-118877630D01*
X143970492Y-118877637D01*
X144063608Y-119114890D01*
X144191040Y-119335611D01*
X144274437Y-119440188D01*
X144300845Y-119504875D01*
X144288088Y-119573570D01*
X144274437Y-119594812D01*
X144191040Y-119699388D01*
X144063608Y-119920109D01*
X143970492Y-120157362D01*
X143970490Y-120157369D01*
X143913777Y-120405845D01*
X143894732Y-120659995D01*
X143894732Y-120660004D01*
X143913777Y-120914154D01*
X143959079Y-121112637D01*
X143970492Y-121162637D01*
X144063607Y-121399888D01*
X144191041Y-121620612D01*
X144349950Y-121819877D01*
X144536783Y-121993232D01*
X144747366Y-122136805D01*
X144747371Y-122136807D01*
X144747372Y-122136808D01*
X144747373Y-122136809D01*
X144869328Y-122195538D01*
X144976992Y-122247387D01*
X144976993Y-122247387D01*
X144976996Y-122247389D01*
X145220542Y-122322513D01*
X145472565Y-122360500D01*
X145727435Y-122360500D01*
X145979458Y-122322513D01*
X146223004Y-122247389D01*
X146452634Y-122136805D01*
X146663217Y-121993232D01*
X146850050Y-121819877D01*
X147008959Y-121620612D01*
X147136393Y-121399888D01*
X147229508Y-121162637D01*
X147286222Y-120914157D01*
X147305268Y-120660000D01*
X147301521Y-120610004D01*
X147286222Y-120405845D01*
X147274809Y-120355843D01*
X147229508Y-120157363D01*
X147136393Y-119920112D01*
X147008959Y-119699388D01*
X146925561Y-119594811D01*
X146899154Y-119530127D01*
X146911909Y-119461431D01*
X146925559Y-119440190D01*
X147008959Y-119335612D01*
X147136393Y-119114888D01*
X147229508Y-118877637D01*
X147286222Y-118629157D01*
X147305268Y-118375000D01*
X147297774Y-118274995D01*
X151694732Y-118274995D01*
X151694732Y-118275004D01*
X151713777Y-118529154D01*
X151736601Y-118629154D01*
X151770492Y-118777637D01*
X151809739Y-118877637D01*
X151863608Y-119014890D01*
X151991040Y-119235611D01*
X152074437Y-119340188D01*
X152100845Y-119404875D01*
X152088088Y-119473570D01*
X152074437Y-119494812D01*
X151991040Y-119599388D01*
X151863608Y-119820109D01*
X151770492Y-120057362D01*
X151770490Y-120057369D01*
X151713777Y-120305845D01*
X151694732Y-120559995D01*
X151694732Y-120560004D01*
X151713777Y-120814154D01*
X151736601Y-120914154D01*
X151770492Y-121062637D01*
X151809739Y-121162637D01*
X151863608Y-121299890D01*
X151964062Y-121473883D01*
X151980535Y-121541784D01*
X151957682Y-121607810D01*
X151944357Y-121623563D01*
X151870185Y-121697736D01*
X151870184Y-121697737D01*
X151774211Y-121850476D01*
X151714631Y-122020745D01*
X151714630Y-122020750D01*
X151699500Y-122155039D01*
X151699500Y-124044960D01*
X151714630Y-124179249D01*
X151714631Y-124179254D01*
X151774211Y-124349523D01*
X151837045Y-124449522D01*
X151870184Y-124502262D01*
X151997738Y-124629816D01*
X152150478Y-124725789D01*
X152161984Y-124729815D01*
X152320745Y-124785368D01*
X152320750Y-124785369D01*
X152411246Y-124795565D01*
X152455040Y-124800499D01*
X152455043Y-124800500D01*
X152455046Y-124800500D01*
X154344957Y-124800500D01*
X154344958Y-124800499D01*
X154412104Y-124792934D01*
X154479249Y-124785369D01*
X154479252Y-124785368D01*
X154479255Y-124785368D01*
X154649522Y-124725789D01*
X154802262Y-124629816D01*
X154929816Y-124502262D01*
X155025789Y-124349522D01*
X155085368Y-124179255D01*
X155100500Y-124044954D01*
X155100500Y-122155046D01*
X155092812Y-122086809D01*
X155085369Y-122020750D01*
X155085368Y-122020745D01*
X155075740Y-121993231D01*
X155025789Y-121850478D01*
X155006560Y-121819876D01*
X154943726Y-121719876D01*
X154929816Y-121697738D01*
X154855643Y-121623565D01*
X154822158Y-121562242D01*
X154827142Y-121492550D01*
X154835937Y-121473884D01*
X154878658Y-121399888D01*
X154936393Y-121299888D01*
X155029508Y-121062637D01*
X155086222Y-120814157D01*
X155101521Y-120610000D01*
X155105268Y-120560004D01*
X155105268Y-120559995D01*
X155086222Y-120305845D01*
X155052333Y-120157369D01*
X155029508Y-120057363D01*
X154936393Y-119820112D01*
X154808959Y-119599388D01*
X154725561Y-119494811D01*
X154699154Y-119430127D01*
X154711909Y-119361431D01*
X154725559Y-119340190D01*
X154808959Y-119235612D01*
X154936393Y-119014888D01*
X155029508Y-118777637D01*
X155086222Y-118529157D01*
X155097775Y-118374995D01*
X161794732Y-118374995D01*
X161794732Y-118375004D01*
X161813777Y-118629154D01*
X161870490Y-118877630D01*
X161870492Y-118877637D01*
X161963608Y-119114890D01*
X162091040Y-119335611D01*
X162174437Y-119440188D01*
X162200845Y-119504875D01*
X162188088Y-119573570D01*
X162174437Y-119594812D01*
X162091040Y-119699388D01*
X161963608Y-119920109D01*
X161870492Y-120157362D01*
X161870490Y-120157369D01*
X161813777Y-120405845D01*
X161794732Y-120659995D01*
X161794732Y-120660004D01*
X161813777Y-120914154D01*
X161870490Y-121162630D01*
X161870492Y-121162637D01*
X161963608Y-121399890D01*
X162064062Y-121573883D01*
X162080535Y-121641784D01*
X162057682Y-121707810D01*
X162044357Y-121723563D01*
X161970185Y-121797736D01*
X161970184Y-121797737D01*
X161874211Y-121950476D01*
X161814631Y-122120745D01*
X161814630Y-122120750D01*
X161799500Y-122255039D01*
X161799500Y-124144960D01*
X161814630Y-124279249D01*
X161814631Y-124279254D01*
X161874211Y-124449523D01*
X161970184Y-124602262D01*
X162097738Y-124729816D01*
X162250478Y-124825789D01*
X162420745Y-124885368D01*
X162420750Y-124885369D01*
X162511246Y-124895565D01*
X162555040Y-124900499D01*
X162555043Y-124900500D01*
X162555046Y-124900500D01*
X164444957Y-124900500D01*
X164444958Y-124900499D01*
X164512104Y-124892934D01*
X164579249Y-124885369D01*
X164579252Y-124885368D01*
X164579255Y-124885368D01*
X164749522Y-124825789D01*
X164902262Y-124729816D01*
X165029816Y-124602262D01*
X165125789Y-124449522D01*
X165185368Y-124279255D01*
X165200500Y-124144954D01*
X165200500Y-122255046D01*
X165189233Y-122155046D01*
X165185369Y-122120750D01*
X165185368Y-122120745D01*
X165173492Y-122086805D01*
X165125789Y-121950478D01*
X165121235Y-121943231D01*
X165062955Y-121850478D01*
X165029816Y-121797738D01*
X164955643Y-121723565D01*
X164922158Y-121662242D01*
X164927142Y-121592550D01*
X164935937Y-121573884D01*
X164938073Y-121570184D01*
X165036393Y-121399888D01*
X165129508Y-121162637D01*
X165186222Y-120914157D01*
X165205268Y-120660000D01*
X165201521Y-120610004D01*
X165186222Y-120405845D01*
X165174809Y-120355843D01*
X165129508Y-120157363D01*
X165036393Y-119920112D01*
X164908959Y-119699388D01*
X164825561Y-119594811D01*
X164799154Y-119530127D01*
X164811909Y-119461431D01*
X164825559Y-119440190D01*
X164908959Y-119335612D01*
X165036393Y-119114888D01*
X165129508Y-118877637D01*
X165186222Y-118629157D01*
X165205268Y-118375000D01*
X165186222Y-118120843D01*
X165129508Y-117872363D01*
X165036393Y-117635112D01*
X164908959Y-117414388D01*
X164750050Y-117215123D01*
X164563217Y-117041768D01*
X164352634Y-116898195D01*
X164352630Y-116898193D01*
X164352627Y-116898191D01*
X164352626Y-116898190D01*
X164123006Y-116787612D01*
X164123008Y-116787612D01*
X163879466Y-116712489D01*
X163879462Y-116712488D01*
X163879458Y-116712487D01*
X163758231Y-116694214D01*
X163627440Y-116674500D01*
X163627435Y-116674500D01*
X163372565Y-116674500D01*
X163372559Y-116674500D01*
X163215609Y-116698157D01*
X163120542Y-116712487D01*
X163120539Y-116712488D01*
X163120533Y-116712489D01*
X162876992Y-116787612D01*
X162647373Y-116898190D01*
X162647372Y-116898191D01*
X162436782Y-117041768D01*
X162249952Y-117215121D01*
X162249950Y-117215123D01*
X162091041Y-117414388D01*
X161963608Y-117635109D01*
X161870492Y-117872362D01*
X161870490Y-117872369D01*
X161813777Y-118120845D01*
X161794732Y-118374995D01*
X155097775Y-118374995D01*
X155105268Y-118275000D01*
X155086222Y-118020843D01*
X155029508Y-117772363D01*
X154936393Y-117535112D01*
X154808959Y-117314388D01*
X154650050Y-117115123D01*
X154463217Y-116941768D01*
X154252634Y-116798195D01*
X154252630Y-116798193D01*
X154252627Y-116798191D01*
X154252626Y-116798190D01*
X154023006Y-116687612D01*
X154023008Y-116687612D01*
X153779466Y-116612489D01*
X153779462Y-116612488D01*
X153779458Y-116612487D01*
X153658231Y-116594214D01*
X153527440Y-116574500D01*
X153527435Y-116574500D01*
X153272565Y-116574500D01*
X153272559Y-116574500D01*
X153115609Y-116598157D01*
X153020542Y-116612487D01*
X153020539Y-116612488D01*
X153020533Y-116612489D01*
X152776992Y-116687612D01*
X152547373Y-116798190D01*
X152547372Y-116798191D01*
X152336782Y-116941768D01*
X152149952Y-117115121D01*
X152149950Y-117115123D01*
X151991041Y-117314388D01*
X151863608Y-117535109D01*
X151770492Y-117772362D01*
X151770490Y-117772369D01*
X151713777Y-118020845D01*
X151694732Y-118274995D01*
X147297774Y-118274995D01*
X147286222Y-118120843D01*
X147229508Y-117872363D01*
X147136393Y-117635112D01*
X147008959Y-117414388D01*
X146850050Y-117215123D01*
X146663217Y-117041768D01*
X146452634Y-116898195D01*
X146452630Y-116898193D01*
X146452627Y-116898191D01*
X146452626Y-116898190D01*
X146223006Y-116787612D01*
X146223008Y-116787612D01*
X145979466Y-116712489D01*
X145979462Y-116712488D01*
X145979458Y-116712487D01*
X145858231Y-116694214D01*
X145727440Y-116674500D01*
X145727435Y-116674500D01*
X145472565Y-116674500D01*
X145472559Y-116674500D01*
X145315609Y-116698157D01*
X145220542Y-116712487D01*
X145220539Y-116712488D01*
X145220533Y-116712489D01*
X144976992Y-116787612D01*
X144747373Y-116898190D01*
X144747372Y-116898191D01*
X144536782Y-117041768D01*
X144349952Y-117215121D01*
X144349950Y-117215123D01*
X144191041Y-117414388D01*
X144063608Y-117635109D01*
X143970492Y-117872362D01*
X143970490Y-117872369D01*
X143913777Y-118120845D01*
X143894732Y-118374995D01*
X142197775Y-118374995D01*
X142205268Y-118275000D01*
X142186222Y-118020843D01*
X142129508Y-117772363D01*
X142036393Y-117535112D01*
X141908959Y-117314388D01*
X141750050Y-117115123D01*
X141563217Y-116941768D01*
X141352634Y-116798195D01*
X141352630Y-116798193D01*
X141352627Y-116798191D01*
X141352626Y-116798190D01*
X141123006Y-116687612D01*
X141123008Y-116687612D01*
X140879466Y-116612489D01*
X140879462Y-116612488D01*
X140879458Y-116612487D01*
X140758231Y-116594214D01*
X140627440Y-116574500D01*
X140627435Y-116574500D01*
X140372565Y-116574500D01*
X140372559Y-116574500D01*
X140215609Y-116598157D01*
X140120542Y-116612487D01*
X140120539Y-116612488D01*
X140120533Y-116612489D01*
X139876992Y-116687612D01*
X139647373Y-116798190D01*
X139647372Y-116798191D01*
X139436782Y-116941768D01*
X139249952Y-117115121D01*
X139249950Y-117115123D01*
X139091041Y-117314388D01*
X138963608Y-117535109D01*
X138870492Y-117772362D01*
X138870490Y-117772369D01*
X138813777Y-118020845D01*
X138794732Y-118274995D01*
X137305268Y-118274995D01*
X137286222Y-118020843D01*
X137229508Y-117772363D01*
X137136393Y-117535112D01*
X137008959Y-117314388D01*
X136850050Y-117115123D01*
X136663217Y-116941768D01*
X136452634Y-116798195D01*
X136452630Y-116798193D01*
X136452627Y-116798191D01*
X136452626Y-116798190D01*
X136223006Y-116687612D01*
X136223008Y-116687612D01*
X135979466Y-116612489D01*
X135979462Y-116612488D01*
X135979458Y-116612487D01*
X135858231Y-116594214D01*
X135727440Y-116574500D01*
X135727435Y-116574500D01*
X135472565Y-116574500D01*
X135472559Y-116574500D01*
X135315609Y-116598157D01*
X135220542Y-116612487D01*
X135220539Y-116612488D01*
X135220533Y-116612489D01*
X134976992Y-116687612D01*
X134747373Y-116798190D01*
X134747372Y-116798191D01*
X134536782Y-116941768D01*
X134349952Y-117115121D01*
X134349950Y-117115123D01*
X134191041Y-117314388D01*
X134063608Y-117535109D01*
X133970492Y-117772362D01*
X133970490Y-117772369D01*
X133913777Y-118020845D01*
X133894732Y-118274995D01*
X132297774Y-118274995D01*
X132286222Y-118120843D01*
X132229508Y-117872363D01*
X132136393Y-117635112D01*
X132008959Y-117414388D01*
X131850050Y-117215123D01*
X131663217Y-117041768D01*
X131452634Y-116898195D01*
X131452630Y-116898193D01*
X131452627Y-116898191D01*
X131452626Y-116898190D01*
X131223006Y-116787612D01*
X131223008Y-116787612D01*
X130979466Y-116712489D01*
X130979462Y-116712488D01*
X130979458Y-116712487D01*
X130858231Y-116694214D01*
X130727440Y-116674500D01*
X130727435Y-116674500D01*
X130472565Y-116674500D01*
X130472559Y-116674500D01*
X130315609Y-116698157D01*
X130220542Y-116712487D01*
X130220539Y-116712488D01*
X130220533Y-116712489D01*
X129976992Y-116787612D01*
X129747373Y-116898190D01*
X129747372Y-116898191D01*
X129536782Y-117041768D01*
X129349952Y-117215121D01*
X129349950Y-117215123D01*
X129191041Y-117414388D01*
X129063608Y-117635109D01*
X128970492Y-117872362D01*
X128970490Y-117872369D01*
X128913777Y-118120845D01*
X128894732Y-118374995D01*
X118100500Y-118374995D01*
X118100500Y-110754995D01*
X128894732Y-110754995D01*
X128894732Y-110755004D01*
X128913777Y-111009154D01*
X128947667Y-111157637D01*
X128970492Y-111257637D01*
X129063607Y-111494888D01*
X129191041Y-111715612D01*
X129349950Y-111914877D01*
X129536783Y-112088232D01*
X129747366Y-112231805D01*
X129747371Y-112231807D01*
X129747372Y-112231808D01*
X129747373Y-112231809D01*
X129869328Y-112290538D01*
X129976992Y-112342387D01*
X129976993Y-112342387D01*
X129976996Y-112342389D01*
X130220542Y-112417513D01*
X130472565Y-112455500D01*
X130727435Y-112455500D01*
X130979458Y-112417513D01*
X131223004Y-112342389D01*
X131452634Y-112231805D01*
X131663217Y-112088232D01*
X131850050Y-111914877D01*
X132008959Y-111715612D01*
X132136393Y-111494888D01*
X132229508Y-111257637D01*
X132286222Y-111009157D01*
X132305268Y-110755000D01*
X132297774Y-110654995D01*
X133894732Y-110654995D01*
X133894732Y-110655004D01*
X133913777Y-110909154D01*
X133936601Y-111009154D01*
X133970492Y-111157637D01*
X134063607Y-111394888D01*
X134191041Y-111615612D01*
X134349950Y-111814877D01*
X134536783Y-111988232D01*
X134747366Y-112131805D01*
X134747371Y-112131807D01*
X134747372Y-112131808D01*
X134747373Y-112131809D01*
X134869328Y-112190538D01*
X134976992Y-112242387D01*
X134976993Y-112242387D01*
X134976996Y-112242389D01*
X135220542Y-112317513D01*
X135472565Y-112355500D01*
X135727435Y-112355500D01*
X135979458Y-112317513D01*
X136223004Y-112242389D01*
X136404853Y-112154815D01*
X136452626Y-112131809D01*
X136452626Y-112131808D01*
X136452634Y-112131805D01*
X136663217Y-111988232D01*
X136850050Y-111814877D01*
X137008959Y-111615612D01*
X137136393Y-111394888D01*
X137229508Y-111157637D01*
X137286222Y-110909157D01*
X137305268Y-110655000D01*
X137305268Y-110654995D01*
X138794732Y-110654995D01*
X138794732Y-110655004D01*
X138813777Y-110909154D01*
X138836601Y-111009154D01*
X138870492Y-111157637D01*
X138963607Y-111394888D01*
X139091041Y-111615612D01*
X139249950Y-111814877D01*
X139436783Y-111988232D01*
X139647366Y-112131805D01*
X139647371Y-112131807D01*
X139647372Y-112131808D01*
X139647373Y-112131809D01*
X139769328Y-112190538D01*
X139876992Y-112242387D01*
X139876993Y-112242387D01*
X139876996Y-112242389D01*
X140120542Y-112317513D01*
X140372565Y-112355500D01*
X140627435Y-112355500D01*
X140879458Y-112317513D01*
X141123004Y-112242389D01*
X141304853Y-112154815D01*
X141352626Y-112131809D01*
X141352626Y-112131808D01*
X141352634Y-112131805D01*
X141563217Y-111988232D01*
X141750050Y-111814877D01*
X141908959Y-111615612D01*
X142036393Y-111394888D01*
X142129508Y-111157637D01*
X142186222Y-110909157D01*
X142197775Y-110754995D01*
X143894732Y-110754995D01*
X143894732Y-110755004D01*
X143913777Y-111009154D01*
X143947667Y-111157637D01*
X143970492Y-111257637D01*
X144063607Y-111494888D01*
X144191041Y-111715612D01*
X144349950Y-111914877D01*
X144536783Y-112088232D01*
X144747366Y-112231805D01*
X144747371Y-112231807D01*
X144747372Y-112231808D01*
X144747373Y-112231809D01*
X144869328Y-112290538D01*
X144976992Y-112342387D01*
X144976993Y-112342387D01*
X144976996Y-112342389D01*
X145220542Y-112417513D01*
X145472565Y-112455500D01*
X145727435Y-112455500D01*
X145979458Y-112417513D01*
X146223004Y-112342389D01*
X146452634Y-112231805D01*
X146663217Y-112088232D01*
X146850050Y-111914877D01*
X147008959Y-111715612D01*
X147136393Y-111494888D01*
X147229508Y-111257637D01*
X147286222Y-111009157D01*
X147305268Y-110755000D01*
X147297774Y-110654995D01*
X151694732Y-110654995D01*
X151694732Y-110655004D01*
X151713777Y-110909154D01*
X151736601Y-111009154D01*
X151770492Y-111157637D01*
X151863607Y-111394888D01*
X151991041Y-111615612D01*
X152149950Y-111814877D01*
X152257724Y-111914876D01*
X152322115Y-111974622D01*
X152357870Y-112034651D01*
X152355495Y-112104480D01*
X152318307Y-112159810D01*
X152300248Y-112175233D01*
X152300241Y-112175241D01*
X152141738Y-112360823D01*
X152141737Y-112360826D01*
X152014222Y-112568910D01*
X151920830Y-112794380D01*
X151863853Y-113031702D01*
X151844706Y-113275000D01*
X151863853Y-113518297D01*
X151920830Y-113755619D01*
X152014222Y-113981089D01*
X152141737Y-114189173D01*
X152141738Y-114189176D01*
X152141741Y-114189179D01*
X152300241Y-114374759D01*
X152335895Y-114405210D01*
X152485823Y-114533261D01*
X152485826Y-114533262D01*
X152693910Y-114660777D01*
X152919381Y-114754169D01*
X152919378Y-114754169D01*
X152919384Y-114754170D01*
X152919388Y-114754172D01*
X153156698Y-114811146D01*
X153400000Y-114830294D01*
X153643302Y-114811146D01*
X153880612Y-114754172D01*
X154106089Y-114660777D01*
X154314179Y-114533259D01*
X154367453Y-114487758D01*
X154464106Y-114405210D01*
X154527867Y-114376639D01*
X154544637Y-114375500D01*
X162355363Y-114375500D01*
X162422402Y-114395185D01*
X162435894Y-114405210D01*
X162585817Y-114533256D01*
X162585821Y-114533259D01*
X162585824Y-114533261D01*
X162585826Y-114533262D01*
X162793910Y-114660777D01*
X163019381Y-114754169D01*
X163019378Y-114754169D01*
X163019384Y-114754170D01*
X163019388Y-114754172D01*
X163256698Y-114811146D01*
X163500000Y-114830294D01*
X163743302Y-114811146D01*
X163980612Y-114754172D01*
X164206089Y-114660777D01*
X164414179Y-114533259D01*
X164599759Y-114374759D01*
X164758259Y-114189179D01*
X164885777Y-113981089D01*
X164979172Y-113755612D01*
X165036146Y-113518302D01*
X165055294Y-113275000D01*
X165036146Y-113031698D01*
X164979172Y-112794388D01*
X164885777Y-112568911D01*
X164885777Y-112568910D01*
X164758262Y-112360826D01*
X164758256Y-112360817D01*
X164619430Y-112198272D01*
X164590859Y-112134511D01*
X164601296Y-112065425D01*
X164629377Y-112026844D01*
X164750050Y-111914877D01*
X164908959Y-111715612D01*
X165036393Y-111494888D01*
X165129508Y-111257637D01*
X165186222Y-111009157D01*
X165205268Y-110755000D01*
X165186222Y-110500843D01*
X165129508Y-110252363D01*
X165036393Y-110015112D01*
X164908959Y-109794388D01*
X164750050Y-109595123D01*
X164563217Y-109421768D01*
X164352634Y-109278195D01*
X164352630Y-109278193D01*
X164352627Y-109278191D01*
X164352626Y-109278190D01*
X164123006Y-109167612D01*
X164123008Y-109167612D01*
X163879466Y-109092489D01*
X163879462Y-109092488D01*
X163879458Y-109092487D01*
X163758231Y-109074214D01*
X163627440Y-109054500D01*
X163627435Y-109054500D01*
X163372565Y-109054500D01*
X163372559Y-109054500D01*
X163215609Y-109078157D01*
X163120542Y-109092487D01*
X163120539Y-109092488D01*
X163120533Y-109092489D01*
X162876992Y-109167612D01*
X162647373Y-109278190D01*
X162647372Y-109278191D01*
X162436782Y-109421768D01*
X162249952Y-109595121D01*
X162249950Y-109595123D01*
X162091041Y-109794388D01*
X161963608Y-110015109D01*
X161870492Y-110252362D01*
X161870490Y-110252369D01*
X161813777Y-110500845D01*
X161794732Y-110754995D01*
X161794732Y-110755004D01*
X161813777Y-111009154D01*
X161847667Y-111157637D01*
X161870492Y-111257637D01*
X161963607Y-111494888D01*
X162091041Y-111715612D01*
X162249950Y-111914877D01*
X162249951Y-111914878D01*
X162249952Y-111914879D01*
X162298152Y-111959602D01*
X162333906Y-112019630D01*
X162331531Y-112089459D01*
X162291780Y-112146919D01*
X162227274Y-112173767D01*
X162213810Y-112174500D01*
X154578415Y-112174500D01*
X154511376Y-112154815D01*
X154465621Y-112102011D01*
X154455677Y-112032853D01*
X154484702Y-111969297D01*
X154494074Y-111959601D01*
X154650050Y-111814877D01*
X154808959Y-111615612D01*
X154936393Y-111394888D01*
X155029508Y-111157637D01*
X155086222Y-110909157D01*
X155105268Y-110655000D01*
X155086222Y-110400843D01*
X155029508Y-110152363D01*
X154936393Y-109915112D01*
X154808959Y-109694388D01*
X154650050Y-109495123D01*
X154463217Y-109321768D01*
X154252634Y-109178195D01*
X154252630Y-109178193D01*
X154252627Y-109178191D01*
X154252626Y-109178190D01*
X154023006Y-109067612D01*
X154023008Y-109067612D01*
X153779466Y-108992489D01*
X153779462Y-108992488D01*
X153779458Y-108992487D01*
X153658231Y-108974214D01*
X153527440Y-108954500D01*
X153527435Y-108954500D01*
X153272565Y-108954500D01*
X153272559Y-108954500D01*
X153115609Y-108978157D01*
X153020542Y-108992487D01*
X153020539Y-108992488D01*
X153020533Y-108992489D01*
X152776992Y-109067612D01*
X152547373Y-109178190D01*
X152547372Y-109178191D01*
X152336782Y-109321768D01*
X152149952Y-109495121D01*
X152149950Y-109495123D01*
X151991041Y-109694388D01*
X151863608Y-109915109D01*
X151770492Y-110152362D01*
X151770490Y-110152369D01*
X151713777Y-110400845D01*
X151694732Y-110654995D01*
X147297774Y-110654995D01*
X147286222Y-110500843D01*
X147229508Y-110252363D01*
X147136393Y-110015112D01*
X147008959Y-109794388D01*
X146850050Y-109595123D01*
X146663217Y-109421768D01*
X146452634Y-109278195D01*
X146452630Y-109278193D01*
X146452627Y-109278191D01*
X146452626Y-109278190D01*
X146223006Y-109167612D01*
X146223008Y-109167612D01*
X145979466Y-109092489D01*
X145979462Y-109092488D01*
X145979458Y-109092487D01*
X145858231Y-109074214D01*
X145727440Y-109054500D01*
X145727435Y-109054500D01*
X145472565Y-109054500D01*
X145472559Y-109054500D01*
X145315609Y-109078157D01*
X145220542Y-109092487D01*
X145220539Y-109092488D01*
X145220533Y-109092489D01*
X144976992Y-109167612D01*
X144747373Y-109278190D01*
X144747372Y-109278191D01*
X144536782Y-109421768D01*
X144349952Y-109595121D01*
X144349950Y-109595123D01*
X144191041Y-109794388D01*
X144063608Y-110015109D01*
X143970492Y-110252362D01*
X143970490Y-110252369D01*
X143913777Y-110500845D01*
X143894732Y-110754995D01*
X142197775Y-110754995D01*
X142205268Y-110655000D01*
X142186222Y-110400843D01*
X142129508Y-110152363D01*
X142036393Y-109915112D01*
X141908959Y-109694388D01*
X141750050Y-109495123D01*
X141563217Y-109321768D01*
X141352634Y-109178195D01*
X141352630Y-109178193D01*
X141352627Y-109178191D01*
X141352626Y-109178190D01*
X141123006Y-109067612D01*
X141123008Y-109067612D01*
X140879466Y-108992489D01*
X140879462Y-108992488D01*
X140879458Y-108992487D01*
X140758231Y-108974214D01*
X140627440Y-108954500D01*
X140627435Y-108954500D01*
X140372565Y-108954500D01*
X140372559Y-108954500D01*
X140215609Y-108978157D01*
X140120542Y-108992487D01*
X140120539Y-108992488D01*
X140120533Y-108992489D01*
X139876992Y-109067612D01*
X139647373Y-109178190D01*
X139647372Y-109178191D01*
X139436782Y-109321768D01*
X139249952Y-109495121D01*
X139249950Y-109495123D01*
X139091041Y-109694388D01*
X138963608Y-109915109D01*
X138870492Y-110152362D01*
X138870490Y-110152369D01*
X138813777Y-110400845D01*
X138794732Y-110654995D01*
X137305268Y-110654995D01*
X137286222Y-110400843D01*
X137229508Y-110152363D01*
X137136393Y-109915112D01*
X137008959Y-109694388D01*
X136850050Y-109495123D01*
X136663217Y-109321768D01*
X136452634Y-109178195D01*
X136452630Y-109178193D01*
X136452627Y-109178191D01*
X136452626Y-109178190D01*
X136223006Y-109067612D01*
X136223008Y-109067612D01*
X135979466Y-108992489D01*
X135979462Y-108992488D01*
X135979458Y-108992487D01*
X135858231Y-108974214D01*
X135727440Y-108954500D01*
X135727435Y-108954500D01*
X135472565Y-108954500D01*
X135472559Y-108954500D01*
X135315609Y-108978157D01*
X135220542Y-108992487D01*
X135220539Y-108992488D01*
X135220533Y-108992489D01*
X134976992Y-109067612D01*
X134747373Y-109178190D01*
X134747372Y-109178191D01*
X134536782Y-109321768D01*
X134349952Y-109495121D01*
X134349950Y-109495123D01*
X134191041Y-109694388D01*
X134063608Y-109915109D01*
X133970492Y-110152362D01*
X133970490Y-110152369D01*
X133913777Y-110400845D01*
X133894732Y-110654995D01*
X132297774Y-110654995D01*
X132286222Y-110500843D01*
X132229508Y-110252363D01*
X132136393Y-110015112D01*
X132008959Y-109794388D01*
X131850050Y-109595123D01*
X131663217Y-109421768D01*
X131452634Y-109278195D01*
X131452630Y-109278193D01*
X131452627Y-109278191D01*
X131452626Y-109278190D01*
X131223006Y-109167612D01*
X131223008Y-109167612D01*
X130979466Y-109092489D01*
X130979462Y-109092488D01*
X130979458Y-109092487D01*
X130858231Y-109074214D01*
X130727440Y-109054500D01*
X130727435Y-109054500D01*
X130472565Y-109054500D01*
X130472559Y-109054500D01*
X130315609Y-109078157D01*
X130220542Y-109092487D01*
X130220539Y-109092488D01*
X130220533Y-109092489D01*
X129976992Y-109167612D01*
X129747373Y-109278190D01*
X129747372Y-109278191D01*
X129536782Y-109421768D01*
X129349952Y-109595121D01*
X129349950Y-109595123D01*
X129191041Y-109794388D01*
X129063608Y-110015109D01*
X128970492Y-110252362D01*
X128970490Y-110252369D01*
X128913777Y-110500845D01*
X128894732Y-110754995D01*
X118100500Y-110754995D01*
X118100500Y-106224995D01*
X140254732Y-106224995D01*
X140254732Y-106225004D01*
X140273777Y-106479154D01*
X140327582Y-106714890D01*
X140330492Y-106727637D01*
X140405972Y-106919956D01*
X140423608Y-106964890D01*
X140446830Y-107005112D01*
X140551041Y-107185612D01*
X140709950Y-107384877D01*
X140896783Y-107558232D01*
X141107366Y-107701805D01*
X141107371Y-107701807D01*
X141107372Y-107701808D01*
X141107373Y-107701809D01*
X141217442Y-107754815D01*
X141336992Y-107812387D01*
X141336993Y-107812387D01*
X141336996Y-107812389D01*
X141580542Y-107887513D01*
X141832565Y-107925500D01*
X142087435Y-107925500D01*
X142339458Y-107887513D01*
X142583004Y-107812389D01*
X142812634Y-107701805D01*
X143023217Y-107558232D01*
X143133808Y-107455619D01*
X143145659Y-107444623D01*
X143208192Y-107413455D01*
X143277648Y-107421042D01*
X143314341Y-107444623D01*
X143326192Y-107455619D01*
X143436783Y-107558232D01*
X143647366Y-107701805D01*
X143647371Y-107701807D01*
X143647372Y-107701808D01*
X143647373Y-107701809D01*
X143757442Y-107754815D01*
X143876992Y-107812387D01*
X143876993Y-107812387D01*
X143876996Y-107812389D01*
X144120542Y-107887513D01*
X144372565Y-107925500D01*
X144627435Y-107925500D01*
X144879458Y-107887513D01*
X145123004Y-107812389D01*
X145352634Y-107701805D01*
X145405751Y-107665589D01*
X145472230Y-107644089D01*
X145539780Y-107661943D01*
X145563284Y-107680362D01*
X145637738Y-107754816D01*
X145790478Y-107850789D01*
X145960745Y-107910368D01*
X145960750Y-107910369D01*
X146051246Y-107920565D01*
X146095040Y-107925499D01*
X146095043Y-107925500D01*
X146095046Y-107925500D01*
X147984957Y-107925500D01*
X147984958Y-107925499D01*
X148052104Y-107917934D01*
X148119249Y-107910369D01*
X148119252Y-107910368D01*
X148119255Y-107910368D01*
X148289522Y-107850789D01*
X148442262Y-107754816D01*
X148569816Y-107627262D01*
X148665789Y-107474522D01*
X148725368Y-107304255D01*
X148740500Y-107169954D01*
X148740500Y-105280046D01*
X148727863Y-105167888D01*
X148725369Y-105145750D01*
X148725368Y-105145745D01*
X148686646Y-105035085D01*
X148665789Y-104975478D01*
X148569816Y-104822738D01*
X148442262Y-104695184D01*
X148402629Y-104670281D01*
X148289523Y-104599211D01*
X148119254Y-104539631D01*
X148119249Y-104539630D01*
X147984960Y-104524500D01*
X147984954Y-104524500D01*
X146095046Y-104524500D01*
X146095039Y-104524500D01*
X145960750Y-104539630D01*
X145960745Y-104539631D01*
X145790476Y-104599211D01*
X145637739Y-104695183D01*
X145563284Y-104769638D01*
X145501960Y-104803122D01*
X145432269Y-104798137D01*
X145405752Y-104784410D01*
X145352634Y-104748195D01*
X145352626Y-104748190D01*
X145123006Y-104637612D01*
X145123008Y-104637612D01*
X144879466Y-104562489D01*
X144879462Y-104562488D01*
X144879458Y-104562487D01*
X144758231Y-104544214D01*
X144627440Y-104524500D01*
X144627435Y-104524500D01*
X144372565Y-104524500D01*
X144372559Y-104524500D01*
X144215746Y-104548137D01*
X144120542Y-104562487D01*
X144120539Y-104562488D01*
X144120533Y-104562489D01*
X143876992Y-104637612D01*
X143647373Y-104748190D01*
X143647372Y-104748191D01*
X143436782Y-104891768D01*
X143314341Y-105005377D01*
X143251808Y-105036545D01*
X143182352Y-105028958D01*
X143145659Y-105005377D01*
X143023217Y-104891768D01*
X142947491Y-104840139D01*
X142812634Y-104748195D01*
X142812630Y-104748193D01*
X142812627Y-104748191D01*
X142812626Y-104748190D01*
X142583006Y-104637612D01*
X142583008Y-104637612D01*
X142339466Y-104562489D01*
X142339462Y-104562488D01*
X142339458Y-104562487D01*
X142218231Y-104544214D01*
X142087440Y-104524500D01*
X142087435Y-104524500D01*
X141832565Y-104524500D01*
X141832559Y-104524500D01*
X141675746Y-104548137D01*
X141580542Y-104562487D01*
X141580539Y-104562488D01*
X141580533Y-104562489D01*
X141336992Y-104637612D01*
X141107373Y-104748190D01*
X141107372Y-104748191D01*
X140896782Y-104891768D01*
X140709952Y-105065121D01*
X140709950Y-105065123D01*
X140551041Y-105264388D01*
X140423608Y-105485109D01*
X140330492Y-105722362D01*
X140330490Y-105722369D01*
X140273777Y-105970845D01*
X140254732Y-106224995D01*
X118100500Y-106224995D01*
X118100500Y-99075000D01*
X132744564Y-99075000D01*
X132764258Y-99375485D01*
X132764287Y-99375918D01*
X132764288Y-99375930D01*
X132823118Y-99671683D01*
X132823122Y-99671698D01*
X132920053Y-99957247D01*
X132920062Y-99957268D01*
X133053431Y-100227713D01*
X133053435Y-100227720D01*
X133220973Y-100478459D01*
X133419810Y-100705189D01*
X133646540Y-100904026D01*
X133897279Y-101071564D01*
X133897286Y-101071568D01*
X134167731Y-101204937D01*
X134167736Y-101204939D01*
X134167748Y-101204945D01*
X134453309Y-101301880D01*
X134653251Y-101341651D01*
X134749069Y-101360711D01*
X134749070Y-101360711D01*
X134749080Y-101360713D01*
X135050000Y-101380436D01*
X135350920Y-101360713D01*
X135646691Y-101301880D01*
X135932252Y-101204945D01*
X136202718Y-101071566D01*
X136453461Y-100904025D01*
X136680189Y-100705189D01*
X136879025Y-100478461D01*
X137046566Y-100227718D01*
X137179945Y-99957252D01*
X137276880Y-99671691D01*
X137335713Y-99375920D01*
X137352159Y-99125000D01*
X144794564Y-99125000D01*
X144814287Y-99425918D01*
X144814288Y-99425930D01*
X144873118Y-99721683D01*
X144873122Y-99721698D01*
X144970053Y-100007247D01*
X144970062Y-100007268D01*
X145103431Y-100277713D01*
X145103435Y-100277720D01*
X145270973Y-100528459D01*
X145469810Y-100755189D01*
X145696540Y-100954026D01*
X145947279Y-101121564D01*
X145947286Y-101121568D01*
X146217731Y-101254937D01*
X146217736Y-101254939D01*
X146217748Y-101254945D01*
X146503309Y-101351880D01*
X146646869Y-101380436D01*
X146799069Y-101410711D01*
X146799070Y-101410711D01*
X146799080Y-101410713D01*
X147100000Y-101430436D01*
X147400920Y-101410713D01*
X147696691Y-101351880D01*
X147982252Y-101254945D01*
X148252718Y-101121566D01*
X148503461Y-100954025D01*
X148730189Y-100755189D01*
X148929025Y-100528461D01*
X149096566Y-100277718D01*
X149229945Y-100007252D01*
X149326880Y-99721691D01*
X149385713Y-99425920D01*
X149402159Y-99175000D01*
X151944564Y-99175000D01*
X151957733Y-99375930D01*
X151964287Y-99475918D01*
X151964288Y-99475930D01*
X152023118Y-99771683D01*
X152023122Y-99771698D01*
X152120053Y-100057247D01*
X152120062Y-100057268D01*
X152253431Y-100327713D01*
X152253435Y-100327720D01*
X152420973Y-100578459D01*
X152619810Y-100805189D01*
X152846540Y-101004026D01*
X153097279Y-101171564D01*
X153097286Y-101171568D01*
X153367731Y-101304937D01*
X153367736Y-101304939D01*
X153367748Y-101304945D01*
X153653309Y-101401880D01*
X153796869Y-101430436D01*
X153949069Y-101460711D01*
X153949070Y-101460711D01*
X153949080Y-101460713D01*
X154250000Y-101480436D01*
X154550920Y-101460713D01*
X154846691Y-101401880D01*
X155132252Y-101304945D01*
X155402718Y-101171566D01*
X155653461Y-101004025D01*
X155880189Y-100805189D01*
X156079025Y-100578461D01*
X156246566Y-100327718D01*
X156379945Y-100057252D01*
X156476880Y-99771691D01*
X156535713Y-99475920D01*
X156555436Y-99175000D01*
X156535713Y-98874080D01*
X156525767Y-98824081D01*
X156486827Y-98628316D01*
X156476880Y-98578309D01*
X156379945Y-98292748D01*
X156355279Y-98242731D01*
X156246568Y-98022286D01*
X156246564Y-98022279D01*
X156079026Y-97771540D01*
X155880189Y-97544810D01*
X155653459Y-97345973D01*
X155402720Y-97178435D01*
X155402713Y-97178431D01*
X155132268Y-97045062D01*
X155132247Y-97045053D01*
X154846698Y-96948122D01*
X154846692Y-96948120D01*
X154846691Y-96948120D01*
X154846689Y-96948119D01*
X154846683Y-96948118D01*
X154550930Y-96889288D01*
X154550921Y-96889287D01*
X154550920Y-96889287D01*
X154250000Y-96869564D01*
X153949080Y-96889287D01*
X153949079Y-96889287D01*
X153949069Y-96889288D01*
X153653316Y-96948118D01*
X153653301Y-96948122D01*
X153367752Y-97045053D01*
X153367731Y-97045062D01*
X153097286Y-97178431D01*
X153097279Y-97178435D01*
X152846540Y-97345973D01*
X152619810Y-97544810D01*
X152420973Y-97771540D01*
X152253435Y-98022279D01*
X152253431Y-98022286D01*
X152120062Y-98292731D01*
X152120053Y-98292752D01*
X152023122Y-98578301D01*
X152023118Y-98578316D01*
X151964288Y-98874069D01*
X151964287Y-98874079D01*
X151964287Y-98874080D01*
X151944564Y-99175000D01*
X149402159Y-99175000D01*
X149405436Y-99125000D01*
X149385713Y-98824080D01*
X149375767Y-98774081D01*
X149336827Y-98578316D01*
X149326880Y-98528309D01*
X149229945Y-98242748D01*
X149214201Y-98210823D01*
X149096568Y-97972286D01*
X149096564Y-97972279D01*
X148929026Y-97721540D01*
X148730189Y-97494810D01*
X148503459Y-97295973D01*
X148252720Y-97128435D01*
X148252713Y-97128431D01*
X147982268Y-96995062D01*
X147982247Y-96995053D01*
X147696698Y-96898122D01*
X147696692Y-96898120D01*
X147696691Y-96898120D01*
X147696689Y-96898119D01*
X147696683Y-96898118D01*
X147400930Y-96839288D01*
X147400921Y-96839287D01*
X147400920Y-96839287D01*
X147100000Y-96819564D01*
X146799080Y-96839287D01*
X146799079Y-96839287D01*
X146799069Y-96839288D01*
X146503316Y-96898118D01*
X146503301Y-96898122D01*
X146217752Y-96995053D01*
X146217731Y-96995062D01*
X145947286Y-97128431D01*
X145947279Y-97128435D01*
X145696540Y-97295973D01*
X145469810Y-97494810D01*
X145270973Y-97721540D01*
X145103435Y-97972279D01*
X145103431Y-97972286D01*
X144970062Y-98242731D01*
X144970053Y-98242752D01*
X144873122Y-98528301D01*
X144873118Y-98528316D01*
X144814288Y-98824069D01*
X144814287Y-98824079D01*
X144814287Y-98824080D01*
X144807733Y-98924080D01*
X144794564Y-99125000D01*
X137352159Y-99125000D01*
X137355436Y-99075000D01*
X137335713Y-98774080D01*
X137276880Y-98478309D01*
X137179945Y-98192748D01*
X137120536Y-98072279D01*
X137046568Y-97922286D01*
X137046564Y-97922279D01*
X136879026Y-97671540D01*
X136680189Y-97444810D01*
X136453459Y-97245973D01*
X136202720Y-97078435D01*
X136202713Y-97078431D01*
X135932268Y-96945062D01*
X135932247Y-96945053D01*
X135646698Y-96848122D01*
X135646692Y-96848120D01*
X135646691Y-96848120D01*
X135646689Y-96848119D01*
X135646683Y-96848118D01*
X135350930Y-96789288D01*
X135350921Y-96789287D01*
X135350920Y-96789287D01*
X135050000Y-96769564D01*
X134749080Y-96789287D01*
X134749079Y-96789287D01*
X134749069Y-96789288D01*
X134453316Y-96848118D01*
X134453301Y-96848122D01*
X134167752Y-96945053D01*
X134167731Y-96945062D01*
X133897286Y-97078431D01*
X133897279Y-97078435D01*
X133646540Y-97245973D01*
X133419810Y-97444810D01*
X133220973Y-97671540D01*
X133053435Y-97922279D01*
X133053431Y-97922286D01*
X132920062Y-98192731D01*
X132920053Y-98192752D01*
X132823122Y-98478301D01*
X132823118Y-98478316D01*
X132764288Y-98774069D01*
X132764287Y-98774079D01*
X132764287Y-98774080D01*
X132744564Y-99075000D01*
X118100500Y-99075000D01*
X118100500Y-86875000D01*
X132994709Y-86875000D01*
X133013851Y-87154862D01*
X133013852Y-87154864D01*
X133070921Y-87429499D01*
X133070926Y-87429516D01*
X133164863Y-87693828D01*
X133164864Y-87693830D01*
X133293919Y-87942896D01*
X133455688Y-88172069D01*
X133455692Y-88172073D01*
X133455692Y-88172074D01*
X133623741Y-88352011D01*
X133647155Y-88377081D01*
X133864754Y-88554111D01*
X133864756Y-88554112D01*
X133864757Y-88554113D01*
X134104433Y-88699863D01*
X134311843Y-88789953D01*
X134361725Y-88811620D01*
X134631839Y-88887303D01*
X134876159Y-88920884D01*
X134909741Y-88925500D01*
X134909742Y-88925500D01*
X135190259Y-88925500D01*
X135220219Y-88921381D01*
X135468161Y-88887303D01*
X135738275Y-88811620D01*
X135995568Y-88699862D01*
X136235246Y-88554111D01*
X136452845Y-88377081D01*
X136644312Y-88172069D01*
X136806081Y-87942896D01*
X136935136Y-87693830D01*
X137029075Y-87429511D01*
X137029076Y-87429504D01*
X137029078Y-87429499D01*
X137065367Y-87254864D01*
X137086148Y-87154862D01*
X137105291Y-86875000D01*
X137086148Y-86595138D01*
X137049858Y-86420500D01*
X137029078Y-86320500D01*
X137029073Y-86320483D01*
X136935136Y-86056171D01*
X136935136Y-86056170D01*
X136806081Y-85807104D01*
X136644312Y-85577931D01*
X136644307Y-85577925D01*
X136452845Y-85372919D01*
X136272159Y-85225920D01*
X136235246Y-85195889D01*
X136235244Y-85195888D01*
X136235242Y-85195886D01*
X135995566Y-85050136D01*
X135738276Y-84938380D01*
X135690523Y-84925000D01*
X138794564Y-84925000D01*
X138814287Y-85225918D01*
X138814288Y-85225930D01*
X138873118Y-85521683D01*
X138873122Y-85521698D01*
X138970053Y-85807247D01*
X138970062Y-85807268D01*
X139103431Y-86077713D01*
X139103435Y-86077720D01*
X139270973Y-86328459D01*
X139469810Y-86555189D01*
X139696540Y-86754026D01*
X139947279Y-86921564D01*
X139947286Y-86921568D01*
X140217731Y-87054937D01*
X140217736Y-87054939D01*
X140217748Y-87054945D01*
X140503309Y-87151880D01*
X140703251Y-87191651D01*
X140799069Y-87210711D01*
X140799070Y-87210711D01*
X140799080Y-87210713D01*
X141100000Y-87230436D01*
X141400920Y-87210713D01*
X141696691Y-87151880D01*
X141982252Y-87054945D01*
X142252718Y-86921566D01*
X142322409Y-86875000D01*
X144994709Y-86875000D01*
X145013851Y-87154862D01*
X145013852Y-87154864D01*
X145070921Y-87429499D01*
X145070926Y-87429516D01*
X145164863Y-87693828D01*
X145164864Y-87693830D01*
X145293919Y-87942896D01*
X145455688Y-88172069D01*
X145455692Y-88172073D01*
X145455692Y-88172074D01*
X145647154Y-88377080D01*
X145788426Y-88492014D01*
X145828007Y-88549591D01*
X145830175Y-88619427D01*
X145815898Y-88652992D01*
X145714222Y-88818910D01*
X145620830Y-89044380D01*
X145563853Y-89281702D01*
X145544706Y-89525000D01*
X145563853Y-89768297D01*
X145620830Y-90005619D01*
X145714222Y-90231089D01*
X145841737Y-90439173D01*
X145841738Y-90439176D01*
X145841741Y-90439179D01*
X146000241Y-90624759D01*
X146035895Y-90655210D01*
X146185823Y-90783261D01*
X146185826Y-90783262D01*
X146393910Y-90910777D01*
X146619381Y-91004169D01*
X146619378Y-91004169D01*
X146619384Y-91004170D01*
X146619388Y-91004172D01*
X146856698Y-91061146D01*
X147100000Y-91080294D01*
X147343302Y-91061146D01*
X147580612Y-91004172D01*
X147806089Y-90910777D01*
X148014179Y-90783259D01*
X148067453Y-90737758D01*
X148164106Y-90655210D01*
X148227867Y-90626639D01*
X148244637Y-90625500D01*
X165018225Y-90625500D01*
X165085264Y-90645185D01*
X165098749Y-90655204D01*
X165214778Y-90754302D01*
X165214780Y-90754303D01*
X165214781Y-90754304D01*
X165214783Y-90754305D01*
X165422867Y-90881820D01*
X165648338Y-90975212D01*
X165648335Y-90975212D01*
X165648341Y-90975213D01*
X165648345Y-90975215D01*
X165885655Y-91032189D01*
X166128957Y-91051337D01*
X166372259Y-91032189D01*
X166609569Y-90975215D01*
X166835046Y-90881820D01*
X167043136Y-90754302D01*
X167228716Y-90595802D01*
X167387216Y-90410222D01*
X167514734Y-90202132D01*
X167608129Y-89976655D01*
X167665103Y-89739345D01*
X167684251Y-89496043D01*
X167665103Y-89252741D01*
X167608129Y-89015431D01*
X167555057Y-88887302D01*
X167514734Y-88789953D01*
X167489428Y-88748658D01*
X167471183Y-88681213D01*
X167492299Y-88614610D01*
X167516898Y-88587681D01*
X167652845Y-88477081D01*
X167844312Y-88272069D01*
X168006081Y-88042896D01*
X168135136Y-87793830D01*
X168229075Y-87529511D01*
X168229076Y-87529504D01*
X168229078Y-87529499D01*
X168270443Y-87330436D01*
X168286148Y-87254862D01*
X168305291Y-86975000D01*
X168286148Y-86695138D01*
X168230732Y-86428461D01*
X168229078Y-86420500D01*
X168229073Y-86420483D01*
X168196368Y-86328461D01*
X168135136Y-86156170D01*
X168006081Y-85907104D01*
X167844312Y-85677931D01*
X167844307Y-85677925D01*
X167652845Y-85472919D01*
X167435246Y-85295889D01*
X167435244Y-85295888D01*
X167435242Y-85295886D01*
X167195566Y-85150136D01*
X166938276Y-85038380D01*
X166668166Y-84962698D01*
X166668162Y-84962697D01*
X166668161Y-84962697D01*
X166491242Y-84938380D01*
X166390259Y-84924500D01*
X166390258Y-84924500D01*
X166109742Y-84924500D01*
X166109741Y-84924500D01*
X165831839Y-84962697D01*
X165831833Y-84962698D01*
X165561723Y-85038380D01*
X165304433Y-85150136D01*
X165064757Y-85295886D01*
X164847154Y-85472919D01*
X164655692Y-85677925D01*
X164655692Y-85677926D01*
X164493919Y-85907103D01*
X164364863Y-86156171D01*
X164270926Y-86420483D01*
X164270921Y-86420500D01*
X164213852Y-86695135D01*
X164213851Y-86695137D01*
X164194709Y-86975000D01*
X164213851Y-87254862D01*
X164213852Y-87254864D01*
X164270921Y-87529499D01*
X164270926Y-87529516D01*
X164329323Y-87693828D01*
X164364864Y-87793830D01*
X164493919Y-88042896D01*
X164625281Y-88228993D01*
X164647860Y-88295112D01*
X164631107Y-88362943D01*
X164580341Y-88410949D01*
X164523977Y-88424500D01*
X155976023Y-88424500D01*
X155908984Y-88404815D01*
X155863229Y-88352011D01*
X155853285Y-88282853D01*
X155874717Y-88228994D01*
X156006081Y-88042896D01*
X156135136Y-87793830D01*
X156229075Y-87529511D01*
X156229076Y-87529504D01*
X156229078Y-87529499D01*
X156270443Y-87330436D01*
X156286148Y-87254862D01*
X156305291Y-86975000D01*
X156286148Y-86695138D01*
X156230732Y-86428461D01*
X156229078Y-86420500D01*
X156229073Y-86420483D01*
X156196368Y-86328461D01*
X156135136Y-86156170D01*
X156006081Y-85907104D01*
X155844312Y-85677931D01*
X155844307Y-85677925D01*
X155652845Y-85472919D01*
X155435246Y-85295889D01*
X155435244Y-85295888D01*
X155435242Y-85295886D01*
X155195566Y-85150136D01*
X154938276Y-85038380D01*
X154668166Y-84962698D01*
X154668162Y-84962697D01*
X154668161Y-84962697D01*
X154491242Y-84938380D01*
X154390259Y-84924500D01*
X154390258Y-84924500D01*
X154109742Y-84924500D01*
X154109741Y-84924500D01*
X153831839Y-84962697D01*
X153831833Y-84962698D01*
X153561723Y-85038380D01*
X153304433Y-85150136D01*
X153064757Y-85295886D01*
X152847154Y-85472919D01*
X152655692Y-85677925D01*
X152655692Y-85677926D01*
X152493919Y-85907103D01*
X152364863Y-86156171D01*
X152270926Y-86420483D01*
X152270921Y-86420500D01*
X152213852Y-86695135D01*
X152213851Y-86695137D01*
X152194709Y-86975000D01*
X152213851Y-87254862D01*
X152213852Y-87254864D01*
X152270921Y-87529499D01*
X152270926Y-87529516D01*
X152329323Y-87693828D01*
X152364864Y-87793830D01*
X152493919Y-88042896D01*
X152625281Y-88228993D01*
X152647860Y-88295112D01*
X152631107Y-88362943D01*
X152580341Y-88410949D01*
X152523977Y-88424500D01*
X148694035Y-88424500D01*
X148626996Y-88404815D01*
X148581241Y-88352011D01*
X148571297Y-88282853D01*
X148600322Y-88219297D01*
X148603411Y-88215864D01*
X148644307Y-88172074D01*
X148644312Y-88172069D01*
X148806081Y-87942896D01*
X148935136Y-87693830D01*
X149029075Y-87429511D01*
X149029076Y-87429504D01*
X149029078Y-87429499D01*
X149065367Y-87254864D01*
X149086148Y-87154862D01*
X149105291Y-86875000D01*
X149086148Y-86595138D01*
X149049858Y-86420500D01*
X149029078Y-86320500D01*
X149029073Y-86320483D01*
X148935136Y-86056171D01*
X148935136Y-86056170D01*
X148806081Y-85807104D01*
X148644312Y-85577931D01*
X148644307Y-85577925D01*
X148452845Y-85372919D01*
X148272159Y-85225920D01*
X148235246Y-85195889D01*
X148235244Y-85195888D01*
X148235242Y-85195886D01*
X147995566Y-85050136D01*
X147738276Y-84938380D01*
X147468166Y-84862698D01*
X147468162Y-84862697D01*
X147468161Y-84862697D01*
X147329209Y-84843598D01*
X147190259Y-84824500D01*
X147190258Y-84824500D01*
X146909742Y-84824500D01*
X146909741Y-84824500D01*
X146631839Y-84862697D01*
X146631833Y-84862698D01*
X146361723Y-84938380D01*
X146104433Y-85050136D01*
X145864757Y-85195886D01*
X145647154Y-85372919D01*
X145455692Y-85577925D01*
X145455692Y-85577926D01*
X145455689Y-85577928D01*
X145455688Y-85577931D01*
X145424799Y-85621691D01*
X145293919Y-85807103D01*
X145164863Y-86056171D01*
X145070926Y-86320483D01*
X145070921Y-86320500D01*
X145013852Y-86595135D01*
X145013851Y-86595137D01*
X144994709Y-86875000D01*
X142322409Y-86875000D01*
X142503461Y-86754025D01*
X142730189Y-86555189D01*
X142929025Y-86328461D01*
X143096566Y-86077718D01*
X143229945Y-85807252D01*
X143326880Y-85521691D01*
X143385713Y-85225920D01*
X143405436Y-84925000D01*
X143385713Y-84624080D01*
X143326880Y-84328309D01*
X143229945Y-84042748D01*
X143145882Y-83872286D01*
X143096568Y-83772286D01*
X143096564Y-83772279D01*
X142929026Y-83521540D01*
X142730189Y-83294810D01*
X142503459Y-83095973D01*
X142252720Y-82928435D01*
X142252713Y-82928431D01*
X141982268Y-82795062D01*
X141982247Y-82795053D01*
X141696698Y-82698122D01*
X141696692Y-82698120D01*
X141696691Y-82698120D01*
X141696689Y-82698119D01*
X141696683Y-82698118D01*
X141400930Y-82639288D01*
X141400921Y-82639287D01*
X141400920Y-82639287D01*
X141100000Y-82619564D01*
X140799080Y-82639287D01*
X140799079Y-82639287D01*
X140799069Y-82639288D01*
X140503316Y-82698118D01*
X140503301Y-82698122D01*
X140217752Y-82795053D01*
X140217731Y-82795062D01*
X139947286Y-82928431D01*
X139947279Y-82928435D01*
X139696540Y-83095973D01*
X139469810Y-83294810D01*
X139270973Y-83521540D01*
X139103435Y-83772279D01*
X139103431Y-83772286D01*
X138970062Y-84042731D01*
X138970053Y-84042752D01*
X138873122Y-84328301D01*
X138873118Y-84328316D01*
X138814288Y-84624069D01*
X138814287Y-84624079D01*
X138814287Y-84624080D01*
X138807733Y-84724080D01*
X138794564Y-84925000D01*
X135690523Y-84925000D01*
X135468166Y-84862698D01*
X135468162Y-84862697D01*
X135468161Y-84862697D01*
X135329209Y-84843598D01*
X135190259Y-84824500D01*
X135190258Y-84824500D01*
X134909742Y-84824500D01*
X134909741Y-84824500D01*
X134631839Y-84862697D01*
X134631833Y-84862698D01*
X134361723Y-84938380D01*
X134104433Y-85050136D01*
X133864757Y-85195886D01*
X133647154Y-85372919D01*
X133455692Y-85577925D01*
X133455692Y-85577926D01*
X133455689Y-85577928D01*
X133455688Y-85577931D01*
X133424799Y-85621691D01*
X133293919Y-85807103D01*
X133164863Y-86056171D01*
X133070926Y-86320483D01*
X133070921Y-86320500D01*
X133013852Y-86595135D01*
X133013851Y-86595137D01*
X132994709Y-86875000D01*
X118100500Y-86875000D01*
X118100500Y-67473140D01*
X118120185Y-67406101D01*
X118172989Y-67360346D01*
X118242147Y-67350402D01*
X118305029Y-67378848D01*
X118401007Y-67460821D01*
X118485823Y-67533261D01*
X118485826Y-67533262D01*
X118693910Y-67660777D01*
X118919381Y-67754169D01*
X118919378Y-67754169D01*
X118919384Y-67754170D01*
X118919388Y-67754172D01*
X119156698Y-67811146D01*
X119400000Y-67830294D01*
X119470622Y-67824735D01*
X119538995Y-67839099D01*
X119588752Y-67888149D01*
X119604092Y-67956314D01*
X119600922Y-67977300D01*
X119563853Y-68131701D01*
X119544706Y-68375000D01*
X119563853Y-68618297D01*
X119563853Y-68618300D01*
X119563854Y-68618302D01*
X119615415Y-68833067D01*
X119620830Y-68855619D01*
X119714222Y-69081089D01*
X119841737Y-69289173D01*
X119841738Y-69289176D01*
X119841741Y-69289179D01*
X120000241Y-69474759D01*
X120143897Y-69597453D01*
X120185823Y-69633261D01*
X120185826Y-69633262D01*
X120393910Y-69760777D01*
X120619381Y-69854169D01*
X120619378Y-69854169D01*
X120619384Y-69854170D01*
X120619388Y-69854172D01*
X120856698Y-69911146D01*
X121028875Y-69924696D01*
X121053257Y-69926615D01*
X121118546Y-69951499D01*
X121131210Y-69962552D01*
X126720989Y-75552331D01*
X126754474Y-75613654D01*
X126756926Y-75630281D01*
X126763854Y-75718303D01*
X126820830Y-75955619D01*
X126914222Y-76181089D01*
X127041737Y-76389173D01*
X127041738Y-76389176D01*
X127095449Y-76452063D01*
X127200241Y-76574759D01*
X127343897Y-76697453D01*
X127385823Y-76733261D01*
X127385826Y-76733262D01*
X127593910Y-76860777D01*
X127661695Y-76888854D01*
X127799248Y-76945830D01*
X127819381Y-76954169D01*
X127819378Y-76954169D01*
X127819384Y-76954170D01*
X127819388Y-76954172D01*
X128056698Y-77011146D01*
X128300000Y-77030294D01*
X128543302Y-77011146D01*
X128780612Y-76954172D01*
X129006089Y-76860777D01*
X129214179Y-76733259D01*
X129399759Y-76574759D01*
X129558259Y-76389179D01*
X129685777Y-76181089D01*
X129779172Y-75955612D01*
X129836146Y-75718302D01*
X129855294Y-75475000D01*
X129836146Y-75231698D01*
X129779172Y-74994388D01*
X129685777Y-74768911D01*
X129685777Y-74768910D01*
X129558262Y-74560826D01*
X129558261Y-74560823D01*
X129522453Y-74518897D01*
X129399759Y-74375241D01*
X129277063Y-74270449D01*
X129214176Y-74216738D01*
X129214173Y-74216737D01*
X129006089Y-74089222D01*
X128780618Y-73995830D01*
X128780621Y-73995830D01*
X128674992Y-73970470D01*
X128543302Y-73938854D01*
X128543300Y-73938853D01*
X128543297Y-73938853D01*
X128334739Y-73922440D01*
X128300000Y-73919706D01*
X128299998Y-73919706D01*
X128265252Y-73922440D01*
X128196875Y-73908075D01*
X128167845Y-73886503D01*
X122687552Y-68406210D01*
X122654067Y-68344887D01*
X122651615Y-68328257D01*
X122636146Y-68131703D01*
X122636146Y-68131701D01*
X122636146Y-68131698D01*
X122579172Y-67894388D01*
X122576588Y-67888149D01*
X122485779Y-67668915D01*
X122421665Y-67564290D01*
X122403421Y-67496844D01*
X122424538Y-67430241D01*
X122478310Y-67385628D01*
X122527393Y-67375500D01*
X138846625Y-67375500D01*
X138913664Y-67395185D01*
X138959419Y-67447989D01*
X138969363Y-67517147D01*
X138961186Y-67546952D01*
X138920831Y-67644376D01*
X138920830Y-67644378D01*
X138863854Y-67881696D01*
X138852655Y-68023987D01*
X138827770Y-68089275D01*
X138816718Y-68101938D01*
X130085270Y-76833387D01*
X130023947Y-76866872D01*
X130004825Y-76868927D01*
X130004857Y-76869324D01*
X130000001Y-76869706D01*
X130000000Y-76869706D01*
X129938802Y-76874522D01*
X129756702Y-76888853D01*
X129519380Y-76945830D01*
X129293910Y-77039222D01*
X129085826Y-77166737D01*
X129085823Y-77166738D01*
X128900241Y-77325241D01*
X128741738Y-77510823D01*
X128741737Y-77510826D01*
X128614222Y-77718910D01*
X128520830Y-77944380D01*
X128463853Y-78181702D01*
X128444706Y-78425000D01*
X128463853Y-78668297D01*
X128463853Y-78668300D01*
X128463854Y-78668302D01*
X128516482Y-78887511D01*
X128520830Y-78905619D01*
X128614222Y-79131089D01*
X128741737Y-79339173D01*
X128741738Y-79339176D01*
X128741741Y-79339179D01*
X128900241Y-79524759D01*
X129032374Y-79637611D01*
X129085823Y-79683261D01*
X129085826Y-79683262D01*
X129293910Y-79810777D01*
X129519381Y-79904169D01*
X129519378Y-79904169D01*
X129519384Y-79904170D01*
X129519388Y-79904172D01*
X129756698Y-79961146D01*
X130000000Y-79980294D01*
X130243302Y-79961146D01*
X130480612Y-79904172D01*
X130706089Y-79810777D01*
X130914179Y-79683259D01*
X131099759Y-79524759D01*
X131258259Y-79339179D01*
X131385777Y-79131089D01*
X131404870Y-79084995D01*
X134094732Y-79084995D01*
X134094732Y-79085004D01*
X134113777Y-79339154D01*
X134164751Y-79562487D01*
X134170492Y-79587637D01*
X134263556Y-79824759D01*
X134263608Y-79824890D01*
X134364062Y-79998883D01*
X134380535Y-80066784D01*
X134357682Y-80132810D01*
X134344357Y-80148563D01*
X134270185Y-80222736D01*
X134270184Y-80222737D01*
X134174211Y-80375476D01*
X134114631Y-80545745D01*
X134114630Y-80545750D01*
X134099500Y-80680039D01*
X134099500Y-82569960D01*
X134114630Y-82704249D01*
X134114631Y-82704254D01*
X134174211Y-82874523D01*
X134270184Y-83027262D01*
X134397738Y-83154816D01*
X134550478Y-83250789D01*
X134621098Y-83275500D01*
X134720745Y-83310368D01*
X134720750Y-83310369D01*
X134811246Y-83320565D01*
X134855040Y-83325499D01*
X134855043Y-83325500D01*
X134855046Y-83325500D01*
X136744957Y-83325500D01*
X136744958Y-83325499D01*
X136812104Y-83317934D01*
X136879249Y-83310369D01*
X136879252Y-83310368D01*
X136879255Y-83310368D01*
X137049522Y-83250789D01*
X137202262Y-83154816D01*
X137329816Y-83027262D01*
X137425789Y-82874522D01*
X137485368Y-82704255D01*
X137486060Y-82698120D01*
X137494043Y-82627262D01*
X137500500Y-82569954D01*
X137500500Y-81213818D01*
X137520185Y-81146779D01*
X137572989Y-81101024D01*
X137642147Y-81091080D01*
X137705703Y-81120105D01*
X137743477Y-81178883D01*
X137745391Y-81186225D01*
X137800492Y-81427637D01*
X137893607Y-81664888D01*
X138021041Y-81885612D01*
X138179950Y-82084877D01*
X138366783Y-82258232D01*
X138577366Y-82401805D01*
X138577371Y-82401807D01*
X138577372Y-82401808D01*
X138577373Y-82401809D01*
X138687442Y-82454815D01*
X138806992Y-82512387D01*
X138806993Y-82512387D01*
X138806996Y-82512389D01*
X139050542Y-82587513D01*
X139302565Y-82625500D01*
X139557435Y-82625500D01*
X139809458Y-82587513D01*
X140053004Y-82512389D01*
X140282634Y-82401805D01*
X140493217Y-82258232D01*
X140680050Y-82084877D01*
X140838959Y-81885612D01*
X140966393Y-81664888D01*
X141059508Y-81427637D01*
X141116222Y-81179157D01*
X141124384Y-81070232D01*
X141135268Y-80925004D01*
X141135268Y-80924995D01*
X141116222Y-80670845D01*
X141105867Y-80625478D01*
X141059508Y-80422363D01*
X140966393Y-80185112D01*
X140838959Y-79964388D01*
X140680050Y-79765123D01*
X140493217Y-79591768D01*
X140282634Y-79448195D01*
X140282630Y-79448193D01*
X140282627Y-79448191D01*
X140282626Y-79448190D01*
X140056254Y-79339176D01*
X140053006Y-79337612D01*
X140053008Y-79337612D01*
X139809466Y-79262489D01*
X139809462Y-79262488D01*
X139809458Y-79262487D01*
X139688231Y-79244214D01*
X139557440Y-79224500D01*
X139557435Y-79224500D01*
X139302565Y-79224500D01*
X139302559Y-79224500D01*
X139145609Y-79248157D01*
X139050542Y-79262487D01*
X139050539Y-79262488D01*
X139050533Y-79262489D01*
X138806992Y-79337612D01*
X138577373Y-79448190D01*
X138577372Y-79448191D01*
X138366782Y-79591768D01*
X138179952Y-79765121D01*
X138179950Y-79765123D01*
X138021041Y-79964388D01*
X137893608Y-80185109D01*
X137800492Y-80422362D01*
X137800490Y-80422369D01*
X137742745Y-80675367D01*
X137740713Y-80674903D01*
X137714835Y-80730459D01*
X137655774Y-80767790D01*
X137585906Y-80767264D01*
X137527414Y-80729047D01*
X137498869Y-80665275D01*
X137498516Y-80662436D01*
X137485369Y-80545750D01*
X137485368Y-80545745D01*
X137425789Y-80375478D01*
X137406107Y-80344155D01*
X137329815Y-80222737D01*
X137255643Y-80148565D01*
X137222158Y-80087242D01*
X137227142Y-80017550D01*
X137235937Y-79998884D01*
X137246670Y-79980294D01*
X137336393Y-79824888D01*
X137429508Y-79587637D01*
X137486222Y-79339157D01*
X137505268Y-79085000D01*
X137486222Y-78830843D01*
X137429508Y-78582363D01*
X137336393Y-78345112D01*
X137208959Y-78124388D01*
X137050050Y-77925123D01*
X136863217Y-77751768D01*
X136652634Y-77608195D01*
X136652630Y-77608193D01*
X136652627Y-77608191D01*
X136652626Y-77608190D01*
X136423006Y-77497612D01*
X136423008Y-77497612D01*
X136179466Y-77422489D01*
X136179462Y-77422488D01*
X136179458Y-77422487D01*
X136058231Y-77404214D01*
X135927440Y-77384500D01*
X135927435Y-77384500D01*
X135672565Y-77384500D01*
X135672559Y-77384500D01*
X135515609Y-77408157D01*
X135420542Y-77422487D01*
X135420539Y-77422488D01*
X135420533Y-77422489D01*
X135176992Y-77497612D01*
X134947373Y-77608190D01*
X134947372Y-77608191D01*
X134736782Y-77751768D01*
X134549952Y-77925121D01*
X134549950Y-77925123D01*
X134391041Y-78124388D01*
X134263608Y-78345109D01*
X134170492Y-78582362D01*
X134170490Y-78582369D01*
X134113777Y-78830845D01*
X134094732Y-79084995D01*
X131404870Y-79084995D01*
X131479172Y-78905612D01*
X131536146Y-78668302D01*
X131547344Y-78526011D01*
X131572228Y-78460723D01*
X131583274Y-78448066D01*
X132806345Y-77224995D01*
X137724732Y-77224995D01*
X137724732Y-77225004D01*
X137743777Y-77479154D01*
X137796053Y-77708191D01*
X137800492Y-77727637D01*
X137893607Y-77964888D01*
X138021041Y-78185612D01*
X138179950Y-78384877D01*
X138366783Y-78558232D01*
X138577366Y-78701805D01*
X138577371Y-78701807D01*
X138577372Y-78701808D01*
X138577373Y-78701809D01*
X138699328Y-78760538D01*
X138806992Y-78812387D01*
X138806993Y-78812387D01*
X138806996Y-78812389D01*
X139050542Y-78887513D01*
X139302565Y-78925500D01*
X139557435Y-78925500D01*
X139809458Y-78887513D01*
X140053004Y-78812389D01*
X140282634Y-78701805D01*
X140493217Y-78558232D01*
X140680050Y-78384877D01*
X140838959Y-78185612D01*
X140966393Y-77964888D01*
X141059508Y-77727637D01*
X141116222Y-77479157D01*
X141135268Y-77225000D01*
X141135268Y-77224995D01*
X145344732Y-77224995D01*
X145344732Y-77225004D01*
X145363777Y-77479154D01*
X145416053Y-77708191D01*
X145420492Y-77727637D01*
X145513607Y-77964888D01*
X145641041Y-78185612D01*
X145799950Y-78384877D01*
X145986783Y-78558232D01*
X146197366Y-78701805D01*
X146197371Y-78701807D01*
X146197372Y-78701808D01*
X146197373Y-78701809D01*
X146319328Y-78760538D01*
X146426992Y-78812387D01*
X146426993Y-78812387D01*
X146426996Y-78812389D01*
X146670542Y-78887513D01*
X146922565Y-78925500D01*
X147177435Y-78925500D01*
X147429458Y-78887513D01*
X147673004Y-78812389D01*
X147902634Y-78701805D01*
X148113217Y-78558232D01*
X148144217Y-78529467D01*
X148206744Y-78498300D01*
X148276201Y-78505886D01*
X148330531Y-78549818D01*
X148352484Y-78616149D01*
X148352174Y-78630094D01*
X148347656Y-78687510D01*
X148344706Y-78725000D01*
X148348282Y-78770447D01*
X148363853Y-78968298D01*
X148403407Y-79133051D01*
X148399916Y-79202833D01*
X148359253Y-79259651D01*
X148294326Y-79285464D01*
X148241879Y-79279040D01*
X148129257Y-79239632D01*
X148129249Y-79239630D01*
X147994960Y-79224500D01*
X147994954Y-79224500D01*
X146105046Y-79224500D01*
X146105039Y-79224500D01*
X145970750Y-79239630D01*
X145970745Y-79239631D01*
X145800476Y-79299211D01*
X145647737Y-79395184D01*
X145520184Y-79522737D01*
X145424211Y-79675476D01*
X145364631Y-79845745D01*
X145364630Y-79845750D01*
X145349500Y-79980039D01*
X145349500Y-81869960D01*
X145364630Y-82004249D01*
X145364631Y-82004254D01*
X145424211Y-82174523D01*
X145505724Y-82304249D01*
X145520184Y-82327262D01*
X145647738Y-82454816D01*
X145800478Y-82550789D01*
X145905429Y-82587513D01*
X145970745Y-82610368D01*
X145970750Y-82610369D01*
X146052362Y-82619564D01*
X146105040Y-82625499D01*
X146105043Y-82625500D01*
X146105046Y-82625500D01*
X147994957Y-82625500D01*
X147994958Y-82625499D01*
X148062104Y-82617934D01*
X148129249Y-82610369D01*
X148129252Y-82610368D01*
X148129255Y-82610368D01*
X148299522Y-82550789D01*
X148452262Y-82454816D01*
X148579816Y-82327262D01*
X148675789Y-82174522D01*
X148735368Y-82004255D01*
X148750500Y-81869954D01*
X148750500Y-80051252D01*
X148770185Y-79984213D01*
X148822989Y-79938458D01*
X148892147Y-79928514D01*
X148955030Y-79956961D01*
X148985821Y-79983259D01*
X148985823Y-79983260D01*
X148985824Y-79983261D01*
X148985826Y-79983262D01*
X149193910Y-80110777D01*
X149419381Y-80204169D01*
X149419378Y-80204169D01*
X149419384Y-80204170D01*
X149419388Y-80204172D01*
X149656698Y-80261146D01*
X149900000Y-80280294D01*
X150143302Y-80261146D01*
X150380612Y-80204172D01*
X150606089Y-80110777D01*
X150814179Y-79983259D01*
X150999759Y-79824759D01*
X151158259Y-79639179D01*
X151285777Y-79431089D01*
X151379172Y-79205612D01*
X151384122Y-79184995D01*
X153394732Y-79184995D01*
X153394732Y-79185004D01*
X153413777Y-79439154D01*
X153469492Y-79683259D01*
X153470492Y-79687637D01*
X153555476Y-79904172D01*
X153563608Y-79924890D01*
X153582125Y-79956962D01*
X153657341Y-80087242D01*
X153691043Y-80145615D01*
X153780013Y-80257181D01*
X153806422Y-80321867D01*
X153793665Y-80390563D01*
X153770748Y-80422173D01*
X153720184Y-80472737D01*
X153624211Y-80625476D01*
X153564631Y-80795745D01*
X153564630Y-80795750D01*
X153549500Y-80930039D01*
X153549500Y-82519960D01*
X153564630Y-82654249D01*
X153564631Y-82654254D01*
X153624211Y-82824523D01*
X153678152Y-82910369D01*
X153720184Y-82977262D01*
X153847738Y-83104816D01*
X153938080Y-83161582D01*
X153992819Y-83195977D01*
X154000478Y-83200789D01*
X154143367Y-83250788D01*
X154170745Y-83260368D01*
X154170750Y-83260369D01*
X154261246Y-83270565D01*
X154305040Y-83275499D01*
X154305043Y-83275500D01*
X154305046Y-83275500D01*
X155894957Y-83275500D01*
X155894958Y-83275499D01*
X155962104Y-83267934D01*
X156029249Y-83260369D01*
X156029252Y-83260368D01*
X156029255Y-83260368D01*
X156199522Y-83200789D01*
X156352262Y-83104816D01*
X156479816Y-82977262D01*
X156575789Y-82824522D01*
X156635368Y-82654255D01*
X156637055Y-82639288D01*
X156650499Y-82519960D01*
X156650500Y-82519956D01*
X156650500Y-81224995D01*
X157084732Y-81224995D01*
X157084732Y-81225004D01*
X157103777Y-81479154D01*
X157103778Y-81479157D01*
X157160492Y-81727637D01*
X157253607Y-81964888D01*
X157381041Y-82185612D01*
X157539950Y-82384877D01*
X157726783Y-82558232D01*
X157937366Y-82701805D01*
X157937371Y-82701807D01*
X157937372Y-82701808D01*
X157937373Y-82701809D01*
X158047442Y-82754815D01*
X158166992Y-82812387D01*
X158166993Y-82812387D01*
X158166996Y-82812389D01*
X158410542Y-82887513D01*
X158662565Y-82925500D01*
X158892561Y-82925500D01*
X158959600Y-82945185D01*
X159005355Y-82997989D01*
X159015299Y-83067147D01*
X158986274Y-83130703D01*
X158961454Y-83152599D01*
X158926561Y-83175914D01*
X158896535Y-83195977D01*
X158669810Y-83394810D01*
X158470973Y-83621540D01*
X158303435Y-83872279D01*
X158303431Y-83872286D01*
X158170062Y-84142731D01*
X158170053Y-84142752D01*
X158073122Y-84428301D01*
X158073118Y-84428316D01*
X158014288Y-84724069D01*
X158014287Y-84724079D01*
X158014287Y-84724080D01*
X157994564Y-85025000D01*
X158007733Y-85225930D01*
X158014287Y-85325918D01*
X158014288Y-85325930D01*
X158073118Y-85621683D01*
X158073122Y-85621698D01*
X158170053Y-85907247D01*
X158170062Y-85907268D01*
X158303431Y-86177713D01*
X158303435Y-86177720D01*
X158470973Y-86428459D01*
X158669810Y-86655189D01*
X158896540Y-86854026D01*
X159147279Y-87021564D01*
X159147286Y-87021568D01*
X159417731Y-87154937D01*
X159417736Y-87154939D01*
X159417748Y-87154945D01*
X159703309Y-87251880D01*
X159903251Y-87291651D01*
X159999069Y-87310711D01*
X159999070Y-87310711D01*
X159999080Y-87310713D01*
X160300000Y-87330436D01*
X160600920Y-87310713D01*
X160896691Y-87251880D01*
X161182252Y-87154945D01*
X161452718Y-87021566D01*
X161703461Y-86854025D01*
X161930189Y-86655189D01*
X162129025Y-86428461D01*
X162296566Y-86177718D01*
X162429945Y-85907252D01*
X162526880Y-85621691D01*
X162585713Y-85325920D01*
X162605436Y-85025000D01*
X162585713Y-84724080D01*
X162526880Y-84428309D01*
X162429945Y-84142748D01*
X162380632Y-84042752D01*
X162296568Y-83872286D01*
X162296564Y-83872279D01*
X162129026Y-83621540D01*
X161930189Y-83394810D01*
X161703459Y-83195973D01*
X161452720Y-83028435D01*
X161452713Y-83028431D01*
X161182268Y-82895062D01*
X161182247Y-82895053D01*
X160896698Y-82798122D01*
X160896692Y-82798120D01*
X160896691Y-82798120D01*
X160896689Y-82798119D01*
X160896683Y-82798118D01*
X160600930Y-82739288D01*
X160600921Y-82739287D01*
X160600920Y-82739287D01*
X160300000Y-82719564D01*
X159999080Y-82739287D01*
X159999076Y-82739287D01*
X159999068Y-82739289D01*
X159994708Y-82740156D01*
X159925117Y-82733921D01*
X159869945Y-82691052D01*
X159846707Y-82625160D01*
X159862782Y-82557164D01*
X159886184Y-82527642D01*
X160040050Y-82384877D01*
X160198959Y-82185612D01*
X160326393Y-81964888D01*
X160419508Y-81727637D01*
X160476222Y-81479157D01*
X160495268Y-81225000D01*
X160492362Y-81186225D01*
X160476222Y-80970845D01*
X160466909Y-80930043D01*
X160419508Y-80722363D01*
X160326393Y-80485112D01*
X160207995Y-80280039D01*
X164709500Y-80280039D01*
X164709500Y-82169960D01*
X164724630Y-82304249D01*
X164724631Y-82304254D01*
X164784211Y-82474523D01*
X164855206Y-82587510D01*
X164880184Y-82627262D01*
X165007738Y-82754816D01*
X165160478Y-82850789D01*
X165265429Y-82887513D01*
X165330745Y-82910368D01*
X165330750Y-82910369D01*
X165421246Y-82920565D01*
X165465040Y-82925499D01*
X165465043Y-82925500D01*
X165465046Y-82925500D01*
X167354957Y-82925500D01*
X167354958Y-82925499D01*
X167422104Y-82917934D01*
X167489249Y-82910369D01*
X167489252Y-82910368D01*
X167489255Y-82910368D01*
X167659522Y-82850789D01*
X167812262Y-82754816D01*
X167939816Y-82627262D01*
X168035789Y-82474522D01*
X168095368Y-82304255D01*
X168110500Y-82169954D01*
X168110500Y-80280046D01*
X168095368Y-80145745D01*
X168035789Y-79975478D01*
X167939816Y-79822738D01*
X167812262Y-79695184D01*
X167793287Y-79683261D01*
X167659523Y-79599211D01*
X167489254Y-79539631D01*
X167489249Y-79539630D01*
X167354960Y-79524500D01*
X167354954Y-79524500D01*
X165465046Y-79524500D01*
X165465039Y-79524500D01*
X165330750Y-79539630D01*
X165330745Y-79539631D01*
X165160476Y-79599211D01*
X165007737Y-79695184D01*
X164880184Y-79822737D01*
X164784211Y-79975476D01*
X164724631Y-80145745D01*
X164724630Y-80145750D01*
X164709500Y-80280039D01*
X160207995Y-80280039D01*
X160198959Y-80264388D01*
X160040050Y-80065123D01*
X159853217Y-79891768D01*
X159642634Y-79748195D01*
X159642630Y-79748193D01*
X159642627Y-79748191D01*
X159642626Y-79748190D01*
X159416254Y-79639176D01*
X159413006Y-79637612D01*
X159413008Y-79637612D01*
X159169466Y-79562489D01*
X159169462Y-79562488D01*
X159169458Y-79562487D01*
X159048231Y-79544214D01*
X158917440Y-79524500D01*
X158917435Y-79524500D01*
X158662565Y-79524500D01*
X158662559Y-79524500D01*
X158505609Y-79548157D01*
X158410542Y-79562487D01*
X158410539Y-79562488D01*
X158410533Y-79562489D01*
X158166992Y-79637612D01*
X157937373Y-79748190D01*
X157937372Y-79748191D01*
X157726782Y-79891768D01*
X157539952Y-80065121D01*
X157539950Y-80065123D01*
X157381041Y-80264388D01*
X157253608Y-80485109D01*
X157160492Y-80722362D01*
X157160490Y-80722369D01*
X157103777Y-80970845D01*
X157084732Y-81224995D01*
X156650500Y-81224995D01*
X156650500Y-80930043D01*
X156650499Y-80930039D01*
X156635369Y-80795750D01*
X156635368Y-80795745D01*
X156612029Y-80729047D01*
X156575789Y-80625478D01*
X156479816Y-80472738D01*
X156429251Y-80422173D01*
X156395766Y-80360850D01*
X156400750Y-80291158D01*
X156419982Y-80257183D01*
X156508959Y-80145612D01*
X156636393Y-79924888D01*
X156729508Y-79687637D01*
X156786222Y-79439157D01*
X156796709Y-79299211D01*
X156805268Y-79185004D01*
X156805268Y-79184995D01*
X156786222Y-78930845D01*
X156780464Y-78905619D01*
X156729508Y-78682363D01*
X156636393Y-78445112D01*
X156508959Y-78224388D01*
X156350050Y-78025123D01*
X156163217Y-77851768D01*
X155952634Y-77708195D01*
X155952630Y-77708193D01*
X155952627Y-77708191D01*
X155952626Y-77708190D01*
X155723006Y-77597612D01*
X155723008Y-77597612D01*
X155479466Y-77522489D01*
X155479462Y-77522488D01*
X155479458Y-77522487D01*
X155358231Y-77504214D01*
X155227440Y-77484500D01*
X155227435Y-77484500D01*
X154972565Y-77484500D01*
X154972559Y-77484500D01*
X154815609Y-77508157D01*
X154720542Y-77522487D01*
X154720539Y-77522488D01*
X154720533Y-77522489D01*
X154476992Y-77597612D01*
X154247373Y-77708190D01*
X154247372Y-77708191D01*
X154036782Y-77851768D01*
X153849952Y-78025121D01*
X153849950Y-78025123D01*
X153691041Y-78224388D01*
X153563608Y-78445109D01*
X153470492Y-78682362D01*
X153470490Y-78682369D01*
X153413777Y-78930845D01*
X153394732Y-79184995D01*
X151384122Y-79184995D01*
X151436146Y-78968302D01*
X151455294Y-78725000D01*
X151436146Y-78481698D01*
X151379172Y-78244388D01*
X151369725Y-78221580D01*
X151285777Y-78018910D01*
X151158260Y-77810823D01*
X151158258Y-77810819D01*
X151030209Y-77660892D01*
X151001639Y-77597131D01*
X151000500Y-77580361D01*
X151000500Y-77024995D01*
X156874732Y-77024995D01*
X156874732Y-77025004D01*
X156893777Y-77279154D01*
X156949316Y-77522488D01*
X156950492Y-77527637D01*
X157043607Y-77764888D01*
X157171041Y-77985612D01*
X157329950Y-78184877D01*
X157516783Y-78358232D01*
X157727366Y-78501805D01*
X157727371Y-78501807D01*
X157727372Y-78501808D01*
X157727373Y-78501809D01*
X157827066Y-78549818D01*
X157956992Y-78612387D01*
X157956993Y-78612387D01*
X157956996Y-78612389D01*
X158200542Y-78687513D01*
X158452565Y-78725500D01*
X158707435Y-78725500D01*
X158959458Y-78687513D01*
X159203004Y-78612389D01*
X159432634Y-78501805D01*
X159643217Y-78358232D01*
X159830050Y-78184877D01*
X159988959Y-77985612D01*
X160116393Y-77764888D01*
X160209508Y-77527637D01*
X160266222Y-77279157D01*
X160284202Y-77039223D01*
X160285268Y-77025004D01*
X160285268Y-77024995D01*
X164494732Y-77024995D01*
X164494732Y-77025004D01*
X164513777Y-77279154D01*
X164569316Y-77522488D01*
X164570492Y-77527637D01*
X164663607Y-77764888D01*
X164791041Y-77985612D01*
X164949950Y-78184877D01*
X165136783Y-78358232D01*
X165347366Y-78501805D01*
X165347371Y-78501807D01*
X165347372Y-78501808D01*
X165347373Y-78501809D01*
X165447066Y-78549818D01*
X165576992Y-78612387D01*
X165576993Y-78612387D01*
X165576996Y-78612389D01*
X165820542Y-78687513D01*
X166072565Y-78725500D01*
X166327435Y-78725500D01*
X166579458Y-78687513D01*
X166823004Y-78612389D01*
X167052634Y-78501805D01*
X167263217Y-78358232D01*
X167450050Y-78184877D01*
X167608959Y-77985612D01*
X167736393Y-77764888D01*
X167829508Y-77527637D01*
X167886222Y-77279157D01*
X167904202Y-77039223D01*
X167905268Y-77025004D01*
X167905268Y-77024995D01*
X167886222Y-76770845D01*
X167877643Y-76733259D01*
X167829508Y-76522363D01*
X167736393Y-76285112D01*
X167608959Y-76064388D01*
X167450050Y-75865123D01*
X167263217Y-75691768D01*
X167052634Y-75548195D01*
X167052630Y-75548193D01*
X167052627Y-75548191D01*
X167052626Y-75548190D01*
X166823006Y-75437612D01*
X166823008Y-75437612D01*
X166579466Y-75362489D01*
X166579462Y-75362488D01*
X166579458Y-75362487D01*
X166458231Y-75344214D01*
X166327440Y-75324500D01*
X166327435Y-75324500D01*
X166072565Y-75324500D01*
X166072559Y-75324500D01*
X165915609Y-75348157D01*
X165820542Y-75362487D01*
X165820539Y-75362488D01*
X165820533Y-75362489D01*
X165576992Y-75437612D01*
X165347373Y-75548190D01*
X165347372Y-75548191D01*
X165136782Y-75691768D01*
X164949952Y-75865121D01*
X164949950Y-75865123D01*
X164791041Y-76064388D01*
X164663608Y-76285109D01*
X164570492Y-76522362D01*
X164570490Y-76522369D01*
X164513777Y-76770845D01*
X164494732Y-77024995D01*
X160285268Y-77024995D01*
X160266222Y-76770845D01*
X160257643Y-76733259D01*
X160209508Y-76522363D01*
X160116393Y-76285112D01*
X159988959Y-76064388D01*
X159830050Y-75865123D01*
X159643217Y-75691768D01*
X159432634Y-75548195D01*
X159432630Y-75548193D01*
X159432627Y-75548191D01*
X159432626Y-75548190D01*
X159203006Y-75437612D01*
X159203008Y-75437612D01*
X158959466Y-75362489D01*
X158959462Y-75362488D01*
X158959458Y-75362487D01*
X158838231Y-75344214D01*
X158707440Y-75324500D01*
X158707435Y-75324500D01*
X158452565Y-75324500D01*
X158452559Y-75324500D01*
X158295609Y-75348157D01*
X158200542Y-75362487D01*
X158200539Y-75362488D01*
X158200533Y-75362489D01*
X157956992Y-75437612D01*
X157727373Y-75548190D01*
X157727372Y-75548191D01*
X157516782Y-75691768D01*
X157329952Y-75865121D01*
X157329950Y-75865123D01*
X157171041Y-76064388D01*
X157043608Y-76285109D01*
X156950492Y-76522362D01*
X156950490Y-76522369D01*
X156893777Y-76770845D01*
X156874732Y-77024995D01*
X151000500Y-77024995D01*
X151000500Y-74019636D01*
X151020185Y-73952597D01*
X151030203Y-73939112D01*
X151158259Y-73789179D01*
X151285777Y-73581089D01*
X151379172Y-73355612D01*
X151436146Y-73118302D01*
X151455294Y-72875000D01*
X151436146Y-72631698D01*
X151379172Y-72394388D01*
X151285777Y-72168911D01*
X151285777Y-72168910D01*
X151158262Y-71960826D01*
X151158261Y-71960823D01*
X151120774Y-71916932D01*
X150999759Y-71775241D01*
X150877063Y-71670449D01*
X150814176Y-71616738D01*
X150814173Y-71616737D01*
X150655987Y-71519800D01*
X150633096Y-71501754D01*
X150616930Y-71485588D01*
X150616928Y-71485586D01*
X150476788Y-71383768D01*
X150322445Y-71305127D01*
X150157701Y-71251598D01*
X150157699Y-71251597D01*
X150157698Y-71251597D01*
X150026271Y-71230781D01*
X149986611Y-71224500D01*
X149813389Y-71224500D01*
X149773728Y-71230781D01*
X149642302Y-71251597D01*
X149477552Y-71305128D01*
X149323208Y-71383770D01*
X149183078Y-71485580D01*
X149183077Y-71485581D01*
X149166897Y-71501760D01*
X149144010Y-71519801D01*
X148985826Y-71616737D01*
X148985823Y-71616738D01*
X148800241Y-71775241D01*
X148641738Y-71960823D01*
X148641737Y-71960826D01*
X148514222Y-72168910D01*
X148420830Y-72394380D01*
X148363853Y-72631702D01*
X148344706Y-72875000D01*
X148363853Y-73118297D01*
X148420830Y-73355619D01*
X148514222Y-73581089D01*
X148641737Y-73789173D01*
X148641738Y-73789175D01*
X148641739Y-73789177D01*
X148641741Y-73789179D01*
X148769791Y-73939106D01*
X148798361Y-74002865D01*
X148799500Y-74019636D01*
X148799500Y-76391449D01*
X148779815Y-76458488D01*
X148727011Y-76504243D01*
X148657853Y-76514187D01*
X148594297Y-76485162D01*
X148568113Y-76453449D01*
X148531003Y-76389173D01*
X148458959Y-76264388D01*
X148300050Y-76065123D01*
X148113217Y-75891768D01*
X147902634Y-75748195D01*
X147902630Y-75748193D01*
X147902627Y-75748191D01*
X147902626Y-75748190D01*
X147673006Y-75637612D01*
X147673008Y-75637612D01*
X147429466Y-75562489D01*
X147429462Y-75562488D01*
X147429458Y-75562487D01*
X147308231Y-75544214D01*
X147177440Y-75524500D01*
X147177435Y-75524500D01*
X146922565Y-75524500D01*
X146922559Y-75524500D01*
X146765609Y-75548157D01*
X146670542Y-75562487D01*
X146670539Y-75562488D01*
X146670533Y-75562489D01*
X146426992Y-75637612D01*
X146197373Y-75748190D01*
X146197372Y-75748191D01*
X145986782Y-75891768D01*
X145799952Y-76065121D01*
X145799950Y-76065123D01*
X145641041Y-76264388D01*
X145513608Y-76485109D01*
X145420492Y-76722362D01*
X145420490Y-76722369D01*
X145363777Y-76970845D01*
X145344732Y-77224995D01*
X141135268Y-77224995D01*
X141116222Y-76970843D01*
X141059508Y-76722363D01*
X140966393Y-76485112D01*
X140838959Y-76264388D01*
X140680050Y-76065123D01*
X140493217Y-75891768D01*
X140282634Y-75748195D01*
X140282630Y-75748193D01*
X140282627Y-75748191D01*
X140282626Y-75748190D01*
X140053006Y-75637612D01*
X140053008Y-75637612D01*
X139809466Y-75562489D01*
X139809462Y-75562488D01*
X139809458Y-75562487D01*
X139688231Y-75544214D01*
X139557440Y-75524500D01*
X139557435Y-75524500D01*
X139302565Y-75524500D01*
X139302559Y-75524500D01*
X139145609Y-75548157D01*
X139050542Y-75562487D01*
X139050539Y-75562488D01*
X139050533Y-75562489D01*
X138806992Y-75637612D01*
X138577373Y-75748190D01*
X138577372Y-75748191D01*
X138366782Y-75891768D01*
X138179952Y-76065121D01*
X138179950Y-76065123D01*
X138021041Y-76264388D01*
X137893608Y-76485109D01*
X137800492Y-76722362D01*
X137800490Y-76722369D01*
X137743777Y-76970845D01*
X137724732Y-77224995D01*
X132806345Y-77224995D01*
X139777630Y-70253711D01*
X151749500Y-70253711D01*
X151749500Y-70496288D01*
X151781161Y-70736785D01*
X151843947Y-70971104D01*
X151936773Y-71195205D01*
X151936776Y-71195212D01*
X152058064Y-71405289D01*
X152058066Y-71405292D01*
X152058067Y-71405293D01*
X152205733Y-71597736D01*
X152205739Y-71597743D01*
X152377256Y-71769260D01*
X152377262Y-71769265D01*
X152569711Y-71916936D01*
X152779788Y-72038224D01*
X153003900Y-72131054D01*
X153238211Y-72193838D01*
X153418586Y-72217584D01*
X153478711Y-72225500D01*
X153478712Y-72225500D01*
X153721289Y-72225500D01*
X153769388Y-72219167D01*
X153961789Y-72193838D01*
X154196100Y-72131054D01*
X154420212Y-72038224D01*
X154630289Y-71916936D01*
X154822738Y-71769265D01*
X154994265Y-71597738D01*
X155141936Y-71405289D01*
X155263224Y-71195212D01*
X155356054Y-70971100D01*
X155418838Y-70736789D01*
X155450500Y-70496288D01*
X155450500Y-70253712D01*
X155418838Y-70013211D01*
X155356054Y-69778900D01*
X155263224Y-69554788D01*
X155141936Y-69344711D01*
X154994265Y-69152262D01*
X154994260Y-69152256D01*
X154822743Y-68980739D01*
X154822736Y-68980733D01*
X154630293Y-68833067D01*
X154630292Y-68833066D01*
X154630289Y-68833064D01*
X154420212Y-68711776D01*
X154420205Y-68711773D01*
X154196104Y-68618947D01*
X153961785Y-68556161D01*
X153721289Y-68524500D01*
X153721288Y-68524500D01*
X153478712Y-68524500D01*
X153478711Y-68524500D01*
X153238214Y-68556161D01*
X153003895Y-68618947D01*
X152779794Y-68711773D01*
X152779785Y-68711777D01*
X152569706Y-68833067D01*
X152377263Y-68980733D01*
X152377256Y-68980739D01*
X152205739Y-69152256D01*
X152205733Y-69152263D01*
X152058067Y-69344706D01*
X151936777Y-69554785D01*
X151936773Y-69554794D01*
X151843947Y-69778895D01*
X151781161Y-70013214D01*
X151749500Y-70253711D01*
X139777630Y-70253711D01*
X140314728Y-69716613D01*
X140376051Y-69683128D01*
X140395174Y-69681071D01*
X140395143Y-69680676D01*
X140399998Y-69680293D01*
X140400000Y-69680294D01*
X140643302Y-69661146D01*
X140880612Y-69604172D01*
X141106089Y-69510777D01*
X141314179Y-69383259D01*
X141499759Y-69224759D01*
X141658259Y-69039179D01*
X141785777Y-68831089D01*
X141879172Y-68605612D01*
X141936146Y-68368302D01*
X141955294Y-68125000D01*
X141936146Y-67881698D01*
X141881398Y-67653660D01*
X141884889Y-67583880D01*
X141925552Y-67527063D01*
X141990478Y-67501249D01*
X142059054Y-67514635D01*
X142082501Y-67530424D01*
X142085821Y-67533259D01*
X142085825Y-67533261D01*
X142085827Y-67533263D01*
X142293910Y-67660777D01*
X142519381Y-67754169D01*
X142519378Y-67754169D01*
X142519384Y-67754170D01*
X142519388Y-67754172D01*
X142756698Y-67811146D01*
X143000000Y-67830294D01*
X143243302Y-67811146D01*
X143480612Y-67754172D01*
X143706089Y-67660777D01*
X143914179Y-67533259D01*
X144099759Y-67374759D01*
X144258259Y-67189179D01*
X144385777Y-66981089D01*
X144479172Y-66755612D01*
X144536146Y-66518302D01*
X144555294Y-66275000D01*
X144536146Y-66031698D01*
X144512480Y-65933124D01*
X144515971Y-65863343D01*
X144556634Y-65806526D01*
X144594735Y-65786247D01*
X144619379Y-65778241D01*
X144843845Y-65663870D01*
X145047656Y-65515793D01*
X145225793Y-65337656D01*
X145373870Y-65133845D01*
X145488241Y-64909379D01*
X145566090Y-64669785D01*
X145605500Y-64420962D01*
X145605500Y-64068138D01*
X145625185Y-64001099D01*
X145677989Y-63955344D01*
X145682048Y-63953577D01*
X145906085Y-63860779D01*
X145906086Y-63860778D01*
X145906089Y-63860777D01*
X146114179Y-63733259D01*
X146299759Y-63574759D01*
X146458259Y-63389179D01*
X146585777Y-63181089D01*
X146679172Y-62955612D01*
X146736146Y-62718302D01*
X146751615Y-62521740D01*
X146776499Y-62456452D01*
X146787545Y-62443795D01*
X157677332Y-51554008D01*
X157738653Y-51520525D01*
X157755283Y-51518073D01*
X157843302Y-51511146D01*
X158080612Y-51454172D01*
X158306089Y-51360777D01*
X158514179Y-51233259D01*
X158699759Y-51074759D01*
X158858259Y-50889179D01*
X158985777Y-50681089D01*
X159079172Y-50455612D01*
X159136146Y-50218302D01*
X159155294Y-49975000D01*
X159136146Y-49731698D01*
X159079172Y-49494388D01*
X158985777Y-49268911D01*
X158985777Y-49268910D01*
X158858262Y-49060826D01*
X158858261Y-49060823D01*
X158822453Y-49018897D01*
X158699759Y-48875241D01*
X158577063Y-48770449D01*
X158514176Y-48716738D01*
X158514173Y-48716737D01*
X158306089Y-48589222D01*
X158080618Y-48495830D01*
X158080621Y-48495830D01*
X157913103Y-48455612D01*
X157843302Y-48438854D01*
X157843300Y-48438853D01*
X157843297Y-48438853D01*
X157600000Y-48419706D01*
X157356702Y-48438853D01*
X157119380Y-48495830D01*
X156893910Y-48589222D01*
X156685826Y-48716737D01*
X156685823Y-48716738D01*
X156500241Y-48875241D01*
X156341738Y-49060823D01*
X156341737Y-49060826D01*
X156214222Y-49268910D01*
X156120830Y-49494380D01*
X156063853Y-49731702D01*
X156044706Y-49975001D01*
X156047440Y-50009745D01*
X156033075Y-50078122D01*
X156011503Y-50107153D01*
X154808960Y-51309696D01*
X154747637Y-51343181D01*
X154677945Y-51338197D01*
X154622012Y-51296325D01*
X154606717Y-51269466D01*
X154606487Y-51268911D01*
X154585777Y-51218911D01*
X154458261Y-51010825D01*
X154458261Y-51010823D01*
X154354367Y-50889179D01*
X154299759Y-50825241D01*
X154172717Y-50716737D01*
X154114176Y-50666738D01*
X154114173Y-50666737D01*
X153906089Y-50539222D01*
X153680618Y-50445830D01*
X153680621Y-50445830D01*
X153571808Y-50419706D01*
X153443302Y-50388854D01*
X153443300Y-50388853D01*
X153443297Y-50388853D01*
X153200000Y-50369706D01*
X152956702Y-50388853D01*
X152956698Y-50388854D01*
X152748437Y-50438854D01*
X152719380Y-50445830D01*
X152493910Y-50539222D01*
X152285823Y-50666739D01*
X152285818Y-50666742D01*
X152227283Y-50716737D01*
X152194436Y-50744790D01*
X152130677Y-50773361D01*
X152113906Y-50774500D01*
X140527552Y-50774500D01*
X140460513Y-50754815D01*
X140447021Y-50744791D01*
X140414175Y-50716738D01*
X140414173Y-50716737D01*
X140206089Y-50589222D01*
X139980618Y-50495830D01*
X139980621Y-50495830D01*
X139813103Y-50455612D01*
X139743302Y-50438854D01*
X139743300Y-50438853D01*
X139743297Y-50438853D01*
X139500000Y-50419706D01*
X139256702Y-50438853D01*
X139019380Y-50495830D01*
X138793910Y-50589222D01*
X138585826Y-50716737D01*
X138585823Y-50716738D01*
X138400241Y-50875241D01*
X138241738Y-51060823D01*
X138241737Y-51060826D01*
X138114222Y-51268910D01*
X138020830Y-51494380D01*
X137963853Y-51731702D01*
X137944706Y-51975000D01*
X137963853Y-52218297D01*
X137988643Y-52321552D01*
X137985152Y-52391335D01*
X137944489Y-52448152D01*
X137879563Y-52473966D01*
X137868069Y-52474500D01*
X132332552Y-52474500D01*
X132265513Y-52454815D01*
X132252021Y-52444791D01*
X132219175Y-52416738D01*
X132219173Y-52416737D01*
X132011089Y-52289222D01*
X131785618Y-52195830D01*
X131785621Y-52195830D01*
X131679992Y-52170470D01*
X131548302Y-52138854D01*
X131548300Y-52138853D01*
X131548297Y-52138853D01*
X131305000Y-52119706D01*
X131061702Y-52138853D01*
X130824380Y-52195830D01*
X130598910Y-52289222D01*
X130390826Y-52416737D01*
X130390823Y-52416738D01*
X130205241Y-52575241D01*
X130046738Y-52760823D01*
X130046737Y-52760826D01*
X129919222Y-52968910D01*
X129825830Y-53194380D01*
X129768853Y-53431702D01*
X129749706Y-53675000D01*
X129768853Y-53918297D01*
X129768853Y-53918300D01*
X129768854Y-53918302D01*
X129777811Y-53955612D01*
X129825830Y-54155619D01*
X129919220Y-54381084D01*
X129984723Y-54487975D01*
X130002967Y-54555421D01*
X129981850Y-54622024D01*
X129928078Y-54666637D01*
X129858723Y-54675097D01*
X129806110Y-54653083D01*
X129603848Y-54506132D01*
X129603847Y-54506131D01*
X129603845Y-54506130D01*
X129533747Y-54470413D01*
X129379383Y-54391760D01*
X129139785Y-54313910D01*
X128890962Y-54274500D01*
X128639038Y-54274500D01*
X128514626Y-54294205D01*
X128390214Y-54313910D01*
X128150616Y-54391760D01*
X127926151Y-54506132D01*
X127722350Y-54654201D01*
X127722345Y-54654205D01*
X127582681Y-54793870D01*
X127521358Y-54827355D01*
X127451666Y-54822371D01*
X127407319Y-54793870D01*
X127267654Y-54654205D01*
X127267649Y-54654201D01*
X127063848Y-54506132D01*
X127063847Y-54506131D01*
X127063845Y-54506130D01*
X126993747Y-54470413D01*
X126839383Y-54391760D01*
X126599785Y-54313910D01*
X126350962Y-54274500D01*
X126099038Y-54274500D01*
X125974626Y-54294205D01*
X125850214Y-54313910D01*
X125610616Y-54391760D01*
X125386151Y-54506132D01*
X125182350Y-54654201D01*
X125182345Y-54654205D01*
X125004205Y-54832345D01*
X125004201Y-54832350D01*
X124856132Y-55036151D01*
X124741760Y-55260616D01*
X124663910Y-55500214D01*
X124624500Y-55749038D01*
X124624500Y-56800961D01*
X124663910Y-57049785D01*
X124741760Y-57289383D01*
X124856129Y-57513843D01*
X124856131Y-57513846D01*
X124883047Y-57550893D01*
X124906527Y-57616699D01*
X124890702Y-57684753D01*
X124888457Y-57688567D01*
X124839222Y-57768912D01*
X124839219Y-57768918D01*
X124745830Y-57994380D01*
X124688853Y-58231702D01*
X124669706Y-58475000D01*
X124688853Y-58718297D01*
X124745830Y-58955619D01*
X124839222Y-59181089D01*
X124966737Y-59389173D01*
X124966738Y-59389175D01*
X124966739Y-59389177D01*
X124966741Y-59389179D01*
X125006312Y-59435511D01*
X125034883Y-59499271D01*
X125024446Y-59568357D01*
X124978315Y-59620833D01*
X124911137Y-59640039D01*
X124864570Y-59630603D01*
X124780623Y-59595831D01*
X124780621Y-59595830D01*
X124666189Y-59568357D01*
X124543302Y-59538854D01*
X124543300Y-59538853D01*
X124543297Y-59538853D01*
X124300000Y-59519706D01*
X124056702Y-59538853D01*
X124056698Y-59538854D01*
X123819651Y-59595765D01*
X123819380Y-59595830D01*
X123593910Y-59689222D01*
X123385826Y-59816737D01*
X123385823Y-59816738D01*
X123200241Y-59975241D01*
X123041738Y-60160823D01*
X123041737Y-60160826D01*
X122914222Y-60368910D01*
X122820830Y-60594380D01*
X122763853Y-60831702D01*
X122744706Y-61075000D01*
X122763853Y-61318297D01*
X122820830Y-61555619D01*
X122914222Y-61781089D01*
X123041737Y-61989173D01*
X123041738Y-61989176D01*
X123041741Y-61989179D01*
X123200241Y-62174759D01*
X123295557Y-62256166D01*
X123385823Y-62333261D01*
X123385826Y-62333262D01*
X123593910Y-62460777D01*
X123819381Y-62554169D01*
X123819378Y-62554169D01*
X123819384Y-62554170D01*
X123819388Y-62554172D01*
X124056698Y-62611146D01*
X124300000Y-62630294D01*
X124490775Y-62615279D01*
X124559148Y-62629643D01*
X124608905Y-62678694D01*
X124624500Y-62738897D01*
X124624500Y-65050500D01*
X124604815Y-65117539D01*
X124552011Y-65163294D01*
X124500500Y-65174500D01*
X120544637Y-65174500D01*
X120477598Y-65154815D01*
X120464106Y-65144790D01*
X120314182Y-65016743D01*
X120314173Y-65016737D01*
X120106089Y-64889222D01*
X119880618Y-64795830D01*
X119880621Y-64795830D01*
X119774992Y-64770470D01*
X119643302Y-64738854D01*
X119643300Y-64738853D01*
X119643297Y-64738853D01*
X119400000Y-64719706D01*
X119156702Y-64738853D01*
X118919380Y-64795830D01*
X118693910Y-64889222D01*
X118485826Y-65016737D01*
X118485824Y-65016738D01*
X118305031Y-65171150D01*
X118241270Y-65199720D01*
X118172184Y-65189283D01*
X118119708Y-65143152D01*
X118100500Y-65076859D01*
X118100500Y-44399500D01*
X118120185Y-44332461D01*
X118172989Y-44286706D01*
X118224500Y-44275500D01*
X131025329Y-44275500D01*
X131092368Y-44295185D01*
G37*
%TD.AperFunction*%
%TA.AperFunction,Conductor*%
G36*
X137748728Y-62195185D02*
G01*
X137794483Y-62247989D01*
X137804427Y-62317147D01*
X137775402Y-62380703D01*
X137769370Y-62387181D01*
X137704205Y-62452345D01*
X137704201Y-62452350D01*
X137556132Y-62656151D01*
X137441760Y-62880616D01*
X137363910Y-63120214D01*
X137324500Y-63369038D01*
X137324500Y-64420961D01*
X137363910Y-64669785D01*
X137441760Y-64909383D01*
X137484980Y-64994205D01*
X137497876Y-65062874D01*
X137471600Y-65127615D01*
X137414493Y-65167872D01*
X137374495Y-65174500D01*
X132855505Y-65174500D01*
X132788466Y-65154815D01*
X132742711Y-65102011D01*
X132732767Y-65032853D01*
X132745020Y-64994205D01*
X132788239Y-64909383D01*
X132788239Y-64909382D01*
X132788241Y-64909379D01*
X132866090Y-64669785D01*
X132905500Y-64420962D01*
X132905500Y-63369038D01*
X132866090Y-63120215D01*
X132788241Y-62880621D01*
X132788239Y-62880618D01*
X132788239Y-62880616D01*
X132705532Y-62718296D01*
X132673870Y-62656155D01*
X132576213Y-62521741D01*
X132525798Y-62452350D01*
X132525794Y-62452345D01*
X132460630Y-62387181D01*
X132427145Y-62325858D01*
X132432129Y-62256166D01*
X132474001Y-62200233D01*
X132539465Y-62175816D01*
X132548311Y-62175500D01*
X137681689Y-62175500D01*
X137748728Y-62195185D01*
G37*
%TD.AperFunction*%
%TA.AperFunction,Conductor*%
G36*
X137641836Y-54695185D02*
G01*
X137687591Y-54747989D01*
X137697535Y-54817147D01*
X137675115Y-54872385D01*
X137556132Y-55036151D01*
X137441760Y-55260616D01*
X137363910Y-55500214D01*
X137324500Y-55749038D01*
X137324500Y-56800961D01*
X137363910Y-57049785D01*
X137416676Y-57212181D01*
X137418671Y-57282023D01*
X137382591Y-57341856D01*
X137319890Y-57372684D01*
X137298745Y-57374500D01*
X132931255Y-57374500D01*
X132864216Y-57354815D01*
X132818461Y-57302011D01*
X132808517Y-57232853D01*
X132813324Y-57212181D01*
X132866090Y-57049785D01*
X132905500Y-56800962D01*
X132905500Y-55749038D01*
X132866090Y-55500215D01*
X132788241Y-55260621D01*
X132788239Y-55260618D01*
X132788239Y-55260616D01*
X132746747Y-55179184D01*
X132673870Y-55036155D01*
X132657327Y-55013385D01*
X132554885Y-54872385D01*
X132531405Y-54806579D01*
X132547231Y-54738525D01*
X132597336Y-54689830D01*
X132655203Y-54675500D01*
X137574797Y-54675500D01*
X137641836Y-54695185D01*
G37*
%TD.AperFunction*%
%TD*%
M02*
