%TF.GenerationSoftware,KiCad,Pcbnew,8.0.6*%
%TF.CreationDate,2025-08-05T17:27:04-05:00*%
%TF.ProjectId,PPDuino Nano Salidas,50504475-696e-46f2-904e-616e6f205361,rev?*%
%TF.SameCoordinates,Original*%
%TF.FileFunction,Copper,L2,Bot*%
%TF.FilePolarity,Positive*%
%FSLAX46Y46*%
G04 Gerber Fmt 4.6, Leading zero omitted, Abs format (unit mm)*
G04 Created by KiCad (PCBNEW 8.0.6) date 2025-08-05 17:27:04*
%MOMM*%
%LPD*%
G01*
G04 APERTURE LIST*
%TA.AperFunction,ComponentPad*%
%ADD10C,3.000000*%
%TD*%
%TA.AperFunction,ComponentPad*%
%ADD11C,2.500000*%
%TD*%
%TA.AperFunction,ComponentPad*%
%ADD12C,1.800000*%
%TD*%
%TA.AperFunction,ComponentPad*%
%ADD13O,1.800000X1.800000*%
%TD*%
%TA.AperFunction,ComponentPad*%
%ADD14R,1.800000X1.800000*%
%TD*%
%TA.AperFunction,ComponentPad*%
%ADD15R,1.600000X2.400000*%
%TD*%
%TA.AperFunction,ComponentPad*%
%ADD16O,1.600000X2.400000*%
%TD*%
%TA.AperFunction,ComponentPad*%
%ADD17R,1.980000X3.960000*%
%TD*%
%TA.AperFunction,ComponentPad*%
%ADD18O,1.980000X3.960000*%
%TD*%
%TA.AperFunction,ComponentPad*%
%ADD19R,1.500000X1.500000*%
%TD*%
%TA.AperFunction,ViaPad*%
%ADD20C,1.500000*%
%TD*%
%TA.AperFunction,Conductor*%
%ADD21C,1.000000*%
%TD*%
%TA.AperFunction,Conductor*%
%ADD22C,0.800000*%
%TD*%
%TA.AperFunction,Conductor*%
%ADD23C,1.500000*%
%TD*%
%TA.AperFunction,Conductor*%
%ADD24C,0.600000*%
%TD*%
G04 APERTURE END LIST*
D10*
%TO.P,K1,1*%
%TO.N,Net-(J14-Pin_2)*%
X141100000Y-84925000D03*
D11*
%TO.P,K1,2*%
%TO.N,Net-(D5-K)*%
X135050000Y-86875000D03*
D10*
%TO.P,K1,3*%
%TO.N,Net-(J6-Pin_3)*%
X135050000Y-99075000D03*
%TO.P,K1,4*%
%TO.N,Net-(J6-Pin_1)*%
X147100000Y-99125000D03*
D11*
%TO.P,K1,5*%
%TO.N,+5V*%
X147050000Y-86875000D03*
%TD*%
D12*
%TO.P,R14,1*%
%TO.N,Net-(Q1-B)*%
X139430000Y-77225000D03*
D13*
%TO.P,R14,2*%
%TO.N,/RLY0*%
X147050000Y-77225000D03*
%TD*%
D14*
%TO.P,D6,1,K*%
%TO.N,+5V*%
X147050000Y-80925000D03*
D13*
%TO.P,D6,2,A*%
%TO.N,Net-(D5-K)*%
X139430000Y-80925000D03*
%TD*%
D15*
%TO.P,U5,1,EN1\u002C2*%
%TO.N,+5V*%
X126225000Y-63895000D03*
D16*
%TO.P,U5,2,1A*%
%TO.N,/PWM0m*%
X128765000Y-63895000D03*
%TO.P,U5,3,1Y*%
%TO.N,/PWM0*%
X131305000Y-63895000D03*
%TO.P,U5,4,GND*%
%TO.N,GND*%
X133845000Y-63895000D03*
%TO.P,U5,5,GND*%
X136385000Y-63895000D03*
%TO.P,U5,6,2Y*%
%TO.N,/PWM1*%
X138925000Y-63895000D03*
%TO.P,U5,7,2A*%
%TO.N,/PWM1m*%
X141465000Y-63895000D03*
%TO.P,U5,8,VCC2*%
%TO.N,VDD*%
X144005000Y-63895000D03*
%TO.P,U5,9,EN3\u002C4*%
%TO.N,+5V*%
X144005000Y-56275000D03*
%TO.P,U5,10,3A*%
%TO.N,/PWM2m*%
X141465000Y-56275000D03*
%TO.P,U5,11,3Y*%
%TO.N,/PWM2*%
X138925000Y-56275000D03*
%TO.P,U5,12,GND*%
%TO.N,GND*%
X136385000Y-56275000D03*
%TO.P,U5,13,GND*%
X133845000Y-56275000D03*
%TO.P,U5,14,4Y*%
%TO.N,/PWM3*%
X131305000Y-56275000D03*
%TO.P,U5,15,4A*%
%TO.N,/PWM3m*%
X128765000Y-56275000D03*
%TO.P,U5,16,VCC1*%
%TO.N,+5V*%
X126225000Y-56275000D03*
%TD*%
D10*
%TO.P,K2,1*%
%TO.N,Net-(J7-Pin_2)*%
X160300000Y-85025000D03*
D11*
%TO.P,K2,2*%
%TO.N,Net-(D7-K)*%
X154250000Y-86975000D03*
D10*
%TO.P,K2,3*%
%TO.N,Net-(J13-Pin_3)*%
X154250000Y-99175000D03*
%TO.P,K2,4*%
%TO.N,Net-(J13-Pin_1)*%
X166300000Y-99225000D03*
D11*
%TO.P,K2,5*%
%TO.N,+5V*%
X166250000Y-86975000D03*
%TD*%
D14*
%TO.P,J6,1,Pin_1*%
%TO.N,Net-(J6-Pin_1)*%
X147040000Y-106225000D03*
D13*
%TO.P,J6,2,Pin_2*%
%TO.N,Net-(J14-Pin_1)*%
X144500000Y-106225000D03*
%TO.P,J6,3,Pin_3*%
%TO.N,Net-(J6-Pin_3)*%
X141960000Y-106225000D03*
%TD*%
D17*
%TO.P,J8,1,Pin_1*%
%TO.N,/PWM0*%
X130600000Y-131775000D03*
D18*
%TO.P,J8,2,Pin_2*%
%TO.N,/PWM1*%
X135600000Y-131775000D03*
%TO.P,J8,3,Pin_3*%
%TO.N,/PWM2*%
X140560000Y-131775000D03*
%TO.P,J8,4,Pin_4*%
%TO.N,/PWM3*%
X145660000Y-131875000D03*
%TD*%
D12*
%TO.P,R19,1*%
%TO.N,Net-(D11-A)*%
X135600000Y-118275000D03*
D13*
%TO.P,R19,2*%
%TO.N,/PWM1m*%
X135600000Y-110655000D03*
%TD*%
D14*
%TO.P,J13,1,Pin_1*%
%TO.N,Net-(J13-Pin_1)*%
X159325000Y-105975000D03*
D13*
%TO.P,J13,2,Pin_2*%
%TO.N,Net-(J13-Pin_2)*%
X156785000Y-105975000D03*
%TO.P,J13,3,Pin_3*%
%TO.N,Net-(J13-Pin_3)*%
X154245000Y-105975000D03*
%TD*%
D14*
%TO.P,J12,1,Pin_1*%
%TO.N,GND*%
X154960000Y-45875000D03*
D13*
%TO.P,J12,2,Pin_2*%
%TO.N,VDD*%
X152420000Y-45875000D03*
%TO.P,J12,3,Pin_3*%
%TO.N,GND*%
X149880000Y-45875000D03*
%TO.P,J12,4,Pin_4*%
%TO.N,+5V*%
X147340000Y-45875000D03*
%TO.P,J12,5,Pin_5*%
%TO.N,/RLY1*%
X144800000Y-45875000D03*
%TO.P,J12,6,Pin_6*%
%TO.N,/RLY0*%
X142260000Y-45875000D03*
%TO.P,J12,7,Pin_7*%
%TO.N,/PWM3m*%
X139720000Y-45875000D03*
%TO.P,J12,8,Pin_8*%
%TO.N,/PWM2m*%
X137180000Y-45875000D03*
%TO.P,J12,9,Pin_9*%
%TO.N,/PWM1m*%
X134640000Y-45875000D03*
%TO.P,J12,10,Pin_10*%
%TO.N,/PWM0m*%
X132100000Y-45875000D03*
%TD*%
D14*
%TO.P,Q1,1,C*%
%TO.N,Net-(D5-K)*%
X135800000Y-81625000D03*
D12*
%TO.P,Q1,2,B*%
%TO.N,Net-(Q1-B)*%
X135800000Y-79085000D03*
%TO.P,Q1,3,E*%
%TO.N,GND*%
X135800000Y-76545000D03*
%TD*%
D17*
%TO.P,J9,1,Pin_1*%
%TO.N,GND*%
X120500000Y-131775000D03*
D18*
%TO.P,J9,2,Pin_2*%
%TO.N,VDD*%
X125500000Y-131775000D03*
%TD*%
D17*
%TO.P,J14,1,Pin_1*%
%TO.N,Net-(J14-Pin_1)*%
X150900000Y-131775000D03*
D18*
%TO.P,J14,2,Pin_2*%
%TO.N,Net-(J14-Pin_2)*%
X155900000Y-131775000D03*
%TD*%
D12*
%TO.P,R15,1*%
%TO.N,Net-(Q2-B)*%
X158580000Y-77025000D03*
D13*
%TO.P,R15,2*%
%TO.N,/RLY1*%
X166200000Y-77025000D03*
%TD*%
D12*
%TO.P,R17,1*%
%TO.N,Net-(D9-A)*%
X145600000Y-118375000D03*
D13*
%TO.P,R17,2*%
%TO.N,/PWM3m*%
X145600000Y-110755000D03*
%TD*%
D14*
%TO.P,D10,1,K*%
%TO.N,GND*%
X140500000Y-123100000D03*
D12*
%TO.P,D10,2,A*%
%TO.N,Net-(D10-A)*%
X140500000Y-120560000D03*
%TD*%
D14*
%TO.P,D11,1,K*%
%TO.N,GND*%
X135600000Y-123100000D03*
D12*
%TO.P,D11,2,A*%
%TO.N,Net-(D11-A)*%
X135600000Y-120560000D03*
%TD*%
D19*
%TO.P,Q2,1,C*%
%TO.N,Net-(D7-K)*%
X155100000Y-81725000D03*
D12*
%TO.P,Q2,2,B*%
%TO.N,Net-(Q2-B)*%
X155100000Y-79185000D03*
%TO.P,Q2,3,E*%
%TO.N,GND*%
X155100000Y-76645000D03*
%TD*%
D14*
%TO.P,D8,1,K*%
%TO.N,+5V*%
X166410000Y-81225000D03*
D13*
%TO.P,D8,2,A*%
%TO.N,Net-(D7-K)*%
X158790000Y-81225000D03*
%TD*%
D17*
%TO.P,J7,1,Pin_1*%
%TO.N,Net-(J13-Pin_2)*%
X161000000Y-131775000D03*
D18*
%TO.P,J7,2,Pin_2*%
%TO.N,Net-(J7-Pin_2)*%
X166000000Y-131775000D03*
%TD*%
D14*
%TO.P,D9,1,K*%
%TO.N,GND*%
X145600000Y-123200000D03*
D12*
%TO.P,D9,2,A*%
%TO.N,Net-(D9-A)*%
X145600000Y-120660000D03*
%TD*%
D14*
%TO.P,D5,1,K*%
%TO.N,Net-(D5-K)*%
X153400000Y-123100000D03*
D12*
%TO.P,D5,2,A*%
%TO.N,Net-(D5-A)*%
X153400000Y-120560000D03*
%TD*%
%TO.P,R20,1*%
%TO.N,Net-(D12-A)*%
X130600000Y-118375000D03*
D13*
%TO.P,R20,2*%
%TO.N,/PWM0m*%
X130600000Y-110755000D03*
%TD*%
D12*
%TO.P,R13,1*%
%TO.N,Net-(D5-A)*%
X153400000Y-118275000D03*
D13*
%TO.P,R13,2*%
%TO.N,+5V*%
X153400000Y-110655000D03*
%TD*%
D12*
%TO.P,R16,1*%
%TO.N,Net-(D7-A)*%
X163500000Y-118375000D03*
D13*
%TO.P,R16,2*%
%TO.N,+5V*%
X163500000Y-110755000D03*
%TD*%
D12*
%TO.P,R18,1*%
%TO.N,Net-(D10-A)*%
X140500000Y-118275000D03*
D13*
%TO.P,R18,2*%
%TO.N,/PWM2m*%
X140500000Y-110655000D03*
%TD*%
D14*
%TO.P,D12,1,K*%
%TO.N,GND*%
X130600000Y-123150000D03*
D12*
%TO.P,D12,2,A*%
%TO.N,Net-(D12-A)*%
X130600000Y-120610000D03*
%TD*%
D14*
%TO.P,D7,1,K*%
%TO.N,Net-(D7-K)*%
X163500000Y-123200000D03*
D12*
%TO.P,D7,2,A*%
%TO.N,Net-(D7-A)*%
X163500000Y-120660000D03*
%TD*%
D20*
%TO.N,Net-(D7-K)*%
X163900000Y-104075000D03*
X160100000Y-100275000D03*
%TO.N,GND*%
X137900000Y-112075000D03*
X159800000Y-65075000D03*
X135100000Y-50075000D03*
X154600000Y-50075000D03*
X137900000Y-91675000D03*
X159800000Y-74575000D03*
%TO.N,+5V*%
X147100000Y-89525000D03*
X153200000Y-51925000D03*
X158300000Y-101775000D03*
X144005000Y-58496006D03*
X163500000Y-106975000D03*
X139500000Y-51975000D03*
X163500000Y-113275000D03*
X166128957Y-89496043D03*
X153400000Y-113275000D03*
X126225000Y-58475000D03*
%TO.N,Net-(J7-Pin_2)*%
X166800000Y-104025000D03*
X162000000Y-99125000D03*
%TO.N,/PWM3*%
X144500000Y-53475000D03*
X131305000Y-53675000D03*
%TO.N,VDD*%
X119400000Y-66275000D03*
X157600000Y-49975000D03*
X145200000Y-62475000D03*
X143000000Y-66275000D03*
%TO.N,/RLY0*%
X149900000Y-72875000D03*
X149900000Y-78725000D03*
%TO.N,/PWM3m*%
X139700000Y-47975000D03*
X135600000Y-47975000D03*
%TO.N,/PWM1m*%
X138900000Y-61075000D03*
X140400000Y-68125000D03*
X130000000Y-78425000D03*
X124300000Y-61075000D03*
%TO.N,/PWM0m*%
X128300000Y-75475000D03*
X121100000Y-68375000D03*
%TD*%
D21*
%TO.N,Net-(D5-A)*%
X153400000Y-118275000D02*
X153400000Y-120560000D01*
D22*
%TO.N,Net-(D5-K)*%
X135050000Y-84575000D02*
X135800000Y-83825000D01*
X151925000Y-123100000D02*
X150600000Y-121775000D01*
X135800000Y-83825000D02*
X135800000Y-81625000D01*
D21*
X135800000Y-81625000D02*
X137350000Y-81625000D01*
X138050000Y-80925000D02*
X139430000Y-80925000D01*
X137350000Y-81625000D02*
X138050000Y-80925000D01*
D22*
X149500000Y-108075000D02*
X149500000Y-97225000D01*
X150600000Y-121775000D02*
X150600000Y-109175000D01*
X149500000Y-97225000D02*
X146350000Y-94075000D01*
X150600000Y-109175000D02*
X149500000Y-108075000D01*
X146350000Y-94075000D02*
X136950000Y-94075000D01*
X136950000Y-94075000D02*
X135050000Y-92175000D01*
X153400000Y-123100000D02*
X151925000Y-123100000D01*
X135050000Y-92175000D02*
X135050000Y-86875000D01*
X135050000Y-86875000D02*
X135050000Y-84575000D01*
D21*
%TO.N,Net-(D7-A)*%
X163500000Y-118375000D02*
X163500000Y-120660000D01*
%TO.N,Net-(D7-K)*%
X154250000Y-86975000D02*
X154250000Y-82675000D01*
D22*
X161000000Y-106975000D02*
X161000000Y-122075000D01*
X160100000Y-98475000D02*
X154250000Y-92625000D01*
X154250000Y-92625000D02*
X154250000Y-86975000D01*
X161000000Y-122075000D02*
X162125000Y-123200000D01*
X160100000Y-100275000D02*
X160100000Y-98475000D01*
X162125000Y-123200000D02*
X163500000Y-123200000D01*
D21*
X154250000Y-82675000D02*
X155250000Y-81675000D01*
D22*
X163900000Y-104075000D02*
X161000000Y-106975000D01*
D21*
X157250000Y-81175000D02*
X158740000Y-81175000D01*
X155250000Y-81675000D02*
X156750000Y-81675000D01*
X156750000Y-81675000D02*
X157250000Y-81175000D01*
%TO.N,GND*%
X140600000Y-123200000D02*
X140500000Y-123100000D01*
X144600000Y-75375000D02*
X145200000Y-75375000D01*
D23*
X154000000Y-49475000D02*
X152600000Y-49475000D01*
D21*
X143900000Y-123200000D02*
X140600000Y-123200000D01*
D23*
X159800000Y-74575000D02*
X157170000Y-74575000D01*
D21*
X140500000Y-75375000D02*
X141800000Y-75375000D01*
X139300000Y-82775000D02*
X140200000Y-82775000D01*
D23*
X158400000Y-63675000D02*
X159800000Y-65075000D01*
D21*
X137900000Y-84175000D02*
X139300000Y-82775000D01*
X137900000Y-123100000D02*
X137900000Y-112075000D01*
D23*
X136385000Y-56275000D02*
X136385000Y-63895000D01*
X158400000Y-53775000D02*
X158400000Y-56875000D01*
X159400000Y-45875000D02*
X154960000Y-45875000D01*
X158400000Y-56875000D02*
X158400000Y-63675000D01*
X159900000Y-53775000D02*
X161300000Y-52375000D01*
D21*
X141800000Y-75375000D02*
X143200000Y-76775000D01*
X152020000Y-76645000D02*
X155100000Y-76645000D01*
D23*
X136385000Y-63895000D02*
X135100000Y-63895000D01*
D21*
X145600000Y-125375000D02*
X145600000Y-124900000D01*
X140500000Y-123100000D02*
X137900000Y-123100000D01*
X145600000Y-124900000D02*
X143900000Y-123200000D01*
X148300000Y-133875000D02*
X148300000Y-128675000D01*
D23*
X154600000Y-50075000D02*
X154700000Y-50075000D01*
D21*
X130650000Y-123100000D02*
X130600000Y-123150000D01*
X137900000Y-123100000D02*
X135600000Y-123100000D01*
X143200000Y-79775000D02*
X143200000Y-76775000D01*
D23*
X158400000Y-56875000D02*
X158400000Y-55275000D01*
X152600000Y-49475000D02*
X149880000Y-46755000D01*
D21*
X121600000Y-134975000D02*
X147200000Y-134975000D01*
X137900000Y-91675000D02*
X137900000Y-84175000D01*
X145600000Y-123200000D02*
X143900000Y-123200000D01*
X140500000Y-75375000D02*
X143200000Y-75375000D01*
X143200000Y-76775000D02*
X144600000Y-75375000D01*
X143200000Y-75375000D02*
X145200000Y-75375000D01*
D23*
X135100000Y-63895000D02*
X133845000Y-63895000D01*
D21*
X140200000Y-82775000D02*
X143200000Y-79775000D01*
X135800000Y-76545000D02*
X136970000Y-75375000D01*
D23*
X158400000Y-55275000D02*
X159900000Y-53775000D01*
X135100000Y-50075000D02*
X135100000Y-56275000D01*
X135100000Y-56275000D02*
X136385000Y-56275000D01*
D21*
X136970000Y-75375000D02*
X140500000Y-75375000D01*
D23*
X161300000Y-47775000D02*
X159400000Y-45875000D01*
D21*
X147200000Y-134975000D02*
X148300000Y-133875000D01*
D23*
X135100000Y-63895000D02*
X135100000Y-56275000D01*
X157170000Y-74575000D02*
X155100000Y-76645000D01*
D21*
X148300000Y-128675000D02*
X145600000Y-125975000D01*
D23*
X161300000Y-52375000D02*
X161300000Y-47775000D01*
D21*
X120500000Y-131775000D02*
X120500000Y-133875000D01*
D23*
X133845000Y-56275000D02*
X133845000Y-63895000D01*
D21*
X143200000Y-76775000D02*
X143200000Y-75375000D01*
X145600000Y-125375000D02*
X145600000Y-123200000D01*
D23*
X154600000Y-50075000D02*
X154000000Y-49475000D01*
D21*
X120500000Y-133875000D02*
X121600000Y-134975000D01*
X135600000Y-123100000D02*
X130650000Y-123100000D01*
X145600000Y-125975000D02*
X145600000Y-125375000D01*
D23*
X154700000Y-50075000D02*
X158400000Y-53775000D01*
X158400000Y-53775000D02*
X159900000Y-53775000D01*
D21*
X150750000Y-75375000D02*
X152020000Y-76645000D01*
D23*
X149880000Y-46755000D02*
X149880000Y-45875000D01*
X133845000Y-56275000D02*
X135100000Y-56275000D01*
D21*
X145200000Y-75375000D02*
X150750000Y-75375000D01*
%TO.N,Net-(D9-A)*%
X145600000Y-118375000D02*
X145600000Y-120660000D01*
%TO.N,Net-(D10-A)*%
X140500000Y-118275000D02*
X140500000Y-120560000D01*
%TO.N,Net-(D11-A)*%
X135600000Y-118275000D02*
X135600000Y-120560000D01*
%TO.N,+5V*%
X147050000Y-86925000D02*
X147050000Y-80925000D01*
X139500000Y-51975000D02*
X140500000Y-51975000D01*
X152550000Y-51275000D02*
X151700000Y-51275000D01*
X168200000Y-75475000D02*
X168200000Y-79435000D01*
D22*
X148700000Y-89575000D02*
X147150000Y-89575000D01*
D21*
X166700000Y-73975000D02*
X168200000Y-75475000D01*
D22*
X158300000Y-99175000D02*
X148700000Y-89575000D01*
X147150000Y-89575000D02*
X147100000Y-89525000D01*
D21*
X166250000Y-89375000D02*
X166250000Y-86975000D01*
X147050000Y-86875000D02*
X147050000Y-89475000D01*
X140500000Y-51975000D02*
X144005000Y-55480000D01*
X151700000Y-51275000D02*
X147340000Y-46915000D01*
X156200000Y-64875000D02*
X165300000Y-73975000D01*
X168200000Y-79435000D02*
X166410000Y-81225000D01*
X165300000Y-73975000D02*
X166700000Y-73975000D01*
X144005000Y-58496006D02*
X144005000Y-56275000D01*
X126225000Y-58475000D02*
X126225000Y-63895000D01*
D22*
X163500000Y-110755000D02*
X163500000Y-113275000D01*
D21*
X153200000Y-51925000D02*
X152550000Y-51275000D01*
X156200000Y-55175000D02*
X156200000Y-64875000D01*
X153200000Y-51925000D02*
X153200000Y-52175000D01*
D22*
X158300000Y-101775000D02*
X158300000Y-99175000D01*
D21*
X126225000Y-58475000D02*
X126225000Y-56275000D01*
X153200000Y-52175000D02*
X156200000Y-55175000D01*
X147050000Y-89475000D02*
X147100000Y-89525000D01*
D22*
X153400000Y-110655000D02*
X153400000Y-113275000D01*
D21*
X166360000Y-86865000D02*
X166250000Y-86975000D01*
X166128957Y-89496043D02*
X166250000Y-89375000D01*
X144005000Y-55480000D02*
X144005000Y-56275000D01*
D22*
X163500000Y-110755000D02*
X163500000Y-106975000D01*
D21*
X147340000Y-46915000D02*
X147340000Y-45875000D01*
X166360000Y-81175000D02*
X166360000Y-86865000D01*
%TO.N,Net-(D12-A)*%
X130600000Y-118375000D02*
X130600000Y-120610000D01*
D23*
%TO.N,Net-(J6-Pin_3)*%
X137850000Y-99075000D02*
X141960000Y-103185000D01*
X141960000Y-103185000D02*
X141960000Y-106225000D01*
X135050000Y-99075000D02*
X137850000Y-99075000D01*
%TO.N,Net-(J6-Pin_1)*%
X147100000Y-99125000D02*
X147100000Y-106165000D01*
X147100000Y-106165000D02*
X147040000Y-106225000D01*
%TO.N,Net-(J14-Pin_1)*%
X148300000Y-122475000D02*
X150900000Y-125075000D01*
X148300000Y-109575000D02*
X148300000Y-122475000D01*
X144500000Y-107725000D02*
X145250000Y-108475000D01*
X147200000Y-108475000D02*
X148300000Y-109575000D01*
X144500000Y-106225000D02*
X144500000Y-107725000D01*
X145250000Y-108475000D02*
X147200000Y-108475000D01*
X150900000Y-125075000D02*
X150900000Y-131775000D01*
%TO.N,Net-(J13-Pin_2)*%
X156785000Y-107360000D02*
X156785000Y-105975000D01*
X161000000Y-125475000D02*
X158800000Y-123275000D01*
X158800000Y-123275000D02*
X158800000Y-109375000D01*
X158800000Y-109375000D02*
X156785000Y-107360000D01*
X161000000Y-131775000D02*
X161000000Y-125475000D01*
%TO.N,Net-(J7-Pin_2)*%
X166800000Y-124675000D02*
X166000000Y-125475000D01*
X166000000Y-125475000D02*
X166000000Y-131775000D01*
X162000000Y-86725000D02*
X160300000Y-85025000D01*
X166800000Y-104025000D02*
X166800000Y-124675000D01*
X162000000Y-99125000D02*
X162000000Y-86725000D01*
D21*
%TO.N,/PWM3*%
X129125000Y-124875000D02*
X126600000Y-122350000D01*
X145660000Y-129635000D02*
X140900000Y-124875000D01*
X133300000Y-71475000D02*
X142500000Y-71475000D01*
X126600000Y-74175000D02*
X127500000Y-73275000D01*
X149200000Y-58175000D02*
X144500000Y-53475000D01*
X142500000Y-71475000D02*
X149200000Y-64775000D01*
X131500000Y-73275000D02*
X133300000Y-71475000D01*
X140900000Y-124875000D02*
X129125000Y-124875000D01*
X126600000Y-122350000D02*
X126600000Y-74175000D01*
X149200000Y-64775000D02*
X149200000Y-58175000D01*
X145660000Y-131875000D02*
X145660000Y-129635000D01*
X131305000Y-53675000D02*
X131305000Y-56275000D01*
X127500000Y-73275000D02*
X131500000Y-73275000D01*
%TO.N,/PWM1*%
X122900000Y-72575000D02*
X125600000Y-69875000D01*
X125600000Y-69875000D02*
X129800000Y-69875000D01*
X138925000Y-66250000D02*
X138925000Y-63895000D01*
X131400000Y-68275000D02*
X136900000Y-68275000D01*
X135600000Y-131775000D02*
X135600000Y-129575000D01*
X133700000Y-127675000D02*
X127100000Y-127675000D01*
X135600000Y-129575000D02*
X133700000Y-127675000D01*
X127100000Y-127675000D02*
X122900000Y-123475000D01*
X136900000Y-68275000D02*
X138925000Y-66250000D01*
X122900000Y-123475000D02*
X122900000Y-72575000D01*
X129800000Y-69875000D02*
X131400000Y-68275000D01*
%TO.N,/PWM2*%
X137600000Y-126275000D02*
X128200000Y-126275000D01*
X140560000Y-131775000D02*
X140560000Y-129235000D01*
X147300000Y-61775000D02*
X146000000Y-60475000D01*
X142200000Y-60475000D02*
X138925000Y-57200000D01*
X124700000Y-73375000D02*
X126500000Y-71575000D01*
X147300000Y-64575000D02*
X147300000Y-61775000D01*
X140560000Y-129235000D02*
X137600000Y-126275000D01*
X138925000Y-57200000D02*
X138925000Y-56275000D01*
X141900000Y-69975000D02*
X147300000Y-64575000D01*
X130600000Y-71575000D02*
X132200000Y-69975000D01*
X146000000Y-60475000D02*
X142200000Y-60475000D01*
X132200000Y-69975000D02*
X141900000Y-69975000D01*
X126500000Y-71575000D02*
X130600000Y-71575000D01*
X128200000Y-126275000D02*
X124700000Y-122775000D01*
X124700000Y-122775000D02*
X124700000Y-73375000D01*
%TO.N,/PWM0*%
X131305000Y-65670000D02*
X131305000Y-63895000D01*
X129400000Y-67575000D02*
X131305000Y-65670000D01*
X130600000Y-131775000D02*
X130600000Y-129575000D01*
X121000000Y-71975000D02*
X125400000Y-67575000D01*
X121000000Y-123875000D02*
X121000000Y-71975000D01*
X130600000Y-129575000D02*
X130200000Y-129175000D01*
X126300000Y-129175000D02*
X121000000Y-123875000D01*
X130200000Y-129175000D02*
X126300000Y-129175000D01*
X125400000Y-67575000D02*
X129400000Y-67575000D01*
D23*
%TO.N,VDD*%
X143000000Y-66275000D02*
X144005000Y-65270000D01*
X118950000Y-125225000D02*
X125500000Y-131775000D01*
D21*
X157600000Y-49975000D02*
X155400000Y-47775000D01*
X155400000Y-47775000D02*
X153600000Y-47775000D01*
D23*
X145200000Y-62475000D02*
X144005000Y-63670000D01*
X119400000Y-66275000D02*
X118950000Y-66725000D01*
D21*
X153600000Y-47775000D02*
X152420000Y-46595000D01*
D23*
X144005000Y-63670000D02*
X144005000Y-63895000D01*
X144005000Y-65270000D02*
X144005000Y-63895000D01*
X118950000Y-66725000D02*
X118950000Y-125225000D01*
D21*
X152420000Y-46595000D02*
X152420000Y-45875000D01*
D23*
%TO.N,Net-(J13-Pin_3)*%
X154245000Y-99180000D02*
X154250000Y-99175000D01*
X154520000Y-99445000D02*
X154250000Y-99175000D01*
X154245000Y-105975000D02*
X154245000Y-99180000D01*
%TO.N,Net-(J13-Pin_1)*%
X165150000Y-99225000D02*
X166300000Y-99225000D01*
X159325000Y-105050000D02*
X165150000Y-99225000D01*
X159325000Y-105975000D02*
X159325000Y-105050000D01*
%TO.N,Net-(J14-Pin_2)*%
X141100000Y-84925000D02*
X141100000Y-90275000D01*
X151400000Y-95625000D02*
X151400000Y-107175000D01*
X155900000Y-125375000D02*
X155900000Y-131775000D01*
X151400000Y-107175000D02*
X152500000Y-108275000D01*
X152500000Y-108275000D02*
X154400000Y-108275000D01*
X147750000Y-91975000D02*
X151400000Y-95625000D01*
X142800000Y-91975000D02*
X147750000Y-91975000D01*
X154400000Y-108275000D02*
X156400000Y-110275000D01*
X156400000Y-110275000D02*
X156400000Y-124875000D01*
X156400000Y-124875000D02*
X155900000Y-125375000D01*
X141100000Y-90275000D02*
X142800000Y-91975000D01*
D21*
%TO.N,Net-(Q1-B)*%
X135800000Y-79085000D02*
X137570000Y-79085000D01*
X137570000Y-79085000D02*
X139430000Y-77225000D01*
%TO.N,Net-(Q2-B)*%
X156420000Y-79185000D02*
X158580000Y-77025000D01*
X155100000Y-79185000D02*
X156420000Y-79185000D01*
D24*
%TO.N,/RLY0*%
X153400000Y-56875000D02*
X142400000Y-45875000D01*
X149900000Y-78725000D02*
X148400000Y-77225000D01*
X148400000Y-77225000D02*
X147050000Y-77225000D01*
X149900000Y-69475000D02*
X153400000Y-65975000D01*
X149900000Y-72875000D02*
X149900000Y-69475000D01*
X142400000Y-45875000D02*
X142260000Y-45875000D01*
X153400000Y-65975000D02*
X153400000Y-56875000D01*
%TO.N,/RLY1*%
X154700000Y-56375000D02*
X154700000Y-65975000D01*
X165750000Y-77025000D02*
X166200000Y-77025000D01*
X144800000Y-46475000D02*
X154700000Y-56375000D01*
X154700000Y-65975000D02*
X165750000Y-77025000D01*
X144800000Y-45875000D02*
X144800000Y-46475000D01*
%TO.N,/PWM3m*%
X142900000Y-47975000D02*
X139700000Y-47975000D01*
X130000000Y-48675000D02*
X128765000Y-49910000D01*
X135600000Y-47975000D02*
X135600000Y-48175000D01*
X132600000Y-106275000D02*
X132600000Y-76575000D01*
X152100000Y-57175000D02*
X142900000Y-47975000D01*
X139720000Y-47955000D02*
X139700000Y-47975000D01*
X152100000Y-65675000D02*
X152100000Y-57175000D01*
X134400000Y-47975000D02*
X133700000Y-48675000D01*
X144000000Y-73775000D02*
X152100000Y-65675000D01*
X132600000Y-76575000D02*
X135400000Y-73775000D01*
X139700000Y-107575000D02*
X133900000Y-107575000D01*
X140600000Y-108475000D02*
X139700000Y-107575000D01*
X135600000Y-48175000D02*
X135300000Y-48475000D01*
X135400000Y-73775000D02*
X144000000Y-73775000D01*
X145600000Y-110755000D02*
X144280000Y-110755000D01*
X135600000Y-47975000D02*
X134400000Y-47975000D01*
X144280000Y-110755000D02*
X142000000Y-108475000D01*
X128765000Y-49910000D02*
X128765000Y-56275000D01*
X133900000Y-107575000D02*
X132600000Y-106275000D01*
X142000000Y-108475000D02*
X140600000Y-108475000D01*
X133700000Y-48675000D02*
X130000000Y-48675000D01*
X139720000Y-45875000D02*
X139720000Y-47955000D01*
%TO.N,/PWM2m*%
X137180000Y-49475000D02*
X137180000Y-51175000D01*
X138200000Y-53875000D02*
X140000000Y-53875000D01*
X137180000Y-48555000D02*
X137180000Y-48275000D01*
X150800000Y-65175000D02*
X143300000Y-72675000D01*
X140000000Y-53875000D02*
X141465000Y-55340000D01*
X142800000Y-49475000D02*
X150800000Y-57475000D01*
X138100000Y-49475000D02*
X137180000Y-49475000D01*
X137180000Y-50395000D02*
X138100000Y-49475000D01*
X133200000Y-108775000D02*
X138620000Y-108775000D01*
X138100000Y-49475000D02*
X142800000Y-49475000D01*
X138620000Y-108775000D02*
X140500000Y-110655000D01*
X137180000Y-48275000D02*
X137180000Y-49475000D01*
X150800000Y-57475000D02*
X150800000Y-65175000D01*
X137180000Y-51175000D02*
X137180000Y-50395000D01*
X137180000Y-51175000D02*
X137180000Y-52855000D01*
X134500000Y-72675000D02*
X131400000Y-75775000D01*
X138100000Y-49475000D02*
X137180000Y-48555000D01*
X131400000Y-106975000D02*
X133200000Y-108775000D01*
X137180000Y-45875000D02*
X137180000Y-48275000D01*
X131400000Y-75775000D02*
X131400000Y-106975000D01*
X143300000Y-72675000D02*
X134500000Y-72675000D01*
X141465000Y-55340000D02*
X141465000Y-56275000D01*
X137180000Y-52855000D02*
X138200000Y-53875000D01*
%TO.N,/PWM1m*%
X124300000Y-49675000D02*
X126300000Y-47675000D01*
X129900000Y-78525000D02*
X129900000Y-107375000D01*
X129900000Y-107375000D02*
X132400000Y-109875000D01*
X134640000Y-46135000D02*
X134640000Y-45875000D01*
X130000000Y-78425000D02*
X129900000Y-78525000D01*
X134820000Y-109875000D02*
X135600000Y-110655000D01*
X133100000Y-47675000D02*
X134640000Y-46135000D01*
D22*
X141465000Y-62240000D02*
X141465000Y-63895000D01*
D24*
X132400000Y-109875000D02*
X134820000Y-109875000D01*
X124300000Y-61075000D02*
X124300000Y-49675000D01*
D22*
X140400000Y-65975000D02*
X141465000Y-64910000D01*
X141465000Y-64910000D02*
X141465000Y-63895000D01*
D24*
X126300000Y-47675000D02*
X133100000Y-47675000D01*
D22*
X140300000Y-61075000D02*
X141465000Y-62240000D01*
X138900000Y-61075000D02*
X140300000Y-61075000D01*
X140400000Y-68125000D02*
X140400000Y-65975000D01*
D24*
%TO.N,/PWM0m*%
X122600000Y-47975000D02*
X122600000Y-64675000D01*
X122600000Y-65175000D02*
X123500000Y-66075000D01*
X127700000Y-66075000D02*
X123500000Y-66075000D01*
X123500000Y-66075000D02*
X123400000Y-66075000D01*
X123500000Y-66075000D02*
X122600000Y-66075000D01*
X128300000Y-107525000D02*
X128300000Y-75475000D01*
X124700000Y-45875000D02*
X122600000Y-47975000D01*
X121700000Y-67775000D02*
X121100000Y-68375000D01*
X123400000Y-66075000D02*
X122600000Y-66875000D01*
X128765000Y-65010000D02*
X127700000Y-66075000D01*
X130600000Y-110755000D02*
X130600000Y-109825000D01*
X122600000Y-64675000D02*
X122600000Y-66075000D01*
X128765000Y-63895000D02*
X128765000Y-65010000D01*
X130600000Y-109825000D02*
X128300000Y-107525000D01*
X122600000Y-64675000D02*
X122600000Y-65175000D01*
X122600000Y-66075000D02*
X122600000Y-66875000D01*
X122600000Y-66875000D02*
X121700000Y-67775000D01*
X132100000Y-45875000D02*
X124700000Y-45875000D01*
%TD*%
%TA.AperFunction,Conductor*%
%TO.N,GND*%
G36*
X168631663Y-99953672D02*
G01*
X168682516Y-100001586D01*
X168699500Y-100064224D01*
X168699500Y-135950500D01*
X168679815Y-136017539D01*
X168627011Y-136063294D01*
X168575500Y-136074500D01*
X118224500Y-136074500D01*
X118157461Y-136054815D01*
X118111706Y-136002011D01*
X118100500Y-135950500D01*
X118100500Y-126867600D01*
X118120185Y-126800561D01*
X118172989Y-126754806D01*
X118242147Y-126744862D01*
X118305703Y-126773887D01*
X118312181Y-126779919D01*
X123673181Y-132140919D01*
X123706666Y-132202242D01*
X123709500Y-132228600D01*
X123709500Y-132882349D01*
X123709501Y-132882365D01*
X123740134Y-133115048D01*
X123740135Y-133115053D01*
X123740136Y-133115059D01*
X123800883Y-133341772D01*
X123800886Y-133341779D01*
X123890700Y-133558610D01*
X123890705Y-133558620D01*
X124008058Y-133761882D01*
X124150940Y-133948090D01*
X124150946Y-133948097D01*
X124316902Y-134114053D01*
X124316909Y-134114059D01*
X124503117Y-134256941D01*
X124706379Y-134374294D01*
X124706389Y-134374299D01*
X124799316Y-134412790D01*
X124923228Y-134464117D01*
X125149941Y-134524864D01*
X125382644Y-134555500D01*
X125382651Y-134555500D01*
X125617349Y-134555500D01*
X125617356Y-134555500D01*
X125850059Y-134524864D01*
X126076772Y-134464117D01*
X126293617Y-134374296D01*
X126496883Y-134256941D01*
X126683092Y-134114058D01*
X126849058Y-133948092D01*
X126991941Y-133761883D01*
X127109296Y-133558617D01*
X127199117Y-133341772D01*
X127259864Y-133115059D01*
X127290500Y-132882356D01*
X127290500Y-130667644D01*
X127283660Y-130615685D01*
X127294426Y-130546649D01*
X127340806Y-130494394D01*
X127406599Y-130475500D01*
X128685500Y-130475500D01*
X128752539Y-130495185D01*
X128798294Y-130547989D01*
X128809500Y-130599500D01*
X128809500Y-133799960D01*
X128824630Y-133934249D01*
X128824631Y-133934254D01*
X128884211Y-134104523D01*
X128953034Y-134214053D01*
X128980184Y-134257262D01*
X129107738Y-134384816D01*
X129198080Y-134441582D01*
X129233944Y-134464117D01*
X129260478Y-134480789D01*
X129386437Y-134524864D01*
X129430745Y-134540368D01*
X129430750Y-134540369D01*
X129521246Y-134550565D01*
X129565040Y-134555499D01*
X129565043Y-134555500D01*
X129565046Y-134555500D01*
X131634957Y-134555500D01*
X131634958Y-134555499D01*
X131702104Y-134547934D01*
X131769249Y-134540369D01*
X131769252Y-134540368D01*
X131769255Y-134540368D01*
X131939522Y-134480789D01*
X132092262Y-134384816D01*
X132219816Y-134257262D01*
X132315789Y-134104522D01*
X132375368Y-133934255D01*
X132390500Y-133799954D01*
X132390500Y-129750046D01*
X132383697Y-129689668D01*
X132375369Y-129615750D01*
X132375368Y-129615745D01*
X132315788Y-129445476D01*
X132243521Y-129330465D01*
X132219816Y-129292738D01*
X132114259Y-129187181D01*
X132080774Y-129125858D01*
X132085758Y-129056166D01*
X132127630Y-129000233D01*
X132193094Y-128975816D01*
X132201940Y-128975500D01*
X133109953Y-128975500D01*
X133176992Y-128995185D01*
X133197634Y-129011819D01*
X133991685Y-129805869D01*
X134025170Y-129867192D01*
X134020186Y-129936883D01*
X134011393Y-129955548D01*
X133990701Y-129991388D01*
X133990700Y-129991389D01*
X133900886Y-130208220D01*
X133900881Y-130208234D01*
X133840137Y-130434938D01*
X133840134Y-130434951D01*
X133809501Y-130667634D01*
X133809500Y-130667650D01*
X133809500Y-132882349D01*
X133809501Y-132882365D01*
X133840134Y-133115048D01*
X133840135Y-133115053D01*
X133840136Y-133115059D01*
X133900883Y-133341772D01*
X133900886Y-133341779D01*
X133990700Y-133558610D01*
X133990705Y-133558620D01*
X134108058Y-133761882D01*
X134250940Y-133948090D01*
X134250946Y-133948097D01*
X134416902Y-134114053D01*
X134416909Y-134114059D01*
X134603117Y-134256941D01*
X134806379Y-134374294D01*
X134806389Y-134374299D01*
X134899316Y-134412790D01*
X135023228Y-134464117D01*
X135249941Y-134524864D01*
X135482644Y-134555500D01*
X135482651Y-134555500D01*
X135717349Y-134555500D01*
X135717356Y-134555500D01*
X135950059Y-134524864D01*
X136176772Y-134464117D01*
X136393617Y-134374296D01*
X136596883Y-134256941D01*
X136783092Y-134114058D01*
X136949058Y-133948092D01*
X137091941Y-133761883D01*
X137209296Y-133558617D01*
X137299117Y-133341772D01*
X137359864Y-133115059D01*
X137390500Y-132882356D01*
X137390500Y-130667644D01*
X137359864Y-130434941D01*
X137299117Y-130208228D01*
X137225371Y-130030190D01*
X137209299Y-129991389D01*
X137209294Y-129991379D01*
X137091941Y-129788117D01*
X136949059Y-129601909D01*
X136949053Y-129601902D01*
X136936819Y-129589668D01*
X136903334Y-129528345D01*
X136900500Y-129501987D01*
X136900500Y-129472648D01*
X136869059Y-129274139D01*
X136869058Y-129274134D01*
X136868477Y-129270466D01*
X136868477Y-129270465D01*
X136841417Y-129187181D01*
X136805221Y-129075781D01*
X136805219Y-129075777D01*
X136712289Y-128893393D01*
X136706548Y-128885491D01*
X136706546Y-128885489D01*
X136591971Y-128727787D01*
X136591968Y-128727784D01*
X136591966Y-128727781D01*
X136447219Y-128583034D01*
X136447218Y-128583033D01*
X136444107Y-128579922D01*
X136444092Y-128579908D01*
X135651366Y-127787181D01*
X135617881Y-127725858D01*
X135622865Y-127656166D01*
X135664737Y-127600233D01*
X135730201Y-127575816D01*
X135739047Y-127575500D01*
X137009953Y-127575500D01*
X137076992Y-127595185D01*
X137097634Y-127611819D01*
X139080549Y-129594734D01*
X139114034Y-129656057D01*
X139109050Y-129725749D01*
X139091245Y-129757899D01*
X139068063Y-129788110D01*
X139068053Y-129788126D01*
X138950705Y-129991379D01*
X138950700Y-129991389D01*
X138860886Y-130208220D01*
X138860881Y-130208234D01*
X138800137Y-130434938D01*
X138800134Y-130434951D01*
X138769501Y-130667634D01*
X138769500Y-130667650D01*
X138769500Y-132882349D01*
X138769501Y-132882365D01*
X138800134Y-133115048D01*
X138800135Y-133115053D01*
X138800136Y-133115059D01*
X138860883Y-133341772D01*
X138860886Y-133341779D01*
X138950700Y-133558610D01*
X138950705Y-133558620D01*
X139068058Y-133761882D01*
X139210940Y-133948090D01*
X139210946Y-133948097D01*
X139376902Y-134114053D01*
X139376909Y-134114059D01*
X139563117Y-134256941D01*
X139766379Y-134374294D01*
X139766389Y-134374299D01*
X139859316Y-134412790D01*
X139983228Y-134464117D01*
X140209941Y-134524864D01*
X140442644Y-134555500D01*
X140442651Y-134555500D01*
X140677349Y-134555500D01*
X140677356Y-134555500D01*
X140910059Y-134524864D01*
X141136772Y-134464117D01*
X141353617Y-134374296D01*
X141556883Y-134256941D01*
X141743092Y-134114058D01*
X141909058Y-133948092D01*
X142051941Y-133761883D01*
X142169296Y-133558617D01*
X142259117Y-133341772D01*
X142319864Y-133115059D01*
X142350500Y-132882356D01*
X142350500Y-130667644D01*
X142319864Y-130434941D01*
X142259117Y-130208228D01*
X142185371Y-130030190D01*
X142169299Y-129991389D01*
X142169294Y-129991379D01*
X142051941Y-129788117D01*
X141909059Y-129601909D01*
X141909053Y-129601902D01*
X141896819Y-129589668D01*
X141863334Y-129528345D01*
X141860500Y-129501987D01*
X141860500Y-129132649D01*
X141859424Y-129125858D01*
X141850452Y-129069211D01*
X141828477Y-128930465D01*
X141766727Y-128740420D01*
X141765665Y-128736654D01*
X141717963Y-128643034D01*
X141717962Y-128643033D01*
X141716370Y-128639908D01*
X141672287Y-128553389D01*
X141551966Y-128387781D01*
X139551366Y-126387181D01*
X139517881Y-126325858D01*
X139522865Y-126256166D01*
X139564737Y-126200233D01*
X139630201Y-126175816D01*
X139639047Y-126175500D01*
X140309953Y-126175500D01*
X140376992Y-126195185D01*
X140397634Y-126211819D01*
X144066326Y-129880510D01*
X144099811Y-129941833D01*
X144094827Y-130011525D01*
X144086033Y-130030190D01*
X144050703Y-130091384D01*
X144050700Y-130091389D01*
X143960886Y-130308220D01*
X143960883Y-130308228D01*
X143910789Y-130495185D01*
X143900137Y-130534938D01*
X143900134Y-130534951D01*
X143869501Y-130767634D01*
X143869500Y-130767650D01*
X143869500Y-132982349D01*
X143869501Y-132982365D01*
X143900134Y-133215048D01*
X143900135Y-133215053D01*
X143900136Y-133215059D01*
X143960883Y-133441772D01*
X143960886Y-133441779D01*
X144050700Y-133658610D01*
X144050705Y-133658620D01*
X144168058Y-133861882D01*
X144310940Y-134048090D01*
X144310946Y-134048097D01*
X144476902Y-134214053D01*
X144476909Y-134214059D01*
X144663117Y-134356941D01*
X144866379Y-134474294D01*
X144866389Y-134474299D01*
X144959316Y-134512790D01*
X145083228Y-134564117D01*
X145309941Y-134624864D01*
X145542644Y-134655500D01*
X145542651Y-134655500D01*
X145777349Y-134655500D01*
X145777356Y-134655500D01*
X146010059Y-134624864D01*
X146236772Y-134564117D01*
X146453617Y-134474296D01*
X146656883Y-134356941D01*
X146843092Y-134214058D01*
X147009058Y-134048092D01*
X147151941Y-133861883D01*
X147269296Y-133658617D01*
X147359117Y-133441772D01*
X147419864Y-133215059D01*
X147450500Y-132982356D01*
X147450500Y-130767644D01*
X147419864Y-130534941D01*
X147359117Y-130308228D01*
X147307790Y-130184316D01*
X147269299Y-130091389D01*
X147269294Y-130091379D01*
X147151941Y-129888117D01*
X147009059Y-129701909D01*
X147009053Y-129701902D01*
X146996819Y-129689668D01*
X146963334Y-129628345D01*
X146960500Y-129601987D01*
X146960500Y-129532648D01*
X146946693Y-129445476D01*
X146928477Y-129330466D01*
X146916323Y-129293059D01*
X146916219Y-129292738D01*
X146865223Y-129135786D01*
X146831301Y-129069211D01*
X146772287Y-128953390D01*
X146719126Y-128880220D01*
X146719125Y-128880218D01*
X146719124Y-128880216D01*
X146651969Y-128787785D01*
X146651968Y-128787784D01*
X146651966Y-128787781D01*
X146507219Y-128643034D01*
X146507218Y-128643033D01*
X146504107Y-128639922D01*
X146504092Y-128639908D01*
X141747221Y-123883036D01*
X141747220Y-123883035D01*
X141747219Y-123883034D01*
X141664415Y-123822873D01*
X141581609Y-123762711D01*
X141443505Y-123692345D01*
X141399221Y-123669781D01*
X141399220Y-123669780D01*
X141399219Y-123669780D01*
X141301644Y-123638076D01*
X141301643Y-123638075D01*
X141204532Y-123606522D01*
X141049220Y-123581923D01*
X141002352Y-123574500D01*
X141002351Y-123574500D01*
X129715047Y-123574500D01*
X129648008Y-123554815D01*
X129627366Y-123538181D01*
X127936819Y-121847634D01*
X127903334Y-121786311D01*
X127900500Y-121759953D01*
X127900500Y-118374995D01*
X128894732Y-118374995D01*
X128894732Y-118375004D01*
X128913777Y-118629154D01*
X128965118Y-118854095D01*
X128970492Y-118877637D01*
X129063607Y-119114888D01*
X129191041Y-119335612D01*
X129219752Y-119371614D01*
X129254500Y-119415186D01*
X129280908Y-119479872D01*
X129268153Y-119548568D01*
X129254501Y-119569811D01*
X129191040Y-119649388D01*
X129063608Y-119870109D01*
X128970492Y-120107362D01*
X128970490Y-120107369D01*
X128913777Y-120355845D01*
X128894732Y-120609995D01*
X128894732Y-120610004D01*
X128913777Y-120864154D01*
X128959079Y-121062637D01*
X128970492Y-121112637D01*
X129063607Y-121349888D01*
X129191041Y-121570612D01*
X129349950Y-121769877D01*
X129536783Y-121943232D01*
X129747366Y-122086805D01*
X129747371Y-122086807D01*
X129747372Y-122086808D01*
X129747373Y-122086809D01*
X129804800Y-122114464D01*
X129976992Y-122197387D01*
X129976993Y-122197387D01*
X129976996Y-122197389D01*
X130220542Y-122272513D01*
X130472565Y-122310500D01*
X130727435Y-122310500D01*
X130979458Y-122272513D01*
X131223004Y-122197389D01*
X131452634Y-122086805D01*
X131663217Y-121943232D01*
X131850050Y-121769877D01*
X132008959Y-121570612D01*
X132136393Y-121349888D01*
X132229508Y-121112637D01*
X132286222Y-120864157D01*
X132301521Y-120660000D01*
X132305268Y-120610004D01*
X132305268Y-120609995D01*
X132286222Y-120355845D01*
X132274809Y-120305843D01*
X132229508Y-120107363D01*
X132136393Y-119870112D01*
X132008959Y-119649388D01*
X131945498Y-119569811D01*
X131919090Y-119505125D01*
X131931847Y-119436430D01*
X131945495Y-119415191D01*
X132008959Y-119335612D01*
X132136393Y-119114888D01*
X132229508Y-118877637D01*
X132286222Y-118629157D01*
X132305268Y-118375000D01*
X132297774Y-118274995D01*
X133894732Y-118274995D01*
X133894732Y-118275004D01*
X133913777Y-118529154D01*
X133936601Y-118629154D01*
X133970492Y-118777637D01*
X134063607Y-119014888D01*
X134191041Y-119235612D01*
X134272447Y-119337691D01*
X134298855Y-119402376D01*
X134299500Y-119415003D01*
X134299500Y-119419995D01*
X134279815Y-119487034D01*
X134272447Y-119497308D01*
X134191041Y-119599388D01*
X134063608Y-119820109D01*
X133970492Y-120057362D01*
X133970490Y-120057369D01*
X133913777Y-120305845D01*
X133894732Y-120559995D01*
X133894732Y-120560004D01*
X133913777Y-120814154D01*
X133936601Y-120914154D01*
X133970492Y-121062637D01*
X134063607Y-121299888D01*
X134191041Y-121520612D01*
X134349950Y-121719877D01*
X134536783Y-121893232D01*
X134747366Y-122036805D01*
X134747371Y-122036807D01*
X134747372Y-122036808D01*
X134747373Y-122036809D01*
X134851192Y-122086805D01*
X134976992Y-122147387D01*
X134976993Y-122147387D01*
X134976996Y-122147389D01*
X135220542Y-122222513D01*
X135472565Y-122260500D01*
X135727435Y-122260500D01*
X135979458Y-122222513D01*
X136223004Y-122147389D01*
X136452634Y-122036805D01*
X136663217Y-121893232D01*
X136850050Y-121719877D01*
X137008959Y-121520612D01*
X137136393Y-121299888D01*
X137229508Y-121062637D01*
X137286222Y-120814157D01*
X137301521Y-120610000D01*
X137305268Y-120560004D01*
X137305268Y-120559995D01*
X137286222Y-120305845D01*
X137252333Y-120157369D01*
X137229508Y-120057363D01*
X137136393Y-119820112D01*
X137008959Y-119599388D01*
X136933787Y-119505125D01*
X136927553Y-119497308D01*
X136901144Y-119432621D01*
X136900500Y-119419995D01*
X136900500Y-119415003D01*
X136920185Y-119347964D01*
X136927546Y-119337699D01*
X137008959Y-119235612D01*
X137136393Y-119014888D01*
X137229508Y-118777637D01*
X137286222Y-118529157D01*
X137305268Y-118275000D01*
X137305268Y-118274995D01*
X138794732Y-118274995D01*
X138794732Y-118275004D01*
X138813777Y-118529154D01*
X138836601Y-118629154D01*
X138870492Y-118777637D01*
X138963607Y-119014888D01*
X139091041Y-119235612D01*
X139172447Y-119337691D01*
X139198855Y-119402376D01*
X139199500Y-119415003D01*
X139199500Y-119419995D01*
X139179815Y-119487034D01*
X139172447Y-119497308D01*
X139091041Y-119599388D01*
X138963608Y-119820109D01*
X138870492Y-120057362D01*
X138870490Y-120057369D01*
X138813777Y-120305845D01*
X138794732Y-120559995D01*
X138794732Y-120560004D01*
X138813777Y-120814154D01*
X138836601Y-120914154D01*
X138870492Y-121062637D01*
X138963607Y-121299888D01*
X139091041Y-121520612D01*
X139249950Y-121719877D01*
X139436783Y-121893232D01*
X139647366Y-122036805D01*
X139647371Y-122036807D01*
X139647372Y-122036808D01*
X139647373Y-122036809D01*
X139751192Y-122086805D01*
X139876992Y-122147387D01*
X139876993Y-122147387D01*
X139876996Y-122147389D01*
X140120542Y-122222513D01*
X140372565Y-122260500D01*
X140627435Y-122260500D01*
X140879458Y-122222513D01*
X141123004Y-122147389D01*
X141352634Y-122036805D01*
X141563217Y-121893232D01*
X141750050Y-121719877D01*
X141908959Y-121520612D01*
X142036393Y-121299888D01*
X142129508Y-121062637D01*
X142186222Y-120814157D01*
X142201521Y-120610000D01*
X142205268Y-120560004D01*
X142205268Y-120559995D01*
X142186222Y-120305845D01*
X142152333Y-120157369D01*
X142129508Y-120057363D01*
X142036393Y-119820112D01*
X141908959Y-119599388D01*
X141833787Y-119505125D01*
X141827553Y-119497308D01*
X141801144Y-119432621D01*
X141800500Y-119419995D01*
X141800500Y-119415003D01*
X141820185Y-119347964D01*
X141827546Y-119337699D01*
X141908959Y-119235612D01*
X142036393Y-119014888D01*
X142129508Y-118777637D01*
X142186222Y-118529157D01*
X142205268Y-118275000D01*
X142186222Y-118020843D01*
X142129508Y-117772363D01*
X142036393Y-117535112D01*
X141908959Y-117314388D01*
X141750050Y-117115123D01*
X141563217Y-116941768D01*
X141352634Y-116798195D01*
X141352630Y-116798193D01*
X141352627Y-116798191D01*
X141352626Y-116798190D01*
X141123006Y-116687612D01*
X141123008Y-116687612D01*
X140879466Y-116612489D01*
X140879462Y-116612488D01*
X140879458Y-116612487D01*
X140758231Y-116594214D01*
X140627440Y-116574500D01*
X140627435Y-116574500D01*
X140372565Y-116574500D01*
X140372559Y-116574500D01*
X140215609Y-116598157D01*
X140120542Y-116612487D01*
X140120539Y-116612488D01*
X140120533Y-116612489D01*
X139876992Y-116687612D01*
X139647373Y-116798190D01*
X139647372Y-116798191D01*
X139436782Y-116941768D01*
X139249952Y-117115121D01*
X139249950Y-117115123D01*
X139091041Y-117314388D01*
X138963608Y-117535109D01*
X138870492Y-117772362D01*
X138870490Y-117772369D01*
X138813777Y-118020845D01*
X138794732Y-118274995D01*
X137305268Y-118274995D01*
X137286222Y-118020843D01*
X137229508Y-117772363D01*
X137136393Y-117535112D01*
X137008959Y-117314388D01*
X136850050Y-117115123D01*
X136663217Y-116941768D01*
X136452634Y-116798195D01*
X136452630Y-116798193D01*
X136452627Y-116798191D01*
X136452626Y-116798190D01*
X136223006Y-116687612D01*
X136223008Y-116687612D01*
X135979466Y-116612489D01*
X135979462Y-116612488D01*
X135979458Y-116612487D01*
X135858231Y-116594214D01*
X135727440Y-116574500D01*
X135727435Y-116574500D01*
X135472565Y-116574500D01*
X135472559Y-116574500D01*
X135315609Y-116598157D01*
X135220542Y-116612487D01*
X135220539Y-116612488D01*
X135220533Y-116612489D01*
X134976992Y-116687612D01*
X134747373Y-116798190D01*
X134747372Y-116798191D01*
X134536782Y-116941768D01*
X134349952Y-117115121D01*
X134349950Y-117115123D01*
X134191041Y-117314388D01*
X134063608Y-117535109D01*
X133970492Y-117772362D01*
X133970490Y-117772369D01*
X133913777Y-118020845D01*
X133894732Y-118274995D01*
X132297774Y-118274995D01*
X132286222Y-118120843D01*
X132229508Y-117872363D01*
X132136393Y-117635112D01*
X132008959Y-117414388D01*
X131850050Y-117215123D01*
X131663217Y-117041768D01*
X131452634Y-116898195D01*
X131452630Y-116898193D01*
X131452627Y-116898191D01*
X131452626Y-116898190D01*
X131223006Y-116787612D01*
X131223008Y-116787612D01*
X130979466Y-116712489D01*
X130979462Y-116712488D01*
X130979458Y-116712487D01*
X130858231Y-116694214D01*
X130727440Y-116674500D01*
X130727435Y-116674500D01*
X130472565Y-116674500D01*
X130472559Y-116674500D01*
X130315609Y-116698157D01*
X130220542Y-116712487D01*
X130220539Y-116712488D01*
X130220533Y-116712489D01*
X129976992Y-116787612D01*
X129747373Y-116898190D01*
X129747372Y-116898191D01*
X129536782Y-117041768D01*
X129349952Y-117215121D01*
X129349950Y-117215123D01*
X129191041Y-117414388D01*
X129063608Y-117635109D01*
X128970492Y-117872362D01*
X128970490Y-117872369D01*
X128913777Y-118120845D01*
X128894732Y-118374995D01*
X127900500Y-118374995D01*
X127900500Y-108981204D01*
X127920185Y-108914165D01*
X127972989Y-108868410D01*
X128042147Y-108858466D01*
X128105703Y-108887491D01*
X128112181Y-108893523D01*
X129058610Y-109839952D01*
X129092095Y-109901275D01*
X129087111Y-109970967D01*
X129078319Y-109989628D01*
X129063608Y-110015109D01*
X129063606Y-110015114D01*
X128970492Y-110252362D01*
X128970490Y-110252369D01*
X128913777Y-110500845D01*
X128894732Y-110754995D01*
X128894732Y-110755004D01*
X128913777Y-111009154D01*
X128965118Y-111234095D01*
X128970492Y-111257637D01*
X129063607Y-111494888D01*
X129191041Y-111715612D01*
X129349950Y-111914877D01*
X129536783Y-112088232D01*
X129747366Y-112231805D01*
X129747371Y-112231807D01*
X129747372Y-112231808D01*
X129747373Y-112231809D01*
X129869328Y-112290538D01*
X129976992Y-112342387D01*
X129976993Y-112342387D01*
X129976996Y-112342389D01*
X130220542Y-112417513D01*
X130472565Y-112455500D01*
X130727435Y-112455500D01*
X130979458Y-112417513D01*
X131223004Y-112342389D01*
X131404458Y-112255005D01*
X131452626Y-112231809D01*
X131452626Y-112231808D01*
X131452634Y-112231805D01*
X131663217Y-112088232D01*
X131850050Y-111914877D01*
X132008959Y-111715612D01*
X132136393Y-111494888D01*
X132229508Y-111257637D01*
X132271900Y-111071907D01*
X132306009Y-111010929D01*
X132367670Y-110978071D01*
X132392791Y-110975500D01*
X133830033Y-110975500D01*
X133897072Y-110995185D01*
X133942827Y-111047989D01*
X133950924Y-111071907D01*
X133970492Y-111157637D01*
X134063607Y-111394888D01*
X134191041Y-111615612D01*
X134349950Y-111814877D01*
X134536783Y-111988232D01*
X134747366Y-112131805D01*
X134747371Y-112131807D01*
X134747372Y-112131808D01*
X134747373Y-112131809D01*
X134869328Y-112190538D01*
X134976992Y-112242387D01*
X134976993Y-112242387D01*
X134976996Y-112242389D01*
X135220542Y-112317513D01*
X135472565Y-112355500D01*
X135727435Y-112355500D01*
X135979458Y-112317513D01*
X136223004Y-112242389D01*
X136452634Y-112131805D01*
X136663217Y-111988232D01*
X136850050Y-111814877D01*
X137008959Y-111615612D01*
X137136393Y-111394888D01*
X137229508Y-111157637D01*
X137286222Y-110909157D01*
X137305268Y-110655000D01*
X137286222Y-110400843D01*
X137229508Y-110152363D01*
X137187292Y-110044801D01*
X137181124Y-109975206D01*
X137213561Y-109913322D01*
X137274306Y-109878800D01*
X137302721Y-109875500D01*
X138112796Y-109875500D01*
X138179835Y-109895185D01*
X138200477Y-109911819D01*
X138764891Y-110476233D01*
X138798376Y-110537556D01*
X138800863Y-110573180D01*
X138794732Y-110654996D01*
X138794732Y-110655004D01*
X138813777Y-110909154D01*
X138850924Y-111071907D01*
X138870492Y-111157637D01*
X138963607Y-111394888D01*
X139091041Y-111615612D01*
X139249950Y-111814877D01*
X139436783Y-111988232D01*
X139647366Y-112131805D01*
X139647371Y-112131807D01*
X139647372Y-112131808D01*
X139647373Y-112131809D01*
X139769328Y-112190538D01*
X139876992Y-112242387D01*
X139876993Y-112242387D01*
X139876996Y-112242389D01*
X140120542Y-112317513D01*
X140372565Y-112355500D01*
X140627435Y-112355500D01*
X140879458Y-112317513D01*
X141123004Y-112242389D01*
X141352634Y-112131805D01*
X141563217Y-111988232D01*
X141750050Y-111814877D01*
X141908959Y-111615612D01*
X142036393Y-111394888D01*
X142129508Y-111157637D01*
X142186222Y-110909157D01*
X142205268Y-110655000D01*
X142196348Y-110535971D01*
X142210967Y-110467649D01*
X142260204Y-110418076D01*
X142328426Y-110402992D01*
X142393973Y-110427186D01*
X142407682Y-110439024D01*
X143563072Y-111594414D01*
X143703212Y-111696232D01*
X143857555Y-111774873D01*
X144022299Y-111828402D01*
X144193389Y-111855500D01*
X144242883Y-111855500D01*
X144309922Y-111875185D01*
X144339831Y-111902188D01*
X144349947Y-111914874D01*
X144349950Y-111914877D01*
X144536783Y-112088232D01*
X144747366Y-112231805D01*
X144747371Y-112231807D01*
X144747372Y-112231808D01*
X144747373Y-112231809D01*
X144869328Y-112290538D01*
X144976992Y-112342387D01*
X144976993Y-112342387D01*
X144976996Y-112342389D01*
X145220542Y-112417513D01*
X145472565Y-112455500D01*
X145727435Y-112455500D01*
X145979458Y-112417513D01*
X146223004Y-112342389D01*
X146404458Y-112255005D01*
X146452626Y-112231809D01*
X146452626Y-112231808D01*
X146452634Y-112231805D01*
X146555648Y-112161570D01*
X146622127Y-112140070D01*
X146689677Y-112157924D01*
X146736852Y-112209464D01*
X146749500Y-112264024D01*
X146749500Y-116865975D01*
X146729815Y-116933014D01*
X146677011Y-116978769D01*
X146607853Y-116988713D01*
X146555649Y-116968429D01*
X146452634Y-116898195D01*
X146452626Y-116898190D01*
X146223006Y-116787612D01*
X146223008Y-116787612D01*
X145979466Y-116712489D01*
X145979462Y-116712488D01*
X145979458Y-116712487D01*
X145858231Y-116694214D01*
X145727440Y-116674500D01*
X145727435Y-116674500D01*
X145472565Y-116674500D01*
X145472559Y-116674500D01*
X145315609Y-116698157D01*
X145220542Y-116712487D01*
X145220539Y-116712488D01*
X145220533Y-116712489D01*
X144976992Y-116787612D01*
X144747373Y-116898190D01*
X144747372Y-116898191D01*
X144536782Y-117041768D01*
X144349952Y-117215121D01*
X144349950Y-117215123D01*
X144191041Y-117414388D01*
X144063608Y-117635109D01*
X143970492Y-117872362D01*
X143970490Y-117872369D01*
X143913777Y-118120845D01*
X143894732Y-118374995D01*
X143894732Y-118375004D01*
X143913777Y-118629154D01*
X143965118Y-118854095D01*
X143970492Y-118877637D01*
X144063607Y-119114888D01*
X144191041Y-119335612D01*
X144272447Y-119437691D01*
X144298855Y-119502376D01*
X144299500Y-119515003D01*
X144299500Y-119519995D01*
X144279815Y-119587034D01*
X144272447Y-119597308D01*
X144191041Y-119699388D01*
X144063608Y-119920109D01*
X143970492Y-120157362D01*
X143970490Y-120157369D01*
X143913777Y-120405845D01*
X143894732Y-120659995D01*
X143894732Y-120660004D01*
X143913777Y-120914154D01*
X143965118Y-121139095D01*
X143970492Y-121162637D01*
X144063607Y-121399888D01*
X144191041Y-121620612D01*
X144349950Y-121819877D01*
X144536783Y-121993232D01*
X144747366Y-122136805D01*
X144747371Y-122136807D01*
X144747372Y-122136808D01*
X144747373Y-122136809D01*
X144814269Y-122169024D01*
X144976992Y-122247387D01*
X144976993Y-122247387D01*
X144976996Y-122247389D01*
X145220542Y-122322513D01*
X145472565Y-122360500D01*
X145727435Y-122360500D01*
X145979458Y-122322513D01*
X146223004Y-122247389D01*
X146452634Y-122136805D01*
X146555648Y-122066570D01*
X146622127Y-122045070D01*
X146689677Y-122062924D01*
X146736852Y-122114464D01*
X146749500Y-122169024D01*
X146749500Y-122597026D01*
X146787678Y-122838072D01*
X146863097Y-123070187D01*
X146973896Y-123287642D01*
X147117339Y-123485076D01*
X147117343Y-123485081D01*
X149313181Y-125680919D01*
X149346666Y-125742242D01*
X149349500Y-125768600D01*
X149349500Y-129172060D01*
X149329815Y-129239099D01*
X149313181Y-129259741D01*
X149280184Y-129292737D01*
X149184211Y-129445476D01*
X149124631Y-129615745D01*
X149124630Y-129615750D01*
X149109500Y-129750039D01*
X149109500Y-133799960D01*
X149124630Y-133934249D01*
X149124631Y-133934254D01*
X149184211Y-134104523D01*
X149253034Y-134214053D01*
X149280184Y-134257262D01*
X149407738Y-134384816D01*
X149498080Y-134441582D01*
X149533944Y-134464117D01*
X149560478Y-134480789D01*
X149686437Y-134524864D01*
X149730745Y-134540368D01*
X149730750Y-134540369D01*
X149821246Y-134550565D01*
X149865040Y-134555499D01*
X149865043Y-134555500D01*
X149865046Y-134555500D01*
X151934957Y-134555500D01*
X151934958Y-134555499D01*
X152002104Y-134547934D01*
X152069249Y-134540369D01*
X152069252Y-134540368D01*
X152069255Y-134540368D01*
X152239522Y-134480789D01*
X152392262Y-134384816D01*
X152519816Y-134257262D01*
X152615789Y-134104522D01*
X152675368Y-133934255D01*
X152690500Y-133799954D01*
X152690500Y-129750046D01*
X152683697Y-129689668D01*
X152675369Y-129615750D01*
X152675368Y-129615745D01*
X152615788Y-129445476D01*
X152543521Y-129330465D01*
X152519816Y-129292738D01*
X152486819Y-129259741D01*
X152453334Y-129198418D01*
X152450500Y-129172060D01*
X152450500Y-124952975D01*
X152449062Y-124943895D01*
X152458019Y-124874602D01*
X152503016Y-124821151D01*
X152569768Y-124800513D01*
X152571536Y-124800500D01*
X154285703Y-124800500D01*
X154352742Y-124820185D01*
X154398497Y-124872989D01*
X154408441Y-124942147D01*
X154403634Y-124962818D01*
X154387679Y-125011919D01*
X154387679Y-125011922D01*
X154349500Y-125252973D01*
X154349500Y-129856318D01*
X154332888Y-129918317D01*
X154290703Y-129991384D01*
X154290700Y-129991389D01*
X154200886Y-130208220D01*
X154200881Y-130208234D01*
X154140137Y-130434938D01*
X154140134Y-130434951D01*
X154109501Y-130667634D01*
X154109500Y-130667650D01*
X154109500Y-132882349D01*
X154109501Y-132882365D01*
X154140134Y-133115048D01*
X154140135Y-133115053D01*
X154140136Y-133115059D01*
X154200883Y-133341772D01*
X154200886Y-133341779D01*
X154290700Y-133558610D01*
X154290705Y-133558620D01*
X154408058Y-133761882D01*
X154550940Y-133948090D01*
X154550946Y-133948097D01*
X154716902Y-134114053D01*
X154716909Y-134114059D01*
X154903117Y-134256941D01*
X155106379Y-134374294D01*
X155106389Y-134374299D01*
X155199316Y-134412790D01*
X155323228Y-134464117D01*
X155549941Y-134524864D01*
X155782644Y-134555500D01*
X155782651Y-134555500D01*
X156017349Y-134555500D01*
X156017356Y-134555500D01*
X156250059Y-134524864D01*
X156476772Y-134464117D01*
X156693617Y-134374296D01*
X156896883Y-134256941D01*
X157083092Y-134114058D01*
X157249058Y-133948092D01*
X157391941Y-133761883D01*
X157509296Y-133558617D01*
X157599117Y-133341772D01*
X157659864Y-133115059D01*
X157690500Y-132882356D01*
X157690500Y-130667644D01*
X157659864Y-130434941D01*
X157599117Y-130208228D01*
X157525371Y-130030190D01*
X157509299Y-129991389D01*
X157509296Y-129991384D01*
X157509296Y-129991383D01*
X157467112Y-129918317D01*
X157450500Y-129856318D01*
X157450500Y-126068600D01*
X157470185Y-126001561D01*
X157486819Y-125980919D01*
X157582655Y-125885083D01*
X157726106Y-125687639D01*
X157836904Y-125470185D01*
X157912321Y-125238076D01*
X157950500Y-124997027D01*
X157950500Y-124917600D01*
X157970185Y-124850561D01*
X158022989Y-124804806D01*
X158092147Y-124794862D01*
X158155703Y-124823887D01*
X158162181Y-124829919D01*
X159413181Y-126080919D01*
X159446666Y-126142242D01*
X159449500Y-126168600D01*
X159449500Y-129172060D01*
X159429815Y-129239099D01*
X159413181Y-129259741D01*
X159380184Y-129292737D01*
X159284211Y-129445476D01*
X159224631Y-129615745D01*
X159224630Y-129615750D01*
X159209500Y-129750039D01*
X159209500Y-133799960D01*
X159224630Y-133934249D01*
X159224631Y-133934254D01*
X159284211Y-134104523D01*
X159353034Y-134214053D01*
X159380184Y-134257262D01*
X159507738Y-134384816D01*
X159598080Y-134441582D01*
X159633944Y-134464117D01*
X159660478Y-134480789D01*
X159786437Y-134524864D01*
X159830745Y-134540368D01*
X159830750Y-134540369D01*
X159921246Y-134550565D01*
X159965040Y-134555499D01*
X159965043Y-134555500D01*
X159965046Y-134555500D01*
X162034957Y-134555500D01*
X162034958Y-134555499D01*
X162102104Y-134547934D01*
X162169249Y-134540369D01*
X162169252Y-134540368D01*
X162169255Y-134540368D01*
X162339522Y-134480789D01*
X162492262Y-134384816D01*
X162619816Y-134257262D01*
X162715789Y-134104522D01*
X162775368Y-133934255D01*
X162790500Y-133799954D01*
X162790500Y-129750046D01*
X162783697Y-129689668D01*
X162775369Y-129615750D01*
X162775368Y-129615745D01*
X162715788Y-129445476D01*
X162643521Y-129330465D01*
X162619816Y-129292738D01*
X162586819Y-129259741D01*
X162553334Y-129198418D01*
X162550500Y-129172060D01*
X162550500Y-125352973D01*
X162512321Y-125111927D01*
X162512321Y-125111924D01*
X162496364Y-125062816D01*
X162494370Y-124992977D01*
X162530450Y-124933144D01*
X162593151Y-124902316D01*
X162614296Y-124900500D01*
X164385703Y-124900500D01*
X164452742Y-124920185D01*
X164498497Y-124972989D01*
X164508441Y-125042147D01*
X164503634Y-125062818D01*
X164487679Y-125111919D01*
X164487679Y-125111922D01*
X164449500Y-125352973D01*
X164449500Y-129856318D01*
X164432888Y-129918317D01*
X164390703Y-129991384D01*
X164390700Y-129991389D01*
X164300886Y-130208220D01*
X164300881Y-130208234D01*
X164240137Y-130434938D01*
X164240134Y-130434951D01*
X164209501Y-130667634D01*
X164209500Y-130667650D01*
X164209500Y-132882349D01*
X164209501Y-132882365D01*
X164240134Y-133115048D01*
X164240135Y-133115053D01*
X164240136Y-133115059D01*
X164300883Y-133341772D01*
X164300886Y-133341779D01*
X164390700Y-133558610D01*
X164390705Y-133558620D01*
X164508058Y-133761882D01*
X164650940Y-133948090D01*
X164650946Y-133948097D01*
X164816902Y-134114053D01*
X164816909Y-134114059D01*
X165003117Y-134256941D01*
X165206379Y-134374294D01*
X165206389Y-134374299D01*
X165299316Y-134412790D01*
X165423228Y-134464117D01*
X165649941Y-134524864D01*
X165882644Y-134555500D01*
X165882651Y-134555500D01*
X166117349Y-134555500D01*
X166117356Y-134555500D01*
X166350059Y-134524864D01*
X166576772Y-134464117D01*
X166793617Y-134374296D01*
X166996883Y-134256941D01*
X167183092Y-134114058D01*
X167349058Y-133948092D01*
X167491941Y-133761883D01*
X167609296Y-133558617D01*
X167699117Y-133341772D01*
X167759864Y-133115059D01*
X167790500Y-132882356D01*
X167790500Y-130667644D01*
X167759864Y-130434941D01*
X167699117Y-130208228D01*
X167625371Y-130030190D01*
X167609299Y-129991389D01*
X167609296Y-129991384D01*
X167609296Y-129991383D01*
X167567112Y-129918317D01*
X167550500Y-129856318D01*
X167550500Y-126168600D01*
X167570185Y-126101561D01*
X167586819Y-126080919D01*
X167782662Y-125885076D01*
X167982655Y-125685083D01*
X168126106Y-125487639D01*
X168236904Y-125270185D01*
X168312321Y-125038076D01*
X168350500Y-124797027D01*
X168350500Y-124552973D01*
X168350500Y-104090788D01*
X168350882Y-104081059D01*
X168355294Y-104025000D01*
X168350882Y-103968938D01*
X168350500Y-103959210D01*
X168350500Y-103902974D01*
X168346639Y-103878600D01*
X168341703Y-103847433D01*
X168340558Y-103837763D01*
X168339730Y-103827238D01*
X168336146Y-103781698D01*
X168323012Y-103726992D01*
X168321121Y-103717486D01*
X168312321Y-103661924D01*
X168294944Y-103608443D01*
X168292300Y-103599071D01*
X168279172Y-103544388D01*
X168257647Y-103492423D01*
X168254283Y-103483306D01*
X168236904Y-103429815D01*
X168211371Y-103379704D01*
X168207308Y-103370893D01*
X168185777Y-103318911D01*
X168185774Y-103318906D01*
X168185772Y-103318901D01*
X168159592Y-103276181D01*
X168156393Y-103270961D01*
X168151637Y-103262469D01*
X168126107Y-103212362D01*
X168093048Y-103166861D01*
X168087639Y-103158765D01*
X168058262Y-103110826D01*
X168058259Y-103110821D01*
X168021737Y-103068059D01*
X168015708Y-103060411D01*
X167982658Y-103014920D01*
X167942884Y-102975146D01*
X167936288Y-102968011D01*
X167899759Y-102925241D01*
X167856995Y-102888717D01*
X167849846Y-102882108D01*
X167810085Y-102842347D01*
X167810083Y-102842345D01*
X167806852Y-102839998D01*
X167764580Y-102809284D01*
X167756934Y-102803257D01*
X167714181Y-102766742D01*
X167714176Y-102766738D01*
X167666227Y-102737355D01*
X167658132Y-102731946D01*
X167612640Y-102698894D01*
X167588619Y-102686655D01*
X167562530Y-102673361D01*
X167554046Y-102668611D01*
X167506087Y-102639222D01*
X167506077Y-102639217D01*
X167454134Y-102617702D01*
X167445291Y-102613626D01*
X167395179Y-102588093D01*
X167395181Y-102588093D01*
X167341700Y-102570717D01*
X167332565Y-102567347D01*
X167280614Y-102545829D01*
X167280612Y-102545828D01*
X167280610Y-102545827D01*
X167280606Y-102545826D01*
X167225931Y-102532699D01*
X167216563Y-102530057D01*
X167163085Y-102512681D01*
X167163074Y-102512678D01*
X167107529Y-102503880D01*
X167097985Y-102501981D01*
X167043303Y-102488854D01*
X167043299Y-102488853D01*
X166987227Y-102484439D01*
X166977562Y-102483295D01*
X166922031Y-102474500D01*
X166922027Y-102474500D01*
X166865789Y-102474500D01*
X166856061Y-102474118D01*
X166800000Y-102469706D01*
X166743939Y-102474118D01*
X166734211Y-102474500D01*
X166677971Y-102474500D01*
X166622422Y-102483297D01*
X166612760Y-102484440D01*
X166556702Y-102488853D01*
X166502012Y-102501982D01*
X166492469Y-102503880D01*
X166436925Y-102512678D01*
X166436921Y-102512679D01*
X166383430Y-102530059D01*
X166374064Y-102532700D01*
X166319391Y-102545827D01*
X166319385Y-102545828D01*
X166267440Y-102567345D01*
X166258308Y-102570714D01*
X166204822Y-102588093D01*
X166204806Y-102588100D01*
X166154710Y-102613624D01*
X166145873Y-102617698D01*
X166093914Y-102639220D01*
X166093909Y-102639223D01*
X166045961Y-102668606D01*
X166037469Y-102673362D01*
X165987357Y-102698896D01*
X165941858Y-102731952D01*
X165933767Y-102737358D01*
X165885828Y-102766735D01*
X165885821Y-102766740D01*
X165885821Y-102766741D01*
X165843054Y-102803266D01*
X165835416Y-102809287D01*
X165789919Y-102842342D01*
X165789909Y-102842350D01*
X165750150Y-102882110D01*
X165743003Y-102888717D01*
X165700240Y-102925240D01*
X165663717Y-102968003D01*
X165657110Y-102975150D01*
X165617350Y-103014909D01*
X165617342Y-103014919D01*
X165584287Y-103060416D01*
X165578266Y-103068054D01*
X165541742Y-103110820D01*
X165541735Y-103110828D01*
X165512358Y-103158767D01*
X165506952Y-103166858D01*
X165473896Y-103212357D01*
X165448362Y-103262469D01*
X165443598Y-103270973D01*
X165440399Y-103276192D01*
X165388582Y-103323062D01*
X165319651Y-103334477D01*
X165255492Y-103306813D01*
X165228952Y-103276181D01*
X165158262Y-103160825D01*
X165158261Y-103160823D01*
X165115546Y-103110810D01*
X164999759Y-102975241D01*
X164877063Y-102870449D01*
X164814176Y-102816738D01*
X164814173Y-102816737D01*
X164606089Y-102689222D01*
X164380618Y-102595830D01*
X164380621Y-102595830D01*
X164348394Y-102588093D01*
X164266330Y-102568390D01*
X164205741Y-102533601D01*
X164173577Y-102471574D01*
X164180053Y-102402005D01*
X164207597Y-102360139D01*
X165217654Y-101350082D01*
X165278975Y-101316599D01*
X165348667Y-101321583D01*
X165360178Y-101326554D01*
X165417739Y-101354941D01*
X165417742Y-101354942D01*
X165417748Y-101354945D01*
X165703309Y-101451880D01*
X165903251Y-101491651D01*
X165999069Y-101510711D01*
X165999070Y-101510711D01*
X165999080Y-101510713D01*
X166300000Y-101530436D01*
X166600920Y-101510713D01*
X166896691Y-101451880D01*
X167182252Y-101354945D01*
X167452718Y-101221566D01*
X167703461Y-101054025D01*
X167930189Y-100855189D01*
X168129025Y-100628461D01*
X168296566Y-100377718D01*
X168429945Y-100107252D01*
X168458081Y-100024363D01*
X168498270Y-99967211D01*
X168562979Y-99940858D01*
X168631663Y-99953672D01*
G37*
%TD.AperFunction*%
%TA.AperFunction,Conductor*%
G36*
X154093334Y-66940522D02*
G01*
X154137681Y-66969023D01*
X164508025Y-77339367D01*
X164541235Y-77399455D01*
X164569316Y-77522488D01*
X164570492Y-77527637D01*
X164663607Y-77764888D01*
X164791041Y-77985612D01*
X164949950Y-78184877D01*
X165136783Y-78358232D01*
X165347366Y-78501805D01*
X165347371Y-78501807D01*
X165347372Y-78501808D01*
X165347373Y-78501809D01*
X165464536Y-78558231D01*
X165576992Y-78612387D01*
X165576993Y-78612387D01*
X165576996Y-78612389D01*
X165820542Y-78687513D01*
X166072565Y-78725500D01*
X166327435Y-78725500D01*
X166579458Y-78687513D01*
X166738954Y-78638314D01*
X166808813Y-78637364D01*
X166868099Y-78674336D01*
X166897986Y-78737490D01*
X166899500Y-78756806D01*
X166899500Y-78844953D01*
X166879815Y-78911992D01*
X166863181Y-78932634D01*
X166307634Y-79488181D01*
X166246311Y-79521666D01*
X166219953Y-79524500D01*
X165465039Y-79524500D01*
X165330750Y-79539630D01*
X165330745Y-79539631D01*
X165160476Y-79599211D01*
X165007737Y-79695184D01*
X164880184Y-79822737D01*
X164784211Y-79975476D01*
X164724631Y-80145745D01*
X164724630Y-80145750D01*
X164709500Y-80280039D01*
X164709500Y-82169960D01*
X164724630Y-82304249D01*
X164724631Y-82304254D01*
X164784211Y-82474523D01*
X164855067Y-82587289D01*
X164880184Y-82627262D01*
X165007738Y-82754816D01*
X165007742Y-82754819D01*
X165012809Y-82758859D01*
X165052952Y-82816046D01*
X165059500Y-82855809D01*
X165059500Y-85241191D01*
X165039815Y-85308230D01*
X165013755Y-85337379D01*
X164847154Y-85472918D01*
X164655692Y-85677925D01*
X164655692Y-85677926D01*
X164655689Y-85677928D01*
X164655688Y-85677931D01*
X164629580Y-85714918D01*
X164493919Y-85907103D01*
X164364863Y-86156171D01*
X164270926Y-86420483D01*
X164270921Y-86420500D01*
X164213852Y-86695135D01*
X164213851Y-86695137D01*
X164194709Y-86975000D01*
X164213851Y-87254862D01*
X164213852Y-87254864D01*
X164270921Y-87529499D01*
X164270926Y-87529516D01*
X164329323Y-87693828D01*
X164364864Y-87793830D01*
X164493919Y-88042896D01*
X164655688Y-88272069D01*
X164753762Y-88377081D01*
X164835732Y-88464850D01*
X164867103Y-88527280D01*
X164859743Y-88596761D01*
X164850835Y-88614276D01*
X164743179Y-88789953D01*
X164649787Y-89015423D01*
X164592810Y-89252745D01*
X164573663Y-89496043D01*
X164592810Y-89739340D01*
X164649787Y-89976662D01*
X164743179Y-90202132D01*
X164870694Y-90410216D01*
X164870695Y-90410219D01*
X164924406Y-90473106D01*
X165029198Y-90595802D01*
X165078695Y-90638076D01*
X165214780Y-90754304D01*
X165214783Y-90754305D01*
X165422867Y-90881820D01*
X165648338Y-90975212D01*
X165648335Y-90975212D01*
X165648341Y-90975213D01*
X165648345Y-90975215D01*
X165885655Y-91032189D01*
X166128957Y-91051337D01*
X166372259Y-91032189D01*
X166609569Y-90975215D01*
X166835046Y-90881820D01*
X167043136Y-90754302D01*
X167228716Y-90595802D01*
X167387216Y-90410222D01*
X167514734Y-90202132D01*
X167608129Y-89976655D01*
X167665103Y-89739345D01*
X167684251Y-89496043D01*
X167665103Y-89252741D01*
X167608129Y-89015431D01*
X167559938Y-88899088D01*
X167550500Y-88851636D01*
X167550500Y-88619316D01*
X167570185Y-88552277D01*
X167596246Y-88523127D01*
X167652845Y-88477081D01*
X167844312Y-88272069D01*
X168006081Y-88042896D01*
X168135136Y-87793830D01*
X168229075Y-87529511D01*
X168229076Y-87529504D01*
X168229078Y-87529499D01*
X168270443Y-87330436D01*
X168286148Y-87254862D01*
X168305291Y-86975000D01*
X168286148Y-86695138D01*
X168263890Y-86588029D01*
X168229078Y-86420500D01*
X168229073Y-86420483D01*
X168196368Y-86328461D01*
X168135136Y-86156170D01*
X168006081Y-85907104D01*
X167844312Y-85677931D01*
X167844307Y-85677925D01*
X167693876Y-85516852D01*
X167662504Y-85454422D01*
X167660500Y-85432216D01*
X167660500Y-82918706D01*
X167680185Y-82851667D01*
X167718529Y-82813712D01*
X167812259Y-82754818D01*
X167812259Y-82754817D01*
X167812262Y-82754816D01*
X167939816Y-82627262D01*
X168035789Y-82474522D01*
X168095368Y-82304255D01*
X168110500Y-82169954D01*
X168110500Y-81415047D01*
X168130185Y-81348008D01*
X168146819Y-81327366D01*
X168487819Y-80986366D01*
X168549142Y-80952881D01*
X168618834Y-80957865D01*
X168674767Y-80999737D01*
X168699184Y-81065201D01*
X168699500Y-81074047D01*
X168699500Y-98385775D01*
X168679815Y-98452814D01*
X168627011Y-98498569D01*
X168557853Y-98508513D01*
X168494297Y-98479488D01*
X168458081Y-98425634D01*
X168429946Y-98342752D01*
X168429945Y-98342748D01*
X168429204Y-98341246D01*
X168296568Y-98072286D01*
X168296564Y-98072279D01*
X168129026Y-97821540D01*
X167930189Y-97594810D01*
X167703459Y-97395973D01*
X167452720Y-97228435D01*
X167452713Y-97228431D01*
X167182268Y-97095062D01*
X167182247Y-97095053D01*
X166896698Y-96998122D01*
X166896692Y-96998120D01*
X166896691Y-96998120D01*
X166896689Y-96998119D01*
X166896683Y-96998118D01*
X166600930Y-96939288D01*
X166600921Y-96939287D01*
X166600920Y-96939287D01*
X166300000Y-96919564D01*
X165999080Y-96939287D01*
X165999079Y-96939287D01*
X165999069Y-96939288D01*
X165703316Y-96998118D01*
X165703301Y-96998122D01*
X165417752Y-97095053D01*
X165417731Y-97095062D01*
X165147286Y-97228431D01*
X165147279Y-97228435D01*
X164896540Y-97395973D01*
X164669810Y-97594810D01*
X164471977Y-97820395D01*
X164435045Y-97849120D01*
X164337359Y-97898894D01*
X164139923Y-98042339D01*
X164139918Y-98042343D01*
X163762181Y-98420081D01*
X163700858Y-98453566D01*
X163631166Y-98448582D01*
X163575233Y-98406710D01*
X163550816Y-98341246D01*
X163550500Y-98332400D01*
X163550500Y-86602973D01*
X163548133Y-86588029D01*
X163512321Y-86361924D01*
X163436904Y-86129815D01*
X163326106Y-85912361D01*
X163249740Y-85807252D01*
X163182660Y-85714923D01*
X163182656Y-85714918D01*
X162638231Y-85170493D01*
X162604746Y-85109170D01*
X162602178Y-85074700D01*
X162603365Y-85056587D01*
X162605436Y-85025000D01*
X162585713Y-84724080D01*
X162526880Y-84428309D01*
X162429945Y-84142748D01*
X162417905Y-84118334D01*
X162296568Y-83872286D01*
X162296564Y-83872279D01*
X162129026Y-83621540D01*
X161930189Y-83394810D01*
X161703459Y-83195973D01*
X161452720Y-83028435D01*
X161452713Y-83028431D01*
X161182268Y-82895062D01*
X161182247Y-82895053D01*
X160896698Y-82798122D01*
X160896692Y-82798120D01*
X160896691Y-82798120D01*
X160896689Y-82798119D01*
X160896683Y-82798118D01*
X160600930Y-82739288D01*
X160600921Y-82739287D01*
X160600920Y-82739287D01*
X160300000Y-82719564D01*
X159999080Y-82739287D01*
X159999076Y-82739287D01*
X159999068Y-82739289D01*
X159994708Y-82740156D01*
X159925117Y-82733921D01*
X159869945Y-82691052D01*
X159846707Y-82625160D01*
X159862782Y-82557164D01*
X159886184Y-82527642D01*
X160040050Y-82384877D01*
X160198959Y-82185612D01*
X160326393Y-81964888D01*
X160419508Y-81727637D01*
X160476222Y-81479157D01*
X160495268Y-81225000D01*
X160491832Y-81179154D01*
X160476222Y-80970845D01*
X160473259Y-80957865D01*
X160419508Y-80722363D01*
X160326393Y-80485112D01*
X160198959Y-80264388D01*
X160040050Y-80065123D01*
X159853217Y-79891768D01*
X159642634Y-79748195D01*
X159642630Y-79748193D01*
X159642627Y-79748191D01*
X159642626Y-79748190D01*
X159416254Y-79639176D01*
X159413006Y-79637612D01*
X159413008Y-79637612D01*
X159169466Y-79562489D01*
X159169462Y-79562488D01*
X159169458Y-79562487D01*
X159048231Y-79544214D01*
X158917440Y-79524500D01*
X158917435Y-79524500D01*
X158662565Y-79524500D01*
X158662559Y-79524500D01*
X158505609Y-79548157D01*
X158410542Y-79562487D01*
X158410539Y-79562488D01*
X158410533Y-79562489D01*
X158166995Y-79637611D01*
X158129305Y-79655762D01*
X158060364Y-79667113D01*
X157996230Y-79639390D01*
X157957265Y-79581394D01*
X157955840Y-79511539D01*
X157987823Y-79456361D01*
X158691830Y-78752353D01*
X158753151Y-78718870D01*
X158761008Y-78717424D01*
X158959458Y-78687513D01*
X159203004Y-78612389D01*
X159432634Y-78501805D01*
X159643217Y-78358232D01*
X159830050Y-78184877D01*
X159988959Y-77985612D01*
X160116393Y-77764888D01*
X160209508Y-77527637D01*
X160266222Y-77279157D01*
X160276013Y-77148500D01*
X160285268Y-77025004D01*
X160285268Y-77024995D01*
X160266222Y-76770845D01*
X160255158Y-76722371D01*
X160209508Y-76522363D01*
X160116393Y-76285112D01*
X159988959Y-76064388D01*
X159830050Y-75865123D01*
X159643217Y-75691768D01*
X159432634Y-75548195D01*
X159432630Y-75548193D01*
X159432627Y-75548191D01*
X159432626Y-75548190D01*
X159203006Y-75437612D01*
X159203008Y-75437612D01*
X158959466Y-75362489D01*
X158959462Y-75362488D01*
X158959458Y-75362487D01*
X158838231Y-75344214D01*
X158707440Y-75324500D01*
X158707435Y-75324500D01*
X158452565Y-75324500D01*
X158452559Y-75324500D01*
X158295609Y-75348157D01*
X158200542Y-75362487D01*
X158200539Y-75362488D01*
X158200533Y-75362489D01*
X157956992Y-75437612D01*
X157727373Y-75548190D01*
X157727372Y-75548191D01*
X157516782Y-75691768D01*
X157329952Y-75865121D01*
X157329950Y-75865123D01*
X157171041Y-76064388D01*
X157043608Y-76285109D01*
X156950492Y-76522362D01*
X156950489Y-76522371D01*
X156893777Y-76770844D01*
X156893776Y-76770856D01*
X156889018Y-76834352D01*
X156864379Y-76899733D01*
X156853046Y-76912767D01*
X156085707Y-77680106D01*
X156024384Y-77713591D01*
X155954692Y-77708607D01*
X155944225Y-77704145D01*
X155723006Y-77597612D01*
X155723008Y-77597612D01*
X155479466Y-77522489D01*
X155479462Y-77522488D01*
X155479458Y-77522487D01*
X155358231Y-77504214D01*
X155227440Y-77484500D01*
X155227435Y-77484500D01*
X154972565Y-77484500D01*
X154972559Y-77484500D01*
X154815609Y-77508157D01*
X154720542Y-77522487D01*
X154720539Y-77522488D01*
X154720533Y-77522489D01*
X154476992Y-77597612D01*
X154247373Y-77708190D01*
X154247372Y-77708191D01*
X154036782Y-77851768D01*
X153849952Y-78025121D01*
X153849950Y-78025123D01*
X153691041Y-78224388D01*
X153563608Y-78445109D01*
X153470492Y-78682362D01*
X153470490Y-78682369D01*
X153413777Y-78930845D01*
X153394732Y-79184995D01*
X153394732Y-79185004D01*
X153413777Y-79439154D01*
X153469095Y-79681519D01*
X153470492Y-79687637D01*
X153532545Y-79845745D01*
X153563608Y-79924890D01*
X153582125Y-79956962D01*
X153633306Y-80045612D01*
X153691043Y-80145615D01*
X153780013Y-80257181D01*
X153806422Y-80321867D01*
X153793665Y-80390563D01*
X153770748Y-80422173D01*
X153720184Y-80472737D01*
X153624211Y-80625476D01*
X153564631Y-80795745D01*
X153564630Y-80795750D01*
X153549500Y-80930039D01*
X153549500Y-81484953D01*
X153529815Y-81551992D01*
X153513181Y-81572634D01*
X153258036Y-81827778D01*
X153137713Y-81993388D01*
X153091246Y-82084585D01*
X153091245Y-82084584D01*
X153044779Y-82175781D01*
X153017990Y-82258232D01*
X152986026Y-82356608D01*
X152986025Y-82356612D01*
X152981522Y-82370468D01*
X152949500Y-82572648D01*
X152949500Y-85330683D01*
X152929815Y-85397722D01*
X152903755Y-85426871D01*
X152847154Y-85472918D01*
X152655692Y-85677925D01*
X152655692Y-85677926D01*
X152655689Y-85677928D01*
X152655688Y-85677931D01*
X152629580Y-85714918D01*
X152493919Y-85907103D01*
X152364863Y-86156171D01*
X152270926Y-86420483D01*
X152270921Y-86420500D01*
X152213852Y-86695135D01*
X152213851Y-86695137D01*
X152194709Y-86975000D01*
X152213851Y-87254862D01*
X152213852Y-87254864D01*
X152270921Y-87529499D01*
X152270926Y-87529516D01*
X152329323Y-87693828D01*
X152364864Y-87793830D01*
X152493919Y-88042896D01*
X152655688Y-88272069D01*
X152847155Y-88477081D01*
X153003755Y-88604484D01*
X153043335Y-88662059D01*
X153049500Y-88700671D01*
X153049500Y-91927374D01*
X153029815Y-91994413D01*
X152977011Y-92040168D01*
X152907853Y-92050112D01*
X152844297Y-92021087D01*
X152837819Y-92015055D01*
X149482076Y-88659312D01*
X149482074Y-88659310D01*
X149329199Y-88548240D01*
X149160836Y-88462454D01*
X148981118Y-88404059D01*
X148794486Y-88374500D01*
X148794481Y-88374500D01*
X148740357Y-88374500D01*
X148673318Y-88354815D01*
X148627563Y-88302011D01*
X148617619Y-88232853D01*
X148642524Y-88175991D01*
X148641869Y-88175529D01*
X148644128Y-88172327D01*
X148644161Y-88172254D01*
X148644303Y-88172078D01*
X148644312Y-88172069D01*
X148806081Y-87942896D01*
X148935136Y-87693830D01*
X149029075Y-87429511D01*
X149029076Y-87429504D01*
X149029078Y-87429499D01*
X149065367Y-87254864D01*
X149086148Y-87154862D01*
X149105291Y-86875000D01*
X149086148Y-86595138D01*
X149049858Y-86420500D01*
X149029078Y-86320500D01*
X149029073Y-86320483D01*
X148935136Y-86056171D01*
X148935136Y-86056170D01*
X148806081Y-85807104D01*
X148644312Y-85577931D01*
X148644307Y-85577925D01*
X148452845Y-85372918D01*
X148396245Y-85326871D01*
X148356664Y-85269294D01*
X148350500Y-85230683D01*
X148350500Y-82587289D01*
X148370185Y-82520250D01*
X148408529Y-82482295D01*
X148420898Y-82474523D01*
X148452262Y-82454816D01*
X148579816Y-82327262D01*
X148675789Y-82174522D01*
X148735368Y-82004255D01*
X148736593Y-81993389D01*
X148750499Y-81869960D01*
X148750500Y-81869956D01*
X148750500Y-80051252D01*
X148770185Y-79984213D01*
X148822989Y-79938458D01*
X148892147Y-79928514D01*
X148955030Y-79956961D01*
X148985821Y-79983259D01*
X148985823Y-79983260D01*
X148985824Y-79983261D01*
X148985826Y-79983262D01*
X149193910Y-80110777D01*
X149419381Y-80204169D01*
X149419378Y-80204169D01*
X149419384Y-80204170D01*
X149419388Y-80204172D01*
X149656698Y-80261146D01*
X149900000Y-80280294D01*
X150143302Y-80261146D01*
X150380612Y-80204172D01*
X150606089Y-80110777D01*
X150814179Y-79983259D01*
X150999759Y-79824759D01*
X151158259Y-79639179D01*
X151285777Y-79431089D01*
X151379172Y-79205612D01*
X151436146Y-78968302D01*
X151455294Y-78725000D01*
X151436146Y-78481698D01*
X151379172Y-78244388D01*
X151370888Y-78224388D01*
X151285777Y-78018910D01*
X151158262Y-77810826D01*
X151158261Y-77810823D01*
X151110222Y-77754577D01*
X150999759Y-77625241D01*
X150877063Y-77520449D01*
X150814176Y-77466738D01*
X150814173Y-77466737D01*
X150606089Y-77339222D01*
X150380618Y-77245830D01*
X150380621Y-77245830D01*
X150143303Y-77188854D01*
X149946740Y-77173384D01*
X149881452Y-77148500D01*
X149868789Y-77137447D01*
X149116930Y-76385588D01*
X149116928Y-76385586D01*
X148976788Y-76283768D01*
X148822445Y-76205127D01*
X148657701Y-76151598D01*
X148657699Y-76151597D01*
X148657698Y-76151597D01*
X148526271Y-76130781D01*
X148486611Y-76124500D01*
X148486610Y-76124500D01*
X148407117Y-76124500D01*
X148340078Y-76104815D01*
X148310169Y-76077812D01*
X148300051Y-76065124D01*
X148113217Y-75891768D01*
X148074133Y-75865121D01*
X147902634Y-75748195D01*
X147902630Y-75748193D01*
X147902627Y-75748191D01*
X147902626Y-75748190D01*
X147673006Y-75637612D01*
X147673008Y-75637612D01*
X147429466Y-75562489D01*
X147429462Y-75562488D01*
X147429458Y-75562487D01*
X147308231Y-75544214D01*
X147177440Y-75524500D01*
X147177435Y-75524500D01*
X146922565Y-75524500D01*
X146922559Y-75524500D01*
X146765609Y-75548157D01*
X146670542Y-75562487D01*
X146670539Y-75562488D01*
X146670533Y-75562489D01*
X146426992Y-75637612D01*
X146197373Y-75748190D01*
X146197372Y-75748191D01*
X145986782Y-75891768D01*
X145799952Y-76065121D01*
X145799950Y-76065123D01*
X145641041Y-76264388D01*
X145513608Y-76485109D01*
X145420492Y-76722362D01*
X145420490Y-76722369D01*
X145363777Y-76970845D01*
X145344732Y-77224995D01*
X145344732Y-77225004D01*
X145363777Y-77479154D01*
X145416148Y-77708607D01*
X145420492Y-77727637D01*
X145513607Y-77964888D01*
X145641041Y-78185612D01*
X145799950Y-78384877D01*
X145986783Y-78558232D01*
X146197366Y-78701805D01*
X146197371Y-78701807D01*
X146197372Y-78701808D01*
X146197373Y-78701809D01*
X146302334Y-78752355D01*
X146426992Y-78812387D01*
X146426993Y-78812387D01*
X146426996Y-78812389D01*
X146670542Y-78887513D01*
X146922565Y-78925500D01*
X147177435Y-78925500D01*
X147429458Y-78887513D01*
X147673004Y-78812389D01*
X147902634Y-78701805D01*
X148066193Y-78590292D01*
X148132671Y-78568793D01*
X148200221Y-78586647D01*
X148223724Y-78605066D01*
X148312447Y-78693789D01*
X148345932Y-78755112D01*
X148348384Y-78771740D01*
X148363854Y-78968302D01*
X148363855Y-78968305D01*
X148403407Y-79133051D01*
X148399916Y-79202833D01*
X148359253Y-79259651D01*
X148294326Y-79285464D01*
X148241879Y-79279040D01*
X148129257Y-79239632D01*
X148129249Y-79239630D01*
X147994960Y-79224500D01*
X147994954Y-79224500D01*
X146105046Y-79224500D01*
X146105039Y-79224500D01*
X145970750Y-79239630D01*
X145970745Y-79239631D01*
X145800476Y-79299211D01*
X145647737Y-79395184D01*
X145520184Y-79522737D01*
X145424211Y-79675476D01*
X145364631Y-79845745D01*
X145364630Y-79845750D01*
X145349500Y-79980039D01*
X145349500Y-81869960D01*
X145364630Y-82004249D01*
X145364631Y-82004254D01*
X145424211Y-82174523D01*
X145520184Y-82327262D01*
X145647737Y-82454815D01*
X145647740Y-82454817D01*
X145691471Y-82482295D01*
X145737763Y-82534629D01*
X145749500Y-82587289D01*
X145749500Y-85230683D01*
X145729815Y-85297722D01*
X145703755Y-85326871D01*
X145647154Y-85372918D01*
X145455692Y-85577925D01*
X145455692Y-85577926D01*
X145455689Y-85577928D01*
X145455688Y-85577931D01*
X145424799Y-85621691D01*
X145293919Y-85807103D01*
X145164863Y-86056171D01*
X145070926Y-86320483D01*
X145070921Y-86320500D01*
X145013852Y-86595135D01*
X145013851Y-86595137D01*
X144994709Y-86875000D01*
X145013851Y-87154862D01*
X145013852Y-87154864D01*
X145070921Y-87429499D01*
X145070926Y-87429516D01*
X145164863Y-87693828D01*
X145164864Y-87693830D01*
X145293919Y-87942896D01*
X145455688Y-88172069D01*
X145647155Y-88377081D01*
X145647160Y-88377085D01*
X145647161Y-88377086D01*
X145703754Y-88423127D01*
X145743335Y-88480704D01*
X145749500Y-88519316D01*
X145749500Y-88726372D01*
X145731228Y-88791161D01*
X145714221Y-88818912D01*
X145620830Y-89044380D01*
X145563853Y-89281702D01*
X145544706Y-89525000D01*
X145563853Y-89768297D01*
X145620830Y-90005619D01*
X145714222Y-90231089D01*
X145717056Y-90235713D01*
X145735298Y-90303159D01*
X145714181Y-90369761D01*
X145660408Y-90414373D01*
X145611327Y-90424500D01*
X143493600Y-90424500D01*
X143426561Y-90404815D01*
X143405919Y-90388181D01*
X142686819Y-89669081D01*
X142653334Y-89607758D01*
X142650500Y-89581400D01*
X142650500Y-86681258D01*
X142670185Y-86614219D01*
X142692742Y-86588029D01*
X142694150Y-86586793D01*
X142730189Y-86555189D01*
X142929025Y-86328461D01*
X143096566Y-86077718D01*
X143229945Y-85807252D01*
X143326880Y-85521691D01*
X143385713Y-85225920D01*
X143405436Y-84925000D01*
X143385713Y-84624080D01*
X143326880Y-84328309D01*
X143229945Y-84042748D01*
X143169158Y-83919485D01*
X143096568Y-83772286D01*
X143096564Y-83772279D01*
X142929026Y-83521540D01*
X142730189Y-83294810D01*
X142503459Y-83095973D01*
X142252720Y-82928435D01*
X142252713Y-82928431D01*
X141982268Y-82795062D01*
X141982247Y-82795053D01*
X141696698Y-82698122D01*
X141696692Y-82698120D01*
X141696691Y-82698120D01*
X141696689Y-82698119D01*
X141696683Y-82698118D01*
X141400930Y-82639288D01*
X141400921Y-82639287D01*
X141400920Y-82639287D01*
X141100000Y-82619564D01*
X140799080Y-82639287D01*
X140799079Y-82639287D01*
X140799069Y-82639288D01*
X140503316Y-82698118D01*
X140503301Y-82698122D01*
X140217752Y-82795053D01*
X140217731Y-82795062D01*
X139947286Y-82928431D01*
X139947279Y-82928435D01*
X139696540Y-83095973D01*
X139469810Y-83294810D01*
X139270973Y-83521540D01*
X139103435Y-83772279D01*
X139103431Y-83772286D01*
X138970062Y-84042731D01*
X138970053Y-84042752D01*
X138873122Y-84328301D01*
X138873118Y-84328316D01*
X138814288Y-84624069D01*
X138814287Y-84624079D01*
X138814287Y-84624080D01*
X138807733Y-84724080D01*
X138794564Y-84925000D01*
X138814287Y-85225918D01*
X138814288Y-85225930D01*
X138873118Y-85521683D01*
X138873122Y-85521698D01*
X138970053Y-85807247D01*
X138970062Y-85807268D01*
X139103431Y-86077713D01*
X139103435Y-86077720D01*
X139270973Y-86328459D01*
X139270975Y-86328461D01*
X139469811Y-86555189D01*
X139469818Y-86555195D01*
X139507258Y-86588029D01*
X139544683Y-86647031D01*
X139549500Y-86681258D01*
X139549500Y-90152973D01*
X139549500Y-90397027D01*
X139587679Y-90638076D01*
X139663096Y-90870185D01*
X139755397Y-91051337D01*
X139773896Y-91087642D01*
X139917339Y-91285076D01*
X139917343Y-91285081D01*
X141295081Y-92662819D01*
X141328566Y-92724142D01*
X141323582Y-92793834D01*
X141281710Y-92849767D01*
X141216246Y-92874184D01*
X141207400Y-92874500D01*
X137498625Y-92874500D01*
X137431586Y-92854815D01*
X137410944Y-92838181D01*
X136286819Y-91714055D01*
X136253334Y-91652732D01*
X136250500Y-91626374D01*
X136250500Y-88600671D01*
X136270185Y-88533632D01*
X136296242Y-88504485D01*
X136452845Y-88377081D01*
X136644312Y-88172069D01*
X136806081Y-87942896D01*
X136935136Y-87693830D01*
X137029075Y-87429511D01*
X137029076Y-87429504D01*
X137029078Y-87429499D01*
X137065367Y-87254864D01*
X137086148Y-87154862D01*
X137105291Y-86875000D01*
X137086148Y-86595138D01*
X137049858Y-86420500D01*
X137029078Y-86320500D01*
X137029073Y-86320483D01*
X136935136Y-86056171D01*
X136935136Y-86056170D01*
X136806081Y-85807104D01*
X136644312Y-85577931D01*
X136644307Y-85577925D01*
X136452845Y-85372919D01*
X136296245Y-85245515D01*
X136256665Y-85187938D01*
X136250500Y-85149327D01*
X136250500Y-85123626D01*
X136270185Y-85056587D01*
X136286819Y-85035945D01*
X136397764Y-84925000D01*
X136715690Y-84607074D01*
X136826760Y-84454199D01*
X136912547Y-84285832D01*
X136970940Y-84106118D01*
X137000500Y-83919482D01*
X137000500Y-83730519D01*
X137000500Y-83350123D01*
X137020185Y-83283084D01*
X137058524Y-83245132D01*
X137202262Y-83154816D01*
X137329816Y-83027262D01*
X137357559Y-82983108D01*
X137409893Y-82936817D01*
X137447630Y-82926836D01*
X137447540Y-82926262D01*
X137452351Y-82925500D01*
X137452352Y-82925500D01*
X137654535Y-82893477D01*
X137785914Y-82850789D01*
X137849219Y-82830220D01*
X137952978Y-82777352D01*
X138031611Y-82737287D01*
X138197219Y-82616966D01*
X138406620Y-82407563D01*
X138467939Y-82374081D01*
X138537631Y-82379065D01*
X138564146Y-82392792D01*
X138577366Y-82401805D01*
X138577369Y-82401806D01*
X138577373Y-82401809D01*
X138699328Y-82460538D01*
X138806992Y-82512387D01*
X138806993Y-82512387D01*
X138806996Y-82512389D01*
X139050542Y-82587513D01*
X139302565Y-82625500D01*
X139557435Y-82625500D01*
X139809458Y-82587513D01*
X140053004Y-82512389D01*
X140282634Y-82401805D01*
X140493217Y-82258232D01*
X140680050Y-82084877D01*
X140838959Y-81885612D01*
X140966393Y-81664888D01*
X141059508Y-81427637D01*
X141116222Y-81179157D01*
X141124762Y-81065201D01*
X141135268Y-80925004D01*
X141135268Y-80924995D01*
X141116222Y-80670845D01*
X141105867Y-80625478D01*
X141059508Y-80422363D01*
X140966393Y-80185112D01*
X140838959Y-79964388D01*
X140680050Y-79765123D01*
X140493217Y-79591768D01*
X140282634Y-79448195D01*
X140282630Y-79448193D01*
X140282627Y-79448191D01*
X140282626Y-79448190D01*
X140053006Y-79337612D01*
X140053008Y-79337612D01*
X139809466Y-79262489D01*
X139809462Y-79262488D01*
X139809458Y-79262487D01*
X139654538Y-79239136D01*
X139552847Y-79223808D01*
X139553074Y-79222300D01*
X139493895Y-79199986D01*
X139452224Y-79143903D01*
X139447489Y-79074194D01*
X139480877Y-79013306D01*
X139541830Y-78952353D01*
X139603151Y-78918870D01*
X139611008Y-78917424D01*
X139809458Y-78887513D01*
X140053004Y-78812389D01*
X140282634Y-78701805D01*
X140493217Y-78558232D01*
X140680050Y-78384877D01*
X140838959Y-78185612D01*
X140966393Y-77964888D01*
X141059508Y-77727637D01*
X141116222Y-77479157D01*
X141126708Y-77339223D01*
X141135268Y-77225004D01*
X141135268Y-77224995D01*
X141118038Y-76995072D01*
X141116222Y-76970843D01*
X141059508Y-76722363D01*
X140966393Y-76485112D01*
X140838959Y-76264388D01*
X140680050Y-76065123D01*
X140493217Y-75891768D01*
X140282634Y-75748195D01*
X140282630Y-75748193D01*
X140282627Y-75748191D01*
X140282626Y-75748190D01*
X140053006Y-75637612D01*
X140053008Y-75637612D01*
X139809466Y-75562489D01*
X139809462Y-75562488D01*
X139809458Y-75562487D01*
X139688231Y-75544214D01*
X139557440Y-75524500D01*
X139557435Y-75524500D01*
X139302565Y-75524500D01*
X139302559Y-75524500D01*
X139145609Y-75548157D01*
X139050542Y-75562487D01*
X139050539Y-75562488D01*
X139050533Y-75562489D01*
X138806992Y-75637612D01*
X138577373Y-75748190D01*
X138577372Y-75748191D01*
X138366782Y-75891768D01*
X138179952Y-76065121D01*
X138179950Y-76065123D01*
X138021041Y-76264388D01*
X137893608Y-76485109D01*
X137800492Y-76722362D01*
X137800489Y-76722371D01*
X137743777Y-76970844D01*
X137743776Y-76970856D01*
X137739018Y-77034353D01*
X137714379Y-77099734D01*
X137703046Y-77112768D01*
X137067634Y-77748181D01*
X137006311Y-77781666D01*
X136979953Y-77784500D01*
X136947161Y-77784500D01*
X136880122Y-77764815D01*
X136866919Y-77754577D01*
X136866850Y-77754664D01*
X136863230Y-77751778D01*
X136863221Y-77751772D01*
X136863217Y-77751768D01*
X136652634Y-77608195D01*
X136652630Y-77608193D01*
X136652627Y-77608191D01*
X136652626Y-77608190D01*
X136423006Y-77497612D01*
X136423008Y-77497612D01*
X136179466Y-77422489D01*
X136179462Y-77422488D01*
X136179458Y-77422487D01*
X136058231Y-77404214D01*
X135927440Y-77384500D01*
X135927435Y-77384500D01*
X135672565Y-77384500D01*
X135672559Y-77384500D01*
X135515609Y-77408157D01*
X135420542Y-77422487D01*
X135420539Y-77422488D01*
X135420533Y-77422489D01*
X135176992Y-77497612D01*
X134947373Y-77608190D01*
X134947372Y-77608191D01*
X134736782Y-77751768D01*
X134549952Y-77925121D01*
X134549950Y-77925123D01*
X134391041Y-78124388D01*
X134263608Y-78345109D01*
X134170492Y-78582362D01*
X134170490Y-78582369D01*
X134113777Y-78830845D01*
X134094732Y-79084995D01*
X134094732Y-79085004D01*
X134113777Y-79339154D01*
X134164751Y-79562487D01*
X134170492Y-79587637D01*
X134263556Y-79824759D01*
X134263608Y-79824890D01*
X134364062Y-79998883D01*
X134380535Y-80066784D01*
X134357682Y-80132810D01*
X134344357Y-80148563D01*
X134270185Y-80222736D01*
X134270184Y-80222737D01*
X134174211Y-80375476D01*
X134114631Y-80545745D01*
X134114630Y-80545750D01*
X134099500Y-80680039D01*
X134099500Y-82569960D01*
X134114630Y-82704249D01*
X134114631Y-82704254D01*
X134174211Y-82874523D01*
X134260480Y-83011818D01*
X134270184Y-83027262D01*
X134397738Y-83154816D01*
X134470902Y-83200788D01*
X134496180Y-83216671D01*
X134542471Y-83269006D01*
X134553119Y-83338059D01*
X134524744Y-83401908D01*
X134517889Y-83409346D01*
X134134306Y-83792929D01*
X134076657Y-83872279D01*
X134042363Y-83919481D01*
X134037816Y-83925738D01*
X134023240Y-83945799D01*
X133935241Y-84118509D01*
X133933251Y-84117495D01*
X133895218Y-84164690D01*
X133828923Y-84186753D01*
X133761224Y-84169472D01*
X133713615Y-84118334D01*
X133700500Y-84062832D01*
X133700500Y-77082204D01*
X133720185Y-77015165D01*
X133736819Y-76994523D01*
X135819523Y-74911819D01*
X135880846Y-74878334D01*
X135907204Y-74875500D01*
X144086610Y-74875500D01*
X144086611Y-74875500D01*
X144257701Y-74848402D01*
X144422445Y-74794873D01*
X144576788Y-74716232D01*
X144716928Y-74614414D01*
X148587819Y-70743523D01*
X148649142Y-70710038D01*
X148718834Y-70715022D01*
X148774767Y-70756894D01*
X148799184Y-70822358D01*
X148799500Y-70831204D01*
X148799500Y-71730361D01*
X148779815Y-71797400D01*
X148769791Y-71810892D01*
X148641741Y-71960819D01*
X148641739Y-71960823D01*
X148514222Y-72168910D01*
X148420830Y-72394380D01*
X148363853Y-72631702D01*
X148344706Y-72875000D01*
X148363853Y-73118297D01*
X148420830Y-73355619D01*
X148514222Y-73581089D01*
X148641737Y-73789173D01*
X148641738Y-73789176D01*
X148641741Y-73789179D01*
X148800241Y-73974759D01*
X148943897Y-74097453D01*
X148985823Y-74133261D01*
X148985826Y-74133262D01*
X149193910Y-74260777D01*
X149419381Y-74354169D01*
X149419378Y-74354169D01*
X149419384Y-74354170D01*
X149419388Y-74354172D01*
X149656698Y-74411146D01*
X149900000Y-74430294D01*
X150143302Y-74411146D01*
X150380612Y-74354172D01*
X150606089Y-74260777D01*
X150814179Y-74133259D01*
X150999759Y-73974759D01*
X151158259Y-73789179D01*
X151285777Y-73581089D01*
X151379172Y-73355612D01*
X151436146Y-73118302D01*
X151455294Y-72875000D01*
X151436146Y-72631698D01*
X151379172Y-72394388D01*
X151285777Y-72168911D01*
X151285777Y-72168910D01*
X151158260Y-71960823D01*
X151158258Y-71960819D01*
X151030209Y-71810892D01*
X151001639Y-71747131D01*
X151000500Y-71730361D01*
X151000500Y-70253711D01*
X151749500Y-70253711D01*
X151749500Y-70496288D01*
X151781161Y-70736785D01*
X151843947Y-70971104D01*
X151936773Y-71195205D01*
X151936776Y-71195212D01*
X152058064Y-71405289D01*
X152058066Y-71405292D01*
X152058067Y-71405293D01*
X152205733Y-71597736D01*
X152205739Y-71597743D01*
X152377256Y-71769260D01*
X152377262Y-71769265D01*
X152569711Y-71916936D01*
X152779788Y-72038224D01*
X153003900Y-72131054D01*
X153238211Y-72193838D01*
X153418586Y-72217584D01*
X153478711Y-72225500D01*
X153478712Y-72225500D01*
X153721289Y-72225500D01*
X153769388Y-72219167D01*
X153961789Y-72193838D01*
X154196100Y-72131054D01*
X154420212Y-72038224D01*
X154630289Y-71916936D01*
X154822738Y-71769265D01*
X154994265Y-71597738D01*
X155141936Y-71405289D01*
X155263224Y-71195212D01*
X155356054Y-70971100D01*
X155418838Y-70736789D01*
X155450500Y-70496288D01*
X155450500Y-70253712D01*
X155418838Y-70013211D01*
X155356054Y-69778900D01*
X155263224Y-69554788D01*
X155141936Y-69344711D01*
X154994265Y-69152262D01*
X154994260Y-69152256D01*
X154822743Y-68980739D01*
X154822736Y-68980733D01*
X154630293Y-68833067D01*
X154630292Y-68833066D01*
X154630289Y-68833064D01*
X154420212Y-68711776D01*
X154330220Y-68674500D01*
X154196104Y-68618947D01*
X153961785Y-68556161D01*
X153721289Y-68524500D01*
X153721288Y-68524500D01*
X153478712Y-68524500D01*
X153478711Y-68524500D01*
X153238214Y-68556161D01*
X153003895Y-68618947D01*
X152779794Y-68711773D01*
X152779785Y-68711777D01*
X152569706Y-68833067D01*
X152377263Y-68980733D01*
X152377256Y-68980739D01*
X152205739Y-69152256D01*
X152205733Y-69152263D01*
X152058067Y-69344706D01*
X151936777Y-69554785D01*
X151936773Y-69554794D01*
X151843947Y-69778895D01*
X151781161Y-70013214D01*
X151749500Y-70253711D01*
X151000500Y-70253711D01*
X151000500Y-69982204D01*
X151020185Y-69915165D01*
X151036819Y-69894523D01*
X153962319Y-66969023D01*
X154023642Y-66935538D01*
X154093334Y-66940522D01*
G37*
%TD.AperFunction*%
%TA.AperFunction,Conductor*%
G36*
X151412368Y-44295185D02*
G01*
X151458123Y-44347989D01*
X151468067Y-44417147D01*
X151439042Y-44480703D01*
X151415181Y-44501952D01*
X151393195Y-44516942D01*
X151356785Y-44541766D01*
X151356783Y-44541768D01*
X151169950Y-44715123D01*
X151011041Y-44914388D01*
X150999852Y-44933768D01*
X150883608Y-45135109D01*
X150790492Y-45372362D01*
X150790490Y-45372369D01*
X150733777Y-45620845D01*
X150714732Y-45874995D01*
X150714732Y-45875004D01*
X150733777Y-46129154D01*
X150733778Y-46129157D01*
X150790492Y-46377637D01*
X150883607Y-46614888D01*
X151011041Y-46835612D01*
X151150000Y-47009860D01*
X151169950Y-47034877D01*
X151169951Y-47034878D01*
X151182984Y-47046971D01*
X151213203Y-47090412D01*
X151214778Y-47094214D01*
X151214780Y-47094219D01*
X151216673Y-47097934D01*
X151216817Y-47098216D01*
X151216816Y-47098216D01*
X151216818Y-47098219D01*
X151307713Y-47276611D01*
X151428034Y-47442219D01*
X152752781Y-48766966D01*
X152918389Y-48887287D01*
X153007520Y-48932701D01*
X153100780Y-48980220D01*
X153100786Y-48980222D01*
X153151147Y-48996584D01*
X153198121Y-49011847D01*
X153198122Y-49011848D01*
X153222458Y-49019755D01*
X153295465Y-49043477D01*
X153497648Y-49075500D01*
X153702352Y-49075500D01*
X154809953Y-49075500D01*
X154876992Y-49095185D01*
X154897634Y-49111819D01*
X156057997Y-50272181D01*
X156090889Y-50330913D01*
X156120828Y-50455612D01*
X156120829Y-50455616D01*
X156214220Y-50681085D01*
X156214222Y-50681088D01*
X156341737Y-50889173D01*
X156341738Y-50889176D01*
X156341741Y-50889179D01*
X156500241Y-51074759D01*
X156643897Y-51197453D01*
X156685823Y-51233261D01*
X156685826Y-51233262D01*
X156893910Y-51360777D01*
X157119381Y-51454169D01*
X157119378Y-51454169D01*
X157119384Y-51454170D01*
X157119388Y-51454172D01*
X157356698Y-51511146D01*
X157600000Y-51530294D01*
X157843302Y-51511146D01*
X158080612Y-51454172D01*
X158306089Y-51360777D01*
X158514179Y-51233259D01*
X158699759Y-51074759D01*
X158858259Y-50889179D01*
X158985777Y-50681089D01*
X159079172Y-50455612D01*
X159136146Y-50218302D01*
X159155294Y-49975000D01*
X159136146Y-49731698D01*
X159079172Y-49494388D01*
X159076342Y-49487555D01*
X158985777Y-49268910D01*
X158858262Y-49060826D01*
X158858261Y-49060823D01*
X158816431Y-49011847D01*
X158699759Y-48875241D01*
X158572982Y-48766963D01*
X158514176Y-48716738D01*
X158514173Y-48716737D01*
X158306088Y-48589222D01*
X158306085Y-48589220D01*
X158080616Y-48495829D01*
X158080612Y-48495828D01*
X157955913Y-48465889D01*
X157897181Y-48432997D01*
X156247221Y-46783036D01*
X156247220Y-46783035D01*
X156247219Y-46783034D01*
X156081611Y-46662713D01*
X155961665Y-46601598D01*
X155961662Y-46601596D01*
X155899223Y-46569781D01*
X155852515Y-46554604D01*
X155801876Y-46538151D01*
X155778003Y-46530394D01*
X155704535Y-46506522D01*
X155529995Y-46478878D01*
X155502352Y-46474500D01*
X155502351Y-46474500D01*
X154190047Y-46474500D01*
X154123008Y-46454815D01*
X154102366Y-46438181D01*
X154096539Y-46432354D01*
X154063054Y-46371031D01*
X154063328Y-46317083D01*
X154106222Y-46129157D01*
X154125268Y-45875000D01*
X154106222Y-45620843D01*
X154049508Y-45372363D01*
X153956393Y-45135112D01*
X153828959Y-44914388D01*
X153670050Y-44715123D01*
X153483217Y-44541768D01*
X153424819Y-44501953D01*
X153380518Y-44447925D01*
X153372458Y-44378522D01*
X153403201Y-44315779D01*
X153462984Y-44279617D01*
X153494671Y-44275500D01*
X168575500Y-44275500D01*
X168642539Y-44295185D01*
X168688294Y-44347989D01*
X168699500Y-44399500D01*
X168699500Y-73835953D01*
X168679815Y-73902992D01*
X168627011Y-73948747D01*
X168557853Y-73958691D01*
X168494297Y-73929666D01*
X168487819Y-73923634D01*
X167547221Y-72983036D01*
X167547219Y-72983034D01*
X167381611Y-72862713D01*
X167290414Y-72816246D01*
X167199223Y-72769781D01*
X167152515Y-72754604D01*
X167101876Y-72738151D01*
X167078003Y-72730394D01*
X167004535Y-72706522D01*
X166829995Y-72678878D01*
X166802352Y-72674500D01*
X166802351Y-72674500D01*
X165890047Y-72674500D01*
X165823008Y-72654815D01*
X165802366Y-72638181D01*
X157536819Y-64372634D01*
X157503334Y-64311311D01*
X157500500Y-64284953D01*
X157500500Y-55072648D01*
X157468478Y-54870472D01*
X157468477Y-54870471D01*
X157468477Y-54870466D01*
X157465329Y-54860777D01*
X157417773Y-54714414D01*
X157405223Y-54675787D01*
X157405221Y-54675781D01*
X157374624Y-54615733D01*
X157312287Y-54493390D01*
X157288772Y-54461024D01*
X157191966Y-54327781D01*
X157047219Y-54183034D01*
X157047218Y-54183033D01*
X157044107Y-54179922D01*
X157044092Y-54179908D01*
X154784746Y-51920562D01*
X154751261Y-51859239D01*
X154748809Y-51842609D01*
X154736146Y-51681702D01*
X154736146Y-51681698D01*
X154679172Y-51444388D01*
X154679169Y-51444380D01*
X154585777Y-51218910D01*
X154458262Y-51010826D01*
X154458261Y-51010823D01*
X154354367Y-50889179D01*
X154299759Y-50825241D01*
X154146304Y-50694178D01*
X154114176Y-50666738D01*
X154114173Y-50666737D01*
X153906088Y-50539222D01*
X153906085Y-50539220D01*
X153680617Y-50445830D01*
X153680616Y-50445829D01*
X153680612Y-50445828D01*
X153555912Y-50415889D01*
X153497182Y-50382997D01*
X153397221Y-50283036D01*
X153397219Y-50283034D01*
X153231611Y-50162713D01*
X153111665Y-50101598D01*
X153111662Y-50101596D01*
X153049223Y-50069781D01*
X153002515Y-50054604D01*
X152951876Y-50038151D01*
X152928003Y-50030394D01*
X152854535Y-50006522D01*
X152679995Y-49978878D01*
X152652352Y-49974500D01*
X152652351Y-49974500D01*
X152290047Y-49974500D01*
X152223008Y-49954815D01*
X152202366Y-49938181D01*
X148934556Y-46670371D01*
X148901071Y-46609048D01*
X148906055Y-46539356D01*
X148906775Y-46537473D01*
X148969508Y-46377637D01*
X149026222Y-46129157D01*
X149045268Y-45875000D01*
X149026222Y-45620843D01*
X148969508Y-45372363D01*
X148876393Y-45135112D01*
X148748959Y-44914388D01*
X148590050Y-44715123D01*
X148403217Y-44541768D01*
X148344819Y-44501953D01*
X148300518Y-44447925D01*
X148292458Y-44378522D01*
X148323201Y-44315779D01*
X148382984Y-44279617D01*
X148414671Y-44275500D01*
X151345329Y-44275500D01*
X151412368Y-44295185D01*
G37*
%TD.AperFunction*%
%TA.AperFunction,Conductor*%
G36*
X134658807Y-49375046D02*
G01*
X134688360Y-49390911D01*
X134723207Y-49416229D01*
X134723209Y-49416230D01*
X134723212Y-49416232D01*
X134877555Y-49494873D01*
X135042299Y-49548402D01*
X135213389Y-49575500D01*
X135213390Y-49575500D01*
X135386610Y-49575500D01*
X135386611Y-49575500D01*
X135557701Y-49548402D01*
X135603771Y-49533432D01*
X135632350Y-49527747D01*
X135843302Y-49511146D01*
X135926551Y-49491159D01*
X135996334Y-49494648D01*
X136053152Y-49535311D01*
X136078966Y-49600237D01*
X136079500Y-49611732D01*
X136079500Y-50308389D01*
X136079500Y-51088389D01*
X136079500Y-52768389D01*
X136079500Y-52941611D01*
X136106598Y-53112701D01*
X136160127Y-53277445D01*
X136238768Y-53431788D01*
X136340586Y-53571928D01*
X137483072Y-54714414D01*
X137483075Y-54714416D01*
X137583567Y-54787428D01*
X137626233Y-54842758D01*
X137632212Y-54912371D01*
X137611001Y-54960631D01*
X137556129Y-55036155D01*
X137441760Y-55260616D01*
X137363910Y-55500214D01*
X137324500Y-55749038D01*
X137324500Y-56800961D01*
X137363910Y-57049785D01*
X137441760Y-57289383D01*
X137556132Y-57513848D01*
X137704201Y-57717649D01*
X137704205Y-57717654D01*
X137741222Y-57754671D01*
X137764026Y-57786057D01*
X137812713Y-57881611D01*
X137933034Y-58047219D01*
X137933036Y-58047221D01*
X139211034Y-59325219D01*
X139244519Y-59386542D01*
X139239535Y-59456234D01*
X139197663Y-59512167D01*
X139132199Y-59536584D01*
X139113625Y-59536518D01*
X138900000Y-59519706D01*
X138656702Y-59538853D01*
X138419380Y-59595830D01*
X138193910Y-59689222D01*
X137985826Y-59816737D01*
X137985823Y-59816738D01*
X137800241Y-59975241D01*
X137641738Y-60160823D01*
X137641737Y-60160826D01*
X137514222Y-60368910D01*
X137420830Y-60594380D01*
X137363853Y-60831702D01*
X137344706Y-61075000D01*
X137363853Y-61318297D01*
X137420830Y-61555619D01*
X137514222Y-61781089D01*
X137641737Y-61989173D01*
X137641738Y-61989176D01*
X137800244Y-62174762D01*
X137803335Y-62177853D01*
X137836820Y-62239176D01*
X137831836Y-62308868D01*
X137803336Y-62353215D01*
X137704200Y-62452351D01*
X137556132Y-62656151D01*
X137441760Y-62880616D01*
X137363910Y-63120214D01*
X137324500Y-63369038D01*
X137324500Y-64420961D01*
X137363910Y-64669785D01*
X137441760Y-64909383D01*
X137556130Y-65133846D01*
X137576193Y-65161459D01*
X137600817Y-65195352D01*
X137624298Y-65261156D01*
X137624500Y-65268237D01*
X137624500Y-65659953D01*
X137604815Y-65726992D01*
X137588181Y-65747634D01*
X136397634Y-66938181D01*
X136336311Y-66971666D01*
X136309953Y-66974500D01*
X132139045Y-66974500D01*
X132072006Y-66954815D01*
X132026251Y-66902011D01*
X132016307Y-66832853D01*
X132045332Y-66769297D01*
X132051345Y-66762838D01*
X132145154Y-66669028D01*
X132145161Y-66669023D01*
X132152217Y-66661967D01*
X132152219Y-66661966D01*
X132296966Y-66517219D01*
X132357126Y-66434414D01*
X132417287Y-66351611D01*
X132477874Y-66232701D01*
X132510220Y-66169219D01*
X132560519Y-66014414D01*
X132573477Y-65974535D01*
X132592237Y-65856090D01*
X132605500Y-65772352D01*
X132605500Y-65268237D01*
X132625185Y-65201198D01*
X132629168Y-65195370D01*
X132673870Y-65133845D01*
X132788241Y-64909379D01*
X132866090Y-64669785D01*
X132905500Y-64420962D01*
X132905500Y-63369038D01*
X132866090Y-63120215D01*
X132788241Y-62880621D01*
X132788239Y-62880618D01*
X132788239Y-62880616D01*
X132687508Y-62682922D01*
X132673870Y-62656155D01*
X132611368Y-62570128D01*
X132525798Y-62452350D01*
X132525794Y-62452345D01*
X132347654Y-62274205D01*
X132347649Y-62274201D01*
X132143848Y-62126132D01*
X132143847Y-62126131D01*
X132143845Y-62126130D01*
X132024232Y-62065184D01*
X131919383Y-62011760D01*
X131679785Y-61933910D01*
X131573948Y-61917147D01*
X131430962Y-61894500D01*
X131179038Y-61894500D01*
X131054626Y-61914205D01*
X130930214Y-61933910D01*
X130690616Y-62011760D01*
X130466151Y-62126132D01*
X130262350Y-62274201D01*
X130262345Y-62274205D01*
X130122681Y-62413870D01*
X130061358Y-62447355D01*
X129991666Y-62442371D01*
X129947319Y-62413870D01*
X129807654Y-62274205D01*
X129807649Y-62274201D01*
X129603848Y-62126132D01*
X129603847Y-62126131D01*
X129603845Y-62126130D01*
X129484232Y-62065184D01*
X129379383Y-62011760D01*
X129139785Y-61933910D01*
X129033948Y-61917147D01*
X128890962Y-61894500D01*
X128639038Y-61894500D01*
X128514626Y-61914205D01*
X128390214Y-61933910D01*
X128150616Y-62011760D01*
X127926155Y-62126129D01*
X127816097Y-62206091D01*
X127750290Y-62229570D01*
X127682236Y-62213744D01*
X127655530Y-62193453D01*
X127654817Y-62192740D01*
X127654816Y-62192738D01*
X127561818Y-62099740D01*
X127528334Y-62038416D01*
X127525500Y-62012059D01*
X127525500Y-59355219D01*
X127543773Y-59290429D01*
X127545699Y-59287287D01*
X127610777Y-59181089D01*
X127704172Y-58955612D01*
X127761146Y-58718302D01*
X127780294Y-58475000D01*
X127761146Y-58231698D01*
X127749560Y-58183440D01*
X127753051Y-58113659D01*
X127793714Y-58056842D01*
X127858640Y-58031028D01*
X127926427Y-58044008D01*
X128040736Y-58102252D01*
X128150616Y-58158239D01*
X128150618Y-58158239D01*
X128150621Y-58158241D01*
X128390215Y-58236090D01*
X128639038Y-58275500D01*
X128639039Y-58275500D01*
X128890961Y-58275500D01*
X128890962Y-58275500D01*
X129139785Y-58236090D01*
X129379379Y-58158241D01*
X129603845Y-58043870D01*
X129807656Y-57895793D01*
X129947319Y-57756130D01*
X130008642Y-57722645D01*
X130078334Y-57727629D01*
X130122681Y-57756130D01*
X130262345Y-57895794D01*
X130262350Y-57895798D01*
X130426950Y-58015386D01*
X130466155Y-58043870D01*
X130603124Y-58113659D01*
X130690616Y-58158239D01*
X130690618Y-58158239D01*
X130690621Y-58158241D01*
X130930215Y-58236090D01*
X131179038Y-58275500D01*
X131179039Y-58275500D01*
X131430961Y-58275500D01*
X131430962Y-58275500D01*
X131679785Y-58236090D01*
X131919379Y-58158241D01*
X132143845Y-58043870D01*
X132347656Y-57895793D01*
X132525793Y-57717656D01*
X132673870Y-57513845D01*
X132788241Y-57289379D01*
X132866090Y-57049785D01*
X132905500Y-56800962D01*
X132905500Y-55749038D01*
X132866090Y-55500215D01*
X132788241Y-55260621D01*
X132788239Y-55260618D01*
X132788239Y-55260616D01*
X132746747Y-55179184D01*
X132673870Y-55036155D01*
X132667246Y-55027038D01*
X132629182Y-54974646D01*
X132605702Y-54908840D01*
X132605500Y-54901761D01*
X132605500Y-54555219D01*
X132623773Y-54490429D01*
X132667024Y-54419851D01*
X132690777Y-54381089D01*
X132784172Y-54155612D01*
X132841146Y-53918302D01*
X132860294Y-53675000D01*
X132841146Y-53431698D01*
X132784172Y-53194388D01*
X132784169Y-53194380D01*
X132690777Y-52968910D01*
X132563262Y-52760826D01*
X132563261Y-52760823D01*
X132471799Y-52653735D01*
X132404759Y-52575241D01*
X132282063Y-52470449D01*
X132219176Y-52416738D01*
X132219173Y-52416737D01*
X132011089Y-52289222D01*
X131785618Y-52195830D01*
X131785621Y-52195830D01*
X131679992Y-52170470D01*
X131548302Y-52138854D01*
X131548300Y-52138853D01*
X131548297Y-52138853D01*
X131305000Y-52119706D01*
X131061702Y-52138853D01*
X130824380Y-52195830D01*
X130598910Y-52289222D01*
X130390826Y-52416737D01*
X130390823Y-52416738D01*
X130205241Y-52575241D01*
X130083790Y-52717442D01*
X130025283Y-52755635D01*
X129955415Y-52756133D01*
X129896369Y-52718780D01*
X129866891Y-52655433D01*
X129865500Y-52636910D01*
X129865500Y-50417204D01*
X129885185Y-50350165D01*
X129901819Y-50329523D01*
X130419523Y-49811819D01*
X130480846Y-49778334D01*
X130507204Y-49775500D01*
X133786610Y-49775500D01*
X133786611Y-49775500D01*
X133957701Y-49748402D01*
X134122445Y-49694873D01*
X134276788Y-49616232D01*
X134416928Y-49514414D01*
X134527795Y-49403546D01*
X134589115Y-49370062D01*
X134658807Y-49375046D01*
G37*
%TD.AperFunction*%
%TD*%
%TA.AperFunction,NonConductor*%
G36*
X146332368Y-44295185D02*
G01*
X146378123Y-44347989D01*
X146388067Y-44417147D01*
X146359042Y-44480703D01*
X146335181Y-44501952D01*
X146313195Y-44516942D01*
X146276785Y-44541766D01*
X146154341Y-44655377D01*
X146091808Y-44686545D01*
X146022352Y-44678958D01*
X145985659Y-44655377D01*
X145969276Y-44640176D01*
X145863217Y-44541768D01*
X145804819Y-44501953D01*
X145760518Y-44447925D01*
X145752458Y-44378522D01*
X145783201Y-44315779D01*
X145842984Y-44279617D01*
X145874671Y-44275500D01*
X146265329Y-44275500D01*
X146332368Y-44295185D01*
G37*
%TD.AperFunction*%
%TA.AperFunction,NonConductor*%
G36*
X143792368Y-44295185D02*
G01*
X143838123Y-44347989D01*
X143848067Y-44417147D01*
X143819042Y-44480703D01*
X143795181Y-44501952D01*
X143773195Y-44516942D01*
X143736785Y-44541766D01*
X143614341Y-44655377D01*
X143551808Y-44686545D01*
X143482352Y-44678958D01*
X143445659Y-44655377D01*
X143429276Y-44640176D01*
X143323217Y-44541768D01*
X143264819Y-44501953D01*
X143220518Y-44447925D01*
X143212458Y-44378522D01*
X143243201Y-44315779D01*
X143302984Y-44279617D01*
X143334671Y-44275500D01*
X143725329Y-44275500D01*
X143792368Y-44295185D01*
G37*
%TD.AperFunction*%
%TA.AperFunction,NonConductor*%
G36*
X141252368Y-44295185D02*
G01*
X141298123Y-44347989D01*
X141308067Y-44417147D01*
X141279042Y-44480703D01*
X141255181Y-44501952D01*
X141233195Y-44516942D01*
X141196785Y-44541766D01*
X141074341Y-44655377D01*
X141011808Y-44686545D01*
X140942352Y-44678958D01*
X140905659Y-44655377D01*
X140889276Y-44640176D01*
X140783217Y-44541768D01*
X140724819Y-44501953D01*
X140680518Y-44447925D01*
X140672458Y-44378522D01*
X140703201Y-44315779D01*
X140762984Y-44279617D01*
X140794671Y-44275500D01*
X141185329Y-44275500D01*
X141252368Y-44295185D01*
G37*
%TD.AperFunction*%
%TA.AperFunction,NonConductor*%
G36*
X138712368Y-44295185D02*
G01*
X138758123Y-44347989D01*
X138768067Y-44417147D01*
X138739042Y-44480703D01*
X138715181Y-44501952D01*
X138693195Y-44516942D01*
X138656785Y-44541766D01*
X138534341Y-44655377D01*
X138471808Y-44686545D01*
X138402352Y-44678958D01*
X138365659Y-44655377D01*
X138349276Y-44640176D01*
X138243217Y-44541768D01*
X138184819Y-44501953D01*
X138140518Y-44447925D01*
X138132458Y-44378522D01*
X138163201Y-44315779D01*
X138222984Y-44279617D01*
X138254671Y-44275500D01*
X138645329Y-44275500D01*
X138712368Y-44295185D01*
G37*
%TD.AperFunction*%
%TA.AperFunction,NonConductor*%
G36*
X136172368Y-44295185D02*
G01*
X136218123Y-44347989D01*
X136228067Y-44417147D01*
X136199042Y-44480703D01*
X136175181Y-44501952D01*
X136153195Y-44516942D01*
X136116785Y-44541766D01*
X135994341Y-44655377D01*
X135931808Y-44686545D01*
X135862352Y-44678958D01*
X135825659Y-44655377D01*
X135809276Y-44640176D01*
X135703217Y-44541768D01*
X135644819Y-44501953D01*
X135600518Y-44447925D01*
X135592458Y-44378522D01*
X135623201Y-44315779D01*
X135682984Y-44279617D01*
X135714671Y-44275500D01*
X136105329Y-44275500D01*
X136172368Y-44295185D01*
G37*
%TD.AperFunction*%
%TA.AperFunction,NonConductor*%
G36*
X133632368Y-44295185D02*
G01*
X133678123Y-44347989D01*
X133688067Y-44417147D01*
X133659042Y-44480703D01*
X133635181Y-44501952D01*
X133613195Y-44516942D01*
X133576785Y-44541766D01*
X133454341Y-44655377D01*
X133391808Y-44686545D01*
X133322352Y-44678958D01*
X133285659Y-44655377D01*
X133269276Y-44640176D01*
X133163217Y-44541768D01*
X133104819Y-44501953D01*
X133060518Y-44447925D01*
X133052458Y-44378522D01*
X133083201Y-44315779D01*
X133142984Y-44279617D01*
X133174671Y-44275500D01*
X133565329Y-44275500D01*
X133632368Y-44295185D01*
G37*
%TD.AperFunction*%
%TA.AperFunction,NonConductor*%
G36*
X142359835Y-50595185D02*
G01*
X142380477Y-50611819D01*
X143722351Y-51953693D01*
X143755836Y-52015016D01*
X143750852Y-52084708D01*
X143708980Y-52140641D01*
X143699461Y-52147101D01*
X143585822Y-52216740D01*
X143400241Y-52375241D01*
X143241740Y-52560822D01*
X143203578Y-52623096D01*
X143151765Y-52669971D01*
X143082836Y-52681393D01*
X143018673Y-52653735D01*
X143010170Y-52645986D01*
X142223423Y-51859239D01*
X141347219Y-50983034D01*
X141181611Y-50862713D01*
X141079941Y-50810910D01*
X141079938Y-50810908D01*
X141079932Y-50810902D01*
X141079931Y-50810905D01*
X141078116Y-50809980D01*
X141027324Y-50762001D01*
X141010535Y-50694178D01*
X141033079Y-50628045D01*
X141087798Y-50584599D01*
X141134421Y-50575500D01*
X142292796Y-50575500D01*
X142359835Y-50595185D01*
G37*
%TD.AperFunction*%
%TA.AperFunction,NonConductor*%
G36*
X128110835Y-48795185D02*
G01*
X128156590Y-48847989D01*
X128166534Y-48917147D01*
X128137509Y-48980703D01*
X128131477Y-48987181D01*
X127925588Y-49193069D01*
X127925588Y-49193070D01*
X127925586Y-49193072D01*
X127881859Y-49253256D01*
X127823768Y-49333211D01*
X127745128Y-49487552D01*
X127691597Y-49652302D01*
X127664500Y-49823389D01*
X127664500Y-54660689D01*
X127644815Y-54727728D01*
X127628181Y-54748370D01*
X127582681Y-54793870D01*
X127521358Y-54827355D01*
X127451666Y-54822371D01*
X127407319Y-54793870D01*
X127267654Y-54654205D01*
X127267649Y-54654201D01*
X127063848Y-54506132D01*
X127063847Y-54506131D01*
X127063845Y-54506130D01*
X126993747Y-54470413D01*
X126839383Y-54391760D01*
X126599785Y-54313910D01*
X126489674Y-54296470D01*
X126350962Y-54274500D01*
X126099038Y-54274500D01*
X125974626Y-54294205D01*
X125850214Y-54313910D01*
X125807515Y-54327784D01*
X125610621Y-54391759D01*
X125610618Y-54391760D01*
X125610613Y-54391762D01*
X125580792Y-54406956D01*
X125512123Y-54419851D01*
X125447383Y-54393573D01*
X125407127Y-54336466D01*
X125400500Y-54296470D01*
X125400500Y-50182204D01*
X125420185Y-50115165D01*
X125436819Y-50094523D01*
X126719523Y-48811819D01*
X126780846Y-48778334D01*
X126807204Y-48775500D01*
X128043796Y-48775500D01*
X128110835Y-48795185D01*
G37*
%TD.AperFunction*%
%TA.AperFunction,NonConductor*%
G36*
X142434818Y-58048517D02*
G01*
X142479475Y-58102252D01*
X142487992Y-58171600D01*
X142486218Y-58180375D01*
X142468853Y-58252704D01*
X142468853Y-58252706D01*
X142449706Y-58496006D01*
X142456608Y-58583715D01*
X142442243Y-58652093D01*
X142393191Y-58701849D01*
X142325026Y-58717187D01*
X142259389Y-58693237D01*
X142245309Y-58681124D01*
X141953046Y-58388861D01*
X141919561Y-58327538D01*
X141924545Y-58257846D01*
X141966417Y-58201913D01*
X142002405Y-58183251D01*
X142079379Y-58158241D01*
X142303845Y-58043870D01*
X142303845Y-58043869D01*
X142308186Y-58041658D01*
X142309118Y-58043488D01*
X142368198Y-58027455D01*
X142434818Y-58048517D01*
G37*
%TD.AperFunction*%
%TA.AperFunction,NonConductor*%
G36*
X145810703Y-56625333D02*
G01*
X145817181Y-56631365D01*
X147863181Y-58677365D01*
X147896666Y-58738688D01*
X147899500Y-58765046D01*
X147899500Y-60235953D01*
X147879815Y-60302992D01*
X147827011Y-60348747D01*
X147757853Y-60358691D01*
X147694297Y-60329666D01*
X147687819Y-60323634D01*
X146847221Y-59483036D01*
X146847219Y-59483034D01*
X146714409Y-59386542D01*
X146681609Y-59362711D01*
X146533578Y-59287287D01*
X146533577Y-59287286D01*
X146516725Y-59278699D01*
X146499219Y-59269780D01*
X146401876Y-59238151D01*
X146378003Y-59230394D01*
X146304535Y-59206522D01*
X146129995Y-59178878D01*
X146102352Y-59174500D01*
X146102351Y-59174500D01*
X145587785Y-59174500D01*
X145520746Y-59154815D01*
X145474991Y-59102011D01*
X145465047Y-59032853D01*
X145473221Y-59003054D01*
X145484172Y-58976618D01*
X145541146Y-58739308D01*
X145560294Y-58496006D01*
X145541146Y-58252704D01*
X145484172Y-58015394D01*
X145390777Y-57789917D01*
X145346496Y-57717656D01*
X145334560Y-57698178D01*
X145316316Y-57630732D01*
X145337433Y-57564130D01*
X145339954Y-57560525D01*
X145373870Y-57513845D01*
X145488241Y-57289379D01*
X145566090Y-57049785D01*
X145605500Y-56800962D01*
X145605500Y-56719046D01*
X145625185Y-56652007D01*
X145677989Y-56606252D01*
X145747147Y-56596308D01*
X145810703Y-56625333D01*
G37*
%TD.AperFunction*%
%TA.AperFunction,NonConductor*%
G36*
X143404846Y-61795185D02*
G01*
X143450601Y-61847989D01*
X143460545Y-61917147D01*
X143431520Y-61980703D01*
X143394102Y-62009985D01*
X143166151Y-62126132D01*
X142962350Y-62274201D01*
X142962345Y-62274205D01*
X142877181Y-62359370D01*
X142815858Y-62392855D01*
X142746166Y-62387871D01*
X142690233Y-62345999D01*
X142665816Y-62280535D01*
X142665500Y-62271689D01*
X142665500Y-62145513D01*
X142644034Y-62009985D01*
X142635940Y-61958882D01*
X142635938Y-61958877D01*
X142635938Y-61958874D01*
X142629097Y-61937820D01*
X142627100Y-61867979D01*
X142663180Y-61808146D01*
X142725880Y-61777317D01*
X142747027Y-61775500D01*
X143337807Y-61775500D01*
X143404846Y-61795185D01*
G37*
%TD.AperFunction*%
%TA.AperFunction,NonConductor*%
G36*
X123853423Y-62562343D02*
G01*
X124056698Y-62611146D01*
X124300000Y-62630294D01*
X124490775Y-62615279D01*
X124559148Y-62629643D01*
X124608905Y-62678694D01*
X124624500Y-62738897D01*
X124624500Y-64850500D01*
X124604815Y-64917539D01*
X124552011Y-64963294D01*
X124500500Y-64974500D01*
X124007204Y-64974500D01*
X123940165Y-64954815D01*
X123919523Y-64938181D01*
X123736819Y-64755477D01*
X123703334Y-64694154D01*
X123700500Y-64667796D01*
X123700500Y-62682922D01*
X123720185Y-62615883D01*
X123772989Y-62570128D01*
X123842147Y-62560184D01*
X123853423Y-62562343D01*
G37*
%TD.AperFunction*%
%TA.AperFunction,NonConductor*%
G36*
X131092368Y-44295185D02*
G01*
X131138123Y-44347989D01*
X131148067Y-44417147D01*
X131119042Y-44480703D01*
X131095181Y-44501952D01*
X131073195Y-44516942D01*
X131036785Y-44541766D01*
X130849948Y-44715124D01*
X130839831Y-44727812D01*
X130782642Y-44767953D01*
X130742883Y-44774500D01*
X124613389Y-44774500D01*
X124573728Y-44780781D01*
X124442302Y-44801597D01*
X124277552Y-44855128D01*
X124161248Y-44914388D01*
X124161247Y-44914387D01*
X124123215Y-44933766D01*
X124123207Y-44933770D01*
X124018232Y-45010040D01*
X123983072Y-45035586D01*
X123983070Y-45035588D01*
X123983069Y-45035588D01*
X121760588Y-47258069D01*
X121760588Y-47258070D01*
X121760586Y-47258072D01*
X121752711Y-47268911D01*
X121658768Y-47398211D01*
X121580128Y-47552552D01*
X121526597Y-47717302D01*
X121499500Y-47888389D01*
X121499500Y-66367795D01*
X121479815Y-66434834D01*
X121463181Y-66455476D01*
X121131209Y-66787447D01*
X121069886Y-66820932D01*
X121053253Y-66823384D01*
X121031835Y-66825069D01*
X120963458Y-66810703D01*
X120913703Y-66761650D01*
X120898366Y-66693485D01*
X120904178Y-66663137D01*
X120912321Y-66638076D01*
X120921122Y-66582507D01*
X120923016Y-66572990D01*
X120936146Y-66518301D01*
X120940558Y-66462237D01*
X120941703Y-66452565D01*
X120950500Y-66397027D01*
X120950500Y-66340788D01*
X120950882Y-66331059D01*
X120955294Y-66275000D01*
X120950882Y-66218938D01*
X120950500Y-66209210D01*
X120950500Y-66152974D01*
X120941703Y-66097433D01*
X120940558Y-66087763D01*
X120936146Y-66031702D01*
X120936146Y-66031698D01*
X120923012Y-65976992D01*
X120921121Y-65967486D01*
X120912321Y-65911924D01*
X120894944Y-65858443D01*
X120892300Y-65849071D01*
X120879172Y-65794388D01*
X120857647Y-65742423D01*
X120854283Y-65733306D01*
X120836904Y-65679815D01*
X120811371Y-65629704D01*
X120807308Y-65620893D01*
X120785777Y-65568911D01*
X120785774Y-65568906D01*
X120785772Y-65568901D01*
X120756396Y-65520966D01*
X120751637Y-65512469D01*
X120726107Y-65462362D01*
X120693048Y-65416861D01*
X120687639Y-65408765D01*
X120658262Y-65360826D01*
X120658259Y-65360821D01*
X120621737Y-65318059D01*
X120615708Y-65310411D01*
X120582658Y-65264920D01*
X120542884Y-65225146D01*
X120536288Y-65218011D01*
X120499759Y-65175241D01*
X120456995Y-65138717D01*
X120449846Y-65132108D01*
X120410085Y-65092347D01*
X120410083Y-65092345D01*
X120406852Y-65089998D01*
X120364580Y-65059284D01*
X120356934Y-65053257D01*
X120314181Y-65016742D01*
X120314176Y-65016738D01*
X120266227Y-64987355D01*
X120258132Y-64981946D01*
X120212640Y-64948894D01*
X120188619Y-64936655D01*
X120162530Y-64923361D01*
X120154046Y-64918611D01*
X120138987Y-64909383D01*
X120106089Y-64889223D01*
X120106087Y-64889222D01*
X120106077Y-64889217D01*
X120054134Y-64867702D01*
X120045291Y-64863626D01*
X119995179Y-64838093D01*
X119995181Y-64838093D01*
X119941700Y-64820717D01*
X119932565Y-64817347D01*
X119880614Y-64795829D01*
X119880612Y-64795828D01*
X119880610Y-64795827D01*
X119880606Y-64795826D01*
X119825931Y-64782699D01*
X119816563Y-64780057D01*
X119763085Y-64762681D01*
X119763074Y-64762678D01*
X119707529Y-64753880D01*
X119697985Y-64751981D01*
X119643303Y-64738854D01*
X119643299Y-64738853D01*
X119587227Y-64734439D01*
X119577562Y-64733295D01*
X119522031Y-64724500D01*
X119522027Y-64724500D01*
X119465789Y-64724500D01*
X119456061Y-64724118D01*
X119400000Y-64719706D01*
X119343939Y-64724118D01*
X119334211Y-64724500D01*
X119277971Y-64724500D01*
X119222422Y-64733297D01*
X119212760Y-64734440D01*
X119156702Y-64738853D01*
X119102012Y-64751982D01*
X119092469Y-64753880D01*
X119036925Y-64762678D01*
X119036921Y-64762679D01*
X118983430Y-64780059D01*
X118974064Y-64782700D01*
X118919391Y-64795827D01*
X118919385Y-64795828D01*
X118867440Y-64817345D01*
X118858308Y-64820714D01*
X118804822Y-64838093D01*
X118804806Y-64838100D01*
X118754710Y-64863624D01*
X118745873Y-64867698D01*
X118693914Y-64889220D01*
X118693909Y-64889223D01*
X118645961Y-64918606D01*
X118637469Y-64923362D01*
X118587357Y-64948896D01*
X118541858Y-64981952D01*
X118533767Y-64987358D01*
X118485828Y-65016735D01*
X118485821Y-65016740D01*
X118485821Y-65016741D01*
X118443054Y-65053266D01*
X118435416Y-65059287D01*
X118389919Y-65092342D01*
X118389909Y-65092350D01*
X118350150Y-65132110D01*
X118343002Y-65138718D01*
X118305032Y-65171148D01*
X118241271Y-65199719D01*
X118172185Y-65189282D01*
X118119709Y-65143152D01*
X118100500Y-65076858D01*
X118100500Y-44399500D01*
X118120185Y-44332461D01*
X118172989Y-44286706D01*
X118224500Y-44275500D01*
X131025329Y-44275500D01*
X131092368Y-44295185D01*
G37*
%TD.AperFunction*%
%TA.AperFunction,NonConductor*%
G36*
X120653423Y-69862343D02*
G01*
X120856698Y-69911146D01*
X120929673Y-69916889D01*
X120994962Y-69941772D01*
X121036433Y-69998003D01*
X121040920Y-70067729D01*
X121007626Y-70128188D01*
X120712181Y-70423634D01*
X120650858Y-70457119D01*
X120581167Y-70452135D01*
X120525233Y-70410264D01*
X120500816Y-70344799D01*
X120500500Y-70335953D01*
X120500500Y-69982922D01*
X120520185Y-69915883D01*
X120572989Y-69870128D01*
X120642147Y-69860184D01*
X120653423Y-69862343D01*
G37*
%TD.AperFunction*%
%TA.AperFunction,NonConductor*%
G36*
X130810835Y-74595185D02*
G01*
X130856590Y-74647989D01*
X130866534Y-74717147D01*
X130837509Y-74780703D01*
X130831477Y-74787181D01*
X130560588Y-75058069D01*
X130560588Y-75058070D01*
X130560586Y-75058072D01*
X130516859Y-75118256D01*
X130458768Y-75198211D01*
X130380128Y-75352552D01*
X130326597Y-75517302D01*
X130299500Y-75688389D01*
X130299500Y-76759134D01*
X130279815Y-76826173D01*
X130227011Y-76871928D01*
X130165772Y-76882752D01*
X130000000Y-76869706D01*
X129756701Y-76888853D01*
X129553447Y-76937651D01*
X129483665Y-76934160D01*
X129426847Y-76893497D01*
X129401034Y-76828570D01*
X129400500Y-76817077D01*
X129400500Y-76619636D01*
X129420185Y-76552597D01*
X129430203Y-76539112D01*
X129558259Y-76389179D01*
X129685777Y-76181089D01*
X129779172Y-75955612D01*
X129836146Y-75718302D01*
X129855294Y-75475000D01*
X129836146Y-75231698D01*
X129779172Y-74994388D01*
X129744971Y-74911819D01*
X129685777Y-74768910D01*
X129682944Y-74764287D01*
X129664702Y-74696841D01*
X129685819Y-74630239D01*
X129739592Y-74585627D01*
X129788673Y-74575500D01*
X130743796Y-74575500D01*
X130810835Y-74595185D01*
G37*
%TD.AperFunction*%
%TA.AperFunction,NonConductor*%
G36*
X157772762Y-82593932D02*
G01*
X157799279Y-82607658D01*
X157937366Y-82701805D01*
X157937371Y-82701807D01*
X157937372Y-82701808D01*
X157937373Y-82701809D01*
X158055840Y-82758859D01*
X158166992Y-82812387D01*
X158166993Y-82812387D01*
X158166996Y-82812389D01*
X158410542Y-82887513D01*
X158662565Y-82925500D01*
X158892561Y-82925500D01*
X158959600Y-82945185D01*
X159005355Y-82997989D01*
X159015299Y-83067147D01*
X158986274Y-83130703D01*
X158961454Y-83152599D01*
X158926561Y-83175914D01*
X158896535Y-83195977D01*
X158669810Y-83394810D01*
X158470973Y-83621540D01*
X158303435Y-83872279D01*
X158303431Y-83872286D01*
X158170062Y-84142731D01*
X158170053Y-84142752D01*
X158073122Y-84428301D01*
X158073118Y-84428316D01*
X158014288Y-84724069D01*
X158014287Y-84724079D01*
X158014287Y-84724080D01*
X157994564Y-85025000D01*
X158007733Y-85225930D01*
X158014287Y-85325918D01*
X158014288Y-85325930D01*
X158073118Y-85621683D01*
X158073122Y-85621698D01*
X158170053Y-85907247D01*
X158170062Y-85907268D01*
X158303431Y-86177713D01*
X158303435Y-86177720D01*
X158470973Y-86428459D01*
X158669810Y-86655189D01*
X158896540Y-86854026D01*
X159147279Y-87021564D01*
X159147286Y-87021568D01*
X159417731Y-87154937D01*
X159417736Y-87154939D01*
X159417748Y-87154945D01*
X159703309Y-87251880D01*
X159903251Y-87291651D01*
X159999069Y-87310711D01*
X159999070Y-87310711D01*
X159999080Y-87310713D01*
X160300000Y-87330436D01*
X160317387Y-87329296D01*
X160385570Y-87344551D01*
X160434682Y-87394248D01*
X160449500Y-87453030D01*
X160449500Y-96827374D01*
X160429815Y-96894413D01*
X160377011Y-96940168D01*
X160307853Y-96950112D01*
X160244297Y-96921087D01*
X160237819Y-96915055D01*
X155486819Y-92164055D01*
X155453334Y-92102732D01*
X155450500Y-92076374D01*
X155450500Y-88700671D01*
X155470185Y-88633632D01*
X155496242Y-88604485D01*
X155652845Y-88477081D01*
X155844312Y-88272069D01*
X156006081Y-88042896D01*
X156135136Y-87793830D01*
X156229075Y-87529511D01*
X156229076Y-87529504D01*
X156229078Y-87529499D01*
X156270443Y-87330436D01*
X156286148Y-87254862D01*
X156305291Y-86975000D01*
X156286148Y-86695138D01*
X156263890Y-86588029D01*
X156229078Y-86420500D01*
X156229073Y-86420483D01*
X156196368Y-86328461D01*
X156135136Y-86156170D01*
X156006081Y-85907104D01*
X155844312Y-85677931D01*
X155844307Y-85677925D01*
X155652845Y-85472918D01*
X155596245Y-85426871D01*
X155556664Y-85369294D01*
X155550500Y-85330683D01*
X155550500Y-83399500D01*
X155570185Y-83332461D01*
X155622989Y-83286706D01*
X155674500Y-83275500D01*
X155894957Y-83275500D01*
X155894958Y-83275499D01*
X155962104Y-83267934D01*
X156029249Y-83260369D01*
X156029252Y-83260368D01*
X156029255Y-83260368D01*
X156199522Y-83200789D01*
X156352262Y-83104816D01*
X156445260Y-83011818D01*
X156506584Y-82978334D01*
X156532941Y-82975500D01*
X156852351Y-82975500D01*
X156852352Y-82975500D01*
X157054535Y-82943477D01*
X157159689Y-82909310D01*
X157249219Y-82880220D01*
X157356613Y-82825500D01*
X157431611Y-82787287D01*
X157597219Y-82666966D01*
X157641749Y-82622435D01*
X157703070Y-82588949D01*
X157772762Y-82593932D01*
G37*
%TD.AperFunction*%
%TA.AperFunction,NonConductor*%
G36*
X153155703Y-95728913D02*
G01*
X153162181Y-95734945D01*
X154100404Y-96673168D01*
X154133889Y-96734491D01*
X154128905Y-96804183D01*
X154087033Y-96860116D01*
X154021569Y-96884533D01*
X154020834Y-96884583D01*
X153949096Y-96889285D01*
X153949069Y-96889288D01*
X153653316Y-96948118D01*
X153653301Y-96948122D01*
X153367752Y-97045053D01*
X153367731Y-97045062D01*
X153129344Y-97162622D01*
X153060512Y-97174618D01*
X152996121Y-97147497D01*
X152956615Y-97089868D01*
X152950500Y-97051410D01*
X152950500Y-95822626D01*
X152970185Y-95755587D01*
X153022989Y-95709832D01*
X153092147Y-95699888D01*
X153155703Y-95728913D01*
G37*
%TD.AperFunction*%
%TA.AperFunction,NonConductor*%
G36*
X156751307Y-99324074D02*
G01*
X156751831Y-99324595D01*
X157063181Y-99635945D01*
X157096666Y-99697268D01*
X157099500Y-99723626D01*
X157099500Y-100747447D01*
X157079815Y-100814486D01*
X157069792Y-100827977D01*
X157041741Y-100860821D01*
X157041735Y-100860829D01*
X156914222Y-101068910D01*
X156820830Y-101294380D01*
X156763853Y-101531702D01*
X156744706Y-101775000D01*
X156763853Y-102018297D01*
X156820830Y-102255619D01*
X156914222Y-102481089D01*
X157041737Y-102689173D01*
X157041738Y-102689176D01*
X157080716Y-102734813D01*
X157200241Y-102874759D01*
X157317784Y-102975150D01*
X157385823Y-103033261D01*
X157385826Y-103033262D01*
X157593910Y-103160777D01*
X157819381Y-103254169D01*
X157819378Y-103254169D01*
X157819384Y-103254170D01*
X157819388Y-103254172D01*
X158056698Y-103311146D01*
X158300000Y-103330294D01*
X158543302Y-103311146D01*
X158547149Y-103310222D01*
X158616927Y-103313705D01*
X158673749Y-103354363D01*
X158699570Y-103419286D01*
X158686191Y-103487863D01*
X158663786Y-103518474D01*
X158314917Y-103867345D01*
X158142343Y-104039918D01*
X158142339Y-104039923D01*
X157998896Y-104237357D01*
X157888095Y-104454815D01*
X157885253Y-104463561D01*
X157855014Y-104512906D01*
X157848290Y-104519631D01*
X157786969Y-104553120D01*
X157717277Y-104548141D01*
X157690750Y-104534409D01*
X157676216Y-104524500D01*
X157637634Y-104498195D01*
X157637633Y-104498194D01*
X157637626Y-104498190D01*
X157408006Y-104387612D01*
X157408008Y-104387612D01*
X157164466Y-104312489D01*
X157164462Y-104312488D01*
X157164458Y-104312487D01*
X157043231Y-104294214D01*
X156912440Y-104274500D01*
X156912435Y-104274500D01*
X156657565Y-104274500D01*
X156657559Y-104274500D01*
X156500609Y-104298157D01*
X156405542Y-104312487D01*
X156405539Y-104312488D01*
X156405533Y-104312489D01*
X156161992Y-104387612D01*
X155973301Y-104478481D01*
X155904360Y-104489833D01*
X155840225Y-104462111D01*
X155801260Y-104404115D01*
X155795500Y-104366761D01*
X155795500Y-100935643D01*
X155815185Y-100868604D01*
X155837742Y-100842414D01*
X155857514Y-100825074D01*
X155880189Y-100805189D01*
X156079025Y-100578461D01*
X156246566Y-100327718D01*
X156379945Y-100057252D01*
X156476880Y-99771691D01*
X156535713Y-99475920D01*
X156540416Y-99404164D01*
X156564442Y-99338558D01*
X156620125Y-99296354D01*
X156689786Y-99290955D01*
X156751307Y-99324074D01*
G37*
%TD.AperFunction*%
%TA.AperFunction,NonConductor*%
G36*
X133905703Y-92593454D02*
G01*
X133933686Y-92632283D01*
X133935241Y-92631491D01*
X133963609Y-92687167D01*
X134023240Y-92804199D01*
X134134310Y-92957074D01*
X136167927Y-94990690D01*
X136320801Y-95101760D01*
X136400347Y-95142290D01*
X136489163Y-95187545D01*
X136489165Y-95187545D01*
X136489168Y-95187547D01*
X136585497Y-95218846D01*
X136668881Y-95245940D01*
X136855514Y-95275500D01*
X136855519Y-95275500D01*
X137044482Y-95275500D01*
X145801374Y-95275500D01*
X145868413Y-95295185D01*
X145889055Y-95311819D01*
X147185120Y-96607883D01*
X147218605Y-96669206D01*
X147213621Y-96738898D01*
X147171749Y-96794831D01*
X147106285Y-96819248D01*
X147103085Y-96819362D01*
X147100001Y-96819564D01*
X147100000Y-96819564D01*
X146799080Y-96839287D01*
X146799079Y-96839287D01*
X146799069Y-96839288D01*
X146503316Y-96898118D01*
X146503301Y-96898122D01*
X146217752Y-96995053D01*
X146217731Y-96995062D01*
X145947286Y-97128431D01*
X145947279Y-97128435D01*
X145696540Y-97295973D01*
X145469810Y-97494810D01*
X145270973Y-97721540D01*
X145103435Y-97972279D01*
X145103431Y-97972286D01*
X144970062Y-98242731D01*
X144970053Y-98242752D01*
X144873122Y-98528301D01*
X144873118Y-98528316D01*
X144814288Y-98824069D01*
X144814287Y-98824081D01*
X144794564Y-99125000D01*
X144814287Y-99425918D01*
X144814288Y-99425930D01*
X144873118Y-99721683D01*
X144873122Y-99721698D01*
X144970053Y-100007247D01*
X144970062Y-100007268D01*
X145103431Y-100277713D01*
X145103435Y-100277720D01*
X145270973Y-100528459D01*
X145270975Y-100528461D01*
X145469811Y-100755189D01*
X145469818Y-100755195D01*
X145507258Y-100788029D01*
X145544683Y-100847031D01*
X145549500Y-100881258D01*
X145549500Y-104647796D01*
X145529815Y-104714835D01*
X145477011Y-104760590D01*
X145407853Y-104770534D01*
X145355657Y-104750256D01*
X145355499Y-104750148D01*
X145352634Y-104748195D01*
X145352630Y-104748193D01*
X145352626Y-104748190D01*
X145123006Y-104637612D01*
X145123008Y-104637612D01*
X144879466Y-104562489D01*
X144879462Y-104562488D01*
X144879458Y-104562487D01*
X144758231Y-104544214D01*
X144627440Y-104524500D01*
X144627435Y-104524500D01*
X144372565Y-104524500D01*
X144372559Y-104524500D01*
X144215720Y-104548141D01*
X144120542Y-104562487D01*
X144120539Y-104562488D01*
X144120533Y-104562489D01*
X143876992Y-104637612D01*
X143688301Y-104728481D01*
X143619360Y-104739833D01*
X143555225Y-104712111D01*
X143516260Y-104654115D01*
X143510500Y-104616761D01*
X143510500Y-103062973D01*
X143502889Y-103014919D01*
X143472321Y-102821924D01*
X143396904Y-102589815D01*
X143286106Y-102372361D01*
X143267779Y-102347136D01*
X143142660Y-102174923D01*
X143142656Y-102174918D01*
X138860081Y-97892343D01*
X138860076Y-97892339D01*
X138662642Y-97748896D01*
X138662641Y-97748895D01*
X138662639Y-97748894D01*
X138445185Y-97638096D01*
X138213076Y-97562679D01*
X138213074Y-97562678D01*
X138213072Y-97562678D01*
X138044769Y-97536021D01*
X137972027Y-97524500D01*
X137972026Y-97524500D01*
X136806258Y-97524500D01*
X136739219Y-97504815D01*
X136713030Y-97482259D01*
X136680189Y-97444811D01*
X136680180Y-97444803D01*
X136453459Y-97245973D01*
X136202720Y-97078435D01*
X136202713Y-97078431D01*
X135932268Y-96945062D01*
X135932247Y-96945053D01*
X135646698Y-96848122D01*
X135646692Y-96848120D01*
X135646691Y-96848120D01*
X135646689Y-96848119D01*
X135646683Y-96848118D01*
X135350930Y-96789288D01*
X135350921Y-96789287D01*
X135350920Y-96789287D01*
X135050000Y-96769564D01*
X134749080Y-96789287D01*
X134749079Y-96789287D01*
X134749069Y-96789288D01*
X134453316Y-96848118D01*
X134453301Y-96848122D01*
X134167752Y-96945053D01*
X134167731Y-96945062D01*
X133897281Y-97078434D01*
X133893384Y-97081038D01*
X133826706Y-97101911D01*
X133759327Y-97083422D01*
X133712640Y-97031441D01*
X133700500Y-96977931D01*
X133700500Y-92687167D01*
X133720185Y-92620128D01*
X133772989Y-92574373D01*
X133842147Y-92564429D01*
X133905703Y-92593454D01*
G37*
%TD.AperFunction*%
%TA.AperFunction,NonConductor*%
G36*
X137223439Y-100645185D02*
G01*
X137244081Y-100661819D01*
X140373181Y-103790919D01*
X140406666Y-103852242D01*
X140409500Y-103878600D01*
X140409500Y-105497593D01*
X140400928Y-105542895D01*
X140330494Y-105722357D01*
X140330489Y-105722374D01*
X140273777Y-105970845D01*
X140254732Y-106224995D01*
X140254732Y-106225004D01*
X140269577Y-106423108D01*
X140254957Y-106491431D01*
X140205720Y-106541004D01*
X140137498Y-106556087D01*
X140107606Y-106550305D01*
X139957698Y-106501597D01*
X139816014Y-106479157D01*
X139786611Y-106474500D01*
X139786610Y-106474500D01*
X134407204Y-106474500D01*
X134340165Y-106454815D01*
X134319523Y-106438181D01*
X133736819Y-105855477D01*
X133703334Y-105794154D01*
X133700500Y-105767796D01*
X133700500Y-101172068D01*
X133720185Y-101105029D01*
X133772989Y-101059274D01*
X133842147Y-101049330D01*
X133893391Y-101068966D01*
X133897285Y-101071568D01*
X134167731Y-101204937D01*
X134167736Y-101204939D01*
X134167748Y-101204945D01*
X134453309Y-101301880D01*
X134577353Y-101326554D01*
X134749069Y-101360711D01*
X134749070Y-101360711D01*
X134749080Y-101360713D01*
X135050000Y-101380436D01*
X135350920Y-101360713D01*
X135646691Y-101301880D01*
X135932252Y-101204945D01*
X136202718Y-101071566D01*
X136453461Y-100904025D01*
X136680189Y-100705189D01*
X136713030Y-100667740D01*
X136772032Y-100630317D01*
X136806258Y-100625500D01*
X137156400Y-100625500D01*
X137223439Y-100645185D01*
G37*
%TD.AperFunction*%
%TA.AperFunction,NonConductor*%
G36*
X165218630Y-105136594D02*
G01*
X165248108Y-105199941D01*
X165249500Y-105218465D01*
X165249500Y-106572714D01*
X165229815Y-106639753D01*
X165177011Y-106685508D01*
X165107853Y-106695452D01*
X165044297Y-106666427D01*
X165006523Y-106607649D01*
X165004932Y-106601685D01*
X164979172Y-106494388D01*
X164970934Y-106474500D01*
X164885777Y-106268910D01*
X164758262Y-106060826D01*
X164758261Y-106060823D01*
X164599756Y-105875238D01*
X164428905Y-105729318D01*
X164390711Y-105670812D01*
X164390212Y-105600944D01*
X164427566Y-105541897D01*
X164461984Y-105520467D01*
X164606085Y-105460779D01*
X164606086Y-105460778D01*
X164606089Y-105460777D01*
X164814179Y-105333259D01*
X164999759Y-105174759D01*
X165031210Y-105137934D01*
X165089715Y-105099741D01*
X165159583Y-105099241D01*
X165218630Y-105136594D01*
G37*
%TD.AperFunction*%
%TA.AperFunction,NonConductor*%
G36*
X165171312Y-107262058D02*
G01*
X165226336Y-107305118D01*
X165249345Y-107371090D01*
X165249500Y-107377285D01*
X165249500Y-109921449D01*
X165229815Y-109988488D01*
X165177011Y-110034243D01*
X165107853Y-110044187D01*
X165044297Y-110015162D01*
X165018113Y-109983449D01*
X164970670Y-109901275D01*
X164908959Y-109794388D01*
X164750050Y-109595123D01*
X164750044Y-109595117D01*
X164740155Y-109585941D01*
X164704403Y-109525912D01*
X164700500Y-109495046D01*
X164700500Y-108002551D01*
X164720185Y-107935512D01*
X164730203Y-107922027D01*
X164758259Y-107889179D01*
X164885777Y-107681089D01*
X164979172Y-107455612D01*
X165004927Y-107348334D01*
X165039717Y-107287746D01*
X165101743Y-107255582D01*
X165171312Y-107262058D01*
G37*
%TD.AperFunction*%
%TA.AperFunction,NonConductor*%
G36*
X154773139Y-111799541D02*
G01*
X154827471Y-111843471D01*
X154849428Y-111909801D01*
X154849500Y-111914025D01*
X154849500Y-112248618D01*
X154829815Y-112315657D01*
X154777011Y-112361412D01*
X154707853Y-112371356D01*
X154644297Y-112342331D01*
X154631205Y-112329144D01*
X154630205Y-112327973D01*
X154601638Y-112264209D01*
X154600500Y-112247447D01*
X154600500Y-111914953D01*
X154620185Y-111847914D01*
X154640152Y-111824061D01*
X154641152Y-111823133D01*
X154703682Y-111791960D01*
X154773139Y-111799541D01*
G37*
%TD.AperFunction*%
%TA.AperFunction,NonConductor*%
G36*
X152005703Y-111637339D02*
G01*
X152021443Y-111653735D01*
X152070788Y-111715611D01*
X152149947Y-111814874D01*
X152159841Y-111824054D01*
X152195596Y-111884082D01*
X152199500Y-111914953D01*
X152199500Y-112247447D01*
X152179815Y-112314486D01*
X152169792Y-112327977D01*
X152141741Y-112360821D01*
X152141735Y-112360829D01*
X152030227Y-112542794D01*
X151978415Y-112589669D01*
X151909486Y-112601092D01*
X151845323Y-112573435D01*
X151806298Y-112515479D01*
X151800500Y-112478004D01*
X151800500Y-111731052D01*
X151820185Y-111664013D01*
X151872989Y-111618258D01*
X151942147Y-111608314D01*
X152005703Y-111637339D01*
G37*
%TD.AperFunction*%
%TA.AperFunction,NonConductor*%
G36*
X165202151Y-111491079D02*
G01*
X165242680Y-111547993D01*
X165249500Y-111588550D01*
X165249500Y-112872714D01*
X165229815Y-112939753D01*
X165177011Y-112985508D01*
X165107853Y-112995452D01*
X165044297Y-112966427D01*
X165006523Y-112907649D01*
X165004932Y-112901685D01*
X164979172Y-112794388D01*
X164899107Y-112601092D01*
X164885777Y-112568910D01*
X164758264Y-112360829D01*
X164758263Y-112360828D01*
X164758259Y-112360821D01*
X164730208Y-112327977D01*
X164701639Y-112264215D01*
X164700500Y-112247447D01*
X164700500Y-112014953D01*
X164720185Y-111947914D01*
X164740159Y-111924054D01*
X164750050Y-111914877D01*
X164908959Y-111715612D01*
X165018113Y-111526549D01*
X165068680Y-111478335D01*
X165137287Y-111465111D01*
X165202151Y-111491079D01*
G37*
%TD.AperFunction*%
%TA.AperFunction,NonConductor*%
G36*
X152005703Y-113978282D02*
G01*
X152030227Y-114007205D01*
X152141737Y-114189174D01*
X152141738Y-114189176D01*
X152195449Y-114252063D01*
X152300241Y-114374759D01*
X152415431Y-114473140D01*
X152485823Y-114533261D01*
X152485826Y-114533262D01*
X152693910Y-114660777D01*
X152919381Y-114754169D01*
X152919378Y-114754169D01*
X152919384Y-114754170D01*
X152919388Y-114754172D01*
X153156698Y-114811146D01*
X153400000Y-114830294D01*
X153643302Y-114811146D01*
X153880612Y-114754172D01*
X154106089Y-114660777D01*
X154314179Y-114533259D01*
X154499759Y-114374759D01*
X154631211Y-114220847D01*
X154689716Y-114182655D01*
X154759584Y-114182156D01*
X154818630Y-114219510D01*
X154848109Y-114282857D01*
X154849500Y-114301380D01*
X154849500Y-117015974D01*
X154829815Y-117083013D01*
X154777011Y-117128768D01*
X154707853Y-117138712D01*
X154644297Y-117109687D01*
X154641159Y-117106873D01*
X154463217Y-116941768D01*
X154399301Y-116898191D01*
X154252634Y-116798195D01*
X154252630Y-116798193D01*
X154252627Y-116798191D01*
X154252626Y-116798190D01*
X154023006Y-116687612D01*
X154023008Y-116687612D01*
X153779466Y-116612489D01*
X153779462Y-116612488D01*
X153779458Y-116612487D01*
X153658231Y-116594214D01*
X153527440Y-116574500D01*
X153527435Y-116574500D01*
X153272565Y-116574500D01*
X153272559Y-116574500D01*
X153115609Y-116598157D01*
X153020542Y-116612487D01*
X153020539Y-116612488D01*
X153020533Y-116612489D01*
X152776992Y-116687612D01*
X152547373Y-116798190D01*
X152547372Y-116798191D01*
X152336782Y-116941768D01*
X152149952Y-117115121D01*
X152149950Y-117115123D01*
X152021447Y-117276260D01*
X151964258Y-117316400D01*
X151894447Y-117319250D01*
X151834177Y-117283904D01*
X151802584Y-117221585D01*
X151800500Y-117198947D01*
X151800500Y-114071995D01*
X151820185Y-114004956D01*
X151872989Y-113959201D01*
X151942147Y-113949257D01*
X152005703Y-113978282D01*
G37*
%TD.AperFunction*%
%TA.AperFunction,NonConductor*%
G36*
X165171312Y-113562058D02*
G01*
X165226336Y-113605118D01*
X165249345Y-113671090D01*
X165249500Y-113677285D01*
X165249500Y-117541449D01*
X165229815Y-117608488D01*
X165177011Y-117654243D01*
X165107853Y-117664187D01*
X165044297Y-117635162D01*
X165018113Y-117603449D01*
X164978657Y-117535109D01*
X164908959Y-117414388D01*
X164750050Y-117215123D01*
X164563217Y-117041768D01*
X164352634Y-116898195D01*
X164352630Y-116898193D01*
X164352627Y-116898191D01*
X164352626Y-116898190D01*
X164123006Y-116787612D01*
X164123008Y-116787612D01*
X163879466Y-116712489D01*
X163879462Y-116712488D01*
X163879458Y-116712487D01*
X163758231Y-116694214D01*
X163627440Y-116674500D01*
X163627435Y-116674500D01*
X163372565Y-116674500D01*
X163372559Y-116674500D01*
X163215609Y-116698157D01*
X163120542Y-116712487D01*
X163120539Y-116712488D01*
X163120533Y-116712489D01*
X162876992Y-116787612D01*
X162647373Y-116898190D01*
X162647372Y-116898191D01*
X162436782Y-117041768D01*
X162408840Y-117067695D01*
X162346307Y-117098862D01*
X162276851Y-117091274D01*
X162222522Y-117047340D01*
X162200572Y-116981008D01*
X162200500Y-116976795D01*
X162200500Y-114473140D01*
X162220185Y-114406101D01*
X162272989Y-114360346D01*
X162342147Y-114350402D01*
X162405029Y-114378848D01*
X162515431Y-114473140D01*
X162585823Y-114533261D01*
X162585826Y-114533262D01*
X162793910Y-114660777D01*
X163019381Y-114754169D01*
X163019378Y-114754169D01*
X163019384Y-114754170D01*
X163019388Y-114754172D01*
X163256698Y-114811146D01*
X163500000Y-114830294D01*
X163743302Y-114811146D01*
X163980612Y-114754172D01*
X164206089Y-114660777D01*
X164414179Y-114533259D01*
X164599759Y-114374759D01*
X164758259Y-114189179D01*
X164885777Y-113981089D01*
X164979172Y-113755612D01*
X165004927Y-113648334D01*
X165039717Y-113587746D01*
X165101743Y-113555582D01*
X165171312Y-113562058D01*
G37*
%TD.AperFunction*%
%TA.AperFunction,NonConductor*%
G36*
X165202151Y-119111079D02*
G01*
X165242680Y-119167993D01*
X165249500Y-119208550D01*
X165249500Y-119826449D01*
X165229815Y-119893488D01*
X165177011Y-119939243D01*
X165107853Y-119949187D01*
X165044297Y-119920162D01*
X165018113Y-119888449D01*
X164978657Y-119820109D01*
X164908959Y-119699388D01*
X164844025Y-119617964D01*
X164827553Y-119597308D01*
X164801144Y-119532621D01*
X164800500Y-119519995D01*
X164800500Y-119515003D01*
X164820185Y-119447964D01*
X164827546Y-119437699D01*
X164908959Y-119335612D01*
X165018113Y-119146549D01*
X165068680Y-119098335D01*
X165137287Y-119085111D01*
X165202151Y-119111079D01*
G37*
%TD.AperFunction*%
M02*
