solid ASCII
  facet normal -1.305262e-01 -2.355614e-16 9.914449e-01
    outer loop
      vertex   3.300000e+00 2.000000e+00 -2.300000e+00
      vertex   3.300000e+00 5.000000e+00 -2.300000e+00
      vertex   3.041181e+00 2.000000e+00 -2.334074e+00
    endloop
  endfacet
  facet normal -1.305262e-01 -2.355614e-16 9.914449e-01
    outer loop
      vertex   3.041181e+00 2.000000e+00 -2.334074e+00
      vertex   3.300000e+00 5.000000e+00 -2.300000e+00
      vertex   3.041181e+00 5.000000e+00 -2.334074e+00
    endloop
  endfacet
  facet normal -3.826834e-01 -1.035777e-16 9.238795e-01
    outer loop
      vertex   3.041181e+00 2.000000e+00 -2.334074e+00
      vertex   3.041181e+00 5.000000e+00 -2.334074e+00
      vertex   2.800000e+00 2.000000e+00 -2.433975e+00
    endloop
  endfacet
  facet normal -3.826834e-01 -8.011312e-17 9.238795e-01
    outer loop
      vertex   2.800000e+00 2.000000e+00 -2.433975e+00
      vertex   3.041181e+00 5.000000e+00 -2.334074e+00
      vertex   2.800000e+00 5.000000e+00 -2.433975e+00
    endloop
  endfacet
  facet normal -6.087614e-01 -2.732509e-17 7.933533e-01
    outer loop
      vertex   2.800000e+00 2.000000e+00 -2.433975e+00
      vertex   2.800000e+00 5.000000e+00 -2.433975e+00
      vertex   2.592893e+00 2.000000e+00 -2.592893e+00
    endloop
  endfacet
  facet normal -6.087614e-01 -5.465018e-17 7.933533e-01
    outer loop
      vertex   2.592893e+00 2.000000e+00 -2.592893e+00
      vertex   2.800000e+00 5.000000e+00 -2.433975e+00
      vertex   2.592893e+00 5.000000e+00 -2.592893e+00
    endloop
  endfacet
  facet normal -7.933533e-01 5.465018e-17 6.087614e-01
    outer loop
      vertex   2.592893e+00 2.000000e+00 -2.592893e+00
      vertex   2.592893e+00 5.000000e+00 -2.592893e+00
      vertex   2.433975e+00 2.000000e+00 -2.800000e+00
    endloop
  endfacet
  facet normal -7.933533e-01 -3.546461e-17 6.087614e-01
    outer loop
      vertex   2.433975e+00 2.000000e+00 -2.800000e+00
      vertex   2.592893e+00 5.000000e+00 -2.592893e+00
      vertex   2.433975e+00 5.000000e+00 -2.800000e+00
    endloop
  endfacet
  facet normal -9.238795e-01 1.035777e-16 3.826834e-01
    outer loop
      vertex   2.433975e+00 2.000000e+00 -2.800000e+00
      vertex   2.433975e+00 5.000000e+00 -2.800000e+00
      vertex   2.334074e+00 2.000000e+00 -3.041181e+00
    endloop
  endfacet
  facet normal -9.238795e-01 0.000000e+00 3.826834e-01
    outer loop
      vertex   2.334074e+00 2.000000e+00 -3.041181e+00
      vertex   2.433975e+00 5.000000e+00 -2.800000e+00
      vertex   2.334074e+00 5.000000e+00 -3.041181e+00
    endloop
  endfacet
  facet normal -9.914449e-01 0.000000e+00 1.305262e-01
    outer loop
      vertex   2.334074e+00 2.000000e+00 -3.041181e+00
      vertex   2.334074e+00 5.000000e+00 -3.041181e+00
      vertex   2.300000e+00 2.000000e+00 -3.300000e+00
    endloop
  endfacet
  facet normal -9.914449e-01 0.000000e+00 1.305262e-01
    outer loop
      vertex   2.300000e+00 2.000000e+00 -3.300000e+00
      vertex   2.334074e+00 5.000000e+00 -3.041181e+00
      vertex   2.300000e+00 5.000000e+00 -3.300000e+00
    endloop
  endfacet
  facet normal -1.000000e+00 -0.000000e+00 -0.000000e+00
    outer loop
      vertex   2.300000e+00 5.000000e+00 -3.300000e+00
      vertex   2.300000e+00 5.000000e+00 -9.570000e+01
      vertex   2.300000e+00 2.000000e+00 -3.300000e+00
    endloop
  endfacet
  facet normal -1.000000e+00 0.000000e+00 0.000000e+00
    outer loop
      vertex   2.300000e+00 2.000000e+00 -3.300000e+00
      vertex   2.300000e+00 5.000000e+00 -9.570000e+01
      vertex   2.300000e+00 2.000000e+00 -9.570000e+01
    endloop
  endfacet
  facet normal 0.000000e+00 1.000000e+00 -0.000000e+00
    outer loop
      vertex   4.300000e+00 5.000000e+00 -4.300000e+00
      vertex   3.300000e+00 5.000000e+00 -2.300000e+00
      vertex   5.170000e+01 5.000000e+00 -4.300000e+00
    endloop
  endfacet
  facet normal 0.000000e+00 1.000000e+00 -0.000000e+00
    outer loop
      vertex   5.170000e+01 5.000000e+00 -4.300000e+00
      vertex   3.300000e+00 5.000000e+00 -2.300000e+00
      vertex   5.270000e+01 5.000000e+00 -2.300000e+00
    endloop
  endfacet
  facet normal 0.000000e+00 1.000000e+00 0.000000e+00
    outer loop
      vertex   5.170000e+01 5.000000e+00 -4.300000e+00
      vertex   5.270000e+01 5.000000e+00 -2.300000e+00
      vertex   5.295882e+01 5.000000e+00 -2.334074e+00
    endloop
  endfacet
  facet normal 0.000000e+00 1.000000e+00 -0.000000e+00
    outer loop
      vertex   4.300000e+00 5.000000e+00 -9.470000e+01
      vertex   2.300000e+00 5.000000e+00 -3.300000e+00
      vertex   4.300000e+00 5.000000e+00 -4.300000e+00
    endloop
  endfacet
  facet normal 0.000000e+00 1.000000e+00 0.000000e+00
    outer loop
      vertex   4.300000e+00 5.000000e+00 -4.300000e+00
      vertex   2.300000e+00 5.000000e+00 -3.300000e+00
      vertex   3.041181e+00 5.000000e+00 -2.334074e+00
    endloop
  endfacet
  facet normal 0.000000e+00 1.000000e+00 0.000000e+00
    outer loop
      vertex   4.300000e+00 5.000000e+00 -4.300000e+00
      vertex   3.041181e+00 5.000000e+00 -2.334074e+00
      vertex   3.300000e+00 5.000000e+00 -2.300000e+00
    endloop
  endfacet
  facet normal 0.000000e+00 1.000000e+00 0.000000e+00
    outer loop
      vertex   5.170000e+01 5.000000e+00 -9.470000e+01
      vertex   3.300000e+00 5.000000e+00 -9.670000e+01
      vertex   4.300000e+00 5.000000e+00 -9.470000e+01
    endloop
  endfacet
  facet normal 0.000000e+00 1.000000e+00 0.000000e+00
    outer loop
      vertex   4.300000e+00 5.000000e+00 -9.470000e+01
      vertex   3.300000e+00 5.000000e+00 -9.670000e+01
      vertex   3.041181e+00 5.000000e+00 -9.666593e+01
    endloop
  endfacet
  facet normal 0.000000e+00 1.000000e+00 0.000000e+00
    outer loop
      vertex   4.300000e+00 5.000000e+00 -9.470000e+01
      vertex   3.041181e+00 5.000000e+00 -9.666593e+01
      vertex   2.300000e+00 5.000000e+00 -9.570000e+01
    endloop
  endfacet
  facet normal 0.000000e+00 1.000000e+00 0.000000e+00
    outer loop
      vertex   2.300000e+00 5.000000e+00 -9.570000e+01
      vertex   3.041181e+00 5.000000e+00 -9.666593e+01
      vertex   2.800000e+00 5.000000e+00 -9.656603e+01
    endloop
  endfacet
  facet normal 0.000000e+00 1.000000e+00 0.000000e+00
    outer loop
      vertex   2.300000e+00 5.000000e+00 -9.570000e+01
      vertex   2.800000e+00 5.000000e+00 -9.656603e+01
      vertex   2.592893e+00 5.000000e+00 -9.640711e+01
    endloop
  endfacet
  facet normal 0.000000e+00 1.000000e+00 0.000000e+00
    outer loop
      vertex   5.170000e+01 5.000000e+00 -4.300000e+00
      vertex   5.370000e+01 5.000000e+00 -9.570000e+01
      vertex   5.170000e+01 5.000000e+00 -9.470000e+01
    endloop
  endfacet
  facet normal 0.000000e+00 1.000000e+00 0.000000e+00
    outer loop
      vertex   5.170000e+01 5.000000e+00 -9.470000e+01
      vertex   5.370000e+01 5.000000e+00 -9.570000e+01
      vertex   5.295882e+01 5.000000e+00 -9.666593e+01
    endloop
  endfacet
  facet normal 0.000000e+00 1.000000e+00 0.000000e+00
    outer loop
      vertex   5.170000e+01 5.000000e+00 -9.470000e+01
      vertex   5.295882e+01 5.000000e+00 -9.666593e+01
      vertex   5.270000e+01 5.000000e+00 -9.670000e+01
    endloop
  endfacet
  facet normal -0.000000e+00 1.000000e+00 0.000000e+00
    outer loop
      vertex   2.334074e+00 5.000000e+00 -3.041181e+00
      vertex   2.433975e+00 5.000000e+00 -2.800000e+00
      vertex   2.300000e+00 5.000000e+00 -3.300000e+00
    endloop
  endfacet
  facet normal 0.000000e+00 1.000000e+00 0.000000e+00
    outer loop
      vertex   2.300000e+00 5.000000e+00 -3.300000e+00
      vertex   2.433975e+00 5.000000e+00 -2.800000e+00
      vertex   2.592893e+00 5.000000e+00 -2.592893e+00
    endloop
  endfacet
  facet normal 0.000000e+00 1.000000e+00 0.000000e+00
    outer loop
      vertex   2.300000e+00 5.000000e+00 -3.300000e+00
      vertex   2.592893e+00 5.000000e+00 -2.592893e+00
      vertex   2.800000e+00 5.000000e+00 -2.433975e+00
    endloop
  endfacet
  facet normal -0.000000e+00 1.000000e+00 0.000000e+00
    outer loop
      vertex   2.800000e+00 5.000000e+00 -2.433975e+00
      vertex   3.041181e+00 5.000000e+00 -2.334074e+00
      vertex   2.300000e+00 5.000000e+00 -3.300000e+00
    endloop
  endfacet
  facet normal 0.000000e+00 1.000000e+00 0.000000e+00
    outer loop
      vertex   5.170000e+01 5.000000e+00 -4.300000e+00
      vertex   5.295882e+01 5.000000e+00 -2.334074e+00
      vertex   5.370000e+01 5.000000e+00 -3.300000e+00
    endloop
  endfacet
  facet normal 0.000000e+00 1.000000e+00 0.000000e+00
    outer loop
      vertex   5.370000e+01 5.000000e+00 -3.300000e+00
      vertex   5.295882e+01 5.000000e+00 -2.334074e+00
      vertex   5.320000e+01 5.000000e+00 -2.433975e+00
    endloop
  endfacet
  facet normal 0.000000e+00 1.000000e+00 0.000000e+00
    outer loop
      vertex   5.370000e+01 5.000000e+00 -3.300000e+00
      vertex   5.320000e+01 5.000000e+00 -2.433975e+00
      vertex   5.340711e+01 5.000000e+00 -2.592893e+00
    endloop
  endfacet
  facet normal 0.000000e+00 1.000000e+00 0.000000e+00
    outer loop
      vertex   5.340711e+01 5.000000e+00 -2.592893e+00
      vertex   5.356603e+01 5.000000e+00 -2.800000e+00
      vertex   5.370000e+01 5.000000e+00 -3.300000e+00
    endloop
  endfacet
  facet normal 0.000000e+00 1.000000e+00 0.000000e+00
    outer loop
      vertex   5.370000e+01 5.000000e+00 -3.300000e+00
      vertex   5.356603e+01 5.000000e+00 -2.800000e+00
      vertex   5.366593e+01 5.000000e+00 -3.041181e+00
    endloop
  endfacet
  facet normal 0.000000e+00 1.000000e+00 0.000000e+00
    outer loop
      vertex   5.370000e+01 5.000000e+00 -3.300000e+00
      vertex   5.370000e+01 5.000000e+00 -9.570000e+01
      vertex   5.170000e+01 5.000000e+00 -4.300000e+00
    endloop
  endfacet
  facet normal 0.000000e+00 1.000000e+00 -0.000000e+00
    outer loop
      vertex   5.366593e+01 5.000000e+00 -9.595882e+01
      vertex   5.356603e+01 5.000000e+00 -9.620000e+01
      vertex   5.370000e+01 5.000000e+00 -9.570000e+01
    endloop
  endfacet
  facet normal 0.000000e+00 1.000000e+00 0.000000e+00
    outer loop
      vertex   5.370000e+01 5.000000e+00 -9.570000e+01
      vertex   5.356603e+01 5.000000e+00 -9.620000e+01
      vertex   5.340711e+01 5.000000e+00 -9.640711e+01
    endloop
  endfacet
  facet normal 0.000000e+00 1.000000e+00 0.000000e+00
    outer loop
      vertex   5.370000e+01 5.000000e+00 -9.570000e+01
      vertex   5.340711e+01 5.000000e+00 -9.640711e+01
      vertex   5.320000e+01 5.000000e+00 -9.656603e+01
    endloop
  endfacet
  facet normal 0.000000e+00 1.000000e+00 -0.000000e+00
    outer loop
      vertex   5.320000e+01 5.000000e+00 -9.656603e+01
      vertex   5.295882e+01 5.000000e+00 -9.666593e+01
      vertex   5.370000e+01 5.000000e+00 -9.570000e+01
    endloop
  endfacet
  facet normal 0.000000e+00 1.000000e+00 0.000000e+00
    outer loop
      vertex   5.270000e+01 5.000000e+00 -9.670000e+01
      vertex   3.300000e+00 5.000000e+00 -9.670000e+01
      vertex   5.170000e+01 5.000000e+00 -9.470000e+01
    endloop
  endfacet
  facet normal 0.000000e+00 1.000000e+00 0.000000e+00
    outer loop
      vertex   2.592893e+00 5.000000e+00 -9.640711e+01
      vertex   2.433975e+00 5.000000e+00 -9.620000e+01
      vertex   2.300000e+00 5.000000e+00 -9.570000e+01
    endloop
  endfacet
  facet normal 0.000000e+00 1.000000e+00 0.000000e+00
    outer loop
      vertex   2.300000e+00 5.000000e+00 -9.570000e+01
      vertex   2.433975e+00 5.000000e+00 -9.620000e+01
      vertex   2.334074e+00 5.000000e+00 -9.595882e+01
    endloop
  endfacet
  facet normal 0.000000e+00 1.000000e+00 0.000000e+00
    outer loop
      vertex   2.300000e+00 5.000000e+00 -9.570000e+01
      vertex   2.300000e+00 5.000000e+00 -3.300000e+00
      vertex   4.300000e+00 5.000000e+00 -9.470000e+01
    endloop
  endfacet
  facet normal 9.914449e-01 -3.864352e-17 1.305262e-01
    outer loop
      vertex   5.370000e+01 2.000000e+00 -3.300000e+00
      vertex   5.370000e+01 5.000000e+00 -3.300000e+00
      vertex   5.366593e+01 2.000000e+00 -3.041181e+00
    endloop
  endfacet
  facet normal 9.914449e-01 -1.932176e-17 1.305262e-01
    outer loop
      vertex   5.366593e+01 2.000000e+00 -3.041181e+00
      vertex   5.370000e+01 5.000000e+00 -3.300000e+00
      vertex   5.366593e+01 5.000000e+00 -3.041181e+00
    endloop
  endfacet
  facet normal 9.238795e-01 -5.664853e-17 3.826834e-01
    outer loop
      vertex   5.366593e+01 2.000000e+00 -3.041181e+00
      vertex   5.366593e+01 5.000000e+00 -3.041181e+00
      vertex   5.356603e+01 2.000000e+00 -2.800000e+00
    endloop
  endfacet
  facet normal 9.238795e-01 -1.699456e-16 3.826834e-01
    outer loop
      vertex   5.356603e+01 2.000000e+00 -2.800000e+00
      vertex   5.366593e+01 5.000000e+00 -3.041181e+00
      vertex   5.356603e+01 5.000000e+00 -2.800000e+00
    endloop
  endfacet
  facet normal 7.933533e-01 -2.703444e-16 6.087614e-01
    outer loop
      vertex   5.356603e+01 2.000000e+00 -2.800000e+00
      vertex   5.356603e+01 5.000000e+00 -2.800000e+00
      vertex   5.340711e+01 2.000000e+00 -2.592893e+00
    endloop
  endfacet
  facet normal 7.933533e-01 -9.011479e-17 6.087614e-01
    outer loop
      vertex   5.340711e+01 2.000000e+00 -2.592893e+00
      vertex   5.356603e+01 5.000000e+00 -2.800000e+00
      vertex   5.340711e+01 5.000000e+00 -2.592893e+00
    endloop
  endfacet
  facet normal 6.087614e-01 -1.174399e-16 7.933533e-01
    outer loop
      vertex   5.340711e+01 2.000000e+00 -2.592893e+00
      vertex   5.340711e+01 5.000000e+00 -2.592893e+00
      vertex   5.320000e+01 2.000000e+00 -2.433975e+00
    endloop
  endfacet
  facet normal 6.087614e-01 -0.000000e+00 7.933533e-01
    outer loop
      vertex   5.320000e+01 2.000000e+00 -2.433975e+00
      vertex   5.340711e+01 5.000000e+00 -2.592893e+00
      vertex   5.320000e+01 5.000000e+00 -2.433975e+00
    endloop
  endfacet
  facet normal 3.826834e-01 -0.000000e+00 9.238795e-01
    outer loop
      vertex   5.320000e+01 2.000000e+00 -2.433975e+00
      vertex   5.320000e+01 5.000000e+00 -2.433975e+00
      vertex   5.295882e+01 2.000000e+00 -2.334074e+00
    endloop
  endfacet
  facet normal 3.826834e-01 -0.000000e+00 9.238795e-01
    outer loop
      vertex   5.295882e+01 2.000000e+00 -2.334074e+00
      vertex   5.320000e+01 5.000000e+00 -2.433975e+00
      vertex   5.295882e+01 5.000000e+00 -2.334074e+00
    endloop
  endfacet
  facet normal 1.305262e-01 -0.000000e+00 9.914449e-01
    outer loop
      vertex   5.295882e+01 2.000000e+00 -2.334074e+00
      vertex   5.295882e+01 5.000000e+00 -2.334074e+00
      vertex   5.270000e+01 2.000000e+00 -2.300000e+00
    endloop
  endfacet
  facet normal 1.305262e-01 -2.935266e-16 9.914449e-01
    outer loop
      vertex   5.270000e+01 2.000000e+00 -2.300000e+00
      vertex   5.295882e+01 5.000000e+00 -2.334074e+00
      vertex   5.270000e+01 5.000000e+00 -2.300000e+00
    endloop
  endfacet
  facet normal 1.000000e+00 -0.000000e+00 0.000000e+00
    outer loop
      vertex   5.370000e+01 2.000000e+00 -3.300000e+00
      vertex   5.370000e+01 2.000000e+00 -9.570000e+01
      vertex   5.370000e+01 5.000000e+00 -3.300000e+00
    endloop
  endfacet
  facet normal 1.000000e+00 0.000000e+00 0.000000e+00
    outer loop
      vertex   5.370000e+01 5.000000e+00 -3.300000e+00
      vertex   5.370000e+01 2.000000e+00 -9.570000e+01
      vertex   5.370000e+01 5.000000e+00 -9.570000e+01
    endloop
  endfacet
  facet normal 1.305262e-01 0.000000e+00 -9.914449e-01
    outer loop
      vertex   5.270000e+01 2.000000e+00 -9.670000e+01
      vertex   5.270000e+01 5.000000e+00 -9.670000e+01
      vertex   5.295882e+01 2.000000e+00 -9.666593e+01
    endloop
  endfacet
  facet normal 1.305262e-01 0.000000e+00 -9.914449e-01
    outer loop
      vertex   5.295882e+01 2.000000e+00 -9.666593e+01
      vertex   5.270000e+01 5.000000e+00 -9.670000e+01
      vertex   5.295882e+01 5.000000e+00 -9.666593e+01
    endloop
  endfacet
  facet normal 3.826834e-01 0.000000e+00 -9.238795e-01
    outer loop
      vertex   5.295882e+01 2.000000e+00 -9.666593e+01
      vertex   5.295882e+01 5.000000e+00 -9.666593e+01
      vertex   5.320000e+01 2.000000e+00 -9.656603e+01
    endloop
  endfacet
  facet normal 3.826834e-01 0.000000e+00 -9.238795e-01
    outer loop
      vertex   5.320000e+01 2.000000e+00 -9.656603e+01
      vertex   5.295882e+01 5.000000e+00 -9.666593e+01
      vertex   5.320000e+01 5.000000e+00 -9.656603e+01
    endloop
  endfacet
  facet normal 6.087614e-01 0.000000e+00 -7.933533e-01
    outer loop
      vertex   5.320000e+01 2.000000e+00 -9.656603e+01
      vertex   5.320000e+01 5.000000e+00 -9.656603e+01
      vertex   5.340711e+01 2.000000e+00 -9.640711e+01
    endloop
  endfacet
  facet normal 6.087614e-01 0.000000e+00 -7.933533e-01
    outer loop
      vertex   5.340711e+01 2.000000e+00 -9.640711e+01
      vertex   5.320000e+01 5.000000e+00 -9.656603e+01
      vertex   5.340711e+01 5.000000e+00 -9.640711e+01
    endloop
  endfacet
  facet normal 7.933533e-01 0.000000e+00 -6.087614e-01
    outer loop
      vertex   5.340711e+01 2.000000e+00 -9.640711e+01
      vertex   5.340711e+01 5.000000e+00 -9.640711e+01
      vertex   5.356603e+01 2.000000e+00 -9.620000e+01
    endloop
  endfacet
  facet normal 7.933533e-01 0.000000e+00 -6.087614e-01
    outer loop
      vertex   5.356603e+01 2.000000e+00 -9.620000e+01
      vertex   5.340711e+01 5.000000e+00 -9.640711e+01
      vertex   5.356603e+01 5.000000e+00 -9.620000e+01
    endloop
  endfacet
  facet normal 9.238795e-01 0.000000e+00 -3.826834e-01
    outer loop
      vertex   5.356603e+01 2.000000e+00 -9.620000e+01
      vertex   5.356603e+01 5.000000e+00 -9.620000e+01
      vertex   5.366593e+01 2.000000e+00 -9.595882e+01
    endloop
  endfacet
  facet normal 9.238795e-01 0.000000e+00 -3.826834e-01
    outer loop
      vertex   5.366593e+01 2.000000e+00 -9.595882e+01
      vertex   5.356603e+01 5.000000e+00 -9.620000e+01
      vertex   5.366593e+01 5.000000e+00 -9.595882e+01
    endloop
  endfacet
  facet normal 9.914449e-01 0.000000e+00 -1.305262e-01
    outer loop
      vertex   5.366593e+01 2.000000e+00 -9.595882e+01
      vertex   5.366593e+01 5.000000e+00 -9.595882e+01
      vertex   5.370000e+01 2.000000e+00 -9.570000e+01
    endloop
  endfacet
  facet normal 9.914449e-01 0.000000e+00 -1.305262e-01
    outer loop
      vertex   5.370000e+01 2.000000e+00 -9.570000e+01
      vertex   5.366593e+01 5.000000e+00 -9.595882e+01
      vertex   5.370000e+01 5.000000e+00 -9.570000e+01
    endloop
  endfacet
  facet normal -9.914449e-01 0.000000e+00 -1.305262e-01
    outer loop
      vertex   2.300000e+00 2.000000e+00 -9.570000e+01
      vertex   2.300000e+00 5.000000e+00 -9.570000e+01
      vertex   2.334074e+00 2.000000e+00 -9.595882e+01
    endloop
  endfacet
  facet normal -9.914449e-01 0.000000e+00 -1.305262e-01
    outer loop
      vertex   2.334074e+00 2.000000e+00 -9.595882e+01
      vertex   2.300000e+00 5.000000e+00 -9.570000e+01
      vertex   2.334074e+00 5.000000e+00 -9.595882e+01
    endloop
  endfacet
  facet normal -9.238795e-01 0.000000e+00 -3.826834e-01
    outer loop
      vertex   2.334074e+00 2.000000e+00 -9.595882e+01
      vertex   2.334074e+00 5.000000e+00 -9.595882e+01
      vertex   2.433975e+00 2.000000e+00 -9.620000e+01
    endloop
  endfacet
  facet normal -9.238795e-01 0.000000e+00 -3.826834e-01
    outer loop
      vertex   2.433975e+00 2.000000e+00 -9.620000e+01
      vertex   2.334074e+00 5.000000e+00 -9.595882e+01
      vertex   2.433975e+00 5.000000e+00 -9.620000e+01
    endloop
  endfacet
  facet normal -7.933533e-01 0.000000e+00 -6.087614e-01
    outer loop
      vertex   2.433975e+00 2.000000e+00 -9.620000e+01
      vertex   2.433975e+00 5.000000e+00 -9.620000e+01
      vertex   2.592893e+00 2.000000e+00 -9.640711e+01
    endloop
  endfacet
  facet normal -7.933533e-01 0.000000e+00 -6.087614e-01
    outer loop
      vertex   2.592893e+00 2.000000e+00 -9.640711e+01
      vertex   2.433975e+00 5.000000e+00 -9.620000e+01
      vertex   2.592893e+00 5.000000e+00 -9.640711e+01
    endloop
  endfacet
  facet normal -6.087614e-01 0.000000e+00 -7.933533e-01
    outer loop
      vertex   2.592893e+00 2.000000e+00 -9.640711e+01
      vertex   2.592893e+00 5.000000e+00 -9.640711e+01
      vertex   2.800000e+00 2.000000e+00 -9.656603e+01
    endloop
  endfacet
  facet normal -6.087614e-01 0.000000e+00 -7.933533e-01
    outer loop
      vertex   2.800000e+00 2.000000e+00 -9.656603e+01
      vertex   2.592893e+00 5.000000e+00 -9.640711e+01
      vertex   2.800000e+00 5.000000e+00 -9.656603e+01
    endloop
  endfacet
  facet normal -3.826834e-01 0.000000e+00 -9.238795e-01
    outer loop
      vertex   2.800000e+00 2.000000e+00 -9.656603e+01
      vertex   2.800000e+00 5.000000e+00 -9.656603e+01
      vertex   3.041181e+00 2.000000e+00 -9.666593e+01
    endloop
  endfacet
  facet normal -3.826834e-01 0.000000e+00 -9.238795e-01
    outer loop
      vertex   3.041181e+00 2.000000e+00 -9.666593e+01
      vertex   2.800000e+00 5.000000e+00 -9.656603e+01
      vertex   3.041181e+00 5.000000e+00 -9.666593e+01
    endloop
  endfacet
  facet normal -1.305262e-01 0.000000e+00 -9.914449e-01
    outer loop
      vertex   3.041181e+00 2.000000e+00 -9.666593e+01
      vertex   3.041181e+00 5.000000e+00 -9.666593e+01
      vertex   3.300000e+00 2.000000e+00 -9.670000e+01
    endloop
  endfacet
  facet normal -1.305262e-01 0.000000e+00 -9.914449e-01
    outer loop
      vertex   3.300000e+00 2.000000e+00 -9.670000e+01
      vertex   3.041181e+00 5.000000e+00 -9.666593e+01
      vertex   3.300000e+00 5.000000e+00 -9.670000e+01
    endloop
  endfacet
  facet normal -1.000000e+00 0.000000e+00 0.000000e+00
    outer loop
      vertex   5.170000e+01 2.000000e+00 -9.470000e+01
      vertex   5.170000e+01 2.000000e+00 -4.300000e+00
      vertex   5.170000e+01 5.000000e+00 -9.470000e+01
    endloop
  endfacet
  facet normal -1.000000e+00 0.000000e+00 0.000000e+00
    outer loop
      vertex   5.170000e+01 5.000000e+00 -9.470000e+01
      vertex   5.170000e+01 2.000000e+00 -4.300000e+00
      vertex   5.170000e+01 5.000000e+00 -4.300000e+00
    endloop
  endfacet
  facet normal 0.000000e+00 -0.000000e+00 1.000000e+00
    outer loop
      vertex   4.300000e+00 2.000000e+00 -9.470000e+01
      vertex   5.170000e+01 2.000000e+00 -9.470000e+01
      vertex   4.300000e+00 5.000000e+00 -9.470000e+01
    endloop
  endfacet
  facet normal -0.000000e+00 0.000000e+00 1.000000e+00
    outer loop
      vertex   4.300000e+00 5.000000e+00 -9.470000e+01
      vertex   5.170000e+01 2.000000e+00 -9.470000e+01
      vertex   5.170000e+01 5.000000e+00 -9.470000e+01
    endloop
  endfacet
  facet normal 1.000000e+00 8.881784e-16 0.000000e+00
    outer loop
      vertex   4.300000e+00 2.000000e+00 -4.300000e+00
      vertex   4.300000e+00 2.000000e+00 -9.470000e+01
      vertex   4.300000e+00 5.000000e+00 -4.300000e+00
    endloop
  endfacet
  facet normal 1.000000e+00 8.881784e-16 0.000000e+00
    outer loop
      vertex   4.300000e+00 5.000000e+00 -4.300000e+00
      vertex   4.300000e+00 2.000000e+00 -9.470000e+01
      vertex   4.300000e+00 5.000000e+00 -9.470000e+01
    endloop
  endfacet
  facet normal 1.124276e-16 0.000000e+00 -1.000000e+00
    outer loop
      vertex   5.170000e+01 2.000000e+00 -4.300000e+00
      vertex   4.300000e+00 2.000000e+00 -4.300000e+00
      vertex   5.170000e+01 5.000000e+00 -4.300000e+00
    endloop
  endfacet
  facet normal 1.124276e-16 0.000000e+00 -1.000000e+00
    outer loop
      vertex   5.170000e+01 5.000000e+00 -4.300000e+00
      vertex   4.300000e+00 2.000000e+00 -4.300000e+00
      vertex   4.300000e+00 5.000000e+00 -4.300000e+00
    endloop
  endfacet
  facet normal -8.989660e-17 -2.960595e-16 1.000000e+00
    outer loop
      vertex   3.300000e+00 2.000000e+00 -2.300000e+00
      vertex   5.270000e+01 2.000000e+00 -2.300000e+00
      vertex   3.300000e+00 5.000000e+00 -2.300000e+00
    endloop
  endfacet
  facet normal -8.989660e-17 -2.960595e-16 1.000000e+00
    outer loop
      vertex   3.300000e+00 5.000000e+00 -2.300000e+00
      vertex   5.270000e+01 2.000000e+00 -2.300000e+00
      vertex   5.270000e+01 5.000000e+00 -2.300000e+00
    endloop
  endfacet
  facet normal 0.000000e+00 0.000000e+00 -1.000000e+00
    outer loop
      vertex   5.270000e+01 2.000000e+00 -9.670000e+01
      vertex   3.300000e+00 2.000000e+00 -9.670000e+01
      vertex   5.270000e+01 5.000000e+00 -9.670000e+01
    endloop
  endfacet
  facet normal -0.000000e+00 0.000000e+00 -1.000000e+00
    outer loop
      vertex   5.270000e+01 5.000000e+00 -9.670000e+01
      vertex   3.300000e+00 2.000000e+00 -9.670000e+01
      vertex   3.300000e+00 5.000000e+00 -9.670000e+01
    endloop
  endfacet
  facet normal 0.000000e+00 1.000000e+00 0.000000e+00
    outer loop
      vertex   0.000000e+00 2.000000e+00 0.000000e+00
      vertex   2.300000e+00 2.000000e+00 -9.570000e+01
      vertex   -9.860761e-31 2.000000e+00 -9.900000e+01
    endloop
  endfacet
  facet normal 0.000000e+00 1.000000e+00 0.000000e+00
    outer loop
      vertex   -9.860761e-31 2.000000e+00 -9.900000e+01
      vertex   2.300000e+00 2.000000e+00 -9.570000e+01
      vertex   2.334074e+00 2.000000e+00 -9.595882e+01
    endloop
  endfacet
  facet normal 0.000000e+00 1.000000e+00 0.000000e+00
    outer loop
      vertex   -9.860761e-31 2.000000e+00 -9.900000e+01
      vertex   2.334074e+00 2.000000e+00 -9.595882e+01
      vertex   2.433975e+00 2.000000e+00 -9.620000e+01
    endloop
  endfacet
  facet normal 0.000000e+00 1.000000e+00 0.000000e+00
    outer loop
      vertex   5.600000e+01 2.000000e+00 0.000000e+00
      vertex   5.270000e+01 2.000000e+00 -2.300000e+00
      vertex   0.000000e+00 2.000000e+00 0.000000e+00
    endloop
  endfacet
  facet normal 0.000000e+00 1.000000e+00 0.000000e+00
    outer loop
      vertex   0.000000e+00 2.000000e+00 0.000000e+00
      vertex   5.270000e+01 2.000000e+00 -2.300000e+00
      vertex   3.300000e+00 2.000000e+00 -2.300000e+00
    endloop
  endfacet
  facet normal 0.000000e+00 1.000000e+00 0.000000e+00
    outer loop
      vertex   0.000000e+00 2.000000e+00 0.000000e+00
      vertex   3.300000e+00 2.000000e+00 -2.300000e+00
      vertex   3.041181e+00 2.000000e+00 -2.334074e+00
    endloop
  endfacet
  facet normal 0.000000e+00 1.000000e+00 -0.000000e+00
    outer loop
      vertex   5.600000e+01 2.000000e+00 -9.900000e+01
      vertex   5.370000e+01 2.000000e+00 -3.300000e+00
      vertex   5.600000e+01 2.000000e+00 0.000000e+00
    endloop
  endfacet
  facet normal 0.000000e+00 1.000000e+00 0.000000e+00
    outer loop
      vertex   5.600000e+01 2.000000e+00 0.000000e+00
      vertex   5.370000e+01 2.000000e+00 -3.300000e+00
      vertex   5.366593e+01 2.000000e+00 -3.041181e+00
    endloop
  endfacet
  facet normal 0.000000e+00 1.000000e+00 0.000000e+00
    outer loop
      vertex   5.600000e+01 2.000000e+00 0.000000e+00
      vertex   5.366593e+01 2.000000e+00 -3.041181e+00
      vertex   5.356603e+01 2.000000e+00 -2.800000e+00
    endloop
  endfacet
  facet normal 0.000000e+00 1.000000e+00 0.000000e+00
    outer loop
      vertex   -9.860761e-31 2.000000e+00 -9.900000e+01
      vertex   5.270000e+01 2.000000e+00 -9.670000e+01
      vertex   5.600000e+01 2.000000e+00 -9.900000e+01
    endloop
  endfacet
  facet normal 0.000000e+00 1.000000e+00 0.000000e+00
    outer loop
      vertex   5.600000e+01 2.000000e+00 -9.900000e+01
      vertex   5.270000e+01 2.000000e+00 -9.670000e+01
      vertex   5.295882e+01 2.000000e+00 -9.666593e+01
    endloop
  endfacet
  facet normal 0.000000e+00 1.000000e+00 0.000000e+00
    outer loop
      vertex   5.600000e+01 2.000000e+00 -9.900000e+01
      vertex   5.295882e+01 2.000000e+00 -9.666593e+01
      vertex   5.320000e+01 2.000000e+00 -9.656603e+01
    endloop
  endfacet
  facet normal -0.000000e+00 1.000000e+00 0.000000e+00
    outer loop
      vertex   5.366593e+01 2.000000e+00 -9.595882e+01
      vertex   5.370000e+01 2.000000e+00 -9.570000e+01
      vertex   5.600000e+01 2.000000e+00 -9.900000e+01
    endloop
  endfacet
  facet normal 0.000000e+00 1.000000e+00 0.000000e+00
    outer loop
      vertex   5.600000e+01 2.000000e+00 -9.900000e+01
      vertex   5.370000e+01 2.000000e+00 -9.570000e+01
      vertex   5.370000e+01 2.000000e+00 -3.300000e+00
    endloop
  endfacet
  facet normal 0.000000e+00 1.000000e+00 -0.000000e+00
    outer loop
      vertex   5.356603e+01 2.000000e+00 -2.800000e+00
      vertex   5.340711e+01 2.000000e+00 -2.592893e+00
      vertex   5.600000e+01 2.000000e+00 0.000000e+00
    endloop
  endfacet
  facet normal 0.000000e+00 1.000000e+00 0.000000e+00
    outer loop
      vertex   5.600000e+01 2.000000e+00 0.000000e+00
      vertex   5.340711e+01 2.000000e+00 -2.592893e+00
      vertex   5.320000e+01 2.000000e+00 -2.433975e+00
    endloop
  endfacet
  facet normal 0.000000e+00 1.000000e+00 0.000000e+00
    outer loop
      vertex   5.600000e+01 2.000000e+00 0.000000e+00
      vertex   5.320000e+01 2.000000e+00 -2.433975e+00
      vertex   5.295882e+01 2.000000e+00 -2.334074e+00
    endloop
  endfacet
  facet normal 0.000000e+00 1.000000e+00 -0.000000e+00
    outer loop
      vertex   5.295882e+01 2.000000e+00 -2.334074e+00
      vertex   5.270000e+01 2.000000e+00 -2.300000e+00
      vertex   5.600000e+01 2.000000e+00 0.000000e+00
    endloop
  endfacet
  facet normal 0.000000e+00 1.000000e+00 0.000000e+00
    outer loop
      vertex   3.041181e+00 2.000000e+00 -2.334074e+00
      vertex   2.800000e+00 2.000000e+00 -2.433975e+00
      vertex   0.000000e+00 2.000000e+00 0.000000e+00
    endloop
  endfacet
  facet normal 0.000000e+00 1.000000e+00 0.000000e+00
    outer loop
      vertex   0.000000e+00 2.000000e+00 0.000000e+00
      vertex   2.800000e+00 2.000000e+00 -2.433975e+00
      vertex   2.592893e+00 2.000000e+00 -2.592893e+00
    endloop
  endfacet
  facet normal 0.000000e+00 1.000000e+00 0.000000e+00
    outer loop
      vertex   0.000000e+00 2.000000e+00 0.000000e+00
      vertex   2.592893e+00 2.000000e+00 -2.592893e+00
      vertex   2.433975e+00 2.000000e+00 -2.800000e+00
    endloop
  endfacet
  facet normal 0.000000e+00 1.000000e+00 0.000000e+00
    outer loop
      vertex   2.433975e+00 2.000000e+00 -2.800000e+00
      vertex   2.334074e+00 2.000000e+00 -3.041181e+00
      vertex   0.000000e+00 2.000000e+00 0.000000e+00
    endloop
  endfacet
  facet normal 0.000000e+00 1.000000e+00 0.000000e+00
    outer loop
      vertex   0.000000e+00 2.000000e+00 0.000000e+00
      vertex   2.334074e+00 2.000000e+00 -3.041181e+00
      vertex   2.300000e+00 2.000000e+00 -3.300000e+00
    endloop
  endfacet
  facet normal 0.000000e+00 1.000000e+00 0.000000e+00
    outer loop
      vertex   0.000000e+00 2.000000e+00 0.000000e+00
      vertex   2.300000e+00 2.000000e+00 -3.300000e+00
      vertex   2.300000e+00 2.000000e+00 -9.570000e+01
    endloop
  endfacet
  facet normal 0.000000e+00 1.000000e+00 0.000000e+00
    outer loop
      vertex   2.433975e+00 2.000000e+00 -9.620000e+01
      vertex   2.592893e+00 2.000000e+00 -9.640711e+01
      vertex   -9.860761e-31 2.000000e+00 -9.900000e+01
    endloop
  endfacet
  facet normal 0.000000e+00 1.000000e+00 0.000000e+00
    outer loop
      vertex   -9.860761e-31 2.000000e+00 -9.900000e+01
      vertex   2.592893e+00 2.000000e+00 -9.640711e+01
      vertex   2.800000e+00 2.000000e+00 -9.656603e+01
    endloop
  endfacet
  facet normal 0.000000e+00 1.000000e+00 0.000000e+00
    outer loop
      vertex   -9.860761e-31 2.000000e+00 -9.900000e+01
      vertex   2.800000e+00 2.000000e+00 -9.656603e+01
      vertex   3.041181e+00 2.000000e+00 -9.666593e+01
    endloop
  endfacet
  facet normal 0.000000e+00 1.000000e+00 0.000000e+00
    outer loop
      vertex   3.041181e+00 2.000000e+00 -9.666593e+01
      vertex   3.300000e+00 2.000000e+00 -9.670000e+01
      vertex   -9.860761e-31 2.000000e+00 -9.900000e+01
    endloop
  endfacet
  facet normal 0.000000e+00 1.000000e+00 0.000000e+00
    outer loop
      vertex   -9.860761e-31 2.000000e+00 -9.900000e+01
      vertex   3.300000e+00 2.000000e+00 -9.670000e+01
      vertex   5.270000e+01 2.000000e+00 -9.670000e+01
    endloop
  endfacet
  facet normal -0.000000e+00 1.000000e+00 0.000000e+00
    outer loop
      vertex   5.320000e+01 2.000000e+00 -9.656603e+01
      vertex   5.340711e+01 2.000000e+00 -9.640711e+01
      vertex   5.600000e+01 2.000000e+00 -9.900000e+01
    endloop
  endfacet
  facet normal 0.000000e+00 1.000000e+00 0.000000e+00
    outer loop
      vertex   5.600000e+01 2.000000e+00 -9.900000e+01
      vertex   5.340711e+01 2.000000e+00 -9.640711e+01
      vertex   5.356603e+01 2.000000e+00 -9.620000e+01
    endloop
  endfacet
  facet normal 0.000000e+00 1.000000e+00 0.000000e+00
    outer loop
      vertex   5.600000e+01 2.000000e+00 -9.900000e+01
      vertex   5.356603e+01 2.000000e+00 -9.620000e+01
      vertex   5.366593e+01 2.000000e+00 -9.595882e+01
    endloop
  endfacet
  facet normal 0.000000e+00 0.000000e+00 -1.000000e+00
    outer loop
      vertex   5.600000e+01 0.000000e+00 -9.900000e+01
      vertex   -9.860761e-31 0.000000e+00 -9.900000e+01
      vertex   5.600000e+01 2.000000e+00 -9.900000e+01
    endloop
  endfacet
  facet normal -0.000000e+00 0.000000e+00 -1.000000e+00
    outer loop
      vertex   5.600000e+01 2.000000e+00 -9.900000e+01
      vertex   -9.860761e-31 0.000000e+00 -9.900000e+01
      vertex   -9.860761e-31 2.000000e+00 -9.900000e+01
    endloop
  endfacet
  facet normal 1.000000e+00 0.000000e+00 0.000000e+00
    outer loop
      vertex   5.600000e+01 0.000000e+00 4.930381e-31
      vertex   5.600000e+01 0.000000e+00 -9.900000e+01
      vertex   5.600000e+01 2.000000e+00 0.000000e+00
    endloop
  endfacet
  facet normal 1.000000e+00 0.000000e+00 0.000000e+00
    outer loop
      vertex   5.600000e+01 2.000000e+00 0.000000e+00
      vertex   5.600000e+01 0.000000e+00 -9.900000e+01
      vertex   5.600000e+01 2.000000e+00 -9.900000e+01
    endloop
  endfacet
  facet normal -8.804251e-33 0.000000e+00 1.000000e+00
    outer loop
      vertex   0.000000e+00 0.000000e+00 0.000000e+00
      vertex   5.600000e+01 0.000000e+00 4.930381e-31
      vertex   0.000000e+00 2.000000e+00 0.000000e+00
    endloop
  endfacet
  facet normal -0.000000e+00 2.465190e-31 1.000000e+00
    outer loop
      vertex   0.000000e+00 2.000000e+00 0.000000e+00
      vertex   5.600000e+01 0.000000e+00 4.930381e-31
      vertex   5.600000e+01 2.000000e+00 0.000000e+00
    endloop
  endfacet
  facet normal -1.000000e+00 0.000000e+00 9.960365e-33
    outer loop
      vertex   -9.860761e-31 0.000000e+00 -9.900000e+01
      vertex   0.000000e+00 0.000000e+00 0.000000e+00
      vertex   -9.860761e-31 2.000000e+00 -9.900000e+01
    endloop
  endfacet
  facet normal -1.000000e+00 0.000000e+00 9.960365e-33
    outer loop
      vertex   -9.860761e-31 2.000000e+00 -9.900000e+01
      vertex   0.000000e+00 0.000000e+00 0.000000e+00
      vertex   0.000000e+00 2.000000e+00 0.000000e+00
    endloop
  endfacet
  facet normal 0.000000e+00 1.000000e+00 0.000000e+00
    outer loop
      vertex   5.170000e+01 2.000000e+00 -4.300000e+00
      vertex   5.170000e+01 2.000000e+00 -9.470000e+01
      vertex   4.300000e+00 2.000000e+00 -4.300000e+00
    endloop
  endfacet
  facet normal 0.000000e+00 1.000000e+00 0.000000e+00
    outer loop
      vertex   4.300000e+00 2.000000e+00 -4.300000e+00
      vertex   5.170000e+01 2.000000e+00 -9.470000e+01
      vertex   4.300000e+00 2.000000e+00 -9.470000e+01
    endloop
  endfacet
  facet normal 0.000000e+00 -1.000000e+00 0.000000e+00
    outer loop
      vertex   -9.860761e-31 0.000000e+00 -9.900000e+01
      vertex   5.600000e+01 0.000000e+00 -9.900000e+01
      vertex   0.000000e+00 0.000000e+00 0.000000e+00
    endloop
  endfacet
  facet normal 0.000000e+00 -1.000000e+00 0.000000e+00
    outer loop
      vertex   0.000000e+00 0.000000e+00 0.000000e+00
      vertex   5.600000e+01 0.000000e+00 -9.900000e+01
      vertex   5.600000e+01 0.000000e+00 4.930381e-31
    endloop
  endfacet
endsolid
