M48
; DRILL file {KiCad 8.0.6} date 2025-08-05T17:27:02-0500
; FORMAT={-:-/ absolute / inch / decimal}
; #@! TF.CreationDate,2025-08-05T17:27:02-05:00
; #@! TF.GenerationSoftware,Kicad,Pcbnew,8.0.6
; #@! TF.FileFunction,Plated,1,2,PTH
FMAT,2
INCH
; #@! TA.AperFunction,Plated,PTH,ViaDrill
T1C0.0157
; #@! TA.AperFunction,Plated,PTH,ComponentDrill
T2C0.0315
; #@! TA.AperFunction,Plated,PTH,ComponentDrill
T3C0.0354
; #@! TA.AperFunction,Plated,PTH,ComponentDrill
T4C0.0394
; #@! TA.AperFunction,Plated,PTH,ComponentDrill
T5C0.0512
; #@! TA.AperFunction,Plated,PTH,ComponentDrill
T6C0.0520
%
G90
G05
T1
X4.7008Y-2.6093
X4.7677Y-2.6919
X4.8937Y-2.4045
X4.9695Y-2.3022
X5.0512Y-2.9715
X5.1181Y-3.0876
X5.1695Y-2.1132
X5.3189Y-1.9715
X5.3386Y-1.8888
X5.4291Y-3.6093
X5.4291Y-4.4124
X5.4685Y-2.4045
X5.4921Y-2.0463
X5.5Y-1.8888
X5.5276Y-2.6821
X5.6299Y-2.6093
X5.6695Y-2.303
X5.689Y-2.1053
X5.7165Y-2.4596
X5.7913Y-3.5246
X5.9016Y-2.8691
X5.9016Y-3.0994
X6.0315Y-2.0443
X6.0394Y-4.4596
X6.0866Y-1.9715
X6.2047Y-1.9675
X6.2323Y-4.0069
X6.2913Y-2.562
X6.2913Y-2.936
X6.3031Y-3.9478
X6.378Y-3.9026
X6.437Y-4.2116
X6.437Y-4.4596
X6.4528Y-4.0974
X6.5405Y-3.5235
X6.5669Y-4.0955
T2
X4.9695Y-2.2156
X4.9695Y-2.5156
X5.0695Y-2.2156
X5.0695Y-2.5156
X5.1417Y-4.3604
X5.1417Y-4.6604
X5.1695Y-2.2156
X5.1695Y-2.5156
X5.2008Y-1.8061
X5.2695Y-2.2156
X5.2695Y-2.5156
X5.3008Y-1.8061
X5.3386Y-4.3565
X5.3386Y-4.6565
X5.3465Y-3.0136
X5.3465Y-3.1136
X5.3465Y-3.2136
X5.3695Y-2.2156
X5.3695Y-2.5156
X5.4008Y-1.8061
X5.4695Y-2.2156
X5.4695Y-2.5156
X5.4894Y-3.0404
X5.4894Y-3.186
X5.5008Y-1.8061
X5.5315Y-4.3565
X5.5315Y-4.6565
X5.5695Y-2.2156
X5.5695Y-2.5156
X5.589Y-4.1821
X5.6008Y-1.8061
X5.6695Y-2.2156
X5.6695Y-2.5156
X5.689Y-4.1821
X5.7008Y-1.8061
X5.7323Y-4.3604
X5.7323Y-4.6604
X5.789Y-4.1821
X5.7894Y-3.0404
X5.7894Y-3.186
X5.8008Y-1.8061
X5.9008Y-1.8061
X6.0008Y-1.8061
X6.0394Y-4.3565
X6.0394Y-4.6565
X6.0726Y-4.1722
X6.1008Y-1.8061
X6.1063Y-3.0175
X6.1063Y-3.1175
X6.1063Y-3.2175
X6.1726Y-4.1722
X6.2433Y-3.0325
X6.2516Y-3.1978
X6.2726Y-4.1722
X6.437Y-4.3604
X6.437Y-4.6604
X6.5433Y-3.0325
X6.5516Y-3.1978
T3
X5.1417Y-4.7484
X5.1417Y-4.8484
X5.3386Y-4.7465
X5.3386Y-4.8465
X5.5315Y-4.7465
X5.5315Y-4.8465
X5.7323Y-4.7504
X5.7323Y-4.8504
X6.0394Y-4.7465
X6.0394Y-4.8465
X6.437Y-4.7504
X6.437Y-4.8504
T4
X5.3169Y-3.4203
X5.7894Y-3.4203
X6.0728Y-3.4242
X6.5453Y-3.4242
T5
X5.3169Y-3.9006
X5.5551Y-3.3435
X5.7913Y-3.9026
X6.0728Y-3.9045
X6.311Y-3.3474
X6.5472Y-3.9065
T6
X4.7441Y-5.188
X4.9409Y-5.188
X5.1417Y-5.188
X5.3386Y-5.188
X5.5339Y-5.188
X5.7346Y-5.1919
X5.9409Y-5.188
X6.1378Y-5.188
X6.3386Y-5.188
X6.5354Y-5.188
M30
