%TF.GenerationSoftware,KiCad,Pcbnew,8.0.6*%
%TF.CreationDate,2025-08-05T17:19:42-05:00*%
%TF.ProjectId,PPDuino Nano Entradas,50504475-696e-46f2-904e-616e6f20456e,rev?*%
%TF.SameCoordinates,Original*%
%TF.FileFunction,Copper,L1,Top*%
%TF.FilePolarity,Positive*%
%FSLAX46Y46*%
G04 Gerber Fmt 4.6, Leading zero omitted, Abs format (unit mm)*
G04 Created by KiCad (PCBNEW 8.0.6) date 2025-08-05 17:19:42*
%MOMM*%
%LPD*%
G01*
G04 APERTURE LIST*
%TA.AperFunction,ComponentPad*%
%ADD10C,1.600000*%
%TD*%
%TA.AperFunction,ComponentPad*%
%ADD11O,1.600000X1.600000*%
%TD*%
%TA.AperFunction,ComponentPad*%
%ADD12R,1.600000X1.600000*%
%TD*%
%TA.AperFunction,ComponentPad*%
%ADD13R,1.800000X1.800000*%
%TD*%
%TA.AperFunction,ComponentPad*%
%ADD14C,1.800000*%
%TD*%
%TA.AperFunction,ComponentPad*%
%ADD15R,1.980000X3.960000*%
%TD*%
%TA.AperFunction,ComponentPad*%
%ADD16O,1.980000X3.960000*%
%TD*%
%TA.AperFunction,ComponentPad*%
%ADD17R,1.500000X1.500000*%
%TD*%
%TA.AperFunction,ComponentPad*%
%ADD18C,1.500000*%
%TD*%
%TA.AperFunction,ComponentPad*%
%ADD19R,1.700000X1.700000*%
%TD*%
%TA.AperFunction,ComponentPad*%
%ADD20O,1.700000X1.700000*%
%TD*%
%TA.AperFunction,ViaPad*%
%ADD21C,1.500000*%
%TD*%
%TA.AperFunction,Conductor*%
%ADD22C,1.000000*%
%TD*%
%TA.AperFunction,Conductor*%
%ADD23C,0.800000*%
%TD*%
%TA.AperFunction,Conductor*%
%ADD24C,0.600000*%
%TD*%
G04 APERTURE END LIST*
D10*
%TO.P,R3,1*%
%TO.N,GND*%
X151100000Y-106510000D03*
D11*
%TO.P,R3,2*%
%TO.N,/DI3m*%
X151100000Y-98890000D03*
%TD*%
D10*
%TO.P,R7,1*%
%TO.N,/DI1*%
X137800000Y-89020000D03*
D11*
%TO.P,R7,2*%
%TO.N,Net-(D2-A)*%
X137800000Y-81400000D03*
%TD*%
D10*
%TO.P,R9,1*%
%TO.N,/DI1*%
X141000000Y-81380000D03*
D11*
%TO.P,R9,2*%
%TO.N,Net-(Q2-B)*%
X141000000Y-89000000D03*
%TD*%
D10*
%TO.P,R5,1*%
%TO.N,/DI2*%
X147400000Y-81380000D03*
D11*
%TO.P,R5,2*%
%TO.N,Net-(Q3-B)*%
X147400000Y-89000000D03*
%TD*%
D10*
%TO.P,R4,1*%
%TO.N,/DI2*%
X144200000Y-89000000D03*
D11*
%TO.P,R4,2*%
%TO.N,Net-(D3-A)*%
X144200000Y-81380000D03*
%TD*%
D10*
%TO.P,R10,1*%
%TO.N,/DI0*%
X134600000Y-81400000D03*
D11*
%TO.P,R10,2*%
%TO.N,Net-(Q1-B)*%
X134600000Y-89020000D03*
%TD*%
D10*
%TO.P,R1,1*%
%TO.N,/DI3*%
X150600000Y-89020000D03*
D11*
%TO.P,R1,2*%
%TO.N,Net-(D4-A)*%
X150600000Y-81400000D03*
%TD*%
D10*
%TO.P,R15,1*%
%TO.N,/AI0*%
X160300000Y-81290000D03*
D11*
%TO.P,R15,2*%
%TO.N,/AI0m*%
X160300000Y-88910000D03*
%TD*%
D10*
%TO.P,R13,1*%
%TO.N,+5V*%
X157100000Y-88910000D03*
D11*
%TO.P,R13,2*%
%TO.N,Net-(D5-A)*%
X157100000Y-81290000D03*
%TD*%
D12*
%TO.P,D6,1,K*%
%TO.N,/AI0m*%
X169600000Y-88810000D03*
D11*
%TO.P,D6,2,A*%
%TO.N,GND*%
X169600000Y-81190000D03*
%TD*%
D13*
%TO.P,D3,1,K*%
%TO.N,GND*%
X143500000Y-74725000D03*
D14*
%TO.P,D3,2,A*%
%TO.N,Net-(D3-A)*%
X143500000Y-77265000D03*
%TD*%
D15*
%TO.P,J10,1,Pin_1*%
%TO.N,GND*%
X128265000Y-66057500D03*
D16*
%TO.P,J10,2,Pin_2*%
%TO.N,VDD*%
X123265000Y-66057500D03*
%TD*%
D10*
%TO.P,R6,1*%
%TO.N,GND*%
X143600000Y-106500000D03*
D11*
%TO.P,R6,2*%
%TO.N,/DI2m*%
X143600000Y-98880000D03*
%TD*%
D17*
%TO.P,Q4,1,C*%
%TO.N,+5V*%
X156150000Y-93550000D03*
D18*
%TO.P,Q4,2,B*%
%TO.N,Net-(Q4-B)*%
X153610000Y-93550000D03*
%TO.P,Q4,3,E*%
%TO.N,/DI3m*%
X151070000Y-93550000D03*
%TD*%
D15*
%TO.P,J3,1,Pin_1*%
%TO.N,/AI1*%
X168660000Y-66090000D03*
D16*
%TO.P,J3,2,Pin_2*%
%TO.N,/AI0*%
X163660000Y-66090000D03*
%TO.P,J3,3,Pin_3*%
%TO.N,+5V*%
X158700000Y-66090000D03*
%TO.P,J3,4,Pin_4*%
%TO.N,GND*%
X153600000Y-65990000D03*
%TD*%
D15*
%TO.P,J2,1,Pin_1*%
%TO.N,/DI3*%
X148460000Y-66090000D03*
D16*
%TO.P,J2,2,Pin_2*%
%TO.N,/DI2*%
X143460000Y-66090000D03*
%TO.P,J2,3,Pin_3*%
%TO.N,/DI1*%
X138500000Y-66090000D03*
%TO.P,J2,4,Pin_4*%
%TO.N,/DI0*%
X133400000Y-65990000D03*
%TD*%
D17*
%TO.P,Q1,1,C*%
%TO.N,+5V*%
X133450000Y-93550000D03*
D18*
%TO.P,Q1,2,B*%
%TO.N,Net-(Q1-B)*%
X130910000Y-93550000D03*
%TO.P,Q1,3,E*%
%TO.N,/DI0m*%
X128370000Y-93550000D03*
%TD*%
D10*
%TO.P,R12,1*%
%TO.N,GND*%
X128400000Y-106610000D03*
D11*
%TO.P,R12,2*%
%TO.N,/DI0m*%
X128400000Y-98990000D03*
%TD*%
D10*
%TO.P,R16,1*%
%TO.N,/AI1m*%
X163600000Y-91900000D03*
D11*
%TO.P,R16,2*%
%TO.N,GND*%
X163600000Y-99520000D03*
%TD*%
D10*
%TO.P,R17,1*%
%TO.N,/AI1*%
X163600000Y-81290000D03*
D11*
%TO.P,R17,2*%
%TO.N,/AI1m*%
X163600000Y-88910000D03*
%TD*%
D12*
%TO.P,D7,1,K*%
%TO.N,/AI1m*%
X166800000Y-88810000D03*
D11*
%TO.P,D7,2,A*%
%TO.N,GND*%
X166800000Y-81190000D03*
%TD*%
D13*
%TO.P,D4,1,K*%
%TO.N,GND*%
X148400000Y-74766421D03*
D14*
%TO.P,D4,2,A*%
%TO.N,Net-(D4-A)*%
X148400000Y-77306421D03*
%TD*%
D13*
%TO.P,D5,1,K*%
%TO.N,GND*%
X161300000Y-74615000D03*
D14*
%TO.P,D5,2,A*%
%TO.N,Net-(D5-A)*%
X161300000Y-77155000D03*
%TD*%
D10*
%TO.P,R14,1*%
%TO.N,/AI0m*%
X160300000Y-91900000D03*
D11*
%TO.P,R14,2*%
%TO.N,GND*%
X160300000Y-99520000D03*
%TD*%
D13*
%TO.P,D1,1,K*%
%TO.N,GND*%
X133400000Y-74725000D03*
D14*
%TO.P,D1,2,A*%
%TO.N,Net-(D1-A)*%
X133400000Y-77265000D03*
%TD*%
D17*
%TO.P,Q2,1,C*%
%TO.N,+5V*%
X141050000Y-93550000D03*
D18*
%TO.P,Q2,2,B*%
%TO.N,Net-(Q2-B)*%
X138510000Y-93550000D03*
%TO.P,Q2,3,E*%
%TO.N,/DI1m*%
X135970000Y-93550000D03*
%TD*%
D17*
%TO.P,Q3,1,C*%
%TO.N,+5V*%
X148650000Y-93550000D03*
D18*
%TO.P,Q3,2,B*%
%TO.N,Net-(Q3-B)*%
X146110000Y-93550000D03*
%TO.P,Q3,3,E*%
%TO.N,/DI2m*%
X143570000Y-93550000D03*
%TD*%
D10*
%TO.P,R2,1*%
%TO.N,/DI3*%
X153800000Y-81400000D03*
D11*
%TO.P,R2,2*%
%TO.N,Net-(Q4-B)*%
X153800000Y-89020000D03*
%TD*%
D13*
%TO.P,D2,1,K*%
%TO.N,GND*%
X138500000Y-74725000D03*
D14*
%TO.P,D2,2,A*%
%TO.N,Net-(D2-A)*%
X138500000Y-77265000D03*
%TD*%
D19*
%TO.P,J11,1,Pin_1*%
%TO.N,GND*%
X157220000Y-117890000D03*
D20*
%TO.P,J11,2,Pin_2*%
%TO.N,VDD*%
X154680000Y-117890000D03*
%TO.P,J11,3,Pin_3*%
%TO.N,GND*%
X152140000Y-117890000D03*
%TO.P,J11,4,Pin_4*%
%TO.N,+5V*%
X149600000Y-117890000D03*
%TO.P,J11,5,Pin_5*%
%TO.N,/AI1m*%
X147060000Y-117890000D03*
%TO.P,J11,6,Pin_6*%
%TO.N,/AI0m*%
X144520000Y-117890000D03*
%TO.P,J11,7,Pin_7*%
%TO.N,/DI3m*%
X141980000Y-117890000D03*
%TO.P,J11,8,Pin_8*%
%TO.N,/DI2m*%
X139440000Y-117890000D03*
%TO.P,J11,9,Pin_9*%
%TO.N,/DI1m*%
X136900000Y-117890000D03*
%TO.P,J11,10,Pin_10*%
%TO.N,/DI0m*%
X134360000Y-117890000D03*
%TD*%
D10*
%TO.P,R8,1*%
%TO.N,/DI0*%
X131400000Y-89020000D03*
D11*
%TO.P,R8,2*%
%TO.N,Net-(D1-A)*%
X131400000Y-81400000D03*
%TD*%
D10*
%TO.P,R11,1*%
%TO.N,GND*%
X135900000Y-106510000D03*
D11*
%TO.P,R11,2*%
%TO.N,/DI1m*%
X135900000Y-98890000D03*
%TD*%
D21*
%TO.N,GND*%
X143600000Y-104700000D03*
X151100000Y-104700000D03*
X135900000Y-104700000D03*
X137700000Y-104700000D03*
X145500000Y-104700000D03*
X128400000Y-104700000D03*
%TO.N,+5V*%
X153800000Y-97000000D03*
X141100000Y-97000000D03*
X148600000Y-97000000D03*
X146100000Y-97000000D03*
X158700000Y-83200000D03*
X133500000Y-97000000D03*
X138400000Y-97000000D03*
X158700000Y-69000000D03*
%TO.N,/AI1m*%
X154200000Y-111600000D03*
X147000000Y-111600000D03*
%TO.N,/DI0*%
X136000000Y-78390000D03*
X136000000Y-72090000D03*
%TO.N,/DI3*%
X150950000Y-72040000D03*
X151000000Y-78390000D03*
%TO.N,/DI1*%
X141000000Y-78390000D03*
X141000000Y-72090000D03*
%TO.N,/DI2*%
X145900000Y-72090000D03*
X145900000Y-78390000D03*
%TO.N,VDD*%
X154700000Y-115200000D03*
X132700000Y-115200000D03*
%TO.N,/AI0m*%
X158300000Y-113400000D03*
X144660000Y-113460000D03*
%TD*%
D22*
%TO.N,GND*%
X145500000Y-104700000D02*
X151100000Y-104700000D01*
X128400000Y-104700000D02*
X135900000Y-104700000D01*
X137700000Y-104700000D02*
X143600000Y-104700000D01*
%TO.N,+5V*%
X138400000Y-97000000D02*
X133500000Y-97000000D01*
X153800000Y-97000000D02*
X148600000Y-97000000D01*
X146100000Y-97000000D02*
X141100000Y-97000000D01*
X158700000Y-69000000D02*
X158700000Y-83200000D01*
D23*
%TO.N,/AI1m*%
X154200000Y-111600000D02*
X147000000Y-111600000D01*
%TO.N,/DI0*%
X136000000Y-72090000D02*
X136000000Y-78390000D01*
D24*
%TO.N,/DI3*%
X150950000Y-78340000D02*
X151000000Y-78390000D01*
D23*
X150950000Y-72040000D02*
X150950000Y-78340000D01*
%TO.N,/DI1*%
X141000000Y-72090000D02*
X141000000Y-78390000D01*
%TO.N,/DI2*%
X145900000Y-72090000D02*
X145900000Y-78390000D01*
D22*
%TO.N,VDD*%
X132700000Y-115200000D02*
X154700000Y-115200000D01*
D23*
%TO.N,/AI0m*%
X144720000Y-113400000D02*
X144660000Y-113460000D01*
X158300000Y-113400000D02*
X144720000Y-113400000D01*
%TD*%
%TA.AperFunction,Conductor*%
%TO.N,GND*%
G36*
X170875529Y-61899975D02*
G01*
X170942560Y-61919672D01*
X170988305Y-61972485D01*
X170999500Y-62023974D01*
X170999500Y-87216921D01*
X170979815Y-87283960D01*
X170927011Y-87329715D01*
X170857853Y-87339659D01*
X170809528Y-87321915D01*
X170749523Y-87284211D01*
X170579254Y-87224631D01*
X170579249Y-87224630D01*
X170444960Y-87209500D01*
X170444954Y-87209500D01*
X168755046Y-87209500D01*
X168755039Y-87209500D01*
X168620750Y-87224630D01*
X168620745Y-87224631D01*
X168450476Y-87284211D01*
X168297737Y-87380184D01*
X168287681Y-87390241D01*
X168226358Y-87423726D01*
X168156666Y-87418742D01*
X168112319Y-87390241D01*
X168102262Y-87380184D01*
X167949523Y-87284211D01*
X167779254Y-87224631D01*
X167779249Y-87224630D01*
X167644960Y-87209500D01*
X167644954Y-87209500D01*
X165955046Y-87209500D01*
X165955039Y-87209500D01*
X165820750Y-87224630D01*
X165820745Y-87224631D01*
X165650476Y-87284211D01*
X165497737Y-87380184D01*
X165370184Y-87507737D01*
X165274211Y-87660476D01*
X165214631Y-87830745D01*
X165214630Y-87830750D01*
X165199500Y-87965039D01*
X165199500Y-88017308D01*
X165179815Y-88084347D01*
X165127011Y-88130102D01*
X165057853Y-88140046D01*
X164994297Y-88111021D01*
X164969773Y-88082098D01*
X164898839Y-87966346D01*
X164898838Y-87966343D01*
X164783030Y-87830750D01*
X164735224Y-87774776D01*
X164601396Y-87660476D01*
X164543656Y-87611161D01*
X164543653Y-87611160D01*
X164328859Y-87479533D01*
X164096110Y-87383126D01*
X163851151Y-87324317D01*
X163600000Y-87304551D01*
X163348848Y-87324317D01*
X163103889Y-87383126D01*
X162871140Y-87479533D01*
X162656346Y-87611160D01*
X162656343Y-87611161D01*
X162464776Y-87774776D01*
X162301161Y-87966343D01*
X162301160Y-87966346D01*
X162169533Y-88181140D01*
X162073126Y-88413889D01*
X162070574Y-88424522D01*
X162035783Y-88485114D01*
X161973757Y-88517278D01*
X161904188Y-88510802D01*
X161849164Y-88467742D01*
X161829426Y-88424522D01*
X161826873Y-88413889D01*
X161730466Y-88181140D01*
X161598839Y-87966346D01*
X161598838Y-87966343D01*
X161483030Y-87830750D01*
X161435224Y-87774776D01*
X161301396Y-87660476D01*
X161243656Y-87611161D01*
X161243653Y-87611160D01*
X161028859Y-87479533D01*
X160796110Y-87383126D01*
X160551151Y-87324317D01*
X160300000Y-87304551D01*
X160048848Y-87324317D01*
X159803889Y-87383126D01*
X159571140Y-87479533D01*
X159356346Y-87611160D01*
X159356343Y-87611161D01*
X159164776Y-87774776D01*
X159001161Y-87966343D01*
X159001160Y-87966346D01*
X158869533Y-88181140D01*
X158814561Y-88313857D01*
X158770720Y-88368260D01*
X158704426Y-88390325D01*
X158636727Y-88373046D01*
X158589116Y-88321909D01*
X158585439Y-88313857D01*
X158530466Y-88181140D01*
X158398839Y-87966346D01*
X158398838Y-87966343D01*
X158283030Y-87830750D01*
X158235224Y-87774776D01*
X158101396Y-87660476D01*
X158043656Y-87611161D01*
X158043653Y-87611160D01*
X157828859Y-87479533D01*
X157596110Y-87383126D01*
X157351151Y-87324317D01*
X157100000Y-87304551D01*
X156848848Y-87324317D01*
X156603889Y-87383126D01*
X156371140Y-87479533D01*
X156156346Y-87611160D01*
X156156343Y-87611161D01*
X155964776Y-87774776D01*
X155801161Y-87966343D01*
X155801160Y-87966346D01*
X155669533Y-88181140D01*
X155573127Y-88413887D01*
X155555141Y-88488805D01*
X155520350Y-88549396D01*
X155458324Y-88581560D01*
X155388755Y-88575084D01*
X155333731Y-88532024D01*
X155320006Y-88507310D01*
X155230466Y-88291140D01*
X155098839Y-88076346D01*
X155098838Y-88076343D01*
X155004891Y-87966346D01*
X154935224Y-87884776D01*
X154806431Y-87774776D01*
X154743656Y-87721161D01*
X154743653Y-87721160D01*
X154528859Y-87589533D01*
X154296110Y-87493126D01*
X154051151Y-87434317D01*
X153800000Y-87414551D01*
X153548848Y-87434317D01*
X153303889Y-87493126D01*
X153071140Y-87589533D01*
X152856346Y-87721160D01*
X152856343Y-87721161D01*
X152664776Y-87884776D01*
X152501161Y-88076343D01*
X152501160Y-88076346D01*
X152369533Y-88291140D01*
X152314561Y-88423857D01*
X152270720Y-88478260D01*
X152204426Y-88500325D01*
X152136727Y-88483046D01*
X152089116Y-88431909D01*
X152085439Y-88423857D01*
X152030466Y-88291140D01*
X151898839Y-88076346D01*
X151898838Y-88076343D01*
X151804891Y-87966346D01*
X151735224Y-87884776D01*
X151606431Y-87774776D01*
X151543656Y-87721161D01*
X151543653Y-87721160D01*
X151328859Y-87589533D01*
X151096110Y-87493126D01*
X150851151Y-87434317D01*
X150600000Y-87414551D01*
X150348848Y-87434317D01*
X150103889Y-87493126D01*
X149871140Y-87589533D01*
X149656346Y-87721160D01*
X149656343Y-87721161D01*
X149464776Y-87884776D01*
X149301161Y-88076343D01*
X149301160Y-88076346D01*
X149169533Y-88291140D01*
X149118703Y-88413857D01*
X149074862Y-88468260D01*
X149008568Y-88490325D01*
X148940869Y-88473046D01*
X148893258Y-88421909D01*
X148889581Y-88413857D01*
X148830466Y-88271140D01*
X148698839Y-88056346D01*
X148698838Y-88056343D01*
X148621970Y-87966343D01*
X148535224Y-87864776D01*
X148367076Y-87721164D01*
X148343656Y-87701161D01*
X148343653Y-87701160D01*
X148128859Y-87569533D01*
X147896110Y-87473126D01*
X147651151Y-87414317D01*
X147400000Y-87394551D01*
X147148848Y-87414317D01*
X146903889Y-87473126D01*
X146671140Y-87569533D01*
X146456346Y-87701160D01*
X146456343Y-87701161D01*
X146264776Y-87864776D01*
X146101161Y-88056343D01*
X146101160Y-88056346D01*
X145969533Y-88271140D01*
X145914561Y-88403857D01*
X145870720Y-88458260D01*
X145804426Y-88480325D01*
X145736727Y-88463046D01*
X145689116Y-88411909D01*
X145685439Y-88403857D01*
X145630466Y-88271140D01*
X145498839Y-88056346D01*
X145498838Y-88056343D01*
X145421970Y-87966343D01*
X145335224Y-87864776D01*
X145167076Y-87721164D01*
X145143656Y-87701161D01*
X145143653Y-87701160D01*
X144928859Y-87569533D01*
X144696110Y-87473126D01*
X144451151Y-87414317D01*
X144200000Y-87394551D01*
X143948848Y-87414317D01*
X143703889Y-87473126D01*
X143471140Y-87569533D01*
X143256346Y-87701160D01*
X143256343Y-87701161D01*
X143064776Y-87864776D01*
X142901161Y-88056343D01*
X142901160Y-88056346D01*
X142769533Y-88271140D01*
X142714561Y-88403857D01*
X142670720Y-88458260D01*
X142604426Y-88480325D01*
X142536727Y-88463046D01*
X142489116Y-88411909D01*
X142485439Y-88403857D01*
X142430466Y-88271140D01*
X142298839Y-88056346D01*
X142298838Y-88056343D01*
X142221970Y-87966343D01*
X142135224Y-87864776D01*
X141967076Y-87721164D01*
X141943656Y-87701161D01*
X141943653Y-87701160D01*
X141728859Y-87569533D01*
X141496110Y-87473126D01*
X141251151Y-87414317D01*
X141000000Y-87394551D01*
X140748848Y-87414317D01*
X140503889Y-87473126D01*
X140271140Y-87569533D01*
X140056346Y-87701160D01*
X140056343Y-87701161D01*
X139864776Y-87864776D01*
X139701161Y-88056343D01*
X139701160Y-88056346D01*
X139569533Y-88271140D01*
X139510418Y-88413857D01*
X139466577Y-88468260D01*
X139400282Y-88490325D01*
X139332583Y-88473046D01*
X139284973Y-88421908D01*
X139281296Y-88413856D01*
X139230467Y-88291143D01*
X139230466Y-88291141D01*
X139098839Y-88076346D01*
X139098838Y-88076343D01*
X139004891Y-87966346D01*
X138935224Y-87884776D01*
X138806431Y-87774776D01*
X138743656Y-87721161D01*
X138743653Y-87721160D01*
X138528859Y-87589533D01*
X138296110Y-87493126D01*
X138051151Y-87434317D01*
X137800000Y-87414551D01*
X137548848Y-87434317D01*
X137303889Y-87493126D01*
X137071140Y-87589533D01*
X136856346Y-87721160D01*
X136856343Y-87721161D01*
X136664776Y-87884776D01*
X136501161Y-88076343D01*
X136501160Y-88076346D01*
X136369533Y-88291140D01*
X136314561Y-88423857D01*
X136270720Y-88478260D01*
X136204426Y-88500325D01*
X136136727Y-88483046D01*
X136089116Y-88431909D01*
X136085439Y-88423857D01*
X136030466Y-88291140D01*
X135898839Y-88076346D01*
X135898838Y-88076343D01*
X135804891Y-87966346D01*
X135735224Y-87884776D01*
X135606431Y-87774776D01*
X135543656Y-87721161D01*
X135543653Y-87721160D01*
X135328859Y-87589533D01*
X135096110Y-87493126D01*
X134851151Y-87434317D01*
X134600000Y-87414551D01*
X134348848Y-87434317D01*
X134103889Y-87493126D01*
X133871140Y-87589533D01*
X133656346Y-87721160D01*
X133656343Y-87721161D01*
X133464776Y-87884776D01*
X133301161Y-88076343D01*
X133301160Y-88076346D01*
X133169533Y-88291140D01*
X133114561Y-88423857D01*
X133070720Y-88478260D01*
X133004426Y-88500325D01*
X132936727Y-88483046D01*
X132889116Y-88431909D01*
X132885439Y-88423857D01*
X132830466Y-88291140D01*
X132698839Y-88076346D01*
X132698838Y-88076343D01*
X132604891Y-87966346D01*
X132535224Y-87884776D01*
X132406431Y-87774776D01*
X132343656Y-87721161D01*
X132343653Y-87721160D01*
X132128859Y-87589533D01*
X131896110Y-87493126D01*
X131651151Y-87434317D01*
X131400000Y-87414551D01*
X131148848Y-87434317D01*
X130903889Y-87493126D01*
X130671140Y-87589533D01*
X130456346Y-87721160D01*
X130456343Y-87721161D01*
X130264776Y-87884776D01*
X130101161Y-88076343D01*
X130101160Y-88076346D01*
X129969533Y-88291140D01*
X129873126Y-88523889D01*
X129814317Y-88768848D01*
X129794551Y-89020000D01*
X129814317Y-89271151D01*
X129873126Y-89516110D01*
X129969533Y-89748859D01*
X130101160Y-89963653D01*
X130101161Y-89963656D01*
X130101164Y-89963659D01*
X130264776Y-90155224D01*
X130409797Y-90279084D01*
X130456343Y-90318838D01*
X130456346Y-90318839D01*
X130671140Y-90450466D01*
X130903889Y-90546873D01*
X131148852Y-90605683D01*
X131400000Y-90625449D01*
X131651148Y-90605683D01*
X131896111Y-90546873D01*
X132128859Y-90450466D01*
X132343659Y-90318836D01*
X132535224Y-90155224D01*
X132698836Y-89963659D01*
X132830466Y-89748859D01*
X132838749Y-89728862D01*
X132885439Y-89616143D01*
X132929280Y-89561739D01*
X132995574Y-89539674D01*
X133063273Y-89556953D01*
X133110884Y-89608090D01*
X133114561Y-89616143D01*
X133169531Y-89748855D01*
X133169533Y-89748858D01*
X133301160Y-89963653D01*
X133301161Y-89963656D01*
X133301164Y-89963659D01*
X133464776Y-90155224D01*
X133609797Y-90279084D01*
X133656343Y-90318838D01*
X133656346Y-90318839D01*
X133871140Y-90450466D01*
X134103889Y-90546873D01*
X134348852Y-90605683D01*
X134600000Y-90625449D01*
X134851148Y-90605683D01*
X135096111Y-90546873D01*
X135328859Y-90450466D01*
X135543659Y-90318836D01*
X135735224Y-90155224D01*
X135898836Y-89963659D01*
X136030466Y-89748859D01*
X136038749Y-89728862D01*
X136085439Y-89616143D01*
X136129280Y-89561739D01*
X136195574Y-89539674D01*
X136263273Y-89556953D01*
X136310884Y-89608090D01*
X136314561Y-89616143D01*
X136369531Y-89748855D01*
X136369533Y-89748858D01*
X136501160Y-89963653D01*
X136501161Y-89963656D01*
X136501164Y-89963659D01*
X136664776Y-90155224D01*
X136809797Y-90279084D01*
X136856343Y-90318838D01*
X136856346Y-90318839D01*
X137071140Y-90450466D01*
X137303889Y-90546873D01*
X137548852Y-90605683D01*
X137800000Y-90625449D01*
X138051148Y-90605683D01*
X138296111Y-90546873D01*
X138528859Y-90450466D01*
X138743659Y-90318836D01*
X138935224Y-90155224D01*
X139098836Y-89963659D01*
X139230466Y-89748859D01*
X139238751Y-89728859D01*
X139289581Y-89606143D01*
X139333422Y-89551739D01*
X139399716Y-89529674D01*
X139467415Y-89546953D01*
X139515026Y-89598090D01*
X139518703Y-89606143D01*
X139569531Y-89728855D01*
X139569533Y-89728858D01*
X139701160Y-89943653D01*
X139701161Y-89943656D01*
X139756604Y-90008571D01*
X139864776Y-90135224D01*
X140013066Y-90261875D01*
X140056343Y-90298838D01*
X140056346Y-90298839D01*
X140271140Y-90430466D01*
X140476309Y-90515449D01*
X140503889Y-90526873D01*
X140748852Y-90585683D01*
X141000000Y-90605449D01*
X141251148Y-90585683D01*
X141496111Y-90526873D01*
X141728859Y-90430466D01*
X141943659Y-90298836D01*
X142135224Y-90135224D01*
X142298836Y-89943659D01*
X142430466Y-89728859D01*
X142430468Y-89728855D01*
X142485439Y-89596143D01*
X142529280Y-89541739D01*
X142595574Y-89519674D01*
X142663273Y-89536953D01*
X142710884Y-89588090D01*
X142714561Y-89596143D01*
X142769531Y-89728855D01*
X142769533Y-89728858D01*
X142901160Y-89943653D01*
X142901161Y-89943656D01*
X142956604Y-90008571D01*
X143064776Y-90135224D01*
X143213066Y-90261875D01*
X143256343Y-90298838D01*
X143256346Y-90298839D01*
X143471140Y-90430466D01*
X143676309Y-90515449D01*
X143703889Y-90526873D01*
X143948852Y-90585683D01*
X144200000Y-90605449D01*
X144451148Y-90585683D01*
X144696111Y-90526873D01*
X144928859Y-90430466D01*
X145143659Y-90298836D01*
X145335224Y-90135224D01*
X145498836Y-89943659D01*
X145630466Y-89728859D01*
X145630468Y-89728855D01*
X145685439Y-89596143D01*
X145729280Y-89541739D01*
X145795574Y-89519674D01*
X145863273Y-89536953D01*
X145910884Y-89588090D01*
X145914561Y-89596143D01*
X145969531Y-89728855D01*
X145969533Y-89728858D01*
X146101160Y-89943653D01*
X146101161Y-89943656D01*
X146156604Y-90008571D01*
X146264776Y-90135224D01*
X146413066Y-90261875D01*
X146456343Y-90298838D01*
X146456346Y-90298839D01*
X146671140Y-90430466D01*
X146876309Y-90515449D01*
X146903889Y-90526873D01*
X147148852Y-90585683D01*
X147400000Y-90605449D01*
X147651148Y-90585683D01*
X147896111Y-90526873D01*
X148128859Y-90430466D01*
X148343659Y-90298836D01*
X148535224Y-90135224D01*
X148698836Y-89943659D01*
X148830466Y-89728859D01*
X148881297Y-89606139D01*
X148925136Y-89551739D01*
X148991430Y-89529674D01*
X149059129Y-89546953D01*
X149106740Y-89598089D01*
X149110418Y-89606142D01*
X149169533Y-89748859D01*
X149301160Y-89963653D01*
X149301161Y-89963656D01*
X149301164Y-89963659D01*
X149464776Y-90155224D01*
X149609797Y-90279084D01*
X149656343Y-90318838D01*
X149656346Y-90318839D01*
X149871140Y-90450466D01*
X150103889Y-90546873D01*
X150348852Y-90605683D01*
X150600000Y-90625449D01*
X150851148Y-90605683D01*
X151096111Y-90546873D01*
X151328859Y-90450466D01*
X151543659Y-90318836D01*
X151735224Y-90155224D01*
X151898836Y-89963659D01*
X152030466Y-89748859D01*
X152038749Y-89728862D01*
X152085439Y-89616143D01*
X152129280Y-89561739D01*
X152195574Y-89539674D01*
X152263273Y-89556953D01*
X152310884Y-89608090D01*
X152314561Y-89616143D01*
X152369531Y-89748855D01*
X152369533Y-89748858D01*
X152501160Y-89963653D01*
X152501161Y-89963656D01*
X152501164Y-89963659D01*
X152664776Y-90155224D01*
X152809797Y-90279084D01*
X152856343Y-90318838D01*
X152856346Y-90318839D01*
X153071140Y-90450466D01*
X153303889Y-90546873D01*
X153548852Y-90605683D01*
X153800000Y-90625449D01*
X154051148Y-90605683D01*
X154296111Y-90546873D01*
X154528859Y-90450466D01*
X154743659Y-90318836D01*
X154935224Y-90155224D01*
X155098836Y-89963659D01*
X155230466Y-89748859D01*
X155326873Y-89516111D01*
X155344858Y-89441194D01*
X155379648Y-89380604D01*
X155441674Y-89348439D01*
X155511243Y-89354914D01*
X155566267Y-89397974D01*
X155579993Y-89422689D01*
X155669533Y-89638859D01*
X155801160Y-89853653D01*
X155801161Y-89853656D01*
X155801164Y-89853659D01*
X155964776Y-90045224D01*
X156113066Y-90171875D01*
X156156343Y-90208838D01*
X156156346Y-90208839D01*
X156371140Y-90340466D01*
X156588421Y-90430466D01*
X156603889Y-90436873D01*
X156848852Y-90495683D01*
X157100000Y-90515449D01*
X157351148Y-90495683D01*
X157596111Y-90436873D01*
X157828859Y-90340466D01*
X158043659Y-90208836D01*
X158235224Y-90045224D01*
X158398836Y-89853659D01*
X158530466Y-89638859D01*
X158530468Y-89638855D01*
X158585439Y-89506143D01*
X158629280Y-89451739D01*
X158695574Y-89429674D01*
X158763273Y-89446953D01*
X158810884Y-89498090D01*
X158814561Y-89506143D01*
X158869531Y-89638855D01*
X158869533Y-89638858D01*
X159001160Y-89853653D01*
X159001161Y-89853656D01*
X159001164Y-89853659D01*
X159164776Y-90045224D01*
X159313066Y-90171875D01*
X159356343Y-90208838D01*
X159356346Y-90208839D01*
X159503919Y-90299273D01*
X159550794Y-90351085D01*
X159562217Y-90420014D01*
X159534559Y-90484177D01*
X159503919Y-90510727D01*
X159356346Y-90601160D01*
X159356343Y-90601161D01*
X159164776Y-90764776D01*
X159001161Y-90956343D01*
X159001160Y-90956346D01*
X158869533Y-91171140D01*
X158773126Y-91403889D01*
X158714317Y-91648848D01*
X158694551Y-91900000D01*
X158714317Y-92151151D01*
X158773126Y-92396110D01*
X158869533Y-92628859D01*
X159001160Y-92843653D01*
X159001161Y-92843656D01*
X159001164Y-92843659D01*
X159164776Y-93035224D01*
X159313066Y-93161875D01*
X159356343Y-93198838D01*
X159356346Y-93198839D01*
X159571140Y-93330466D01*
X159803889Y-93426873D01*
X160048852Y-93485683D01*
X160300000Y-93505449D01*
X160551148Y-93485683D01*
X160796111Y-93426873D01*
X161028859Y-93330466D01*
X161243659Y-93198836D01*
X161435224Y-93035224D01*
X161598836Y-92843659D01*
X161730466Y-92628859D01*
X161826873Y-92396111D01*
X161826874Y-92396107D01*
X161829426Y-92385479D01*
X161864215Y-92324886D01*
X161926241Y-92292721D01*
X161995810Y-92299196D01*
X162050835Y-92342255D01*
X162070574Y-92385479D01*
X162073125Y-92396107D01*
X162073126Y-92396109D01*
X162169533Y-92628859D01*
X162301160Y-92843653D01*
X162301161Y-92843656D01*
X162301164Y-92843659D01*
X162464776Y-93035224D01*
X162613066Y-93161875D01*
X162656343Y-93198838D01*
X162656346Y-93198839D01*
X162871140Y-93330466D01*
X163103889Y-93426873D01*
X163348852Y-93485683D01*
X163600000Y-93505449D01*
X163851148Y-93485683D01*
X164096111Y-93426873D01*
X164328859Y-93330466D01*
X164543659Y-93198836D01*
X164735224Y-93035224D01*
X164898836Y-92843659D01*
X165030466Y-92628859D01*
X165126873Y-92396111D01*
X165185683Y-92151148D01*
X165205449Y-91900000D01*
X165185683Y-91648852D01*
X165126873Y-91403889D01*
X165030466Y-91171141D01*
X165030466Y-91171140D01*
X164898839Y-90956346D01*
X164898838Y-90956343D01*
X164861875Y-90913066D01*
X164735224Y-90764776D01*
X164572092Y-90625448D01*
X164543656Y-90601161D01*
X164543654Y-90601160D01*
X164396080Y-90510727D01*
X164349205Y-90458916D01*
X164337782Y-90389986D01*
X164365439Y-90325823D01*
X164396080Y-90299273D01*
X164543654Y-90208839D01*
X164543656Y-90208838D01*
X164543656Y-90208837D01*
X164543659Y-90208836D01*
X164735224Y-90045224D01*
X164898836Y-89853659D01*
X164983171Y-89716037D01*
X165034981Y-89669163D01*
X165103911Y-89657740D01*
X165168074Y-89685397D01*
X165207098Y-89743352D01*
X165212117Y-89766942D01*
X165214631Y-89789251D01*
X165214631Y-89789254D01*
X165274211Y-89959523D01*
X165328061Y-90045224D01*
X165370184Y-90112262D01*
X165497738Y-90239816D01*
X165560233Y-90279084D01*
X165623500Y-90318838D01*
X165650478Y-90335789D01*
X165805364Y-90389986D01*
X165820745Y-90395368D01*
X165820750Y-90395369D01*
X165906232Y-90405000D01*
X165955040Y-90410499D01*
X165955043Y-90410500D01*
X165955046Y-90410500D01*
X167644957Y-90410500D01*
X167644958Y-90410499D01*
X167712104Y-90402934D01*
X167779249Y-90395369D01*
X167779252Y-90395368D01*
X167779255Y-90395368D01*
X167949522Y-90335789D01*
X168102262Y-90239816D01*
X168112319Y-90229759D01*
X168173642Y-90196274D01*
X168243334Y-90201258D01*
X168287681Y-90229759D01*
X168297738Y-90239816D01*
X168360233Y-90279084D01*
X168423500Y-90318838D01*
X168450478Y-90335789D01*
X168605364Y-90389986D01*
X168620745Y-90395368D01*
X168620750Y-90395369D01*
X168706232Y-90405000D01*
X168755040Y-90410499D01*
X168755043Y-90410500D01*
X168755046Y-90410500D01*
X170444957Y-90410500D01*
X170444958Y-90410499D01*
X170512104Y-90402934D01*
X170579249Y-90395369D01*
X170579252Y-90395368D01*
X170579255Y-90395368D01*
X170749522Y-90335789D01*
X170809527Y-90298084D01*
X170876763Y-90279084D01*
X170943599Y-90299451D01*
X170988813Y-90352718D01*
X170999500Y-90403078D01*
X170999500Y-120165500D01*
X170979815Y-120232539D01*
X170927011Y-120278294D01*
X170875500Y-120289500D01*
X120524500Y-120289500D01*
X120457461Y-120269815D01*
X120411706Y-120217011D01*
X120400500Y-120165500D01*
X120400500Y-115200000D01*
X131144706Y-115200000D01*
X131163853Y-115443297D01*
X131220830Y-115680619D01*
X131314222Y-115906089D01*
X131441737Y-116114173D01*
X131441738Y-116114176D01*
X131441741Y-116114179D01*
X131600241Y-116299759D01*
X131709991Y-116393494D01*
X131785823Y-116458261D01*
X131785826Y-116458262D01*
X131993910Y-116585777D01*
X132219381Y-116679169D01*
X132219378Y-116679169D01*
X132219384Y-116679170D01*
X132219388Y-116679172D01*
X132456698Y-116736146D01*
X132700000Y-116755294D01*
X132898243Y-116739692D01*
X132966620Y-116754056D01*
X133016377Y-116803108D01*
X133031716Y-116871273D01*
X133013700Y-116928099D01*
X132884845Y-117138373D01*
X132785427Y-117378389D01*
X132724778Y-117631009D01*
X132704396Y-117890000D01*
X132724778Y-118148990D01*
X132785427Y-118401610D01*
X132884843Y-118641623D01*
X132884845Y-118641627D01*
X132884846Y-118641628D01*
X133020588Y-118863140D01*
X133189311Y-119060689D01*
X133386860Y-119229412D01*
X133608372Y-119365154D01*
X133608374Y-119365154D01*
X133608376Y-119365156D01*
X133669693Y-119390554D01*
X133848390Y-119464573D01*
X134101006Y-119525221D01*
X134360000Y-119545604D01*
X134618994Y-119525221D01*
X134871610Y-119464573D01*
X135111628Y-119365154D01*
X135333140Y-119229412D01*
X135530689Y-119060689D01*
X135535710Y-119054809D01*
X135594213Y-119016617D01*
X135664081Y-119016116D01*
X135723128Y-119053468D01*
X135724197Y-119054702D01*
X135729311Y-119060689D01*
X135926860Y-119229412D01*
X136148372Y-119365154D01*
X136148374Y-119365154D01*
X136148376Y-119365156D01*
X136209693Y-119390554D01*
X136388390Y-119464573D01*
X136641006Y-119525221D01*
X136900000Y-119545604D01*
X137158994Y-119525221D01*
X137411610Y-119464573D01*
X137651628Y-119365154D01*
X137873140Y-119229412D01*
X138070689Y-119060689D01*
X138075710Y-119054809D01*
X138134213Y-119016617D01*
X138204081Y-119016116D01*
X138263128Y-119053468D01*
X138264197Y-119054702D01*
X138269311Y-119060689D01*
X138466860Y-119229412D01*
X138688372Y-119365154D01*
X138688374Y-119365154D01*
X138688376Y-119365156D01*
X138749693Y-119390554D01*
X138928390Y-119464573D01*
X139181006Y-119525221D01*
X139440000Y-119545604D01*
X139698994Y-119525221D01*
X139951610Y-119464573D01*
X140191628Y-119365154D01*
X140413140Y-119229412D01*
X140610689Y-119060689D01*
X140615710Y-119054809D01*
X140674213Y-119016617D01*
X140744081Y-119016116D01*
X140803128Y-119053468D01*
X140804197Y-119054702D01*
X140809311Y-119060689D01*
X141006860Y-119229412D01*
X141228372Y-119365154D01*
X141228374Y-119365154D01*
X141228376Y-119365156D01*
X141289693Y-119390554D01*
X141468390Y-119464573D01*
X141721006Y-119525221D01*
X141980000Y-119545604D01*
X142238994Y-119525221D01*
X142491610Y-119464573D01*
X142731628Y-119365154D01*
X142953140Y-119229412D01*
X143150689Y-119060689D01*
X143155710Y-119054809D01*
X143214213Y-119016617D01*
X143284081Y-119016116D01*
X143343128Y-119053468D01*
X143344197Y-119054702D01*
X143349311Y-119060689D01*
X143546860Y-119229412D01*
X143768372Y-119365154D01*
X143768374Y-119365154D01*
X143768376Y-119365156D01*
X143829693Y-119390554D01*
X144008390Y-119464573D01*
X144261006Y-119525221D01*
X144520000Y-119545604D01*
X144778994Y-119525221D01*
X145031610Y-119464573D01*
X145271628Y-119365154D01*
X145493140Y-119229412D01*
X145690689Y-119060689D01*
X145695710Y-119054809D01*
X145754213Y-119016617D01*
X145824081Y-119016116D01*
X145883128Y-119053468D01*
X145884197Y-119054702D01*
X145889311Y-119060689D01*
X146086860Y-119229412D01*
X146308372Y-119365154D01*
X146308374Y-119365154D01*
X146308376Y-119365156D01*
X146369693Y-119390554D01*
X146548390Y-119464573D01*
X146801006Y-119525221D01*
X147060000Y-119545604D01*
X147318994Y-119525221D01*
X147571610Y-119464573D01*
X147811628Y-119365154D01*
X148033140Y-119229412D01*
X148230689Y-119060689D01*
X148235710Y-119054809D01*
X148294213Y-119016617D01*
X148364081Y-119016116D01*
X148423128Y-119053468D01*
X148424197Y-119054702D01*
X148429311Y-119060689D01*
X148626860Y-119229412D01*
X148848372Y-119365154D01*
X148848374Y-119365154D01*
X148848376Y-119365156D01*
X148909693Y-119390554D01*
X149088390Y-119464573D01*
X149341006Y-119525221D01*
X149600000Y-119545604D01*
X149858994Y-119525221D01*
X150111610Y-119464573D01*
X150351628Y-119365154D01*
X150573140Y-119229412D01*
X150770689Y-119060689D01*
X150939412Y-118863140D01*
X151075154Y-118641628D01*
X151174573Y-118401610D01*
X151235221Y-118148994D01*
X151255604Y-117890000D01*
X151235221Y-117631006D01*
X151174573Y-117378390D01*
X151075154Y-117138372D01*
X150939412Y-116916860D01*
X150770689Y-116719311D01*
X150770082Y-116718792D01*
X150769915Y-116718537D01*
X150767244Y-116715866D01*
X150767805Y-116715304D01*
X150731887Y-116660289D01*
X150731385Y-116590421D01*
X150768736Y-116531373D01*
X150832081Y-116501892D01*
X150850610Y-116500500D01*
X153429390Y-116500500D01*
X153496429Y-116520185D01*
X153542184Y-116572989D01*
X153552128Y-116642147D01*
X153523103Y-116705703D01*
X153509921Y-116718789D01*
X153509311Y-116719311D01*
X153340588Y-116916859D01*
X153204843Y-117138376D01*
X153105427Y-117378389D01*
X153044778Y-117631009D01*
X153024396Y-117890000D01*
X153044778Y-118148990D01*
X153105427Y-118401610D01*
X153204843Y-118641623D01*
X153204845Y-118641627D01*
X153204846Y-118641628D01*
X153340588Y-118863140D01*
X153509311Y-119060689D01*
X153706860Y-119229412D01*
X153928372Y-119365154D01*
X153928374Y-119365154D01*
X153928376Y-119365156D01*
X153989693Y-119390554D01*
X154168390Y-119464573D01*
X154421006Y-119525221D01*
X154680000Y-119545604D01*
X154938994Y-119525221D01*
X155191610Y-119464573D01*
X155431628Y-119365154D01*
X155653140Y-119229412D01*
X155850689Y-119060689D01*
X156019412Y-118863140D01*
X156155154Y-118641628D01*
X156254573Y-118401610D01*
X156315221Y-118148994D01*
X156335604Y-117890000D01*
X156315221Y-117631006D01*
X156254573Y-117378390D01*
X156155154Y-117138372D01*
X156019412Y-116916860D01*
X155850689Y-116719311D01*
X155744037Y-116628222D01*
X155690007Y-116582075D01*
X155651814Y-116523568D01*
X155651316Y-116453700D01*
X155688670Y-116394654D01*
X155689927Y-116393563D01*
X155799759Y-116299759D01*
X155958259Y-116114179D01*
X156085777Y-115906089D01*
X156179172Y-115680612D01*
X156236146Y-115443302D01*
X156255294Y-115200000D01*
X156236146Y-114956698D01*
X156187349Y-114753447D01*
X156190840Y-114683665D01*
X156231503Y-114626847D01*
X156296430Y-114601034D01*
X156307923Y-114600500D01*
X157272448Y-114600500D01*
X157339487Y-114620185D01*
X157352976Y-114630207D01*
X157385821Y-114658259D01*
X157385823Y-114658260D01*
X157385824Y-114658261D01*
X157385826Y-114658262D01*
X157593910Y-114785777D01*
X157819381Y-114879169D01*
X157819378Y-114879169D01*
X157819384Y-114879170D01*
X157819388Y-114879172D01*
X158056698Y-114936146D01*
X158300000Y-114955294D01*
X158543302Y-114936146D01*
X158780612Y-114879172D01*
X159006089Y-114785777D01*
X159214179Y-114658259D01*
X159399759Y-114499759D01*
X159558259Y-114314179D01*
X159685777Y-114106089D01*
X159779172Y-113880612D01*
X159836146Y-113643302D01*
X159855294Y-113400000D01*
X159836146Y-113156698D01*
X159779172Y-112919388D01*
X159710630Y-112753911D01*
X159685777Y-112693910D01*
X159558262Y-112485826D01*
X159558261Y-112485823D01*
X159522453Y-112443897D01*
X159399759Y-112300241D01*
X159258758Y-112179815D01*
X159214176Y-112141738D01*
X159214173Y-112141737D01*
X159006089Y-112014222D01*
X158780618Y-111920830D01*
X158780621Y-111920830D01*
X158674992Y-111895470D01*
X158543302Y-111863854D01*
X158543300Y-111863853D01*
X158543297Y-111863853D01*
X158300000Y-111844706D01*
X158056702Y-111863853D01*
X158056698Y-111863854D01*
X157872612Y-111908050D01*
X157819380Y-111920830D01*
X157593910Y-112014222D01*
X157385826Y-112141737D01*
X157385824Y-112141738D01*
X157352979Y-112169791D01*
X157289218Y-112198361D01*
X157272448Y-112199500D01*
X155807923Y-112199500D01*
X155740884Y-112179815D01*
X155695129Y-112127011D01*
X155685185Y-112057853D01*
X155687349Y-112046553D01*
X155695111Y-112014222D01*
X155736146Y-111843302D01*
X155755294Y-111600000D01*
X155736146Y-111356698D01*
X155679172Y-111119388D01*
X155585777Y-110893911D01*
X155585777Y-110893910D01*
X155458262Y-110685826D01*
X155458261Y-110685823D01*
X155422453Y-110643897D01*
X155299759Y-110500241D01*
X155158758Y-110379815D01*
X155114176Y-110341738D01*
X155114173Y-110341737D01*
X154906089Y-110214222D01*
X154680618Y-110120830D01*
X154680621Y-110120830D01*
X154574992Y-110095470D01*
X154443302Y-110063854D01*
X154443300Y-110063853D01*
X154443297Y-110063853D01*
X154200000Y-110044706D01*
X153956702Y-110063853D01*
X153719380Y-110120830D01*
X153493910Y-110214222D01*
X153285826Y-110341737D01*
X153285824Y-110341738D01*
X153252979Y-110369791D01*
X153189218Y-110398361D01*
X153172448Y-110399500D01*
X148027552Y-110399500D01*
X147960513Y-110379815D01*
X147947021Y-110369791D01*
X147914175Y-110341738D01*
X147914173Y-110341737D01*
X147706089Y-110214222D01*
X147480618Y-110120830D01*
X147480621Y-110120830D01*
X147374992Y-110095470D01*
X147243302Y-110063854D01*
X147243300Y-110063853D01*
X147243297Y-110063853D01*
X147000000Y-110044706D01*
X146756702Y-110063853D01*
X146519380Y-110120830D01*
X146293910Y-110214222D01*
X146085826Y-110341737D01*
X146085823Y-110341738D01*
X145900241Y-110500241D01*
X145741738Y-110685823D01*
X145741737Y-110685826D01*
X145614222Y-110893910D01*
X145520830Y-111119380D01*
X145463853Y-111356702D01*
X145444706Y-111600000D01*
X145463853Y-111843298D01*
X145479399Y-111908050D01*
X145475908Y-111977832D01*
X145435245Y-112034650D01*
X145370318Y-112060463D01*
X145311373Y-112051558D01*
X145140623Y-111980831D01*
X145140621Y-111980830D01*
X145034992Y-111955470D01*
X144903302Y-111923854D01*
X144903300Y-111923853D01*
X144903297Y-111923853D01*
X144660000Y-111904706D01*
X144416702Y-111923853D01*
X144179380Y-111980830D01*
X143953910Y-112074222D01*
X143745826Y-112201737D01*
X143745823Y-112201738D01*
X143560241Y-112360241D01*
X143401738Y-112545823D01*
X143401737Y-112545826D01*
X143274222Y-112753910D01*
X143180830Y-112979380D01*
X143123853Y-113216702D01*
X143104706Y-113460000D01*
X143123853Y-113703298D01*
X143134238Y-113746553D01*
X143130747Y-113816335D01*
X143090084Y-113873153D01*
X143025157Y-113898966D01*
X143013664Y-113899500D01*
X133580219Y-113899500D01*
X133515429Y-113881227D01*
X133514425Y-113880612D01*
X133500236Y-113871916D01*
X133406089Y-113814222D01*
X133180618Y-113720830D01*
X133180621Y-113720830D01*
X133074992Y-113695470D01*
X132943302Y-113663854D01*
X132943300Y-113663853D01*
X132943297Y-113663853D01*
X132700000Y-113644706D01*
X132456702Y-113663853D01*
X132219380Y-113720830D01*
X131993910Y-113814222D01*
X131785826Y-113941737D01*
X131785823Y-113941738D01*
X131600241Y-114100241D01*
X131441738Y-114285823D01*
X131441737Y-114285826D01*
X131314222Y-114493910D01*
X131220830Y-114719380D01*
X131163853Y-114956702D01*
X131144706Y-115200000D01*
X120400500Y-115200000D01*
X120400500Y-98990000D01*
X126794551Y-98990000D01*
X126814317Y-99241151D01*
X126873126Y-99486110D01*
X126969533Y-99718859D01*
X127101160Y-99933653D01*
X127101161Y-99933656D01*
X127101164Y-99933659D01*
X127264776Y-100125224D01*
X127339260Y-100188839D01*
X127456343Y-100288838D01*
X127456346Y-100288839D01*
X127671140Y-100420466D01*
X127903889Y-100516873D01*
X128148852Y-100575683D01*
X128400000Y-100595449D01*
X128651148Y-100575683D01*
X128896111Y-100516873D01*
X129128859Y-100420466D01*
X129343659Y-100288836D01*
X129535224Y-100125224D01*
X129698836Y-99933659D01*
X129830466Y-99718859D01*
X129926873Y-99486111D01*
X129985683Y-99241148D01*
X130005449Y-98990000D01*
X129985683Y-98738852D01*
X129926873Y-98493889D01*
X129919017Y-98474922D01*
X129830466Y-98261140D01*
X129698839Y-98046346D01*
X129698838Y-98046343D01*
X129655461Y-97995555D01*
X129535224Y-97854776D01*
X129361134Y-97706089D01*
X129343656Y-97691161D01*
X129343653Y-97691160D01*
X129128859Y-97559533D01*
X128896110Y-97463126D01*
X128651151Y-97404317D01*
X128400000Y-97384551D01*
X128148848Y-97404317D01*
X127903889Y-97463126D01*
X127671140Y-97559533D01*
X127456346Y-97691160D01*
X127456343Y-97691161D01*
X127264776Y-97854776D01*
X127101161Y-98046343D01*
X127101160Y-98046346D01*
X126969533Y-98261140D01*
X126873126Y-98493889D01*
X126814317Y-98738848D01*
X126794551Y-98990000D01*
X120400500Y-98990000D01*
X120400500Y-97000000D01*
X131944706Y-97000000D01*
X131963853Y-97243297D01*
X131963853Y-97243300D01*
X131963854Y-97243302D01*
X131997765Y-97384551D01*
X132020830Y-97480619D01*
X132114222Y-97706089D01*
X132241737Y-97914173D01*
X132241738Y-97914176D01*
X132244290Y-97917164D01*
X132400241Y-98099759D01*
X132543897Y-98222453D01*
X132585823Y-98258261D01*
X132585826Y-98258262D01*
X132793910Y-98385777D01*
X133019381Y-98479169D01*
X133019378Y-98479169D01*
X133019384Y-98479170D01*
X133019388Y-98479172D01*
X133256698Y-98536146D01*
X133500000Y-98555294D01*
X133743302Y-98536146D01*
X133980612Y-98479172D01*
X134168895Y-98401182D01*
X134238364Y-98393714D01*
X134300844Y-98424989D01*
X134336496Y-98485078D01*
X134336922Y-98544690D01*
X134314318Y-98638846D01*
X134314317Y-98638852D01*
X134306447Y-98738848D01*
X134294551Y-98890000D01*
X134314317Y-99141151D01*
X134373126Y-99386110D01*
X134469533Y-99618859D01*
X134601160Y-99833653D01*
X134601161Y-99833656D01*
X134601164Y-99833659D01*
X134764776Y-100025224D01*
X134881860Y-100125223D01*
X134956343Y-100188838D01*
X134956346Y-100188839D01*
X135171140Y-100320466D01*
X135379747Y-100406873D01*
X135403889Y-100416873D01*
X135648852Y-100475683D01*
X135900000Y-100495449D01*
X136151148Y-100475683D01*
X136396111Y-100416873D01*
X136628859Y-100320466D01*
X136843659Y-100188836D01*
X137035224Y-100025224D01*
X137198836Y-99833659D01*
X137330466Y-99618859D01*
X137426873Y-99386111D01*
X137485683Y-99141148D01*
X137505449Y-98890000D01*
X137485683Y-98638852D01*
X137448410Y-98483597D01*
X137451901Y-98413817D01*
X137492565Y-98356999D01*
X137557491Y-98331186D01*
X137626066Y-98344572D01*
X137633774Y-98348925D01*
X137693910Y-98385777D01*
X137919381Y-98479169D01*
X137919378Y-98479169D01*
X137919384Y-98479170D01*
X137919388Y-98479172D01*
X138156698Y-98536146D01*
X138400000Y-98555294D01*
X138643302Y-98536146D01*
X138880612Y-98479172D01*
X139106089Y-98385777D01*
X139314179Y-98258259D01*
X139499759Y-98099759D01*
X139655710Y-97917164D01*
X139714217Y-97878971D01*
X139784085Y-97878473D01*
X139843131Y-97915826D01*
X139844290Y-97917164D01*
X140000241Y-98099759D01*
X140143897Y-98222453D01*
X140185823Y-98258261D01*
X140185826Y-98258262D01*
X140393910Y-98385777D01*
X140619381Y-98479169D01*
X140619378Y-98479169D01*
X140619384Y-98479170D01*
X140619388Y-98479172D01*
X140856698Y-98536146D01*
X141100000Y-98555294D01*
X141343302Y-98536146D01*
X141580612Y-98479172D01*
X141806089Y-98385777D01*
X141863412Y-98350649D01*
X141930854Y-98332405D01*
X141997457Y-98353520D01*
X142042071Y-98407292D01*
X142050532Y-98476647D01*
X142048774Y-98485323D01*
X142014318Y-98628847D01*
X142014317Y-98628852D01*
X142005660Y-98738848D01*
X141994551Y-98880000D01*
X142014317Y-99131151D01*
X142073126Y-99376110D01*
X142169533Y-99608859D01*
X142301160Y-99823653D01*
X142301161Y-99823656D01*
X142356604Y-99888571D01*
X142464776Y-100015224D01*
X142613066Y-100141875D01*
X142656343Y-100178838D01*
X142656346Y-100178839D01*
X142871140Y-100310466D01*
X143103889Y-100406873D01*
X143348852Y-100465683D01*
X143600000Y-100485449D01*
X143851148Y-100465683D01*
X144096111Y-100406873D01*
X144328859Y-100310466D01*
X144543659Y-100178836D01*
X144735224Y-100015224D01*
X144898836Y-99823659D01*
X145030466Y-99608859D01*
X145126873Y-99376111D01*
X145185683Y-99131148D01*
X145205449Y-98880000D01*
X145185683Y-98628852D01*
X145151225Y-98485323D01*
X145154716Y-98415542D01*
X145195380Y-98358724D01*
X145260306Y-98332911D01*
X145328881Y-98346297D01*
X145336589Y-98350650D01*
X145393910Y-98385777D01*
X145619381Y-98479169D01*
X145619378Y-98479169D01*
X145619384Y-98479170D01*
X145619388Y-98479172D01*
X145856698Y-98536146D01*
X146100000Y-98555294D01*
X146343302Y-98536146D01*
X146580612Y-98479172D01*
X146806089Y-98385777D01*
X147014179Y-98258259D01*
X147199759Y-98099759D01*
X147255712Y-98034245D01*
X147314216Y-97996055D01*
X147384083Y-97995555D01*
X147443130Y-98032908D01*
X147444181Y-98034121D01*
X147500240Y-98099758D01*
X147500241Y-98099759D01*
X147685823Y-98258261D01*
X147685826Y-98258262D01*
X147893910Y-98385777D01*
X148119381Y-98479169D01*
X148119378Y-98479169D01*
X148119384Y-98479170D01*
X148119388Y-98479172D01*
X148356698Y-98536146D01*
X148600000Y-98555294D01*
X148843302Y-98536146D01*
X149080612Y-98479172D01*
X149306089Y-98385777D01*
X149366227Y-98348924D01*
X149433669Y-98330680D01*
X149500272Y-98351796D01*
X149544886Y-98405567D01*
X149553347Y-98474922D01*
X149551589Y-98483598D01*
X149516718Y-98628852D01*
X149514317Y-98638852D01*
X149506447Y-98738848D01*
X149494551Y-98890000D01*
X149514317Y-99141151D01*
X149573126Y-99386110D01*
X149669533Y-99618859D01*
X149801160Y-99833653D01*
X149801161Y-99833656D01*
X149801164Y-99833659D01*
X149964776Y-100025224D01*
X150081860Y-100125223D01*
X150156343Y-100188838D01*
X150156346Y-100188839D01*
X150371140Y-100320466D01*
X150579747Y-100406873D01*
X150603889Y-100416873D01*
X150848852Y-100475683D01*
X151100000Y-100495449D01*
X151351148Y-100475683D01*
X151596111Y-100416873D01*
X151828859Y-100320466D01*
X152043659Y-100188836D01*
X152235224Y-100025224D01*
X152398836Y-99833659D01*
X152530466Y-99618859D01*
X152626873Y-99386111D01*
X152685683Y-99141148D01*
X152705449Y-98890000D01*
X152685683Y-98638852D01*
X152665623Y-98555294D01*
X152641172Y-98453447D01*
X152644663Y-98383664D01*
X152685327Y-98326847D01*
X152750254Y-98301034D01*
X152761746Y-98300500D01*
X152919781Y-98300500D01*
X152984571Y-98318773D01*
X153093910Y-98385777D01*
X153319381Y-98479169D01*
X153319378Y-98479169D01*
X153319384Y-98479170D01*
X153319388Y-98479172D01*
X153556698Y-98536146D01*
X153800000Y-98555294D01*
X154043302Y-98536146D01*
X154280612Y-98479172D01*
X154506089Y-98385777D01*
X154714179Y-98258259D01*
X154899759Y-98099759D01*
X155058259Y-97914179D01*
X155185777Y-97706089D01*
X155279172Y-97480612D01*
X155336146Y-97243302D01*
X155355294Y-97000000D01*
X155336146Y-96756698D01*
X155279172Y-96519388D01*
X155185777Y-96293911D01*
X155185777Y-96293910D01*
X155058262Y-96085826D01*
X155058261Y-96085823D01*
X154988755Y-96004442D01*
X154899759Y-95900241D01*
X154777063Y-95795449D01*
X154714176Y-95741738D01*
X154714173Y-95741737D01*
X154506089Y-95614222D01*
X154280618Y-95520830D01*
X154280621Y-95520830D01*
X154174992Y-95495470D01*
X154043302Y-95463854D01*
X154043300Y-95463853D01*
X154043297Y-95463853D01*
X153800000Y-95444706D01*
X153556702Y-95463853D01*
X153319380Y-95520830D01*
X153093910Y-95614222D01*
X152984571Y-95681227D01*
X152919781Y-95699500D01*
X149480219Y-95699500D01*
X149415429Y-95681227D01*
X149306089Y-95614222D01*
X149080618Y-95520830D01*
X149080621Y-95520830D01*
X148974992Y-95495470D01*
X148843302Y-95463854D01*
X148843300Y-95463853D01*
X148843297Y-95463853D01*
X148600000Y-95444706D01*
X148356702Y-95463853D01*
X148119380Y-95520830D01*
X147893910Y-95614222D01*
X147685826Y-95741737D01*
X147685823Y-95741738D01*
X147500241Y-95900241D01*
X147444290Y-95965751D01*
X147385783Y-96003944D01*
X147315915Y-96004442D01*
X147256869Y-95967088D01*
X147255710Y-95965751D01*
X147199759Y-95900241D01*
X147077063Y-95795449D01*
X147014176Y-95741738D01*
X147014173Y-95741737D01*
X146806089Y-95614222D01*
X146580618Y-95520830D01*
X146580621Y-95520830D01*
X146474992Y-95495470D01*
X146343302Y-95463854D01*
X146343300Y-95463853D01*
X146343297Y-95463853D01*
X146100000Y-95444706D01*
X145856702Y-95463853D01*
X145619380Y-95520830D01*
X145393910Y-95614222D01*
X145284571Y-95681227D01*
X145219781Y-95699500D01*
X141980219Y-95699500D01*
X141915429Y-95681227D01*
X141806089Y-95614222D01*
X141580618Y-95520830D01*
X141580621Y-95520830D01*
X141474992Y-95495470D01*
X141343302Y-95463854D01*
X141343300Y-95463853D01*
X141343297Y-95463853D01*
X141100000Y-95444706D01*
X140856702Y-95463853D01*
X140619380Y-95520830D01*
X140393910Y-95614222D01*
X140185826Y-95741737D01*
X140185823Y-95741738D01*
X140000241Y-95900241D01*
X139844290Y-96082836D01*
X139785783Y-96121029D01*
X139715915Y-96121527D01*
X139656869Y-96084174D01*
X139655710Y-96082836D01*
X139588755Y-96004442D01*
X139499759Y-95900241D01*
X139377063Y-95795449D01*
X139314176Y-95741738D01*
X139314173Y-95741737D01*
X139106089Y-95614222D01*
X138880618Y-95520830D01*
X138880621Y-95520830D01*
X138774992Y-95495470D01*
X138643302Y-95463854D01*
X138643300Y-95463853D01*
X138643297Y-95463853D01*
X138400000Y-95444706D01*
X138156702Y-95463853D01*
X137919380Y-95520830D01*
X137693910Y-95614222D01*
X137584571Y-95681227D01*
X137519781Y-95699500D01*
X134380219Y-95699500D01*
X134315429Y-95681227D01*
X134206089Y-95614222D01*
X133980618Y-95520830D01*
X133980621Y-95520830D01*
X133874992Y-95495470D01*
X133743302Y-95463854D01*
X133743300Y-95463853D01*
X133743297Y-95463853D01*
X133500000Y-95444706D01*
X133256702Y-95463853D01*
X133019380Y-95520830D01*
X132793910Y-95614222D01*
X132585826Y-95741737D01*
X132585823Y-95741738D01*
X132400241Y-95900241D01*
X132241738Y-96085823D01*
X132241737Y-96085826D01*
X132114222Y-96293910D01*
X132020830Y-96519380D01*
X131963853Y-96756702D01*
X131944706Y-97000000D01*
X120400500Y-97000000D01*
X120400500Y-93550000D01*
X126814706Y-93550000D01*
X126833853Y-93793297D01*
X126890830Y-94030619D01*
X126984222Y-94256089D01*
X127111737Y-94464173D01*
X127111738Y-94464176D01*
X127111741Y-94464179D01*
X127270241Y-94649759D01*
X127368979Y-94734089D01*
X127455823Y-94808261D01*
X127455826Y-94808262D01*
X127663910Y-94935777D01*
X127889381Y-95029169D01*
X127889378Y-95029169D01*
X127889384Y-95029170D01*
X127889388Y-95029172D01*
X128126698Y-95086146D01*
X128370000Y-95105294D01*
X128613302Y-95086146D01*
X128850612Y-95029172D01*
X129076089Y-94935777D01*
X129284179Y-94808259D01*
X129469759Y-94649759D01*
X129545710Y-94560832D01*
X129604216Y-94522638D01*
X129674084Y-94522139D01*
X129733131Y-94559493D01*
X129734290Y-94560832D01*
X129810038Y-94649522D01*
X129810241Y-94649759D01*
X129846293Y-94680550D01*
X129995823Y-94808261D01*
X129995826Y-94808262D01*
X130203910Y-94935777D01*
X130429381Y-95029169D01*
X130429378Y-95029169D01*
X130429384Y-95029170D01*
X130429388Y-95029172D01*
X130666698Y-95086146D01*
X130910000Y-95105294D01*
X131153302Y-95086146D01*
X131390612Y-95029172D01*
X131616089Y-94935777D01*
X131824179Y-94808259D01*
X131877570Y-94762657D01*
X131941326Y-94734089D01*
X132010412Y-94744524D01*
X132062889Y-94790654D01*
X132063077Y-94790952D01*
X132070184Y-94802262D01*
X132197738Y-94929816D01*
X132350478Y-95025789D01*
X132520745Y-95085368D01*
X132520750Y-95085369D01*
X132611246Y-95095565D01*
X132655040Y-95100499D01*
X132655043Y-95100500D01*
X132655046Y-95100500D01*
X134244957Y-95100500D01*
X134244958Y-95100499D01*
X134312104Y-95092934D01*
X134379249Y-95085369D01*
X134379252Y-95085368D01*
X134379255Y-95085368D01*
X134549522Y-95025789D01*
X134702262Y-94929816D01*
X134829816Y-94802262D01*
X134829913Y-94802106D01*
X134830001Y-94802028D01*
X134834159Y-94796816D01*
X134835071Y-94797543D01*
X134882238Y-94755811D01*
X134951290Y-94745152D01*
X135015143Y-94773518D01*
X135015446Y-94773776D01*
X135055818Y-94808257D01*
X135055820Y-94808258D01*
X135055821Y-94808259D01*
X135055826Y-94808262D01*
X135263910Y-94935777D01*
X135489381Y-95029169D01*
X135489378Y-95029169D01*
X135489384Y-95029170D01*
X135489388Y-95029172D01*
X135726698Y-95086146D01*
X135970000Y-95105294D01*
X136213302Y-95086146D01*
X136450612Y-95029172D01*
X136676089Y-94935777D01*
X136884179Y-94808259D01*
X137069759Y-94649759D01*
X137145710Y-94560832D01*
X137204216Y-94522638D01*
X137274084Y-94522139D01*
X137333131Y-94559493D01*
X137334290Y-94560832D01*
X137410038Y-94649522D01*
X137410241Y-94649759D01*
X137446293Y-94680550D01*
X137595823Y-94808261D01*
X137595826Y-94808262D01*
X137803910Y-94935777D01*
X138029381Y-95029169D01*
X138029378Y-95029169D01*
X138029384Y-95029170D01*
X138029388Y-95029172D01*
X138266698Y-95086146D01*
X138510000Y-95105294D01*
X138753302Y-95086146D01*
X138990612Y-95029172D01*
X139216089Y-94935777D01*
X139424179Y-94808259D01*
X139477570Y-94762657D01*
X139541326Y-94734089D01*
X139610412Y-94744524D01*
X139662889Y-94790654D01*
X139663077Y-94790952D01*
X139670184Y-94802262D01*
X139797738Y-94929816D01*
X139950478Y-95025789D01*
X140120745Y-95085368D01*
X140120750Y-95085369D01*
X140211246Y-95095565D01*
X140255040Y-95100499D01*
X140255043Y-95100500D01*
X140255046Y-95100500D01*
X141844957Y-95100500D01*
X141844958Y-95100499D01*
X141912104Y-95092934D01*
X141979249Y-95085369D01*
X141979252Y-95085368D01*
X141979255Y-95085368D01*
X142149522Y-95025789D01*
X142302262Y-94929816D01*
X142429816Y-94802262D01*
X142429913Y-94802106D01*
X142430001Y-94802028D01*
X142434159Y-94796816D01*
X142435071Y-94797543D01*
X142482238Y-94755811D01*
X142551290Y-94745152D01*
X142615143Y-94773518D01*
X142615446Y-94773776D01*
X142655818Y-94808257D01*
X142655820Y-94808258D01*
X142655821Y-94808259D01*
X142655826Y-94808262D01*
X142863910Y-94935777D01*
X143089381Y-95029169D01*
X143089378Y-95029169D01*
X143089384Y-95029170D01*
X143089388Y-95029172D01*
X143326698Y-95086146D01*
X143570000Y-95105294D01*
X143813302Y-95086146D01*
X144050612Y-95029172D01*
X144276089Y-94935777D01*
X144484179Y-94808259D01*
X144669759Y-94649759D01*
X144745710Y-94560832D01*
X144804216Y-94522638D01*
X144874084Y-94522139D01*
X144933131Y-94559493D01*
X144934290Y-94560832D01*
X145010038Y-94649522D01*
X145010241Y-94649759D01*
X145046293Y-94680550D01*
X145195823Y-94808261D01*
X145195826Y-94808262D01*
X145403910Y-94935777D01*
X145629381Y-95029169D01*
X145629378Y-95029169D01*
X145629384Y-95029170D01*
X145629388Y-95029172D01*
X145866698Y-95086146D01*
X146110000Y-95105294D01*
X146353302Y-95086146D01*
X146590612Y-95029172D01*
X146816089Y-94935777D01*
X147024179Y-94808259D01*
X147077570Y-94762657D01*
X147141326Y-94734089D01*
X147210412Y-94744524D01*
X147262889Y-94790654D01*
X147263077Y-94790952D01*
X147270184Y-94802262D01*
X147397738Y-94929816D01*
X147550478Y-95025789D01*
X147720745Y-95085368D01*
X147720750Y-95085369D01*
X147811246Y-95095565D01*
X147855040Y-95100499D01*
X147855043Y-95100500D01*
X147855046Y-95100500D01*
X149444957Y-95100500D01*
X149444958Y-95100499D01*
X149512104Y-95092934D01*
X149579249Y-95085369D01*
X149579252Y-95085368D01*
X149579255Y-95085368D01*
X149749522Y-95025789D01*
X149902262Y-94929816D01*
X150004854Y-94827223D01*
X150066173Y-94793741D01*
X150135865Y-94798725D01*
X150157322Y-94809180D01*
X150363910Y-94935777D01*
X150589381Y-95029169D01*
X150589378Y-95029169D01*
X150589384Y-95029170D01*
X150589388Y-95029172D01*
X150826698Y-95086146D01*
X151070000Y-95105294D01*
X151313302Y-95086146D01*
X151550612Y-95029172D01*
X151776089Y-94935777D01*
X151984179Y-94808259D01*
X152169759Y-94649759D01*
X152245710Y-94560832D01*
X152304216Y-94522638D01*
X152374084Y-94522139D01*
X152433131Y-94559493D01*
X152434290Y-94560832D01*
X152510038Y-94649522D01*
X152510241Y-94649759D01*
X152546293Y-94680550D01*
X152695823Y-94808261D01*
X152695826Y-94808262D01*
X152903910Y-94935777D01*
X153129381Y-95029169D01*
X153129378Y-95029169D01*
X153129384Y-95029170D01*
X153129388Y-95029172D01*
X153366698Y-95086146D01*
X153610000Y-95105294D01*
X153853302Y-95086146D01*
X154090612Y-95029172D01*
X154316089Y-94935777D01*
X154524179Y-94808259D01*
X154577570Y-94762657D01*
X154641326Y-94734089D01*
X154710412Y-94744524D01*
X154762889Y-94790654D01*
X154763077Y-94790952D01*
X154770184Y-94802262D01*
X154897738Y-94929816D01*
X155050478Y-95025789D01*
X155220745Y-95085368D01*
X155220750Y-95085369D01*
X155311246Y-95095565D01*
X155355040Y-95100499D01*
X155355043Y-95100500D01*
X155355046Y-95100500D01*
X156944957Y-95100500D01*
X156944958Y-95100499D01*
X157012104Y-95092934D01*
X157079249Y-95085369D01*
X157079252Y-95085368D01*
X157079255Y-95085368D01*
X157249522Y-95025789D01*
X157402262Y-94929816D01*
X157529816Y-94802262D01*
X157625789Y-94649522D01*
X157685368Y-94479255D01*
X157687068Y-94464173D01*
X157700499Y-94344960D01*
X157700500Y-94344956D01*
X157700500Y-92755043D01*
X157700499Y-92755039D01*
X157685369Y-92620750D01*
X157685368Y-92620745D01*
X157625789Y-92450478D01*
X157613277Y-92430566D01*
X157557788Y-92342255D01*
X157529816Y-92297738D01*
X157402262Y-92170184D01*
X157371971Y-92151151D01*
X157249523Y-92074211D01*
X157079254Y-92014631D01*
X157079249Y-92014630D01*
X156944960Y-91999500D01*
X156944954Y-91999500D01*
X155355046Y-91999500D01*
X155355039Y-91999500D01*
X155220750Y-92014630D01*
X155220745Y-92014631D01*
X155050476Y-92074211D01*
X154897737Y-92170184D01*
X154770182Y-92297739D01*
X154770182Y-92297740D01*
X154763090Y-92309026D01*
X154710753Y-92355314D01*
X154641699Y-92365960D01*
X154577852Y-92337582D01*
X154577567Y-92337339D01*
X154564554Y-92326225D01*
X154537577Y-92303184D01*
X154524176Y-92291738D01*
X154524173Y-92291737D01*
X154316089Y-92164222D01*
X154090618Y-92070830D01*
X154090621Y-92070830D01*
X153984992Y-92045470D01*
X153853302Y-92013854D01*
X153853300Y-92013853D01*
X153853297Y-92013853D01*
X153610000Y-91994706D01*
X153366702Y-92013853D01*
X153129380Y-92070830D01*
X152903910Y-92164222D01*
X152695826Y-92291737D01*
X152695823Y-92291738D01*
X152510241Y-92450241D01*
X152434290Y-92539168D01*
X152375783Y-92577361D01*
X152305915Y-92577859D01*
X152246869Y-92540505D01*
X152245710Y-92539168D01*
X152227844Y-92518250D01*
X152169759Y-92450241D01*
X152037852Y-92337582D01*
X151984176Y-92291738D01*
X151984173Y-92291737D01*
X151776089Y-92164222D01*
X151550618Y-92070830D01*
X151550621Y-92070830D01*
X151444992Y-92045470D01*
X151313302Y-92013854D01*
X151313300Y-92013853D01*
X151313297Y-92013853D01*
X151070000Y-91994706D01*
X150826702Y-92013853D01*
X150589380Y-92070830D01*
X150363912Y-92164222D01*
X150157321Y-92290820D01*
X150089875Y-92309064D01*
X150023273Y-92287947D01*
X150004851Y-92272773D01*
X149902262Y-92170184D01*
X149749523Y-92074211D01*
X149579254Y-92014631D01*
X149579249Y-92014630D01*
X149444960Y-91999500D01*
X149444954Y-91999500D01*
X147855046Y-91999500D01*
X147855039Y-91999500D01*
X147720750Y-92014630D01*
X147720745Y-92014631D01*
X147550476Y-92074211D01*
X147397737Y-92170184D01*
X147270182Y-92297739D01*
X147270182Y-92297740D01*
X147263090Y-92309026D01*
X147210753Y-92355314D01*
X147141699Y-92365960D01*
X147077852Y-92337582D01*
X147077567Y-92337339D01*
X147064554Y-92326225D01*
X147037577Y-92303184D01*
X147024176Y-92291738D01*
X147024173Y-92291737D01*
X146816089Y-92164222D01*
X146590618Y-92070830D01*
X146590621Y-92070830D01*
X146484992Y-92045470D01*
X146353302Y-92013854D01*
X146353300Y-92013853D01*
X146353297Y-92013853D01*
X146110000Y-91994706D01*
X145866702Y-92013853D01*
X145629380Y-92070830D01*
X145403910Y-92164222D01*
X145195826Y-92291737D01*
X145195823Y-92291738D01*
X145010241Y-92450241D01*
X144934290Y-92539168D01*
X144875783Y-92577361D01*
X144805915Y-92577859D01*
X144746869Y-92540505D01*
X144745710Y-92539168D01*
X144727844Y-92518250D01*
X144669759Y-92450241D01*
X144537852Y-92337582D01*
X144484176Y-92291738D01*
X144484173Y-92291737D01*
X144276089Y-92164222D01*
X144050618Y-92070830D01*
X144050621Y-92070830D01*
X143944992Y-92045470D01*
X143813302Y-92013854D01*
X143813300Y-92013853D01*
X143813297Y-92013853D01*
X143570000Y-91994706D01*
X143326702Y-92013853D01*
X143089380Y-92070830D01*
X142863910Y-92164222D01*
X142655829Y-92291735D01*
X142655814Y-92291746D01*
X142615443Y-92326225D01*
X142551681Y-92354794D01*
X142482596Y-92344356D01*
X142435000Y-92302513D01*
X142434159Y-92303184D01*
X142430396Y-92298466D01*
X142430121Y-92298224D01*
X142429816Y-92297738D01*
X142302262Y-92170184D01*
X142271971Y-92151151D01*
X142149523Y-92074211D01*
X141979254Y-92014631D01*
X141979249Y-92014630D01*
X141844960Y-91999500D01*
X141844954Y-91999500D01*
X140255046Y-91999500D01*
X140255039Y-91999500D01*
X140120750Y-92014630D01*
X140120745Y-92014631D01*
X139950476Y-92074211D01*
X139797737Y-92170184D01*
X139670182Y-92297739D01*
X139670182Y-92297740D01*
X139663090Y-92309026D01*
X139610753Y-92355314D01*
X139541699Y-92365960D01*
X139477852Y-92337582D01*
X139477567Y-92337339D01*
X139464554Y-92326225D01*
X139437577Y-92303184D01*
X139424176Y-92291738D01*
X139424173Y-92291737D01*
X139216089Y-92164222D01*
X138990618Y-92070830D01*
X138990621Y-92070830D01*
X138884992Y-92045470D01*
X138753302Y-92013854D01*
X138753300Y-92013853D01*
X138753297Y-92013853D01*
X138510000Y-91994706D01*
X138266702Y-92013853D01*
X138029380Y-92070830D01*
X137803910Y-92164222D01*
X137595826Y-92291737D01*
X137595823Y-92291738D01*
X137410241Y-92450241D01*
X137334290Y-92539168D01*
X137275783Y-92577361D01*
X137205915Y-92577859D01*
X137146869Y-92540505D01*
X137145710Y-92539168D01*
X137127844Y-92518250D01*
X137069759Y-92450241D01*
X136937852Y-92337582D01*
X136884176Y-92291738D01*
X136884173Y-92291737D01*
X136676089Y-92164222D01*
X136450618Y-92070830D01*
X136450621Y-92070830D01*
X136344992Y-92045470D01*
X136213302Y-92013854D01*
X136213300Y-92013853D01*
X136213297Y-92013853D01*
X135970000Y-91994706D01*
X135726702Y-92013853D01*
X135489380Y-92070830D01*
X135263910Y-92164222D01*
X135055829Y-92291735D01*
X135055814Y-92291746D01*
X135015443Y-92326225D01*
X134951681Y-92354794D01*
X134882596Y-92344356D01*
X134835000Y-92302513D01*
X134834159Y-92303184D01*
X134830396Y-92298466D01*
X134830121Y-92298224D01*
X134829816Y-92297738D01*
X134702262Y-92170184D01*
X134671971Y-92151151D01*
X134549523Y-92074211D01*
X134379254Y-92014631D01*
X134379249Y-92014630D01*
X134244960Y-91999500D01*
X134244954Y-91999500D01*
X132655046Y-91999500D01*
X132655039Y-91999500D01*
X132520750Y-92014630D01*
X132520745Y-92014631D01*
X132350476Y-92074211D01*
X132197737Y-92170184D01*
X132070182Y-92297739D01*
X132070182Y-92297740D01*
X132063090Y-92309026D01*
X132010753Y-92355314D01*
X131941699Y-92365960D01*
X131877852Y-92337582D01*
X131877567Y-92337339D01*
X131864554Y-92326225D01*
X131837577Y-92303184D01*
X131824176Y-92291738D01*
X131824173Y-92291737D01*
X131616089Y-92164222D01*
X131390618Y-92070830D01*
X131390621Y-92070830D01*
X131284992Y-92045470D01*
X131153302Y-92013854D01*
X131153300Y-92013853D01*
X131153297Y-92013853D01*
X130910000Y-91994706D01*
X130666702Y-92013853D01*
X130429380Y-92070830D01*
X130203910Y-92164222D01*
X129995826Y-92291737D01*
X129995823Y-92291738D01*
X129810241Y-92450241D01*
X129734290Y-92539168D01*
X129675783Y-92577361D01*
X129605915Y-92577859D01*
X129546869Y-92540505D01*
X129545710Y-92539168D01*
X129527844Y-92518250D01*
X129469759Y-92450241D01*
X129337852Y-92337582D01*
X129284176Y-92291738D01*
X129284173Y-92291737D01*
X129076089Y-92164222D01*
X128850618Y-92070830D01*
X128850621Y-92070830D01*
X128744992Y-92045470D01*
X128613302Y-92013854D01*
X128613300Y-92013853D01*
X128613297Y-92013853D01*
X128370000Y-91994706D01*
X128126702Y-92013853D01*
X127889380Y-92070830D01*
X127663910Y-92164222D01*
X127455826Y-92291737D01*
X127455823Y-92291738D01*
X127270241Y-92450241D01*
X127111738Y-92635823D01*
X127111737Y-92635826D01*
X126984222Y-92843910D01*
X126890830Y-93069380D01*
X126833853Y-93306702D01*
X126814706Y-93550000D01*
X120400500Y-93550000D01*
X120400500Y-81400000D01*
X129794551Y-81400000D01*
X129814317Y-81651151D01*
X129873126Y-81896110D01*
X129969533Y-82128859D01*
X130101160Y-82343653D01*
X130101161Y-82343656D01*
X130101164Y-82343659D01*
X130264776Y-82535224D01*
X130413066Y-82661875D01*
X130456343Y-82698838D01*
X130456346Y-82698839D01*
X130671140Y-82830466D01*
X130877579Y-82915975D01*
X130903889Y-82926873D01*
X131148852Y-82985683D01*
X131400000Y-83005449D01*
X131651148Y-82985683D01*
X131896111Y-82926873D01*
X132128859Y-82830466D01*
X132343659Y-82698836D01*
X132535224Y-82535224D01*
X132698836Y-82343659D01*
X132830466Y-82128859D01*
X132838749Y-82108862D01*
X132885439Y-81996143D01*
X132929280Y-81941739D01*
X132995574Y-81919674D01*
X133063273Y-81936953D01*
X133110884Y-81988090D01*
X133114561Y-81996143D01*
X133169531Y-82128855D01*
X133169533Y-82128858D01*
X133301160Y-82343653D01*
X133301161Y-82343656D01*
X133301164Y-82343659D01*
X133464776Y-82535224D01*
X133613066Y-82661875D01*
X133656343Y-82698838D01*
X133656346Y-82698839D01*
X133871140Y-82830466D01*
X134077579Y-82915975D01*
X134103889Y-82926873D01*
X134348852Y-82985683D01*
X134600000Y-83005449D01*
X134851148Y-82985683D01*
X135096111Y-82926873D01*
X135328859Y-82830466D01*
X135543659Y-82698836D01*
X135735224Y-82535224D01*
X135898836Y-82343659D01*
X136030466Y-82128859D01*
X136038749Y-82108862D01*
X136085439Y-81996143D01*
X136129280Y-81941739D01*
X136195574Y-81919674D01*
X136263273Y-81936953D01*
X136310884Y-81988090D01*
X136314561Y-81996143D01*
X136369531Y-82128855D01*
X136369533Y-82128858D01*
X136501160Y-82343653D01*
X136501161Y-82343656D01*
X136501164Y-82343659D01*
X136664776Y-82535224D01*
X136813066Y-82661875D01*
X136856343Y-82698838D01*
X136856346Y-82698839D01*
X137071140Y-82830466D01*
X137277579Y-82915975D01*
X137303889Y-82926873D01*
X137548852Y-82985683D01*
X137800000Y-83005449D01*
X138051148Y-82985683D01*
X138296111Y-82926873D01*
X138528859Y-82830466D01*
X138743659Y-82698836D01*
X138935224Y-82535224D01*
X139098836Y-82343659D01*
X139230466Y-82128859D01*
X139238751Y-82108859D01*
X139289581Y-81986143D01*
X139333422Y-81931739D01*
X139399716Y-81909674D01*
X139467415Y-81926953D01*
X139515026Y-81978090D01*
X139518703Y-81986143D01*
X139569531Y-82108855D01*
X139569533Y-82108858D01*
X139701160Y-82323653D01*
X139701161Y-82323656D01*
X139756604Y-82388571D01*
X139864776Y-82515224D01*
X140013066Y-82641875D01*
X140056343Y-82678838D01*
X140056346Y-82678839D01*
X140271140Y-82810466D01*
X140476309Y-82895449D01*
X140503889Y-82906873D01*
X140748852Y-82965683D01*
X141000000Y-82985449D01*
X141251148Y-82965683D01*
X141496111Y-82906873D01*
X141728859Y-82810466D01*
X141943659Y-82678836D01*
X142135224Y-82515224D01*
X142298836Y-82323659D01*
X142430466Y-82108859D01*
X142467745Y-82018859D01*
X142485439Y-81976143D01*
X142529280Y-81921739D01*
X142595574Y-81899674D01*
X142663273Y-81916953D01*
X142710884Y-81968090D01*
X142714561Y-81976143D01*
X142769531Y-82108855D01*
X142769533Y-82108858D01*
X142901160Y-82323653D01*
X142901161Y-82323656D01*
X142956604Y-82388571D01*
X143064776Y-82515224D01*
X143213066Y-82641875D01*
X143256343Y-82678838D01*
X143256346Y-82678839D01*
X143471140Y-82810466D01*
X143676309Y-82895449D01*
X143703889Y-82906873D01*
X143948852Y-82965683D01*
X144200000Y-82985449D01*
X144451148Y-82965683D01*
X144696111Y-82906873D01*
X144928859Y-82810466D01*
X145143659Y-82678836D01*
X145335224Y-82515224D01*
X145498836Y-82323659D01*
X145630466Y-82108859D01*
X145667745Y-82018859D01*
X145685439Y-81976143D01*
X145729280Y-81921739D01*
X145795574Y-81899674D01*
X145863273Y-81916953D01*
X145910884Y-81968090D01*
X145914561Y-81976143D01*
X145969531Y-82108855D01*
X145969533Y-82108858D01*
X146101160Y-82323653D01*
X146101161Y-82323656D01*
X146156604Y-82388571D01*
X146264776Y-82515224D01*
X146413066Y-82641875D01*
X146456343Y-82678838D01*
X146456346Y-82678839D01*
X146671140Y-82810466D01*
X146876309Y-82895449D01*
X146903889Y-82906873D01*
X147148852Y-82965683D01*
X147400000Y-82985449D01*
X147651148Y-82965683D01*
X147896111Y-82906873D01*
X148128859Y-82810466D01*
X148343659Y-82678836D01*
X148535224Y-82515224D01*
X148698836Y-82323659D01*
X148830466Y-82108859D01*
X148881297Y-81986139D01*
X148925136Y-81931739D01*
X148991430Y-81909674D01*
X149059129Y-81926953D01*
X149106740Y-81978089D01*
X149110418Y-81986142D01*
X149169533Y-82128859D01*
X149301160Y-82343653D01*
X149301161Y-82343656D01*
X149301164Y-82343659D01*
X149464776Y-82535224D01*
X149613066Y-82661875D01*
X149656343Y-82698838D01*
X149656346Y-82698839D01*
X149871140Y-82830466D01*
X150077579Y-82915975D01*
X150103889Y-82926873D01*
X150348852Y-82985683D01*
X150600000Y-83005449D01*
X150851148Y-82985683D01*
X151096111Y-82926873D01*
X151328859Y-82830466D01*
X151543659Y-82698836D01*
X151735224Y-82535224D01*
X151898836Y-82343659D01*
X152030466Y-82128859D01*
X152038749Y-82108862D01*
X152085439Y-81996143D01*
X152129280Y-81941739D01*
X152195574Y-81919674D01*
X152263273Y-81936953D01*
X152310884Y-81988090D01*
X152314561Y-81996143D01*
X152369531Y-82128855D01*
X152369533Y-82128858D01*
X152501160Y-82343653D01*
X152501161Y-82343656D01*
X152501164Y-82343659D01*
X152664776Y-82535224D01*
X152813066Y-82661875D01*
X152856343Y-82698838D01*
X152856346Y-82698839D01*
X153071140Y-82830466D01*
X153277579Y-82915975D01*
X153303889Y-82926873D01*
X153548852Y-82985683D01*
X153800000Y-83005449D01*
X154051148Y-82985683D01*
X154296111Y-82926873D01*
X154528859Y-82830466D01*
X154743659Y-82698836D01*
X154935224Y-82535224D01*
X155098836Y-82343659D01*
X155230466Y-82128859D01*
X155326873Y-81896111D01*
X155344858Y-81821194D01*
X155379648Y-81760604D01*
X155441674Y-81728439D01*
X155511243Y-81734914D01*
X155566267Y-81777974D01*
X155579993Y-81802689D01*
X155669533Y-82018859D01*
X155801160Y-82233653D01*
X155801161Y-82233656D01*
X155801164Y-82233659D01*
X155964776Y-82425224D01*
X156113066Y-82551875D01*
X156156343Y-82588838D01*
X156156346Y-82588839D01*
X156371140Y-82720466D01*
X156588421Y-82810466D01*
X156603889Y-82816873D01*
X156848852Y-82875683D01*
X157044634Y-82891091D01*
X157109922Y-82915975D01*
X157151392Y-82972206D01*
X157158522Y-83024437D01*
X157144706Y-83199999D01*
X157163853Y-83443297D01*
X157220830Y-83680619D01*
X157314222Y-83906089D01*
X157441737Y-84114173D01*
X157441738Y-84114176D01*
X157441741Y-84114179D01*
X157600241Y-84299759D01*
X157743897Y-84422453D01*
X157785823Y-84458261D01*
X157785826Y-84458262D01*
X157993910Y-84585777D01*
X158219381Y-84679169D01*
X158219378Y-84679169D01*
X158219384Y-84679170D01*
X158219388Y-84679172D01*
X158456698Y-84736146D01*
X158700000Y-84755294D01*
X158943302Y-84736146D01*
X159180612Y-84679172D01*
X159406089Y-84585777D01*
X159614179Y-84458259D01*
X159799759Y-84299759D01*
X159958259Y-84114179D01*
X160085777Y-83906089D01*
X160179172Y-83680612D01*
X160236146Y-83443302D01*
X160255294Y-83200000D01*
X160241476Y-83024433D01*
X160255840Y-82956061D01*
X160304891Y-82906304D01*
X160355362Y-82891091D01*
X160551148Y-82875683D01*
X160796111Y-82816873D01*
X161028859Y-82720466D01*
X161243659Y-82588836D01*
X161435224Y-82425224D01*
X161598836Y-82233659D01*
X161730466Y-82018859D01*
X161826873Y-81786111D01*
X161828827Y-81777974D01*
X161829426Y-81775479D01*
X161864215Y-81714886D01*
X161926241Y-81682721D01*
X161995810Y-81689196D01*
X162050835Y-81732255D01*
X162070574Y-81775479D01*
X162073125Y-81786107D01*
X162073126Y-81786109D01*
X162169533Y-82018859D01*
X162301160Y-82233653D01*
X162301161Y-82233656D01*
X162301164Y-82233659D01*
X162464776Y-82425224D01*
X162613066Y-82551875D01*
X162656343Y-82588838D01*
X162656346Y-82588839D01*
X162871140Y-82720466D01*
X163088421Y-82810466D01*
X163103889Y-82816873D01*
X163348852Y-82875683D01*
X163600000Y-82895449D01*
X163851148Y-82875683D01*
X164096111Y-82816873D01*
X164328859Y-82720466D01*
X164543659Y-82588836D01*
X164735224Y-82425224D01*
X164898836Y-82233659D01*
X165030466Y-82018859D01*
X165126873Y-81786111D01*
X165185683Y-81541148D01*
X165205449Y-81290000D01*
X165185683Y-81038852D01*
X165126873Y-80793889D01*
X165076030Y-80671143D01*
X165030466Y-80561140D01*
X164898839Y-80346346D01*
X164898838Y-80346343D01*
X164812091Y-80244776D01*
X164735224Y-80154776D01*
X164580351Y-80022502D01*
X164543656Y-79991161D01*
X164543653Y-79991160D01*
X164328859Y-79859533D01*
X164096110Y-79763126D01*
X163851151Y-79704317D01*
X163600000Y-79684551D01*
X163348848Y-79704317D01*
X163103889Y-79763126D01*
X162871140Y-79859533D01*
X162656346Y-79991160D01*
X162656343Y-79991161D01*
X162464776Y-80154776D01*
X162301161Y-80346343D01*
X162301160Y-80346346D01*
X162169533Y-80561140D01*
X162073126Y-80793889D01*
X162070574Y-80804522D01*
X162035783Y-80865114D01*
X161973757Y-80897278D01*
X161904188Y-80890802D01*
X161849164Y-80847742D01*
X161829426Y-80804522D01*
X161826873Y-80793889D01*
X161730466Y-80561140D01*
X161598839Y-80346346D01*
X161598838Y-80346343D01*
X161512091Y-80244776D01*
X161435224Y-80154776D01*
X161280351Y-80022502D01*
X161243656Y-79991161D01*
X161243653Y-79991160D01*
X161028859Y-79859533D01*
X160796110Y-79763126D01*
X160551151Y-79704317D01*
X160362787Y-79689492D01*
X160300000Y-79684551D01*
X160299999Y-79684551D01*
X160134228Y-79697597D01*
X160065851Y-79683232D01*
X160016095Y-79634181D01*
X160000500Y-79573979D01*
X160000500Y-78553204D01*
X160020185Y-78486165D01*
X160072989Y-78440410D01*
X160142147Y-78430466D01*
X160205703Y-78459491D01*
X160208817Y-78462284D01*
X160236783Y-78488232D01*
X160447366Y-78631805D01*
X160447371Y-78631807D01*
X160447372Y-78631808D01*
X160447373Y-78631809D01*
X160552675Y-78682519D01*
X160676992Y-78742387D01*
X160676993Y-78742387D01*
X160676996Y-78742389D01*
X160920542Y-78817513D01*
X161172565Y-78855500D01*
X161427435Y-78855500D01*
X161679458Y-78817513D01*
X161923004Y-78742389D01*
X162104458Y-78655005D01*
X162152626Y-78631809D01*
X162152626Y-78631808D01*
X162152634Y-78631805D01*
X162363217Y-78488232D01*
X162550050Y-78314877D01*
X162708959Y-78115612D01*
X162836393Y-77894888D01*
X162929508Y-77657637D01*
X162986222Y-77409157D01*
X163005268Y-77155000D01*
X162998390Y-77063224D01*
X162986222Y-76900845D01*
X162967054Y-76816866D01*
X162929508Y-76652363D01*
X162836393Y-76415112D01*
X162708959Y-76194388D01*
X162550050Y-75995123D01*
X162363217Y-75821768D01*
X162152634Y-75678195D01*
X162152630Y-75678193D01*
X162152627Y-75678191D01*
X162152626Y-75678190D01*
X161923006Y-75567612D01*
X161923008Y-75567612D01*
X161679466Y-75492489D01*
X161679462Y-75492488D01*
X161679458Y-75492487D01*
X161558231Y-75474214D01*
X161427440Y-75454500D01*
X161427435Y-75454500D01*
X161172565Y-75454500D01*
X161172559Y-75454500D01*
X161015609Y-75478157D01*
X160920542Y-75492487D01*
X160920539Y-75492488D01*
X160920533Y-75492489D01*
X160676992Y-75567612D01*
X160447373Y-75678190D01*
X160447372Y-75678191D01*
X160236782Y-75821768D01*
X160208840Y-75847695D01*
X160146307Y-75878862D01*
X160076851Y-75871274D01*
X160022522Y-75827340D01*
X160000572Y-75761008D01*
X160000500Y-75756795D01*
X160000500Y-69880219D01*
X160018773Y-69815429D01*
X160085777Y-69706089D01*
X160179169Y-69480619D01*
X160179168Y-69480619D01*
X160179172Y-69480612D01*
X160236146Y-69243302D01*
X160255294Y-69000000D01*
X160236146Y-68756698D01*
X160179172Y-68519388D01*
X160141756Y-68429058D01*
X160092010Y-68308959D01*
X160084541Y-68239489D01*
X160108193Y-68186024D01*
X160191941Y-68076883D01*
X160309296Y-67873617D01*
X160399117Y-67656772D01*
X160459864Y-67430059D01*
X160490500Y-67197356D01*
X160490500Y-64982650D01*
X161869500Y-64982650D01*
X161869500Y-67197349D01*
X161869501Y-67197365D01*
X161900134Y-67430048D01*
X161900135Y-67430053D01*
X161900136Y-67430059D01*
X161960883Y-67656772D01*
X161960886Y-67656779D01*
X162050700Y-67873610D01*
X162050705Y-67873620D01*
X162168058Y-68076882D01*
X162310940Y-68263090D01*
X162310946Y-68263097D01*
X162476902Y-68429053D01*
X162476909Y-68429059D01*
X162663117Y-68571941D01*
X162866379Y-68689294D01*
X162866389Y-68689299D01*
X162959316Y-68727790D01*
X163083228Y-68779117D01*
X163309941Y-68839864D01*
X163542644Y-68870500D01*
X163542651Y-68870500D01*
X163777349Y-68870500D01*
X163777356Y-68870500D01*
X164010059Y-68839864D01*
X164236772Y-68779117D01*
X164453617Y-68689296D01*
X164656883Y-68571941D01*
X164843092Y-68429058D01*
X165009058Y-68263092D01*
X165151941Y-68076883D01*
X165269296Y-67873617D01*
X165359117Y-67656772D01*
X165419864Y-67430059D01*
X165450500Y-67197356D01*
X165450500Y-64982644D01*
X165419864Y-64749941D01*
X165359117Y-64523228D01*
X165307790Y-64399316D01*
X165269299Y-64306389D01*
X165269294Y-64306379D01*
X165151941Y-64103117D01*
X165122723Y-64065039D01*
X166869500Y-64065039D01*
X166869500Y-68114960D01*
X166884630Y-68249249D01*
X166884631Y-68249254D01*
X166944211Y-68419523D01*
X166977148Y-68471941D01*
X167040184Y-68572262D01*
X167167738Y-68699816D01*
X167231471Y-68739862D01*
X167293944Y-68779117D01*
X167320478Y-68795789D01*
X167446437Y-68839864D01*
X167490745Y-68855368D01*
X167490750Y-68855369D01*
X167581246Y-68865565D01*
X167625040Y-68870499D01*
X167625043Y-68870500D01*
X167625046Y-68870500D01*
X169694957Y-68870500D01*
X169694958Y-68870499D01*
X169762104Y-68862934D01*
X169829249Y-68855369D01*
X169829252Y-68855368D01*
X169829255Y-68855368D01*
X169999522Y-68795789D01*
X170152262Y-68699816D01*
X170279816Y-68572262D01*
X170375789Y-68419522D01*
X170435368Y-68249255D01*
X170436469Y-68239489D01*
X170450499Y-68114960D01*
X170450500Y-68114956D01*
X170450500Y-64065043D01*
X170450499Y-64065039D01*
X170435369Y-63930750D01*
X170435368Y-63930745D01*
X170395535Y-63816908D01*
X170375789Y-63760478D01*
X170279816Y-63607738D01*
X170152262Y-63480184D01*
X170117275Y-63458200D01*
X169999523Y-63384211D01*
X169829254Y-63324631D01*
X169829249Y-63324630D01*
X169694960Y-63309500D01*
X169694954Y-63309500D01*
X167625046Y-63309500D01*
X167625039Y-63309500D01*
X167490750Y-63324630D01*
X167490745Y-63324631D01*
X167320476Y-63384211D01*
X167167737Y-63480184D01*
X167040184Y-63607737D01*
X166944211Y-63760476D01*
X166884631Y-63930745D01*
X166884630Y-63930750D01*
X166869500Y-64065039D01*
X165122723Y-64065039D01*
X165009059Y-63916909D01*
X165009053Y-63916902D01*
X164843097Y-63750946D01*
X164843090Y-63750940D01*
X164656882Y-63608058D01*
X164453620Y-63490705D01*
X164453610Y-63490700D01*
X164236779Y-63400886D01*
X164236780Y-63400886D01*
X164236772Y-63400883D01*
X164010059Y-63340136D01*
X164010053Y-63340135D01*
X164010048Y-63340134D01*
X163777365Y-63309501D01*
X163777362Y-63309500D01*
X163777356Y-63309500D01*
X163542644Y-63309500D01*
X163542638Y-63309500D01*
X163542634Y-63309501D01*
X163309951Y-63340134D01*
X163309944Y-63340135D01*
X163309941Y-63340136D01*
X163234370Y-63360385D01*
X163083234Y-63400881D01*
X163083220Y-63400886D01*
X162866389Y-63490700D01*
X162866379Y-63490705D01*
X162663117Y-63608058D01*
X162476909Y-63750940D01*
X162476902Y-63750946D01*
X162310946Y-63916902D01*
X162310940Y-63916909D01*
X162168058Y-64103117D01*
X162050705Y-64306379D01*
X162050700Y-64306389D01*
X161960886Y-64523220D01*
X161960881Y-64523234D01*
X161900137Y-64749938D01*
X161900134Y-64749951D01*
X161869501Y-64982634D01*
X161869500Y-64982650D01*
X160490500Y-64982650D01*
X160490500Y-64982644D01*
X160459864Y-64749941D01*
X160399117Y-64523228D01*
X160347790Y-64399316D01*
X160309299Y-64306389D01*
X160309294Y-64306379D01*
X160191941Y-64103117D01*
X160049059Y-63916909D01*
X160049053Y-63916902D01*
X159883097Y-63750946D01*
X159883090Y-63750940D01*
X159696882Y-63608058D01*
X159493620Y-63490705D01*
X159493610Y-63490700D01*
X159276779Y-63400886D01*
X159276780Y-63400886D01*
X159276772Y-63400883D01*
X159050059Y-63340136D01*
X159050053Y-63340135D01*
X159050048Y-63340134D01*
X158817365Y-63309501D01*
X158817362Y-63309500D01*
X158817356Y-63309500D01*
X158582644Y-63309500D01*
X158582638Y-63309500D01*
X158582634Y-63309501D01*
X158349951Y-63340134D01*
X158349944Y-63340135D01*
X158349941Y-63340136D01*
X158274370Y-63360385D01*
X158123234Y-63400881D01*
X158123220Y-63400886D01*
X157906389Y-63490700D01*
X157906379Y-63490705D01*
X157703117Y-63608058D01*
X157516909Y-63750940D01*
X157516902Y-63750946D01*
X157350946Y-63916902D01*
X157350940Y-63916909D01*
X157208058Y-64103117D01*
X157090705Y-64306379D01*
X157090700Y-64306389D01*
X157000886Y-64523220D01*
X157000881Y-64523234D01*
X156940137Y-64749938D01*
X156940134Y-64749951D01*
X156909501Y-64982634D01*
X156909500Y-64982650D01*
X156909500Y-67197349D01*
X156909501Y-67197365D01*
X156940134Y-67430048D01*
X156940135Y-67430053D01*
X156940136Y-67430059D01*
X157000883Y-67656772D01*
X157000886Y-67656779D01*
X157090700Y-67873610D01*
X157090705Y-67873620D01*
X157208055Y-68076878D01*
X157208058Y-68076882D01*
X157208059Y-68076883D01*
X157291805Y-68186022D01*
X157316998Y-68251189D01*
X157307989Y-68308960D01*
X157220830Y-68519380D01*
X157163853Y-68756702D01*
X157144706Y-69000000D01*
X157163853Y-69243297D01*
X157220830Y-69480619D01*
X157314222Y-69706089D01*
X157381227Y-69815429D01*
X157399500Y-69880219D01*
X157399500Y-73983134D01*
X157379815Y-74050173D01*
X157327011Y-74095928D01*
X157257853Y-74105872D01*
X157194297Y-74076847D01*
X157187819Y-74070815D01*
X157122743Y-74005739D01*
X157122736Y-74005733D01*
X156930293Y-73858067D01*
X156930292Y-73858066D01*
X156930289Y-73858064D01*
X156720212Y-73736776D01*
X156720205Y-73736773D01*
X156496104Y-73643947D01*
X156261785Y-73581161D01*
X156021289Y-73549500D01*
X156021288Y-73549500D01*
X155778712Y-73549500D01*
X155778711Y-73549500D01*
X155538214Y-73581161D01*
X155303895Y-73643947D01*
X155079794Y-73736773D01*
X155079785Y-73736777D01*
X154869706Y-73858067D01*
X154677263Y-74005733D01*
X154677256Y-74005739D01*
X154505739Y-74177256D01*
X154505733Y-74177263D01*
X154358067Y-74369706D01*
X154236777Y-74579785D01*
X154236773Y-74579794D01*
X154143947Y-74803895D01*
X154081161Y-75038214D01*
X154049500Y-75278711D01*
X154049500Y-75521288D01*
X154080504Y-75756795D01*
X154081162Y-75761789D01*
X154099335Y-75829611D01*
X154143947Y-75996104D01*
X154206262Y-76146544D01*
X154236776Y-76220212D01*
X154358064Y-76430289D01*
X154358066Y-76430292D01*
X154358067Y-76430293D01*
X154505733Y-76622736D01*
X154505739Y-76622743D01*
X154677256Y-76794260D01*
X154677262Y-76794265D01*
X154869711Y-76941936D01*
X155079788Y-77063224D01*
X155275269Y-77144195D01*
X155301362Y-77155003D01*
X155303900Y-77156054D01*
X155538211Y-77218838D01*
X155718586Y-77242584D01*
X155778711Y-77250500D01*
X155778712Y-77250500D01*
X156021289Y-77250500D01*
X156069388Y-77244167D01*
X156261789Y-77218838D01*
X156496100Y-77156054D01*
X156720212Y-77063224D01*
X156930289Y-76941936D01*
X157122738Y-76794265D01*
X157154641Y-76762362D01*
X157187819Y-76729185D01*
X157249142Y-76695700D01*
X157318834Y-76700684D01*
X157374767Y-76742556D01*
X157399184Y-76808020D01*
X157399500Y-76816866D01*
X157399500Y-79573979D01*
X157379815Y-79641018D01*
X157327011Y-79686773D01*
X157265772Y-79697597D01*
X157100000Y-79684551D01*
X156848848Y-79704317D01*
X156603889Y-79763126D01*
X156371140Y-79859533D01*
X156156346Y-79991160D01*
X156156343Y-79991161D01*
X155964776Y-80154776D01*
X155801161Y-80346343D01*
X155801160Y-80346346D01*
X155669533Y-80561140D01*
X155573127Y-80793887D01*
X155555141Y-80868805D01*
X155520350Y-80929396D01*
X155458324Y-80961560D01*
X155388755Y-80955084D01*
X155333731Y-80912024D01*
X155320006Y-80887310D01*
X155230466Y-80671140D01*
X155098839Y-80456346D01*
X155098838Y-80456343D01*
X155004891Y-80346346D01*
X154935224Y-80264776D01*
X154768061Y-80122005D01*
X154743656Y-80101161D01*
X154743653Y-80101160D01*
X154528859Y-79969533D01*
X154296110Y-79873126D01*
X154051151Y-79814317D01*
X153800000Y-79794551D01*
X153548848Y-79814317D01*
X153303889Y-79873126D01*
X153071140Y-79969533D01*
X152856346Y-80101160D01*
X152856343Y-80101161D01*
X152664776Y-80264776D01*
X152501161Y-80456343D01*
X152501160Y-80456346D01*
X152369533Y-80671140D01*
X152314561Y-80803857D01*
X152270720Y-80858260D01*
X152204426Y-80880325D01*
X152136727Y-80863046D01*
X152089116Y-80811909D01*
X152085439Y-80803857D01*
X152030466Y-80671140D01*
X151898839Y-80456346D01*
X151898838Y-80456343D01*
X151804891Y-80346346D01*
X151735224Y-80264776D01*
X151568061Y-80122005D01*
X151543656Y-80101161D01*
X151543654Y-80101160D01*
X151499843Y-80074313D01*
X151452968Y-80022502D01*
X151441545Y-79953572D01*
X151469202Y-79889409D01*
X151517181Y-79854025D01*
X151706085Y-79775779D01*
X151706086Y-79775778D01*
X151706089Y-79775777D01*
X151914179Y-79648259D01*
X152099759Y-79489759D01*
X152258259Y-79304179D01*
X152385777Y-79096089D01*
X152479172Y-78870612D01*
X152536146Y-78633302D01*
X152555294Y-78390000D01*
X152536146Y-78146698D01*
X152479172Y-77909388D01*
X152473166Y-77894888D01*
X152385777Y-77683910D01*
X152258260Y-77475823D01*
X152258257Y-77475818D01*
X152180210Y-77384437D01*
X152151639Y-77320675D01*
X152150500Y-77303905D01*
X152150500Y-73067551D01*
X152170185Y-73000512D01*
X152180203Y-72987027D01*
X152208259Y-72954179D01*
X152335777Y-72746089D01*
X152429172Y-72520612D01*
X152486146Y-72283302D01*
X152505294Y-72040000D01*
X152486146Y-71796698D01*
X152429172Y-71559388D01*
X152356488Y-71383911D01*
X152335777Y-71333910D01*
X152208262Y-71125826D01*
X152208261Y-71125823D01*
X152172453Y-71083897D01*
X152049759Y-70940241D01*
X151922717Y-70831737D01*
X151864176Y-70781738D01*
X151864173Y-70781737D01*
X151656089Y-70654222D01*
X151430618Y-70560830D01*
X151430621Y-70560830D01*
X151321808Y-70534706D01*
X151193302Y-70503854D01*
X151193300Y-70503853D01*
X151193297Y-70503853D01*
X150950000Y-70484706D01*
X150706702Y-70503853D01*
X150706698Y-70503854D01*
X150498437Y-70553854D01*
X150469380Y-70560830D01*
X150243910Y-70654222D01*
X150035826Y-70781737D01*
X150035823Y-70781738D01*
X149850241Y-70940241D01*
X149691738Y-71125823D01*
X149691737Y-71125826D01*
X149564222Y-71333910D01*
X149470830Y-71559380D01*
X149413853Y-71796702D01*
X149394706Y-72040000D01*
X149413853Y-72283297D01*
X149470830Y-72520619D01*
X149564222Y-72746089D01*
X149691737Y-72954173D01*
X149691738Y-72954175D01*
X149691739Y-72954177D01*
X149691741Y-72954179D01*
X149719791Y-72987021D01*
X149748361Y-73050780D01*
X149749500Y-73067551D01*
X149749500Y-75954609D01*
X149729815Y-76021648D01*
X149677011Y-76067403D01*
X149607853Y-76077347D01*
X149544297Y-76048322D01*
X149541159Y-76045508D01*
X149463217Y-75973189D01*
X149410636Y-75937340D01*
X149252634Y-75829616D01*
X149252630Y-75829614D01*
X149252627Y-75829612D01*
X149252626Y-75829611D01*
X149023006Y-75719033D01*
X149023008Y-75719033D01*
X148779466Y-75643910D01*
X148779462Y-75643909D01*
X148779458Y-75643908D01*
X148658231Y-75625635D01*
X148527440Y-75605921D01*
X148527435Y-75605921D01*
X148272565Y-75605921D01*
X148272559Y-75605921D01*
X148115609Y-75629578D01*
X148020542Y-75643908D01*
X148020539Y-75643909D01*
X148020533Y-75643910D01*
X147776992Y-75719033D01*
X147547373Y-75829611D01*
X147547372Y-75829612D01*
X147336782Y-75973189D01*
X147308840Y-75999116D01*
X147246307Y-76030283D01*
X147176851Y-76022695D01*
X147122522Y-75978761D01*
X147100572Y-75912429D01*
X147100500Y-75908216D01*
X147100500Y-73117551D01*
X147120185Y-73050512D01*
X147130203Y-73037027D01*
X147158259Y-73004179D01*
X147285777Y-72796089D01*
X147379172Y-72570612D01*
X147436146Y-72333302D01*
X147455294Y-72090000D01*
X147436146Y-71846698D01*
X147379172Y-71609388D01*
X147379169Y-71609380D01*
X147285777Y-71383910D01*
X147158262Y-71175826D01*
X147158261Y-71175823D01*
X147115555Y-71125821D01*
X146999759Y-70990241D01*
X146877063Y-70885449D01*
X146814176Y-70831738D01*
X146814173Y-70831737D01*
X146606089Y-70704222D01*
X146380618Y-70610830D01*
X146380621Y-70610830D01*
X146274992Y-70585470D01*
X146143302Y-70553854D01*
X146143300Y-70553853D01*
X146143297Y-70553853D01*
X145900000Y-70534706D01*
X145656702Y-70553853D01*
X145419380Y-70610830D01*
X145193910Y-70704222D01*
X144985826Y-70831737D01*
X144985823Y-70831738D01*
X144800241Y-70990241D01*
X144641738Y-71175823D01*
X144641737Y-71175826D01*
X144514222Y-71383910D01*
X144420830Y-71609380D01*
X144363853Y-71846702D01*
X144344706Y-72090000D01*
X144363853Y-72333297D01*
X144420830Y-72570619D01*
X144514222Y-72796089D01*
X144641737Y-73004173D01*
X144641738Y-73004175D01*
X144641739Y-73004177D01*
X144641741Y-73004179D01*
X144669791Y-73037021D01*
X144698361Y-73100780D01*
X144699500Y-73117551D01*
X144699500Y-75790064D01*
X144679815Y-75857103D01*
X144627011Y-75902858D01*
X144557853Y-75912802D01*
X144505649Y-75892518D01*
X144352634Y-75788195D01*
X144352626Y-75788190D01*
X144123006Y-75677612D01*
X144123008Y-75677612D01*
X143879466Y-75602489D01*
X143879462Y-75602488D01*
X143879458Y-75602487D01*
X143758231Y-75584214D01*
X143627440Y-75564500D01*
X143627435Y-75564500D01*
X143372565Y-75564500D01*
X143372559Y-75564500D01*
X143215609Y-75588157D01*
X143120542Y-75602487D01*
X143120539Y-75602488D01*
X143120533Y-75602489D01*
X142876992Y-75677612D01*
X142647373Y-75788190D01*
X142647372Y-75788191D01*
X142436782Y-75931768D01*
X142408840Y-75957695D01*
X142346307Y-75988862D01*
X142276851Y-75981274D01*
X142222522Y-75937340D01*
X142200572Y-75871008D01*
X142200500Y-75866795D01*
X142200500Y-73117551D01*
X142220185Y-73050512D01*
X142230203Y-73037027D01*
X142258259Y-73004179D01*
X142385777Y-72796089D01*
X142479172Y-72570612D01*
X142536146Y-72333302D01*
X142555294Y-72090000D01*
X142536146Y-71846698D01*
X142479172Y-71609388D01*
X142479169Y-71609380D01*
X142385777Y-71383910D01*
X142258262Y-71175826D01*
X142258261Y-71175823D01*
X142215555Y-71125821D01*
X142099759Y-70990241D01*
X141977063Y-70885449D01*
X141914176Y-70831738D01*
X141914173Y-70831737D01*
X141706089Y-70704222D01*
X141480618Y-70610830D01*
X141480621Y-70610830D01*
X141374992Y-70585470D01*
X141243302Y-70553854D01*
X141243300Y-70553853D01*
X141243297Y-70553853D01*
X141000000Y-70534706D01*
X140756702Y-70553853D01*
X140519380Y-70610830D01*
X140293910Y-70704222D01*
X140085826Y-70831737D01*
X140085823Y-70831738D01*
X139900241Y-70990241D01*
X139741738Y-71175823D01*
X139741737Y-71175826D01*
X139614222Y-71383910D01*
X139520830Y-71609380D01*
X139463853Y-71846702D01*
X139444706Y-72090000D01*
X139463853Y-72333297D01*
X139520830Y-72570619D01*
X139614222Y-72796089D01*
X139741737Y-73004173D01*
X139741738Y-73004175D01*
X139741739Y-73004177D01*
X139741741Y-73004179D01*
X139769791Y-73037021D01*
X139798361Y-73100780D01*
X139799500Y-73117551D01*
X139799500Y-75866795D01*
X139779815Y-75933834D01*
X139727011Y-75979589D01*
X139657853Y-75989533D01*
X139594297Y-75960508D01*
X139591160Y-75957695D01*
X139563217Y-75931768D01*
X139534852Y-75912429D01*
X139352634Y-75788195D01*
X139352630Y-75788193D01*
X139352627Y-75788191D01*
X139352626Y-75788190D01*
X139123006Y-75677612D01*
X139123008Y-75677612D01*
X138879466Y-75602489D01*
X138879462Y-75602488D01*
X138879458Y-75602487D01*
X138758231Y-75584214D01*
X138627440Y-75564500D01*
X138627435Y-75564500D01*
X138372565Y-75564500D01*
X138372559Y-75564500D01*
X138215609Y-75588157D01*
X138120542Y-75602487D01*
X138120539Y-75602488D01*
X138120533Y-75602489D01*
X137876992Y-75677612D01*
X137647373Y-75788190D01*
X137647372Y-75788191D01*
X137436782Y-75931768D01*
X137408840Y-75957695D01*
X137346307Y-75988862D01*
X137276851Y-75981274D01*
X137222522Y-75937340D01*
X137200572Y-75871008D01*
X137200500Y-75866795D01*
X137200500Y-73117551D01*
X137220185Y-73050512D01*
X137230203Y-73037027D01*
X137258259Y-73004179D01*
X137385777Y-72796089D01*
X137479172Y-72570612D01*
X137536146Y-72333302D01*
X137555294Y-72090000D01*
X137536146Y-71846698D01*
X137479172Y-71609388D01*
X137479169Y-71609380D01*
X137385777Y-71383910D01*
X137258262Y-71175826D01*
X137258261Y-71175823D01*
X137215555Y-71125821D01*
X137099759Y-70990241D01*
X136977063Y-70885449D01*
X136914176Y-70831738D01*
X136914173Y-70831737D01*
X136706089Y-70704222D01*
X136480618Y-70610830D01*
X136480621Y-70610830D01*
X136374992Y-70585470D01*
X136243302Y-70553854D01*
X136243300Y-70553853D01*
X136243297Y-70553853D01*
X136000000Y-70534706D01*
X135756702Y-70553853D01*
X135519380Y-70610830D01*
X135293910Y-70704222D01*
X135085826Y-70831737D01*
X135085823Y-70831738D01*
X134900241Y-70990241D01*
X134741738Y-71175823D01*
X134741737Y-71175826D01*
X134614222Y-71383910D01*
X134520830Y-71609380D01*
X134463853Y-71846702D01*
X134444706Y-72090000D01*
X134463853Y-72333297D01*
X134520830Y-72570619D01*
X134614222Y-72796089D01*
X134741737Y-73004173D01*
X134741738Y-73004175D01*
X134741739Y-73004177D01*
X134741741Y-73004179D01*
X134769791Y-73037021D01*
X134798361Y-73100780D01*
X134799500Y-73117551D01*
X134799500Y-75959581D01*
X134779815Y-76026620D01*
X134727011Y-76072375D01*
X134657853Y-76082319D01*
X134594297Y-76053294D01*
X134591159Y-76050480D01*
X134463217Y-75931768D01*
X134434852Y-75912429D01*
X134252634Y-75788195D01*
X134252630Y-75788193D01*
X134252627Y-75788191D01*
X134252626Y-75788190D01*
X134023006Y-75677612D01*
X134023008Y-75677612D01*
X133779466Y-75602489D01*
X133779462Y-75602488D01*
X133779458Y-75602487D01*
X133658231Y-75584214D01*
X133527440Y-75564500D01*
X133527435Y-75564500D01*
X133272565Y-75564500D01*
X133272559Y-75564500D01*
X133115609Y-75588157D01*
X133020542Y-75602487D01*
X133020539Y-75602488D01*
X133020533Y-75602489D01*
X132776992Y-75677612D01*
X132547373Y-75788190D01*
X132547372Y-75788191D01*
X132336782Y-75931768D01*
X132149952Y-76105121D01*
X132149950Y-76105123D01*
X131991041Y-76304388D01*
X131863608Y-76525109D01*
X131770492Y-76762362D01*
X131770490Y-76762369D01*
X131713777Y-77010845D01*
X131694732Y-77264995D01*
X131694732Y-77265004D01*
X131713777Y-77519154D01*
X131751381Y-77683910D01*
X131770492Y-77767637D01*
X131863607Y-78004888D01*
X131991041Y-78225612D01*
X132149950Y-78424877D01*
X132336783Y-78598232D01*
X132547366Y-78741805D01*
X132547371Y-78741807D01*
X132547372Y-78741808D01*
X132547373Y-78741809D01*
X132639910Y-78786372D01*
X132776992Y-78852387D01*
X132776993Y-78852387D01*
X132776996Y-78852389D01*
X133020542Y-78927513D01*
X133272565Y-78965500D01*
X133527435Y-78965500D01*
X133779458Y-78927513D01*
X134023004Y-78852389D01*
X134244471Y-78745736D01*
X134252626Y-78741809D01*
X134252626Y-78741808D01*
X134252634Y-78741805D01*
X134308054Y-78704019D01*
X134374533Y-78682519D01*
X134442083Y-78700373D01*
X134489258Y-78751913D01*
X134498478Y-78777520D01*
X134519900Y-78866745D01*
X134520830Y-78870619D01*
X134614222Y-79096089D01*
X134741737Y-79304173D01*
X134741738Y-79304176D01*
X134741741Y-79304179D01*
X134900241Y-79489759D01*
X135053206Y-79620403D01*
X135055284Y-79622178D01*
X135093477Y-79680685D01*
X135093975Y-79750553D01*
X135056622Y-79809599D01*
X134993275Y-79839077D01*
X134945805Y-79837042D01*
X134851151Y-79814317D01*
X134600000Y-79794551D01*
X134348848Y-79814317D01*
X134103889Y-79873126D01*
X133871140Y-79969533D01*
X133656346Y-80101160D01*
X133656343Y-80101161D01*
X133464776Y-80264776D01*
X133301161Y-80456343D01*
X133301160Y-80456346D01*
X133169533Y-80671140D01*
X133114561Y-80803857D01*
X133070720Y-80858260D01*
X133004426Y-80880325D01*
X132936727Y-80863046D01*
X132889116Y-80811909D01*
X132885439Y-80803857D01*
X132830466Y-80671140D01*
X132698839Y-80456346D01*
X132698838Y-80456343D01*
X132604891Y-80346346D01*
X132535224Y-80264776D01*
X132368061Y-80122005D01*
X132343656Y-80101161D01*
X132343653Y-80101160D01*
X132128859Y-79969533D01*
X131896110Y-79873126D01*
X131651151Y-79814317D01*
X131400000Y-79794551D01*
X131148848Y-79814317D01*
X130903889Y-79873126D01*
X130671140Y-79969533D01*
X130456346Y-80101160D01*
X130456343Y-80101161D01*
X130264776Y-80264776D01*
X130101161Y-80456343D01*
X130101160Y-80456346D01*
X129969533Y-80671140D01*
X129873126Y-80903889D01*
X129814317Y-81148848D01*
X129794551Y-81400000D01*
X120400500Y-81400000D01*
X120400500Y-64950150D01*
X121474500Y-64950150D01*
X121474500Y-67164849D01*
X121474501Y-67164865D01*
X121505134Y-67397548D01*
X121505135Y-67397553D01*
X121505136Y-67397559D01*
X121565883Y-67624272D01*
X121565886Y-67624279D01*
X121655700Y-67841110D01*
X121655705Y-67841120D01*
X121773058Y-68044382D01*
X121915940Y-68230590D01*
X121915946Y-68230597D01*
X122081902Y-68396553D01*
X122081909Y-68396559D01*
X122268117Y-68539441D01*
X122471379Y-68656794D01*
X122471389Y-68656799D01*
X122549839Y-68689294D01*
X122688228Y-68746617D01*
X122914941Y-68807364D01*
X123147644Y-68838000D01*
X123147651Y-68838000D01*
X123382349Y-68838000D01*
X123382356Y-68838000D01*
X123615059Y-68807364D01*
X123841772Y-68746617D01*
X124058617Y-68656796D01*
X124261883Y-68539441D01*
X124448092Y-68396558D01*
X124614058Y-68230592D01*
X124756941Y-68044383D01*
X124874296Y-67841117D01*
X124964117Y-67624272D01*
X125024864Y-67397559D01*
X125055500Y-67164856D01*
X125055500Y-64950144D01*
X125046614Y-64882650D01*
X131609500Y-64882650D01*
X131609500Y-67097349D01*
X131609501Y-67097365D01*
X131640134Y-67330048D01*
X131640135Y-67330053D01*
X131640136Y-67330059D01*
X131700883Y-67556772D01*
X131700886Y-67556779D01*
X131790700Y-67773610D01*
X131790705Y-67773620D01*
X131908058Y-67976882D01*
X132050940Y-68163090D01*
X132050946Y-68163097D01*
X132216902Y-68329053D01*
X132216909Y-68329059D01*
X132403117Y-68471941D01*
X132606379Y-68589294D01*
X132606389Y-68589299D01*
X132699316Y-68627790D01*
X132823228Y-68679117D01*
X133049941Y-68739864D01*
X133282644Y-68770500D01*
X133282651Y-68770500D01*
X133517349Y-68770500D01*
X133517356Y-68770500D01*
X133750059Y-68739864D01*
X133976772Y-68679117D01*
X134193617Y-68589296D01*
X134396883Y-68471941D01*
X134583092Y-68329058D01*
X134749058Y-68163092D01*
X134891941Y-67976883D01*
X135009296Y-67773617D01*
X135099117Y-67556772D01*
X135159864Y-67330059D01*
X135190500Y-67097356D01*
X135190500Y-64982650D01*
X136709500Y-64982650D01*
X136709500Y-67197349D01*
X136709501Y-67197365D01*
X136740134Y-67430048D01*
X136740135Y-67430053D01*
X136740136Y-67430059D01*
X136800883Y-67656772D01*
X136800886Y-67656779D01*
X136890700Y-67873610D01*
X136890705Y-67873620D01*
X137008058Y-68076882D01*
X137150940Y-68263090D01*
X137150946Y-68263097D01*
X137316902Y-68429053D01*
X137316909Y-68429059D01*
X137503117Y-68571941D01*
X137706379Y-68689294D01*
X137706389Y-68689299D01*
X137799316Y-68727790D01*
X137923228Y-68779117D01*
X138149941Y-68839864D01*
X138382644Y-68870500D01*
X138382651Y-68870500D01*
X138617349Y-68870500D01*
X138617356Y-68870500D01*
X138850059Y-68839864D01*
X139076772Y-68779117D01*
X139293617Y-68689296D01*
X139496883Y-68571941D01*
X139683092Y-68429058D01*
X139849058Y-68263092D01*
X139991941Y-68076883D01*
X140109296Y-67873617D01*
X140199117Y-67656772D01*
X140259864Y-67430059D01*
X140290500Y-67197356D01*
X140290500Y-64982650D01*
X141669500Y-64982650D01*
X141669500Y-67197349D01*
X141669501Y-67197365D01*
X141700134Y-67430048D01*
X141700135Y-67430053D01*
X141700136Y-67430059D01*
X141760883Y-67656772D01*
X141760886Y-67656779D01*
X141850700Y-67873610D01*
X141850705Y-67873620D01*
X141968058Y-68076882D01*
X142110940Y-68263090D01*
X142110946Y-68263097D01*
X142276902Y-68429053D01*
X142276909Y-68429059D01*
X142463117Y-68571941D01*
X142666379Y-68689294D01*
X142666389Y-68689299D01*
X142759316Y-68727790D01*
X142883228Y-68779117D01*
X143109941Y-68839864D01*
X143342644Y-68870500D01*
X143342651Y-68870500D01*
X143577349Y-68870500D01*
X143577356Y-68870500D01*
X143810059Y-68839864D01*
X144036772Y-68779117D01*
X144253617Y-68689296D01*
X144456883Y-68571941D01*
X144643092Y-68429058D01*
X144809058Y-68263092D01*
X144951941Y-68076883D01*
X145069296Y-67873617D01*
X145159117Y-67656772D01*
X145219864Y-67430059D01*
X145250500Y-67197356D01*
X145250500Y-64982644D01*
X145219864Y-64749941D01*
X145159117Y-64523228D01*
X145107790Y-64399316D01*
X145069299Y-64306389D01*
X145069294Y-64306379D01*
X144951941Y-64103117D01*
X144922723Y-64065039D01*
X146669500Y-64065039D01*
X146669500Y-68114960D01*
X146684630Y-68249249D01*
X146684631Y-68249254D01*
X146744211Y-68419523D01*
X146777148Y-68471941D01*
X146840184Y-68572262D01*
X146967738Y-68699816D01*
X147031471Y-68739862D01*
X147093944Y-68779117D01*
X147120478Y-68795789D01*
X147246437Y-68839864D01*
X147290745Y-68855368D01*
X147290750Y-68855369D01*
X147381246Y-68865565D01*
X147425040Y-68870499D01*
X147425043Y-68870500D01*
X147425046Y-68870500D01*
X149494957Y-68870500D01*
X149494958Y-68870499D01*
X149562104Y-68862934D01*
X149629249Y-68855369D01*
X149629252Y-68855368D01*
X149629255Y-68855368D01*
X149799522Y-68795789D01*
X149952262Y-68699816D01*
X150079816Y-68572262D01*
X150175789Y-68419522D01*
X150235368Y-68249255D01*
X150236469Y-68239489D01*
X150250499Y-68114960D01*
X150250500Y-68114956D01*
X150250500Y-64065043D01*
X150250499Y-64065039D01*
X150235369Y-63930750D01*
X150235368Y-63930745D01*
X150195535Y-63816908D01*
X150175789Y-63760478D01*
X150079816Y-63607738D01*
X149952262Y-63480184D01*
X149917275Y-63458200D01*
X149799523Y-63384211D01*
X149629254Y-63324631D01*
X149629249Y-63324630D01*
X149494960Y-63309500D01*
X149494954Y-63309500D01*
X147425046Y-63309500D01*
X147425039Y-63309500D01*
X147290750Y-63324630D01*
X147290745Y-63324631D01*
X147120476Y-63384211D01*
X146967737Y-63480184D01*
X146840184Y-63607737D01*
X146744211Y-63760476D01*
X146684631Y-63930745D01*
X146684630Y-63930750D01*
X146669500Y-64065039D01*
X144922723Y-64065039D01*
X144809059Y-63916909D01*
X144809053Y-63916902D01*
X144643097Y-63750946D01*
X144643090Y-63750940D01*
X144456882Y-63608058D01*
X144253620Y-63490705D01*
X144253610Y-63490700D01*
X144036779Y-63400886D01*
X144036780Y-63400886D01*
X144036772Y-63400883D01*
X143810059Y-63340136D01*
X143810053Y-63340135D01*
X143810048Y-63340134D01*
X143577365Y-63309501D01*
X143577362Y-63309500D01*
X143577356Y-63309500D01*
X143342644Y-63309500D01*
X143342638Y-63309500D01*
X143342634Y-63309501D01*
X143109951Y-63340134D01*
X143109944Y-63340135D01*
X143109941Y-63340136D01*
X143034370Y-63360385D01*
X142883234Y-63400881D01*
X142883220Y-63400886D01*
X142666389Y-63490700D01*
X142666379Y-63490705D01*
X142463117Y-63608058D01*
X142276909Y-63750940D01*
X142276902Y-63750946D01*
X142110946Y-63916902D01*
X142110940Y-63916909D01*
X141968058Y-64103117D01*
X141850705Y-64306379D01*
X141850700Y-64306389D01*
X141760886Y-64523220D01*
X141760881Y-64523234D01*
X141700137Y-64749938D01*
X141700134Y-64749951D01*
X141669501Y-64982634D01*
X141669500Y-64982650D01*
X140290500Y-64982650D01*
X140290500Y-64982644D01*
X140259864Y-64749941D01*
X140199117Y-64523228D01*
X140147790Y-64399316D01*
X140109299Y-64306389D01*
X140109294Y-64306379D01*
X139991941Y-64103117D01*
X139849059Y-63916909D01*
X139849053Y-63916902D01*
X139683097Y-63750946D01*
X139683090Y-63750940D01*
X139496882Y-63608058D01*
X139293620Y-63490705D01*
X139293610Y-63490700D01*
X139076779Y-63400886D01*
X139076780Y-63400886D01*
X139076772Y-63400883D01*
X138850059Y-63340136D01*
X138850053Y-63340135D01*
X138850048Y-63340134D01*
X138617365Y-63309501D01*
X138617362Y-63309500D01*
X138617356Y-63309500D01*
X138382644Y-63309500D01*
X138382638Y-63309500D01*
X138382634Y-63309501D01*
X138149951Y-63340134D01*
X138149944Y-63340135D01*
X138149941Y-63340136D01*
X138074370Y-63360385D01*
X137923234Y-63400881D01*
X137923220Y-63400886D01*
X137706389Y-63490700D01*
X137706379Y-63490705D01*
X137503117Y-63608058D01*
X137316909Y-63750940D01*
X137316902Y-63750946D01*
X137150946Y-63916902D01*
X137150940Y-63916909D01*
X137008058Y-64103117D01*
X136890705Y-64306379D01*
X136890700Y-64306389D01*
X136800886Y-64523220D01*
X136800881Y-64523234D01*
X136740137Y-64749938D01*
X136740134Y-64749951D01*
X136709501Y-64982634D01*
X136709500Y-64982650D01*
X135190500Y-64982650D01*
X135190500Y-64882644D01*
X135159864Y-64649941D01*
X135099117Y-64423228D01*
X135037254Y-64273879D01*
X135009299Y-64206389D01*
X135009294Y-64206379D01*
X134891941Y-64003117D01*
X134749059Y-63816909D01*
X134749053Y-63816902D01*
X134583097Y-63650946D01*
X134583090Y-63650940D01*
X134396882Y-63508058D01*
X134193620Y-63390705D01*
X134193610Y-63390700D01*
X133976779Y-63300886D01*
X133976780Y-63300886D01*
X133976772Y-63300883D01*
X133750059Y-63240136D01*
X133750053Y-63240135D01*
X133750048Y-63240134D01*
X133517365Y-63209501D01*
X133517362Y-63209500D01*
X133517356Y-63209500D01*
X133282644Y-63209500D01*
X133282638Y-63209500D01*
X133282634Y-63209501D01*
X133049951Y-63240134D01*
X133049944Y-63240135D01*
X133049941Y-63240136D01*
X132974370Y-63260385D01*
X132823234Y-63300881D01*
X132823220Y-63300886D01*
X132606389Y-63390700D01*
X132606379Y-63390705D01*
X132403117Y-63508058D01*
X132216909Y-63650940D01*
X132216902Y-63650946D01*
X132050946Y-63816902D01*
X132050940Y-63816909D01*
X131908058Y-64003117D01*
X131790705Y-64206379D01*
X131790700Y-64206389D01*
X131700886Y-64423220D01*
X131700881Y-64423234D01*
X131640137Y-64649938D01*
X131640134Y-64649951D01*
X131609501Y-64882634D01*
X131609500Y-64882650D01*
X125046614Y-64882650D01*
X125024864Y-64717441D01*
X124964117Y-64490728D01*
X124887758Y-64306383D01*
X124874299Y-64273889D01*
X124874294Y-64273879D01*
X124756941Y-64070617D01*
X124614059Y-63884409D01*
X124614053Y-63884402D01*
X124448097Y-63718446D01*
X124448090Y-63718440D01*
X124261882Y-63575558D01*
X124058620Y-63458205D01*
X124058610Y-63458200D01*
X123841779Y-63368386D01*
X123841780Y-63368386D01*
X123841772Y-63368383D01*
X123615059Y-63307636D01*
X123615053Y-63307635D01*
X123615048Y-63307634D01*
X123382365Y-63277001D01*
X123382362Y-63277000D01*
X123382356Y-63277000D01*
X123147644Y-63277000D01*
X123147638Y-63277000D01*
X123147634Y-63277001D01*
X122914951Y-63307634D01*
X122914944Y-63307635D01*
X122914941Y-63307636D01*
X122839370Y-63327885D01*
X122688234Y-63368381D01*
X122688220Y-63368386D01*
X122471389Y-63458200D01*
X122471379Y-63458205D01*
X122268117Y-63575558D01*
X122081909Y-63718440D01*
X122081902Y-63718446D01*
X121915946Y-63884402D01*
X121915940Y-63884409D01*
X121773058Y-64070617D01*
X121655705Y-64273879D01*
X121655700Y-64273889D01*
X121565886Y-64490720D01*
X121565881Y-64490734D01*
X121505137Y-64717438D01*
X121505134Y-64717451D01*
X121474501Y-64950134D01*
X121474500Y-64950150D01*
X120400500Y-64950150D01*
X120400500Y-62014500D01*
X120420185Y-61947461D01*
X120472989Y-61901706D01*
X120524500Y-61890500D01*
X122930000Y-61890500D01*
X170875529Y-61899975D01*
G37*
%TD.AperFunction*%
%TD*%
M02*
