M48
; DRILL file {KiCad 8.0.6} date 2025-08-05T17:05:11-0500
; FORMAT={-:-/ absolute / inch / decimal}
; #@! TF.CreationDate,2025-08-05T17:05:11-05:00
; #@! TF.GenerationSoftware,Kicad,Pcbnew,8.0.6
; #@! TF.FileFunction,Plated,1,2,PTH
FMAT,2
INCH
; #@! TA.AperFunction,Plated,PTH,ViaDrill
T1C0.0157
; #@! TA.AperFunction,Plated,PTH,ComponentDrill
T2C0.0315
; #@! TA.AperFunction,Plated,PTH,ComponentDrill
T3C0.0394
; #@! TA.AperFunction,Plated,PTH,ComponentDrill
T4C0.0520
%
G90
G05
T1
X3.6559Y-2.0787
X3.6575Y-4.5394
X3.7323Y-3.7795
X3.7559Y-4.4764
X3.7992Y-2.878
X3.7992Y-2.9685
X3.811Y-3.8661
X3.8228Y-4.4173
X3.8819Y-4.3504
X3.9764Y-2.2992
X4.063Y-4.3504
X4.0787Y-2.878
X4.122Y-4.4193
X4.1417Y-2.9685
X4.1575Y-2.2992
X4.1811Y-4.4764
X4.2362Y-4.5354
X4.311Y-3.8661
X4.311Y-4.4961
X4.4173Y-3.2205
X4.4173Y-3.4685
X4.4685Y-3.7795
X4.5039Y-3.2953
X4.5039Y-3.4921
X4.5551Y-2.374
X4.5748Y-3.3898
X4.5748Y-3.7165
X4.5748Y-4.1181
X4.6654Y-1.9947
X4.6654Y-2.1457
X4.7008Y-4.4921
X4.8031Y-4.1181
T2
X3.6557Y-1.9947
X3.6559Y-2.148
X3.6559Y-2.248
X3.6559Y-2.348
X3.6559Y-2.448
X3.6559Y-2.548
X3.6559Y-2.648
X3.6559Y-2.748
X3.6559Y-2.848
X3.6559Y-2.948
X3.6559Y-3.048
X3.6559Y-3.148
X3.6559Y-3.248
X3.6559Y-3.348
X3.6559Y-3.448
X3.6559Y-3.548
X3.6567Y-4.6339
X3.6575Y-3.8425
X3.6575Y-3.9409
X3.6575Y-4.2953
X3.6575Y-4.3937
X3.7557Y-1.9947
X3.7567Y-4.6339
X3.8557Y-1.9947
X3.8567Y-4.6339
X3.9557Y-1.9947
X3.9567Y-4.6339
X4.0557Y-1.9947
X4.0567Y-4.6339
X4.1557Y-1.9947
X4.1567Y-4.6339
X4.2557Y-1.9947
X4.2559Y-2.148
X4.2559Y-2.248
X4.2559Y-2.348
X4.2559Y-2.448
X4.2559Y-2.548
X4.2559Y-2.648
X4.2559Y-2.748
X4.2559Y-2.848
X4.2559Y-2.948
X4.2559Y-3.048
X4.2559Y-3.148
X4.2559Y-3.248
X4.2559Y-3.348
X4.2559Y-3.448
X4.2559Y-3.548
X4.2567Y-4.6339
X4.3557Y-1.9947
X4.3567Y-4.6339
X4.4557Y-1.9947
X4.4567Y-4.6339
X4.5557Y-1.9947
X4.5567Y-4.6339
X4.7362Y-2.5236
X4.7362Y-2.6236
X4.7362Y-2.7236
X4.7362Y-2.8236
X4.7362Y-2.9236
X4.7362Y-3.0236
X4.7362Y-3.1236
X4.7362Y-3.2236
X4.7362Y-3.3236
X4.7362Y-3.4236
X4.7362Y-3.5236
X4.7362Y-3.6236
X4.7992Y-3.8425
X4.7992Y-3.9409
X4.7992Y-4.2953
X4.7992Y-4.3937
X4.9843Y-4.2915
X4.9843Y-4.39
X4.9921Y-3.8425
X4.9921Y-3.9409
T3
X4.4815Y-4.022
X4.4815Y-4.122
X4.4815Y-4.222
T4
X4.811Y-2.1
X5.0079Y-2.1
M30
