%TF.GenerationSoftware,KiCad,Pcbnew,8.0.6*%
%TF.CreationDate,2025-08-05T17:05:13-05:00*%
%TF.ProjectId,PPDuino_Nano_Procesador,50504475-696e-46f5-9f4e-616e6f5f5072,rev?*%
%TF.SameCoordinates,Original*%
%TF.FileFunction,Legend,Top*%
%TF.FilePolarity,Positive*%
%FSLAX46Y46*%
G04 Gerber Fmt 4.6, Leading zero omitted, Abs format (unit mm)*
G04 Created by KiCad (PCBNEW 8.0.6) date 2025-08-05 17:05:13*
%MOMM*%
%LPD*%
G01*
G04 APERTURE LIST*
%ADD10C,0.240000*%
%ADD11C,0.140000*%
%ADD12C,0.200000*%
%ADD13C,0.300000*%
%ADD14C,0.150000*%
%ADD15C,0.100000*%
%ADD16C,0.000000*%
%ADD17C,0.120000*%
G04 APERTURE END LIST*
D10*
X121357143Y-116708729D02*
X121357143Y-115508729D01*
X121357143Y-115508729D02*
X121642857Y-115508729D01*
X121642857Y-115508729D02*
X121814286Y-115565872D01*
X121814286Y-115565872D02*
X121928571Y-115680158D01*
X121928571Y-115680158D02*
X121985714Y-115794444D01*
X121985714Y-115794444D02*
X122042857Y-116023015D01*
X122042857Y-116023015D02*
X122042857Y-116194444D01*
X122042857Y-116194444D02*
X121985714Y-116423015D01*
X121985714Y-116423015D02*
X121928571Y-116537301D01*
X121928571Y-116537301D02*
X121814286Y-116651587D01*
X121814286Y-116651587D02*
X121642857Y-116708729D01*
X121642857Y-116708729D02*
X121357143Y-116708729D01*
X123014286Y-116651587D02*
X122900000Y-116708729D01*
X122900000Y-116708729D02*
X122671429Y-116708729D01*
X122671429Y-116708729D02*
X122557143Y-116651587D01*
X122557143Y-116651587D02*
X122500000Y-116537301D01*
X122500000Y-116537301D02*
X122500000Y-116080158D01*
X122500000Y-116080158D02*
X122557143Y-115965872D01*
X122557143Y-115965872D02*
X122671429Y-115908729D01*
X122671429Y-115908729D02*
X122900000Y-115908729D01*
X122900000Y-115908729D02*
X123014286Y-115965872D01*
X123014286Y-115965872D02*
X123071429Y-116080158D01*
X123071429Y-116080158D02*
X123071429Y-116194444D01*
X123071429Y-116194444D02*
X122500000Y-116308729D01*
X123528571Y-116651587D02*
X123642857Y-116708729D01*
X123642857Y-116708729D02*
X123871428Y-116708729D01*
X123871428Y-116708729D02*
X123985714Y-116651587D01*
X123985714Y-116651587D02*
X124042857Y-116537301D01*
X124042857Y-116537301D02*
X124042857Y-116480158D01*
X124042857Y-116480158D02*
X123985714Y-116365872D01*
X123985714Y-116365872D02*
X123871428Y-116308729D01*
X123871428Y-116308729D02*
X123700000Y-116308729D01*
X123700000Y-116308729D02*
X123585714Y-116251587D01*
X123585714Y-116251587D02*
X123528571Y-116137301D01*
X123528571Y-116137301D02*
X123528571Y-116080158D01*
X123528571Y-116080158D02*
X123585714Y-115965872D01*
X123585714Y-115965872D02*
X123700000Y-115908729D01*
X123700000Y-115908729D02*
X123871428Y-115908729D01*
X123871428Y-115908729D02*
X123985714Y-115965872D01*
X124557143Y-116708729D02*
X124557143Y-115908729D01*
X124557143Y-115508729D02*
X124500000Y-115565872D01*
X124500000Y-115565872D02*
X124557143Y-115623015D01*
X124557143Y-115623015D02*
X124614286Y-115565872D01*
X124614286Y-115565872D02*
X124557143Y-115508729D01*
X124557143Y-115508729D02*
X124557143Y-115623015D01*
X125642858Y-115908729D02*
X125642858Y-116880158D01*
X125642858Y-116880158D02*
X125585715Y-116994444D01*
X125585715Y-116994444D02*
X125528572Y-117051587D01*
X125528572Y-117051587D02*
X125414286Y-117108729D01*
X125414286Y-117108729D02*
X125242858Y-117108729D01*
X125242858Y-117108729D02*
X125128572Y-117051587D01*
X125642858Y-116651587D02*
X125528572Y-116708729D01*
X125528572Y-116708729D02*
X125300000Y-116708729D01*
X125300000Y-116708729D02*
X125185715Y-116651587D01*
X125185715Y-116651587D02*
X125128572Y-116594444D01*
X125128572Y-116594444D02*
X125071429Y-116480158D01*
X125071429Y-116480158D02*
X125071429Y-116137301D01*
X125071429Y-116137301D02*
X125128572Y-116023015D01*
X125128572Y-116023015D02*
X125185715Y-115965872D01*
X125185715Y-115965872D02*
X125300000Y-115908729D01*
X125300000Y-115908729D02*
X125528572Y-115908729D01*
X125528572Y-115908729D02*
X125642858Y-115965872D01*
X126214286Y-115908729D02*
X126214286Y-116708729D01*
X126214286Y-116023015D02*
X126271429Y-115965872D01*
X126271429Y-115965872D02*
X126385714Y-115908729D01*
X126385714Y-115908729D02*
X126557143Y-115908729D01*
X126557143Y-115908729D02*
X126671429Y-115965872D01*
X126671429Y-115965872D02*
X126728572Y-116080158D01*
X126728572Y-116080158D02*
X126728572Y-116708729D01*
X127757143Y-116651587D02*
X127642857Y-116708729D01*
X127642857Y-116708729D02*
X127414286Y-116708729D01*
X127414286Y-116708729D02*
X127300000Y-116651587D01*
X127300000Y-116651587D02*
X127242857Y-116537301D01*
X127242857Y-116537301D02*
X127242857Y-116080158D01*
X127242857Y-116080158D02*
X127300000Y-115965872D01*
X127300000Y-115965872D02*
X127414286Y-115908729D01*
X127414286Y-115908729D02*
X127642857Y-115908729D01*
X127642857Y-115908729D02*
X127757143Y-115965872D01*
X127757143Y-115965872D02*
X127814286Y-116080158D01*
X127814286Y-116080158D02*
X127814286Y-116194444D01*
X127814286Y-116194444D02*
X127242857Y-116308729D01*
X128842857Y-116708729D02*
X128842857Y-115508729D01*
X128842857Y-116651587D02*
X128728571Y-116708729D01*
X128728571Y-116708729D02*
X128499999Y-116708729D01*
X128499999Y-116708729D02*
X128385714Y-116651587D01*
X128385714Y-116651587D02*
X128328571Y-116594444D01*
X128328571Y-116594444D02*
X128271428Y-116480158D01*
X128271428Y-116480158D02*
X128271428Y-116137301D01*
X128271428Y-116137301D02*
X128328571Y-116023015D01*
X128328571Y-116023015D02*
X128385714Y-115965872D01*
X128385714Y-115965872D02*
X128499999Y-115908729D01*
X128499999Y-115908729D02*
X128728571Y-115908729D01*
X128728571Y-115908729D02*
X128842857Y-115965872D01*
X122414285Y-118640662D02*
X122414285Y-117440662D01*
X122414285Y-117897805D02*
X122528571Y-117840662D01*
X122528571Y-117840662D02*
X122757142Y-117840662D01*
X122757142Y-117840662D02*
X122871428Y-117897805D01*
X122871428Y-117897805D02*
X122928571Y-117954948D01*
X122928571Y-117954948D02*
X122985713Y-118069234D01*
X122985713Y-118069234D02*
X122985713Y-118412091D01*
X122985713Y-118412091D02*
X122928571Y-118526377D01*
X122928571Y-118526377D02*
X122871428Y-118583520D01*
X122871428Y-118583520D02*
X122757142Y-118640662D01*
X122757142Y-118640662D02*
X122528571Y-118640662D01*
X122528571Y-118640662D02*
X122414285Y-118583520D01*
X123385713Y-117840662D02*
X123671427Y-118640662D01*
X123957142Y-117840662D02*
X123671427Y-118640662D01*
X123671427Y-118640662D02*
X123557142Y-118926377D01*
X123557142Y-118926377D02*
X123499999Y-118983520D01*
X123499999Y-118983520D02*
X123385713Y-119040662D01*
X125557142Y-117440662D02*
X125785714Y-117440662D01*
X125785714Y-117440662D02*
X125899999Y-117497805D01*
X125899999Y-117497805D02*
X126014285Y-117612091D01*
X126014285Y-117612091D02*
X126071428Y-117840662D01*
X126071428Y-117840662D02*
X126071428Y-118240662D01*
X126071428Y-118240662D02*
X126014285Y-118469234D01*
X126014285Y-118469234D02*
X125899999Y-118583520D01*
X125899999Y-118583520D02*
X125785714Y-118640662D01*
X125785714Y-118640662D02*
X125557142Y-118640662D01*
X125557142Y-118640662D02*
X125442857Y-118583520D01*
X125442857Y-118583520D02*
X125328571Y-118469234D01*
X125328571Y-118469234D02*
X125271428Y-118240662D01*
X125271428Y-118240662D02*
X125271428Y-117840662D01*
X125271428Y-117840662D02*
X125328571Y-117612091D01*
X125328571Y-117612091D02*
X125442857Y-117497805D01*
X125442857Y-117497805D02*
X125557142Y-117440662D01*
X126585714Y-118640662D02*
X126585714Y-117440662D01*
X126585714Y-117440662D02*
X126871428Y-117440662D01*
X126871428Y-117440662D02*
X127042857Y-117497805D01*
X127042857Y-117497805D02*
X127157142Y-117612091D01*
X127157142Y-117612091D02*
X127214285Y-117726377D01*
X127214285Y-117726377D02*
X127271428Y-117954948D01*
X127271428Y-117954948D02*
X127271428Y-118126377D01*
X127271428Y-118126377D02*
X127214285Y-118354948D01*
X127214285Y-118354948D02*
X127157142Y-118469234D01*
X127157142Y-118469234D02*
X127042857Y-118583520D01*
X127042857Y-118583520D02*
X126871428Y-118640662D01*
X126871428Y-118640662D02*
X126585714Y-118640662D01*
X127785714Y-118640662D02*
X127785714Y-117440662D01*
D11*
X119070339Y-70065037D02*
X118070339Y-70065037D01*
X118070339Y-70065037D02*
X118784624Y-69865037D01*
X118784624Y-69865037D02*
X118070339Y-69665037D01*
X118070339Y-69665037D02*
X119070339Y-69665037D01*
X118070339Y-69265038D02*
X118070339Y-69150752D01*
X118070339Y-69150752D02*
X118117958Y-69093609D01*
X118117958Y-69093609D02*
X118213196Y-69036466D01*
X118213196Y-69036466D02*
X118403672Y-69007895D01*
X118403672Y-69007895D02*
X118737005Y-69007895D01*
X118737005Y-69007895D02*
X118927481Y-69036466D01*
X118927481Y-69036466D02*
X119022720Y-69093609D01*
X119022720Y-69093609D02*
X119070339Y-69150752D01*
X119070339Y-69150752D02*
X119070339Y-69265038D01*
X119070339Y-69265038D02*
X119022720Y-69322181D01*
X119022720Y-69322181D02*
X118927481Y-69379323D01*
X118927481Y-69379323D02*
X118737005Y-69407895D01*
X118737005Y-69407895D02*
X118403672Y-69407895D01*
X118403672Y-69407895D02*
X118213196Y-69379323D01*
X118213196Y-69379323D02*
X118117958Y-69322181D01*
X118117958Y-69322181D02*
X118070339Y-69265038D01*
X119022720Y-68779324D02*
X119070339Y-68693610D01*
X119070339Y-68693610D02*
X119070339Y-68550752D01*
X119070339Y-68550752D02*
X119022720Y-68493610D01*
X119022720Y-68493610D02*
X118975100Y-68465038D01*
X118975100Y-68465038D02*
X118879862Y-68436467D01*
X118879862Y-68436467D02*
X118784624Y-68436467D01*
X118784624Y-68436467D02*
X118689386Y-68465038D01*
X118689386Y-68465038D02*
X118641767Y-68493610D01*
X118641767Y-68493610D02*
X118594148Y-68550752D01*
X118594148Y-68550752D02*
X118546529Y-68665038D01*
X118546529Y-68665038D02*
X118498910Y-68722181D01*
X118498910Y-68722181D02*
X118451291Y-68750752D01*
X118451291Y-68750752D02*
X118356053Y-68779324D01*
X118356053Y-68779324D02*
X118260815Y-68779324D01*
X118260815Y-68779324D02*
X118165577Y-68750752D01*
X118165577Y-68750752D02*
X118117958Y-68722181D01*
X118117958Y-68722181D02*
X118070339Y-68665038D01*
X118070339Y-68665038D02*
X118070339Y-68522181D01*
X118070339Y-68522181D02*
X118117958Y-68436467D01*
X119070339Y-68179323D02*
X118070339Y-68179323D01*
X119070339Y-67436466D02*
X118070339Y-67436466D01*
X118070339Y-67436466D02*
X118784624Y-67236466D01*
X118784624Y-67236466D02*
X118070339Y-67036466D01*
X118070339Y-67036466D02*
X119070339Y-67036466D01*
X119070339Y-66750752D02*
X118070339Y-66750752D01*
X119022720Y-66493610D02*
X119070339Y-66407896D01*
X119070339Y-66407896D02*
X119070339Y-66265038D01*
X119070339Y-66265038D02*
X119022720Y-66207896D01*
X119022720Y-66207896D02*
X118975100Y-66179324D01*
X118975100Y-66179324D02*
X118879862Y-66150753D01*
X118879862Y-66150753D02*
X118784624Y-66150753D01*
X118784624Y-66150753D02*
X118689386Y-66179324D01*
X118689386Y-66179324D02*
X118641767Y-66207896D01*
X118641767Y-66207896D02*
X118594148Y-66265038D01*
X118594148Y-66265038D02*
X118546529Y-66379324D01*
X118546529Y-66379324D02*
X118498910Y-66436467D01*
X118498910Y-66436467D02*
X118451291Y-66465038D01*
X118451291Y-66465038D02*
X118356053Y-66493610D01*
X118356053Y-66493610D02*
X118260815Y-66493610D01*
X118260815Y-66493610D02*
X118165577Y-66465038D01*
X118165577Y-66465038D02*
X118117958Y-66436467D01*
X118117958Y-66436467D02*
X118070339Y-66379324D01*
X118070339Y-66379324D02*
X118070339Y-66236467D01*
X118070339Y-66236467D02*
X118117958Y-66150753D01*
X118070339Y-65779324D02*
X118070339Y-65665038D01*
X118070339Y-65665038D02*
X118117958Y-65607895D01*
X118117958Y-65607895D02*
X118213196Y-65550752D01*
X118213196Y-65550752D02*
X118403672Y-65522181D01*
X118403672Y-65522181D02*
X118737005Y-65522181D01*
X118737005Y-65522181D02*
X118927481Y-65550752D01*
X118927481Y-65550752D02*
X119022720Y-65607895D01*
X119022720Y-65607895D02*
X119070339Y-65665038D01*
X119070339Y-65665038D02*
X119070339Y-65779324D01*
X119070339Y-65779324D02*
X119022720Y-65836467D01*
X119022720Y-65836467D02*
X118927481Y-65893609D01*
X118927481Y-65893609D02*
X118737005Y-65922181D01*
X118737005Y-65922181D02*
X118403672Y-65922181D01*
X118403672Y-65922181D02*
X118213196Y-65893609D01*
X118213196Y-65893609D02*
X118117958Y-65836467D01*
X118117958Y-65836467D02*
X118070339Y-65779324D01*
X119022720Y-64836467D02*
X119070339Y-64750753D01*
X119070339Y-64750753D02*
X119070339Y-64607895D01*
X119070339Y-64607895D02*
X119022720Y-64550753D01*
X119022720Y-64550753D02*
X118975100Y-64522181D01*
X118975100Y-64522181D02*
X118879862Y-64493610D01*
X118879862Y-64493610D02*
X118784624Y-64493610D01*
X118784624Y-64493610D02*
X118689386Y-64522181D01*
X118689386Y-64522181D02*
X118641767Y-64550753D01*
X118641767Y-64550753D02*
X118594148Y-64607895D01*
X118594148Y-64607895D02*
X118546529Y-64722181D01*
X118546529Y-64722181D02*
X118498910Y-64779324D01*
X118498910Y-64779324D02*
X118451291Y-64807895D01*
X118451291Y-64807895D02*
X118356053Y-64836467D01*
X118356053Y-64836467D02*
X118260815Y-64836467D01*
X118260815Y-64836467D02*
X118165577Y-64807895D01*
X118165577Y-64807895D02*
X118117958Y-64779324D01*
X118117958Y-64779324D02*
X118070339Y-64722181D01*
X118070339Y-64722181D02*
X118070339Y-64579324D01*
X118070339Y-64579324D02*
X118117958Y-64493610D01*
X118975100Y-63893609D02*
X119022720Y-63922181D01*
X119022720Y-63922181D02*
X119070339Y-64007895D01*
X119070339Y-64007895D02*
X119070339Y-64065038D01*
X119070339Y-64065038D02*
X119022720Y-64150752D01*
X119022720Y-64150752D02*
X118927481Y-64207895D01*
X118927481Y-64207895D02*
X118832243Y-64236466D01*
X118832243Y-64236466D02*
X118641767Y-64265038D01*
X118641767Y-64265038D02*
X118498910Y-64265038D01*
X118498910Y-64265038D02*
X118308434Y-64236466D01*
X118308434Y-64236466D02*
X118213196Y-64207895D01*
X118213196Y-64207895D02*
X118117958Y-64150752D01*
X118117958Y-64150752D02*
X118070339Y-64065038D01*
X118070339Y-64065038D02*
X118070339Y-64007895D01*
X118070339Y-64007895D02*
X118117958Y-63922181D01*
X118117958Y-63922181D02*
X118165577Y-63893609D01*
X119070339Y-63636466D02*
X118070339Y-63636466D01*
X119070339Y-63293609D02*
X118498910Y-63550752D01*
X118070339Y-63293609D02*
X118641767Y-63636466D01*
X119070339Y-76808847D02*
X118594148Y-77055514D01*
X119070339Y-77231704D02*
X118070339Y-77231704D01*
X118070339Y-77231704D02*
X118070339Y-76949799D01*
X118070339Y-76949799D02*
X118117958Y-76879323D01*
X118117958Y-76879323D02*
X118165577Y-76844085D01*
X118165577Y-76844085D02*
X118260815Y-76808847D01*
X118260815Y-76808847D02*
X118403672Y-76808847D01*
X118403672Y-76808847D02*
X118498910Y-76844085D01*
X118498910Y-76844085D02*
X118546529Y-76879323D01*
X118546529Y-76879323D02*
X118594148Y-76949799D01*
X118594148Y-76949799D02*
X118594148Y-77231704D01*
X118070339Y-76562180D02*
X119070339Y-76068847D01*
X118070339Y-76068847D02*
X119070339Y-76562180D01*
X118070339Y-74765036D02*
X118070339Y-74342179D01*
X119070339Y-74553608D02*
X118070339Y-74553608D01*
X118070339Y-74165988D02*
X119070339Y-73672655D01*
X118070339Y-73672655D02*
X119070339Y-74165988D01*
X119022720Y-72298368D02*
X119070339Y-72192654D01*
X119070339Y-72192654D02*
X119070339Y-72016463D01*
X119070339Y-72016463D02*
X119022720Y-71945987D01*
X119022720Y-71945987D02*
X118975100Y-71910749D01*
X118975100Y-71910749D02*
X118879862Y-71875511D01*
X118879862Y-71875511D02*
X118784624Y-71875511D01*
X118784624Y-71875511D02*
X118689386Y-71910749D01*
X118689386Y-71910749D02*
X118641767Y-71945987D01*
X118641767Y-71945987D02*
X118594148Y-72016463D01*
X118594148Y-72016463D02*
X118546529Y-72157416D01*
X118546529Y-72157416D02*
X118498910Y-72227892D01*
X118498910Y-72227892D02*
X118451291Y-72263130D01*
X118451291Y-72263130D02*
X118356053Y-72298368D01*
X118356053Y-72298368D02*
X118260815Y-72298368D01*
X118260815Y-72298368D02*
X118165577Y-72263130D01*
X118165577Y-72263130D02*
X118117958Y-72227892D01*
X118117958Y-72227892D02*
X118070339Y-72157416D01*
X118070339Y-72157416D02*
X118070339Y-71981225D01*
X118070339Y-71981225D02*
X118117958Y-71875511D01*
X119022720Y-71593606D02*
X119070339Y-71487892D01*
X119070339Y-71487892D02*
X119070339Y-71311701D01*
X119070339Y-71311701D02*
X119022720Y-71241225D01*
X119022720Y-71241225D02*
X118975100Y-71205987D01*
X118975100Y-71205987D02*
X118879862Y-71170749D01*
X118879862Y-71170749D02*
X118784624Y-71170749D01*
X118784624Y-71170749D02*
X118689386Y-71205987D01*
X118689386Y-71205987D02*
X118641767Y-71241225D01*
X118641767Y-71241225D02*
X118594148Y-71311701D01*
X118594148Y-71311701D02*
X118546529Y-71452654D01*
X118546529Y-71452654D02*
X118498910Y-71523130D01*
X118498910Y-71523130D02*
X118451291Y-71558368D01*
X118451291Y-71558368D02*
X118356053Y-71593606D01*
X118356053Y-71593606D02*
X118260815Y-71593606D01*
X118260815Y-71593606D02*
X118165577Y-71558368D01*
X118165577Y-71558368D02*
X118117958Y-71523130D01*
X118117958Y-71523130D02*
X118070339Y-71452654D01*
X118070339Y-71452654D02*
X118070339Y-71276463D01*
X118070339Y-71276463D02*
X118117958Y-71170749D01*
X118107958Y-92874561D02*
X118060339Y-92941228D01*
X118060339Y-92941228D02*
X118060339Y-93041228D01*
X118060339Y-93041228D02*
X118107958Y-93141228D01*
X118107958Y-93141228D02*
X118203196Y-93207895D01*
X118203196Y-93207895D02*
X118298434Y-93241228D01*
X118298434Y-93241228D02*
X118488910Y-93274561D01*
X118488910Y-93274561D02*
X118631767Y-93274561D01*
X118631767Y-93274561D02*
X118822243Y-93241228D01*
X118822243Y-93241228D02*
X118917481Y-93207895D01*
X118917481Y-93207895D02*
X119012720Y-93141228D01*
X119012720Y-93141228D02*
X119060339Y-93041228D01*
X119060339Y-93041228D02*
X119060339Y-92974561D01*
X119060339Y-92974561D02*
X119012720Y-92874561D01*
X119012720Y-92874561D02*
X118965100Y-92841228D01*
X118965100Y-92841228D02*
X118631767Y-92841228D01*
X118631767Y-92841228D02*
X118631767Y-92974561D01*
X119060339Y-92541228D02*
X118060339Y-92541228D01*
X118060339Y-92541228D02*
X119060339Y-92141228D01*
X119060339Y-92141228D02*
X118060339Y-92141228D01*
X119060339Y-91807895D02*
X118060339Y-91807895D01*
X118060339Y-91807895D02*
X118060339Y-91641228D01*
X118060339Y-91641228D02*
X118107958Y-91541228D01*
X118107958Y-91541228D02*
X118203196Y-91474562D01*
X118203196Y-91474562D02*
X118298434Y-91441228D01*
X118298434Y-91441228D02*
X118488910Y-91407895D01*
X118488910Y-91407895D02*
X118631767Y-91407895D01*
X118631767Y-91407895D02*
X118822243Y-91441228D01*
X118822243Y-91441228D02*
X118917481Y-91474562D01*
X118917481Y-91474562D02*
X119012720Y-91541228D01*
X119012720Y-91541228D02*
X119060339Y-91641228D01*
X119060339Y-91641228D02*
X119060339Y-91807895D01*
X118060339Y-90674562D02*
X119060339Y-90441229D01*
X119060339Y-90441229D02*
X118060339Y-90207895D01*
X119060339Y-89974562D02*
X118060339Y-89974562D01*
X118060339Y-89974562D02*
X118060339Y-89807895D01*
X118060339Y-89807895D02*
X118107958Y-89707895D01*
X118107958Y-89707895D02*
X118203196Y-89641229D01*
X118203196Y-89641229D02*
X118298434Y-89607895D01*
X118298434Y-89607895D02*
X118488910Y-89574562D01*
X118488910Y-89574562D02*
X118631767Y-89574562D01*
X118631767Y-89574562D02*
X118822243Y-89607895D01*
X118822243Y-89607895D02*
X118917481Y-89641229D01*
X118917481Y-89641229D02*
X119012720Y-89707895D01*
X119012720Y-89707895D02*
X119060339Y-89807895D01*
X119060339Y-89807895D02*
X119060339Y-89974562D01*
X119060339Y-89274562D02*
X118060339Y-89274562D01*
X118060339Y-89274562D02*
X118060339Y-89107895D01*
X118060339Y-89107895D02*
X118107958Y-89007895D01*
X118107958Y-89007895D02*
X118203196Y-88941229D01*
X118203196Y-88941229D02*
X118298434Y-88907895D01*
X118298434Y-88907895D02*
X118488910Y-88874562D01*
X118488910Y-88874562D02*
X118631767Y-88874562D01*
X118631767Y-88874562D02*
X118822243Y-88907895D01*
X118822243Y-88907895D02*
X118917481Y-88941229D01*
X118917481Y-88941229D02*
X119012720Y-89007895D01*
X119012720Y-89007895D02*
X119060339Y-89107895D01*
X119060339Y-89107895D02*
X119060339Y-89274562D01*
X118107958Y-87674562D02*
X118060339Y-87741229D01*
X118060339Y-87741229D02*
X118060339Y-87841229D01*
X118060339Y-87841229D02*
X118107958Y-87941229D01*
X118107958Y-87941229D02*
X118203196Y-88007896D01*
X118203196Y-88007896D02*
X118298434Y-88041229D01*
X118298434Y-88041229D02*
X118488910Y-88074562D01*
X118488910Y-88074562D02*
X118631767Y-88074562D01*
X118631767Y-88074562D02*
X118822243Y-88041229D01*
X118822243Y-88041229D02*
X118917481Y-88007896D01*
X118917481Y-88007896D02*
X119012720Y-87941229D01*
X119012720Y-87941229D02*
X119060339Y-87841229D01*
X119060339Y-87841229D02*
X119060339Y-87774562D01*
X119060339Y-87774562D02*
X119012720Y-87674562D01*
X119012720Y-87674562D02*
X118965100Y-87641229D01*
X118965100Y-87641229D02*
X118631767Y-87641229D01*
X118631767Y-87641229D02*
X118631767Y-87774562D01*
X119060339Y-87341229D02*
X118060339Y-87341229D01*
X118060339Y-87341229D02*
X119060339Y-86941229D01*
X119060339Y-86941229D02*
X118060339Y-86941229D01*
X119060339Y-86607896D02*
X118060339Y-86607896D01*
X118060339Y-86607896D02*
X118060339Y-86441229D01*
X118060339Y-86441229D02*
X118107958Y-86341229D01*
X118107958Y-86341229D02*
X118203196Y-86274563D01*
X118203196Y-86274563D02*
X118298434Y-86241229D01*
X118298434Y-86241229D02*
X118488910Y-86207896D01*
X118488910Y-86207896D02*
X118631767Y-86207896D01*
X118631767Y-86207896D02*
X118822243Y-86241229D01*
X118822243Y-86241229D02*
X118917481Y-86274563D01*
X118917481Y-86274563D02*
X119012720Y-86341229D01*
X119012720Y-86341229D02*
X119060339Y-86441229D01*
X119060339Y-86441229D02*
X119060339Y-86607896D01*
X118679386Y-85374563D02*
X118679386Y-84841230D01*
X119060339Y-85107896D02*
X118298434Y-85107896D01*
X118060339Y-84174563D02*
X118060339Y-84507896D01*
X118060339Y-84507896D02*
X118536529Y-84541229D01*
X118536529Y-84541229D02*
X118488910Y-84507896D01*
X118488910Y-84507896D02*
X118441291Y-84441229D01*
X118441291Y-84441229D02*
X118441291Y-84274563D01*
X118441291Y-84274563D02*
X118488910Y-84207896D01*
X118488910Y-84207896D02*
X118536529Y-84174563D01*
X118536529Y-84174563D02*
X118631767Y-84141229D01*
X118631767Y-84141229D02*
X118869862Y-84141229D01*
X118869862Y-84141229D02*
X118965100Y-84174563D01*
X118965100Y-84174563D02*
X119012720Y-84207896D01*
X119012720Y-84207896D02*
X119060339Y-84274563D01*
X119060339Y-84274563D02*
X119060339Y-84441229D01*
X119060339Y-84441229D02*
X119012720Y-84507896D01*
X119012720Y-84507896D02*
X118965100Y-84541229D01*
X118060339Y-83941229D02*
X119060339Y-83707896D01*
X119060339Y-83707896D02*
X118060339Y-83474562D01*
X119022720Y-82674561D02*
X119070339Y-82574561D01*
X119070339Y-82574561D02*
X119070339Y-82407895D01*
X119070339Y-82407895D02*
X119022720Y-82341228D01*
X119022720Y-82341228D02*
X118975100Y-82307895D01*
X118975100Y-82307895D02*
X118879862Y-82274561D01*
X118879862Y-82274561D02*
X118784624Y-82274561D01*
X118784624Y-82274561D02*
X118689386Y-82307895D01*
X118689386Y-82307895D02*
X118641767Y-82341228D01*
X118641767Y-82341228D02*
X118594148Y-82407895D01*
X118594148Y-82407895D02*
X118546529Y-82541228D01*
X118546529Y-82541228D02*
X118498910Y-82607895D01*
X118498910Y-82607895D02*
X118451291Y-82641228D01*
X118451291Y-82641228D02*
X118356053Y-82674561D01*
X118356053Y-82674561D02*
X118260815Y-82674561D01*
X118260815Y-82674561D02*
X118165577Y-82641228D01*
X118165577Y-82641228D02*
X118117958Y-82607895D01*
X118117958Y-82607895D02*
X118070339Y-82541228D01*
X118070339Y-82541228D02*
X118070339Y-82374561D01*
X118070339Y-82374561D02*
X118117958Y-82274561D01*
X119070339Y-81974561D02*
X118070339Y-81974561D01*
X118070339Y-81974561D02*
X118070339Y-81807894D01*
X118070339Y-81807894D02*
X118117958Y-81707894D01*
X118117958Y-81707894D02*
X118213196Y-81641228D01*
X118213196Y-81641228D02*
X118308434Y-81607894D01*
X118308434Y-81607894D02*
X118498910Y-81574561D01*
X118498910Y-81574561D02*
X118641767Y-81574561D01*
X118641767Y-81574561D02*
X118832243Y-81607894D01*
X118832243Y-81607894D02*
X118927481Y-81641228D01*
X118927481Y-81641228D02*
X119022720Y-81707894D01*
X119022720Y-81707894D02*
X119070339Y-81807894D01*
X119070339Y-81807894D02*
X119070339Y-81974561D01*
X118784624Y-81307894D02*
X118784624Y-80974561D01*
X119070339Y-81374561D02*
X118070339Y-81141228D01*
X118070339Y-81141228D02*
X119070339Y-80907894D01*
X119022720Y-80174561D02*
X119070339Y-80074561D01*
X119070339Y-80074561D02*
X119070339Y-79907895D01*
X119070339Y-79907895D02*
X119022720Y-79841228D01*
X119022720Y-79841228D02*
X118975100Y-79807895D01*
X118975100Y-79807895D02*
X118879862Y-79774561D01*
X118879862Y-79774561D02*
X118784624Y-79774561D01*
X118784624Y-79774561D02*
X118689386Y-79807895D01*
X118689386Y-79807895D02*
X118641767Y-79841228D01*
X118641767Y-79841228D02*
X118594148Y-79907895D01*
X118594148Y-79907895D02*
X118546529Y-80041228D01*
X118546529Y-80041228D02*
X118498910Y-80107895D01*
X118498910Y-80107895D02*
X118451291Y-80141228D01*
X118451291Y-80141228D02*
X118356053Y-80174561D01*
X118356053Y-80174561D02*
X118260815Y-80174561D01*
X118260815Y-80174561D02*
X118165577Y-80141228D01*
X118165577Y-80141228D02*
X118117958Y-80107895D01*
X118117958Y-80107895D02*
X118070339Y-80041228D01*
X118070339Y-80041228D02*
X118070339Y-79874561D01*
X118070339Y-79874561D02*
X118117958Y-79774561D01*
X118975100Y-79074561D02*
X119022720Y-79107894D01*
X119022720Y-79107894D02*
X119070339Y-79207894D01*
X119070339Y-79207894D02*
X119070339Y-79274561D01*
X119070339Y-79274561D02*
X119022720Y-79374561D01*
X119022720Y-79374561D02*
X118927481Y-79441228D01*
X118927481Y-79441228D02*
X118832243Y-79474561D01*
X118832243Y-79474561D02*
X118641767Y-79507894D01*
X118641767Y-79507894D02*
X118498910Y-79507894D01*
X118498910Y-79507894D02*
X118308434Y-79474561D01*
X118308434Y-79474561D02*
X118213196Y-79441228D01*
X118213196Y-79441228D02*
X118117958Y-79374561D01*
X118117958Y-79374561D02*
X118070339Y-79274561D01*
X118070339Y-79274561D02*
X118070339Y-79207894D01*
X118070339Y-79207894D02*
X118117958Y-79107894D01*
X118117958Y-79107894D02*
X118165577Y-79074561D01*
X119070339Y-78441228D02*
X119070339Y-78774561D01*
X119070339Y-78774561D02*
X118070339Y-78774561D01*
X107358771Y-52779386D02*
X107892105Y-52779386D01*
X107625438Y-53160339D02*
X107625438Y-52398434D01*
X108558772Y-52160339D02*
X108225438Y-52160339D01*
X108225438Y-52160339D02*
X108192105Y-52636529D01*
X108192105Y-52636529D02*
X108225438Y-52588910D01*
X108225438Y-52588910D02*
X108292105Y-52541291D01*
X108292105Y-52541291D02*
X108458772Y-52541291D01*
X108458772Y-52541291D02*
X108525438Y-52588910D01*
X108525438Y-52588910D02*
X108558772Y-52636529D01*
X108558772Y-52636529D02*
X108592105Y-52731767D01*
X108592105Y-52731767D02*
X108592105Y-52969862D01*
X108592105Y-52969862D02*
X108558772Y-53065100D01*
X108558772Y-53065100D02*
X108525438Y-53112720D01*
X108525438Y-53112720D02*
X108458772Y-53160339D01*
X108458772Y-53160339D02*
X108292105Y-53160339D01*
X108292105Y-53160339D02*
X108225438Y-53112720D01*
X108225438Y-53112720D02*
X108192105Y-53065100D01*
X108792105Y-52160339D02*
X109025439Y-53160339D01*
X109025439Y-53160339D02*
X109258772Y-52160339D01*
X110392105Y-52207958D02*
X110325438Y-52160339D01*
X110325438Y-52160339D02*
X110225438Y-52160339D01*
X110225438Y-52160339D02*
X110125438Y-52207958D01*
X110125438Y-52207958D02*
X110058772Y-52303196D01*
X110058772Y-52303196D02*
X110025438Y-52398434D01*
X110025438Y-52398434D02*
X109992105Y-52588910D01*
X109992105Y-52588910D02*
X109992105Y-52731767D01*
X109992105Y-52731767D02*
X110025438Y-52922243D01*
X110025438Y-52922243D02*
X110058772Y-53017481D01*
X110058772Y-53017481D02*
X110125438Y-53112720D01*
X110125438Y-53112720D02*
X110225438Y-53160339D01*
X110225438Y-53160339D02*
X110292105Y-53160339D01*
X110292105Y-53160339D02*
X110392105Y-53112720D01*
X110392105Y-53112720D02*
X110425438Y-53065100D01*
X110425438Y-53065100D02*
X110425438Y-52731767D01*
X110425438Y-52731767D02*
X110292105Y-52731767D01*
X110725438Y-53160339D02*
X110725438Y-52160339D01*
X110725438Y-52160339D02*
X111125438Y-53160339D01*
X111125438Y-53160339D02*
X111125438Y-52160339D01*
X111458771Y-53160339D02*
X111458771Y-52160339D01*
X111458771Y-52160339D02*
X111625438Y-52160339D01*
X111625438Y-52160339D02*
X111725438Y-52207958D01*
X111725438Y-52207958D02*
X111792105Y-52303196D01*
X111792105Y-52303196D02*
X111825438Y-52398434D01*
X111825438Y-52398434D02*
X111858771Y-52588910D01*
X111858771Y-52588910D02*
X111858771Y-52731767D01*
X111858771Y-52731767D02*
X111825438Y-52922243D01*
X111825438Y-52922243D02*
X111792105Y-53017481D01*
X111792105Y-53017481D02*
X111725438Y-53112720D01*
X111725438Y-53112720D02*
X111625438Y-53160339D01*
X111625438Y-53160339D02*
X111458771Y-53160339D01*
X112592104Y-52160339D02*
X112825438Y-53160339D01*
X112825438Y-53160339D02*
X113058771Y-52160339D01*
X113292104Y-53160339D02*
X113292104Y-52160339D01*
X113292104Y-52160339D02*
X113458771Y-52160339D01*
X113458771Y-52160339D02*
X113558771Y-52207958D01*
X113558771Y-52207958D02*
X113625438Y-52303196D01*
X113625438Y-52303196D02*
X113658771Y-52398434D01*
X113658771Y-52398434D02*
X113692104Y-52588910D01*
X113692104Y-52588910D02*
X113692104Y-52731767D01*
X113692104Y-52731767D02*
X113658771Y-52922243D01*
X113658771Y-52922243D02*
X113625438Y-53017481D01*
X113625438Y-53017481D02*
X113558771Y-53112720D01*
X113558771Y-53112720D02*
X113458771Y-53160339D01*
X113458771Y-53160339D02*
X113292104Y-53160339D01*
X113992104Y-53160339D02*
X113992104Y-52160339D01*
X113992104Y-52160339D02*
X114158771Y-52160339D01*
X114158771Y-52160339D02*
X114258771Y-52207958D01*
X114258771Y-52207958D02*
X114325438Y-52303196D01*
X114325438Y-52303196D02*
X114358771Y-52398434D01*
X114358771Y-52398434D02*
X114392104Y-52588910D01*
X114392104Y-52588910D02*
X114392104Y-52731767D01*
X114392104Y-52731767D02*
X114358771Y-52922243D01*
X114358771Y-52922243D02*
X114325438Y-53017481D01*
X114325438Y-53017481D02*
X114258771Y-53112720D01*
X114258771Y-53112720D02*
X114158771Y-53160339D01*
X114158771Y-53160339D02*
X113992104Y-53160339D01*
X115592104Y-52207958D02*
X115525437Y-52160339D01*
X115525437Y-52160339D02*
X115425437Y-52160339D01*
X115425437Y-52160339D02*
X115325437Y-52207958D01*
X115325437Y-52207958D02*
X115258771Y-52303196D01*
X115258771Y-52303196D02*
X115225437Y-52398434D01*
X115225437Y-52398434D02*
X115192104Y-52588910D01*
X115192104Y-52588910D02*
X115192104Y-52731767D01*
X115192104Y-52731767D02*
X115225437Y-52922243D01*
X115225437Y-52922243D02*
X115258771Y-53017481D01*
X115258771Y-53017481D02*
X115325437Y-53112720D01*
X115325437Y-53112720D02*
X115425437Y-53160339D01*
X115425437Y-53160339D02*
X115492104Y-53160339D01*
X115492104Y-53160339D02*
X115592104Y-53112720D01*
X115592104Y-53112720D02*
X115625437Y-53065100D01*
X115625437Y-53065100D02*
X115625437Y-52731767D01*
X115625437Y-52731767D02*
X115492104Y-52731767D01*
X115925437Y-53160339D02*
X115925437Y-52160339D01*
X115925437Y-52160339D02*
X116325437Y-53160339D01*
X116325437Y-53160339D02*
X116325437Y-52160339D01*
X116658770Y-53160339D02*
X116658770Y-52160339D01*
X116658770Y-52160339D02*
X116825437Y-52160339D01*
X116825437Y-52160339D02*
X116925437Y-52207958D01*
X116925437Y-52207958D02*
X116992104Y-52303196D01*
X116992104Y-52303196D02*
X117025437Y-52398434D01*
X117025437Y-52398434D02*
X117058770Y-52588910D01*
X117058770Y-52588910D02*
X117058770Y-52731767D01*
X117058770Y-52731767D02*
X117025437Y-52922243D01*
X117025437Y-52922243D02*
X116992104Y-53017481D01*
X116992104Y-53017481D02*
X116925437Y-53112720D01*
X116925437Y-53112720D02*
X116825437Y-53160339D01*
X116825437Y-53160339D02*
X116658770Y-53160339D01*
D12*
X91817768Y-53157219D02*
X91817768Y-52157219D01*
X91817768Y-52157219D02*
X92043958Y-52157219D01*
X92043958Y-52157219D02*
X92179673Y-52204838D01*
X92179673Y-52204838D02*
X92270149Y-52300076D01*
X92270149Y-52300076D02*
X92315387Y-52395314D01*
X92315387Y-52395314D02*
X92360625Y-52585790D01*
X92360625Y-52585790D02*
X92360625Y-52728647D01*
X92360625Y-52728647D02*
X92315387Y-52919123D01*
X92315387Y-52919123D02*
X92270149Y-53014361D01*
X92270149Y-53014361D02*
X92179673Y-53109600D01*
X92179673Y-53109600D02*
X92043958Y-53157219D01*
X92043958Y-53157219D02*
X91817768Y-53157219D01*
X92948720Y-52157219D02*
X93039197Y-52157219D01*
X93039197Y-52157219D02*
X93129673Y-52204838D01*
X93129673Y-52204838D02*
X93174911Y-52252457D01*
X93174911Y-52252457D02*
X93220149Y-52347695D01*
X93220149Y-52347695D02*
X93265387Y-52538171D01*
X93265387Y-52538171D02*
X93265387Y-52776266D01*
X93265387Y-52776266D02*
X93220149Y-52966742D01*
X93220149Y-52966742D02*
X93174911Y-53061980D01*
X93174911Y-53061980D02*
X93129673Y-53109600D01*
X93129673Y-53109600D02*
X93039197Y-53157219D01*
X93039197Y-53157219D02*
X92948720Y-53157219D01*
X92948720Y-53157219D02*
X92858244Y-53109600D01*
X92858244Y-53109600D02*
X92813006Y-53061980D01*
X92813006Y-53061980D02*
X92767768Y-52966742D01*
X92767768Y-52966742D02*
X92722530Y-52776266D01*
X92722530Y-52776266D02*
X92722530Y-52538171D01*
X92722530Y-52538171D02*
X92767768Y-52347695D01*
X92767768Y-52347695D02*
X92813006Y-52252457D01*
X92813006Y-52252457D02*
X92858244Y-52204838D01*
X92858244Y-52204838D02*
X92948720Y-52157219D01*
X94396340Y-53157219D02*
X94396340Y-52157219D01*
X94396340Y-52157219D02*
X94622530Y-52157219D01*
X94622530Y-52157219D02*
X94758245Y-52204838D01*
X94758245Y-52204838D02*
X94848721Y-52300076D01*
X94848721Y-52300076D02*
X94893959Y-52395314D01*
X94893959Y-52395314D02*
X94939197Y-52585790D01*
X94939197Y-52585790D02*
X94939197Y-52728647D01*
X94939197Y-52728647D02*
X94893959Y-52919123D01*
X94893959Y-52919123D02*
X94848721Y-53014361D01*
X94848721Y-53014361D02*
X94758245Y-53109600D01*
X94758245Y-53109600D02*
X94622530Y-53157219D01*
X94622530Y-53157219D02*
X94396340Y-53157219D01*
X95843959Y-53157219D02*
X95301102Y-53157219D01*
X95572530Y-53157219D02*
X95572530Y-52157219D01*
X95572530Y-52157219D02*
X95482054Y-52300076D01*
X95482054Y-52300076D02*
X95391578Y-52395314D01*
X95391578Y-52395314D02*
X95301102Y-52442933D01*
X96974912Y-53157219D02*
X96974912Y-52157219D01*
X96974912Y-52157219D02*
X97201102Y-52157219D01*
X97201102Y-52157219D02*
X97336817Y-52204838D01*
X97336817Y-52204838D02*
X97427293Y-52300076D01*
X97427293Y-52300076D02*
X97472531Y-52395314D01*
X97472531Y-52395314D02*
X97517769Y-52585790D01*
X97517769Y-52585790D02*
X97517769Y-52728647D01*
X97517769Y-52728647D02*
X97472531Y-52919123D01*
X97472531Y-52919123D02*
X97427293Y-53014361D01*
X97427293Y-53014361D02*
X97336817Y-53109600D01*
X97336817Y-53109600D02*
X97201102Y-53157219D01*
X97201102Y-53157219D02*
X96974912Y-53157219D01*
X97879674Y-52252457D02*
X97924912Y-52204838D01*
X97924912Y-52204838D02*
X98015388Y-52157219D01*
X98015388Y-52157219D02*
X98241579Y-52157219D01*
X98241579Y-52157219D02*
X98332055Y-52204838D01*
X98332055Y-52204838D02*
X98377293Y-52252457D01*
X98377293Y-52252457D02*
X98422531Y-52347695D01*
X98422531Y-52347695D02*
X98422531Y-52442933D01*
X98422531Y-52442933D02*
X98377293Y-52585790D01*
X98377293Y-52585790D02*
X97834436Y-53157219D01*
X97834436Y-53157219D02*
X98422531Y-53157219D01*
X99553484Y-53157219D02*
X99553484Y-52157219D01*
X99553484Y-52157219D02*
X99779674Y-52157219D01*
X99779674Y-52157219D02*
X99915389Y-52204838D01*
X99915389Y-52204838D02*
X100005865Y-52300076D01*
X100005865Y-52300076D02*
X100051103Y-52395314D01*
X100051103Y-52395314D02*
X100096341Y-52585790D01*
X100096341Y-52585790D02*
X100096341Y-52728647D01*
X100096341Y-52728647D02*
X100051103Y-52919123D01*
X100051103Y-52919123D02*
X100005865Y-53014361D01*
X100005865Y-53014361D02*
X99915389Y-53109600D01*
X99915389Y-53109600D02*
X99779674Y-53157219D01*
X99779674Y-53157219D02*
X99553484Y-53157219D01*
X100413008Y-52157219D02*
X101001103Y-52157219D01*
X101001103Y-52157219D02*
X100684436Y-52538171D01*
X100684436Y-52538171D02*
X100820151Y-52538171D01*
X100820151Y-52538171D02*
X100910627Y-52585790D01*
X100910627Y-52585790D02*
X100955865Y-52633409D01*
X100955865Y-52633409D02*
X101001103Y-52728647D01*
X101001103Y-52728647D02*
X101001103Y-52966742D01*
X101001103Y-52966742D02*
X100955865Y-53061980D01*
X100955865Y-53061980D02*
X100910627Y-53109600D01*
X100910627Y-53109600D02*
X100820151Y-53157219D01*
X100820151Y-53157219D02*
X100548722Y-53157219D01*
X100548722Y-53157219D02*
X100458246Y-53109600D01*
X100458246Y-53109600D02*
X100413008Y-53061980D01*
X102674913Y-53157219D02*
X102358246Y-52681028D01*
X102132056Y-53157219D02*
X102132056Y-52157219D01*
X102132056Y-52157219D02*
X102493961Y-52157219D01*
X102493961Y-52157219D02*
X102584437Y-52204838D01*
X102584437Y-52204838D02*
X102629675Y-52252457D01*
X102629675Y-52252457D02*
X102674913Y-52347695D01*
X102674913Y-52347695D02*
X102674913Y-52490552D01*
X102674913Y-52490552D02*
X102629675Y-52585790D01*
X102629675Y-52585790D02*
X102584437Y-52633409D01*
X102584437Y-52633409D02*
X102493961Y-52681028D01*
X102493961Y-52681028D02*
X102132056Y-52681028D01*
X103263008Y-52157219D02*
X103353485Y-52157219D01*
X103353485Y-52157219D02*
X103443961Y-52204838D01*
X103443961Y-52204838D02*
X103489199Y-52252457D01*
X103489199Y-52252457D02*
X103534437Y-52347695D01*
X103534437Y-52347695D02*
X103579675Y-52538171D01*
X103579675Y-52538171D02*
X103579675Y-52776266D01*
X103579675Y-52776266D02*
X103534437Y-52966742D01*
X103534437Y-52966742D02*
X103489199Y-53061980D01*
X103489199Y-53061980D02*
X103443961Y-53109600D01*
X103443961Y-53109600D02*
X103353485Y-53157219D01*
X103353485Y-53157219D02*
X103263008Y-53157219D01*
X103263008Y-53157219D02*
X103172532Y-53109600D01*
X103172532Y-53109600D02*
X103127294Y-53061980D01*
X103127294Y-53061980D02*
X103082056Y-52966742D01*
X103082056Y-52966742D02*
X103036818Y-52776266D01*
X103036818Y-52776266D02*
X103036818Y-52538171D01*
X103036818Y-52538171D02*
X103082056Y-52347695D01*
X103082056Y-52347695D02*
X103127294Y-52252457D01*
X103127294Y-52252457D02*
X103172532Y-52204838D01*
X103172532Y-52204838D02*
X103263008Y-52157219D01*
X105253485Y-53157219D02*
X104936818Y-52681028D01*
X104710628Y-53157219D02*
X104710628Y-52157219D01*
X104710628Y-52157219D02*
X105072533Y-52157219D01*
X105072533Y-52157219D02*
X105163009Y-52204838D01*
X105163009Y-52204838D02*
X105208247Y-52252457D01*
X105208247Y-52252457D02*
X105253485Y-52347695D01*
X105253485Y-52347695D02*
X105253485Y-52490552D01*
X105253485Y-52490552D02*
X105208247Y-52585790D01*
X105208247Y-52585790D02*
X105163009Y-52633409D01*
X105163009Y-52633409D02*
X105072533Y-52681028D01*
X105072533Y-52681028D02*
X104710628Y-52681028D01*
X106158247Y-53157219D02*
X105615390Y-53157219D01*
X105886818Y-53157219D02*
X105886818Y-52157219D01*
X105886818Y-52157219D02*
X105796342Y-52300076D01*
X105796342Y-52300076D02*
X105705866Y-52395314D01*
X105705866Y-52395314D02*
X105615390Y-52442933D01*
D11*
X107058771Y-114789386D02*
X107592105Y-114789386D01*
X107325438Y-115170339D02*
X107325438Y-114408434D01*
X108258772Y-114170339D02*
X107925438Y-114170339D01*
X107925438Y-114170339D02*
X107892105Y-114646529D01*
X107892105Y-114646529D02*
X107925438Y-114598910D01*
X107925438Y-114598910D02*
X107992105Y-114551291D01*
X107992105Y-114551291D02*
X108158772Y-114551291D01*
X108158772Y-114551291D02*
X108225438Y-114598910D01*
X108225438Y-114598910D02*
X108258772Y-114646529D01*
X108258772Y-114646529D02*
X108292105Y-114741767D01*
X108292105Y-114741767D02*
X108292105Y-114979862D01*
X108292105Y-114979862D02*
X108258772Y-115075100D01*
X108258772Y-115075100D02*
X108225438Y-115122720D01*
X108225438Y-115122720D02*
X108158772Y-115170339D01*
X108158772Y-115170339D02*
X107992105Y-115170339D01*
X107992105Y-115170339D02*
X107925438Y-115122720D01*
X107925438Y-115122720D02*
X107892105Y-115075100D01*
X108492105Y-114170339D02*
X108725439Y-115170339D01*
X108725439Y-115170339D02*
X108958772Y-114170339D01*
X110092105Y-114217958D02*
X110025438Y-114170339D01*
X110025438Y-114170339D02*
X109925438Y-114170339D01*
X109925438Y-114170339D02*
X109825438Y-114217958D01*
X109825438Y-114217958D02*
X109758772Y-114313196D01*
X109758772Y-114313196D02*
X109725438Y-114408434D01*
X109725438Y-114408434D02*
X109692105Y-114598910D01*
X109692105Y-114598910D02*
X109692105Y-114741767D01*
X109692105Y-114741767D02*
X109725438Y-114932243D01*
X109725438Y-114932243D02*
X109758772Y-115027481D01*
X109758772Y-115027481D02*
X109825438Y-115122720D01*
X109825438Y-115122720D02*
X109925438Y-115170339D01*
X109925438Y-115170339D02*
X109992105Y-115170339D01*
X109992105Y-115170339D02*
X110092105Y-115122720D01*
X110092105Y-115122720D02*
X110125438Y-115075100D01*
X110125438Y-115075100D02*
X110125438Y-114741767D01*
X110125438Y-114741767D02*
X109992105Y-114741767D01*
X110425438Y-115170339D02*
X110425438Y-114170339D01*
X110425438Y-114170339D02*
X110825438Y-115170339D01*
X110825438Y-115170339D02*
X110825438Y-114170339D01*
X111158771Y-115170339D02*
X111158771Y-114170339D01*
X111158771Y-114170339D02*
X111325438Y-114170339D01*
X111325438Y-114170339D02*
X111425438Y-114217958D01*
X111425438Y-114217958D02*
X111492105Y-114313196D01*
X111492105Y-114313196D02*
X111525438Y-114408434D01*
X111525438Y-114408434D02*
X111558771Y-114598910D01*
X111558771Y-114598910D02*
X111558771Y-114741767D01*
X111558771Y-114741767D02*
X111525438Y-114932243D01*
X111525438Y-114932243D02*
X111492105Y-115027481D01*
X111492105Y-115027481D02*
X111425438Y-115122720D01*
X111425438Y-115122720D02*
X111325438Y-115170339D01*
X111325438Y-115170339D02*
X111158771Y-115170339D01*
X112292104Y-114170339D02*
X112525438Y-115170339D01*
X112525438Y-115170339D02*
X112758771Y-114170339D01*
X112992104Y-115170339D02*
X112992104Y-114170339D01*
X112992104Y-114170339D02*
X113158771Y-114170339D01*
X113158771Y-114170339D02*
X113258771Y-114217958D01*
X113258771Y-114217958D02*
X113325438Y-114313196D01*
X113325438Y-114313196D02*
X113358771Y-114408434D01*
X113358771Y-114408434D02*
X113392104Y-114598910D01*
X113392104Y-114598910D02*
X113392104Y-114741767D01*
X113392104Y-114741767D02*
X113358771Y-114932243D01*
X113358771Y-114932243D02*
X113325438Y-115027481D01*
X113325438Y-115027481D02*
X113258771Y-115122720D01*
X113258771Y-115122720D02*
X113158771Y-115170339D01*
X113158771Y-115170339D02*
X112992104Y-115170339D01*
X113692104Y-115170339D02*
X113692104Y-114170339D01*
X113692104Y-114170339D02*
X113858771Y-114170339D01*
X113858771Y-114170339D02*
X113958771Y-114217958D01*
X113958771Y-114217958D02*
X114025438Y-114313196D01*
X114025438Y-114313196D02*
X114058771Y-114408434D01*
X114058771Y-114408434D02*
X114092104Y-114598910D01*
X114092104Y-114598910D02*
X114092104Y-114741767D01*
X114092104Y-114741767D02*
X114058771Y-114932243D01*
X114058771Y-114932243D02*
X114025438Y-115027481D01*
X114025438Y-115027481D02*
X113958771Y-115122720D01*
X113958771Y-115122720D02*
X113858771Y-115170339D01*
X113858771Y-115170339D02*
X113692104Y-115170339D01*
X115292104Y-114217958D02*
X115225437Y-114170339D01*
X115225437Y-114170339D02*
X115125437Y-114170339D01*
X115125437Y-114170339D02*
X115025437Y-114217958D01*
X115025437Y-114217958D02*
X114958771Y-114313196D01*
X114958771Y-114313196D02*
X114925437Y-114408434D01*
X114925437Y-114408434D02*
X114892104Y-114598910D01*
X114892104Y-114598910D02*
X114892104Y-114741767D01*
X114892104Y-114741767D02*
X114925437Y-114932243D01*
X114925437Y-114932243D02*
X114958771Y-115027481D01*
X114958771Y-115027481D02*
X115025437Y-115122720D01*
X115025437Y-115122720D02*
X115125437Y-115170339D01*
X115125437Y-115170339D02*
X115192104Y-115170339D01*
X115192104Y-115170339D02*
X115292104Y-115122720D01*
X115292104Y-115122720D02*
X115325437Y-115075100D01*
X115325437Y-115075100D02*
X115325437Y-114741767D01*
X115325437Y-114741767D02*
X115192104Y-114741767D01*
X115625437Y-115170339D02*
X115625437Y-114170339D01*
X115625437Y-114170339D02*
X116025437Y-115170339D01*
X116025437Y-115170339D02*
X116025437Y-114170339D01*
X116358770Y-115170339D02*
X116358770Y-114170339D01*
X116358770Y-114170339D02*
X116525437Y-114170339D01*
X116525437Y-114170339D02*
X116625437Y-114217958D01*
X116625437Y-114217958D02*
X116692104Y-114313196D01*
X116692104Y-114313196D02*
X116725437Y-114408434D01*
X116725437Y-114408434D02*
X116758770Y-114598910D01*
X116758770Y-114598910D02*
X116758770Y-114741767D01*
X116758770Y-114741767D02*
X116725437Y-114932243D01*
X116725437Y-114932243D02*
X116692104Y-115027481D01*
X116692104Y-115027481D02*
X116625437Y-115122720D01*
X116625437Y-115122720D02*
X116525437Y-115170339D01*
X116525437Y-115170339D02*
X116358770Y-115170339D01*
D12*
X92357768Y-115167219D02*
X92357768Y-114167219D01*
X92357768Y-114167219D02*
X92583958Y-114167219D01*
X92583958Y-114167219D02*
X92719673Y-114214838D01*
X92719673Y-114214838D02*
X92810149Y-114310076D01*
X92810149Y-114310076D02*
X92855387Y-114405314D01*
X92855387Y-114405314D02*
X92900625Y-114595790D01*
X92900625Y-114595790D02*
X92900625Y-114738647D01*
X92900625Y-114738647D02*
X92855387Y-114929123D01*
X92855387Y-114929123D02*
X92810149Y-115024361D01*
X92810149Y-115024361D02*
X92719673Y-115119600D01*
X92719673Y-115119600D02*
X92583958Y-115167219D01*
X92583958Y-115167219D02*
X92357768Y-115167219D01*
X93488720Y-114167219D02*
X93579197Y-114167219D01*
X93579197Y-114167219D02*
X93669673Y-114214838D01*
X93669673Y-114214838D02*
X93714911Y-114262457D01*
X93714911Y-114262457D02*
X93760149Y-114357695D01*
X93760149Y-114357695D02*
X93805387Y-114548171D01*
X93805387Y-114548171D02*
X93805387Y-114786266D01*
X93805387Y-114786266D02*
X93760149Y-114976742D01*
X93760149Y-114976742D02*
X93714911Y-115071980D01*
X93714911Y-115071980D02*
X93669673Y-115119600D01*
X93669673Y-115119600D02*
X93579197Y-115167219D01*
X93579197Y-115167219D02*
X93488720Y-115167219D01*
X93488720Y-115167219D02*
X93398244Y-115119600D01*
X93398244Y-115119600D02*
X93353006Y-115071980D01*
X93353006Y-115071980D02*
X93307768Y-114976742D01*
X93307768Y-114976742D02*
X93262530Y-114786266D01*
X93262530Y-114786266D02*
X93262530Y-114548171D01*
X93262530Y-114548171D02*
X93307768Y-114357695D01*
X93307768Y-114357695D02*
X93353006Y-114262457D01*
X93353006Y-114262457D02*
X93398244Y-114214838D01*
X93398244Y-114214838D02*
X93488720Y-114167219D01*
X94936340Y-115167219D02*
X94936340Y-114167219D01*
X94936340Y-114167219D02*
X95162530Y-114167219D01*
X95162530Y-114167219D02*
X95298245Y-114214838D01*
X95298245Y-114214838D02*
X95388721Y-114310076D01*
X95388721Y-114310076D02*
X95433959Y-114405314D01*
X95433959Y-114405314D02*
X95479197Y-114595790D01*
X95479197Y-114595790D02*
X95479197Y-114738647D01*
X95479197Y-114738647D02*
X95433959Y-114929123D01*
X95433959Y-114929123D02*
X95388721Y-115024361D01*
X95388721Y-115024361D02*
X95298245Y-115119600D01*
X95298245Y-115119600D02*
X95162530Y-115167219D01*
X95162530Y-115167219D02*
X94936340Y-115167219D01*
X96383959Y-115167219D02*
X95841102Y-115167219D01*
X96112530Y-115167219D02*
X96112530Y-114167219D01*
X96112530Y-114167219D02*
X96022054Y-114310076D01*
X96022054Y-114310076D02*
X95931578Y-114405314D01*
X95931578Y-114405314D02*
X95841102Y-114452933D01*
X97514912Y-115167219D02*
X97514912Y-114167219D01*
X97514912Y-114167219D02*
X97741102Y-114167219D01*
X97741102Y-114167219D02*
X97876817Y-114214838D01*
X97876817Y-114214838D02*
X97967293Y-114310076D01*
X97967293Y-114310076D02*
X98012531Y-114405314D01*
X98012531Y-114405314D02*
X98057769Y-114595790D01*
X98057769Y-114595790D02*
X98057769Y-114738647D01*
X98057769Y-114738647D02*
X98012531Y-114929123D01*
X98012531Y-114929123D02*
X97967293Y-115024361D01*
X97967293Y-115024361D02*
X97876817Y-115119600D01*
X97876817Y-115119600D02*
X97741102Y-115167219D01*
X97741102Y-115167219D02*
X97514912Y-115167219D01*
X98419674Y-114262457D02*
X98464912Y-114214838D01*
X98464912Y-114214838D02*
X98555388Y-114167219D01*
X98555388Y-114167219D02*
X98781579Y-114167219D01*
X98781579Y-114167219D02*
X98872055Y-114214838D01*
X98872055Y-114214838D02*
X98917293Y-114262457D01*
X98917293Y-114262457D02*
X98962531Y-114357695D01*
X98962531Y-114357695D02*
X98962531Y-114452933D01*
X98962531Y-114452933D02*
X98917293Y-114595790D01*
X98917293Y-114595790D02*
X98374436Y-115167219D01*
X98374436Y-115167219D02*
X98962531Y-115167219D01*
X100093484Y-115167219D02*
X100093484Y-114167219D01*
X100093484Y-114167219D02*
X100319674Y-114167219D01*
X100319674Y-114167219D02*
X100455389Y-114214838D01*
X100455389Y-114214838D02*
X100545865Y-114310076D01*
X100545865Y-114310076D02*
X100591103Y-114405314D01*
X100591103Y-114405314D02*
X100636341Y-114595790D01*
X100636341Y-114595790D02*
X100636341Y-114738647D01*
X100636341Y-114738647D02*
X100591103Y-114929123D01*
X100591103Y-114929123D02*
X100545865Y-115024361D01*
X100545865Y-115024361D02*
X100455389Y-115119600D01*
X100455389Y-115119600D02*
X100319674Y-115167219D01*
X100319674Y-115167219D02*
X100093484Y-115167219D01*
X100953008Y-114167219D02*
X101541103Y-114167219D01*
X101541103Y-114167219D02*
X101224436Y-114548171D01*
X101224436Y-114548171D02*
X101360151Y-114548171D01*
X101360151Y-114548171D02*
X101450627Y-114595790D01*
X101450627Y-114595790D02*
X101495865Y-114643409D01*
X101495865Y-114643409D02*
X101541103Y-114738647D01*
X101541103Y-114738647D02*
X101541103Y-114976742D01*
X101541103Y-114976742D02*
X101495865Y-115071980D01*
X101495865Y-115071980D02*
X101450627Y-115119600D01*
X101450627Y-115119600D02*
X101360151Y-115167219D01*
X101360151Y-115167219D02*
X101088722Y-115167219D01*
X101088722Y-115167219D02*
X100998246Y-115119600D01*
X100998246Y-115119600D02*
X100953008Y-115071980D01*
X102626818Y-114881504D02*
X103079199Y-114881504D01*
X102536342Y-115167219D02*
X102853008Y-114167219D01*
X102853008Y-114167219D02*
X103169675Y-115167219D01*
X103667294Y-114167219D02*
X103757771Y-114167219D01*
X103757771Y-114167219D02*
X103848247Y-114214838D01*
X103848247Y-114214838D02*
X103893485Y-114262457D01*
X103893485Y-114262457D02*
X103938723Y-114357695D01*
X103938723Y-114357695D02*
X103983961Y-114548171D01*
X103983961Y-114548171D02*
X103983961Y-114786266D01*
X103983961Y-114786266D02*
X103938723Y-114976742D01*
X103938723Y-114976742D02*
X103893485Y-115071980D01*
X103893485Y-115071980D02*
X103848247Y-115119600D01*
X103848247Y-115119600D02*
X103757771Y-115167219D01*
X103757771Y-115167219D02*
X103667294Y-115167219D01*
X103667294Y-115167219D02*
X103576818Y-115119600D01*
X103576818Y-115119600D02*
X103531580Y-115071980D01*
X103531580Y-115071980D02*
X103486342Y-114976742D01*
X103486342Y-114976742D02*
X103441104Y-114786266D01*
X103441104Y-114786266D02*
X103441104Y-114548171D01*
X103441104Y-114548171D02*
X103486342Y-114357695D01*
X103486342Y-114357695D02*
X103531580Y-114262457D01*
X103531580Y-114262457D02*
X103576818Y-114214838D01*
X103576818Y-114214838D02*
X103667294Y-114167219D01*
X105069676Y-114881504D02*
X105522057Y-114881504D01*
X104979200Y-115167219D02*
X105295866Y-114167219D01*
X105295866Y-114167219D02*
X105612533Y-115167219D01*
X106426819Y-115167219D02*
X105883962Y-115167219D01*
X106155390Y-115167219D02*
X106155390Y-114167219D01*
X106155390Y-114167219D02*
X106064914Y-114310076D01*
X106064914Y-114310076D02*
X105974438Y-114405314D01*
X105974438Y-114405314D02*
X105883962Y-114452933D01*
X121369673Y-59386266D02*
X122131578Y-59386266D01*
X121750625Y-59767219D02*
X121750625Y-59005314D01*
X123322054Y-58862457D02*
X123369673Y-58814838D01*
X123369673Y-58814838D02*
X123464911Y-58767219D01*
X123464911Y-58767219D02*
X123703006Y-58767219D01*
X123703006Y-58767219D02*
X123798244Y-58814838D01*
X123798244Y-58814838D02*
X123845863Y-58862457D01*
X123845863Y-58862457D02*
X123893482Y-58957695D01*
X123893482Y-58957695D02*
X123893482Y-59052933D01*
X123893482Y-59052933D02*
X123845863Y-59195790D01*
X123845863Y-59195790D02*
X123274435Y-59767219D01*
X123274435Y-59767219D02*
X123893482Y-59767219D01*
X124750625Y-59100552D02*
X124750625Y-59767219D01*
X124512530Y-58719600D02*
X124274435Y-59433885D01*
X124274435Y-59433885D02*
X124893482Y-59433885D01*
X125131578Y-58767219D02*
X125464911Y-59767219D01*
X125464911Y-59767219D02*
X125798244Y-58767219D01*
X126893483Y-59386266D02*
X127655388Y-59386266D01*
D13*
X93414285Y-93149757D02*
X94128571Y-93149757D01*
X93271428Y-93578328D02*
X93771428Y-92078328D01*
X93771428Y-92078328D02*
X94271428Y-93578328D01*
X94771427Y-93578328D02*
X94771427Y-92578328D01*
X94771427Y-92864042D02*
X94842856Y-92721185D01*
X94842856Y-92721185D02*
X94914285Y-92649757D01*
X94914285Y-92649757D02*
X95057142Y-92578328D01*
X95057142Y-92578328D02*
X95199999Y-92578328D01*
X96342856Y-93578328D02*
X96342856Y-92078328D01*
X96342856Y-93506900D02*
X96199998Y-93578328D01*
X96199998Y-93578328D02*
X95914284Y-93578328D01*
X95914284Y-93578328D02*
X95771427Y-93506900D01*
X95771427Y-93506900D02*
X95699998Y-93435471D01*
X95699998Y-93435471D02*
X95628570Y-93292614D01*
X95628570Y-93292614D02*
X95628570Y-92864042D01*
X95628570Y-92864042D02*
X95699998Y-92721185D01*
X95699998Y-92721185D02*
X95771427Y-92649757D01*
X95771427Y-92649757D02*
X95914284Y-92578328D01*
X95914284Y-92578328D02*
X96199998Y-92578328D01*
X96199998Y-92578328D02*
X96342856Y-92649757D01*
X97699999Y-92578328D02*
X97699999Y-93578328D01*
X97057141Y-92578328D02*
X97057141Y-93364042D01*
X97057141Y-93364042D02*
X97128570Y-93506900D01*
X97128570Y-93506900D02*
X97271427Y-93578328D01*
X97271427Y-93578328D02*
X97485713Y-93578328D01*
X97485713Y-93578328D02*
X97628570Y-93506900D01*
X97628570Y-93506900D02*
X97699999Y-93435471D01*
X98414284Y-93578328D02*
X98414284Y-92578328D01*
X98414284Y-92078328D02*
X98342856Y-92149757D01*
X98342856Y-92149757D02*
X98414284Y-92221185D01*
X98414284Y-92221185D02*
X98485713Y-92149757D01*
X98485713Y-92149757D02*
X98414284Y-92078328D01*
X98414284Y-92078328D02*
X98414284Y-92221185D01*
X99128570Y-92578328D02*
X99128570Y-93578328D01*
X99128570Y-92721185D02*
X99199999Y-92649757D01*
X99199999Y-92649757D02*
X99342856Y-92578328D01*
X99342856Y-92578328D02*
X99557142Y-92578328D01*
X99557142Y-92578328D02*
X99699999Y-92649757D01*
X99699999Y-92649757D02*
X99771428Y-92792614D01*
X99771428Y-92792614D02*
X99771428Y-93578328D01*
X100699999Y-93578328D02*
X100557142Y-93506900D01*
X100557142Y-93506900D02*
X100485713Y-93435471D01*
X100485713Y-93435471D02*
X100414285Y-93292614D01*
X100414285Y-93292614D02*
X100414285Y-92864042D01*
X100414285Y-92864042D02*
X100485713Y-92721185D01*
X100485713Y-92721185D02*
X100557142Y-92649757D01*
X100557142Y-92649757D02*
X100699999Y-92578328D01*
X100699999Y-92578328D02*
X100914285Y-92578328D01*
X100914285Y-92578328D02*
X101057142Y-92649757D01*
X101057142Y-92649757D02*
X101128571Y-92721185D01*
X101128571Y-92721185D02*
X101199999Y-92864042D01*
X101199999Y-92864042D02*
X101199999Y-93292614D01*
X101199999Y-93292614D02*
X101128571Y-93435471D01*
X101128571Y-93435471D02*
X101057142Y-93506900D01*
X101057142Y-93506900D02*
X100914285Y-93578328D01*
X100914285Y-93578328D02*
X100699999Y-93578328D01*
X102985713Y-93578328D02*
X102985713Y-92078328D01*
X102985713Y-92078328D02*
X103842856Y-93578328D01*
X103842856Y-93578328D02*
X103842856Y-92078328D01*
X105200000Y-93578328D02*
X105200000Y-92792614D01*
X105200000Y-92792614D02*
X105128571Y-92649757D01*
X105128571Y-92649757D02*
X104985714Y-92578328D01*
X104985714Y-92578328D02*
X104700000Y-92578328D01*
X104700000Y-92578328D02*
X104557142Y-92649757D01*
X105200000Y-93506900D02*
X105057142Y-93578328D01*
X105057142Y-93578328D02*
X104700000Y-93578328D01*
X104700000Y-93578328D02*
X104557142Y-93506900D01*
X104557142Y-93506900D02*
X104485714Y-93364042D01*
X104485714Y-93364042D02*
X104485714Y-93221185D01*
X104485714Y-93221185D02*
X104557142Y-93078328D01*
X104557142Y-93078328D02*
X104700000Y-93006900D01*
X104700000Y-93006900D02*
X105057142Y-93006900D01*
X105057142Y-93006900D02*
X105200000Y-92935471D01*
X105914285Y-92578328D02*
X105914285Y-93578328D01*
X105914285Y-92721185D02*
X105985714Y-92649757D01*
X105985714Y-92649757D02*
X106128571Y-92578328D01*
X106128571Y-92578328D02*
X106342857Y-92578328D01*
X106342857Y-92578328D02*
X106485714Y-92649757D01*
X106485714Y-92649757D02*
X106557143Y-92792614D01*
X106557143Y-92792614D02*
X106557143Y-93578328D01*
X107485714Y-93578328D02*
X107342857Y-93506900D01*
X107342857Y-93506900D02*
X107271428Y-93435471D01*
X107271428Y-93435471D02*
X107200000Y-93292614D01*
X107200000Y-93292614D02*
X107200000Y-92864042D01*
X107200000Y-92864042D02*
X107271428Y-92721185D01*
X107271428Y-92721185D02*
X107342857Y-92649757D01*
X107342857Y-92649757D02*
X107485714Y-92578328D01*
X107485714Y-92578328D02*
X107700000Y-92578328D01*
X107700000Y-92578328D02*
X107842857Y-92649757D01*
X107842857Y-92649757D02*
X107914286Y-92721185D01*
X107914286Y-92721185D02*
X107985714Y-92864042D01*
X107985714Y-92864042D02*
X107985714Y-93292614D01*
X107985714Y-93292614D02*
X107914286Y-93435471D01*
X107914286Y-93435471D02*
X107842857Y-93506900D01*
X107842857Y-93506900D02*
X107700000Y-93578328D01*
X107700000Y-93578328D02*
X107485714Y-93578328D01*
D14*
X99218095Y-56154819D02*
X99218095Y-56964342D01*
X99218095Y-56964342D02*
X99265714Y-57059580D01*
X99265714Y-57059580D02*
X99313333Y-57107200D01*
X99313333Y-57107200D02*
X99408571Y-57154819D01*
X99408571Y-57154819D02*
X99599047Y-57154819D01*
X99599047Y-57154819D02*
X99694285Y-57107200D01*
X99694285Y-57107200D02*
X99741904Y-57059580D01*
X99741904Y-57059580D02*
X99789523Y-56964342D01*
X99789523Y-56964342D02*
X99789523Y-56154819D01*
X100218095Y-57107200D02*
X100360952Y-57154819D01*
X100360952Y-57154819D02*
X100599047Y-57154819D01*
X100599047Y-57154819D02*
X100694285Y-57107200D01*
X100694285Y-57107200D02*
X100741904Y-57059580D01*
X100741904Y-57059580D02*
X100789523Y-56964342D01*
X100789523Y-56964342D02*
X100789523Y-56869104D01*
X100789523Y-56869104D02*
X100741904Y-56773866D01*
X100741904Y-56773866D02*
X100694285Y-56726247D01*
X100694285Y-56726247D02*
X100599047Y-56678628D01*
X100599047Y-56678628D02*
X100408571Y-56631009D01*
X100408571Y-56631009D02*
X100313333Y-56583390D01*
X100313333Y-56583390D02*
X100265714Y-56535771D01*
X100265714Y-56535771D02*
X100218095Y-56440533D01*
X100218095Y-56440533D02*
X100218095Y-56345295D01*
X100218095Y-56345295D02*
X100265714Y-56250057D01*
X100265714Y-56250057D02*
X100313333Y-56202438D01*
X100313333Y-56202438D02*
X100408571Y-56154819D01*
X100408571Y-56154819D02*
X100646666Y-56154819D01*
X100646666Y-56154819D02*
X100789523Y-56202438D01*
X101551428Y-56631009D02*
X101694285Y-56678628D01*
X101694285Y-56678628D02*
X101741904Y-56726247D01*
X101741904Y-56726247D02*
X101789523Y-56821485D01*
X101789523Y-56821485D02*
X101789523Y-56964342D01*
X101789523Y-56964342D02*
X101741904Y-57059580D01*
X101741904Y-57059580D02*
X101694285Y-57107200D01*
X101694285Y-57107200D02*
X101599047Y-57154819D01*
X101599047Y-57154819D02*
X101218095Y-57154819D01*
X101218095Y-57154819D02*
X101218095Y-56154819D01*
X101218095Y-56154819D02*
X101551428Y-56154819D01*
X101551428Y-56154819D02*
X101646666Y-56202438D01*
X101646666Y-56202438D02*
X101694285Y-56250057D01*
X101694285Y-56250057D02*
X101741904Y-56345295D01*
X101741904Y-56345295D02*
X101741904Y-56440533D01*
X101741904Y-56440533D02*
X101694285Y-56535771D01*
X101694285Y-56535771D02*
X101646666Y-56583390D01*
X101646666Y-56583390D02*
X101551428Y-56631009D01*
X101551428Y-56631009D02*
X101218095Y-56631009D01*
X126633333Y-95759580D02*
X126585714Y-95807200D01*
X126585714Y-95807200D02*
X126442857Y-95854819D01*
X126442857Y-95854819D02*
X126347619Y-95854819D01*
X126347619Y-95854819D02*
X126204762Y-95807200D01*
X126204762Y-95807200D02*
X126109524Y-95711961D01*
X126109524Y-95711961D02*
X126061905Y-95616723D01*
X126061905Y-95616723D02*
X126014286Y-95426247D01*
X126014286Y-95426247D02*
X126014286Y-95283390D01*
X126014286Y-95283390D02*
X126061905Y-95092914D01*
X126061905Y-95092914D02*
X126109524Y-94997676D01*
X126109524Y-94997676D02*
X126204762Y-94902438D01*
X126204762Y-94902438D02*
X126347619Y-94854819D01*
X126347619Y-94854819D02*
X126442857Y-94854819D01*
X126442857Y-94854819D02*
X126585714Y-94902438D01*
X126585714Y-94902438D02*
X126633333Y-94950057D01*
X127585714Y-95854819D02*
X127014286Y-95854819D01*
X127300000Y-95854819D02*
X127300000Y-94854819D01*
X127300000Y-94854819D02*
X127204762Y-94997676D01*
X127204762Y-94997676D02*
X127109524Y-95092914D01*
X127109524Y-95092914D02*
X127014286Y-95140533D01*
X125252380Y-102954819D02*
X124680952Y-102954819D01*
X124966666Y-102954819D02*
X124966666Y-101954819D01*
X124966666Y-101954819D02*
X124871428Y-102097676D01*
X124871428Y-102097676D02*
X124776190Y-102192914D01*
X124776190Y-102192914D02*
X124680952Y-102240533D01*
X125871428Y-101954819D02*
X125966666Y-101954819D01*
X125966666Y-101954819D02*
X126061904Y-102002438D01*
X126061904Y-102002438D02*
X126109523Y-102050057D01*
X126109523Y-102050057D02*
X126157142Y-102145295D01*
X126157142Y-102145295D02*
X126204761Y-102335771D01*
X126204761Y-102335771D02*
X126204761Y-102573866D01*
X126204761Y-102573866D02*
X126157142Y-102764342D01*
X126157142Y-102764342D02*
X126109523Y-102859580D01*
X126109523Y-102859580D02*
X126061904Y-102907200D01*
X126061904Y-102907200D02*
X125966666Y-102954819D01*
X125966666Y-102954819D02*
X125871428Y-102954819D01*
X125871428Y-102954819D02*
X125776190Y-102907200D01*
X125776190Y-102907200D02*
X125728571Y-102859580D01*
X125728571Y-102859580D02*
X125680952Y-102764342D01*
X125680952Y-102764342D02*
X125633333Y-102573866D01*
X125633333Y-102573866D02*
X125633333Y-102335771D01*
X125633333Y-102335771D02*
X125680952Y-102145295D01*
X125680952Y-102145295D02*
X125728571Y-102050057D01*
X125728571Y-102050057D02*
X125776190Y-102002438D01*
X125776190Y-102002438D02*
X125871428Y-101954819D01*
X126823809Y-101954819D02*
X126919047Y-101954819D01*
X126919047Y-101954819D02*
X127014285Y-102002438D01*
X127014285Y-102002438D02*
X127061904Y-102050057D01*
X127061904Y-102050057D02*
X127109523Y-102145295D01*
X127109523Y-102145295D02*
X127157142Y-102335771D01*
X127157142Y-102335771D02*
X127157142Y-102573866D01*
X127157142Y-102573866D02*
X127109523Y-102764342D01*
X127109523Y-102764342D02*
X127061904Y-102859580D01*
X127061904Y-102859580D02*
X127014285Y-102907200D01*
X127014285Y-102907200D02*
X126919047Y-102954819D01*
X126919047Y-102954819D02*
X126823809Y-102954819D01*
X126823809Y-102954819D02*
X126728571Y-102907200D01*
X126728571Y-102907200D02*
X126680952Y-102859580D01*
X126680952Y-102859580D02*
X126633333Y-102764342D01*
X126633333Y-102764342D02*
X126585714Y-102573866D01*
X126585714Y-102573866D02*
X126585714Y-102335771D01*
X126585714Y-102335771D02*
X126633333Y-102145295D01*
X126633333Y-102145295D02*
X126680952Y-102050057D01*
X126680952Y-102050057D02*
X126728571Y-102002438D01*
X126728571Y-102002438D02*
X126823809Y-101954819D01*
X128014285Y-102288152D02*
X128014285Y-102954819D01*
X127585714Y-102288152D02*
X127585714Y-102811961D01*
X127585714Y-102811961D02*
X127633333Y-102907200D01*
X127633333Y-102907200D02*
X127728571Y-102954819D01*
X127728571Y-102954819D02*
X127871428Y-102954819D01*
X127871428Y-102954819D02*
X127966666Y-102907200D01*
X127966666Y-102907200D02*
X128014285Y-102859580D01*
X128823809Y-102431009D02*
X128490476Y-102431009D01*
X128490476Y-102954819D02*
X128490476Y-101954819D01*
X128490476Y-101954819D02*
X128966666Y-101954819D01*
X119066666Y-58854819D02*
X119066666Y-59569104D01*
X119066666Y-59569104D02*
X119019047Y-59711961D01*
X119019047Y-59711961D02*
X118923809Y-59807200D01*
X118923809Y-59807200D02*
X118780952Y-59854819D01*
X118780952Y-59854819D02*
X118685714Y-59854819D01*
X120066666Y-59854819D02*
X119495238Y-59854819D01*
X119780952Y-59854819D02*
X119780952Y-58854819D01*
X119780952Y-58854819D02*
X119685714Y-58997676D01*
X119685714Y-58997676D02*
X119590476Y-59092914D01*
X119590476Y-59092914D02*
X119495238Y-59140533D01*
X122223810Y-61654819D02*
X122223810Y-60654819D01*
X122223810Y-60654819D02*
X122604762Y-60654819D01*
X122604762Y-60654819D02*
X122700000Y-60702438D01*
X122700000Y-60702438D02*
X122747619Y-60750057D01*
X122747619Y-60750057D02*
X122795238Y-60845295D01*
X122795238Y-60845295D02*
X122795238Y-60988152D01*
X122795238Y-60988152D02*
X122747619Y-61083390D01*
X122747619Y-61083390D02*
X122700000Y-61131009D01*
X122700000Y-61131009D02*
X122604762Y-61178628D01*
X122604762Y-61178628D02*
X122223810Y-61178628D01*
X123128572Y-60654819D02*
X123366667Y-61654819D01*
X123366667Y-61654819D02*
X123557143Y-60940533D01*
X123557143Y-60940533D02*
X123747619Y-61654819D01*
X123747619Y-61654819D02*
X123985715Y-60654819D01*
X124938095Y-61654819D02*
X124604762Y-61178628D01*
X124366667Y-61654819D02*
X124366667Y-60654819D01*
X124366667Y-60654819D02*
X124747619Y-60654819D01*
X124747619Y-60654819D02*
X124842857Y-60702438D01*
X124842857Y-60702438D02*
X124890476Y-60750057D01*
X124890476Y-60750057D02*
X124938095Y-60845295D01*
X124938095Y-60845295D02*
X124938095Y-60988152D01*
X124938095Y-60988152D02*
X124890476Y-61083390D01*
X124890476Y-61083390D02*
X124842857Y-61131009D01*
X124842857Y-61131009D02*
X124747619Y-61178628D01*
X124747619Y-61178628D02*
X124366667Y-61178628D01*
X125128572Y-61750057D02*
X125890476Y-61750057D01*
X126128572Y-61654819D02*
X126128572Y-60654819D01*
X126604762Y-61654819D02*
X126604762Y-60654819D01*
X126604762Y-60654819D02*
X127176190Y-61654819D01*
X127176190Y-61654819D02*
X127176190Y-60654819D01*
X122066666Y-93854819D02*
X122066666Y-94569104D01*
X122066666Y-94569104D02*
X122019047Y-94711961D01*
X122019047Y-94711961D02*
X121923809Y-94807200D01*
X121923809Y-94807200D02*
X121780952Y-94854819D01*
X121780952Y-94854819D02*
X121685714Y-94854819D01*
X122495238Y-93950057D02*
X122542857Y-93902438D01*
X122542857Y-93902438D02*
X122638095Y-93854819D01*
X122638095Y-93854819D02*
X122876190Y-93854819D01*
X122876190Y-93854819D02*
X122971428Y-93902438D01*
X122971428Y-93902438D02*
X123019047Y-93950057D01*
X123019047Y-93950057D02*
X123066666Y-94045295D01*
X123066666Y-94045295D02*
X123066666Y-94140533D01*
X123066666Y-94140533D02*
X123019047Y-94283390D01*
X123019047Y-94283390D02*
X122447619Y-94854819D01*
X122447619Y-94854819D02*
X123066666Y-94854819D01*
X114890476Y-55354819D02*
X114890476Y-56069104D01*
X114890476Y-56069104D02*
X114842857Y-56211961D01*
X114842857Y-56211961D02*
X114747619Y-56307200D01*
X114747619Y-56307200D02*
X114604762Y-56354819D01*
X114604762Y-56354819D02*
X114509524Y-56354819D01*
X115890476Y-56354819D02*
X115319048Y-56354819D01*
X115604762Y-56354819D02*
X115604762Y-55354819D01*
X115604762Y-55354819D02*
X115509524Y-55497676D01*
X115509524Y-55497676D02*
X115414286Y-55592914D01*
X115414286Y-55592914D02*
X115319048Y-55640533D01*
X116271429Y-55450057D02*
X116319048Y-55402438D01*
X116319048Y-55402438D02*
X116414286Y-55354819D01*
X116414286Y-55354819D02*
X116652381Y-55354819D01*
X116652381Y-55354819D02*
X116747619Y-55402438D01*
X116747619Y-55402438D02*
X116795238Y-55450057D01*
X116795238Y-55450057D02*
X116842857Y-55545295D01*
X116842857Y-55545295D02*
X116842857Y-55640533D01*
X116842857Y-55640533D02*
X116795238Y-55783390D01*
X116795238Y-55783390D02*
X116223810Y-56354819D01*
X116223810Y-56354819D02*
X116842857Y-56354819D01*
X111019047Y-53854819D02*
X111209523Y-53854819D01*
X111209523Y-53854819D02*
X111304761Y-53902438D01*
X111304761Y-53902438D02*
X111399999Y-53997676D01*
X111399999Y-53997676D02*
X111447618Y-54188152D01*
X111447618Y-54188152D02*
X111447618Y-54521485D01*
X111447618Y-54521485D02*
X111399999Y-54711961D01*
X111399999Y-54711961D02*
X111304761Y-54807200D01*
X111304761Y-54807200D02*
X111209523Y-54854819D01*
X111209523Y-54854819D02*
X111019047Y-54854819D01*
X111019047Y-54854819D02*
X110923809Y-54807200D01*
X110923809Y-54807200D02*
X110828571Y-54711961D01*
X110828571Y-54711961D02*
X110780952Y-54521485D01*
X110780952Y-54521485D02*
X110780952Y-54188152D01*
X110780952Y-54188152D02*
X110828571Y-53997676D01*
X110828571Y-53997676D02*
X110923809Y-53902438D01*
X110923809Y-53902438D02*
X111019047Y-53854819D01*
X111876190Y-53854819D02*
X111876190Y-54664342D01*
X111876190Y-54664342D02*
X111923809Y-54759580D01*
X111923809Y-54759580D02*
X111971428Y-54807200D01*
X111971428Y-54807200D02*
X112066666Y-54854819D01*
X112066666Y-54854819D02*
X112257142Y-54854819D01*
X112257142Y-54854819D02*
X112352380Y-54807200D01*
X112352380Y-54807200D02*
X112399999Y-54759580D01*
X112399999Y-54759580D02*
X112447618Y-54664342D01*
X112447618Y-54664342D02*
X112447618Y-53854819D01*
X112780952Y-53854819D02*
X113352380Y-53854819D01*
X113066666Y-54854819D02*
X113066666Y-53854819D01*
X113685714Y-54854819D02*
X113685714Y-53854819D01*
X113685714Y-53854819D02*
X114066666Y-53854819D01*
X114066666Y-53854819D02*
X114161904Y-53902438D01*
X114161904Y-53902438D02*
X114209523Y-53950057D01*
X114209523Y-53950057D02*
X114257142Y-54045295D01*
X114257142Y-54045295D02*
X114257142Y-54188152D01*
X114257142Y-54188152D02*
X114209523Y-54283390D01*
X114209523Y-54283390D02*
X114161904Y-54331009D01*
X114161904Y-54331009D02*
X114066666Y-54378628D01*
X114066666Y-54378628D02*
X113685714Y-54378628D01*
X114685714Y-53854819D02*
X114685714Y-54664342D01*
X114685714Y-54664342D02*
X114733333Y-54759580D01*
X114733333Y-54759580D02*
X114780952Y-54807200D01*
X114780952Y-54807200D02*
X114876190Y-54854819D01*
X114876190Y-54854819D02*
X115066666Y-54854819D01*
X115066666Y-54854819D02*
X115161904Y-54807200D01*
X115161904Y-54807200D02*
X115209523Y-54759580D01*
X115209523Y-54759580D02*
X115257142Y-54664342D01*
X115257142Y-54664342D02*
X115257142Y-53854819D01*
X115590476Y-53854819D02*
X116161904Y-53854819D01*
X115876190Y-54854819D02*
X115876190Y-53854819D01*
X116447619Y-54807200D02*
X116590476Y-54854819D01*
X116590476Y-54854819D02*
X116828571Y-54854819D01*
X116828571Y-54854819D02*
X116923809Y-54807200D01*
X116923809Y-54807200D02*
X116971428Y-54759580D01*
X116971428Y-54759580D02*
X117019047Y-54664342D01*
X117019047Y-54664342D02*
X117019047Y-54569104D01*
X117019047Y-54569104D02*
X116971428Y-54473866D01*
X116971428Y-54473866D02*
X116923809Y-54426247D01*
X116923809Y-54426247D02*
X116828571Y-54378628D01*
X116828571Y-54378628D02*
X116638095Y-54331009D01*
X116638095Y-54331009D02*
X116542857Y-54283390D01*
X116542857Y-54283390D02*
X116495238Y-54235771D01*
X116495238Y-54235771D02*
X116447619Y-54140533D01*
X116447619Y-54140533D02*
X116447619Y-54045295D01*
X116447619Y-54045295D02*
X116495238Y-53950057D01*
X116495238Y-53950057D02*
X116542857Y-53902438D01*
X116542857Y-53902438D02*
X116638095Y-53854819D01*
X116638095Y-53854819D02*
X116876190Y-53854819D01*
X116876190Y-53854819D02*
X117019047Y-53902438D01*
X126533333Y-107059580D02*
X126485714Y-107107200D01*
X126485714Y-107107200D02*
X126342857Y-107154819D01*
X126342857Y-107154819D02*
X126247619Y-107154819D01*
X126247619Y-107154819D02*
X126104762Y-107107200D01*
X126104762Y-107107200D02*
X126009524Y-107011961D01*
X126009524Y-107011961D02*
X125961905Y-106916723D01*
X125961905Y-106916723D02*
X125914286Y-106726247D01*
X125914286Y-106726247D02*
X125914286Y-106583390D01*
X125914286Y-106583390D02*
X125961905Y-106392914D01*
X125961905Y-106392914D02*
X126009524Y-106297676D01*
X126009524Y-106297676D02*
X126104762Y-106202438D01*
X126104762Y-106202438D02*
X126247619Y-106154819D01*
X126247619Y-106154819D02*
X126342857Y-106154819D01*
X126342857Y-106154819D02*
X126485714Y-106202438D01*
X126485714Y-106202438D02*
X126533333Y-106250057D01*
X126914286Y-106250057D02*
X126961905Y-106202438D01*
X126961905Y-106202438D02*
X127057143Y-106154819D01*
X127057143Y-106154819D02*
X127295238Y-106154819D01*
X127295238Y-106154819D02*
X127390476Y-106202438D01*
X127390476Y-106202438D02*
X127438095Y-106250057D01*
X127438095Y-106250057D02*
X127485714Y-106345295D01*
X127485714Y-106345295D02*
X127485714Y-106440533D01*
X127485714Y-106440533D02*
X127438095Y-106583390D01*
X127438095Y-106583390D02*
X126866667Y-107154819D01*
X126866667Y-107154819D02*
X127485714Y-107154819D01*
X125528571Y-114254819D02*
X124957143Y-114254819D01*
X125242857Y-114254819D02*
X125242857Y-113254819D01*
X125242857Y-113254819D02*
X125147619Y-113397676D01*
X125147619Y-113397676D02*
X125052381Y-113492914D01*
X125052381Y-113492914D02*
X124957143Y-113540533D01*
X126147619Y-113254819D02*
X126242857Y-113254819D01*
X126242857Y-113254819D02*
X126338095Y-113302438D01*
X126338095Y-113302438D02*
X126385714Y-113350057D01*
X126385714Y-113350057D02*
X126433333Y-113445295D01*
X126433333Y-113445295D02*
X126480952Y-113635771D01*
X126480952Y-113635771D02*
X126480952Y-113873866D01*
X126480952Y-113873866D02*
X126433333Y-114064342D01*
X126433333Y-114064342D02*
X126385714Y-114159580D01*
X126385714Y-114159580D02*
X126338095Y-114207200D01*
X126338095Y-114207200D02*
X126242857Y-114254819D01*
X126242857Y-114254819D02*
X126147619Y-114254819D01*
X126147619Y-114254819D02*
X126052381Y-114207200D01*
X126052381Y-114207200D02*
X126004762Y-114159580D01*
X126004762Y-114159580D02*
X125957143Y-114064342D01*
X125957143Y-114064342D02*
X125909524Y-113873866D01*
X125909524Y-113873866D02*
X125909524Y-113635771D01*
X125909524Y-113635771D02*
X125957143Y-113445295D01*
X125957143Y-113445295D02*
X126004762Y-113350057D01*
X126004762Y-113350057D02*
X126052381Y-113302438D01*
X126052381Y-113302438D02*
X126147619Y-113254819D01*
X127338095Y-113588152D02*
X127338095Y-114254819D01*
X126909524Y-113588152D02*
X126909524Y-114111961D01*
X126909524Y-114111961D02*
X126957143Y-114207200D01*
X126957143Y-114207200D02*
X127052381Y-114254819D01*
X127052381Y-114254819D02*
X127195238Y-114254819D01*
X127195238Y-114254819D02*
X127290476Y-114207200D01*
X127290476Y-114207200D02*
X127338095Y-114159580D01*
X128147619Y-113731009D02*
X127814286Y-113731009D01*
X127814286Y-114254819D02*
X127814286Y-113254819D01*
X127814286Y-113254819D02*
X128290476Y-113254819D01*
X113138095Y-108754819D02*
X113138095Y-109564342D01*
X113138095Y-109564342D02*
X113185714Y-109659580D01*
X113185714Y-109659580D02*
X113233333Y-109707200D01*
X113233333Y-109707200D02*
X113328571Y-109754819D01*
X113328571Y-109754819D02*
X113519047Y-109754819D01*
X113519047Y-109754819D02*
X113614285Y-109707200D01*
X113614285Y-109707200D02*
X113661904Y-109659580D01*
X113661904Y-109659580D02*
X113709523Y-109564342D01*
X113709523Y-109564342D02*
X113709523Y-108754819D01*
X114709523Y-109754819D02*
X114138095Y-109754819D01*
X114423809Y-109754819D02*
X114423809Y-108754819D01*
X114423809Y-108754819D02*
X114328571Y-108897676D01*
X114328571Y-108897676D02*
X114233333Y-108992914D01*
X114233333Y-108992914D02*
X114138095Y-109040533D01*
X111704761Y-100554819D02*
X111228571Y-100554819D01*
X111228571Y-100554819D02*
X111228571Y-99554819D01*
X111942857Y-99554819D02*
X112609523Y-99554819D01*
X112609523Y-99554819D02*
X112180952Y-100554819D01*
X113133333Y-99983390D02*
X113038095Y-99935771D01*
X113038095Y-99935771D02*
X112990476Y-99888152D01*
X112990476Y-99888152D02*
X112942857Y-99792914D01*
X112942857Y-99792914D02*
X112942857Y-99745295D01*
X112942857Y-99745295D02*
X112990476Y-99650057D01*
X112990476Y-99650057D02*
X113038095Y-99602438D01*
X113038095Y-99602438D02*
X113133333Y-99554819D01*
X113133333Y-99554819D02*
X113323809Y-99554819D01*
X113323809Y-99554819D02*
X113419047Y-99602438D01*
X113419047Y-99602438D02*
X113466666Y-99650057D01*
X113466666Y-99650057D02*
X113514285Y-99745295D01*
X113514285Y-99745295D02*
X113514285Y-99792914D01*
X113514285Y-99792914D02*
X113466666Y-99888152D01*
X113466666Y-99888152D02*
X113419047Y-99935771D01*
X113419047Y-99935771D02*
X113323809Y-99983390D01*
X113323809Y-99983390D02*
X113133333Y-99983390D01*
X113133333Y-99983390D02*
X113038095Y-100031009D01*
X113038095Y-100031009D02*
X112990476Y-100078628D01*
X112990476Y-100078628D02*
X112942857Y-100173866D01*
X112942857Y-100173866D02*
X112942857Y-100364342D01*
X112942857Y-100364342D02*
X112990476Y-100459580D01*
X112990476Y-100459580D02*
X113038095Y-100507200D01*
X113038095Y-100507200D02*
X113133333Y-100554819D01*
X113133333Y-100554819D02*
X113323809Y-100554819D01*
X113323809Y-100554819D02*
X113419047Y-100507200D01*
X113419047Y-100507200D02*
X113466666Y-100459580D01*
X113466666Y-100459580D02*
X113514285Y-100364342D01*
X113514285Y-100364342D02*
X113514285Y-100173866D01*
X113514285Y-100173866D02*
X113466666Y-100078628D01*
X113466666Y-100078628D02*
X113419047Y-100031009D01*
X113419047Y-100031009D02*
X113323809Y-99983390D01*
X114133333Y-99554819D02*
X114228571Y-99554819D01*
X114228571Y-99554819D02*
X114323809Y-99602438D01*
X114323809Y-99602438D02*
X114371428Y-99650057D01*
X114371428Y-99650057D02*
X114419047Y-99745295D01*
X114419047Y-99745295D02*
X114466666Y-99935771D01*
X114466666Y-99935771D02*
X114466666Y-100173866D01*
X114466666Y-100173866D02*
X114419047Y-100364342D01*
X114419047Y-100364342D02*
X114371428Y-100459580D01*
X114371428Y-100459580D02*
X114323809Y-100507200D01*
X114323809Y-100507200D02*
X114228571Y-100554819D01*
X114228571Y-100554819D02*
X114133333Y-100554819D01*
X114133333Y-100554819D02*
X114038095Y-100507200D01*
X114038095Y-100507200D02*
X113990476Y-100459580D01*
X113990476Y-100459580D02*
X113942857Y-100364342D01*
X113942857Y-100364342D02*
X113895238Y-100173866D01*
X113895238Y-100173866D02*
X113895238Y-99935771D01*
X113895238Y-99935771D02*
X113942857Y-99745295D01*
X113942857Y-99745295D02*
X113990476Y-99650057D01*
X113990476Y-99650057D02*
X114038095Y-99602438D01*
X114038095Y-99602438D02*
X114133333Y-99554819D01*
X115371428Y-99554819D02*
X114895238Y-99554819D01*
X114895238Y-99554819D02*
X114847619Y-100031009D01*
X114847619Y-100031009D02*
X114895238Y-99983390D01*
X114895238Y-99983390D02*
X114990476Y-99935771D01*
X114990476Y-99935771D02*
X115228571Y-99935771D01*
X115228571Y-99935771D02*
X115323809Y-99983390D01*
X115323809Y-99983390D02*
X115371428Y-100031009D01*
X115371428Y-100031009D02*
X115419047Y-100126247D01*
X115419047Y-100126247D02*
X115419047Y-100364342D01*
X115419047Y-100364342D02*
X115371428Y-100459580D01*
X115371428Y-100459580D02*
X115323809Y-100507200D01*
X115323809Y-100507200D02*
X115228571Y-100554819D01*
X115228571Y-100554819D02*
X114990476Y-100554819D01*
X114990476Y-100554819D02*
X114895238Y-100507200D01*
X114895238Y-100507200D02*
X114847619Y-100459580D01*
D15*
X113238095Y-94057419D02*
X113238095Y-94866942D01*
X113238095Y-94866942D02*
X113285714Y-94962180D01*
X113285714Y-94962180D02*
X113333333Y-95009800D01*
X113333333Y-95009800D02*
X113428571Y-95057419D01*
X113428571Y-95057419D02*
X113619047Y-95057419D01*
X113619047Y-95057419D02*
X113714285Y-95009800D01*
X113714285Y-95009800D02*
X113761904Y-94962180D01*
X113761904Y-94962180D02*
X113809523Y-94866942D01*
X113809523Y-94866942D02*
X113809523Y-94057419D01*
X114714285Y-94057419D02*
X114523809Y-94057419D01*
X114523809Y-94057419D02*
X114428571Y-94105038D01*
X114428571Y-94105038D02*
X114380952Y-94152657D01*
X114380952Y-94152657D02*
X114285714Y-94295514D01*
X114285714Y-94295514D02*
X114238095Y-94485990D01*
X114238095Y-94485990D02*
X114238095Y-94866942D01*
X114238095Y-94866942D02*
X114285714Y-94962180D01*
X114285714Y-94962180D02*
X114333333Y-95009800D01*
X114333333Y-95009800D02*
X114428571Y-95057419D01*
X114428571Y-95057419D02*
X114619047Y-95057419D01*
X114619047Y-95057419D02*
X114714285Y-95009800D01*
X114714285Y-95009800D02*
X114761904Y-94962180D01*
X114761904Y-94962180D02*
X114809523Y-94866942D01*
X114809523Y-94866942D02*
X114809523Y-94628847D01*
X114809523Y-94628847D02*
X114761904Y-94533609D01*
X114761904Y-94533609D02*
X114714285Y-94485990D01*
X114714285Y-94485990D02*
X114619047Y-94438371D01*
X114619047Y-94438371D02*
X114428571Y-94438371D01*
X114428571Y-94438371D02*
X114333333Y-94485990D01*
X114333333Y-94485990D02*
X114285714Y-94533609D01*
X114285714Y-94533609D02*
X114238095Y-94628847D01*
D13*
X91171428Y-104806900D02*
X92314286Y-104806900D01*
X91742857Y-105378328D02*
X91742857Y-104235471D01*
X93742857Y-103878328D02*
X93028571Y-103878328D01*
X93028571Y-103878328D02*
X92957143Y-104592614D01*
X92957143Y-104592614D02*
X93028571Y-104521185D01*
X93028571Y-104521185D02*
X93171429Y-104449757D01*
X93171429Y-104449757D02*
X93528571Y-104449757D01*
X93528571Y-104449757D02*
X93671429Y-104521185D01*
X93671429Y-104521185D02*
X93742857Y-104592614D01*
X93742857Y-104592614D02*
X93814286Y-104735471D01*
X93814286Y-104735471D02*
X93814286Y-105092614D01*
X93814286Y-105092614D02*
X93742857Y-105235471D01*
X93742857Y-105235471D02*
X93671429Y-105306900D01*
X93671429Y-105306900D02*
X93528571Y-105378328D01*
X93528571Y-105378328D02*
X93171429Y-105378328D01*
X93171429Y-105378328D02*
X93028571Y-105306900D01*
X93028571Y-105306900D02*
X92957143Y-105235471D01*
X94242857Y-103878328D02*
X94742857Y-105378328D01*
X94742857Y-105378328D02*
X95242857Y-103878328D01*
X95654510Y-97629400D02*
X96797368Y-97629400D01*
X97797368Y-96700828D02*
X98083082Y-96700828D01*
X98083082Y-96700828D02*
X98225939Y-96772257D01*
X98225939Y-96772257D02*
X98368796Y-96915114D01*
X98368796Y-96915114D02*
X98440225Y-97200828D01*
X98440225Y-97200828D02*
X98440225Y-97700828D01*
X98440225Y-97700828D02*
X98368796Y-97986542D01*
X98368796Y-97986542D02*
X98225939Y-98129400D01*
X98225939Y-98129400D02*
X98083082Y-98200828D01*
X98083082Y-98200828D02*
X97797368Y-98200828D01*
X97797368Y-98200828D02*
X97654511Y-98129400D01*
X97654511Y-98129400D02*
X97511653Y-97986542D01*
X97511653Y-97986542D02*
X97440225Y-97700828D01*
X97440225Y-97700828D02*
X97440225Y-97200828D01*
X97440225Y-97200828D02*
X97511653Y-96915114D01*
X97511653Y-96915114D02*
X97654511Y-96772257D01*
X97654511Y-96772257D02*
X97797368Y-96700828D01*
X99083082Y-96700828D02*
X99083082Y-97915114D01*
X99083082Y-97915114D02*
X99154511Y-98057971D01*
X99154511Y-98057971D02*
X99225940Y-98129400D01*
X99225940Y-98129400D02*
X99368797Y-98200828D01*
X99368797Y-98200828D02*
X99654511Y-98200828D01*
X99654511Y-98200828D02*
X99797368Y-98129400D01*
X99797368Y-98129400D02*
X99868797Y-98057971D01*
X99868797Y-98057971D02*
X99940225Y-97915114D01*
X99940225Y-97915114D02*
X99940225Y-96700828D01*
X100440226Y-96700828D02*
X101297369Y-96700828D01*
X100868797Y-98200828D02*
X100868797Y-96700828D01*
X95954510Y-112229400D02*
X97097368Y-112229400D01*
X96525939Y-112800828D02*
X96525939Y-111657971D01*
X98097368Y-111300828D02*
X98383082Y-111300828D01*
X98383082Y-111300828D02*
X98525939Y-111372257D01*
X98525939Y-111372257D02*
X98668796Y-111515114D01*
X98668796Y-111515114D02*
X98740225Y-111800828D01*
X98740225Y-111800828D02*
X98740225Y-112300828D01*
X98740225Y-112300828D02*
X98668796Y-112586542D01*
X98668796Y-112586542D02*
X98525939Y-112729400D01*
X98525939Y-112729400D02*
X98383082Y-112800828D01*
X98383082Y-112800828D02*
X98097368Y-112800828D01*
X98097368Y-112800828D02*
X97954511Y-112729400D01*
X97954511Y-112729400D02*
X97811653Y-112586542D01*
X97811653Y-112586542D02*
X97740225Y-112300828D01*
X97740225Y-112300828D02*
X97740225Y-111800828D01*
X97740225Y-111800828D02*
X97811653Y-111515114D01*
X97811653Y-111515114D02*
X97954511Y-111372257D01*
X97954511Y-111372257D02*
X98097368Y-111300828D01*
X99383082Y-111300828D02*
X99383082Y-112515114D01*
X99383082Y-112515114D02*
X99454511Y-112657971D01*
X99454511Y-112657971D02*
X99525940Y-112729400D01*
X99525940Y-112729400D02*
X99668797Y-112800828D01*
X99668797Y-112800828D02*
X99954511Y-112800828D01*
X99954511Y-112800828D02*
X100097368Y-112729400D01*
X100097368Y-112729400D02*
X100168797Y-112657971D01*
X100168797Y-112657971D02*
X100240225Y-112515114D01*
X100240225Y-112515114D02*
X100240225Y-111300828D01*
X100740226Y-111300828D02*
X101597369Y-111300828D01*
X101168797Y-112800828D02*
X101168797Y-111300828D01*
X119645489Y-96770600D02*
X118502632Y-96770600D01*
X117788346Y-96199171D02*
X117788346Y-97699171D01*
X117074060Y-96199171D02*
X117074060Y-97699171D01*
X117074060Y-97699171D02*
X116216917Y-96199171D01*
X116216917Y-96199171D02*
X116216917Y-97699171D01*
X119745489Y-111370600D02*
X118602632Y-111370600D01*
X119174060Y-110799171D02*
X119174060Y-111942028D01*
X117888346Y-110799171D02*
X117888346Y-112299171D01*
X117174060Y-110799171D02*
X117174060Y-112299171D01*
X117174060Y-112299171D02*
X116316917Y-110799171D01*
X116316917Y-110799171D02*
X116316917Y-112299171D01*
D14*
X117590476Y-117054819D02*
X117590476Y-117769104D01*
X117590476Y-117769104D02*
X117542857Y-117911961D01*
X117542857Y-117911961D02*
X117447619Y-118007200D01*
X117447619Y-118007200D02*
X117304762Y-118054819D01*
X117304762Y-118054819D02*
X117209524Y-118054819D01*
X118590476Y-118054819D02*
X118019048Y-118054819D01*
X118304762Y-118054819D02*
X118304762Y-117054819D01*
X118304762Y-117054819D02*
X118209524Y-117197676D01*
X118209524Y-117197676D02*
X118114286Y-117292914D01*
X118114286Y-117292914D02*
X118019048Y-117340533D01*
X119542857Y-118054819D02*
X118971429Y-118054819D01*
X119257143Y-118054819D02*
X119257143Y-117054819D01*
X119257143Y-117054819D02*
X119161905Y-117197676D01*
X119161905Y-117197676D02*
X119066667Y-117292914D01*
X119066667Y-117292914D02*
X118971429Y-117340533D01*
D16*
%TO.C,G\u002A\u002A\u002A*%
G36*
X98735587Y-80455810D02*
G01*
X98774688Y-80460607D01*
X98812166Y-80468297D01*
X98849318Y-80479150D01*
X98887442Y-80493438D01*
X98927833Y-80511434D01*
X98932017Y-80513433D01*
X98976942Y-80535022D01*
X98976942Y-80656017D01*
X98976942Y-80777012D01*
X98965087Y-80777012D01*
X98960065Y-80776698D01*
X98955288Y-80775356D01*
X98949829Y-80772387D01*
X98942763Y-80767192D01*
X98933163Y-80759173D01*
X98920918Y-80748452D01*
X98884199Y-80717906D01*
X98849165Y-80692748D01*
X98815510Y-80672821D01*
X98782925Y-80657968D01*
X98751103Y-80648034D01*
X98719735Y-80642862D01*
X98711911Y-80642294D01*
X98674565Y-80642755D01*
X98639892Y-80648414D01*
X98607618Y-80659365D01*
X98577466Y-80675705D01*
X98549162Y-80697530D01*
X98546347Y-80700088D01*
X98521858Y-80726105D01*
X98500958Y-80755831D01*
X98483472Y-80789612D01*
X98469227Y-80827791D01*
X98458049Y-80870715D01*
X98456414Y-80878648D01*
X98454230Y-80893665D01*
X98452571Y-80913282D01*
X98451436Y-80936245D01*
X98450825Y-80961304D01*
X98450737Y-80987205D01*
X98451172Y-81012697D01*
X98452130Y-81036528D01*
X98453610Y-81057445D01*
X98455613Y-81074197D01*
X98456462Y-81078972D01*
X98467461Y-81122305D01*
X98482153Y-81161540D01*
X98500364Y-81196524D01*
X98521925Y-81227101D01*
X98546663Y-81253120D01*
X98574406Y-81274424D01*
X98604983Y-81290861D01*
X98638223Y-81302275D01*
X98673953Y-81308514D01*
X98712002Y-81309422D01*
X98713127Y-81309368D01*
X98738725Y-81307098D01*
X98761854Y-81302679D01*
X98784466Y-81295563D01*
X98808510Y-81285202D01*
X98820631Y-81279173D01*
X98853282Y-81260368D01*
X98885462Y-81237633D01*
X98918156Y-81210250D01*
X98929216Y-81200080D01*
X98940871Y-81189304D01*
X98949293Y-81182057D01*
X98955420Y-81177708D01*
X98960190Y-81175624D01*
X98964541Y-81175174D01*
X98966040Y-81175277D01*
X98975469Y-81176189D01*
X98976239Y-81294873D01*
X98977009Y-81413557D01*
X98929797Y-81436732D01*
X98876948Y-81460261D01*
X98825137Y-81478313D01*
X98773632Y-81491031D01*
X98721698Y-81498555D01*
X98668605Y-81501029D01*
X98613618Y-81498595D01*
X98611810Y-81498437D01*
X98560163Y-81491131D01*
X98511296Y-81478716D01*
X98465401Y-81461338D01*
X98422674Y-81439143D01*
X98383307Y-81412276D01*
X98347495Y-81380886D01*
X98315431Y-81345116D01*
X98287308Y-81305114D01*
X98263320Y-81261027D01*
X98247391Y-81223324D01*
X98233028Y-81179210D01*
X98222090Y-81132641D01*
X98214443Y-81082846D01*
X98209949Y-81029050D01*
X98208976Y-81005324D01*
X98209151Y-80940920D01*
X98213634Y-80880456D01*
X98222465Y-80823812D01*
X98235684Y-80770866D01*
X98253333Y-80721495D01*
X98275451Y-80675579D01*
X98302078Y-80632996D01*
X98333255Y-80593624D01*
X98352229Y-80573422D01*
X98382890Y-80544971D01*
X98413698Y-80521396D01*
X98446039Y-80501813D01*
X98481299Y-80485339D01*
X98503531Y-80476896D01*
X98525325Y-80469708D01*
X98545819Y-80464163D01*
X98566408Y-80460037D01*
X98588486Y-80457106D01*
X98613445Y-80455145D01*
X98642682Y-80453932D01*
X98647329Y-80453806D01*
X98693566Y-80453633D01*
X98735587Y-80455810D01*
G37*
G36*
X101243444Y-80451535D02*
G01*
X101289588Y-80456096D01*
X101334358Y-80464609D01*
X101376923Y-80477084D01*
X101416454Y-80493530D01*
X101430921Y-80501052D01*
X101471352Y-80526737D01*
X101508271Y-80557055D01*
X101541532Y-80591803D01*
X101570993Y-80630783D01*
X101596510Y-80673792D01*
X101617940Y-80720629D01*
X101635138Y-80771094D01*
X101641730Y-80796055D01*
X101646948Y-80818999D01*
X101651052Y-80840340D01*
X101654189Y-80861409D01*
X101656511Y-80883534D01*
X101658167Y-80908043D01*
X101659307Y-80936265D01*
X101659830Y-80956715D01*
X101660008Y-81005212D01*
X101658258Y-81049181D01*
X101654439Y-81089708D01*
X101648413Y-81127880D01*
X101640041Y-81164781D01*
X101629184Y-81201498D01*
X101628026Y-81204993D01*
X101609264Y-81253009D01*
X101586344Y-81297523D01*
X101559506Y-81338246D01*
X101528988Y-81374888D01*
X101495028Y-81407162D01*
X101457866Y-81434778D01*
X101420610Y-81456044D01*
X101389440Y-81470262D01*
X101359209Y-81481354D01*
X101328583Y-81489621D01*
X101296229Y-81495362D01*
X101260813Y-81498877D01*
X101223231Y-81500425D01*
X101190204Y-81500590D01*
X101162949Y-81499703D01*
X101141443Y-81497763D01*
X101139271Y-81497462D01*
X101089396Y-81487696D01*
X101043058Y-81473266D01*
X101000084Y-81454085D01*
X100960305Y-81430068D01*
X100923546Y-81401128D01*
X100898363Y-81376676D01*
X100866966Y-81339249D01*
X100839569Y-81297584D01*
X100816232Y-81251822D01*
X100797014Y-81202106D01*
X100781975Y-81148578D01*
X100771175Y-81091380D01*
X100767851Y-81065716D01*
X100766369Y-81047935D01*
X100765321Y-81025767D01*
X100764796Y-81004359D01*
X101004459Y-81004359D01*
X101007930Y-81055796D01*
X101015255Y-81103466D01*
X101026393Y-81147172D01*
X101041300Y-81186718D01*
X101059935Y-81221908D01*
X101065698Y-81230781D01*
X101076361Y-81244507D01*
X101089778Y-81258855D01*
X101104437Y-81272419D01*
X101118824Y-81283796D01*
X101130883Y-81291309D01*
X101156322Y-81301358D01*
X101184577Y-81307640D01*
X101213753Y-81309931D01*
X101241959Y-81308006D01*
X101253411Y-81305805D01*
X101283015Y-81295892D01*
X101309978Y-81280728D01*
X101334313Y-81260306D01*
X101356030Y-81234614D01*
X101375140Y-81203643D01*
X101378652Y-81196811D01*
X101391063Y-81169328D01*
X101400924Y-81141344D01*
X101408519Y-81111667D01*
X101414131Y-81079106D01*
X101418042Y-81042472D01*
X101419207Y-81026213D01*
X101420849Y-80974518D01*
X101419173Y-80925287D01*
X101414276Y-80878903D01*
X101406252Y-80835747D01*
X101395196Y-80796200D01*
X101381202Y-80760643D01*
X101364366Y-80729459D01*
X101344782Y-80703029D01*
X101336726Y-80694398D01*
X101316023Y-80675948D01*
X101294928Y-80662208D01*
X101271679Y-80652158D01*
X101255354Y-80647318D01*
X101224225Y-80642322D01*
X101192601Y-80642871D01*
X101161572Y-80648855D01*
X101133379Y-80659601D01*
X101119883Y-80667840D01*
X101104713Y-80679823D01*
X101089222Y-80694238D01*
X101074765Y-80709772D01*
X101062694Y-80725116D01*
X101057471Y-80733154D01*
X101040304Y-80767311D01*
X101026490Y-80805908D01*
X101016000Y-80849067D01*
X101008806Y-80896908D01*
X101004885Y-80949351D01*
X101004459Y-81004359D01*
X100764796Y-81004359D01*
X100764706Y-81000699D01*
X100764525Y-80974220D01*
X100764776Y-80947818D01*
X100765460Y-80922982D01*
X100766576Y-80901200D01*
X100767885Y-80886013D01*
X100776749Y-80827633D01*
X100789888Y-80772824D01*
X100807226Y-80721716D01*
X100828687Y-80674442D01*
X100854197Y-80631134D01*
X100883680Y-80591924D01*
X100917061Y-80556945D01*
X100954265Y-80526328D01*
X100984178Y-80506577D01*
X101021144Y-80487644D01*
X101061715Y-80472601D01*
X101105060Y-80461459D01*
X101150350Y-80454227D01*
X101196754Y-80450916D01*
X101243444Y-80451535D01*
G37*
G36*
X103850400Y-80454318D02*
G01*
X103878308Y-80456443D01*
X103904951Y-80460026D01*
X103931842Y-80465214D01*
X103952994Y-80470224D01*
X103971615Y-80475180D01*
X103988503Y-80480322D01*
X104004994Y-80486163D01*
X104022423Y-80493217D01*
X104042124Y-80501995D01*
X104065432Y-80513012D01*
X104069757Y-80515100D01*
X104111737Y-80535412D01*
X104111737Y-80656212D01*
X104111737Y-80777012D01*
X104099678Y-80777012D01*
X104094479Y-80776701D01*
X104089609Y-80775358D01*
X104084097Y-80772369D01*
X104076974Y-80767119D01*
X104067271Y-80758994D01*
X104056832Y-80749865D01*
X104027933Y-80725278D01*
X104001527Y-80704848D01*
X103976647Y-80687965D01*
X103952323Y-80674020D01*
X103927584Y-80662404D01*
X103902575Y-80652887D01*
X103890894Y-80649002D01*
X103881355Y-80646329D01*
X103872330Y-80644638D01*
X103862191Y-80643702D01*
X103849311Y-80643292D01*
X103833345Y-80643184D01*
X103806216Y-80643935D01*
X103783056Y-80646575D01*
X103762138Y-80651488D01*
X103741736Y-80659056D01*
X103724477Y-80667359D01*
X103710473Y-80676194D01*
X103694565Y-80688703D01*
X103678061Y-80703618D01*
X103662268Y-80719673D01*
X103648493Y-80735599D01*
X103638042Y-80750131D01*
X103636549Y-80752613D01*
X103620015Y-80784359D01*
X103606897Y-80816899D01*
X103596987Y-80851131D01*
X103590080Y-80887952D01*
X103585969Y-80928261D01*
X103584447Y-80972954D01*
X103584429Y-80979188D01*
X103585121Y-81016839D01*
X103587314Y-81049861D01*
X103591225Y-81079372D01*
X103597068Y-81106495D01*
X103605061Y-81132348D01*
X103615419Y-81158052D01*
X103621320Y-81170721D01*
X103640874Y-81205538D01*
X103663410Y-81235296D01*
X103689032Y-81260076D01*
X103717845Y-81279961D01*
X103749955Y-81295033D01*
X103785466Y-81305374D01*
X103795542Y-81307347D01*
X103812787Y-81309229D01*
X103833532Y-81309710D01*
X103855579Y-81308887D01*
X103876729Y-81306855D01*
X103894784Y-81303709D01*
X103898156Y-81302868D01*
X103923919Y-81293978D01*
X103951966Y-81280708D01*
X103981383Y-81263627D01*
X104011259Y-81243307D01*
X104040681Y-81220316D01*
X104065260Y-81198527D01*
X104076485Y-81188132D01*
X104084543Y-81181253D01*
X104090427Y-81177238D01*
X104095131Y-81175432D01*
X104099648Y-81175182D01*
X104100612Y-81175260D01*
X104110264Y-81176189D01*
X104111034Y-81294873D01*
X104111804Y-81413557D01*
X104065357Y-81436356D01*
X104012160Y-81460028D01*
X103959963Y-81478192D01*
X103908068Y-81490986D01*
X103855780Y-81498543D01*
X103802402Y-81501000D01*
X103747238Y-81498493D01*
X103746605Y-81498437D01*
X103694585Y-81491182D01*
X103645643Y-81478941D01*
X103599832Y-81461745D01*
X103557208Y-81439624D01*
X103517826Y-81412609D01*
X103481741Y-81380730D01*
X103449008Y-81344017D01*
X103436065Y-81326875D01*
X103416015Y-81295405D01*
X103397600Y-81259471D01*
X103381351Y-81220399D01*
X103367798Y-81179514D01*
X103357471Y-81138140D01*
X103354698Y-81123680D01*
X103348348Y-81078872D01*
X103344287Y-81030808D01*
X103342602Y-80981692D01*
X103343376Y-80933733D01*
X103345975Y-80896099D01*
X103353904Y-80839353D01*
X103366280Y-80785542D01*
X103382960Y-80734897D01*
X103403802Y-80687650D01*
X103428663Y-80644034D01*
X103457400Y-80604280D01*
X103489870Y-80568620D01*
X103525930Y-80537287D01*
X103565437Y-80510511D01*
X103592581Y-80495817D01*
X103620661Y-80483040D01*
X103647944Y-80472958D01*
X103675672Y-80465300D01*
X103705090Y-80459794D01*
X103737440Y-80456170D01*
X103773965Y-80454155D01*
X103784736Y-80453851D01*
X103819714Y-80453503D01*
X103850400Y-80454318D01*
G37*
G36*
X96279187Y-80471356D02*
G01*
X96592194Y-80472106D01*
X96592194Y-80567850D01*
X96592194Y-80663593D01*
X96394035Y-80664350D01*
X96195876Y-80665108D01*
X96196656Y-80752729D01*
X96197437Y-80840350D01*
X96379349Y-80841109D01*
X96561262Y-80841868D01*
X96561262Y-80937589D01*
X96561262Y-81033310D01*
X96378613Y-81033310D01*
X96195964Y-81033310D01*
X96195964Y-81159965D01*
X96195964Y-81286621D01*
X96394079Y-81287378D01*
X96592194Y-81288135D01*
X96592194Y-81383879D01*
X96592194Y-81479622D01*
X96279187Y-81480372D01*
X95966179Y-81481122D01*
X95966179Y-80975864D01*
X95966179Y-80470607D01*
X96279187Y-80471356D01*
G37*
G36*
X96982533Y-80878626D02*
G01*
X96982533Y-81286619D01*
X97174756Y-81287377D01*
X97366980Y-81288135D01*
X97367756Y-81384615D01*
X97368533Y-81481095D01*
X97059168Y-81481095D01*
X96749803Y-81481095D01*
X96749803Y-80975864D01*
X96749803Y-80470633D01*
X96866168Y-80470633D01*
X96982533Y-80470633D01*
X96982533Y-80878626D01*
G37*
G36*
X98104941Y-80567850D02*
G01*
X98104941Y-80665066D01*
X97907562Y-80665066D01*
X97710183Y-80665066D01*
X97710183Y-80753445D01*
X97710183Y-80841823D01*
X97892832Y-80841823D01*
X98075481Y-80841823D01*
X98075481Y-80937567D01*
X98075481Y-81033310D01*
X97892832Y-81033310D01*
X97710183Y-81033310D01*
X97710183Y-81159986D01*
X97710183Y-81286662D01*
X97907562Y-81286662D01*
X98104941Y-81286662D01*
X98104941Y-81383879D01*
X98104941Y-81481095D01*
X97791197Y-81481095D01*
X97477453Y-81481095D01*
X97477453Y-80975864D01*
X97477453Y-80470633D01*
X97791197Y-80470633D01*
X98104941Y-80470633D01*
X98104941Y-80567850D01*
G37*
G36*
X99795917Y-80567839D02*
G01*
X99795917Y-80665066D01*
X99660403Y-80665066D01*
X99524890Y-80665066D01*
X99524890Y-81073081D01*
X99524890Y-81481095D01*
X99407051Y-81481095D01*
X99289213Y-81481095D01*
X99289213Y-81073110D01*
X99289213Y-80665125D01*
X99152963Y-80664359D01*
X99016713Y-80663593D01*
X99016713Y-80567850D01*
X99016713Y-80472106D01*
X99406315Y-80471359D01*
X99795917Y-80470612D01*
X99795917Y-80567839D01*
G37*
G36*
X100116289Y-80471438D02*
G01*
X100161145Y-80471701D01*
X100200564Y-80471981D01*
X100235006Y-80472302D01*
X100264925Y-80472689D01*
X100290779Y-80473168D01*
X100313024Y-80473764D01*
X100332118Y-80474501D01*
X100348516Y-80475404D01*
X100362675Y-80476499D01*
X100375053Y-80477810D01*
X100386105Y-80479362D01*
X100396288Y-80481180D01*
X100406059Y-80483290D01*
X100415875Y-80485715D01*
X100425720Y-80488352D01*
X100460929Y-80500944D01*
X100493971Y-80518559D01*
X100524178Y-80540645D01*
X100550878Y-80566652D01*
X100573402Y-80596025D01*
X100588340Y-80622350D01*
X100596295Y-80640151D01*
X100602284Y-80657213D01*
X100606758Y-80675284D01*
X100610168Y-80696113D01*
X100612405Y-80715644D01*
X100614258Y-80755255D01*
X100612121Y-80794922D01*
X100606206Y-80833622D01*
X100596725Y-80870331D01*
X100583890Y-80904027D01*
X100567913Y-80933686D01*
X100566899Y-80935253D01*
X100550782Y-80958028D01*
X100533375Y-80978619D01*
X100513756Y-80997876D01*
X100491002Y-81016651D01*
X100464191Y-81035797D01*
X100443090Y-81049513D01*
X100442715Y-81050647D01*
X100443466Y-81053129D01*
X100445532Y-81057232D01*
X100449105Y-81063229D01*
X100454374Y-81071394D01*
X100461529Y-81081999D01*
X100470760Y-81095318D01*
X100482258Y-81111623D01*
X100496213Y-81131188D01*
X100512814Y-81154287D01*
X100532253Y-81181191D01*
X100554719Y-81212174D01*
X100580402Y-81247510D01*
X100592815Y-81264567D01*
X100615642Y-81295949D01*
X100637453Y-81325978D01*
X100658002Y-81354312D01*
X100677042Y-81380608D01*
X100694325Y-81404525D01*
X100709606Y-81425721D01*
X100722638Y-81443852D01*
X100733173Y-81458578D01*
X100740966Y-81469555D01*
X100745768Y-81476442D01*
X100747337Y-81478885D01*
X100744511Y-81479327D01*
X100736363Y-81479740D01*
X100723463Y-81480114D01*
X100706379Y-81480441D01*
X100685682Y-81480711D01*
X100661942Y-81480916D01*
X100635727Y-81481047D01*
X100607608Y-81481095D01*
X100606565Y-81481095D01*
X100465670Y-81481095D01*
X100336274Y-81295544D01*
X100206878Y-81109993D01*
X100166371Y-81109949D01*
X100125864Y-81109905D01*
X100125864Y-81295500D01*
X100125864Y-81481095D01*
X100009499Y-81481095D01*
X99893134Y-81481095D01*
X99893134Y-80975652D01*
X99893134Y-80927256D01*
X100125864Y-80927256D01*
X100185519Y-80927153D01*
X100210142Y-80926871D01*
X100232166Y-80926145D01*
X100250593Y-80925025D01*
X100264423Y-80923561D01*
X100267418Y-80923082D01*
X100294384Y-80915551D01*
X100318080Y-80903372D01*
X100338103Y-80886930D01*
X100354050Y-80866607D01*
X100365517Y-80842788D01*
X100370528Y-80824897D01*
X100372019Y-80813671D01*
X100372857Y-80798496D01*
X100372959Y-80781288D01*
X100372771Y-80774169D01*
X100372016Y-80758316D01*
X100370891Y-80746659D01*
X100369089Y-80737503D01*
X100366305Y-80729153D01*
X100363439Y-80722512D01*
X100350898Y-80701528D01*
X100334597Y-80684833D01*
X100319210Y-80674895D01*
X100309112Y-80670248D01*
X100298489Y-80666582D01*
X100286505Y-80663791D01*
X100272328Y-80661770D01*
X100255121Y-80660412D01*
X100234050Y-80659612D01*
X100208281Y-80659263D01*
X100195830Y-80659225D01*
X100125864Y-80659174D01*
X100125864Y-80793215D01*
X100125864Y-80927256D01*
X99893134Y-80927256D01*
X99893134Y-80793215D01*
X99893134Y-80470209D01*
X100116289Y-80471438D01*
G37*
G36*
X102486323Y-80471333D02*
G01*
X102593099Y-80472106D01*
X102593099Y-80975864D01*
X102593099Y-81479622D01*
X102480846Y-81480393D01*
X102368593Y-81481164D01*
X102190669Y-81130628D01*
X102012746Y-80780093D01*
X102011998Y-81130594D01*
X102011249Y-81481095D01*
X101905207Y-81481095D01*
X101799165Y-81481095D01*
X101799165Y-80975836D01*
X101799165Y-80470577D01*
X101942140Y-80471342D01*
X102085114Y-80472106D01*
X102231579Y-80758566D01*
X102378044Y-81045025D01*
X102378795Y-80757792D01*
X102379546Y-80470560D01*
X102486323Y-80471333D01*
G37*
G36*
X103242681Y-80558995D02*
G01*
X103242681Y-80647390D01*
X103176397Y-80647390D01*
X103110113Y-80647390D01*
X103110113Y-80975864D01*
X103110113Y-81304338D01*
X103176397Y-81304338D01*
X103242681Y-81304338D01*
X103242681Y-81392716D01*
X103242681Y-81481095D01*
X102992275Y-81481095D01*
X102741869Y-81481095D01*
X102741869Y-81392716D01*
X102741869Y-81304338D01*
X102809639Y-81304338D01*
X102877409Y-81304338D01*
X102876660Y-80976601D01*
X102875910Y-80648863D01*
X102808846Y-80648072D01*
X102741782Y-80647280D01*
X102742562Y-80559693D01*
X102743342Y-80472106D01*
X102993012Y-80471353D01*
X103242681Y-80470600D01*
X103242681Y-80558995D01*
G37*
G36*
X104870707Y-80975128D02*
G01*
X105027135Y-81479622D01*
X104907763Y-81480392D01*
X104881855Y-81480541D01*
X104857845Y-81480643D01*
X104836359Y-81480698D01*
X104818021Y-81480707D01*
X104803457Y-81480670D01*
X104793289Y-81480586D01*
X104788145Y-81480456D01*
X104787634Y-81480392D01*
X104786692Y-81477479D01*
X104784346Y-81469531D01*
X104780779Y-81457186D01*
X104776172Y-81441082D01*
X104770710Y-81421859D01*
X104764575Y-81400156D01*
X104758128Y-81377250D01*
X104729379Y-81274878D01*
X104584280Y-81274878D01*
X104439181Y-81274878D01*
X104434750Y-81289994D01*
X104432848Y-81296623D01*
X104429605Y-81308080D01*
X104425261Y-81323518D01*
X104420052Y-81342088D01*
X104414217Y-81362944D01*
X104407993Y-81385237D01*
X104405805Y-81393086D01*
X104381292Y-81481061D01*
X104263875Y-81481078D01*
X104233399Y-81481047D01*
X104208372Y-81480934D01*
X104188351Y-81480725D01*
X104172894Y-81480407D01*
X104161558Y-81479965D01*
X104153900Y-81479386D01*
X104149479Y-81478655D01*
X104147850Y-81477759D01*
X104147854Y-81477413D01*
X104148856Y-81474269D01*
X104151494Y-81465845D01*
X104155661Y-81452485D01*
X104161251Y-81434538D01*
X104168154Y-81412350D01*
X104176265Y-81386267D01*
X104185475Y-81356636D01*
X104195676Y-81323804D01*
X104206762Y-81288116D01*
X104218624Y-81249921D01*
X104231155Y-81209563D01*
X104244248Y-81167391D01*
X104257795Y-81123750D01*
X104268655Y-81088759D01*
X104491765Y-81088759D01*
X104493351Y-81089788D01*
X104498389Y-81090614D01*
X104507296Y-81091251D01*
X104520490Y-81091715D01*
X104538390Y-81092023D01*
X104561412Y-81092188D01*
X104584906Y-81092229D01*
X104678047Y-81092229D01*
X104676337Y-81085601D01*
X104675232Y-81081592D01*
X104672669Y-81072451D01*
X104668800Y-81058714D01*
X104663777Y-81040916D01*
X104657751Y-81019594D01*
X104650873Y-80995284D01*
X104643295Y-80968521D01*
X104635168Y-80939841D01*
X104629659Y-80920414D01*
X104618608Y-80881675D01*
X104609018Y-80848539D01*
X104600892Y-80821021D01*
X104594236Y-80799135D01*
X104589053Y-80782897D01*
X104585349Y-80772322D01*
X104583128Y-80767422D01*
X104582505Y-80767225D01*
X104581172Y-80771347D01*
X104578461Y-80780421D01*
X104574550Y-80793820D01*
X104569614Y-80810920D01*
X104563831Y-80831095D01*
X104557376Y-80853720D01*
X104550426Y-80878171D01*
X104543157Y-80903821D01*
X104535747Y-80930045D01*
X104528370Y-80956219D01*
X104521204Y-80981718D01*
X104514426Y-81005915D01*
X104508211Y-81028186D01*
X104502736Y-81047906D01*
X104498178Y-81064450D01*
X104494712Y-81077192D01*
X104492516Y-81085507D01*
X104491765Y-81088759D01*
X104268655Y-81088759D01*
X104271688Y-81078988D01*
X104285820Y-81033450D01*
X104300084Y-80987484D01*
X104314371Y-80941435D01*
X104328574Y-80895651D01*
X104342587Y-80850479D01*
X104356300Y-80806264D01*
X104369607Y-80763354D01*
X104382400Y-80722094D01*
X104394572Y-80682833D01*
X104406014Y-80645915D01*
X104416620Y-80611689D01*
X104426282Y-80580499D01*
X104434893Y-80552694D01*
X104442344Y-80528620D01*
X104448528Y-80508623D01*
X104453338Y-80493050D01*
X104456667Y-80482247D01*
X104458405Y-80476561D01*
X104458634Y-80475789D01*
X104459291Y-80474541D01*
X104460861Y-80473512D01*
X104463863Y-80472681D01*
X104468817Y-80472026D01*
X104476244Y-80471526D01*
X104486662Y-80471162D01*
X104500592Y-80470912D01*
X104518554Y-80470755D01*
X104541066Y-80470670D01*
X104568650Y-80470637D01*
X104587163Y-80470633D01*
X104714279Y-80470633D01*
X104870707Y-80975128D01*
G37*
G36*
X101367816Y-80091162D02*
G01*
X101381122Y-80091405D01*
X101390579Y-80091820D01*
X101396700Y-80092422D01*
X101399994Y-80093227D01*
X101400972Y-80094251D01*
X101400948Y-80094434D01*
X101399120Y-80097525D01*
X101394215Y-80104978D01*
X101386549Y-80116338D01*
X101376434Y-80131146D01*
X101364185Y-80148948D01*
X101350115Y-80169285D01*
X101334537Y-80191702D01*
X101317767Y-80215742D01*
X101308831Y-80228514D01*
X101217674Y-80358687D01*
X101143334Y-80358687D01*
X101068995Y-80358687D01*
X101087688Y-80319653D01*
X101093566Y-80307407D01*
X101101539Y-80290829D01*
X101111141Y-80270894D01*
X101121900Y-80248575D01*
X101133349Y-80224845D01*
X101145018Y-80200678D01*
X101151941Y-80186349D01*
X101197500Y-80092078D01*
X101299704Y-80091304D01*
X101327618Y-80091127D01*
X101350152Y-80091075D01*
X101367816Y-80091162D01*
G37*
G36*
X96587775Y-78580805D02*
G01*
X96587775Y-78682440D01*
X96369775Y-78682440D01*
X96151774Y-78682440D01*
X96151774Y-78781130D01*
X96151774Y-78879819D01*
X96353572Y-78879819D01*
X96555370Y-78879819D01*
X96555370Y-78979982D01*
X96555370Y-79080144D01*
X96353572Y-79080144D01*
X96151774Y-79080144D01*
X96151774Y-79306982D01*
X96151774Y-79533821D01*
X96022152Y-79533821D01*
X95892531Y-79533821D01*
X95892531Y-79006495D01*
X95892531Y-78479170D01*
X96240153Y-78479170D01*
X96587775Y-78479170D01*
X96587775Y-78580805D01*
G37*
G36*
X97105660Y-78479878D02*
G01*
X97248649Y-78480643D01*
X97423443Y-79005016D01*
X97441350Y-79058747D01*
X97458751Y-79110984D01*
X97475556Y-79161453D01*
X97491672Y-79209877D01*
X97507010Y-79255984D01*
X97521477Y-79299498D01*
X97534983Y-79340144D01*
X97547436Y-79377648D01*
X97558746Y-79411735D01*
X97568820Y-79442131D01*
X97577569Y-79468560D01*
X97584900Y-79490749D01*
X97590723Y-79508422D01*
X97594946Y-79521305D01*
X97597479Y-79529124D01*
X97598237Y-79531605D01*
X97595388Y-79532059D01*
X97587233Y-79532482D01*
X97574357Y-79532864D01*
X97557344Y-79533196D01*
X97536781Y-79533466D01*
X97513251Y-79533667D01*
X97487341Y-79533788D01*
X97464433Y-79533821D01*
X97330629Y-79533821D01*
X97326129Y-79519827D01*
X97323967Y-79512928D01*
X97320427Y-79501418D01*
X97315821Y-79486328D01*
X97310465Y-79468689D01*
X97304673Y-79449535D01*
X97302106Y-79441023D01*
X97295869Y-79420329D01*
X97289607Y-79399581D01*
X97283722Y-79380108D01*
X97278617Y-79363236D01*
X97274692Y-79350297D01*
X97273838Y-79347489D01*
X97265091Y-79318766D01*
X97101844Y-79318766D01*
X96938597Y-79318766D01*
X96929855Y-79347489D01*
X96925935Y-79360381D01*
X96920832Y-79377184D01*
X96915072Y-79396167D01*
X96909179Y-79415601D01*
X96905938Y-79426293D01*
X96900205Y-79445206D01*
X96894304Y-79464659D01*
X96888760Y-79482925D01*
X96884097Y-79498274D01*
X96882021Y-79505098D01*
X96873280Y-79533821D01*
X96741996Y-79533821D01*
X96709610Y-79533789D01*
X96682694Y-79533686D01*
X96660829Y-79533500D01*
X96643593Y-79533218D01*
X96630565Y-79532830D01*
X96621326Y-79532322D01*
X96615454Y-79531683D01*
X96612529Y-79530902D01*
X96612037Y-79530138D01*
X96613091Y-79527007D01*
X96615917Y-79518563D01*
X96620422Y-79505081D01*
X96626516Y-79486837D01*
X96634105Y-79464108D01*
X96643098Y-79437169D01*
X96653402Y-79406296D01*
X96664926Y-79371765D01*
X96677577Y-79333852D01*
X96691263Y-79292832D01*
X96705893Y-79248982D01*
X96721374Y-79202578D01*
X96737613Y-79153895D01*
X96747171Y-79125239D01*
X96997263Y-79125239D01*
X97000098Y-79125710D01*
X97008164Y-79126143D01*
X97020797Y-79126525D01*
X97037337Y-79126842D01*
X97057120Y-79127082D01*
X97079486Y-79127232D01*
X97101844Y-79127279D01*
X97126005Y-79127223D01*
X97148195Y-79127063D01*
X97167752Y-79126813D01*
X97184013Y-79126486D01*
X97196318Y-79126095D01*
X97204003Y-79125652D01*
X97206425Y-79125210D01*
X97205592Y-79122130D01*
X97203213Y-79114026D01*
X97199469Y-79101492D01*
X97194542Y-79085123D01*
X97188614Y-79065511D01*
X97181866Y-79043253D01*
X97174478Y-79018942D01*
X97166634Y-78993171D01*
X97158513Y-78966536D01*
X97150298Y-78939630D01*
X97142170Y-78913048D01*
X97134311Y-78887384D01*
X97126901Y-78863231D01*
X97120122Y-78841186D01*
X97114155Y-78821840D01*
X97109183Y-78805789D01*
X97105386Y-78793627D01*
X97102946Y-78785948D01*
X97102051Y-78783348D01*
X97101107Y-78785942D01*
X97098631Y-78793585D01*
X97094806Y-78805687D01*
X97089810Y-78821660D01*
X97083826Y-78840915D01*
X97077032Y-78862863D01*
X97069611Y-78886915D01*
X97061741Y-78912481D01*
X97053605Y-78938973D01*
X97045382Y-78965802D01*
X97037252Y-78992378D01*
X97029398Y-79018113D01*
X97021998Y-79042418D01*
X97015234Y-79064703D01*
X97009285Y-79084380D01*
X97004334Y-79100859D01*
X97000559Y-79113552D01*
X96998142Y-79121869D01*
X96997263Y-79125222D01*
X96997263Y-79125239D01*
X96747171Y-79125239D01*
X96747177Y-79125222D01*
X96754520Y-79103209D01*
X96772002Y-79050797D01*
X96788016Y-79002785D01*
X96962671Y-78479114D01*
X97105660Y-78479878D01*
G37*
G36*
X97995432Y-78479614D02*
G01*
X98039597Y-78479858D01*
X98079028Y-78480338D01*
X98114110Y-78481071D01*
X98145227Y-78482076D01*
X98172765Y-78483371D01*
X98197108Y-78484972D01*
X98218641Y-78486900D01*
X98237750Y-78489170D01*
X98254820Y-78491801D01*
X98270234Y-78494811D01*
X98283343Y-78497945D01*
X98318224Y-78509446D01*
X98350470Y-78524843D01*
X98379471Y-78543682D01*
X98404617Y-78565507D01*
X98425300Y-78589864D01*
X98440416Y-78615257D01*
X98449004Y-78634508D01*
X98455162Y-78652060D01*
X98459330Y-78669797D01*
X98461950Y-78689602D01*
X98463464Y-78713361D01*
X98463474Y-78713613D01*
X98464010Y-78733555D01*
X98463667Y-78749584D01*
X98462343Y-78763624D01*
X98460065Y-78776951D01*
X98449952Y-78812952D01*
X98434866Y-78846507D01*
X98415201Y-78877086D01*
X98391352Y-78904159D01*
X98363714Y-78927195D01*
X98335461Y-78944275D01*
X98328120Y-78948455D01*
X98323615Y-78951881D01*
X98322941Y-78952978D01*
X98325568Y-78954797D01*
X98332576Y-78957631D01*
X98342653Y-78960973D01*
X98346960Y-78962255D01*
X98381878Y-78974817D01*
X98414644Y-78991475D01*
X98444469Y-79011658D01*
X98470561Y-79034796D01*
X98492129Y-79060318D01*
X98500456Y-79072939D01*
X98514098Y-79100631D01*
X98524271Y-79132102D01*
X98530878Y-79166297D01*
X98533820Y-79202161D01*
X98533000Y-79238640D01*
X98528320Y-79274681D01*
X98521742Y-79302454D01*
X98507748Y-79340434D01*
X98488731Y-79375617D01*
X98464967Y-79407780D01*
X98436732Y-79436699D01*
X98404302Y-79462153D01*
X98367954Y-79483917D01*
X98327963Y-79501771D01*
X98284606Y-79515491D01*
X98247819Y-79523318D01*
X98235198Y-79525250D01*
X98221261Y-79526947D01*
X98205594Y-79528420D01*
X98187783Y-79529684D01*
X98167415Y-79530751D01*
X98144075Y-79531634D01*
X98117349Y-79532347D01*
X98086824Y-79532903D01*
X98052086Y-79533313D01*
X98012721Y-79533593D01*
X97968315Y-79533754D01*
X97918455Y-79533810D01*
X97915571Y-79533810D01*
X97873504Y-79533792D01*
X97836991Y-79533730D01*
X97805697Y-79533618D01*
X97779284Y-79533450D01*
X97757414Y-79533220D01*
X97739752Y-79532923D01*
X97725959Y-79532553D01*
X97715700Y-79532103D01*
X97708637Y-79531569D01*
X97704433Y-79530944D01*
X97702751Y-79530223D01*
X97702706Y-79530138D01*
X97702563Y-79526849D01*
X97702432Y-79517967D01*
X97702314Y-79503791D01*
X97702209Y-79484619D01*
X97702118Y-79460751D01*
X97702040Y-79432485D01*
X97701977Y-79400120D01*
X97701928Y-79363954D01*
X97701908Y-79340163D01*
X97963535Y-79340163D01*
X98051177Y-79338576D01*
X98078367Y-79338017D01*
X98100390Y-79337399D01*
X98117968Y-79336677D01*
X98131827Y-79335805D01*
X98142691Y-79334739D01*
X98151282Y-79333433D01*
X98157968Y-79331938D01*
X98177246Y-79325847D01*
X98195936Y-79318124D01*
X98212508Y-79309511D01*
X98225435Y-79300752D01*
X98229444Y-79297175D01*
X98245244Y-79277265D01*
X98256274Y-79253952D01*
X98262493Y-79227350D01*
X98263976Y-79203991D01*
X98261931Y-79175625D01*
X98255800Y-79151337D01*
X98245394Y-79130788D01*
X98230528Y-79113642D01*
X98211014Y-79099559D01*
X98204258Y-79095898D01*
X98195616Y-79091635D01*
X98187666Y-79088167D01*
X98179673Y-79085401D01*
X98170906Y-79083245D01*
X98160632Y-79081607D01*
X98148118Y-79080396D01*
X98132632Y-79079519D01*
X98113440Y-79078885D01*
X98089811Y-79078401D01*
X98061488Y-79077983D01*
X97963535Y-79076660D01*
X97963535Y-79208412D01*
X97963535Y-79340163D01*
X97701908Y-79340163D01*
X97701894Y-79324288D01*
X97701876Y-79281419D01*
X97701873Y-79235646D01*
X97701880Y-79208412D01*
X97701886Y-79187269D01*
X97701916Y-79136585D01*
X97701963Y-79083894D01*
X97702026Y-79029495D01*
X97702062Y-79003549D01*
X97702219Y-78894549D01*
X97963535Y-78894549D01*
X98029200Y-78894549D01*
X98053588Y-78894431D01*
X98072911Y-78894048D01*
X98087992Y-78893354D01*
X98099652Y-78892304D01*
X98108713Y-78890854D01*
X98112423Y-78889991D01*
X98137634Y-78881821D01*
X98157720Y-78871443D01*
X98173216Y-78858283D01*
X98184658Y-78841770D01*
X98192580Y-78821333D01*
X98197083Y-78799519D01*
X98198647Y-78776602D01*
X98195979Y-78755351D01*
X98188753Y-78733585D01*
X98186469Y-78728399D01*
X98179356Y-78715238D01*
X98170757Y-78704250D01*
X98160142Y-78695260D01*
X98146978Y-78688099D01*
X98130733Y-78682592D01*
X98110875Y-78678569D01*
X98086870Y-78675856D01*
X98058188Y-78674282D01*
X98024295Y-78673674D01*
X98017299Y-78673654D01*
X97963535Y-78673602D01*
X97963535Y-78784076D01*
X97963535Y-78894549D01*
X97702219Y-78894549D01*
X97702379Y-78784076D01*
X97702818Y-78480643D01*
X97891359Y-78479764D01*
X97946148Y-78479589D01*
X97995432Y-78479614D01*
G37*
G36*
X99362862Y-78904829D02*
G01*
X99362862Y-79330550D01*
X99579390Y-79330550D01*
X99795917Y-79330550D01*
X99795917Y-79432185D01*
X99795917Y-79533821D01*
X99449675Y-79533821D01*
X99395210Y-79533809D01*
X99346371Y-79533772D01*
X99302891Y-79533707D01*
X99264505Y-79533612D01*
X99230946Y-79533483D01*
X99201948Y-79533317D01*
X99177246Y-79533113D01*
X99156572Y-79532866D01*
X99139662Y-79532574D01*
X99126248Y-79532235D01*
X99116065Y-79531845D01*
X99108846Y-79531402D01*
X99104326Y-79530902D01*
X99102237Y-79530344D01*
X99102033Y-79530138D01*
X99101890Y-79526849D01*
X99101759Y-79517967D01*
X99101641Y-79503791D01*
X99101536Y-79484619D01*
X99101445Y-79460751D01*
X99101367Y-79432485D01*
X99101304Y-79400120D01*
X99101255Y-79363954D01*
X99101221Y-79324288D01*
X99101203Y-79281419D01*
X99101200Y-79235646D01*
X99101214Y-79187269D01*
X99101243Y-79136585D01*
X99101290Y-79083894D01*
X99101354Y-79029495D01*
X99101389Y-79003549D01*
X99102145Y-78480643D01*
X99232504Y-78479875D01*
X99362862Y-78479108D01*
X99362862Y-78904829D01*
G37*
G36*
X100619583Y-79002076D02*
G01*
X100637536Y-79055687D01*
X100654982Y-79107833D01*
X100671828Y-79158235D01*
X100687984Y-79206616D01*
X100703356Y-79252701D01*
X100717852Y-79296210D01*
X100731382Y-79336867D01*
X100743852Y-79374394D01*
X100755170Y-79408515D01*
X100765244Y-79438952D01*
X100773983Y-79465428D01*
X100781294Y-79487665D01*
X100787086Y-79505387D01*
X100791265Y-79518316D01*
X100793741Y-79526174D01*
X100794436Y-79528665D01*
X100794182Y-79529883D01*
X100793005Y-79530894D01*
X100790402Y-79531715D01*
X100785874Y-79532368D01*
X100778920Y-79532870D01*
X100769039Y-79533242D01*
X100755730Y-79533503D01*
X100738493Y-79533672D01*
X100716825Y-79533768D01*
X100690228Y-79533811D01*
X100660977Y-79533821D01*
X100527358Y-79533821D01*
X100515084Y-79493314D01*
X100510443Y-79477992D01*
X100504568Y-79458592D01*
X100497932Y-79436675D01*
X100491009Y-79413803D01*
X100484270Y-79391538D01*
X100482753Y-79386523D01*
X100462696Y-79320239D01*
X100299157Y-79319478D01*
X100135619Y-79318717D01*
X100112678Y-79394600D01*
X100105976Y-79416762D01*
X100099278Y-79438893D01*
X100092943Y-79459810D01*
X100087329Y-79478334D01*
X100082793Y-79493282D01*
X100080320Y-79501415D01*
X100070902Y-79532348D01*
X99940774Y-79533115D01*
X99909662Y-79533287D01*
X99883934Y-79533392D01*
X99863082Y-79533413D01*
X99846599Y-79533331D01*
X99833977Y-79533131D01*
X99824708Y-79532794D01*
X99818284Y-79532304D01*
X99814199Y-79531642D01*
X99811943Y-79530793D01*
X99811011Y-79529738D01*
X99810877Y-79528696D01*
X99811821Y-79525409D01*
X99814545Y-79516813D01*
X99818956Y-79503184D01*
X99824963Y-79484801D01*
X99832473Y-79461941D01*
X99841394Y-79434880D01*
X99851636Y-79403897D01*
X99863105Y-79369269D01*
X99875710Y-79331273D01*
X99889359Y-79290186D01*
X99903960Y-79246286D01*
X99919420Y-79199851D01*
X99935649Y-79151157D01*
X99944843Y-79123597D01*
X100194274Y-79123597D01*
X100195082Y-79124604D01*
X100198590Y-79125422D01*
X100205263Y-79126067D01*
X100215565Y-79126555D01*
X100229963Y-79126904D01*
X100248922Y-79127130D01*
X100272906Y-79127249D01*
X100297887Y-79127279D01*
X100328260Y-79127216D01*
X100353025Y-79127020D01*
X100372466Y-79126682D01*
X100386865Y-79126194D01*
X100396507Y-79125548D01*
X100401674Y-79124733D01*
X100402783Y-79124017D01*
X100401947Y-79120718D01*
X100399561Y-79112393D01*
X100395810Y-79099647D01*
X100390877Y-79083084D01*
X100384947Y-79063310D01*
X100378204Y-79040928D01*
X100370832Y-79016544D01*
X100363015Y-78990763D01*
X100354938Y-78964190D01*
X100346785Y-78937428D01*
X100338739Y-78911084D01*
X100330985Y-78885762D01*
X100323707Y-78862066D01*
X100317090Y-78840602D01*
X100311317Y-78821975D01*
X100306572Y-78806788D01*
X100303040Y-78795648D01*
X100300905Y-78789158D01*
X100300425Y-78787859D01*
X100299063Y-78789416D01*
X100296104Y-78796608D01*
X100291557Y-78809401D01*
X100285434Y-78827762D01*
X100277747Y-78851657D01*
X100268505Y-78881053D01*
X100257719Y-78915917D01*
X100246880Y-78951359D01*
X100237628Y-78981735D01*
X100228870Y-79010474D01*
X100220758Y-79037074D01*
X100213448Y-79061032D01*
X100207090Y-79081846D01*
X100201840Y-79099013D01*
X100197851Y-79112033D01*
X100195275Y-79120402D01*
X100194274Y-79123597D01*
X99944843Y-79123597D01*
X99952554Y-79100482D01*
X99970043Y-79048103D01*
X99985425Y-79002076D01*
X100159742Y-78480643D01*
X100302315Y-78480643D01*
X100444888Y-78480643D01*
X100619583Y-79002076D01*
G37*
G36*
X101195534Y-78479676D02*
G01*
X101241391Y-78479999D01*
X101282295Y-78480578D01*
X101318558Y-78481424D01*
X101350492Y-78482546D01*
X101378409Y-78483955D01*
X101402620Y-78485659D01*
X101423437Y-78487668D01*
X101441171Y-78489993D01*
X101447173Y-78490962D01*
X101487074Y-78500111D01*
X101523915Y-78513280D01*
X101557150Y-78530212D01*
X101586233Y-78550645D01*
X101600839Y-78563856D01*
X101611976Y-78575543D01*
X101620587Y-78586347D01*
X101628124Y-78598343D01*
X101636040Y-78613605D01*
X101636918Y-78615411D01*
X101645635Y-78635249D01*
X101652475Y-78654491D01*
X101656227Y-78668823D01*
X101658816Y-78686612D01*
X101660355Y-78707783D01*
X101660812Y-78730183D01*
X101660158Y-78751661D01*
X101658361Y-78770062D01*
X101657722Y-78773967D01*
X101648548Y-78809301D01*
X101634449Y-78842474D01*
X101615864Y-78872868D01*
X101593232Y-78899869D01*
X101566992Y-78922861D01*
X101539257Y-78940356D01*
X101529768Y-78945592D01*
X101522735Y-78949951D01*
X101519435Y-78952629D01*
X101519335Y-78952892D01*
X101521987Y-78954517D01*
X101529197Y-78957465D01*
X101539891Y-78961331D01*
X101552996Y-78965706D01*
X101554178Y-78966085D01*
X101592049Y-78980882D01*
X101625700Y-78999610D01*
X101655002Y-79022145D01*
X101679831Y-79048362D01*
X101700061Y-79078134D01*
X101715567Y-79111335D01*
X101723038Y-79134644D01*
X101725429Y-79144416D01*
X101727147Y-79153985D01*
X101728296Y-79164616D01*
X101728980Y-79177572D01*
X101729304Y-79194117D01*
X101729374Y-79211239D01*
X101729304Y-79231004D01*
X101728998Y-79246229D01*
X101728328Y-79258265D01*
X101727166Y-79268461D01*
X101725383Y-79278169D01*
X101722852Y-79288739D01*
X101721544Y-79293725D01*
X101708292Y-79332336D01*
X101689948Y-79368335D01*
X101666838Y-79401430D01*
X101639286Y-79431329D01*
X101607618Y-79457738D01*
X101572159Y-79480365D01*
X101533234Y-79498917D01*
X101491167Y-79513102D01*
X101472897Y-79517629D01*
X101461992Y-79520014D01*
X101451748Y-79522112D01*
X101441718Y-79523944D01*
X101431455Y-79525531D01*
X101420512Y-79526894D01*
X101408442Y-79528053D01*
X101394797Y-79529029D01*
X101379132Y-79529843D01*
X101360997Y-79530517D01*
X101339948Y-79531070D01*
X101315536Y-79531524D01*
X101287315Y-79531899D01*
X101254837Y-79532216D01*
X101217656Y-79532497D01*
X101175325Y-79532762D01*
X101144425Y-79532937D01*
X101099775Y-79533172D01*
X101060676Y-79533344D01*
X101026784Y-79533451D01*
X100997759Y-79533489D01*
X100973259Y-79533454D01*
X100952942Y-79533343D01*
X100936465Y-79533152D01*
X100923489Y-79532878D01*
X100913670Y-79532517D01*
X100906667Y-79532065D01*
X100902139Y-79531519D01*
X100899743Y-79530876D01*
X100899155Y-79530374D01*
X100899002Y-79527060D01*
X100898862Y-79518153D01*
X100898735Y-79503952D01*
X100898621Y-79484756D01*
X100898522Y-79460864D01*
X100898437Y-79432576D01*
X100898366Y-79400189D01*
X100898311Y-79364004D01*
X100898287Y-79340163D01*
X101159893Y-79340163D01*
X101247535Y-79338614D01*
X101273550Y-79338111D01*
X101294482Y-79337586D01*
X101311142Y-79336981D01*
X101324338Y-79336240D01*
X101334881Y-79335309D01*
X101343580Y-79334129D01*
X101351245Y-79332646D01*
X101358157Y-79330944D01*
X101377417Y-79324694D01*
X101396132Y-79316601D01*
X101412822Y-79307436D01*
X101426010Y-79297971D01*
X101431383Y-79292749D01*
X101437509Y-79284466D01*
X101444315Y-79273308D01*
X101449717Y-79262932D01*
X101453842Y-79253602D01*
X101456583Y-79245366D01*
X101458283Y-79236450D01*
X101459289Y-79225080D01*
X101459909Y-79210595D01*
X101460229Y-79194308D01*
X101459800Y-79181918D01*
X101458430Y-79171456D01*
X101455923Y-79160956D01*
X101454563Y-79156318D01*
X101450642Y-79144789D01*
X101446243Y-79135929D01*
X101440050Y-79127637D01*
X101430747Y-79117811D01*
X101429943Y-79117010D01*
X101419798Y-79107627D01*
X101409459Y-79099805D01*
X101398294Y-79093408D01*
X101385673Y-79088301D01*
X101370965Y-79084349D01*
X101353537Y-79081418D01*
X101332759Y-79079372D01*
X101307999Y-79078076D01*
X101278626Y-79077397D01*
X101244009Y-79077198D01*
X101243640Y-79077198D01*
X101159893Y-79077198D01*
X101159893Y-79208681D01*
X101159893Y-79340163D01*
X100898287Y-79340163D01*
X100898271Y-79324319D01*
X100898248Y-79281433D01*
X100898241Y-79235645D01*
X100898246Y-79208681D01*
X100898250Y-79187254D01*
X100898277Y-79136559D01*
X100898322Y-79083859D01*
X100898385Y-79029454D01*
X100898420Y-79003549D01*
X100898577Y-78895002D01*
X101159893Y-78895002D01*
X101232805Y-78893843D01*
X101257367Y-78893372D01*
X101276806Y-78892793D01*
X101291893Y-78892055D01*
X101303397Y-78891103D01*
X101312086Y-78889886D01*
X101318732Y-78888350D01*
X101320447Y-78887817D01*
X101341084Y-78879107D01*
X101359026Y-78867810D01*
X101372949Y-78854827D01*
X101377117Y-78849332D01*
X101384706Y-78836390D01*
X101389743Y-78823359D01*
X101392656Y-78808538D01*
X101393874Y-78790231D01*
X101393980Y-78782603D01*
X101392228Y-78756352D01*
X101386622Y-78734204D01*
X101376998Y-78715669D01*
X101367425Y-78704222D01*
X101358008Y-78696131D01*
X101347075Y-78689507D01*
X101334009Y-78684226D01*
X101318192Y-78680166D01*
X101299007Y-78677205D01*
X101275838Y-78675219D01*
X101248066Y-78674087D01*
X101215075Y-78673685D01*
X101213657Y-78673682D01*
X101159893Y-78673602D01*
X101159893Y-78784302D01*
X101159893Y-78895002D01*
X100898577Y-78895002D01*
X100898737Y-78784302D01*
X100899176Y-78480643D01*
X101087717Y-78479764D01*
X101144414Y-78479601D01*
X101195534Y-78479676D01*
G37*
G36*
X102508403Y-78479177D02*
G01*
X102555823Y-78479219D01*
X102597805Y-78479350D01*
X102634799Y-78479588D01*
X102667260Y-78479945D01*
X102695640Y-78480438D01*
X102720390Y-78481081D01*
X102741963Y-78481890D01*
X102760812Y-78482879D01*
X102777390Y-78484064D01*
X102792148Y-78485460D01*
X102805539Y-78487081D01*
X102818016Y-78488944D01*
X102822105Y-78489630D01*
X102865690Y-78499427D01*
X102906619Y-78513202D01*
X102944400Y-78530673D01*
X102978544Y-78551559D01*
X103008561Y-78575578D01*
X103033961Y-78602449D01*
X103045679Y-78618184D01*
X103058566Y-78639524D01*
X103070613Y-78663802D01*
X103080630Y-78688441D01*
X103086218Y-78706061D01*
X103091360Y-78727563D01*
X103094940Y-78748632D01*
X103097098Y-78770770D01*
X103097970Y-78795477D01*
X103097694Y-78824251D01*
X103097553Y-78829337D01*
X103096825Y-78849800D01*
X103095900Y-78865922D01*
X103094592Y-78879251D01*
X103092716Y-78891338D01*
X103090084Y-78903733D01*
X103087237Y-78915192D01*
X103075122Y-78955160D01*
X103060474Y-78990462D01*
X103042810Y-79021954D01*
X103021647Y-79050493D01*
X102996504Y-79076936D01*
X102995760Y-79077633D01*
X102960081Y-79107777D01*
X102923072Y-79132519D01*
X102883949Y-79152323D01*
X102844978Y-79166717D01*
X102828462Y-79171733D01*
X102813702Y-79175842D01*
X102799827Y-79179148D01*
X102785967Y-79181753D01*
X102771252Y-79183758D01*
X102754813Y-79185266D01*
X102735778Y-79186378D01*
X102713279Y-79187198D01*
X102686445Y-79187828D01*
X102661616Y-79188257D01*
X102562214Y-79189822D01*
X102561453Y-79361085D01*
X102560693Y-79532348D01*
X102430335Y-79533115D01*
X102299977Y-79533882D01*
X102299977Y-79006526D01*
X102299977Y-78991765D01*
X102562166Y-78991765D01*
X102607945Y-78991765D01*
X102626738Y-78991543D01*
X102646236Y-78990932D01*
X102664412Y-78990021D01*
X102679237Y-78988896D01*
X102682206Y-78988589D01*
X102716425Y-78982769D01*
X102745958Y-78973400D01*
X102770897Y-78960380D01*
X102791336Y-78943607D01*
X102807367Y-78922978D01*
X102819083Y-78898391D01*
X102826577Y-78869743D01*
X102829942Y-78836932D01*
X102830162Y-78825319D01*
X102829217Y-78801618D01*
X102826100Y-78781788D01*
X102820432Y-78764085D01*
X102813897Y-78750447D01*
X102801966Y-78731834D01*
X102788018Y-78716875D01*
X102771026Y-78704796D01*
X102749965Y-78694824D01*
X102731559Y-78688472D01*
X102715661Y-78684734D01*
X102694732Y-78681614D01*
X102669604Y-78679186D01*
X102641113Y-78677525D01*
X102610094Y-78676706D01*
X102599727Y-78676634D01*
X102562166Y-78676548D01*
X102562166Y-78834157D01*
X102562166Y-78991765D01*
X102299977Y-78991765D01*
X102299977Y-78834157D01*
X102299977Y-78479170D01*
X102508403Y-78479177D01*
G37*
G36*
X103448161Y-78479177D02*
G01*
X103495582Y-78479219D01*
X103537563Y-78479350D01*
X103574558Y-78479588D01*
X103607019Y-78479945D01*
X103635398Y-78480438D01*
X103660148Y-78481081D01*
X103681722Y-78481890D01*
X103700571Y-78482879D01*
X103717148Y-78484064D01*
X103731907Y-78485460D01*
X103745298Y-78487081D01*
X103757775Y-78488944D01*
X103761863Y-78489630D01*
X103804815Y-78499272D01*
X103845458Y-78512849D01*
X103883088Y-78530026D01*
X103916998Y-78550467D01*
X103946485Y-78573836D01*
X103954320Y-78581323D01*
X103979880Y-78611011D01*
X104001115Y-78644474D01*
X104017811Y-78681268D01*
X104029758Y-78720951D01*
X104035179Y-78750197D01*
X104036943Y-78768061D01*
X104037934Y-78789710D01*
X104038171Y-78813354D01*
X104037676Y-78837199D01*
X104036467Y-78859454D01*
X104034566Y-78878328D01*
X104033667Y-78884238D01*
X104023282Y-78929746D01*
X104008438Y-78971791D01*
X103989236Y-79010172D01*
X103965779Y-79044686D01*
X103938169Y-79075131D01*
X103935931Y-79077247D01*
X103900533Y-79107234D01*
X103863996Y-79131838D01*
X103825468Y-79151564D01*
X103784736Y-79166717D01*
X103768221Y-79171733D01*
X103753461Y-79175842D01*
X103739586Y-79179148D01*
X103725726Y-79181753D01*
X103711011Y-79183758D01*
X103694572Y-79185266D01*
X103675537Y-79186378D01*
X103653038Y-79187198D01*
X103626204Y-79187828D01*
X103601375Y-79188257D01*
X103501972Y-79189822D01*
X103501212Y-79361085D01*
X103500452Y-79532348D01*
X103370094Y-79533115D01*
X103239735Y-79533882D01*
X103239735Y-79006526D01*
X103239735Y-78991765D01*
X103501925Y-78991765D01*
X103547703Y-78991765D01*
X103566496Y-78991543D01*
X103585995Y-78990932D01*
X103604171Y-78990021D01*
X103618996Y-78988896D01*
X103621964Y-78988589D01*
X103656180Y-78982792D01*
X103685697Y-78973487D01*
X103710611Y-78960565D01*
X103731015Y-78943919D01*
X103747001Y-78923437D01*
X103758662Y-78899012D01*
X103766094Y-78870533D01*
X103769388Y-78837893D01*
X103769411Y-78816080D01*
X103768837Y-78800683D01*
X103768025Y-78789539D01*
X103766637Y-78781013D01*
X103764336Y-78773468D01*
X103760783Y-78765267D01*
X103757556Y-78758634D01*
X103746094Y-78738232D01*
X103733968Y-78722604D01*
X103720197Y-78710641D01*
X103709102Y-78703880D01*
X103691661Y-78695787D01*
X103672613Y-78689292D01*
X103651219Y-78684278D01*
X103626740Y-78680625D01*
X103598436Y-78678215D01*
X103565569Y-78676929D01*
X103539486Y-78676634D01*
X103501925Y-78676548D01*
X103501925Y-78834157D01*
X103501925Y-78991765D01*
X103239735Y-78991765D01*
X103239735Y-78834157D01*
X103239735Y-78479170D01*
X103448161Y-78479177D01*
G37*
G36*
X104387920Y-78480006D02*
G01*
X104432240Y-78480345D01*
X104471205Y-78480712D01*
X104505352Y-78481130D01*
X104535217Y-78481624D01*
X104561337Y-78482216D01*
X104584249Y-78482931D01*
X104604490Y-78483792D01*
X104622597Y-78484823D01*
X104639107Y-78486048D01*
X104654555Y-78487490D01*
X104669480Y-78489173D01*
X104684418Y-78491122D01*
X104699905Y-78493358D01*
X104703874Y-78493957D01*
X104754646Y-78504604D01*
X104803475Y-78520686D01*
X104849974Y-78541959D01*
X104893758Y-78568176D01*
X104934441Y-78599092D01*
X104971640Y-78634459D01*
X105004967Y-78674034D01*
X105020521Y-78696015D01*
X105047576Y-78741733D01*
X105069545Y-78789987D01*
X105086473Y-78840938D01*
X105098404Y-78894745D01*
X105105383Y-78951567D01*
X105107469Y-79006923D01*
X105104795Y-79065611D01*
X105096804Y-79121968D01*
X105083546Y-79175874D01*
X105065068Y-79227211D01*
X105041421Y-79275860D01*
X105012652Y-79321702D01*
X104978810Y-79364617D01*
X104947624Y-79397238D01*
X104909172Y-79430277D01*
X104867419Y-79458728D01*
X104822945Y-79482287D01*
X104776325Y-79500646D01*
X104729544Y-79513206D01*
X104709872Y-79517016D01*
X104689410Y-79520361D01*
X104667687Y-79523266D01*
X104644233Y-79525757D01*
X104618579Y-79527857D01*
X104590253Y-79529594D01*
X104558786Y-79530992D01*
X104523708Y-79532076D01*
X104484549Y-79532871D01*
X104440838Y-79533404D01*
X104392106Y-79533698D01*
X104346677Y-79533781D01*
X104179494Y-79533821D01*
X104179494Y-79334085D01*
X104441684Y-79334085D01*
X104527853Y-79332769D01*
X104553455Y-79332339D01*
X104573986Y-79331878D01*
X104590270Y-79331330D01*
X104603128Y-79330636D01*
X104613381Y-79329740D01*
X104621852Y-79328584D01*
X104629363Y-79327112D01*
X104636735Y-79325266D01*
X104637108Y-79325165D01*
X104673013Y-79312386D01*
X104706408Y-79294453D01*
X104736863Y-79271725D01*
X104763949Y-79244560D01*
X104787236Y-79213318D01*
X104801826Y-79187671D01*
X104815692Y-79154559D01*
X104826333Y-79117550D01*
X104833715Y-79077700D01*
X104837801Y-79036068D01*
X104838556Y-78993710D01*
X104835945Y-78951683D01*
X104829931Y-78911046D01*
X104820478Y-78872856D01*
X104813181Y-78851658D01*
X104796412Y-78815815D01*
X104775306Y-78783380D01*
X104750297Y-78754720D01*
X104721816Y-78730197D01*
X104690293Y-78710178D01*
X104656162Y-78695026D01*
X104619854Y-78685106D01*
X104615003Y-78684221D01*
X104605046Y-78682943D01*
X104590368Y-78681638D01*
X104572139Y-78680382D01*
X104551529Y-78679251D01*
X104529708Y-78678319D01*
X104516069Y-78677873D01*
X104441684Y-78675752D01*
X104441684Y-79004918D01*
X104441684Y-79334085D01*
X104179494Y-79334085D01*
X104179494Y-79006178D01*
X104179494Y-79004918D01*
X104179494Y-78478535D01*
X104387920Y-78480006D01*
G37*
G36*
X96833925Y-70931839D02*
G01*
X96863633Y-70951525D01*
X96892055Y-70970369D01*
X96918785Y-70988104D01*
X96943419Y-71004460D01*
X96965553Y-71019168D01*
X96984782Y-71031960D01*
X97000700Y-71042566D01*
X97012905Y-71050718D01*
X97020992Y-71056147D01*
X97024510Y-71058550D01*
X97032610Y-71064381D01*
X97033348Y-73015188D01*
X97034087Y-74965994D01*
X97573196Y-75275772D01*
X98112305Y-75585551D01*
X98113053Y-75192390D01*
X98113800Y-74799230D01*
X98089897Y-74770730D01*
X98055264Y-74727851D01*
X98019467Y-74680568D01*
X97983288Y-74630036D01*
X97947507Y-74577413D01*
X97912905Y-74523856D01*
X97880262Y-74470521D01*
X97850359Y-74418567D01*
X97842051Y-74403445D01*
X97796492Y-74315054D01*
X97755282Y-74225861D01*
X97718444Y-74136122D01*
X97686003Y-74046090D01*
X97657982Y-73956021D01*
X97634407Y-73866168D01*
X97617876Y-73788835D01*
X98284894Y-73788835D01*
X98288731Y-73844495D01*
X98296944Y-73900373D01*
X98309398Y-73956036D01*
X98325960Y-74011052D01*
X98346495Y-74064988D01*
X98370871Y-74117411D01*
X98398953Y-74167890D01*
X98430609Y-74215991D01*
X98465703Y-74261283D01*
X98504103Y-74303332D01*
X98545674Y-74341707D01*
X98590284Y-74375974D01*
X98599897Y-74382523D01*
X98641912Y-74407723D01*
X98685043Y-74428202D01*
X98728745Y-74443820D01*
X98772472Y-74454440D01*
X98815680Y-74459923D01*
X98857824Y-74460130D01*
X98890387Y-74456406D01*
X98933018Y-74446431D01*
X98972483Y-74431573D01*
X99009170Y-74411630D01*
X99043467Y-74386401D01*
X99067319Y-74364427D01*
X99097032Y-74330464D01*
X99122811Y-74292447D01*
X99144588Y-74250768D01*
X99162299Y-74205817D01*
X99175876Y-74157985D01*
X99185253Y-74107664D01*
X99190365Y-74055244D01*
X99191144Y-74001117D01*
X99187524Y-73945672D01*
X99179440Y-73889302D01*
X99166824Y-73832396D01*
X99161095Y-73811629D01*
X99151915Y-73782179D01*
X99141697Y-73753871D01*
X99129752Y-73724981D01*
X99115390Y-73693779D01*
X99108061Y-73678741D01*
X99078797Y-73624793D01*
X99046265Y-73574538D01*
X99010747Y-73528214D01*
X98972525Y-73486060D01*
X98931881Y-73448316D01*
X98889097Y-73415220D01*
X98844454Y-73387012D01*
X98798235Y-73363931D01*
X98750721Y-73346216D01*
X98702195Y-73334106D01*
X98701630Y-73334000D01*
X98678312Y-73330894D01*
X98651666Y-73329393D01*
X98624018Y-73329497D01*
X98597694Y-73331206D01*
X98577704Y-73333992D01*
X98536615Y-73344636D01*
X98497597Y-73360654D01*
X98460956Y-73381800D01*
X98426999Y-73407826D01*
X98396032Y-73438486D01*
X98368360Y-73473532D01*
X98344291Y-73512718D01*
X98336012Y-73528934D01*
X98315969Y-73577019D01*
X98300969Y-73627484D01*
X98290879Y-73679897D01*
X98285565Y-73733824D01*
X98284894Y-73788835D01*
X97617876Y-73788835D01*
X97615300Y-73776786D01*
X97600685Y-73688130D01*
X97590587Y-73600454D01*
X97585029Y-73514013D01*
X97584036Y-73429061D01*
X97587631Y-73345852D01*
X97595839Y-73264642D01*
X97608682Y-73185685D01*
X97626186Y-73109235D01*
X97648374Y-73035546D01*
X97675271Y-72964874D01*
X97701338Y-72908389D01*
X97734617Y-72848068D01*
X97771917Y-72791691D01*
X97813030Y-72739428D01*
X97857745Y-72691446D01*
X97905854Y-72647914D01*
X97957148Y-72609000D01*
X98011417Y-72574872D01*
X98068452Y-72545700D01*
X98128044Y-72521650D01*
X98189984Y-72502892D01*
X98211724Y-72497709D01*
X98236562Y-72492382D01*
X98258492Y-72488198D01*
X98278828Y-72485028D01*
X98298882Y-72482740D01*
X98319968Y-72481204D01*
X98343399Y-72480291D01*
X98370490Y-72479868D01*
X98392171Y-72479795D01*
X98420365Y-72479894D01*
X98444035Y-72480266D01*
X98464545Y-72481020D01*
X98483261Y-72482265D01*
X98501547Y-72484109D01*
X98520769Y-72486661D01*
X98542292Y-72490031D01*
X98561563Y-72493298D01*
X98632794Y-72508322D01*
X98705143Y-72528853D01*
X98778220Y-72554702D01*
X98851635Y-72585680D01*
X98924998Y-72621598D01*
X98997919Y-72662267D01*
X99070007Y-72707498D01*
X99140873Y-72757102D01*
X99199188Y-72802025D01*
X99234523Y-72831424D01*
X99272084Y-72864474D01*
X99310676Y-72900027D01*
X99349102Y-72936939D01*
X99386168Y-72974062D01*
X99420676Y-73010250D01*
X99448445Y-73040942D01*
X99515329Y-73120786D01*
X99578345Y-73203449D01*
X99637390Y-73288635D01*
X99692362Y-73376044D01*
X99743155Y-73465380D01*
X99789669Y-73556343D01*
X99831798Y-73648636D01*
X99869441Y-73741961D01*
X99902493Y-73836019D01*
X99930852Y-73930513D01*
X99954414Y-74025145D01*
X99973076Y-74119616D01*
X99986734Y-74213629D01*
X99995287Y-74306886D01*
X99998630Y-74399088D01*
X99996660Y-74489938D01*
X99989274Y-74579137D01*
X99987182Y-74596405D01*
X99974846Y-74674012D01*
X99958036Y-74748903D01*
X99936861Y-74820804D01*
X99911431Y-74889439D01*
X99881855Y-74954534D01*
X99848241Y-75015815D01*
X99810700Y-75073006D01*
X99783323Y-75109000D01*
X99766130Y-75129143D01*
X99745832Y-75151023D01*
X99723671Y-75173434D01*
X99700889Y-75195168D01*
X99678728Y-75215018D01*
X99658428Y-75231777D01*
X99652072Y-75236630D01*
X99606332Y-75268154D01*
X99558382Y-75296488D01*
X99509944Y-75320647D01*
X99490275Y-75329145D01*
X99474808Y-75335512D01*
X99474868Y-75865210D01*
X99474927Y-76394908D01*
X99928482Y-76660044D01*
X100382036Y-76925180D01*
X100382099Y-77154228D01*
X100382162Y-77383275D01*
X100357858Y-77382718D01*
X100343476Y-77382326D01*
X100328634Y-77381820D01*
X100316421Y-77381308D01*
X100315878Y-77381281D01*
X100153907Y-77370299D01*
X99993151Y-77353570D01*
X99833714Y-77331132D01*
X99675701Y-77303021D01*
X99519218Y-77269274D01*
X99364369Y-77229929D01*
X99211259Y-77185023D01*
X99059994Y-77134593D01*
X98910678Y-77078676D01*
X98763417Y-77017309D01*
X98618314Y-76950529D01*
X98475477Y-76878373D01*
X98335009Y-76800879D01*
X98197015Y-76718084D01*
X98061601Y-76630024D01*
X97931129Y-76538385D01*
X97850815Y-76478548D01*
X97773873Y-76418517D01*
X97699305Y-76357432D01*
X97626113Y-76294438D01*
X97553301Y-76228676D01*
X97479872Y-76159290D01*
X97408135Y-76088736D01*
X97339989Y-76019319D01*
X97276020Y-75951618D01*
X97215246Y-75884505D01*
X97156683Y-75816853D01*
X97099348Y-75747537D01*
X97042258Y-75675428D01*
X97005541Y-75627488D01*
X96910782Y-75497414D01*
X96821089Y-75364404D01*
X96736504Y-75228599D01*
X96657068Y-75090137D01*
X96582820Y-74949157D01*
X96513803Y-74805800D01*
X96450057Y-74660205D01*
X96391622Y-74512511D01*
X96338540Y-74362858D01*
X96290852Y-74211384D01*
X96248598Y-74058231D01*
X96211819Y-73903536D01*
X96180556Y-73747440D01*
X96154850Y-73590082D01*
X96134742Y-73431601D01*
X96120273Y-73272138D01*
X96111483Y-73111830D01*
X96108413Y-72950818D01*
X96111105Y-72789242D01*
X96119598Y-72627240D01*
X96121001Y-72607887D01*
X96135954Y-72447012D01*
X96156721Y-72286994D01*
X96183266Y-72127974D01*
X96215555Y-71970091D01*
X96253553Y-71813487D01*
X96297225Y-71658301D01*
X96346536Y-71504674D01*
X96401451Y-71352746D01*
X96461935Y-71202657D01*
X96480314Y-71159951D01*
X96504991Y-71104744D01*
X96532104Y-71046458D01*
X96560781Y-70986888D01*
X96590144Y-70927829D01*
X96619320Y-70871075D01*
X96641516Y-70829320D01*
X96651438Y-70810959D01*
X96833925Y-70931839D01*
G37*
G36*
X104424335Y-70834861D02*
G01*
X104424939Y-70835497D01*
X104425409Y-70836334D01*
X104425690Y-70836784D01*
X104427919Y-70840652D01*
X104432441Y-70849034D01*
X104438870Y-70861199D01*
X104446822Y-70876412D01*
X104455911Y-70893940D01*
X104465753Y-70913051D01*
X104466222Y-70913964D01*
X104537515Y-71059308D01*
X104603293Y-71206642D01*
X104663533Y-71355826D01*
X104718214Y-71506721D01*
X104767315Y-71659188D01*
X104810813Y-71813086D01*
X104848686Y-71968278D01*
X104880914Y-72124623D01*
X104907473Y-72281982D01*
X104928343Y-72440215D01*
X104943501Y-72599184D01*
X104952926Y-72758749D01*
X104956596Y-72918771D01*
X104954489Y-73079110D01*
X104946584Y-73239627D01*
X104932859Y-73400182D01*
X104913292Y-73560636D01*
X104896590Y-73669903D01*
X104867364Y-73828769D01*
X104832570Y-73985946D01*
X104792285Y-74141302D01*
X104746588Y-74294702D01*
X104695555Y-74446014D01*
X104639265Y-74595105D01*
X104577794Y-74741842D01*
X104511221Y-74886091D01*
X104439623Y-75027720D01*
X104363077Y-75166597D01*
X104281661Y-75302587D01*
X104195452Y-75435557D01*
X104104529Y-75565376D01*
X104008967Y-75691909D01*
X103908846Y-75815024D01*
X103804242Y-75934587D01*
X103695234Y-76050467D01*
X103581898Y-76162529D01*
X103464311Y-76270640D01*
X103342553Y-76374669D01*
X103300127Y-76409157D01*
X103172307Y-76508019D01*
X103041345Y-76601973D01*
X102907385Y-76690955D01*
X102770571Y-76774901D01*
X102631050Y-76853746D01*
X102488964Y-76927424D01*
X102344460Y-76995872D01*
X102197681Y-77059024D01*
X102048772Y-77116816D01*
X101897878Y-77169183D01*
X101745143Y-77216061D01*
X101590712Y-77257385D01*
X101434730Y-77293089D01*
X101277341Y-77323110D01*
X101245326Y-77328489D01*
X101169401Y-77340157D01*
X101090612Y-77350757D01*
X101010405Y-77360143D01*
X100930222Y-77368167D01*
X100851507Y-77374685D01*
X100775704Y-77379549D01*
X100715297Y-77382251D01*
X100659081Y-77384206D01*
X100659081Y-77160462D01*
X100659081Y-76936718D01*
X101530347Y-76425818D01*
X101598816Y-76385668D01*
X101667030Y-76345668D01*
X101734748Y-76305958D01*
X101801729Y-76266680D01*
X101867730Y-76227977D01*
X101932509Y-76189989D01*
X101995826Y-76152859D01*
X102057439Y-76116728D01*
X102117106Y-76081738D01*
X102174585Y-76048031D01*
X102229635Y-76015747D01*
X102282014Y-75985030D01*
X102331480Y-75956021D01*
X102377793Y-75928860D01*
X102420710Y-75903691D01*
X102459989Y-75880654D01*
X102495390Y-75859892D01*
X102526671Y-75841546D01*
X102553589Y-75825758D01*
X102575903Y-75812669D01*
X102593099Y-75802582D01*
X102626137Y-75783201D01*
X102662568Y-75761831D01*
X102702121Y-75738631D01*
X102744524Y-75713760D01*
X102789507Y-75687376D01*
X102836799Y-75659640D01*
X102886128Y-75630709D01*
X102937225Y-75600743D01*
X102989817Y-75569901D01*
X103043634Y-75538340D01*
X103098404Y-75506221D01*
X103153858Y-75473702D01*
X103209723Y-75440942D01*
X103265730Y-75408101D01*
X103321606Y-75375336D01*
X103377081Y-75342806D01*
X103431884Y-75310672D01*
X103485744Y-75279091D01*
X103538389Y-75248222D01*
X103589550Y-75218225D01*
X103638955Y-75189257D01*
X103686332Y-75161479D01*
X103731412Y-75135050D01*
X103773923Y-75110127D01*
X103813593Y-75086869D01*
X103850153Y-75065437D01*
X103883331Y-75045988D01*
X103912856Y-75028682D01*
X103938457Y-75013677D01*
X103959863Y-75001132D01*
X103976803Y-74991207D01*
X103989006Y-74984060D01*
X103991495Y-74982603D01*
X104034752Y-74957284D01*
X104036344Y-74942554D01*
X104036498Y-74938254D01*
X104036657Y-74928334D01*
X104036820Y-74913063D01*
X104036985Y-74892714D01*
X104037152Y-74867556D01*
X104037320Y-74837861D01*
X104037488Y-74803900D01*
X104037654Y-74765944D01*
X104037818Y-74724263D01*
X104037978Y-74679129D01*
X104038134Y-74630812D01*
X104038284Y-74579584D01*
X104038428Y-74525716D01*
X104038564Y-74469478D01*
X104038691Y-74411141D01*
X104038808Y-74350976D01*
X104038915Y-74289255D01*
X104038952Y-74265732D01*
X104039968Y-73603640D01*
X104033873Y-73607481D01*
X104030579Y-73609431D01*
X104022512Y-73614149D01*
X104009992Y-73621448D01*
X103993344Y-73631140D01*
X103972890Y-73643038D01*
X103948953Y-73656953D01*
X103921855Y-73672699D01*
X103891918Y-73690088D01*
X103859467Y-73708932D01*
X103824823Y-73729045D01*
X103788309Y-73750237D01*
X103750247Y-73772323D01*
X103727179Y-73785706D01*
X103426580Y-73960090D01*
X103416756Y-73990280D01*
X103399000Y-74044161D01*
X103381056Y-74097297D01*
X103363115Y-74149173D01*
X103345368Y-74199277D01*
X103328004Y-74247093D01*
X103311214Y-74292107D01*
X103295190Y-74333806D01*
X103280121Y-74371675D01*
X103266199Y-74405201D01*
X103253613Y-74433868D01*
X103247208Y-74447634D01*
X103229611Y-74482419D01*
X103208519Y-74520582D01*
X103184501Y-74561232D01*
X103158126Y-74603482D01*
X103129962Y-74646442D01*
X103100580Y-74689225D01*
X103070548Y-74730941D01*
X103040435Y-74770702D01*
X103039666Y-74771689D01*
X103012895Y-74804901D01*
X102982890Y-74840148D01*
X102950556Y-74876477D01*
X102916798Y-74912934D01*
X102882519Y-74948565D01*
X102848624Y-74982417D01*
X102816017Y-75013535D01*
X102785603Y-75040966D01*
X102778694Y-75046926D01*
X102705731Y-75106178D01*
X102631690Y-75160265D01*
X102556741Y-75209107D01*
X102481054Y-75252627D01*
X102404799Y-75290746D01*
X102328145Y-75323386D01*
X102251262Y-75350468D01*
X102174320Y-75371915D01*
X102097489Y-75387649D01*
X102020938Y-75397590D01*
X102017300Y-75397918D01*
X101997597Y-75399172D01*
X101973923Y-75399901D01*
X101947576Y-75400131D01*
X101919854Y-75399892D01*
X101892054Y-75399210D01*
X101865476Y-75398114D01*
X101841417Y-75396630D01*
X101821175Y-75394786D01*
X101811527Y-75393537D01*
X101746061Y-75381003D01*
X101682351Y-75363475D01*
X101620914Y-75341169D01*
X101562263Y-75314303D01*
X101506915Y-75283092D01*
X101455383Y-75247753D01*
X101444187Y-75239113D01*
X101417476Y-75216405D01*
X101389522Y-75189681D01*
X101361555Y-75160273D01*
X101334808Y-75129509D01*
X101310514Y-75098722D01*
X101297780Y-75081014D01*
X101261675Y-75023651D01*
X101229738Y-74962367D01*
X101201971Y-74897406D01*
X101178380Y-74829017D01*
X101158966Y-74757445D01*
X101143735Y-74682939D01*
X101132690Y-74605743D01*
X101125835Y-74526105D01*
X101123173Y-74444272D01*
X101124709Y-74360491D01*
X101130446Y-74275007D01*
X101140387Y-74188069D01*
X101154538Y-74099922D01*
X101155267Y-74096382D01*
X101895952Y-74096382D01*
X101896866Y-74153294D01*
X101902486Y-74208593D01*
X101912814Y-74261541D01*
X101921614Y-74292972D01*
X101938800Y-74339140D01*
X101959911Y-74381466D01*
X101984734Y-74419744D01*
X102013058Y-74453768D01*
X102044670Y-74483333D01*
X102079359Y-74508232D01*
X102116913Y-74528260D01*
X102157119Y-74543210D01*
X102186927Y-74550584D01*
X102203457Y-74552894D01*
X102223989Y-74554291D01*
X102246705Y-74554776D01*
X102269784Y-74554348D01*
X102291409Y-74553005D01*
X102309760Y-74550750D01*
X102310606Y-74550604D01*
X102356564Y-74539677D01*
X102402155Y-74523120D01*
X102447019Y-74501198D01*
X102490795Y-74474172D01*
X102533124Y-74442306D01*
X102573645Y-74405862D01*
X102611996Y-74365104D01*
X102647819Y-74320294D01*
X102670033Y-74288428D01*
X102701793Y-74235913D01*
X102729192Y-74181574D01*
X102752183Y-74125856D01*
X102770718Y-74069202D01*
X102784749Y-74012056D01*
X102794228Y-73954863D01*
X102799106Y-73898066D01*
X102799337Y-73842110D01*
X102794872Y-73787437D01*
X102785662Y-73734493D01*
X102771660Y-73683721D01*
X102752817Y-73635564D01*
X102742875Y-73615113D01*
X102718911Y-73574595D01*
X102691374Y-73538566D01*
X102660434Y-73507168D01*
X102626262Y-73480543D01*
X102589028Y-73458831D01*
X102548902Y-73442174D01*
X102526319Y-73435391D01*
X102505259Y-73431215D01*
X102480344Y-73428448D01*
X102453454Y-73427144D01*
X102426466Y-73427359D01*
X102401261Y-73429149D01*
X102386226Y-73431271D01*
X102338690Y-73442688D01*
X102292072Y-73459665D01*
X102246652Y-73481906D01*
X102202711Y-73509114D01*
X102160529Y-73540991D01*
X102120387Y-73577240D01*
X102082566Y-73617565D01*
X102047344Y-73661669D01*
X102015005Y-73709254D01*
X101985826Y-73760025D01*
X101960090Y-73813683D01*
X101938076Y-73869931D01*
X101921457Y-73923334D01*
X101908247Y-73980666D01*
X101899746Y-74038594D01*
X101895952Y-74096382D01*
X101155267Y-74096382D01*
X101172900Y-74010813D01*
X101195479Y-73920990D01*
X101222278Y-73830698D01*
X101253301Y-73740185D01*
X101276320Y-73679871D01*
X101322733Y-73570760D01*
X101373980Y-73464792D01*
X101429966Y-73362119D01*
X101490601Y-73262894D01*
X101555790Y-73167270D01*
X101625441Y-73075401D01*
X101689355Y-72998923D01*
X101707510Y-72978761D01*
X101729106Y-72955783D01*
X101753151Y-72930969D01*
X101778656Y-72905299D01*
X101804631Y-72879754D01*
X101830085Y-72855313D01*
X101854030Y-72832958D01*
X101875476Y-72813668D01*
X101883041Y-72807108D01*
X101958324Y-72745824D01*
X102034308Y-72690219D01*
X102110940Y-72640317D01*
X102188170Y-72596143D01*
X102265946Y-72557720D01*
X102344217Y-72525075D01*
X102422930Y-72498231D01*
X102502036Y-72477213D01*
X102581481Y-72462045D01*
X102616666Y-72457215D01*
X102636645Y-72455407D01*
X102660949Y-72454172D01*
X102688161Y-72453498D01*
X102716861Y-72453376D01*
X102745631Y-72453796D01*
X102773052Y-72454748D01*
X102797705Y-72456222D01*
X102818170Y-72458209D01*
X102821410Y-72458636D01*
X102888696Y-72470742D01*
X102953210Y-72488027D01*
X103015046Y-72510520D01*
X103074295Y-72538252D01*
X103082317Y-72542515D01*
X103089209Y-72546400D01*
X103096237Y-72550784D01*
X103103973Y-72556114D01*
X103112993Y-72562837D01*
X103123871Y-72571400D01*
X103137182Y-72582251D01*
X103153500Y-72595837D01*
X103173399Y-72612604D01*
X103185235Y-72622629D01*
X103211378Y-72644712D01*
X103233536Y-72663228D01*
X103252132Y-72678521D01*
X103267591Y-72690931D01*
X103280336Y-72700801D01*
X103290791Y-72708473D01*
X103296874Y-72712651D01*
X103312213Y-72722835D01*
X103571306Y-72586853D01*
X103610339Y-72566367D01*
X103649785Y-72545664D01*
X103689084Y-72525039D01*
X103727677Y-72504785D01*
X103765004Y-72485195D01*
X103800506Y-72466563D01*
X103833623Y-72449182D01*
X103863797Y-72433347D01*
X103890467Y-72419351D01*
X103913075Y-72407487D01*
X103931061Y-72398049D01*
X103932034Y-72397538D01*
X104033669Y-72344206D01*
X104034413Y-71694633D01*
X104035157Y-71045059D01*
X104155197Y-70978817D01*
X104198158Y-70955107D01*
X104236254Y-70934084D01*
X104269779Y-70915592D01*
X104299031Y-70899476D01*
X104324304Y-70885580D01*
X104345895Y-70873750D01*
X104364099Y-70863829D01*
X104379212Y-70855663D01*
X104391530Y-70849096D01*
X104401349Y-70843973D01*
X104408964Y-70840139D01*
X104414671Y-70837438D01*
X104418765Y-70835715D01*
X104421544Y-70834814D01*
X104423302Y-70834581D01*
X104424335Y-70834861D01*
G37*
G36*
X100631131Y-68502294D02*
G01*
X100783232Y-68508117D01*
X100931582Y-68519042D01*
X101092198Y-68536704D01*
X101251442Y-68560090D01*
X101409247Y-68589175D01*
X101565542Y-68623937D01*
X101720259Y-68664352D01*
X101873329Y-68710397D01*
X102024682Y-68762049D01*
X102174250Y-68819284D01*
X102321963Y-68882079D01*
X102467752Y-68950411D01*
X102611549Y-69024256D01*
X102753284Y-69103592D01*
X102862653Y-69169452D01*
X102996096Y-69255777D01*
X103126956Y-69347341D01*
X103255042Y-69444002D01*
X103380163Y-69545613D01*
X103502128Y-69652031D01*
X103509290Y-69658519D01*
X103525633Y-69673638D01*
X103545377Y-69692368D01*
X103567863Y-69714050D01*
X103592431Y-69738025D01*
X103618422Y-69763633D01*
X103645177Y-69790216D01*
X103672038Y-69817115D01*
X103698344Y-69843670D01*
X103723438Y-69869222D01*
X103746659Y-69893112D01*
X103767349Y-69914682D01*
X103784848Y-69933271D01*
X103794044Y-69943273D01*
X103901191Y-70065610D01*
X104003613Y-70191345D01*
X104101190Y-70320320D01*
X104193801Y-70452375D01*
X104274711Y-70576765D01*
X104284295Y-70592211D01*
X104292702Y-70606055D01*
X104299458Y-70617492D01*
X104304088Y-70625716D01*
X104306117Y-70629922D01*
X104306170Y-70630194D01*
X104303653Y-70632102D01*
X104296367Y-70636612D01*
X104284714Y-70643497D01*
X104269093Y-70652529D01*
X104249905Y-70663480D01*
X104227549Y-70676125D01*
X104202427Y-70690234D01*
X104174938Y-70705582D01*
X104145483Y-70721941D01*
X104114461Y-70739083D01*
X104113077Y-70739846D01*
X103919985Y-70846261D01*
X103585015Y-70650751D01*
X103541486Y-70625344D01*
X103493515Y-70597345D01*
X103441750Y-70567133D01*
X103386840Y-70535085D01*
X103329432Y-70501579D01*
X103270173Y-70466994D01*
X103209711Y-70431706D01*
X103148694Y-70396095D01*
X103087769Y-70360538D01*
X103027584Y-70325413D01*
X102968787Y-70291098D01*
X102912025Y-70257971D01*
X102857946Y-70226410D01*
X102834667Y-70212824D01*
X102784362Y-70183466D01*
X102732559Y-70153232D01*
X102679769Y-70122422D01*
X102626503Y-70091333D01*
X102573274Y-70060265D01*
X102520593Y-70029516D01*
X102468970Y-69999385D01*
X102418919Y-69970169D01*
X102370949Y-69942168D01*
X102325573Y-69915681D01*
X102283302Y-69891005D01*
X102244648Y-69868440D01*
X102210122Y-69848283D01*
X102183611Y-69832805D01*
X102151669Y-69814156D01*
X102115201Y-69792866D01*
X102074774Y-69769264D01*
X102030949Y-69743680D01*
X101984293Y-69716444D01*
X101935367Y-69687884D01*
X101884738Y-69658329D01*
X101832968Y-69628110D01*
X101780623Y-69597555D01*
X101728265Y-69566993D01*
X101676459Y-69536754D01*
X101625769Y-69507167D01*
X101576758Y-69478561D01*
X101567907Y-69473395D01*
X101516968Y-69443663D01*
X101462759Y-69412023D01*
X101405991Y-69378887D01*
X101347372Y-69344671D01*
X101287612Y-69309789D01*
X101227421Y-69274655D01*
X101167508Y-69239682D01*
X101108583Y-69205286D01*
X101051356Y-69171880D01*
X100996536Y-69139879D01*
X100944833Y-69109697D01*
X100896956Y-69081747D01*
X100862761Y-69061785D01*
X100822464Y-69038265D01*
X100783549Y-69015563D01*
X100746323Y-68993857D01*
X100711092Y-68973324D01*
X100678160Y-68954142D01*
X100647834Y-68936489D01*
X100620420Y-68920543D01*
X100596222Y-68906482D01*
X100575547Y-68894483D01*
X100558700Y-68884723D01*
X100545986Y-68877382D01*
X100537712Y-68872636D01*
X100534182Y-68870663D01*
X100534092Y-68870621D01*
X100530370Y-68871526D01*
X100522627Y-68874955D01*
X100511896Y-68880401D01*
X100499212Y-68887360D01*
X100495385Y-68889548D01*
X100489340Y-68893025D01*
X100478444Y-68899280D01*
X100462960Y-68908161D01*
X100443151Y-68919519D01*
X100419279Y-68933202D01*
X100391607Y-68949061D01*
X100360396Y-68966945D01*
X100325911Y-68986703D01*
X100288412Y-69008186D01*
X100248164Y-69031243D01*
X100205428Y-69055722D01*
X100160467Y-69081475D01*
X100113543Y-69108350D01*
X100064920Y-69136198D01*
X100014859Y-69164867D01*
X99963623Y-69194207D01*
X99941742Y-69206737D01*
X99890331Y-69236177D01*
X99840120Y-69264931D01*
X99791361Y-69292855D01*
X99744308Y-69319803D01*
X99699213Y-69345631D01*
X99656329Y-69370194D01*
X99615909Y-69393347D01*
X99578205Y-69414945D01*
X99543472Y-69434844D01*
X99511961Y-69452898D01*
X99483926Y-69468962D01*
X99459620Y-69482892D01*
X99439294Y-69494543D01*
X99423203Y-69503770D01*
X99411599Y-69510427D01*
X99404735Y-69514371D01*
X99403208Y-69515253D01*
X99383161Y-69526869D01*
X99623606Y-69681308D01*
X99657751Y-69703213D01*
X99690530Y-69724192D01*
X99721600Y-69744028D01*
X99750615Y-69762502D01*
X99777233Y-69779397D01*
X99801109Y-69794497D01*
X99821899Y-69807584D01*
X99839261Y-69818440D01*
X99852849Y-69826849D01*
X99862321Y-69832593D01*
X99867331Y-69835455D01*
X99868028Y-69835746D01*
X99872003Y-69835214D01*
X99880848Y-69833726D01*
X99893648Y-69831447D01*
X99909488Y-69828541D01*
X99927455Y-69825170D01*
X99933387Y-69824043D01*
X100031537Y-69806390D01*
X100125226Y-69791757D01*
X100215029Y-69780106D01*
X100301524Y-69771400D01*
X100385285Y-69765601D01*
X100466888Y-69762673D01*
X100546910Y-69762576D01*
X100625926Y-69765276D01*
X100704512Y-69770733D01*
X100725365Y-69772639D01*
X100823125Y-69784202D01*
X100918276Y-69799828D01*
X101010633Y-69819423D01*
X101100013Y-69842895D01*
X101186231Y-69870149D01*
X101269102Y-69901092D01*
X101348442Y-69935629D01*
X101424067Y-69973668D01*
X101495793Y-70015114D01*
X101563435Y-70059874D01*
X101626809Y-70107854D01*
X101685730Y-70158960D01*
X101740015Y-70213099D01*
X101789478Y-70270177D01*
X101833936Y-70330100D01*
X101840116Y-70339260D01*
X101878309Y-70401176D01*
X101910864Y-70463968D01*
X101938004Y-70528222D01*
X101959954Y-70594525D01*
X101976935Y-70663464D01*
X101988172Y-70728369D01*
X101989646Y-70742772D01*
X101990792Y-70762501D01*
X101991592Y-70786999D01*
X101992023Y-70815706D01*
X101992097Y-70835897D01*
X101992035Y-70860988D01*
X101991829Y-70881211D01*
X101991418Y-70897586D01*
X101990747Y-70911135D01*
X101989755Y-70922881D01*
X101988385Y-70933846D01*
X101986578Y-70945050D01*
X101985543Y-70950789D01*
X101970293Y-71017493D01*
X101949458Y-71082642D01*
X101923012Y-71146282D01*
X101890929Y-71208461D01*
X101853183Y-71269225D01*
X101809748Y-71328622D01*
X101760598Y-71386698D01*
X101721097Y-71428285D01*
X101658400Y-71487194D01*
X101591264Y-71542409D01*
X101519909Y-71593838D01*
X101444558Y-71641393D01*
X101365432Y-71684980D01*
X101282753Y-71724509D01*
X101196744Y-71759889D01*
X101107626Y-71791030D01*
X101015621Y-71817840D01*
X100920950Y-71840227D01*
X100823836Y-71858102D01*
X100724500Y-71871374D01*
X100623165Y-71879950D01*
X100619311Y-71880180D01*
X100603024Y-71880914D01*
X100582026Y-71881521D01*
X100557497Y-71881995D01*
X100530616Y-71882331D01*
X100502562Y-71882525D01*
X100474516Y-71882570D01*
X100447657Y-71882462D01*
X100423164Y-71882195D01*
X100402216Y-71881765D01*
X100386581Y-71881196D01*
X100273719Y-71873183D01*
X100162794Y-71860423D01*
X100054057Y-71842988D01*
X99947759Y-71820949D01*
X99844151Y-71794379D01*
X99743485Y-71763350D01*
X99646012Y-71727935D01*
X99551984Y-71688204D01*
X99461651Y-71644231D01*
X99375266Y-71596088D01*
X99359483Y-71586574D01*
X99290624Y-71541959D01*
X99226446Y-71495056D01*
X99167070Y-71446006D01*
X99112617Y-71394952D01*
X99063209Y-71342038D01*
X99018967Y-71287406D01*
X98980012Y-71231198D01*
X98946466Y-71173559D01*
X98918450Y-71114630D01*
X98896085Y-71054554D01*
X98889820Y-71033995D01*
X98884286Y-71014365D01*
X98879696Y-70996855D01*
X98875964Y-70980633D01*
X98873004Y-70964871D01*
X98870728Y-70948737D01*
X98869051Y-70931402D01*
X98867886Y-70912036D01*
X98867147Y-70889809D01*
X98866747Y-70863890D01*
X98866601Y-70833449D01*
X98866600Y-70810856D01*
X98866626Y-70804576D01*
X99908355Y-70804576D01*
X99908800Y-70822467D01*
X99913935Y-70865816D01*
X99924692Y-70907478D01*
X99941016Y-70947355D01*
X99962855Y-70985343D01*
X99990155Y-71021344D01*
X100022863Y-71055256D01*
X100040431Y-71070732D01*
X100082263Y-71102021D01*
X100128167Y-71129428D01*
X100177667Y-71152822D01*
X100230289Y-71172069D01*
X100285558Y-71187035D01*
X100342999Y-71197587D01*
X100402137Y-71203593D01*
X100462498Y-71204919D01*
X100510619Y-71202579D01*
X100576781Y-71194682D01*
X100640759Y-71181800D01*
X100702236Y-71164050D01*
X100760896Y-71141554D01*
X100816422Y-71114430D01*
X100868498Y-71082798D01*
X100911268Y-71051288D01*
X100941232Y-71024888D01*
X100969882Y-70995256D01*
X100996165Y-70963663D01*
X101019024Y-70931382D01*
X101037406Y-70899683D01*
X101038050Y-70898413D01*
X101047325Y-70877731D01*
X101056122Y-70854005D01*
X101063727Y-70829462D01*
X101069427Y-70806324D01*
X101071716Y-70793489D01*
X101073903Y-70768997D01*
X101074132Y-70741652D01*
X101072526Y-70713593D01*
X101069208Y-70686961D01*
X101064299Y-70663894D01*
X101064294Y-70663873D01*
X101049934Y-70622687D01*
X101030248Y-70583594D01*
X101005487Y-70546780D01*
X100975898Y-70512433D01*
X100941731Y-70480740D01*
X100903236Y-70451887D01*
X100860662Y-70426061D01*
X100814258Y-70403450D01*
X100764275Y-70384240D01*
X100710960Y-70368618D01*
X100654662Y-70356788D01*
X100634483Y-70354036D01*
X100609910Y-70351799D01*
X100582424Y-70350118D01*
X100553506Y-70349039D01*
X100524634Y-70348603D01*
X100497290Y-70348856D01*
X100472953Y-70349841D01*
X100458266Y-70351012D01*
X100393350Y-70360131D01*
X100330827Y-70373831D01*
X100271043Y-70391967D01*
X100214346Y-70414396D01*
X100161084Y-70440972D01*
X100111604Y-70471551D01*
X100066253Y-70505988D01*
X100048531Y-70521559D01*
X100011838Y-70558465D01*
X99980590Y-70596784D01*
X99954854Y-70636373D01*
X99934696Y-70677091D01*
X99920183Y-70718792D01*
X99911380Y-70761335D01*
X99908355Y-70804576D01*
X98866626Y-70804576D01*
X98866759Y-70772290D01*
X98867169Y-70738669D01*
X98867871Y-70709048D01*
X98868905Y-70682484D01*
X98870311Y-70658034D01*
X98872130Y-70634754D01*
X98874401Y-70611699D01*
X98875519Y-70601693D01*
X98877047Y-70588437D01*
X98559701Y-70399896D01*
X98519755Y-70376165D01*
X98481043Y-70353172D01*
X98443885Y-70331105D01*
X98408601Y-70310157D01*
X98375514Y-70290516D01*
X98344943Y-70272374D01*
X98317210Y-70255920D01*
X98292635Y-70241345D01*
X98271539Y-70228839D01*
X98254244Y-70218593D01*
X98241069Y-70210797D01*
X98232335Y-70205642D01*
X98228456Y-70203370D01*
X98214557Y-70195385D01*
X97689232Y-70518341D01*
X97638228Y-70549688D01*
X97588545Y-70580204D01*
X97540418Y-70609748D01*
X97494079Y-70638175D01*
X97449764Y-70665344D01*
X97407705Y-70691110D01*
X97368137Y-70715332D01*
X97331293Y-70737867D01*
X97297408Y-70758570D01*
X97266715Y-70777300D01*
X97239449Y-70793914D01*
X97215843Y-70808269D01*
X97196131Y-70820221D01*
X97180546Y-70829627D01*
X97169324Y-70836346D01*
X97162698Y-70840233D01*
X97160862Y-70841209D01*
X97157729Y-70839660D01*
X97150239Y-70835304D01*
X97138998Y-70828512D01*
X97124609Y-70819656D01*
X97107677Y-70809107D01*
X97088807Y-70797236D01*
X97075330Y-70788695D01*
X97053141Y-70774601D01*
X97027201Y-70758137D01*
X96998737Y-70740083D01*
X96968979Y-70721218D01*
X96939155Y-70702320D01*
X96910493Y-70684168D01*
X96888262Y-70670097D01*
X96865792Y-70655851D01*
X96844791Y-70642483D01*
X96825799Y-70630342D01*
X96809359Y-70619774D01*
X96796011Y-70611130D01*
X96786298Y-70604758D01*
X96780760Y-70601006D01*
X96779730Y-70600226D01*
X96778976Y-70598307D01*
X96779697Y-70594791D01*
X96782192Y-70589130D01*
X96786761Y-70580777D01*
X96793705Y-70569185D01*
X96803323Y-70553807D01*
X96815914Y-70534095D01*
X96816256Y-70533563D01*
X96906227Y-70398980D01*
X97000708Y-70268096D01*
X97099600Y-70141016D01*
X97202804Y-70017845D01*
X97310224Y-69898687D01*
X97421760Y-69783647D01*
X97537313Y-69672828D01*
X97656787Y-69566336D01*
X97780081Y-69464275D01*
X97907099Y-69366749D01*
X97931129Y-69349116D01*
X98063040Y-69256645D01*
X98197959Y-69169212D01*
X98335752Y-69086875D01*
X98476285Y-69009686D01*
X98619424Y-68937703D01*
X98765035Y-68870980D01*
X98912984Y-68809571D01*
X99063137Y-68753533D01*
X99215360Y-68702920D01*
X99369519Y-68657787D01*
X99525480Y-68618190D01*
X99683110Y-68584184D01*
X99842273Y-68555823D01*
X99869566Y-68551553D01*
X100019510Y-68531328D01*
X100171392Y-68516267D01*
X100324458Y-68506392D01*
X100477955Y-68501727D01*
X100631131Y-68502294D01*
G37*
G36*
X113328356Y-69583825D02*
G01*
X113429333Y-69611352D01*
X113509133Y-69662430D01*
X113543084Y-69696063D01*
X113561754Y-69721651D01*
X113575597Y-69756313D01*
X113585768Y-69808064D01*
X113593420Y-69884914D01*
X113599707Y-69994876D01*
X113605073Y-70126690D01*
X113611068Y-70259608D01*
X113618397Y-70377647D01*
X113626322Y-70471386D01*
X113634103Y-70531407D01*
X113637988Y-70546487D01*
X113643465Y-70570602D01*
X113625747Y-70583314D01*
X113575297Y-70588135D01*
X113523294Y-70588699D01*
X113443426Y-70585794D01*
X113399180Y-70574497D01*
X113378149Y-70550937D01*
X113374983Y-70542423D01*
X113363537Y-70516264D01*
X113343967Y-70511354D01*
X113303802Y-70528958D01*
X113258780Y-70554194D01*
X113133656Y-70602872D01*
X113006902Y-70611150D01*
X112890250Y-70578925D01*
X112853634Y-70557823D01*
X112763862Y-70473277D01*
X112717733Y-70373268D01*
X112716954Y-70269789D01*
X112987940Y-70269789D01*
X112995717Y-70333733D01*
X113008721Y-70357109D01*
X113067346Y-70408599D01*
X113146428Y-70417103D01*
X113239822Y-70384632D01*
X113301847Y-70331440D01*
X113332789Y-70248579D01*
X113337847Y-70182543D01*
X113334211Y-70147967D01*
X113314104Y-70134893D01*
X113264550Y-70138270D01*
X113235660Y-70142757D01*
X113109056Y-70173220D01*
X113026101Y-70215925D01*
X112987940Y-70269789D01*
X112716954Y-70269789D01*
X112716909Y-70263758D01*
X112747607Y-70177843D01*
X112788955Y-70120622D01*
X112851933Y-70074960D01*
X112944884Y-70036584D01*
X113076152Y-70001220D01*
X113105220Y-69994685D01*
X113214764Y-69969294D01*
X113284292Y-69948275D01*
X113321244Y-69927328D01*
X113333061Y-69902150D01*
X113327185Y-69868440D01*
X113326633Y-69866682D01*
X113285827Y-69807797D01*
X113218792Y-69776945D01*
X113139731Y-69775842D01*
X113062849Y-69806204D01*
X113032225Y-69831109D01*
X112985456Y-69870351D01*
X112938324Y-69884022D01*
X112868210Y-69878430D01*
X112864471Y-69877874D01*
X112789965Y-69857132D01*
X112759657Y-69821433D01*
X112772345Y-69766933D01*
X112811552Y-69708593D01*
X112887434Y-69639669D01*
X112989701Y-69596764D01*
X113125619Y-69577351D01*
X113193870Y-69575594D01*
X113328356Y-69583825D01*
G37*
G36*
X115647394Y-69596807D02*
G01*
X115776010Y-69655768D01*
X115879540Y-69745461D01*
X115954434Y-69858867D01*
X115997142Y-69988971D01*
X116004115Y-70128756D01*
X115971802Y-70271205D01*
X115909672Y-70390806D01*
X115806452Y-70503002D01*
X115678246Y-70577235D01*
X115532463Y-70611295D01*
X115376507Y-70602971D01*
X115283705Y-70577636D01*
X115156452Y-70508625D01*
X115062029Y-70405687D01*
X115002436Y-70272001D01*
X114984126Y-70142276D01*
X115252665Y-70142276D01*
X115280913Y-70245271D01*
X115333106Y-70324848D01*
X115402912Y-70375807D01*
X115483996Y-70392945D01*
X115570024Y-70371063D01*
X115630182Y-70329393D01*
X115691772Y-70244257D01*
X115722224Y-70137811D01*
X115721335Y-70025002D01*
X115688901Y-69920775D01*
X115636678Y-69850372D01*
X115554505Y-69802082D01*
X115466358Y-69794941D01*
X115382119Y-69824534D01*
X115311668Y-69886447D01*
X115264884Y-69976263D01*
X115254696Y-70021065D01*
X115252665Y-70142276D01*
X114984126Y-70142276D01*
X114979676Y-70110749D01*
X114979502Y-70094207D01*
X114999320Y-69928110D01*
X115056984Y-69790806D01*
X115149803Y-69684987D01*
X115275091Y-69613347D01*
X115430158Y-69578579D01*
X115497242Y-69575594D01*
X115647394Y-69596807D01*
G37*
G36*
X111533100Y-69218650D02*
G01*
X111681870Y-69225831D01*
X111955228Y-69671070D01*
X112228585Y-70116308D01*
X112228585Y-69665039D01*
X112228585Y-69213771D01*
X112361253Y-69213771D01*
X112493922Y-69213771D01*
X112493922Y-69901235D01*
X112493922Y-70588699D01*
X112351492Y-70588699D01*
X112209062Y-70588699D01*
X111947456Y-70165450D01*
X111685850Y-69742200D01*
X111679263Y-70165450D01*
X111672676Y-70588699D01*
X111528503Y-70588699D01*
X111384330Y-70588699D01*
X111384330Y-69900084D01*
X111384330Y-69211469D01*
X111533100Y-69218650D01*
G37*
G36*
X114569629Y-69594353D02*
G01*
X114617409Y-69612185D01*
X114666396Y-69642475D01*
X114703000Y-69680338D01*
X114728965Y-69732769D01*
X114746034Y-69806764D01*
X114755952Y-69909316D01*
X114760462Y-70047422D01*
X114761348Y-70189496D01*
X114761348Y-70588699D01*
X114628680Y-70588699D01*
X114496011Y-70588699D01*
X114496011Y-70237840D01*
X114495710Y-70100863D01*
X114493947Y-70003503D01*
X114489436Y-69937137D01*
X114480892Y-69893139D01*
X114467026Y-69862885D01*
X114446552Y-69837750D01*
X114434493Y-69825464D01*
X114362974Y-69781480D01*
X114284681Y-69784996D01*
X114200715Y-69835916D01*
X114188461Y-69846924D01*
X114167105Y-69869535D01*
X114152227Y-69896398D01*
X114142662Y-69936018D01*
X114137245Y-69996900D01*
X114134811Y-70087549D01*
X114134196Y-70216470D01*
X114134188Y-70243142D01*
X114134188Y-70588699D01*
X113989458Y-70588699D01*
X113844729Y-70588699D01*
X113844729Y-70094207D01*
X113844729Y-69599716D01*
X113977398Y-69599716D01*
X114053358Y-69601249D01*
X114092908Y-69609487D01*
X114107864Y-69629884D01*
X114110066Y-69660959D01*
X114110066Y-69722203D01*
X114164340Y-69670703D01*
X114223134Y-69625253D01*
X114274457Y-69597399D01*
X114362966Y-69578836D01*
X114469495Y-69578171D01*
X114569629Y-69594353D01*
G37*
G36*
X113874881Y-67144087D02*
G01*
X114001519Y-67151377D01*
X114013580Y-67515634D01*
X114019855Y-67672358D01*
X114028399Y-67787263D01*
X114041643Y-67866777D01*
X114062022Y-67917323D01*
X114091968Y-67945328D01*
X114133915Y-67957216D01*
X114181646Y-67959450D01*
X114244331Y-67955227D01*
X114290993Y-67938387D01*
X114324299Y-67902670D01*
X114346916Y-67841816D01*
X114361512Y-67749566D01*
X114370753Y-67619661D01*
X114375403Y-67504741D01*
X114387464Y-67151377D01*
X114520133Y-67151377D01*
X114652801Y-67151377D01*
X114659321Y-67651900D01*
X114665841Y-68152422D01*
X114532683Y-68152422D01*
X114456554Y-68150911D01*
X114416853Y-68142743D01*
X114401783Y-68122466D01*
X114399525Y-68090891D01*
X114399525Y-68029359D01*
X114313359Y-68095081D01*
X114204177Y-68152951D01*
X114084395Y-68174735D01*
X113968362Y-68159455D01*
X113893324Y-68123695D01*
X113843868Y-68086992D01*
X113807159Y-68048570D01*
X113781304Y-68000832D01*
X113764415Y-67936179D01*
X113754599Y-67847014D01*
X113749967Y-67725740D01*
X113748628Y-67564759D01*
X113748599Y-67542092D01*
X113748243Y-67136796D01*
X113874881Y-67144087D01*
G37*
G36*
X117298440Y-67172297D02*
G01*
X117370039Y-67208756D01*
X117485832Y-67305072D01*
X117560783Y-67423684D01*
X117598414Y-67570474D01*
X117601005Y-67594716D01*
X117598884Y-67750036D01*
X117559471Y-67881780D01*
X117479602Y-68000466D01*
X117478707Y-68001488D01*
X117363834Y-68097414D01*
X117225659Y-68156428D01*
X117075242Y-68175486D01*
X116928493Y-68153033D01*
X116795594Y-68089945D01*
X116691752Y-67994527D01*
X116619363Y-67874655D01*
X116580827Y-67738209D01*
X116578737Y-67605478D01*
X116865301Y-67605478D01*
X116868197Y-67745319D01*
X116902830Y-67849759D01*
X116968974Y-67918160D01*
X116977831Y-67923276D01*
X117061296Y-67954616D01*
X117139993Y-67947779D01*
X117198108Y-67923018D01*
X117261518Y-67876885D01*
X117301469Y-67811527D01*
X117320914Y-67718411D01*
X117322804Y-67589005D01*
X117321740Y-67565619D01*
X117295885Y-67485544D01*
X117236133Y-67415550D01*
X117156741Y-67368634D01*
X117092279Y-67356411D01*
X116991836Y-67375855D01*
X116920031Y-67434058D01*
X116877040Y-67530826D01*
X116865301Y-67605478D01*
X116578737Y-67605478D01*
X116578541Y-67593065D01*
X116614903Y-67447103D01*
X116677605Y-67328838D01*
X116767691Y-67237038D01*
X116886560Y-67173448D01*
X117022470Y-67140103D01*
X117163678Y-67139041D01*
X117298440Y-67172297D01*
G37*
G36*
X110200694Y-66781935D02*
G01*
X110368650Y-66786139D01*
X110495921Y-66793426D01*
X110590063Y-66806485D01*
X110658635Y-66828006D01*
X110709192Y-66860681D01*
X110749292Y-66907200D01*
X110786490Y-66970253D01*
X110799383Y-66995080D01*
X110845695Y-67135326D01*
X110844206Y-67278733D01*
X110807694Y-67394979D01*
X110761520Y-67477306D01*
X110703431Y-67537359D01*
X110624738Y-67579542D01*
X110516752Y-67608257D01*
X110370785Y-67627910D01*
X110342890Y-67630547D01*
X110081766Y-67654181D01*
X110081766Y-67903302D01*
X110081766Y-68152422D01*
X109937037Y-68152422D01*
X109792308Y-68152422D01*
X109792308Y-67463369D01*
X109792308Y-67404654D01*
X110081766Y-67404654D01*
X110160161Y-67403216D01*
X110232665Y-67398275D01*
X110322799Y-67387532D01*
X110357600Y-67382241D01*
X110465255Y-67349564D01*
X110532523Y-67294581D01*
X110557565Y-67219218D01*
X110554053Y-67176400D01*
X110528354Y-67103127D01*
X110479888Y-67055137D01*
X110401149Y-67028404D01*
X110284626Y-67018901D01*
X110260006Y-67018709D01*
X110081766Y-67018709D01*
X110081766Y-67211681D01*
X110081766Y-67404654D01*
X109792308Y-67404654D01*
X109792308Y-67211681D01*
X109792308Y-66774317D01*
X110200694Y-66781935D01*
G37*
G36*
X111479137Y-66781935D02*
G01*
X111641917Y-66785792D01*
X111764578Y-66792030D01*
X111855243Y-66803035D01*
X111922036Y-66821196D01*
X111973081Y-66848899D01*
X112016500Y-66888531D01*
X112060419Y-66942478D01*
X112070304Y-66955634D01*
X112103926Y-67031306D01*
X112121324Y-67134748D01*
X112122496Y-67248297D01*
X112107443Y-67354290D01*
X112076165Y-67435066D01*
X112070304Y-67443607D01*
X112015265Y-67509725D01*
X111958363Y-67556478D01*
X111888732Y-67588428D01*
X111795508Y-67610139D01*
X111667826Y-67626173D01*
X111626229Y-67630104D01*
X111360209Y-67654181D01*
X111360209Y-67903302D01*
X111360209Y-68152422D01*
X111215479Y-68152422D01*
X111070750Y-68152422D01*
X111070750Y-67463369D01*
X111070750Y-67410322D01*
X111360209Y-67410322D01*
X111547151Y-67394026D01*
X111647917Y-67382940D01*
X111713760Y-67368250D01*
X111757994Y-67345732D01*
X111788366Y-67317482D01*
X111834748Y-67237411D01*
X111833516Y-67156370D01*
X111784772Y-67079266D01*
X111783432Y-67077916D01*
X111746977Y-67047004D01*
X111705424Y-67029125D01*
X111644761Y-67020842D01*
X111550980Y-67018716D01*
X111542217Y-67018709D01*
X111360209Y-67018709D01*
X111360209Y-67214515D01*
X111360209Y-67410322D01*
X111070750Y-67410322D01*
X111070750Y-67214515D01*
X111070750Y-66774317D01*
X111479137Y-66781935D01*
G37*
G36*
X112881098Y-66779422D02*
G01*
X113010995Y-66786544D01*
X113110211Y-66800859D01*
X113187473Y-66824368D01*
X113251509Y-66859074D01*
X113311047Y-66906976D01*
X113322294Y-66917472D01*
X113406259Y-67016236D01*
X113463783Y-67132015D01*
X113497625Y-67273371D01*
X113510546Y-67448869D01*
X113510811Y-67502448D01*
X113492929Y-67691327D01*
X113441027Y-67848374D01*
X113353667Y-67977331D01*
X113312878Y-68017947D01*
X113252589Y-68066251D01*
X113188521Y-68101700D01*
X113112070Y-68126158D01*
X113014631Y-68141490D01*
X112887596Y-68149561D01*
X112722360Y-68152236D01*
X112692925Y-68152288D01*
X112349193Y-68152422D01*
X112349193Y-67911207D01*
X112638651Y-67911207D01*
X112817993Y-67911207D01*
X112915141Y-67908142D01*
X113000521Y-67900088D01*
X113056331Y-67888753D01*
X113057947Y-67888162D01*
X113121515Y-67850401D01*
X113166157Y-67788652D01*
X113194905Y-67695759D01*
X113210787Y-67564567D01*
X113213273Y-67521443D01*
X113213432Y-67350820D01*
X113193185Y-67220901D01*
X113149048Y-67127213D01*
X113077540Y-67065284D01*
X112975178Y-67030640D01*
X112838481Y-67018810D01*
X112821872Y-67018709D01*
X112638651Y-67018709D01*
X112638651Y-67464958D01*
X112638651Y-67911207D01*
X112349193Y-67911207D01*
X112349193Y-67464958D01*
X112349193Y-66777493D01*
X112711791Y-66777493D01*
X112881098Y-66779422D01*
G37*
G36*
X115056837Y-67144087D02*
G01*
X115183476Y-67151377D01*
X115189995Y-67651900D01*
X115196515Y-68152422D01*
X115063357Y-68152422D01*
X114930199Y-68152422D01*
X114930199Y-67644609D01*
X114930199Y-67136796D01*
X115056837Y-67144087D01*
G37*
G36*
X115652868Y-67140842D02*
G01*
X115688465Y-67150546D01*
X115700722Y-67176121D01*
X115702089Y-67213826D01*
X115702089Y-67288335D01*
X115776313Y-67225879D01*
X115855707Y-67171454D01*
X115939516Y-67144803D01*
X116045032Y-67141468D01*
X116090129Y-67144969D01*
X116209379Y-67175011D01*
X116295193Y-67239584D01*
X116348804Y-67339670D01*
X116353273Y-67354620D01*
X116361902Y-67409619D01*
X116369170Y-67501507D01*
X116374457Y-67618936D01*
X116377146Y-67750555D01*
X116377358Y-67796629D01*
X116377493Y-68152422D01*
X116248102Y-68152422D01*
X116118711Y-68152422D01*
X116106965Y-67786494D01*
X116102075Y-67645811D01*
X116096996Y-67545261D01*
X116090379Y-67476745D01*
X116080874Y-67432167D01*
X116067130Y-67403429D01*
X116047797Y-67382434D01*
X116038254Y-67374438D01*
X115963510Y-67342346D01*
X115878684Y-67349712D01*
X115798610Y-67394683D01*
X115786598Y-67405874D01*
X115767332Y-67429703D01*
X115753523Y-67462008D01*
X115743980Y-67511139D01*
X115737515Y-67585443D01*
X115732939Y-67693269D01*
X115729979Y-67803293D01*
X115721687Y-68152422D01*
X115591280Y-68152422D01*
X115460874Y-68152422D01*
X115460874Y-67645869D01*
X115460874Y-67139317D01*
X115581481Y-67139317D01*
X115652868Y-67140842D01*
G37*
G36*
X115195536Y-66898101D02*
G01*
X115195536Y-67018709D01*
X115062868Y-67018709D01*
X114930199Y-67018709D01*
X114930199Y-66898101D01*
X114930199Y-66777493D01*
X115062868Y-66777493D01*
X115195536Y-66777493D01*
X115195536Y-66898101D01*
G37*
G36*
X114295732Y-57622564D02*
G01*
X114639799Y-57647760D01*
X114965511Y-57689965D01*
X115008251Y-57697095D01*
X115374481Y-57779873D01*
X115715695Y-57897180D01*
X116029261Y-58047105D01*
X116312550Y-58227735D01*
X116562930Y-58437157D01*
X116777770Y-58673461D01*
X116954439Y-58934733D01*
X117085526Y-59206860D01*
X117151618Y-59393542D01*
X117195384Y-59569385D01*
X117220125Y-59752592D01*
X117229147Y-59961367D01*
X117229354Y-59999336D01*
X117206676Y-60340287D01*
X117137841Y-60694164D01*
X117022803Y-61061146D01*
X116861511Y-61441412D01*
X116815637Y-61535224D01*
X116606442Y-61913450D01*
X116378839Y-62248705D01*
X116130418Y-62543534D01*
X115858767Y-62800480D01*
X115561477Y-63022085D01*
X115236137Y-63210893D01*
X115219571Y-63219277D01*
X114891858Y-63368581D01*
X114583224Y-63476722D01*
X114289561Y-63544846D01*
X114006761Y-63574097D01*
X113941215Y-63575454D01*
X113748196Y-63565403D01*
X113595320Y-63533509D01*
X113483505Y-63480231D01*
X113413668Y-63406027D01*
X113386726Y-63311352D01*
X113386420Y-63298823D01*
X113400178Y-63198878D01*
X113443527Y-63099408D01*
X113519576Y-62996913D01*
X113631435Y-62887891D01*
X113782213Y-62768844D01*
X113975007Y-62636278D01*
X114197193Y-62483959D01*
X114380745Y-62341099D01*
X114532369Y-62200673D01*
X114658771Y-62055654D01*
X114766656Y-61899015D01*
X114862729Y-61723730D01*
X114880151Y-61687845D01*
X114963884Y-61491913D01*
X115023878Y-61299805D01*
X115063583Y-61096554D01*
X115086448Y-60867191D01*
X115091392Y-60771226D01*
X115092549Y-60490713D01*
X115070132Y-60245450D01*
X115022261Y-60027596D01*
X114947056Y-59829311D01*
X114842637Y-59642753D01*
X114808886Y-59592942D01*
X114757294Y-59526674D01*
X114690385Y-59450703D01*
X114615725Y-59372379D01*
X114540880Y-59299051D01*
X114473414Y-59238066D01*
X114420894Y-59196774D01*
X114390885Y-59182524D01*
X114387846Y-59183976D01*
X114379772Y-59207752D01*
X114358878Y-59273320D01*
X114326509Y-59376355D01*
X114284010Y-59512531D01*
X114232729Y-59677523D01*
X114174011Y-59867008D01*
X114109200Y-60076659D01*
X114039644Y-60302152D01*
X114014038Y-60385281D01*
X113936204Y-60637776D01*
X113856986Y-60894240D01*
X113778623Y-61147455D01*
X113703356Y-61390205D01*
X113633423Y-61615274D01*
X113571064Y-61815445D01*
X113518520Y-61983503D01*
X113480055Y-62105819D01*
X113424930Y-62283710D01*
X113368704Y-62471139D01*
X113315254Y-62654760D01*
X113268455Y-62821226D01*
X113232183Y-62957193D01*
X113227874Y-62974196D01*
X113126231Y-63368260D01*
X113030002Y-63717809D01*
X112937761Y-64026081D01*
X112848083Y-64296317D01*
X112759542Y-64531757D01*
X112670713Y-64735639D01*
X112580170Y-64911205D01*
X112486488Y-65061694D01*
X112388240Y-65190345D01*
X112284001Y-65300399D01*
X112172346Y-65395096D01*
X112157777Y-65406028D01*
X111991035Y-65516965D01*
X111793741Y-65628043D01*
X111582782Y-65730637D01*
X111375047Y-65816121D01*
X111309291Y-65839372D01*
X111154359Y-65883092D01*
X110995264Y-65913132D01*
X110843191Y-65928556D01*
X110709323Y-65928425D01*
X110604847Y-65911801D01*
X110575062Y-65900912D01*
X110479384Y-65834059D01*
X110399087Y-65734660D01*
X110346623Y-65618328D01*
X110345004Y-65612531D01*
X110329035Y-65503488D01*
X110331842Y-65361243D01*
X110353763Y-65183716D01*
X110395138Y-64968826D01*
X110456303Y-64714492D01*
X110537598Y-64418632D01*
X110540889Y-64407233D01*
X110611920Y-64166375D01*
X110697520Y-63884355D01*
X110796273Y-63565531D01*
X110906766Y-63214261D01*
X111027583Y-62834901D01*
X111157309Y-62431810D01*
X111294529Y-62009343D01*
X111437828Y-61571859D01*
X111585790Y-61123715D01*
X111737002Y-60669268D01*
X111890048Y-60212874D01*
X112043512Y-59758892D01*
X112189983Y-59329194D01*
X112365724Y-58815842D01*
X112218760Y-58831432D01*
X112137427Y-58845211D01*
X112025468Y-58871102D01*
X111897820Y-58905363D01*
X111772809Y-58943160D01*
X111616507Y-58991403D01*
X111497582Y-59022190D01*
X111408551Y-59035811D01*
X111341929Y-59032558D01*
X111290235Y-59012722D01*
X111245984Y-58976596D01*
X111234389Y-58964140D01*
X111194472Y-58911600D01*
X111174236Y-58856775D01*
X111167530Y-58779908D01*
X111167236Y-58748487D01*
X111189879Y-58591467D01*
X111253860Y-58432722D01*
X111353258Y-58280220D01*
X111482154Y-58141931D01*
X111634626Y-58025824D01*
X111751169Y-57962494D01*
X111981447Y-57872863D01*
X112251289Y-57795520D01*
X112553454Y-57731057D01*
X112880702Y-57680061D01*
X113225794Y-57643124D01*
X113581490Y-57620836D01*
X113940549Y-57613786D01*
X114295732Y-57622564D01*
G37*
D17*
%TO.C,A1*%
X91460000Y-50620000D02*
X91460000Y-94060000D01*
X91460000Y-50620000D02*
X96540000Y-50620000D01*
X91460000Y-94060000D02*
X109500000Y-94060000D01*
X94130000Y-53290000D02*
X91460000Y-53290000D01*
X94130000Y-91390000D02*
X91460000Y-91390000D01*
X94130000Y-91390000D02*
X94130000Y-53290000D01*
X96540000Y-48080000D02*
X104420000Y-48080000D01*
X96540000Y-58500000D02*
X96540000Y-48080000D01*
X104420000Y-48080000D02*
X104420000Y-58500000D01*
X104420000Y-58500000D02*
X96540000Y-58500000D01*
X106830000Y-53290000D02*
X109500000Y-53290000D01*
X106830000Y-88850000D02*
X106830000Y-53290000D01*
X106830000Y-88850000D02*
X106830000Y-91390000D01*
X106830000Y-88850000D02*
X109500000Y-88850000D01*
X106830000Y-91390000D02*
X109500000Y-91390000D01*
X109500000Y-50620000D02*
X104420000Y-50620000D01*
X109500000Y-88850000D02*
X109500000Y-50620000D01*
X109500000Y-94060000D02*
X109500000Y-91390000D01*
%TO.C,C1*%
X124220000Y-98810000D02*
X129380000Y-98810000D01*
X124220000Y-98850000D02*
X129380000Y-98850000D01*
X124221000Y-98770000D02*
X129379000Y-98770000D01*
X124222000Y-98730000D02*
X129378000Y-98730000D01*
X124224000Y-98690000D02*
X129376000Y-98690000D01*
X124227000Y-98650000D02*
X129373000Y-98650000D01*
X124231000Y-98610000D02*
X125760000Y-98610000D01*
X124235000Y-98570000D02*
X125760000Y-98570000D01*
X124239000Y-98530000D02*
X125760000Y-98530000D01*
X124244000Y-98490000D02*
X125760000Y-98490000D01*
X124250000Y-98450000D02*
X125760000Y-98450000D01*
X124257000Y-98410000D02*
X125760000Y-98410000D01*
X124264000Y-98370000D02*
X125760000Y-98370000D01*
X124272000Y-98330000D02*
X125760000Y-98330000D01*
X124280000Y-98290000D02*
X125760000Y-98290000D01*
X124289000Y-98250000D02*
X125760000Y-98250000D01*
X124299000Y-98210000D02*
X125760000Y-98210000D01*
X124309000Y-98170000D02*
X125760000Y-98170000D01*
X124320000Y-98129000D02*
X125760000Y-98129000D01*
X124332000Y-98089000D02*
X125760000Y-98089000D01*
X124345000Y-98049000D02*
X125760000Y-98049000D01*
X124358000Y-98009000D02*
X125760000Y-98009000D01*
X124372000Y-97969000D02*
X125760000Y-97969000D01*
X124386000Y-97929000D02*
X125760000Y-97929000D01*
X124402000Y-97889000D02*
X125760000Y-97889000D01*
X124418000Y-97849000D02*
X125760000Y-97849000D01*
X124435000Y-97809000D02*
X125760000Y-97809000D01*
X124452000Y-97769000D02*
X125760000Y-97769000D01*
X124471000Y-97729000D02*
X125760000Y-97729000D01*
X124490000Y-97689000D02*
X125760000Y-97689000D01*
X124510000Y-97649000D02*
X125760000Y-97649000D01*
X124532000Y-97609000D02*
X125760000Y-97609000D01*
X124553000Y-97569000D02*
X125760000Y-97569000D01*
X124576000Y-97529000D02*
X125760000Y-97529000D01*
X124600000Y-97489000D02*
X125760000Y-97489000D01*
X124625000Y-97449000D02*
X125760000Y-97449000D01*
X124651000Y-97409000D02*
X125760000Y-97409000D01*
X124678000Y-97369000D02*
X125760000Y-97369000D01*
X124705000Y-97329000D02*
X125760000Y-97329000D01*
X124735000Y-97289000D02*
X125760000Y-97289000D01*
X124765000Y-97249000D02*
X125760000Y-97249000D01*
X124796000Y-97209000D02*
X125760000Y-97209000D01*
X124829000Y-97169000D02*
X125760000Y-97169000D01*
X124863000Y-97129000D02*
X125760000Y-97129000D01*
X124899000Y-97089000D02*
X125760000Y-97089000D01*
X124936000Y-97049000D02*
X125760000Y-97049000D01*
X124974000Y-97009000D02*
X125760000Y-97009000D01*
X125015000Y-96969000D02*
X125760000Y-96969000D01*
X125057000Y-96929000D02*
X125760000Y-96929000D01*
X125075000Y-101404775D02*
X125575000Y-101404775D01*
X125101000Y-96889000D02*
X125760000Y-96889000D01*
X125147000Y-96849000D02*
X125760000Y-96849000D01*
X125195000Y-96809000D02*
X125760000Y-96809000D01*
X125246000Y-96769000D02*
X125760000Y-96769000D01*
X125300000Y-96729000D02*
X125760000Y-96729000D01*
X125325000Y-101654775D02*
X125325000Y-101154775D01*
X125357000Y-96689000D02*
X125760000Y-96689000D01*
X125417000Y-96649000D02*
X125760000Y-96649000D01*
X125481000Y-96609000D02*
X125760000Y-96609000D01*
X125549000Y-96569000D02*
X125760000Y-96569000D01*
X125622000Y-96529000D02*
X127978000Y-96529000D01*
X125702000Y-96489000D02*
X127898000Y-96489000D01*
X125789000Y-96449000D02*
X127811000Y-96449000D01*
X125885000Y-96409000D02*
X127715000Y-96409000D01*
X125995000Y-96369000D02*
X127605000Y-96369000D01*
X126123000Y-96329000D02*
X127477000Y-96329000D01*
X126282000Y-96289000D02*
X127318000Y-96289000D01*
X126516000Y-96249000D02*
X127084000Y-96249000D01*
X127840000Y-96569000D02*
X128051000Y-96569000D01*
X127840000Y-96609000D02*
X128119000Y-96609000D01*
X127840000Y-96649000D02*
X128183000Y-96649000D01*
X127840000Y-96689000D02*
X128243000Y-96689000D01*
X127840000Y-96729000D02*
X128300000Y-96729000D01*
X127840000Y-96769000D02*
X128354000Y-96769000D01*
X127840000Y-96809000D02*
X128405000Y-96809000D01*
X127840000Y-96849000D02*
X128453000Y-96849000D01*
X127840000Y-96889000D02*
X128499000Y-96889000D01*
X127840000Y-96929000D02*
X128543000Y-96929000D01*
X127840000Y-96969000D02*
X128585000Y-96969000D01*
X127840000Y-97009000D02*
X128626000Y-97009000D01*
X127840000Y-97049000D02*
X128664000Y-97049000D01*
X127840000Y-97089000D02*
X128701000Y-97089000D01*
X127840000Y-97129000D02*
X128737000Y-97129000D01*
X127840000Y-97169000D02*
X128771000Y-97169000D01*
X127840000Y-97209000D02*
X128804000Y-97209000D01*
X127840000Y-97249000D02*
X128835000Y-97249000D01*
X127840000Y-97289000D02*
X128865000Y-97289000D01*
X127840000Y-97329000D02*
X128895000Y-97329000D01*
X127840000Y-97369000D02*
X128922000Y-97369000D01*
X127840000Y-97409000D02*
X128949000Y-97409000D01*
X127840000Y-97449000D02*
X128975000Y-97449000D01*
X127840000Y-97489000D02*
X129000000Y-97489000D01*
X127840000Y-97529000D02*
X129024000Y-97529000D01*
X127840000Y-97569000D02*
X129047000Y-97569000D01*
X127840000Y-97609000D02*
X129068000Y-97609000D01*
X127840000Y-97649000D02*
X129090000Y-97649000D01*
X127840000Y-97689000D02*
X129110000Y-97689000D01*
X127840000Y-97729000D02*
X129129000Y-97729000D01*
X127840000Y-97769000D02*
X129148000Y-97769000D01*
X127840000Y-97809000D02*
X129165000Y-97809000D01*
X127840000Y-97849000D02*
X129182000Y-97849000D01*
X127840000Y-97889000D02*
X129198000Y-97889000D01*
X127840000Y-97929000D02*
X129214000Y-97929000D01*
X127840000Y-97969000D02*
X129228000Y-97969000D01*
X127840000Y-98009000D02*
X129242000Y-98009000D01*
X127840000Y-98049000D02*
X129255000Y-98049000D01*
X127840000Y-98089000D02*
X129268000Y-98089000D01*
X127840000Y-98129000D02*
X129280000Y-98129000D01*
X127840000Y-98170000D02*
X129291000Y-98170000D01*
X127840000Y-98210000D02*
X129301000Y-98210000D01*
X127840000Y-98250000D02*
X129311000Y-98250000D01*
X127840000Y-98290000D02*
X129320000Y-98290000D01*
X127840000Y-98330000D02*
X129328000Y-98330000D01*
X127840000Y-98370000D02*
X129336000Y-98370000D01*
X127840000Y-98410000D02*
X129343000Y-98410000D01*
X127840000Y-98450000D02*
X129350000Y-98450000D01*
X127840000Y-98490000D02*
X129356000Y-98490000D01*
X127840000Y-98530000D02*
X129361000Y-98530000D01*
X127840000Y-98570000D02*
X129365000Y-98570000D01*
X127840000Y-98610000D02*
X129369000Y-98610000D01*
X129420000Y-98850000D02*
G75*
G02*
X124180000Y-98850000I-2620000J0D01*
G01*
X124180000Y-98850000D02*
G75*
G02*
X129420000Y-98850000I2620000J0D01*
G01*
%TO.C,J1*%
X119000000Y-49675000D02*
X119000000Y-51575000D01*
X119000000Y-51575000D02*
X119000000Y-51625000D01*
X119000000Y-51625000D02*
X119500000Y-51375000D01*
X119000000Y-54540000D02*
X119000000Y-58340000D01*
X119000000Y-58340000D02*
X129850000Y-58340000D01*
X119500000Y-48640000D02*
X119500000Y-49925000D01*
X119500000Y-49925000D02*
X119000000Y-49675000D01*
X119500000Y-51375000D02*
X119500000Y-54840000D01*
X119500000Y-54840000D02*
X119000000Y-54540000D01*
X129850000Y-48640000D02*
X119500000Y-48640000D01*
X129850000Y-58340000D02*
X129850000Y-48640000D01*
%TO.C,J2*%
X119190000Y-93370000D02*
X119190000Y-92040000D01*
X120300000Y-93370000D02*
X119190000Y-93370000D01*
X121760000Y-63740000D02*
X121350000Y-63740000D01*
X121760000Y-64460000D02*
X121350000Y-64460000D01*
X121760000Y-66280000D02*
X121350000Y-66280000D01*
X121760000Y-67000000D02*
X121350000Y-67000000D01*
X121760000Y-68820000D02*
X121350000Y-68820000D01*
X121760000Y-69540000D02*
X121350000Y-69540000D01*
X121760000Y-71360000D02*
X121350000Y-71360000D01*
X121760000Y-72080000D02*
X121350000Y-72080000D01*
X121760000Y-73900000D02*
X121350000Y-73900000D01*
X121760000Y-74620000D02*
X121350000Y-74620000D01*
X121760000Y-76440000D02*
X121350000Y-76440000D01*
X121760000Y-77160000D02*
X121350000Y-77160000D01*
X121760000Y-78980000D02*
X121350000Y-78980000D01*
X121760000Y-79700000D02*
X121350000Y-79700000D01*
X121760000Y-81520000D02*
X121350000Y-81520000D01*
X121760000Y-82240000D02*
X121350000Y-82240000D01*
X121760000Y-84060000D02*
X121350000Y-84060000D01*
X121760000Y-84780000D02*
X121350000Y-84780000D01*
X121760000Y-86600000D02*
X121350000Y-86600000D01*
X121760000Y-87320000D02*
X121350000Y-87320000D01*
X121760000Y-89140000D02*
X121350000Y-89140000D01*
X121760000Y-89860000D02*
X121350000Y-89860000D01*
X121760000Y-91680000D02*
X121410000Y-91680000D01*
X121760000Y-92400000D02*
X121410000Y-92400000D01*
X121760000Y-93370000D02*
X121760000Y-62770000D01*
X130390000Y-62770000D02*
X121760000Y-62770000D01*
X130390000Y-65370000D02*
X121760000Y-65370000D01*
X130390000Y-67910000D02*
X121760000Y-67910000D01*
X130390000Y-70450000D02*
X121760000Y-70450000D01*
X130390000Y-72990000D02*
X121760000Y-72990000D01*
X130390000Y-75530000D02*
X121760000Y-75530000D01*
X130390000Y-78070000D02*
X121760000Y-78070000D01*
X130390000Y-80610000D02*
X121760000Y-80610000D01*
X130390000Y-83150000D02*
X121760000Y-83150000D01*
X130390000Y-85690000D02*
X121760000Y-85690000D01*
X130390000Y-88230000D02*
X121760000Y-88230000D01*
X130390000Y-90770000D02*
X121760000Y-90770000D01*
X130390000Y-90888100D02*
X121760000Y-90888100D01*
X130390000Y-91006195D02*
X121760000Y-91006195D01*
X130390000Y-91124290D02*
X121760000Y-91124290D01*
X130390000Y-91242385D02*
X121760000Y-91242385D01*
X130390000Y-91360480D02*
X121760000Y-91360480D01*
X130390000Y-91478575D02*
X121760000Y-91478575D01*
X130390000Y-91596670D02*
X121760000Y-91596670D01*
X130390000Y-91714765D02*
X121760000Y-91714765D01*
X130390000Y-91832860D02*
X121760000Y-91832860D01*
X130390000Y-91950955D02*
X121760000Y-91950955D01*
X130390000Y-92069050D02*
X121760000Y-92069050D01*
X130390000Y-92187145D02*
X121760000Y-92187145D01*
X130390000Y-92305240D02*
X121760000Y-92305240D01*
X130390000Y-92423335D02*
X121760000Y-92423335D01*
X130390000Y-92541430D02*
X121760000Y-92541430D01*
X130390000Y-92659525D02*
X121760000Y-92659525D01*
X130390000Y-92777620D02*
X121760000Y-92777620D01*
X130390000Y-92895715D02*
X121760000Y-92895715D01*
X130390000Y-93013810D02*
X121760000Y-93013810D01*
X130390000Y-93131905D02*
X121760000Y-93131905D01*
X130390000Y-93250000D02*
X121760000Y-93250000D01*
X130390000Y-93370000D02*
X121760000Y-93370000D01*
X130390000Y-93370000D02*
X130390000Y-62770000D01*
%TO.C,J12*%
X91525000Y-49335000D02*
X91525000Y-51995000D01*
X114445000Y-49335000D02*
X91525000Y-49335000D01*
X114445000Y-49335000D02*
X114445000Y-51995000D01*
X114445000Y-51995000D02*
X91525000Y-51995000D01*
X115715000Y-49335000D02*
X117045000Y-49335000D01*
X117045000Y-49335000D02*
X117045000Y-50665000D01*
%TO.C,C2*%
X124020000Y-110215113D02*
X129180000Y-110215113D01*
X124020000Y-110255113D02*
X129180000Y-110255113D01*
X124021000Y-110175113D02*
X129179000Y-110175113D01*
X124022000Y-110135113D02*
X129178000Y-110135113D01*
X124024000Y-110095113D02*
X129176000Y-110095113D01*
X124027000Y-110055113D02*
X129173000Y-110055113D01*
X124031000Y-110015113D02*
X125560000Y-110015113D01*
X124035000Y-109975113D02*
X125560000Y-109975113D01*
X124039000Y-109935113D02*
X125560000Y-109935113D01*
X124044000Y-109895113D02*
X125560000Y-109895113D01*
X124050000Y-109855113D02*
X125560000Y-109855113D01*
X124057000Y-109815113D02*
X125560000Y-109815113D01*
X124064000Y-109775113D02*
X125560000Y-109775113D01*
X124072000Y-109735113D02*
X125560000Y-109735113D01*
X124080000Y-109695113D02*
X125560000Y-109695113D01*
X124089000Y-109655113D02*
X125560000Y-109655113D01*
X124099000Y-109615113D02*
X125560000Y-109615113D01*
X124109000Y-109575113D02*
X125560000Y-109575113D01*
X124120000Y-109534113D02*
X125560000Y-109534113D01*
X124132000Y-109494113D02*
X125560000Y-109494113D01*
X124145000Y-109454113D02*
X125560000Y-109454113D01*
X124158000Y-109414113D02*
X125560000Y-109414113D01*
X124172000Y-109374113D02*
X125560000Y-109374113D01*
X124186000Y-109334113D02*
X125560000Y-109334113D01*
X124202000Y-109294113D02*
X125560000Y-109294113D01*
X124218000Y-109254113D02*
X125560000Y-109254113D01*
X124235000Y-109214113D02*
X125560000Y-109214113D01*
X124252000Y-109174113D02*
X125560000Y-109174113D01*
X124271000Y-109134113D02*
X125560000Y-109134113D01*
X124290000Y-109094113D02*
X125560000Y-109094113D01*
X124310000Y-109054113D02*
X125560000Y-109054113D01*
X124332000Y-109014113D02*
X125560000Y-109014113D01*
X124353000Y-108974113D02*
X125560000Y-108974113D01*
X124376000Y-108934113D02*
X125560000Y-108934113D01*
X124400000Y-108894113D02*
X125560000Y-108894113D01*
X124425000Y-108854113D02*
X125560000Y-108854113D01*
X124451000Y-108814113D02*
X125560000Y-108814113D01*
X124478000Y-108774113D02*
X125560000Y-108774113D01*
X124505000Y-108734113D02*
X125560000Y-108734113D01*
X124535000Y-108694113D02*
X125560000Y-108694113D01*
X124565000Y-108654113D02*
X125560000Y-108654113D01*
X124596000Y-108614113D02*
X125560000Y-108614113D01*
X124629000Y-108574113D02*
X125560000Y-108574113D01*
X124663000Y-108534113D02*
X125560000Y-108534113D01*
X124699000Y-108494113D02*
X125560000Y-108494113D01*
X124736000Y-108454113D02*
X125560000Y-108454113D01*
X124774000Y-108414113D02*
X125560000Y-108414113D01*
X124815000Y-108374113D02*
X125560000Y-108374113D01*
X124857000Y-108334113D02*
X125560000Y-108334113D01*
X124875000Y-112809888D02*
X125375000Y-112809888D01*
X124901000Y-108294113D02*
X125560000Y-108294113D01*
X124947000Y-108254113D02*
X125560000Y-108254113D01*
X124995000Y-108214113D02*
X125560000Y-108214113D01*
X125046000Y-108174113D02*
X125560000Y-108174113D01*
X125100000Y-108134113D02*
X125560000Y-108134113D01*
X125125000Y-113059888D02*
X125125000Y-112559888D01*
X125157000Y-108094113D02*
X125560000Y-108094113D01*
X125217000Y-108054113D02*
X125560000Y-108054113D01*
X125281000Y-108014113D02*
X125560000Y-108014113D01*
X125349000Y-107974113D02*
X125560000Y-107974113D01*
X125422000Y-107934113D02*
X127778000Y-107934113D01*
X125502000Y-107894113D02*
X127698000Y-107894113D01*
X125589000Y-107854113D02*
X127611000Y-107854113D01*
X125685000Y-107814113D02*
X127515000Y-107814113D01*
X125795000Y-107774113D02*
X127405000Y-107774113D01*
X125923000Y-107734113D02*
X127277000Y-107734113D01*
X126082000Y-107694113D02*
X127118000Y-107694113D01*
X126316000Y-107654113D02*
X126884000Y-107654113D01*
X127640000Y-107974113D02*
X127851000Y-107974113D01*
X127640000Y-108014113D02*
X127919000Y-108014113D01*
X127640000Y-108054113D02*
X127983000Y-108054113D01*
X127640000Y-108094113D02*
X128043000Y-108094113D01*
X127640000Y-108134113D02*
X128100000Y-108134113D01*
X127640000Y-108174113D02*
X128154000Y-108174113D01*
X127640000Y-108214113D02*
X128205000Y-108214113D01*
X127640000Y-108254113D02*
X128253000Y-108254113D01*
X127640000Y-108294113D02*
X128299000Y-108294113D01*
X127640000Y-108334113D02*
X128343000Y-108334113D01*
X127640000Y-108374113D02*
X128385000Y-108374113D01*
X127640000Y-108414113D02*
X128426000Y-108414113D01*
X127640000Y-108454113D02*
X128464000Y-108454113D01*
X127640000Y-108494113D02*
X128501000Y-108494113D01*
X127640000Y-108534113D02*
X128537000Y-108534113D01*
X127640000Y-108574113D02*
X128571000Y-108574113D01*
X127640000Y-108614113D02*
X128604000Y-108614113D01*
X127640000Y-108654113D02*
X128635000Y-108654113D01*
X127640000Y-108694113D02*
X128665000Y-108694113D01*
X127640000Y-108734113D02*
X128695000Y-108734113D01*
X127640000Y-108774113D02*
X128722000Y-108774113D01*
X127640000Y-108814113D02*
X128749000Y-108814113D01*
X127640000Y-108854113D02*
X128775000Y-108854113D01*
X127640000Y-108894113D02*
X128800000Y-108894113D01*
X127640000Y-108934113D02*
X128824000Y-108934113D01*
X127640000Y-108974113D02*
X128847000Y-108974113D01*
X127640000Y-109014113D02*
X128868000Y-109014113D01*
X127640000Y-109054113D02*
X128890000Y-109054113D01*
X127640000Y-109094113D02*
X128910000Y-109094113D01*
X127640000Y-109134113D02*
X128929000Y-109134113D01*
X127640000Y-109174113D02*
X128948000Y-109174113D01*
X127640000Y-109214113D02*
X128965000Y-109214113D01*
X127640000Y-109254113D02*
X128982000Y-109254113D01*
X127640000Y-109294113D02*
X128998000Y-109294113D01*
X127640000Y-109334113D02*
X129014000Y-109334113D01*
X127640000Y-109374113D02*
X129028000Y-109374113D01*
X127640000Y-109414113D02*
X129042000Y-109414113D01*
X127640000Y-109454113D02*
X129055000Y-109454113D01*
X127640000Y-109494113D02*
X129068000Y-109494113D01*
X127640000Y-109534113D02*
X129080000Y-109534113D01*
X127640000Y-109575113D02*
X129091000Y-109575113D01*
X127640000Y-109615113D02*
X129101000Y-109615113D01*
X127640000Y-109655113D02*
X129111000Y-109655113D01*
X127640000Y-109695113D02*
X129120000Y-109695113D01*
X127640000Y-109735113D02*
X129128000Y-109735113D01*
X127640000Y-109775113D02*
X129136000Y-109775113D01*
X127640000Y-109815113D02*
X129143000Y-109815113D01*
X127640000Y-109855113D02*
X129150000Y-109855113D01*
X127640000Y-109895113D02*
X129156000Y-109895113D01*
X127640000Y-109935113D02*
X129161000Y-109935113D01*
X127640000Y-109975113D02*
X129165000Y-109975113D01*
X127640000Y-110015113D02*
X129169000Y-110015113D01*
X129220000Y-110255113D02*
G75*
G02*
X123980000Y-110255113I-2620000J0D01*
G01*
X123980000Y-110255113D02*
G75*
G02*
X129220000Y-110255113I2620000J0D01*
G01*
%TO.C,U1*%
X94250000Y-99580000D02*
X110140000Y-99580000D01*
X94250000Y-109820000D02*
X94250000Y-99580000D01*
X94250000Y-109820000D02*
X110140000Y-109820000D01*
X110140000Y-102160000D02*
X112680000Y-102160000D01*
X110140000Y-104700000D02*
X112680000Y-104700000D01*
X110140000Y-107240000D02*
X112680000Y-107240000D01*
X110140000Y-109820000D02*
X110140000Y-99580000D01*
%TO.C,U6*%
D15*
X123900000Y-113600000D02*
X90900000Y-113600000D01*
X90900000Y-95600000D01*
X123900000Y-95600000D01*
X123900000Y-113600000D01*
D17*
%TO.C,J11*%
X91550000Y-116370000D02*
X91550000Y-119030000D01*
X114470000Y-116370000D02*
X91550000Y-116370000D01*
X114470000Y-116370000D02*
X114470000Y-119030000D01*
X114470000Y-119030000D02*
X91550000Y-119030000D01*
X117070000Y-117700000D02*
X117070000Y-119030000D01*
X117070000Y-119030000D02*
X115740000Y-119030000D01*
%TD*%
M02*
