%TF.GenerationSoftware,KiCad,Pcbnew,8.0.6*%
%TF.CreationDate,2025-08-05T17:05:13-05:00*%
%TF.ProjectId,PPDuino_Nano_Procesador,50504475-696e-46f5-9f4e-616e6f5f5072,rev?*%
%TF.SameCoordinates,Original*%
%TF.FileFunction,Soldermask,Bot*%
%TF.FilePolarity,Negative*%
%FSLAX46Y46*%
G04 Gerber Fmt 4.6, Leading zero omitted, Abs format (unit mm)*
G04 Created by KiCad (PCBNEW 8.0.6) date 2025-08-05 17:05:13*
%MOMM*%
%LPD*%
G01*
G04 APERTURE LIST*
%ADD10R,1.800000X1.800000*%
%ADD11O,1.800000X1.800000*%
%ADD12C,1.800000*%
%ADD13R,1.980000X3.960000*%
%ADD14O,1.980000X3.960000*%
%ADD15O,3.500000X3.500000*%
%ADD16R,2.800000X2.000000*%
%ADD17O,2.800000X2.000000*%
%ADD18C,2.300000*%
%ADD19C,2.400000*%
%ADD20C,3.200000*%
G04 APERTURE END LIST*
D10*
%TO.C,A1*%
X108100000Y-90120000D03*
D11*
X108100000Y-87580000D03*
X108100000Y-85040000D03*
X108100000Y-82500000D03*
X108100000Y-79960000D03*
X108100000Y-77420000D03*
X108100000Y-74880000D03*
X108100000Y-72340000D03*
X108100000Y-69800000D03*
X108100000Y-67260000D03*
X108100000Y-64720000D03*
X108100000Y-62180000D03*
X108100000Y-59640000D03*
X108100000Y-57100000D03*
X108100000Y-54560000D03*
X92860000Y-54560000D03*
X92860000Y-57100000D03*
X92860000Y-59640000D03*
X92860000Y-62180000D03*
X92860000Y-64720000D03*
X92860000Y-67260000D03*
X92860000Y-69800000D03*
X92860000Y-72340000D03*
X92860000Y-74880000D03*
X92860000Y-77420000D03*
X92860000Y-79960000D03*
X92860000Y-82500000D03*
X92860000Y-85040000D03*
X92860000Y-87580000D03*
X92860000Y-90120000D03*
%TD*%
D10*
%TO.C,C1*%
X126800000Y-100100000D03*
D12*
X126800000Y-97600000D03*
%TD*%
D13*
%TO.C,J1*%
X127200000Y-53340000D03*
D14*
X122200000Y-53340000D03*
%TD*%
D10*
%TO.C,J2*%
X120300000Y-92040000D03*
D11*
X120300000Y-89500000D03*
X120300000Y-86960000D03*
X120300000Y-84420000D03*
X120300000Y-81880000D03*
X120300000Y-79340000D03*
X120300000Y-76800000D03*
X120300000Y-74260000D03*
X120300000Y-71720000D03*
X120300000Y-69180000D03*
X120300000Y-66640000D03*
X120300000Y-64100000D03*
%TD*%
D10*
%TO.C,J12*%
X115715000Y-50665000D03*
D11*
X113175000Y-50665000D03*
X110635000Y-50665000D03*
X108095000Y-50665000D03*
X105555000Y-50665000D03*
X103015000Y-50665000D03*
X100475000Y-50665000D03*
X97935000Y-50665000D03*
X95395000Y-50665000D03*
X92855000Y-50665000D03*
%TD*%
D10*
%TO.C,C2*%
X126600000Y-111505113D03*
D12*
X126600000Y-109005113D03*
%TD*%
D15*
%TO.C,U1*%
X97170000Y-104700000D03*
D16*
X113830000Y-107240000D03*
D17*
X113830000Y-104700000D03*
X113830000Y-102160000D03*
%TD*%
D18*
%TO.C,U6*%
X121900000Y-111600000D03*
X121900000Y-109100000D03*
X121900000Y-100100000D03*
X121900000Y-97600000D03*
X92900000Y-111600000D03*
X92900000Y-109100000D03*
X92900000Y-100100000D03*
D19*
X92900000Y-97600000D03*
%TD*%
D20*
%TO.C,REF\u002A\u002A*%
X114400000Y-75200000D03*
%TD*%
D10*
%TO.C,J11*%
X115740000Y-117700000D03*
D11*
X113200000Y-117700000D03*
X110660000Y-117700000D03*
X108120000Y-117700000D03*
X105580000Y-117700000D03*
X103040000Y-117700000D03*
X100500000Y-117700000D03*
X97960000Y-117700000D03*
X95420000Y-117700000D03*
X92880000Y-117700000D03*
%TD*%
M02*
