<?xml version="1.0" encoding="UTF-8" standalone="no"?>
<!-- Created with Inkscape (http://www.inkscape.org/) -->

<svg
   width="238.58669mm"
   height="336.61731mm"
   viewBox="0 0 238.58669 336.61731"
   version="1.1"
   id="svg1"
   xml:space="preserve"
   inkscape:version="1.3.2 (091e20e, 2023-11-25, custom)"
   sodipodi:docname="Logo Fab Lab PPD Electronica.svg"
   inkscape:export-filename="Logo Fab Lab PPD Electronica.png"
   inkscape:export-xdpi="333"
   inkscape:export-ydpi="333"
   xmlns:inkscape="http://www.inkscape.org/namespaces/inkscape"
   xmlns:sodipodi="http://sodipodi.sourceforge.net/DTD/sodipodi-0.dtd"
   xmlns="http://www.w3.org/2000/svg"
   xmlns:svg="http://www.w3.org/2000/svg"><sodipodi:namedview
     id="namedview1"
     pagecolor="#ffffff"
     bordercolor="#000000"
     borderopacity="0.25"
     inkscape:showpageshadow="2"
     inkscape:pageopacity="0.0"
     inkscape:pagecheckerboard="0"
     inkscape:deskcolor="#d1d1d1"
     inkscape:document-units="mm"
     inkscape:zoom="0.1767767"
     inkscape:cx="913.58196"
     inkscape:cy="1145.513"
     inkscape:window-width="1920"
     inkscape:window-height="1009"
     inkscape:window-x="-8"
     inkscape:window-y="-8"
     inkscape:window-maximized="1"
     inkscape:current-layer="g1"
     showguides="true" /><defs
     id="defs1"><inkscape:path-effect
       effect="fillet_chamfer"
       id="path-effect8"
       is_visible="true"
       lpeversion="1"
       nodesatellites_param="F,0,0,1,0,1.3229167,0,1 @ F,0,0,1,0,1.3229167,0,1 @ F,0,0,1,0,1.3229167,0,1 @ F,0,0,1,0,1.3229167,0,1"
       radius="5"
       unit="px"
       method="auto"
       mode="F"
       chamfer_steps="1"
       flexible="false"
       use_knot_distance="true"
       apply_no_radius="true"
       apply_with_radius="true"
       only_selected="false"
       hide_knots="false" /><inkscape:path-effect
       effect="fillet_chamfer"
       id="path-effect7"
       is_visible="true"
       lpeversion="1"
       nodesatellites_param="F,0,0,1,0,0,0,1 @ F,0,0,1,0,0,0,1 @ F,0,0,1,0,0,0,1 @ F,0,0,1,0,0,0,1 @ F,0,0,1,0,0,0,1 @ F,0,0,1,0,0,0,1 @ F,0,0,1,0,0,0,1 @ F,0,0,1,0,0,0,1"
       radius="0"
       unit="px"
       method="auto"
       mode="F"
       chamfer_steps="1"
       flexible="false"
       use_knot_distance="true"
       apply_no_radius="true"
       apply_with_radius="true"
       only_selected="false"
       hide_knots="false" /><inkscape:path-effect
       effect="fillet_chamfer"
       id="path-effect8-4"
       is_visible="true"
       lpeversion="1"
       nodesatellites_param="F,0,0,1,0,1.3229167,0,1 @ F,0,0,1,0,1.3229167,0,1 @ F,0,0,1,0,1.3229167,0,1 @ F,0,0,1,0,1.3229167,0,1"
       radius="5"
       unit="px"
       method="auto"
       mode="F"
       chamfer_steps="1"
       flexible="false"
       use_knot_distance="true"
       apply_no_radius="true"
       apply_with_radius="true"
       only_selected="false"
       hide_knots="false" /><inkscape:path-effect
       effect="fillet_chamfer"
       id="path-effect7-1"
       is_visible="true"
       lpeversion="1"
       nodesatellites_param="F,0,0,1,0,0,0,1 @ F,0,0,1,0,0,0,1 @ F,0,0,1,0,0,0,1 @ F,0,0,1,0,0,0,1 @ F,0,0,1,0,0,0,1 @ F,0,0,1,0,0,0,1 @ F,0,0,1,0,0,0,1 @ F,0,0,1,0,0,0,1"
       radius="0"
       unit="px"
       method="auto"
       mode="F"
       chamfer_steps="1"
       flexible="false"
       use_knot_distance="true"
       apply_no_radius="true"
       apply_with_radius="true"
       only_selected="false"
       hide_knots="false" /></defs><g
     inkscape:label="Capa 1"
     inkscape:groupmode="layer"
     id="layer1"
     transform="translate(-175.04355,-526.69282)"><g
       id="g1"
       transform="translate(-10.054167,-16.933338)"
       inkscape:export-filename="..\..\Videos\FLIT2024\Flit2024\Pedro.png"
       inkscape:export-xdpi="333"
       inkscape:export-ydpi="333"><g
         id="g2"
         transform="matrix(1.5832213,0,0,1.589867,139.13383,446.36574)"><path
           id="path5"
           fill="#0e9a48"
           d="m 87.599353,189.72429 v -17.25163 c 0.619125,-0.2368 1.223169,-0.51938 1.803136,-0.86175 8.225101,-4.84902 9.08976,-18.62534 1.929606,-30.76786 C 84.172734,128.7 71.70107,122.78788 63.476233,127.63716 c -8.225102,4.84955 -9.089496,18.62508 -1.930665,30.76787 1.155171,1.95871 2.449512,3.75232 3.840956,5.3676 v 12.81615 L 47.658912,166.4436 v -63.54074 l -6.21374,-4.10184 c -5.660495,10.31319 -8.879681,22.15647 -8.879681,34.75117 0,39.13293 31.051235,70.9922 69.871169,72.27808 l 0.007,-7.45543 z"
           style="fill:#00d200;fill-opacity:1;stroke:none;stroke-width:0.264583;stroke-opacity:1" /><path
           id="path7"
           fill="#cb2026"
           d="m 67.010008,88.756908 10.835216,6.421437 c -0.213519,1.780382 -0.220398,3.740415 -0.213519,4.414309 0.09922,9.547486 13.029406,16.805536 27.125085,16.659486 14.09568,-0.14605 24.13503,-8.68547 24.06385,-17.086788 -0.0804,-9.547225 -9.26147,-17.022232 -23.35186,-17.442391 -4.77017,-0.142346 -9.368365,0.810154 -11.462277,1.210204 l -7.902575,-5.055129 18.795202,-10.723827 55.40693,32.206405 6.3545,-3.488002 C 160.54736,85.821091 151.88966,77.122386 140.97454,70.838003 107.06078,51.312547 63.957245,62.326357 43.474262,95.327306 l 6.302639,3.979862 z"
           style="fill:#d20000;fill-opacity:1;stroke:none;stroke-width:0.264583;stroke-opacity:1" /><path
           id="path9"
           fill="#35469d"
           d="m 162.1756,123.76287 -11.78242,6.15871 c -0.42704,-0.0714 -3.04244,-2.51937 -3.63088,-2.84798 -8.34125,-4.64688 -20.62109,1.49728 -27.48147,13.81152 -6.86065,12.3137 -6.27566,26.39298 2.06507,31.04091 8.34152,4.64661 20.76185,-0.92842 27.62329,-13.24213 1.10649,-1.98649 2.58419,-6.59818 3.27501,-8.61457 l 10.03777,-5.80284 -0.0595,22.03265 -55.2585,32.27123 0.0267,7.27101 c 11.7602,-0.32623 23.60691,-3.53324 34.47547,-9.897 33.76877,-19.7739 45.57104,-62.66789 27.06529,-96.816599 l -6.35583,3.490119 z"
           style="fill:#0000d2;fill-opacity:1;stroke:none;stroke-width:0.264583;stroke-opacity:1" /></g><text
         xml:space="preserve"
         style="font-style:normal;font-variant:normal;font-weight:normal;font-stretch:normal;font-size:37.2408px;font-family:Tahoma;-inkscape-font-specification:Tahoma;text-align:center;text-anchor:middle;fill:#000000;fill-opacity:1;stroke:none;stroke-width:9.59677;stroke-opacity:1"
         x="305.39325"
         y="824.39532"
         id="text1-5"
         transform="scale(0.99414341,1.0058911)"><tspan
           sodipodi:role="line"
           id="tspan1-2"
           style="font-style:normal;font-variant:normal;font-weight:bold;font-stretch:normal;font-family:Tahoma;-inkscape-font-specification:'Tahoma Bold';fill:#000000;fill-opacity:1;stroke-width:9.59677"
           x="305.39325"
           y="824.39532">FAB LAB PPD</tspan></text><text
         xml:space="preserve"
         style="font-style:normal;font-variant:normal;font-weight:normal;font-stretch:normal;font-size:34.4309px;font-family:Tahoma;-inkscape-font-specification:Tahoma;text-align:center;text-anchor:middle;fill:#000000;fill-opacity:1;stroke:none;stroke-width:8.87265;stroke-opacity:1"
         x="316.25912"
         y="842.83191"
         id="text1-5-2"
         transform="scale(0.95809072,1.0437425)"><tspan
           sodipodi:role="line"
           style="font-style:normal;font-variant:normal;font-weight:bold;font-stretch:normal;font-family:Tahoma;-inkscape-font-specification:'Tahoma Bold';fill:#000000;fill-opacity:1;stroke-width:8.87265"
           x="316.25912"
           y="842.83191"
           id="tspan2">ELECTRÓNICA</tspan></text><ellipse
         style="fill:#ffffff;fill-opacity:1;stroke-width:1.5"
         id="path1"
         cx="585.70007"
         cy="501.30051"
         rx="11.038231"
         ry="15.154182"
         transform="rotate(22.25374)" /><ellipse
         style="fill:#ffffff;fill-opacity:1;stroke-width:1.5"
         id="path1-2"
         cx="19.264357"
         cy="730.3811"
         rx="11.038231"
         ry="15.154182"
         transform="matrix(-0.92551579,0.37870903,0.37870903,0.92551579,0,0)" /><ellipse
         style="fill:#ffffff;fill-opacity:1;stroke-width:1.5"
         id="path1-2-7"
         cx="-632.66284"
         cy="235.16637"
         rx="11.038231"
         ry="15.154182"
         transform="rotate(-96.395246)" /></g></g></svg>
