M48
; DRILL file {KiCad 8.0.6} date 2025-08-05T17:19:40-0500
; FORMAT={-:-/ absolute / inch / decimal}
; #@! TF.CreationDate,2025-08-05T17:19:40-05:00
; #@! TF.GenerationSoftware,Kicad,Pcbnew,8.0.6
; #@! TF.FileFunction,Plated,1,2,PTH
FMAT,2
INCH
; #@! TA.AperFunction,Plated,PTH,ViaDrill
T1C0.0157
; #@! TA.AperFunction,Plated,PTH,ComponentDrill
T2C0.0315
; #@! TA.AperFunction,Plated,PTH,ComponentDrill
T3C0.0354
; #@! TA.AperFunction,Plated,PTH,ComponentDrill
T4C0.0394
; #@! TA.AperFunction,Plated,PTH,ComponentDrill
T5C0.0520
%
G90
G05
T1
X5.0551Y-4.122
X5.2244Y-4.5354
X5.2559Y-3.8189
X5.3504Y-4.122
X5.3543Y-2.8382
X5.3543Y-3.0862
X5.4213Y-4.122
X5.4488Y-3.8189
X5.5512Y-2.8382
X5.5512Y-3.0862
X5.5551Y-3.8189
X5.6535Y-4.122
X5.6953Y-4.4669
X5.7283Y-4.122
X5.7441Y-2.8382
X5.7441Y-3.0862
X5.752Y-3.8189
X5.7874Y-4.3937
X5.8504Y-3.8189
X5.9429Y-2.8362
X5.9449Y-3.0862
X5.9488Y-4.122
X6.0551Y-3.8189
X6.0709Y-4.3937
X6.0906Y-4.5354
X6.2323Y-4.4646
X6.248Y-2.7165
X6.248Y-3.2756
T2
X5.0539Y-3.6831
X5.0551Y-3.8972
X5.0551Y-4.1972
X5.1539Y-3.6831
X5.1732Y-3.2047
X5.1732Y-3.5047
X5.2539Y-3.6831
X5.2992Y-3.2047
X5.2992Y-3.5047
X5.3504Y-3.8933
X5.3504Y-4.1933
X5.3531Y-3.6831
X5.4252Y-3.2047
X5.4252Y-3.5047
X5.4531Y-3.6831
X5.5512Y-3.2039
X5.5512Y-3.5039
X5.5531Y-3.6831
X5.6524Y-3.6831
X5.6535Y-3.8929
X5.6535Y-4.1929
X5.6772Y-3.2039
X5.6772Y-3.5039
X5.7524Y-3.6831
X5.8031Y-3.2039
X5.8031Y-3.5039
X5.8524Y-3.6831
X5.9291Y-3.2047
X5.9291Y-3.5047
X5.9476Y-3.6831
X5.9488Y-3.8933
X5.9488Y-4.1933
X6.0476Y-3.6831
X6.0551Y-3.2047
X6.0551Y-3.5047
X6.1476Y-3.6831
X6.185Y-3.2004
X6.185Y-3.5004
X6.311Y-3.2004
X6.311Y-3.5004
X6.311Y-3.6181
X6.311Y-3.9181
X6.4409Y-3.2004
X6.4409Y-3.5004
X6.4409Y-3.6181
X6.4409Y-3.9181
X6.5669Y-3.1965
X6.5669Y-3.4965
X6.6772Y-3.1965
X6.6772Y-3.4965
T3
X5.252Y-2.9419
X5.252Y-3.0419
X5.4528Y-2.9419
X5.4528Y-3.0419
X5.6496Y-2.9419
X5.6496Y-3.0419
X5.8425Y-2.9436
X5.8425Y-3.0436
X6.3504Y-2.9376
X6.3504Y-3.0376
T4
X5.2898Y-4.6413
X5.3898Y-4.6413
X5.4898Y-4.6413
X5.5898Y-4.6413
X5.6898Y-4.6413
X5.7898Y-4.6413
X5.8898Y-4.6413
X5.9898Y-4.6413
X6.0898Y-4.6413
X6.1898Y-4.6413
T5
X4.853Y-2.6007
X5.0498Y-2.6007
X5.252Y-2.598
X5.4528Y-2.602
X5.648Y-2.602
X5.8449Y-2.602
X6.0472Y-2.598
X6.248Y-2.602
X6.4433Y-2.602
X6.6402Y-2.602
M30
